<?xml version="1.0" encoding="UTF-8"?>
<svg xmlns="http://www.w3.org/2000/svg" xmlns:xlink="http://www.w3.org/1999/xlink" width="164pt" height="144pt" viewBox="0 0 164 144" version="1.1">
<defs>
<clipPath id="clip1">
  <path d="M 0.300781 0.398438 L 163.199219 0.398438 L 163.199219 144 L 0.300781 144 Z M 0.300781 0.398438 "/>
</clipPath>
</defs>
<g id="surface1">
<g clip-path="url(#clip1)" clip-rule="nonzero">
<path style="fill-rule:nonzero;fill:rgb(100%,100%,100%);fill-opacity:1;stroke-width:5;stroke-linecap:round;stroke-linejoin:round;stroke:rgb(100%,100%,100%);stroke-opacity:1;stroke-miterlimit:10;" d="M 6.40625 2.617188 L 1633.398438 2.617188 L 1633.398438 1433.632812 L 6.40625 1433.632812 Z M 6.40625 2.617188 " transform="matrix(0.1,0,0,-0.1,0,144)"/>
</g>
<path style="fill:none;stroke-width:8;stroke-linecap:round;stroke-linejoin:round;stroke:rgb(0%,0%,0%);stroke-opacity:1;stroke-miterlimit:10;" d="M 226.25 186.367188 L 1208.203125 186.367188 " transform="matrix(0.1,0,0,-0.1,0,144)"/>
<path style="fill:none;stroke-width:8;stroke-linecap:round;stroke-linejoin:round;stroke:rgb(0%,0%,0%);stroke-opacity:1;stroke-miterlimit:10;" d="M 1208.203125 186.367188 L 717.226562 1036.757812 " transform="matrix(0.1,0,0,-0.1,0,144)"/>
<path style="fill:none;stroke-width:8;stroke-linecap:round;stroke-linejoin:round;stroke:rgb(0%,0%,0%);stroke-opacity:1;stroke-miterlimit:10;" d="M 717.226562 1036.757812 L 226.25 186.367188 " transform="matrix(0.1,0,0,-0.1,0,144)"/>
<path style="fill:none;stroke-width:8;stroke-linecap:round;stroke-linejoin:round;stroke:rgb(0%,0%,0%);stroke-opacity:1;stroke-miterlimit:10;" d="M 496.40625 186.367188 L 226.25 186.367188 " transform="matrix(0.1,0,0,-0.1,0,144)"/>
<path style="fill-rule:nonzero;fill:rgb(0%,0%,0%);fill-opacity:1;stroke-width:8;stroke-linecap:round;stroke-linejoin:round;stroke:rgb(0%,0%,0%);stroke-opacity:1;stroke-miterlimit:10;" d="M 566.40625 186.367188 L 496.40625 205.15625 L 496.40625 167.617188 Z M 566.40625 186.367188 " transform="matrix(0.1,0,0,-0.1,0,144)"/>
<path style="fill:none;stroke-width:8;stroke-linecap:round;stroke-linejoin:round;stroke:rgb(0%,0%,0%);stroke-opacity:1;stroke-miterlimit:10;" d="M 226.25 456.523438 L 226.25 186.367188 " transform="matrix(0.1,0,0,-0.1,0,144)"/>
<path style="fill-rule:nonzero;fill:rgb(0%,0%,0%);fill-opacity:1;stroke-width:8;stroke-linecap:round;stroke-linejoin:round;stroke:rgb(0%,0%,0%);stroke-opacity:1;stroke-miterlimit:10;" d="M 226.25 526.523438 L 207.460938 456.523438 L 245 456.523438 Z M 226.25 526.523438 " transform="matrix(0.1,0,0,-0.1,0,144)"/>
<path style="fill:none;stroke-width:8;stroke-linecap:round;stroke-linejoin:round;stroke:rgb(0%,0%,0%);stroke-opacity:1;stroke-miterlimit:10;" d="M 1478.359375 186.367188 L 1208.203125 186.367188 " transform="matrix(0.1,0,0,-0.1,0,144)"/>
<path style="fill-rule:nonzero;fill:rgb(0%,0%,0%);fill-opacity:1;stroke-width:8;stroke-linecap:round;stroke-linejoin:round;stroke:rgb(0%,0%,0%);stroke-opacity:1;stroke-miterlimit:10;" d="M 1548.359375 186.367188 L 1478.359375 205.15625 L 1478.359375 167.617188 Z M 1548.359375 186.367188 " transform="matrix(0.1,0,0,-0.1,0,144)"/>
<path style="fill:none;stroke-width:8;stroke-linecap:round;stroke-linejoin:round;stroke:rgb(0%,0%,0%);stroke-opacity:1;stroke-miterlimit:10;" d="M 1208.203125 456.523438 L 1208.203125 186.367188 " transform="matrix(0.1,0,0,-0.1,0,144)"/>
<path style="fill-rule:nonzero;fill:rgb(0%,0%,0%);fill-opacity:1;stroke-width:8;stroke-linecap:round;stroke-linejoin:round;stroke:rgb(0%,0%,0%);stroke-opacity:1;stroke-miterlimit:10;" d="M 1208.203125 526.523438 L 1189.414062 456.523438 L 1226.953125 456.523438 Z M 1208.203125 526.523438 " transform="matrix(0.1,0,0,-0.1,0,144)"/>
<path style="fill:none;stroke-width:8;stroke-linecap:round;stroke-linejoin:round;stroke:rgb(0%,0%,0%);stroke-opacity:1;stroke-miterlimit:10;" d="M 987.382812 1036.757812 L 717.226562 1036.757812 " transform="matrix(0.1,0,0,-0.1,0,144)"/>
<path style="fill-rule:nonzero;fill:rgb(0%,0%,0%);fill-opacity:1;stroke-width:8;stroke-linecap:round;stroke-linejoin:round;stroke:rgb(0%,0%,0%);stroke-opacity:1;stroke-miterlimit:10;" d="M 1057.382812 1036.757812 L 987.382812 1055.546875 L 987.382812 1018.007812 Z M 1057.382812 1036.757812 " transform="matrix(0.1,0,0,-0.1,0,144)"/>
<path style="fill:none;stroke-width:8;stroke-linecap:round;stroke-linejoin:round;stroke:rgb(0%,0%,0%);stroke-opacity:1;stroke-miterlimit:10;" d="M 717.226562 1306.914062 L 717.226562 1036.757812 " transform="matrix(0.1,0,0,-0.1,0,144)"/>
<path style="fill-rule:nonzero;fill:rgb(0%,0%,0%);fill-opacity:1;stroke-width:8;stroke-linecap:round;stroke-linejoin:round;stroke:rgb(0%,0%,0%);stroke-opacity:1;stroke-miterlimit:10;" d="M 717.226562 1376.914062 L 698.4375 1306.914062 L 735.976562 1306.914062 Z M 717.226562 1376.914062 " transform="matrix(0.1,0,0,-0.1,0,144)"/>
<path style=" stroke:none;fill-rule:nonzero;fill:rgb(0%,50%,0%);fill-opacity:1;" d="M 31.128906 125.363281 C 31.128906 120.664062 27.320312 116.859375 22.625 116.859375 C 17.925781 116.859375 14.121094 120.664062 14.121094 125.363281 C 14.121094 130.058594 17.925781 133.867188 22.625 133.867188 C 27.320312 133.867188 31.128906 130.058594 31.128906 125.363281 "/>
<path style="fill:none;stroke-width:6;stroke-linecap:round;stroke-linejoin:round;stroke:rgb(0%,25%,0%);stroke-opacity:1;stroke-miterlimit:10;" d="M 311.289062 186.367188 C 311.289062 233.359375 273.203125 271.40625 226.25 271.40625 C 179.257812 271.40625 141.210938 233.359375 141.210938 186.367188 C 141.210938 139.414062 179.257812 101.328125 226.25 101.328125 C 273.203125 101.328125 311.289062 139.414062 311.289062 186.367188 Z M 311.289062 186.367188 " transform="matrix(0.1,0,0,-0.1,0,144)"/>
<path style=" stroke:none;fill-rule:nonzero;fill:rgb(0%,50%,0%);fill-opacity:1;" d="M 129.324219 125.363281 C 129.324219 120.664062 125.515625 116.859375 120.820312 116.859375 C 116.121094 116.859375 112.316406 120.664062 112.316406 125.363281 C 112.316406 130.058594 116.121094 133.867188 120.820312 133.867188 C 125.515625 133.867188 129.324219 130.058594 129.324219 125.363281 "/>
<path style="fill:none;stroke-width:6;stroke-linecap:round;stroke-linejoin:round;stroke:rgb(0%,25%,0%);stroke-opacity:1;stroke-miterlimit:10;" d="M 1293.242188 186.367188 C 1293.242188 233.359375 1255.15625 271.40625 1208.203125 271.40625 C 1161.210938 271.40625 1123.164062 233.359375 1123.164062 186.367188 C 1123.164062 139.414062 1161.210938 101.328125 1208.203125 101.328125 C 1255.15625 101.328125 1293.242188 139.414062 1293.242188 186.367188 Z M 1293.242188 186.367188 " transform="matrix(0.1,0,0,-0.1,0,144)"/>
<path style=" stroke:none;fill-rule:nonzero;fill:rgb(0%,50%,0%);fill-opacity:1;" d="M 80.226562 40.324219 C 80.226562 35.625 76.417969 31.820312 71.722656 31.820312 C 67.023438 31.820312 63.21875 35.625 63.21875 40.324219 C 63.21875 45.019531 67.023438 48.828125 71.722656 48.828125 C 76.417969 48.828125 80.226562 45.019531 80.226562 40.324219 "/>
<path style="fill:none;stroke-width:6;stroke-linecap:round;stroke-linejoin:round;stroke:rgb(0%,25%,0%);stroke-opacity:1;stroke-miterlimit:10;" d="M 802.265625 1036.757812 C 802.265625 1083.75 764.179688 1121.796875 717.226562 1121.796875 C 670.234375 1121.796875 632.1875 1083.75 632.1875 1036.757812 C 632.1875 989.804688 670.234375 951.71875 717.226562 951.71875 C 764.179688 951.71875 802.265625 989.804688 802.265625 1036.757812 Z M 802.265625 1036.757812 " transform="matrix(0.1,0,0,-0.1,0,144)"/>
<path style=" stroke:none;fill-rule:nonzero;fill:rgb(100%,100%,100%);fill-opacity:1;" d="M 24.109375 121.09375 L 19.660156 128.164062 C 19.230469 128.832031 19.015625 129.023438 18.613281 129.117188 L 18.375 129.179688 L 18.375 129.535156 C 19.46875 129.5 19.46875 129.5 19.710938 129.5 C 19.933594 129.5 19.960938 129.5 20.984375 129.535156 L 20.984375 129.203125 L 20.363281 129.164062 C 20.171875 129.15625 19.996094 129.046875 19.996094 128.9375 C 19.996094 128.84375 20.078125 128.679688 20.304688 128.285156 L 21.519531 126.199219 L 24.453125 126.199219 L 24.75 128.4375 L 24.75 128.476562 C 24.75 128.488281 24.761719 128.523438 24.773438 128.582031 C 24.785156 128.679688 24.796875 128.796875 24.796875 128.84375 C 24.796875 129.035156 24.621094 129.140625 24.285156 129.164062 L 23.761719 129.203125 L 23.761719 129.535156 C 24.976562 129.5 24.976562 129.5 25.214844 129.5 C 25.453125 129.5 25.453125 129.5 26.671875 129.535156 L 26.671875 129.203125 L 26.359375 129.164062 C 25.800781 129.082031 25.789062 129.082031 25.691406 128.546875 L 24.65625 121.09375 Z M 23.953125 122.335938 L 24.394531 125.769531 L 21.820312 125.769531 Z M 23.953125 122.335938 "/>
<path style=" stroke:none;fill-rule:nonzero;fill:rgb(100%,100%,100%);fill-opacity:1;" d="M 118.457031 121.585938 L 119.089844 121.609375 C 119.371094 121.621094 119.503906 121.714844 119.503906 121.929688 C 119.503906 122.097656 119.457031 122.476562 119.398438 122.835938 L 118.359375 128.84375 C 118.3125 129.058594 118.171875 129.140625 117.671875 129.226562 L 117.609375 129.535156 L 118.050781 129.523438 C 118.371094 129.5 118.550781 129.5 118.695312 129.5 C 118.828125 129.5 119.136719 129.511719 119.445312 129.523438 L 119.886719 129.535156 L 120.125 129.546875 C 120.351562 129.558594 120.507812 129.570312 120.601562 129.570312 C 121.171875 129.570312 121.746094 129.40625 122.304688 129.070312 C 123.246094 128.511719 123.773438 127.699219 123.773438 126.792969 C 123.773438 126.28125 123.605469 125.886719 123.285156 125.625 C 122.972656 125.375 122.617188 125.269531 121.792969 125.148438 C 122.472656 124.910156 122.773438 124.765625 123.140625 124.433594 C 123.6875 123.96875 123.964844 123.410156 123.964844 122.800781 C 123.964844 121.824219 123.273438 121.25 122.078125 121.25 C 122.054688 121.25 121.9375 121.25 121.757812 121.261719 L 121.007812 121.273438 C 120.863281 121.289062 120.433594 121.289062 120.292969 121.289062 C 120.066406 121.289062 119.695312 121.273438 119.113281 121.261719 L 118.492188 121.25 Z M 119.886719 125.445312 L 120.898438 125.445312 C 122.128906 125.445312 122.722656 125.949219 122.722656 126.984375 C 122.722656 128.210938 121.851562 129.09375 120.660156 129.09375 C 120.421875 129.09375 120.078125 129.082031 119.683594 129.046875 C 119.613281 129.035156 119.46875 129.023438 119.277344 129.011719 Z M 120.542969 121.75 C 120.671875 121.75 120.695312 121.738281 120.949219 121.726562 C 121.199219 121.703125 121.351562 121.691406 121.496094 121.691406 C 122.460938 121.691406 122.9375 122.121094 122.9375 123.015625 C 122.9375 124.265625 122.054688 125.015625 120.578125 125.015625 L 119.957031 125.015625 L 120.542969 121.75 "/>
<path style=" stroke:none;fill-rule:nonzero;fill:rgb(100%,100%,100%);fill-opacity:1;" d="M 74.816406 38.214844 L 75.140625 38.214844 C 75.199219 37.535156 75.292969 37.023438 75.460938 36.472656 C 74.554688 36.128906 73.875 35.984375 73.136719 35.984375 C 72.15625 35.984375 71.179688 36.28125 70.347656 36.84375 C 68.953125 37.785156 68.234375 39.191406 68.234375 41.015625 C 68.234375 43.328125 69.511719 44.613281 71.789062 44.613281 C 72.933594 44.613281 73.78125 44.339844 74.851562 43.601562 L 74.972656 43.171875 L 74.851562 43.089844 C 73.730469 43.769531 73.113281 43.984375 72.183594 43.984375 C 70.3125 43.984375 69.285156 42.839844 69.285156 40.71875 C 69.285156 39.394531 69.691406 38.214844 70.417969 37.472656 C 70.976562 36.902344 71.742188 36.617188 72.683594 36.617188 C 73.53125 36.617188 74.148438 36.78125 74.816406 37.210938 L 74.816406 38.214844 "/>
<path style=" stroke:none;fill-rule:nonzero;fill:rgb(0%,0%,0%);fill-opacity:1;" d="M 50.371094 130.671875 C 49.984375 130.515625 49.722656 130.453125 49.460938 130.453125 C 49.21875 130.453125 49 130.527344 48.75 130.679688 C 48.421875 130.878906 48.027344 131.203125 47.828125 131.429688 C 47.46875 131.851562 47.117188 133.167969 47.117188 134.097656 C 47.117188 134.628906 47.226562 134.898438 47.441406 134.898438 C 47.640625 134.898438 47.8125 134.828125 48.101562 134.628906 L 48.171875 134.574219 C 48.757812 134.160156 49.34375 133.511719 49.675781 132.914062 L 48.992188 136.648438 C 48.945312 136.863281 48.855469 137.046875 48.75 137.164062 L 48.828125 137.289062 C 49.109375 137.21875 49.390625 137.164062 49.605469 137.136719 C 49.640625 136.648438 49.695312 136.152344 49.777344 135.703125 L 50.550781 131.589844 C 50.652344 131.039062 50.703125 130.804688 50.796875 130.527344 L 50.667969 130.472656 Z M 49.875 131.996094 C 49.777344 132.457031 49.578125 132.851562 49.242188 133.265625 C 48.773438 133.84375 48.226562 134.269531 47.964844 134.269531 C 47.835938 134.269531 47.765625 134.078125 47.765625 133.78125 C 47.765625 132.914062 48.152344 131.5625 48.53125 131.113281 C 48.640625 130.976562 48.902344 130.894531 49.191406 130.894531 C 49.441406 130.894531 49.632812 130.949219 50.066406 131.140625 L 49.875 131.996094 "/>
<path style=" stroke:none;fill-rule:nonzero;fill:rgb(0%,0%,0%);fill-opacity:1;" d="M 51.671875 132.699219 L 51.742188 132.699219 L 52.648438 132.289062 C 52.65625 132.28125 52.664062 132.28125 52.667969 132.28125 C 52.710938 132.28125 52.726562 132.347656 52.726562 132.515625 L 52.726562 135.925781 C 52.726562 136.289062 52.648438 136.367188 52.269531 136.390625 L 51.875 136.410156 L 51.875 136.621094 C 52.957031 136.601562 52.957031 136.601562 53.035156 136.601562 C 53.125 136.601562 53.28125 136.601562 53.519531 136.605469 C 53.605469 136.613281 53.851562 136.613281 54.140625 136.621094 L 54.140625 136.410156 L 53.773438 136.390625 C 53.386719 136.367188 53.316406 136.289062 53.316406 135.925781 L 53.316406 131.757812 L 53.21875 131.722656 C 52.761719 131.960938 52.261719 132.171875 51.621094 132.394531 L 51.671875 132.699219 "/>
<path style=" stroke:none;fill-rule:nonzero;fill:rgb(0%,0%,0%);fill-opacity:1;" d="M 13.570312 93.769531 C 13.183594 93.617188 12.921875 93.554688 12.660156 93.554688 C 12.417969 93.554688 12.203125 93.625 11.949219 93.78125 C 11.625 93.976562 11.226562 94.300781 11.027344 94.527344 C 10.667969 94.953125 10.316406 96.265625 10.316406 97.195312 C 10.316406 97.726562 10.425781 98 10.640625 98 C 10.839844 98 11.011719 97.925781 11.300781 97.726562 L 11.371094 97.675781 C 11.957031 97.257812 12.542969 96.609375 12.875 96.015625 L 12.191406 99.75 C 12.148438 99.964844 12.054688 100.144531 11.949219 100.261719 L 12.03125 100.390625 C 12.308594 100.316406 12.589844 100.261719 12.804688 100.234375 C 12.839844 99.75 12.894531 99.253906 12.976562 98.800781 L 13.75 94.691406 C 13.851562 94.140625 13.90625 93.90625 13.996094 93.625 L 13.867188 93.570312 Z M 13.074219 95.09375 C 12.976562 95.554688 12.777344 95.953125 12.445312 96.367188 C 11.976562 96.945312 11.425781 97.367188 11.164062 97.367188 C 11.039062 97.367188 10.964844 97.179688 10.964844 96.882812 C 10.964844 96.015625 11.351562 94.664062 11.734375 94.210938 C 11.839844 94.078125 12.101562 93.996094 12.390625 93.996094 C 12.640625 93.996094 12.832031 94.050781 13.265625 94.238281 L 13.074219 95.09375 "/>
<path style=" stroke:none;fill-rule:nonzero;fill:rgb(0%,0%,0%);fill-opacity:1;" d="M 14.414062 99.4375 L 14.414062 99.621094 C 15.726562 99.601562 15.726562 99.601562 15.980469 99.601562 C 16.234375 99.601562 16.234375 99.601562 17.589844 99.621094 C 17.578125 99.472656 17.578125 99.402344 17.578125 99.304688 C 17.578125 99.214844 17.578125 99.144531 17.589844 98.988281 C 16.78125 99.023438 16.457031 99.03125 15.15625 99.058594 L 16.4375 97.703125 C 17.117188 96.976562 17.328125 96.589844 17.328125 96.0625 C 17.328125 95.253906 16.78125 94.757812 15.890625 94.757812 C 15.382812 94.757812 15.039062 94.898438 14.695312 95.25 L 14.574219 96.203125 L 14.777344 96.203125 L 14.867188 95.882812 C 14.980469 95.472656 15.234375 95.296875 15.707031 95.296875 C 16.3125 95.296875 16.695312 95.675781 16.695312 96.273438 C 16.695312 96.800781 16.402344 97.320312 15.609375 98.164062 L 14.414062 99.4375 "/>
<path style=" stroke:none;fill-rule:nonzero;fill:rgb(0%,0%,0%);fill-opacity:1;" d="M 148.570312 130.671875 C 148.183594 130.515625 147.921875 130.453125 147.660156 130.453125 C 147.417969 130.453125 147.203125 130.527344 146.949219 130.679688 C 146.621094 130.878906 146.226562 131.203125 146.027344 131.429688 C 145.667969 131.851562 145.316406 133.167969 145.316406 134.097656 C 145.316406 134.628906 145.425781 134.898438 145.640625 134.898438 C 145.839844 134.898438 146.011719 134.828125 146.300781 134.628906 L 146.371094 134.574219 C 146.957031 134.160156 147.542969 133.511719 147.878906 132.914062 L 147.191406 136.648438 C 147.148438 136.863281 147.054688 137.046875 146.949219 137.164062 L 147.03125 137.289062 C 147.308594 137.21875 147.589844 137.164062 147.804688 137.136719 C 147.839844 136.648438 147.894531 136.152344 147.976562 135.703125 L 148.753906 131.589844 C 148.851562 131.039062 148.90625 130.804688 148.996094 130.527344 L 148.867188 130.472656 Z M 148.074219 131.996094 C 147.976562 132.457031 147.777344 132.851562 147.445312 133.265625 C 146.976562 133.84375 146.425781 134.269531 146.164062 134.269531 C 146.039062 134.269531 145.964844 134.078125 145.964844 133.78125 C 145.964844 132.914062 146.351562 131.5625 146.734375 131.113281 C 146.839844 130.976562 147.101562 130.894531 147.390625 130.894531 C 147.640625 130.894531 147.832031 130.949219 148.265625 131.140625 L 148.074219 131.996094 "/>
<path style=" stroke:none;fill-rule:nonzero;fill:rgb(0%,0%,0%);fill-opacity:1;" d="M 149.703125 133 L 149.921875 133 L 150.046875 132.605469 C 150.121094 132.367188 150.566406 132.125 150.933594 132.125 C 151.390625 132.125 151.761719 132.5 151.761719 132.941406 C 151.761719 133.46875 151.347656 133.914062 150.847656 133.914062 C 150.792969 133.914062 150.714844 133.90625 150.621094 133.898438 L 150.515625 133.890625 L 150.433594 134.265625 L 150.484375 134.304688 C 150.75 134.1875 150.882812 134.152344 151.074219 134.152344 C 151.65625 134.152344 151.992188 134.523438 151.992188 135.164062 C 151.992188 135.882812 151.566406 136.351562 150.910156 136.351562 C 150.589844 136.351562 150.300781 136.246094 150.089844 136.050781 C 149.921875 135.894531 149.828125 135.734375 149.695312 135.355469 L 149.503906 135.425781 C 149.652344 135.851562 149.710938 136.105469 149.753906 136.457031 C 150.121094 136.585938 150.433594 136.640625 150.695312 136.640625 C 151.257812 136.640625 151.902344 136.324219 152.289062 135.851562 C 152.527344 135.566406 152.648438 135.257812 152.648438 134.925781 C 152.648438 134.585938 152.507812 134.292969 152.253906 134.117188 C 152.078125 133.992188 151.917969 133.933594 151.566406 133.871094 C 152.128906 133.433594 152.339844 133.109375 152.339844 132.695312 C 152.339844 132.070312 151.820312 131.65625 151.039062 131.65625 C 150.558594 131.65625 150.242188 131.789062 149.90625 132.125 L 149.703125 133 "/>
<path style=" stroke:none;fill-rule:nonzero;fill:rgb(0%,0%,0%);fill-opacity:1;" d="M 128.773438 93.769531 C 128.382812 93.617188 128.121094 93.554688 127.859375 93.554688 C 127.617188 93.554688 127.402344 93.625 127.148438 93.78125 C 126.824219 93.976562 126.425781 94.300781 126.226562 94.527344 C 125.867188 94.953125 125.515625 96.265625 125.515625 97.195312 C 125.515625 97.726562 125.625 98 125.839844 98 C 126.039062 98 126.210938 97.925781 126.5 97.726562 L 126.570312 97.675781 C 127.15625 97.257812 127.742188 96.609375 128.078125 96.015625 L 127.390625 99.75 C 127.347656 99.964844 127.257812 100.144531 127.148438 100.261719 L 127.230469 100.390625 C 127.507812 100.316406 127.789062 100.261719 128.003906 100.234375 C 128.039062 99.75 128.09375 99.253906 128.175781 98.800781 L 128.953125 94.691406 C 129.050781 94.140625 129.105469 93.90625 129.195312 93.625 L 129.070312 93.570312 Z M 128.273438 95.09375 C 128.175781 95.554688 127.976562 95.953125 127.644531 96.367188 C 127.175781 96.945312 126.625 97.367188 126.363281 97.367188 C 126.238281 97.367188 126.164062 97.179688 126.164062 96.882812 C 126.164062 96.015625 126.554688 94.664062 126.933594 94.210938 C 127.039062 94.078125 127.300781 93.996094 127.589844 93.996094 C 127.84375 93.996094 128.03125 94.050781 128.464844 94.238281 L 128.273438 95.09375 "/>
<path style=" stroke:none;fill-rule:nonzero;fill:rgb(0%,0%,0%);fill-opacity:1;" d="M 131.46875 98.429688 L 131.46875 98.953125 C 131.46875 99.375 131.390625 99.476562 131.046875 99.488281 L 130.609375 99.511719 L 130.609375 99.71875 C 131.546875 99.699219 131.546875 99.699219 131.714844 99.699219 C 131.882812 99.699219 131.882812 99.699219 132.820312 99.71875 L 132.820312 99.511719 L 132.480469 99.488281 C 132.136719 99.46875 132.058594 99.375 132.058594 98.953125 L 132.058594 98.429688 C 132.472656 98.429688 132.621094 98.433594 132.820312 98.457031 L 132.820312 97.957031 C 132.488281 97.984375 132.355469 97.984375 132.246094 97.976562 L 132.058594 97.976562 L 132.058594 97 C 132.058594 95.75 132.074219 95.144531 132.109375 94.855469 L 132.023438 94.820312 L 131.503906 95.011719 L 129.515625 98.265625 L 129.589844 98.429688 Z M 131.46875 97.976562 L 129.957031 97.976562 L 131.46875 95.503906 Z M 131.46875 97.976562 "/>
<path style=" stroke:none;fill-rule:nonzero;fill:rgb(0%,0%,0%);fill-opacity:1;" d="M 99.472656 45.671875 C 99.085938 45.515625 98.820312 45.453125 98.5625 45.453125 C 98.316406 45.453125 98.101562 45.527344 97.847656 45.679688 C 97.523438 45.878906 97.125 46.203125 96.929688 46.429688 C 96.570312 46.851562 96.214844 48.167969 96.214844 49.097656 C 96.214844 49.628906 96.324219 49.898438 96.539062 49.898438 C 96.738281 49.898438 96.910156 49.828125 97.199219 49.628906 L 97.273438 49.574219 C 97.859375 49.160156 98.445312 48.511719 98.777344 47.914062 L 98.09375 51.648438 C 98.046875 51.863281 97.957031 52.046875 97.847656 52.164062 L 97.929688 52.289062 C 98.210938 52.21875 98.488281 52.164062 98.703125 52.136719 C 98.742188 51.648438 98.796875 51.152344 98.875 50.703125 L 99.652344 46.589844 C 99.75 46.039062 99.804688 45.804688 99.894531 45.527344 L 99.769531 45.472656 Z M 98.976562 46.996094 C 98.875 47.457031 98.679688 47.851562 98.34375 48.265625 C 97.875 48.84375 97.324219 49.269531 97.0625 49.269531 C 96.9375 49.269531 96.867188 49.078125 96.867188 48.78125 C 96.867188 47.914062 97.253906 46.5625 97.632812 46.113281 C 97.742188 45.976562 98 45.894531 98.289062 45.894531 C 98.542969 45.894531 98.734375 45.949219 99.164062 46.140625 L 98.976562 46.996094 "/>
<path style=" stroke:none;fill-rule:nonzero;fill:rgb(0%,0%,0%);fill-opacity:1;" d="M 101.191406 47.148438 C 102.101562 47.175781 102.492188 47.179688 103.339844 47.179688 L 103.371094 47.148438 C 103.359375 47.019531 103.359375 46.964844 103.359375 46.875 C 103.359375 46.773438 103.359375 46.71875 103.371094 46.59375 L 103.339844 46.554688 C 102.808594 46.585938 102.492188 46.59375 102.113281 46.59375 C 101.726562 46.59375 101.417969 46.585938 100.890625 46.554688 L 100.855469 46.59375 C 100.863281 47.019531 100.867188 47.328125 100.867188 47.554688 C 100.867188 48.152344 100.847656 48.828125 100.828125 49.136719 L 100.96875 49.179688 C 101.296875 48.847656 101.488281 48.75 101.832031 48.75 C 102.507812 48.75 102.929688 49.226562 102.929688 49.988281 C 102.929688 50.765625 102.480469 51.226562 101.714844 51.226562 C 101.332031 51.226562 100.980469 51.097656 100.882812 50.914062 L 100.558594 50.339844 L 100.390625 50.4375 C 100.554688 50.835938 100.636719 51.0625 100.734375 51.371094 C 100.933594 51.476562 101.214844 51.539062 101.515625 51.539062 C 101.988281 51.539062 102.484375 51.335938 102.871094 51 C 103.300781 50.621094 103.527344 50.140625 103.527344 49.621094 C 103.527344 48.828125 102.957031 48.265625 102.15625 48.265625 C 101.820312 48.265625 101.566406 48.355469 101.128906 48.617188 L 101.191406 47.148438 "/>
<path style=" stroke:none;fill-rule:nonzero;fill:rgb(0%,0%,0%);fill-opacity:1;" d="M 62.570312 8.769531 C 62.183594 8.617188 61.921875 8.554688 61.660156 8.554688 C 61.417969 8.554688 61.203125 8.628906 60.949219 8.78125 C 60.625 8.976562 60.226562 9.300781 60.027344 9.527344 C 59.667969 9.953125 59.316406 11.265625 59.316406 12.195312 C 59.316406 12.726562 59.425781 12.996094 59.640625 12.996094 C 59.839844 12.996094 60.011719 12.925781 60.300781 12.726562 L 60.371094 12.675781 C 60.957031 12.257812 61.542969 11.609375 61.875 11.015625 L 61.191406 14.746094 C 61.148438 14.964844 61.054688 15.144531 60.949219 15.261719 L 61.03125 15.390625 C 61.308594 15.316406 61.589844 15.261719 61.804688 15.234375 C 61.839844 14.746094 61.894531 14.253906 61.976562 13.800781 L 62.75 9.691406 C 62.851562 9.140625 62.90625 8.90625 62.996094 8.628906 L 62.867188 8.570312 Z M 62.074219 10.09375 C 61.976562 10.554688 61.777344 10.953125 61.445312 11.367188 C 60.976562 11.945312 60.425781 12.367188 60.164062 12.367188 C 60.039062 12.367188 59.964844 12.179688 59.964844 11.882812 C 59.964844 11.015625 60.351562 9.660156 60.734375 9.210938 C 60.839844 9.078125 61.101562 8.996094 61.390625 8.996094 C 61.640625 8.996094 61.832031 9.050781 62.265625 9.238281 L 62.074219 10.09375 "/>
<path style=" stroke:none;fill-rule:nonzero;fill:rgb(0%,0%,0%);fill-opacity:1;" d="M 66.324219 9.878906 L 66.0625 9.757812 C 65.390625 9.980469 65.101562 10.121094 64.742188 10.429688 C 64.019531 11.042969 63.625 11.898438 63.625 12.863281 C 63.625 14.023438 64.1875 14.742188 65.09375 14.742188 C 66.007812 14.742188 66.691406 14.015625 66.691406 13.0625 C 66.691406 12.253906 66.203125 11.726562 65.460938 11.726562 C 65.109375 11.726562 64.898438 11.816406 64.484375 12.148438 C 64.40625 12.210938 64.398438 12.21875 64.320312 12.273438 C 64.46875 11 65.058594 10.3125 66.324219 9.933594 Z M 65.191406 12.148438 C 65.726562 12.148438 66.085938 12.609375 66.085938 13.304688 C 66.085938 14.035156 65.726562 14.507812 65.1875 14.507812 C 64.585938 14.507812 64.265625 13.996094 64.265625 13.054688 C 64.265625 12.808594 64.292969 12.671875 64.371094 12.554688 C 64.523438 12.316406 64.855469 12.148438 65.191406 12.148438 "/>
</g>
</svg>
