<?xml version="1.0" encoding="utf-8" standalone="no"?>
<!DOCTYPE svg PUBLIC "-//W3C//DTD SVG 1.1//EN"
  "http://www.w3.org/Graphics/SVG/1.1/DTD/svg11.dtd">
<svg xmlns:xlink="http://www.w3.org/1999/xlink" width="288pt" height="288pt" viewBox="0 0 288 288" xmlns="http://www.w3.org/2000/svg" version="1.1">
 <metadata>
  <rdf:RDF xmlns:dc="http://purl.org/dc/elements/1.1/" xmlns:cc="http://creativecommons.org/ns#" xmlns:rdf="http://www.w3.org/1999/02/22-rdf-syntax-ns#">
   <cc:Work>
    <dc:type rdf:resource="http://purl.org/dc/dcmitype/StillImage"/>
    <dc:date>2023-12-22T12:44:43.449147</dc:date>
    <dc:format>image/svg+xml</dc:format>
    <dc:creator>
     <cc:Agent>
      <dc:title>Matplotlib v3.7.1, https://matplotlib.org/</dc:title>
     </cc:Agent>
    </dc:creator>
   </cc:Work>
  </rdf:RDF>
 </metadata>
 <defs>
  <style type="text/css">*{stroke-linejoin: round; stroke-linecap: butt}</style>
 </defs>
 <g id="figure_1">
  <g id="patch_1">
   <path d="M 0 288 
L 288 288 
L 288 0 
L 0 0 
z
" style="fill: #ffffff"/>
  </g>
  <g id="axes_1">
   <g id="patch_2">
    <path d="M 28.8 259.2 
L 259.2 259.2 
L 259.2 28.8 
L 28.8 28.8 
L 28.8 259.2 
z
" clip-path="url(#p61d2b095ca)" style="fill: none; stroke: #000000; stroke-linejoin: miter"/>
   </g>
   <g id="patch_3">
    <path d="M 57.6 201.6 
L 28.8 201.6 
L 28.8 259.2 
L 57.6 259.2 
z
" clip-path="url(#p61d2b095ca)" style="fill: #6effc2; stroke: #000000; stroke-width: 2; stroke-linejoin: miter"/>
   </g>
   <g id="patch_4">
    <path d="M 172.8 201.6 
L 144 201.6 
L 144 259.2 
L 172.8 259.2 
z
" clip-path="url(#p61d2b095ca)" style="fill: #6effc2; stroke: #000000; stroke-width: 2; stroke-linejoin: miter"/>
   </g>
   <g id="patch_5">
    <path d="M 57.6 144 
L 28.8 144 
L 28.8 201.6 
L 57.6 201.6 
z
" clip-path="url(#p61d2b095ca)" style="fill: #6effc2; stroke: #000000; stroke-width: 2; stroke-linejoin: miter"/>
   </g>
   <g id="patch_6">
    <path d="M 86.4 115.2 
L 57.6 115.2 
L 57.6 172.8 
L 86.4 172.8 
z
" clip-path="url(#p61d2b095ca)" style="fill: #6effc2; stroke: #000000; stroke-width: 2; stroke-linejoin: miter"/>
   </g>
   <g id="patch_7">
    <path d="M 172.8 144 
L 144 144 
L 144 201.6 
L 172.8 201.6 
z
" clip-path="url(#p61d2b095ca)" style="fill: #6effc2; stroke: #000000; stroke-width: 2; stroke-linejoin: miter"/>
   </g>
   <g id="patch_8">
    <path d="M 57.6 86.4 
L 28.8 86.4 
L 28.8 144 
L 57.6 144 
z
" clip-path="url(#p61d2b095ca)" style="fill: #6effc2; stroke: #000000; stroke-width: 2; stroke-linejoin: miter"/>
   </g>
   <g id="patch_9">
    <path d="M 172.8 28.8 
L 144 28.8 
L 144 86.4 
L 172.8 86.4 
z
" clip-path="url(#p61d2b095ca)" style="fill: #6effc2; stroke: #000000; stroke-width: 2; stroke-linejoin: miter"/>
   </g>
   <g id="patch_10">
    <path d="M 259.2 57.6 
L 230.4 57.6 
L 230.4 115.2 
L 259.2 115.2 
z
" clip-path="url(#p61d2b095ca)" style="fill: #6effc2; stroke: #000000; stroke-width: 2; stroke-linejoin: miter"/>
   </g>
   <g id="patch_11">
    <path d="M 144 259.2 
L 115.2 259.2 
L 115.2 201.6 
L 144 201.6 
z
" clip-path="url(#p61d2b095ca)" style="fill: #edcce8; stroke: #000000; stroke-width: 2; stroke-linejoin: miter"/>
   </g>
   <g id="patch_12">
    <path d="M 201.6 259.2 
L 172.8 259.2 
L 172.8 201.6 
L 201.6 201.6 
z
" clip-path="url(#p61d2b095ca)" style="fill: #edcce8; stroke: #000000; stroke-width: 2; stroke-linejoin: miter"/>
   </g>
   <g id="patch_13">
    <path d="M 115.2 172.8 
L 86.4 172.8 
L 86.4 115.2 
L 115.2 115.2 
z
" clip-path="url(#p61d2b095ca)" style="fill: #edcce8; stroke: #000000; stroke-width: 2; stroke-linejoin: miter"/>
   </g>
   <g id="patch_14">
    <path d="M 144 201.6 
L 115.2 201.6 
L 115.2 144 
L 144 144 
z
" clip-path="url(#p61d2b095ca)" style="fill: #edcce8; stroke: #000000; stroke-width: 2; stroke-linejoin: miter"/>
   </g>
   <g id="patch_15">
    <path d="M 259.2 201.6 
L 230.4 201.6 
L 230.4 144 
L 259.2 144 
z
" clip-path="url(#p61d2b095ca)" style="fill: #edcce8; stroke: #000000; stroke-width: 2; stroke-linejoin: miter"/>
   </g>
   <g id="patch_16">
    <path d="M 144 144 
L 115.2 144 
L 115.2 86.4 
L 144 86.4 
z
" clip-path="url(#p61d2b095ca)" style="fill: #edcce8; stroke: #000000; stroke-width: 2; stroke-linejoin: miter"/>
   </g>
   <g id="patch_17">
    <path d="M 201.6 86.4 
L 172.8 86.4 
L 172.8 28.8 
L 201.6 28.8 
z
" clip-path="url(#p61d2b095ca)" style="fill: #edcce8; stroke: #000000; stroke-width: 2; stroke-linejoin: miter"/>
   </g>
   <g id="patch_18">
    <path d="M 230.4 115.2 
L 201.6 115.2 
L 201.6 57.6 
L 230.4 57.6 
z
" clip-path="url(#p61d2b095ca)" style="fill: #edcce8; stroke: #000000; stroke-width: 2; stroke-linejoin: miter"/>
   </g>
   <g id="patch_19">
    <path d="M 57.6 201.6 
L 57.6 230.4 
L 115.2 230.4 
L 115.2 201.6 
z
" clip-path="url(#p61d2b095ca)" style="fill: #ff798f; stroke: #000000; stroke-width: 2; stroke-linejoin: miter"/>
   </g>
   <g id="patch_20">
    <path d="M 201.6 230.4 
L 201.6 259.2 
L 259.2 259.2 
L 259.2 230.4 
z
" clip-path="url(#p61d2b095ca)" style="fill: #ff798f; stroke: #000000; stroke-width: 2; stroke-linejoin: miter"/>
   </g>
   <g id="patch_21">
    <path d="M 172.8 144 
L 172.8 172.8 
L 230.4 172.8 
L 230.4 144 
z
" clip-path="url(#p61d2b095ca)" style="fill: #ff798f; stroke: #000000; stroke-width: 2; stroke-linejoin: miter"/>
   </g>
   <g id="patch_22">
    <path d="M 57.6 86.4 
L 57.6 115.2 
L 115.2 115.2 
L 115.2 86.4 
z
" clip-path="url(#p61d2b095ca)" style="fill: #ff798f; stroke: #000000; stroke-width: 2; stroke-linejoin: miter"/>
   </g>
   <g id="patch_23">
    <path d="M 144 115.2 
L 144 144 
L 201.6 144 
L 201.6 115.2 
z
" clip-path="url(#p61d2b095ca)" style="fill: #ff798f; stroke: #000000; stroke-width: 2; stroke-linejoin: miter"/>
   </g>
   <g id="patch_24">
    <path d="M 201.6 115.2 
L 201.6 144 
L 259.2 144 
L 259.2 115.2 
z
" clip-path="url(#p61d2b095ca)" style="fill: #ff798f; stroke: #000000; stroke-width: 2; stroke-linejoin: miter"/>
   </g>
   <g id="patch_25">
    <path d="M 28.8 57.6 
L 28.8 86.4 
L 86.4 86.4 
L 86.4 57.6 
z
" clip-path="url(#p61d2b095ca)" style="fill: #ff798f; stroke: #000000; stroke-width: 2; stroke-linejoin: miter"/>
   </g>
   <g id="patch_26">
    <path d="M 86.4 57.6 
L 86.4 86.4 
L 144 86.4 
L 144 57.6 
z
" clip-path="url(#p61d2b095ca)" style="fill: #ff798f; stroke: #000000; stroke-width: 2; stroke-linejoin: miter"/>
   </g>
   <g id="patch_27">
    <path d="M 57.6 230.4 
L 57.6 259.2 
L 115.2 259.2 
L 115.2 230.4 
z
" clip-path="url(#p61d2b095ca)" style="fill: #74a3f9; stroke: #000000; stroke-width: 2; stroke-linejoin: miter"/>
   </g>
   <g id="patch_28">
    <path d="M 57.6 172.8 
L 57.6 201.6 
L 115.2 201.6 
L 115.2 172.8 
z
" clip-path="url(#p61d2b095ca)" style="fill: #74a3f9; stroke: #000000; stroke-width: 2; stroke-linejoin: miter"/>
   </g>
   <g id="patch_29">
    <path d="M 172.8 172.8 
L 172.8 201.6 
L 230.4 201.6 
L 230.4 172.8 
z
" clip-path="url(#p61d2b095ca)" style="fill: #74a3f9; stroke: #000000; stroke-width: 2; stroke-linejoin: miter"/>
   </g>
   <g id="patch_30">
    <path d="M 201.6 201.6 
L 201.6 230.4 
L 259.2 230.4 
L 259.2 201.6 
z
" clip-path="url(#p61d2b095ca)" style="fill: #74a3f9; stroke: #000000; stroke-width: 2; stroke-linejoin: miter"/>
   </g>
   <g id="patch_31">
    <path d="M 144 86.4 
L 144 115.2 
L 201.6 115.2 
L 201.6 86.4 
z
" clip-path="url(#p61d2b095ca)" style="fill: #74a3f9; stroke: #000000; stroke-width: 2; stroke-linejoin: miter"/>
   </g>
   <g id="patch_32">
    <path d="M 28.8 28.8 
L 28.8 57.6 
L 86.4 57.6 
L 86.4 28.8 
z
" clip-path="url(#p61d2b095ca)" style="fill: #74a3f9; stroke: #000000; stroke-width: 2; stroke-linejoin: miter"/>
   </g>
   <g id="patch_33">
    <path d="M 86.4 28.8 
L 86.4 57.6 
L 144 57.6 
L 144 28.8 
z
" clip-path="url(#p61d2b095ca)" style="fill: #74a3f9; stroke: #000000; stroke-width: 2; stroke-linejoin: miter"/>
   </g>
   <g id="patch_34">
    <path d="M 201.6 28.8 
L 201.6 57.6 
L 259.2 57.6 
L 259.2 28.8 
z
" clip-path="url(#p61d2b095ca)" style="fill: #74a3f9; stroke: #000000; stroke-width: 2; stroke-linejoin: miter"/>
   </g>
   <g id="line2d_1">
    <path d="M 28.8 259.2 
L 259.2 259.2 
L 259.2 28.8 
L 28.8 28.8 
L 28.8 259.2 
" clip-path="url(#p61d2b095ca)" style="fill: none; stroke: #000000; stroke-linecap: square"/>
   </g>
  </g>
 </g>
 <defs>
  <clipPath id="p61d2b095ca">
   <rect x="0" y="0" width="288" height="288"/>
  </clipPath>
 </defs>
</svg>
