<?xml version="1.0" encoding="utf-8" standalone="no"?>
<!DOCTYPE svg PUBLIC "-//W3C//DTD SVG 1.1//EN"
  "http://www.w3.org/Graphics/SVG/1.1/DTD/svg11.dtd">
<svg xmlns:xlink="http://www.w3.org/1999/xlink" width="208.8pt" height="186.954889pt" viewBox="0 0 208.8 186.954889" xmlns="http://www.w3.org/2000/svg" version="1.1">
 <metadata>
  <rdf:RDF xmlns:dc="http://purl.org/dc/elements/1.1/" xmlns:cc="http://creativecommons.org/ns#" xmlns:rdf="http://www.w3.org/1999/02/22-rdf-syntax-ns#">
   <cc:Work>
    <dc:type rdf:resource="http://purl.org/dc/dcmitype/StillImage"/>
    <dc:date>2024-10-19T00:54:34.536486</dc:date>
    <dc:format>image/svg+xml</dc:format>
    <dc:creator>
     <cc:Agent>
      <dc:title>Matplotlib v3.7.1, https://matplotlib.org/</dc:title>
     </cc:Agent>
    </dc:creator>
   </cc:Work>
  </rdf:RDF>
 </metadata>
 <defs>
  <style type="text/css">*{stroke-linejoin: round; stroke-linecap: butt}</style>
 </defs>
 <g id="figure_1">
  <g id="patch_1">
   <path d="M 0 186.954889 
L 208.8 186.954889 
L 208.8 0 
L 0 0 
L 0 186.954889 
z
" style="fill: none"/>
  </g>
  <g id="axes_1">
   <g id="patch_2">
    <path d="M 120.227116 91.713358 
C 128.061893 91.713358 135.576832 88.600568 141.116856 83.060544 
C 146.656879 77.52052 149.769669 70.005581 149.769669 62.170805 
C 149.769669 54.336028 146.656879 46.821089 141.116856 41.281065 
C 135.576832 35.741041 128.061893 32.628252 120.227116 32.628252 
C 112.39234 32.628252 104.8774 35.741041 99.337377 41.281065 
C 93.797353 46.821089 90.684563 54.336028 90.684563 62.170805 
C 90.684563 70.005581 93.797353 77.52052 99.337377 83.060544 
C 104.8774 88.600568 112.39234 91.713358 120.227116 91.713358 
L 120.227116 91.713358 
z
" clip-path="url(#p408245d3d7)" style="fill: none; stroke-dasharray: 3.2,3.2; stroke-dashoffset: 0; stroke: #000000; stroke-width: 0.8; stroke-linejoin: miter"/>
   </g>
   <g id="line2d_1">
    <path d="M 90.684563 138.13737 
L 92.61388 136.265875 
L 94.3599 134.270756 
L 95.912268 132.16682 
L 97.261381 129.969823 
L 98.398428 127.696481 
L 99.315437 125.364487 
L 100.005311 122.992543 
L 100.461885 120.600404 
L 100.679971 118.208932 
L 100.655426 115.840184 
L 100.423355 113.747016 
L 99.990902 111.709175 
L 99.357549 109.745731 
L 98.523717 107.876942 
L 97.49089 106.124415 
L 96.261753 104.511314 
L 95.007651 103.21464 
L 93.60561 102.066768 
L 92.060824 101.088169 
L 90.379974 100.301095 
L 88.804247 99.788585 
L 87.137926 99.459112 
L 85.389742 99.332112 
L 83.57044 99.428878 
L 81.69329 99.772817 
L 80.050622 100.283833 
L 78.390139 101.013146 
L 76.727187 101.980111 
L 75.08043 103.20575 
L 73.472655 104.712809 
L 72.182585 106.201256 
L 70.958367 107.917065 
L 69.823216 109.875834 
L 68.804824 112.093522 
L 67.936253 114.586057 
L 67.375562 116.788281 
L 66.959573 119.183353 
L 66.715551 121.777348 
L 66.674816 124.574697 
L 66.873244 127.577426 
L 67.351744 130.784161 
L 67.922091 133.319669 
L 68.697612 135.961853 
L 69.701817 138.703454 
L 70.960016 141.534204 
L 72.499184 144.440193 
L 74.347701 147.403152 
L 76.534943 150.399668 
L 79.09065 153.400342 
L 82.044048 156.368922 
L 84.247621 158.308791 
L 86.647663 160.199983 
L 89.250711 162.025706 
L 92.062136 163.767391 
L 95.085821 165.404692 
L 98.323813 166.915524 
L 101.775946 168.276172 
L 105.439443 169.46146 
L 109.308512 170.445011 
L 113.373958 171.199595 
L 117.622814 171.697581 
L 122.038033 171.911485 
L 126.598264 171.814625 
L 131.277728 171.381857 
L 136.046242 170.590386 
L 140.869406 169.420619 
L 145.708966 167.85702 
L 150.523383 165.888928 
L 155.268592 163.511289 
L 159.898932 160.72524 
L 164.368236 157.53851 
L 168.63101 153.965593 
L 172.643669 150.027658 
L 174.543405 147.930167 
L 176.365743 145.752196 
L 178.106294 143.498066 
L 179.760999 141.172407 
L 181.326148 138.780122 
L 184.174844 133.816452 
L 186.630518 128.650433 
L 188.677957 123.327499 
L 190.308715 117.893915 
L 191.520974 112.395575 
L 192.319172 106.876909 
L 192.713435 101.379924 
L 192.718862 95.943425 
L 192.354719 90.602424 
L 191.64358 85.387746 
L 190.610475 80.325825 
L 189.282072 75.438663 
L 187.685929 70.743931 
L 185.849829 66.255185 
L 183.801216 61.982169 
L 181.566738 57.93117 
L 179.171876 54.10541 
L 176.640683 50.50545 
L 173.995599 47.129585 
L 171.257334 43.974225 
L 168.444826 41.034252 
L 165.575234 38.303339 
L 162.663983 35.774241 
L 159.724827 33.439041 
L 156.769937 31.289376 
L 152.331126 28.393829 
L 147.911112 25.866786 
L 143.534295 23.679045 
L 139.219859 21.802346 
L 134.982577 20.209798 
L 130.833525 18.876148 
L 126.780724 17.777925 
L 122.829696 16.893485 
L 117.725779 16.012768 
L 112.812798 15.434867 
L 108.090969 15.122734 
L 103.557827 15.043989 
L 99.209055 15.170436 
L 95.039114 15.477567 
L 90.068534 16.083434 
L 85.354386 16.903115 
L 80.883275 17.906887 
L 76.642022 19.069803 
L 72.617968 20.370874 
L 68.059026 22.08978 
L 63.776531 23.956706 
L 59.753056 25.950569 
L 55.972864 28.053845 
L 51.851349 30.626485 
L 48.021874 33.308645 
L 44.466975 36.084059 
L 41.171352 38.938956 
L 38.121584 41.861496 
L 35.305878 44.841336 
L 32.361252 48.305301 
L 29.695162 51.819875 
L 27.295658 55.373956 
L 25.15218 58.957334 
L 23.255304 62.560479 
L 21.596529 66.174385 
L 20.168089 69.790456 
L 18.962806 73.400425 
L 17.973955 76.99629 
L 17.112267 81.015104 
L 16.507716 84.995453 
L 16.15185 88.926845 
L 16.036364 92.799053 
L 16.153004 96.602116 
L 16.493494 100.326343 
L 17.04947 103.962323 
L 17.812434 107.50094 
L 18.773715 110.933396 
L 19.92444 114.251228 
L 21.255513 117.446333 
L 22.757601 120.510994 
L 24.421128 123.437898 
L 26.236272 126.220165 
L 28.192967 128.851369 
L 30.520549 131.59054 
L 32.9957 134.128445 
L 35.603638 136.458446 
L 38.329286 138.574727 
L 41.157308 140.472335 
L 44.072143 142.147198 
L 47.058048 143.596155 
L 50.099138 144.816973 
L 53.179434 145.808371 
L 56.282909 146.57003 
L 59.393539 147.102608 
L 62.49535 147.407749 
L 65.572474 147.48809 
L 68.609196 147.347263 
L 71.590007 146.989899 
L 74.499659 146.421625 
L 77.32321 145.64906 
L 80.046083 144.679814 
L 82.654108 143.522476 
L 85.133578 142.186612 
L 87.47129 140.682753 
L 89.654599 139.022389 
L 90.684563 138.13737 
L 90.684563 138.13737 
" clip-path="url(#p408245d3d7)" style="fill: none; stroke: #000000; stroke-width: 0.8; stroke-linecap: square"/>
   </g>
   <g id="line2d_2">
    <defs>
     <path id="mc1b5ab8aef" d="M 0 1.5 
C 0.397805 1.5 0.77937 1.341951 1.06066 1.06066 
C 1.341951 0.77937 1.5 0.397805 1.5 0 
C 1.5 -0.397805 1.341951 -0.77937 1.06066 -1.06066 
C 0.77937 -1.341951 0.397805 -1.5 0 -1.5 
C -0.397805 -1.5 -0.77937 -1.341951 -1.06066 -1.06066 
C -1.341951 -0.77937 -1.5 -0.397805 -1.5 0 
C -1.5 0.397805 -1.341951 0.77937 -1.06066 1.06066 
C -0.77937 1.341951 -0.397805 1.5 0 1.5 
z
" style="stroke: #000000"/>
    </defs>
    <g clip-path="url(#p408245d3d7)">
     <use xlink:href="#mc1b5ab8aef" x="120.227116" y="62.170805" style="stroke: #000000"/>
    </g>
   </g>
   <g id="line2d_3">
    <g clip-path="url(#p408245d3d7)">
     <use xlink:href="#mc1b5ab8aef" x="149.769669" y="62.170805" style="stroke: #000000"/>
    </g>
   </g>
   <g id="text_1">
    <!-- $w_0$ -->
    <g transform="translate(107.566022 74.831899) scale(0.16 -0.16)">
     <defs>
      <path id="CMMI12-77" d="M 2202 390 
C 2342 6 2739 -64 2982 -64 
C 3469 -64 3757 358 3936 798 
C 4083 1169 4320 2012 4320 2389 
C 4320 2778 4122 2816 4064 2816 
C 3910 2816 3770 2663 3770 2535 
C 3770 2459 3814 2414 3846 2389 
C 3904 2331 4070 2159 4070 1827 
C 4070 1609 3891 1009 3757 709 
C 3578 319 3341 64 3008 64 
C 2650 64 2534 332 2534 626 
C 2534 811 2592 1035 2618 1143 
L 2886 2216 
C 2918 2344 2976 2567 2976 2593 
C 2976 2689 2899 2753 2803 2753 
C 2618 2753 2573 2593 2534 2440 
C 2470 2191 2202 1111 2176 971 
C 2150 862 2150 792 2150 651 
C 2150 498 1946 255 1939 243 
C 1869 172 1766 64 1568 64 
C 1062 64 1062 543 1062 651 
C 1062 856 1107 1137 1395 1897 
C 1472 2095 1504 2178 1504 2305 
C 1504 2574 1312 2816 998 2816 
C 410 2816 173 1890 173 1839 
C 173 1814 198 1782 243 1782 
C 301 1782 307 1807 333 1896 
C 493 2454 742 2682 979 2682 
C 1043 2682 1146 2682 1146 2478 
C 1146 2446 1146 2312 1037 2031 
C 736 1233 672 971 672 728 
C 672 57 1222 -64 1549 -64 
C 1658 -64 1946 -64 2202 390 
z
" transform="scale(0.015625)"/>
      <path id="CMR17-30" d="M 2688 2025 
C 2688 2416 2682 3080 2413 3591 
C 2176 4039 1798 4198 1466 4198 
C 1158 4198 768 4058 525 3597 
C 269 3118 243 2524 243 2025 
C 243 1661 250 1106 448 619 
C 723 -39 1216 -128 1466 -128 
C 1760 -128 2208 -7 2470 600 
C 2662 1042 2688 1559 2688 2025 
z
M 1466 -26 
C 1056 -26 813 325 723 812 
C 653 1188 653 1738 653 2096 
C 653 2588 653 2997 736 3387 
C 858 3929 1216 4096 1466 4096 
C 1728 4096 2067 3923 2189 3400 
C 2272 3036 2278 2607 2278 2096 
C 2278 1680 2278 1169 2202 792 
C 2067 95 1690 -26 1466 -26 
z
" transform="scale(0.015625)"/>
     </defs>
     <use xlink:href="#CMMI12-77" transform="scale(0.996264)"/>
     <use xlink:href="#CMR17-30" transform="translate(69.73199 -14.943915) scale(0.697382)"/>
    </g>
   </g>
   <g id="text_2">
    <!-- $w_1$ -->
    <g transform="translate(151.879852 74.831899) scale(0.16 -0.16)">
     <defs>
      <path id="CMR17-31" d="M 1702 4058 
C 1702 4192 1696 4192 1606 4192 
C 1357 3916 979 3827 621 3827 
C 602 3827 570 3827 563 3808 
C 557 3795 557 3782 557 3648 
C 755 3648 1088 3686 1344 3839 
L 1344 461 
C 1344 236 1331 160 781 160 
L 589 160 
L 589 0 
C 896 0 1216 0 1523 0 
C 1830 0 2150 0 2458 0 
L 2458 160 
L 2266 160 
C 1715 160 1702 230 1702 458 
L 1702 4058 
z
" transform="scale(0.015625)"/>
     </defs>
     <use xlink:href="#CMMI12-77" transform="scale(0.996264)"/>
     <use xlink:href="#CMR17-31" transform="translate(69.73199 -14.943915) scale(0.697382)"/>
    </g>
   </g>
   <g id="text_3">
    <!-- $f(\gamma)$ -->
    <g transform="translate(31.599457 62.170805) scale(0.16 -0.16)">
     <defs>
      <path id="CMMI12-66" d="M 2854 2566 
C 2982 2566 3034 2566 3034 2688 
C 3034 2752 2982 2752 2867 2752 
L 2349 2752 
C 2470 3429 2560 3897 2611 4107 
C 2650 4265 2784 4416 2950 4416 
C 3085 4416 3219 4358 3283 4298 
C 3034 4272 2957 4082 2957 3969 
C 2957 3837 3053 3759 3174 3759 
C 3302 3759 3494 3870 3494 4119 
C 3494 4393 3226 4544 2944 4544 
C 2669 4544 2400 4334 2272 4078 
C 2157 3848 2093 3611 1946 2752 
L 1517 2752 
C 1395 2752 1331 2752 1331 2637 
C 1331 2566 1370 2566 1498 2566 
L 1907 2566 
C 1792 1976 1530 542 1382 -137 
C 1274 -689 1178 -1152 858 -1152 
C 838 -1152 653 -1152 538 -1031 
C 864 -1005 864 -726 864 -720 
C 864 -593 768 -517 646 -517 
C 518 -517 326 -625 326 -867 
C 326 -1140 608 -1280 858 -1280 
C 1510 -1280 1779 -118 1850 199 
C 1965 688 2278 2376 2310 2566 
L 2854 2566 
z
" transform="scale(0.015625)"/>
      <path id="CMR17-28" d="M 1958 -1561 
C 1958 -1555 1958 -1542 1939 -1523 
C 1645 -1224 858 -407 858 1581 
C 858 3569 1632 4379 1946 4697 
C 1946 4704 1958 4717 1958 4736 
C 1958 4755 1939 4768 1914 4768 
C 1843 4768 1299 4296 986 3594 
C 666 2887 576 2199 576 1588 
C 576 1128 621 351 1005 -471 
C 1312 -1135 1837 -1600 1914 -1600 
C 1946 -1600 1958 -1587 1958 -1561 
z
" transform="scale(0.015625)"/>
      <path id="CMMI12-d" d="M 2419 760 
C 2406 1071 2394 1561 2150 2133 
C 2022 2452 1805 2788 1338 2788 
C 550 2788 122 1790 122 1625 
C 122 1567 166 1567 186 1567 
C 243 1567 243 1580 275 1663 
C 410 2057 819 2368 1261 2368 
C 2150 2368 2278 1383 2278 754 
C 2278 352 2234 220 2195 92 
C 2074 -302 1862 -1090 1862 -1268 
C 1862 -1319 1882 -1376 1933 -1376 
C 2029 -1376 2086 -1166 2157 -912 
C 2310 -353 2349 -73 2381 181 
C 2400 334 2765 1384 3270 2382 
C 3315 2483 3405 2655 3405 2674 
C 3405 2680 3398 2725 3341 2725 
C 3328 2725 3296 2725 3283 2699 
C 3270 2687 3046 2254 2854 1822 
C 2758 1606 2630 1320 2419 760 
z
" transform="scale(0.015625)"/>
      <path id="CMR17-29" d="M 1683 1581 
C 1683 2040 1638 2817 1254 3639 
C 947 4303 422 4768 346 4768 
C 326 4768 301 4761 301 4729 
C 301 4717 307 4710 314 4697 
C 621 4378 1402 3568 1402 1584 
C 1402 -407 627 -1217 314 -1537 
C 307 -1549 301 -1556 301 -1568 
C 301 -1600 326 -1600 346 -1600 
C 416 -1600 960 -1128 1274 -426 
C 1594 281 1683 969 1683 1581 
z
" transform="scale(0.015625)"/>
     </defs>
     <use xlink:href="#CMMI12-66" transform="scale(0.996264)"/>
     <use xlink:href="#CMR17-28" transform="translate(58.720305 0) scale(0.996264)"/>
     <use xlink:href="#CMMI12-d" transform="translate(94.001073 0) scale(0.996264)"/>
     <use xlink:href="#CMR17-29" transform="translate(150.019641 0) scale(0.996264)"/>
    </g>
   </g>
  </g>
 </g>
 <defs>
  <clipPath id="p408245d3d7">
   <rect x="7.2" y="7.2" width="194.4" height="172.554889"/>
  </clipPath>
 </defs>
</svg>
