<?xml version="1.0" encoding="UTF-8"?>
<svg xmlns="http://www.w3.org/2000/svg" xmlns:xlink="http://www.w3.org/1999/xlink" width="223pt" height="73pt" viewBox="0 0 223 73" version="1.1">
<defs>
<clipPath id="clip1">
  <path d="M 0.300781 1 L 222.699219 1 L 222.699219 73 L 0.300781 73 Z M 0.300781 1 "/>
</clipPath>
<clipPath id="clip2">
  <path d="M 0.300781 0.898438 L 222.699219 0.898438 L 222.699219 73 L 0.300781 73 Z M 0.300781 0.898438 "/>
</clipPath>
</defs>
<g id="surface1">
<g clip-path="url(#clip1)" clip-rule="nonzero">
<path style=" stroke:none;fill-rule:nonzero;fill:rgb(100%,100%,100%);fill-opacity:1;" d="M 0.640625 72.738281 L 222.875 72.738281 L 222.875 1.132812 L 0.640625 1.132812 Z M 0.640625 72.738281 "/>
</g>
<g clip-path="url(#clip2)" clip-rule="nonzero">
<path style="fill:none;stroke-width:5;stroke-linecap:round;stroke-linejoin:round;stroke:rgb(100%,100%,100%);stroke-opacity:1;stroke-miterlimit:10;" d="M 6.40625 2.617188 L 2228.75 2.617188 L 2228.75 718.671875 L 6.40625 718.671875 Z M 6.40625 2.617188 " transform="matrix(0.1,0,0,-0.1,0,73)"/>
</g>
<path style="fill:none;stroke-width:5;stroke-linecap:round;stroke-linejoin:round;stroke:rgb(0%,0%,0%);stroke-opacity:1;stroke-miterlimit:10;" d="M 97.109375 190.78125 L 2138.046875 190.78125 " transform="matrix(0.1,0,0,-0.1,0,73)"/>
<path style="fill:none;stroke-width:5;stroke-linecap:round;stroke-linejoin:round;stroke:rgb(0%,0%,0%);stroke-opacity:1;stroke-miterlimit:10;" d="M 1457.734375 190.78125 L 1457.734375 530.9375 " transform="matrix(0.1,0,0,-0.1,0,73)"/>
<path style=" stroke:none;fill-rule:nonzero;fill:rgb(100%,100%,0%);fill-opacity:1;" d="M 13.109375 53.921875 C 13.109375 52.042969 11.589844 50.519531 9.710938 50.519531 C 7.832031 50.519531 6.308594 52.042969 6.308594 53.921875 C 6.308594 55.800781 7.832031 57.324219 9.710938 57.324219 C 11.589844 57.324219 13.109375 55.800781 13.109375 53.921875 "/>
<path style="fill:none;stroke-width:5;stroke-linecap:round;stroke-linejoin:round;stroke:rgb(0%,0%,0%);stroke-opacity:1;stroke-miterlimit:10;" d="M 131.09375 190.78125 C 131.09375 209.570312 115.898438 224.804688 97.109375 224.804688 C 78.320312 224.804688 63.085938 209.570312 63.085938 190.78125 C 63.085938 171.992188 78.320312 156.757812 97.109375 156.757812 C 115.898438 156.757812 131.09375 171.992188 131.09375 190.78125 Z M 131.09375 190.78125 " transform="matrix(0.1,0,0,-0.1,0,73)"/>
<path style=" stroke:none;fill-rule:nonzero;fill:rgb(100%,100%,0%);fill-opacity:1;" d="M 47.128906 53.921875 C 47.128906 52.042969 45.605469 50.519531 43.726562 50.519531 C 41.847656 50.519531 40.324219 52.042969 40.324219 53.921875 C 40.324219 55.800781 41.847656 57.324219 43.726562 57.324219 C 45.605469 57.324219 47.128906 55.800781 47.128906 53.921875 "/>
<path style="fill:none;stroke-width:5;stroke-linecap:round;stroke-linejoin:round;stroke:rgb(0%,0%,0%);stroke-opacity:1;stroke-miterlimit:10;" d="M 471.289062 190.78125 C 471.289062 209.570312 456.054688 224.804688 437.265625 224.804688 C 418.476562 224.804688 403.242188 209.570312 403.242188 190.78125 C 403.242188 171.992188 418.476562 156.757812 437.265625 156.757812 C 456.054688 156.757812 471.289062 171.992188 471.289062 190.78125 Z M 471.289062 190.78125 " transform="matrix(0.1,0,0,-0.1,0,73)"/>
<path style=" stroke:none;fill-rule:nonzero;fill:rgb(100%,100%,0%);fill-opacity:1;" d="M 81.144531 53.921875 C 81.144531 52.042969 79.621094 50.519531 77.742188 50.519531 C 75.863281 50.519531 74.339844 52.042969 74.339844 53.921875 C 74.339844 55.800781 75.863281 57.324219 77.742188 57.324219 C 79.621094 57.324219 81.144531 55.800781 81.144531 53.921875 "/>
<path style="fill:none;stroke-width:5;stroke-linecap:round;stroke-linejoin:round;stroke:rgb(0%,0%,0%);stroke-opacity:1;stroke-miterlimit:10;" d="M 811.445312 190.78125 C 811.445312 209.570312 796.210938 224.804688 777.421875 224.804688 C 758.632812 224.804688 743.398438 209.570312 743.398438 190.78125 C 743.398438 171.992188 758.632812 156.757812 777.421875 156.757812 C 796.210938 156.757812 811.445312 171.992188 811.445312 190.78125 Z M 811.445312 190.78125 " transform="matrix(0.1,0,0,-0.1,0,73)"/>
<path style=" stroke:none;fill-rule:nonzero;fill:rgb(100%,100%,0%);fill-opacity:1;" d="M 115.160156 53.921875 C 115.160156 52.042969 113.636719 50.519531 111.757812 50.519531 C 109.878906 50.519531 108.355469 52.042969 108.355469 53.921875 C 108.355469 55.800781 109.878906 57.324219 111.757812 57.324219 C 113.636719 57.324219 115.160156 55.800781 115.160156 53.921875 "/>
<path style="fill:none;stroke-width:5;stroke-linecap:round;stroke-linejoin:round;stroke:rgb(0%,0%,0%);stroke-opacity:1;stroke-miterlimit:10;" d="M 1151.601562 190.78125 C 1151.601562 209.570312 1136.367188 224.804688 1117.578125 224.804688 C 1098.789062 224.804688 1083.554688 209.570312 1083.554688 190.78125 C 1083.554688 171.992188 1098.789062 156.757812 1117.578125 156.757812 C 1136.367188 156.757812 1151.601562 171.992188 1151.601562 190.78125 Z M 1151.601562 190.78125 " transform="matrix(0.1,0,0,-0.1,0,73)"/>
<path style=" stroke:none;fill-rule:nonzero;fill:rgb(100%,100%,0%);fill-opacity:1;" d="M 149.175781 53.921875 C 149.175781 52.042969 147.652344 50.519531 145.773438 50.519531 C 143.894531 50.519531 142.371094 52.042969 142.371094 53.921875 C 142.371094 55.800781 143.894531 57.324219 145.773438 57.324219 C 147.652344 57.324219 149.175781 55.800781 149.175781 53.921875 "/>
<path style="fill:none;stroke-width:5;stroke-linecap:round;stroke-linejoin:round;stroke:rgb(0%,0%,0%);stroke-opacity:1;stroke-miterlimit:10;" d="M 1491.757812 190.78125 C 1491.757812 209.570312 1476.523438 224.804688 1457.734375 224.804688 C 1438.945312 224.804688 1423.710938 209.570312 1423.710938 190.78125 C 1423.710938 171.992188 1438.945312 156.757812 1457.734375 156.757812 C 1476.523438 156.757812 1491.757812 171.992188 1491.757812 190.78125 Z M 1491.757812 190.78125 " transform="matrix(0.1,0,0,-0.1,0,73)"/>
<path style=" stroke:none;fill-rule:nonzero;fill:rgb(100%,100%,0%);fill-opacity:1;" d="M 183.191406 53.921875 C 183.191406 52.042969 181.667969 50.519531 179.789062 50.519531 C 177.910156 50.519531 176.386719 52.042969 176.386719 53.921875 C 176.386719 55.800781 177.910156 57.324219 179.789062 57.324219 C 181.667969 57.324219 183.191406 55.800781 183.191406 53.921875 "/>
<path style="fill:none;stroke-width:5;stroke-linecap:round;stroke-linejoin:round;stroke:rgb(0%,0%,0%);stroke-opacity:1;stroke-miterlimit:10;" d="M 1831.914062 190.78125 C 1831.914062 209.570312 1816.679688 224.804688 1797.890625 224.804688 C 1779.101562 224.804688 1763.867188 209.570312 1763.867188 190.78125 C 1763.867188 171.992188 1779.101562 156.757812 1797.890625 156.757812 C 1816.679688 156.757812 1831.914062 171.992188 1831.914062 190.78125 Z M 1831.914062 190.78125 " transform="matrix(0.1,0,0,-0.1,0,73)"/>
<path style=" stroke:none;fill-rule:nonzero;fill:rgb(100%,100%,0%);fill-opacity:1;" d="M 217.207031 53.921875 C 217.207031 52.042969 215.683594 50.519531 213.804688 50.519531 C 211.925781 50.519531 210.402344 52.042969 210.402344 53.921875 C 210.402344 55.800781 211.925781 57.324219 213.804688 57.324219 C 215.683594 57.324219 217.207031 55.800781 217.207031 53.921875 "/>
<path style="fill:none;stroke-width:5;stroke-linecap:round;stroke-linejoin:round;stroke:rgb(0%,0%,0%);stroke-opacity:1;stroke-miterlimit:10;" d="M 2172.070312 190.78125 C 2172.070312 209.570312 2156.835938 224.804688 2138.046875 224.804688 C 2119.257812 224.804688 2104.023438 209.570312 2104.023438 190.78125 C 2104.023438 171.992188 2119.257812 156.757812 2138.046875 156.757812 C 2156.835938 156.757812 2172.070312 171.992188 2172.070312 190.78125 Z M 2172.070312 190.78125 " transform="matrix(0.1,0,0,-0.1,0,73)"/>
<path style=" stroke:none;fill-rule:nonzero;fill:rgb(100%,100%,0%);fill-opacity:1;" d="M 149.175781 19.90625 C 149.175781 18.027344 147.652344 16.503906 145.773438 16.503906 C 143.894531 16.503906 142.371094 18.027344 142.371094 19.90625 C 142.371094 21.785156 143.894531 23.308594 145.773438 23.308594 C 147.652344 23.308594 149.175781 21.785156 149.175781 19.90625 "/>
<path style="fill:none;stroke-width:5;stroke-linecap:round;stroke-linejoin:round;stroke:rgb(0%,0%,0%);stroke-opacity:1;stroke-miterlimit:10;" d="M 1491.757812 530.9375 C 1491.757812 549.726562 1476.523438 564.960938 1457.734375 564.960938 C 1438.945312 564.960938 1423.710938 549.726562 1423.710938 530.9375 C 1423.710938 512.148438 1438.945312 496.914062 1457.734375 496.914062 C 1476.523438 496.914062 1491.757812 512.148438 1491.757812 530.9375 Z M 1491.757812 530.9375 " transform="matrix(0.1,0,0,-0.1,0,73)"/>
<path style=" stroke:none;fill-rule:nonzero;fill:rgb(0%,0%,0%);fill-opacity:1;" d="M 11.296875 68.800781 L 11.296875 68.519531 L 11.007812 68.519531 C 10.167969 68.519531 10.140625 68.414062 10.140625 68.078125 L 10.140625 63.039062 C 10.140625 62.8125 10.132812 62.796875 9.90625 62.796875 C 9.347656 63.371094 8.519531 63.371094 8.238281 63.371094 L 8.238281 63.652344 C 8.410156 63.652344 8.960938 63.652344 9.445312 63.417969 L 9.445312 68.078125 C 9.445312 68.414062 9.421875 68.519531 8.582031 68.519531 L 8.292969 68.519531 L 8.292969 68.800781 C 8.617188 68.773438 9.421875 68.773438 9.789062 68.773438 C 10.160156 68.773438 10.96875 68.773438 11.296875 68.800781 "/>
<path style=" stroke:none;fill-rule:nonzero;fill:rgb(0%,0%,0%);fill-opacity:1;" d="M 45.566406 67.203125 L 45.3125 67.203125 C 45.296875 67.320312 45.222656 67.851562 45.105469 67.996094 C 45.050781 68.078125 44.429688 68.078125 44.25 68.078125 L 42.644531 68.078125 L 43.539062 67.230469 C 45.015625 65.949219 45.566406 65.472656 45.566406 64.554688 C 45.566406 63.515625 44.710938 62.796875 43.601562 62.796875 C 42.5625 62.796875 41.859375 63.617188 41.859375 64.4375 C 41.859375 64.886719 42.246094 64.929688 42.328125 64.929688 C 42.527344 64.929688 42.796875 64.789062 42.796875 64.460938 C 42.796875 64.191406 42.609375 63.992188 42.328125 63.992188 C 42.285156 63.992188 42.257812 63.992188 42.21875 64.003906 C 42.4375 63.363281 43.015625 63.074219 43.5 63.074219 C 44.421875 63.074219 44.734375 63.929688 44.734375 64.554688 C 44.734375 65.472656 44.042969 66.222656 43.609375 66.691406 L 41.960938 68.476562 C 41.859375 68.574219 41.859375 68.59375 41.859375 68.800781 L 45.3125 68.800781 L 45.566406 67.203125 "/>
<path style=" stroke:none;fill-rule:nonzero;fill:rgb(0%,0%,0%);fill-opacity:1;" d="M 79.636719 67.167969 C 79.636719 66.382812 79.015625 65.714844 78.148438 65.527344 C 78.988281 65.210938 79.386719 64.550781 79.386719 63.929688 C 79.386719 63.234375 78.617188 62.695312 77.679688 62.695312 C 76.742188 62.695312 76.039062 63.226562 76.039062 63.914062 C 76.039062 64.210938 76.238281 64.382812 76.5 64.382812 C 76.761719 64.382812 76.953125 64.191406 76.953125 63.929688 C 76.953125 63.613281 76.734375 63.480469 76.429688 63.480469 C 76.664062 63.101562 77.210938 62.921875 77.65625 62.921875 C 78.402344 62.921875 78.546875 63.515625 78.546875 63.9375 C 78.546875 64.210938 78.492188 64.640625 78.265625 64.984375 C 77.988281 65.390625 77.671875 65.410156 77.410156 65.425781 C 77.1875 65.445312 77.167969 65.445312 77.09375 65.445312 C 77.015625 65.453125 76.941406 65.460938 76.941406 65.5625 C 76.941406 65.679688 77.015625 65.679688 77.167969 65.679688 L 77.589844 65.679688 C 78.375 65.679688 78.71875 66.3125 78.71875 67.167969 C 78.71875 68.320312 78.105469 68.644531 77.644531 68.644531 C 77.472656 68.644531 76.601562 68.601562 76.195312 67.933594 C 76.519531 67.976562 76.769531 67.753906 76.769531 67.445312 C 76.769531 67.148438 76.546875 66.960938 76.285156 66.960938 C 76.058594 66.960938 75.789062 67.09375 75.789062 67.472656 C 75.789062 68.277344 76.625 68.898438 77.671875 68.898438 C 78.800781 68.898438 79.636719 68.085938 79.636719 67.167969 "/>
<path style=" stroke:none;fill-rule:nonzero;fill:rgb(0%,0%,0%);fill-opacity:1;" d="M 113.863281 67.414062 L 113.863281 67.132812 L 112.945312 67.132812 L 112.945312 63.039062 C 112.945312 62.859375 112.945312 62.796875 112.773438 62.796875 C 112.664062 62.796875 112.65625 62.804688 112.574219 62.929688 L 109.761719 67.132812 L 109.761719 67.414062 L 112.222656 67.414062 L 112.222656 68.1875 C 112.222656 68.523438 112.195312 68.621094 111.519531 68.621094 L 111.320312 68.621094 L 111.320312 68.898438 C 111.890625 68.875 112.519531 68.875 112.585938 68.875 C 112.628906 68.875 113.277344 68.875 113.84375 68.898438 L 113.84375 68.621094 L 113.648438 68.621094 C 112.972656 68.621094 112.945312 68.523438 112.945312 68.1875 L 112.945312 67.414062 Z M 112.277344 67.132812 L 110.050781 67.132812 L 112.277344 63.796875 Z M 112.277344 67.132812 "/>
<path style=" stroke:none;fill-rule:nonzero;fill:rgb(0%,0%,0%);fill-opacity:1;" d="M 147.664062 66.898438 C 147.664062 65.804688 146.890625 64.914062 145.90625 64.914062 C 145.476562 64.914062 145.03125 65.058594 144.71875 65.382812 L 144.71875 63.605469 C 144.988281 63.6875 145.265625 63.730469 145.546875 63.730469 C 146.65625 63.730469 147.304688 62.929688 147.304688 62.8125 C 147.304688 62.730469 147.253906 62.695312 147.207031 62.695312 C 147.207031 62.695312 147.171875 62.695312 147.089844 62.742188 C 146.664062 62.910156 146.25 62.984375 145.871094 62.984375 C 145.484375 62.984375 145.078125 62.910156 144.664062 62.742188 C 144.574219 62.695312 144.546875 62.695312 144.546875 62.695312 C 144.4375 62.695312 144.4375 62.785156 144.4375 62.9375 L 144.4375 65.589844 C 144.4375 65.75 144.4375 65.851562 144.5625 65.851562 C 144.636719 65.851562 144.664062 65.8125 144.71875 65.734375 C 144.988281 65.355469 145.421875 65.140625 145.890625 65.140625 C 146.855469 65.140625 146.855469 66.527344 146.855469 66.851562 C 146.855469 67.132812 146.855469 67.691406 146.601562 68.09375 C 146.359375 68.476562 145.980469 68.644531 145.628906 68.644531 C 145.09375 68.644531 144.492188 68.3125 144.273438 67.644531 C 144.273438 67.644531 144.339844 67.664062 144.402344 67.664062 C 144.582031 67.664062 144.84375 67.546875 144.84375 67.222656 C 144.84375 66.941406 144.644531 66.78125 144.402344 66.78125 C 144.214844 66.78125 143.960938 66.886719 143.960938 67.25 C 143.960938 68.070312 144.644531 68.898438 145.644531 68.898438 C 146.738281 68.898438 147.664062 68.015625 147.664062 66.898438 "/>
<path style=" stroke:none;fill-rule:nonzero;fill:rgb(0%,0%,0%);fill-opacity:1;" d="M 181.738281 66.871094 C 181.738281 65.726562 180.90625 64.859375 179.890625 64.859375 C 179.347656 64.859375 178.960938 65.175781 178.707031 65.714844 C 178.707031 64.796875 178.808594 64.28125 179.050781 63.8125 C 179.230469 63.445312 179.671875 62.921875 180.339844 62.921875 C 180.519531 62.921875 180.9375 62.957031 181.140625 63.28125 C 180.808594 63.28125 180.664062 63.453125 180.664062 63.695312 C 180.664062 63.929688 180.828125 64.109375 181.078125 64.109375 C 181.332031 64.109375 181.503906 63.949219 181.503906 63.679688 C 181.503906 63.171875 181.140625 62.695312 180.320312 62.695312 C 179.160156 62.695312 177.886719 63.839844 177.886719 65.851562 C 177.886719 68.292969 178.988281 68.898438 179.835938 68.898438 C 180.835938 68.898438 181.738281 68.058594 181.738281 66.871094 Z M 180.917969 66.859375 C 180.917969 67.292969 180.917969 67.734375 180.746094 68.070312 C 180.46875 68.582031 180.070312 68.644531 179.828125 68.644531 C 179.3125 68.644531 179.015625 68.222656 178.90625 67.960938 C 178.734375 67.554688 178.726562 66.804688 178.726562 66.664062 C 178.726562 66.058594 179.007812 65.085938 179.871094 65.085938 C 180.015625 65.085938 180.457031 65.085938 180.746094 65.644531 C 180.917969 65.984375 180.917969 66.429688 180.917969 66.859375 "/>
<path style=" stroke:none;fill-rule:nonzero;fill:rgb(0%,0%,0%);fill-opacity:1;" d="M 216 62.992188 L 213.753906 62.992188 C 212.617188 62.992188 212.589844 62.875 212.5625 62.703125 L 212.3125 62.703125 L 212.015625 64.589844 L 212.265625 64.589844 C 212.304688 64.382812 212.375 63.875 212.492188 63.769531 C 212.554688 63.714844 213.265625 63.714844 213.394531 63.714844 L 215.289062 63.714844 L 214.421875 64.894531 C 213.25 66.507812 213.140625 67.980469 213.140625 68.492188 C 213.140625 68.59375 213.140625 69 213.554688 69 C 213.980469 69 213.980469 68.601562 213.980469 68.484375 L 213.980469 68.042969 C 213.980469 66.71875 214.179688 65.671875 214.65625 65.023438 L 215.917969 63.300781 C 216 63.199219 216 63.183594 216 62.992188 "/>
<path style=" stroke:none;fill-rule:nonzero;fill:rgb(0%,0%,0%);fill-opacity:1;" d="M 147.738281 9.386719 C 147.738281 8.511719 147.070312 8.078125 146.84375 7.933594 C 146.746094 7.859375 146.484375 7.699219 146.378906 7.636719 C 146.828125 7.421875 147.484375 6.96875 147.484375 6.238281 C 147.484375 5.390625 146.636719 4.894531 145.828125 4.894531 C 144.878906 4.894531 144.140625 5.570312 144.140625 6.398438 C 144.140625 6.742188 144.265625 7.066406 144.484375 7.328125 C 144.636719 7.5 144.691406 7.539062 145.214844 7.871094 C 144.421875 8.25 143.886719 8.796875 143.886719 9.539062 C 143.886719 10.492188 144.835938 11.097656 145.808594 11.097656 C 146.855469 11.097656 147.738281 10.359375 147.738281 9.386719 Z M 147.054688 6.238281 C 147.054688 6.867188 146.511719 7.285156 146.152344 7.492188 L 145.050781 6.804688 C 144.78125 6.632812 144.574219 6.390625 144.574219 6.058594 C 144.574219 5.472656 145.203125 5.121094 145.800781 5.121094 C 146.492188 5.121094 147.054688 5.609375 147.054688 6.238281 Z M 147.253906 9.699219 C 147.253906 10.414062 146.53125 10.84375 145.816406 10.84375 C 145.03125 10.84375 144.375 10.289062 144.375 9.539062 C 144.375 8.890625 144.824219 8.347656 145.457031 8.023438 L 146.59375 8.726562 C 146.800781 8.863281 147.253906 9.148438 147.253906 9.699219 "/>
</g>
</svg>
