<?xml version="1.0" encoding="UTF-8" standalone="no"?>
<svg
   xmlns:dc="http://purl.org/dc/elements/1.1/"
   xmlns:cc="http://creativecommons.org/ns#"
   xmlns:rdf="http://www.w3.org/1999/02/22-rdf-syntax-ns#"
   xmlns:svg="http://www.w3.org/2000/svg"
   xmlns="http://www.w3.org/2000/svg"
   viewBox="0 0 293.24249 48.694161"
   height="48.69416"
   width="293.24249"
   xml:space="preserve"
   id="svg2"
   version="1.1"><metadata
     id="metadata8"><rdf:RDF><cc:Work
         rdf:about=""><dc:format>image/svg+xml</dc:format><dc:type
           rdf:resource="http://purl.org/dc/dcmitype/StillImage" /><dc:title></dc:title></cc:Work></rdf:RDF></metadata><defs
     id="defs6"><clipPath
       id="clipPath128"
       clipPathUnits="userSpaceOnUse"><path
         id="path126"
         d="M 0,0 H 362.835 V 3.985 H 0 Z" /></clipPath><linearGradient
       gradientTransform="translate(71.143585,-82.538888)"
       id="linearGradient134"
       gradientUnits="userSpaceOnUse"
       y2="3.9851"
       x2="0"
       y1="0"
       x1="0"><stop
         id="stop130"
         offset="0"
         style="stop-opacity:1;stop-color:#ffffff" /><stop
         id="stop132"
         offset="1"
         style="stop-opacity:1;stop-color:#808080" /></linearGradient><pattern
       id="pattern156"
       height="11.33871"
       width="11.33871"
       y="0"
       x="0"
       patternUnits="userSpaceOnUse"
       patternTransform="translate(-231.627,-13.117)"><g
         id="g154"><path
           id="path150"
           style="fill:#e6e6e6;fill-opacity:1;fill-rule:nonzero;stroke:none"
           d="m 0,0 11.6222,0 0,11.6222 L 0,11.6222 0,0 Z" /><path
           id="path152"
           style="fill:#cccccc;fill-opacity:1;fill-rule:nonzero;stroke:none"
           d="m 0,0 5.66934,0 0,5.66934 L 0,5.66934 0,0 Z m 5.66934,5.66934 5.66934,0 0,5.66934 -5.66934,0 0,-5.66934 z" /></g></pattern><pattern
       id="pattern176"
       height="11.33871"
       width="11.33871"
       y="0"
       x="0"
       patternUnits="userSpaceOnUse"
       patternTransform="translate(-231.627,-13.117)"><g
         id="g174"><path
           id="path170"
           style="fill:#e6e6e6;fill-opacity:1;fill-rule:nonzero;stroke:none"
           d="m 0,0 11.6222,0 0,11.6222 L 0,11.6222 0,0 Z" /><path
           id="path172"
           style="fill:#cccccc;fill-opacity:1;fill-rule:nonzero;stroke:none"
           d="m 0,0 5.66934,0 0,5.66934 L 0,5.66934 0,0 Z m 5.66934,5.66934 5.66934,0 0,5.66934 -5.66934,0 0,-5.66934 z" /></g></pattern><pattern
       id="pattern202"
       height="11.33871"
       width="11.33871"
       y="0"
       x="0"
       patternUnits="userSpaceOnUse"
       patternTransform="translate(-231.627,-13.117)"><g
         id="g200"><path
           id="path196"
           style="fill:#e6e6e6;fill-opacity:1;fill-rule:nonzero;stroke:none"
           d="m 0,0 11.6222,0 0,11.6222 L 0,11.6222 0,0 Z" /><path
           id="path198"
           style="fill:#cccccc;fill-opacity:1;fill-rule:nonzero;stroke:none"
           d="m 0,0 5.66934,0 0,5.66934 L 0,5.66934 0,0 Z m 5.66934,5.66934 5.66934,0 0,5.66934 -5.66934,0 0,-5.66934 z" /></g></pattern><pattern
       id="pattern222"
       height="11.33871"
       width="11.33871"
       y="0"
       x="0"
       patternUnits="userSpaceOnUse"
       patternTransform="translate(-231.627,-13.117)"><g
         id="g220"><path
           id="path216"
           style="fill:#e6e6e6;fill-opacity:1;fill-rule:nonzero;stroke:none"
           d="m 0,0 11.6222,0 0,11.6222 L 0,11.6222 0,0 Z" /><path
           id="path218"
           style="fill:#cccccc;fill-opacity:1;fill-rule:nonzero;stroke:none"
           d="m 0,0 5.66934,0 0,5.66934 L 0,5.66934 0,0 Z m 5.66934,5.66934 5.66934,0 0,5.66934 -5.66934,0 0,-5.66934 z" /></g></pattern><pattern
       id="pattern248"
       height="11.33871"
       width="11.33871"
       y="0"
       x="0"
       patternUnits="userSpaceOnUse"
       patternTransform="translate(-231.627,-13.117)"><g
         id="g246"><path
           id="path242"
           style="fill:#e6e6e6;fill-opacity:1;fill-rule:nonzero;stroke:none"
           d="m 0,0 11.6222,0 0,11.6222 L 0,11.6222 0,0 Z" /><path
           id="path244"
           style="fill:#cccccc;fill-opacity:1;fill-rule:nonzero;stroke:none"
           d="m 0,0 5.66934,0 0,5.66934 L 0,5.66934 0,0 Z m 5.66934,5.66934 5.66934,0 0,5.66934 -5.66934,0 0,-5.66934 z" /></g></pattern><pattern
       id="pattern268"
       height="11.33871"
       width="11.33871"
       y="0"
       x="0"
       patternUnits="userSpaceOnUse"
       patternTransform="translate(-231.627,-13.117)"><g
         id="g266"><path
           id="path262"
           style="fill:#e6e6e6;fill-opacity:1;fill-rule:nonzero;stroke:none"
           d="m 0,0 11.6222,0 0,11.6222 L 0,11.6222 0,0 Z" /><path
           id="path264"
           style="fill:#cccccc;fill-opacity:1;fill-rule:nonzero;stroke:none"
           d="m 0,0 5.66934,0 0,5.66934 L 0,5.66934 0,0 Z m 5.66934,5.66934 5.66934,0 0,5.66934 -5.66934,0 0,-5.66934 z" /></g></pattern></defs><g
     transform="matrix(1.3333333,0,0,-1.3333333,-94.858111,252.78282)"
     id="g10"><g
       transform="matrix(0.60614844,0,0,0.13420482,71.143585,153.0665)"
       id="g12"><path
         id="path14"
         style="fill:#ffffff;fill-opacity:1;fill-rule:nonzero;stroke:none"
         d="M 0,0 H 362.835 V 272.126 H 0 Z" /></g><g
       transform="translate(231.627,13.117)"
       id="g16"><g
         id="g18"><g
           id="g20"><path
             id="path22"
             style="fill:none;stroke:#adade0;stroke-width:0.3985;stroke-linecap:butt;stroke-linejoin:miter;stroke-miterlimit:10;stroke-dasharray:none;stroke-opacity:1"
             d="m 8.26909,0.79701 h 3.38733 V 3.18806 H 8.26909 Z" /></g><g
           id="g24"><path
             id="path26"
             style="fill:#d6d6f0;fill-opacity:1;fill-rule:nonzero;stroke:none"
             d="M 4.00005,0.49998 2.00002,2.00002 4.00005,3.50003" /><path
             id="path28"
             style="fill:#d6d6f0;fill-opacity:1;fill-rule:nonzero;stroke:none"
             d="M 16.0002,0.49998 18.00021,2.00002 16.0002,3.50003" /></g></g><g
         transform="translate(21.69)"
         id="g30"><g
           id="g32"><g
             id="g34"><path
               id="path36"
               style="fill:none;stroke:#adade0;stroke-width:0.3985;stroke-linecap:butt;stroke-linejoin:miter;stroke-miterlimit:10;stroke-dasharray:none;stroke-opacity:1"
               d="m 6.97394,0 h 3.38733 V 2.39105 H 6.97394 Z m 0.82614,2.40001 v 0.80002 h 3.40004 V 0.8 H 10.4001 m -1.8,2.40003 v 0.80002 h 3.40005 V 1.60002 h -0.80003" /></g><g
             id="g38"><path
               id="path40"
               style="fill:#d6d6f0;fill-opacity:1;fill-rule:nonzero;stroke:none"
               d="M 4.00005,0.49998 2.00002,2.00002 4.00005,3.50003 M 16.0002,0.49998 18.00021,2.00002 16.0002,3.50003" /></g></g><g
           transform="translate(21.689)"
           id="g42"><g
             id="g44"><g
               id="g46"><path
                 id="path48"
                 style="fill:none;stroke:#adade0;stroke-width:0.59776002;stroke-linecap:butt;stroke-linejoin:miter;stroke-miterlimit:10;stroke-dasharray:none;stroke-opacity:1"
                 d="m 9.00009,3.00003 h 3.00006" /></g><g
               id="g50"><path
                 id="path52"
                 style="fill:#d6d6f0;fill-opacity:1;fill-rule:nonzero;stroke:none"
                 d="M 4.00005,0.49998 2.00002,2.00002 4.00005,3.50003 M 16.0002,0.49998 18.00021,2.00002 16.0002,3.50003" /><path
                 id="path54"
                 style="fill:none;stroke:#d6d6f0;stroke-width:0.59776002;stroke-linecap:butt;stroke-linejoin:miter;stroke-miterlimit:10;stroke-dasharray:none;stroke-opacity:1"
                 d="m 8.00009,4.00005 h 3.00003 M 9.00009,2.00002 h 3.00006 M 8.00009,1 h 3.00003 M 9.00009,0 h 3.00006" /></g></g><g
             transform="translate(21.69)"
             id="g56"><g
               id="g58"><g
                 id="g60"><path
                   id="path62"
                   style="fill:none;stroke:#adade0;stroke-width:0.59776002;stroke-linecap:butt;stroke-linejoin:miter;stroke-miterlimit:10;stroke-dasharray:none;stroke-opacity:1"
                   d="m 8.00009,4.00005 h 3.00003 M 9.00009,3.00003 h 3.00006 M 9.00009,2.00002 h 3.00006" /></g><g
                 id="g64"><path
                   id="path66"
                   style="fill:#d6d6f0;fill-opacity:1;fill-rule:nonzero;stroke:none"
                   d="M 4.00005,0.49998 2.00002,2.00002 4.00005,3.50003 M 16.0002,0.49998 18.00021,2.00002 16.0002,3.50003" /><path
                   id="path68"
                   style="fill:none;stroke:#d6d6f0;stroke-width:0.59776002;stroke-linecap:butt;stroke-linejoin:miter;stroke-miterlimit:10;stroke-dasharray:none;stroke-opacity:1"
                   d="m 8.00009,1 h 3.00003 M 9.00009,0 h 3.00006" /></g></g><g
               transform="translate(21.689)"
               id="g70"><g
                 id="g72"><g
                   id="g74"><path
                     id="path76"
                     style="fill:none;stroke:#adade0;stroke-width:0.59776002;stroke-linecap:butt;stroke-linejoin:miter;stroke-miterlimit:10;stroke-dasharray:none;stroke-opacity:1"
                     d="m 8.00009,4.00005 h 3.00003 M 9.00009,3.00003 h 3.00006 M 9.00009,2.00002 h 3.00006 M 8.00009,1 h 3.00003 M 9.00009,0 h 3.00006" /></g></g><g
                 transform="translate(21.69)"
                 id="g78"><g
                   id="g80"><g
                     id="g82"><path
                       id="path84"
                       style="fill:none;stroke:#adade0;stroke-width:0.59776002;stroke-linecap:butt;stroke-linejoin:miter;stroke-miterlimit:10;stroke-dasharray:none;stroke-opacity:1"
                       d="M 10.4001,1.60002 12.00015,0" /><path
                       id="path86"
                       style="fill:none;stroke:#adade0;stroke-width:0.3985;stroke-linecap:butt;stroke-linejoin:miter;stroke-miterlimit:10;stroke-dasharray:none;stroke-opacity:1"
                       d="m 10.66016,2.49069 c 0,0.66027 -0.53526,1.19553 -1.19553,1.19553 -0.66028,0 -1.19554,-0.53526 -1.19554,-1.19553 0,-0.66028 0.53526,-1.19554 1.19554,-1.19554 0.66027,0 1.19553,0.53526 1.19553,1.19554 z" /><path
                       id="path88"
                       style="fill:none;stroke:#adade0;stroke-width:0.3985;stroke-linecap:round;stroke-linejoin:miter;stroke-miterlimit:10;stroke-dasharray:none;stroke-opacity:1"
                       d="m 4.00005,0 c 1.08096,0 2.00001,0.9 2.00001,2.00002 0,1.1 -0.90001,2.00003 -2.00001,2.00003 -1.10004,0 -2.00003,-0.90003 -2.00003,-2.00003 m 1.20001,0.6 -1.20001,-1 -1.20002,1 M 16.0002,0 c -1.10004,0 -2.00003,0.9 -2.00003,2.00002 0,1.1 0.89999,2.00003 2.00003,2.00003 1.1,0 2.00001,-0.90003 2.00001,-2.00003 m 1.20002,0.6 -1.20002,-1 -1.20001,1" /></g></g><g
                   transform="translate(-340.075,223.642)"
                   id="g90"><path
                     id="path92"
                     style="fill:#000000;fill-opacity:1;fill-rule:nonzero;stroke:none"
                     d="M 0,0 H 181.417 V 35.367 H 0 Z" /></g><g
                   transform="translate(-340.075,-13.117)"
                   id="g94"><text
                     id="text106"
                     style="font-variant:normal;font-weight:normal;font-size:5.9776001px;font-family:CMSS8;-inkscape-font-specification:CMSS8;writing-mode:lr-tb;fill:#808080;fill-opacity:1;fill-rule:nonzero;stroke:none"
                     transform="matrix(1,0,0,-1,104.901,266.149)"><tspan
                       id="tspan96"
                       y="0"
                       x="0 4.2339339 5.7492557 8.042861 10.865483 13.034755 16.314066 19.365032 21.658638 23.17396 26.453272 31.745241 35.273819 36.789139 39.965038 45.36042 50.902252 53.95322 56.246826 58.416096 59.931419 62.75404 65.57666">AlternatingSignMatrices</tspan><tspan
                       id="tspan98"
                       y="6.4759998"
                       x="-6.3990002 -1.8117898 1.0108329 3.4455094 6.2681322 9.0907545 12.370067 15.649378 17.1647 20.44401 25.735979 29.793575 31.308897 34.359863 37.639175 42.577869 46.462112 49.333752 51.503021 53.796627 55.311951 57.605553 59.120876 62.296776 65.576088">DescendingPlanePartitions</tspan><tspan
                       id="tspan100"
                       y="12.952"
                       x="-1.966 2.3719444 5.6512556 10.589949 14.823883 18.352461 23.894293 26.011559 30.59877 34.656364 40.830029 43.652653 46.828552 50.107861 51.799522 54.622147 57.444767 59.738373 63.017685 65.186958">TheASM-DPPconjecture</tspan><tspan
                       id="tspan102"
                       y="19.427"
                       x="-8.0570002 -3.9994051 -1.830134 1.5191152 4.695014 6.635941 11.227335 14.506647 17.329269 19.622875 22.445498 24.614769 29.658667 31.168011 34.4533 37.504269 40.783577 45.193253 47.134182 50.130753 52.300022 57.343922 60.623234 62.138554 65.189522">Proof:determinantformulae</tspan><tspan
                       id="tspan104"
                       y="25.903"
                       x="35.700001 39.809601 42.632221 46.03587 49.315178 52.137802 57.181702 60.004322 63.283634 65.57724">Refnements</tspan></text>
<g
                     transform="translate(181.417,236.759)"
                     id="g108"><path
                       id="path110"
                       style="fill:#adade0;fill-opacity:1;fill-rule:nonzero;stroke:none"
                       d="M 0,0 H 181.417 V 35.367 H 0 Z" /></g><text
                     id="text118"
                     style="font-variant:normal;font-weight:normal;font-size:5.9776001px;font-family:CMSS8;-inkscape-font-specification:CMSS8;writing-mode:lr-tb;fill:#575770;fill-opacity:1;fill-rule:nonzero;stroke:none"
                     transform="matrix(1,0,0,-1,189.921,259.673)"><tspan
                       id="tspan112"
                       y="0"
                       x="0 4.5872102 7.9424372 11.221748 14.39167 16.826345 20.002245 23.281557 25.045546 29.60227 32.424892 35.600792 38.880104 42.159416 44.982037 48.261349 50.696026 53.746994 56.040596 57.55592 60.731819">Dodgson’scondensation</tspan><tspan
                       id="tspan114"
                       y="6.4759998"
                       x="0 3.8089268 6.7355595 9.7865267 14.830425 18.109737 19.625059">Example</tspan><tspan
                       id="tspan116"
                       y="12.951"
                       x="0 3.5285773 5.8221822 8.8731499 11.166755 12.682076 15.116753 17.410358 18.92568 21.748302">Statistics</tspan></text>
<g
                     transform="translate(0,232.973)"
                     id="g120"><g
                       id="g122"><g
                         clip-path="url(#clipPath128)"
                         id="g124"><path
                           id="path136"
                           style="fill:url(#linearGradient134);stroke:none"
                           d="M 0,0 H 362.835 V 3.985 H 0 Z" /></g></g></g><text
                     id="text140"
                     style="font-variant:normal;font-weight:normal;font-size:10.90909958px;font-family:CMSS10;-inkscape-font-specification:CMSS10;writing-mode:lr-tb;fill:#000000;fill-opacity:1;fill-rule:nonzero;stroke:none"
                     transform="matrix(1,0,0,-1,28.346,199.9)"><tspan
                       id="tspan138"
                       y="0"
                       x="0 3.0305481 6.9698238 11.817828 15.545467 20.788382 24.727657 27.333841 32.364025 40.844761 46.481495 50.662952 59.154594 64.609146 71.575699 75.514969 81.151703 89.632439 97.510994 102.35899 106.55136 112.17719 117.4201 123.05683 128.51138 132.45065 137.90521 143.05649 148.29939 153.1474 158.60194 164.23868 170.48851 173.0947 178.73141 183.57942 189.21616 193.15544 195.76161 199.39543 204.42563">IterativeuseoftheDesnanot–Jacobiidentity:</tspan></text>
<g
                     transform="translate(75.988,157.277)"
                     id="g142"><g
                       id="g144"><g
                         id="g146"><g
                           id="g148"><path
                             id="path158"
                             style="fill:url(#pattern156);fill-opacity:1;fill-rule:nonzero;stroke:#000000;stroke-width:0.3985;stroke-linecap:butt;stroke-linejoin:miter;stroke-miterlimit:10;stroke-dasharray:none;stroke-opacity:1"
                             d="M 0,0 V 28.3468 H 28.3468 V 0 Z" /></g></g></g><g
                       transform="translate(32.381)"
                       id="g160"><g
                         id="g162"><g
                           id="g164"><path
                             id="path166"
                             style="fill:none;stroke:#000000;stroke-width:0.3985;stroke-linecap:butt;stroke-linejoin:miter;stroke-miterlimit:10;stroke-dasharray:none;stroke-opacity:1"
                             d="M 0,0 V 28.3468 H 28.3468 V 0 Z" /><g
                             id="g168"><path
                               id="path178"
                               style="fill:url(#pattern176);fill-opacity:1;fill-rule:nonzero;stroke:#000000;stroke-width:0.3985;stroke-linecap:butt;stroke-linejoin:miter;stroke-miterlimit:10;stroke-dasharray:none;stroke-opacity:1"
                               d="M 5.66927,5.66927 V 22.67752 H 22.67752 V 5.66927 Z" /></g></g></g><g
                         transform="translate(-108.369,-157.277)"
                         id="g180"><text
                           id="text184"
                           style="font-variant:normal;font-weight:normal;font-size:10.90909958px;font-family:CMSS10;-inkscape-font-specification:CMSS10;writing-mode:lr-tb;fill:#000000;fill-opacity:1;fill-rule:nonzero;stroke:none"
                           transform="matrix(1,0,0,-1,139.945,168.723)"><tspan
                             id="tspan182"
                             y="0"
                             x="0">=</tspan></text>
<g
                           transform="translate(151.66,157.277)"
                           id="g186"><g
                             id="g188"><g
                               id="g190"><path
                                 id="path192"
                                 style="fill:none;stroke:#000000;stroke-width:0.3985;stroke-linecap:butt;stroke-linejoin:miter;stroke-miterlimit:10;stroke-dasharray:none;stroke-opacity:1"
                                 d="M 0,0 V 28.3468 H 28.3468 V 0 Z" /><g
                                 id="g194"><path
                                   id="path204"
                                   style="fill:url(#pattern202);fill-opacity:1;fill-rule:nonzero;stroke:#000000;stroke-width:0.3985;stroke-linecap:butt;stroke-linejoin:miter;stroke-miterlimit:10;stroke-dasharray:none;stroke-opacity:1"
                                   d="M 0,5.66927 V 28.3468 H 22.67752 V 5.66927 Z" /></g></g></g><g
                             transform="translate(32.381)"
                             id="g206"><g
                               id="g208"><g
                                 id="g210"><path
                                   id="path212"
                                   style="fill:none;stroke:#000000;stroke-width:0.3985;stroke-linecap:butt;stroke-linejoin:miter;stroke-miterlimit:10;stroke-dasharray:none;stroke-opacity:1"
                                   d="M 0,0 V 28.3468 H 28.3468 V 0 Z" /><g
                                   id="g214"><path
                                   id="path224"
                                   style="fill:url(#pattern222);fill-opacity:1;fill-rule:nonzero;stroke:#000000;stroke-width:0.3985;stroke-linecap:butt;stroke-linejoin:miter;stroke-miterlimit:10;stroke-dasharray:none;stroke-opacity:1"
                                   d="M 5.66927,0 V 22.67752 H 28.3468 V 0 Z" /></g></g></g><g
                               transform="translate(-184.041,-157.277)"
                               id="g226"><text
                                 id="text230"
                                 style="font-variant:normal;font-weight:normal;font-size:10.90909958px;font-family:CMSY10;-inkscape-font-specification:CMSY10;writing-mode:lr-tb;fill:#000000;fill-opacity:1;fill-rule:nonzero;stroke:none"
                                 transform="matrix(1,0,0,-1,215.011,168.723)"><tspan
                                   id="tspan228"
                                   y="0"
                                   x="0">−</tspan></text>
<g
                                 transform="translate(226.119,157.277)"
                                 id="g232"><g
                                   id="g234"><g
                                   id="g236"><path
                                   id="path238"
                                   style="fill:none;stroke:#000000;stroke-width:0.3985;stroke-linecap:butt;stroke-linejoin:miter;stroke-miterlimit:10;stroke-dasharray:none;stroke-opacity:1"
                                   d="M 0,0 V 28.3468 H 28.3468 V 0 Z" /><g
                                   id="g240"><path
                                   id="path250"
                                   style="fill:url(#pattern248);fill-opacity:1;fill-rule:nonzero;stroke:#000000;stroke-width:0.3985;stroke-linecap:butt;stroke-linejoin:miter;stroke-miterlimit:10;stroke-dasharray:none;stroke-opacity:1"
                                   d="M 0,0 V 22.67752 H 22.67752 V 0 Z" /></g></g></g><g
                                   transform="translate(32.381)"
                                   id="g252"><g
                                   id="g254"><g
                                   id="g256"><path
                                   id="path258"
                                   style="fill:none;stroke:#000000;stroke-width:0.3985;stroke-linecap:butt;stroke-linejoin:miter;stroke-miterlimit:10;stroke-dasharray:none;stroke-opacity:1"
                                   d="M 0,0 V 28.3468 H 28.3468 V 0 Z" /><g
                                   id="g260"><path
                                   id="path270"
                                   style="fill:url(#pattern268);fill-opacity:1;fill-rule:nonzero;stroke:#000000;stroke-width:0.3985;stroke-linecap:butt;stroke-linejoin:miter;stroke-miterlimit:10;stroke-dasharray:none;stroke-opacity:1"
                                   d="M 5.66927,5.66927 V 28.3468 H 28.3468 V 5.66927 Z" /></g></g></g><g
                                   transform="translate(-258.5,-157.277)"
                                   id="g272"><text
                                   id="text276"
                                   style="font-variant:normal;font-weight:normal;font-size:10.90909958px;font-family:CMSS10;-inkscape-font-specification:CMSS10;writing-mode:lr-tb;fill:#000000;fill-opacity:1;fill-rule:nonzero;stroke:none"
                                   transform="matrix(1,0,0,-1,28.346,137.547)"><tspan
                                   id="tspan274"
                                   y="0"
                                   x="0 5.2429132 7.8490973 10.455281 15.604377 23.058565 30.77457 34.713848 43.692036 48.540039 53.994591 62.660778 68.297508 73.934242 77.87352 86.256073 90.195351 95.821167 104.20372 109.84045 114.68846 118.62774 123.47574 127.20338 135.86957 138.47575 144.11249 149.35539 154.99213 162.45505 167.90959 174.77797">allowstocomputethedeterminantofa</tspan></text>
<text
                                   id="text280"
                                   style="font-variant:normal;font-weight:normal;font-size:10.90909958px;font-family:CMSSI10;-inkscape-font-specification:CMSSI10;writing-mode:lr-tb;fill:#000000;fill-opacity:1;fill-rule:nonzero;stroke:none"
                                   transform="matrix(1,0,0,-1,211.89,137.547)"><tspan
                                   id="tspan278"
                                   y="0"
                                   x="0">n</tspan></text>
<text
                                   id="text284"
                                   style="font-variant:normal;font-weight:normal;font-size:10.90909958px;font-family:CMSY10;-inkscape-font-specification:CMSY10;writing-mode:lr-tb;fill:#000000;fill-opacity:1;fill-rule:nonzero;stroke:none"
                                   transform="matrix(1,0,0,-1,219.928,137.547)"><tspan
                                   id="tspan282"
                                   y="0"
                                   x="0">×</tspan></text>
<text
                                   id="text288"
                                   style="font-variant:normal;font-weight:normal;font-size:10.90909958px;font-family:CMSSI10;-inkscape-font-specification:CMSSI10;writing-mode:lr-tb;fill:#000000;fill-opacity:1;fill-rule:nonzero;stroke:none"
                                   transform="matrix(1,0,0,-1,230.62,137.547)"><tspan
                                   id="tspan286"
                                   y="0"
                                   x="0">n</tspan></text>
<text
                                   id="text294"
                                   style="font-variant:normal;font-weight:normal;font-size:10.90909958px;font-family:CMSS10;-inkscape-font-specification:CMSS10;writing-mode:lr-tb;fill:#000000;fill-opacity:1;fill-rule:nonzero;stroke:none"
                                   transform="matrix(1,0,0,-1,239.978,137.547)"><tspan
                                   id="tspan290"
                                   y="0"
                                   x="0 8.6661892 13.909102 17.848379 21.576017 24.182201 32.736027 38.078213 46.632038 51.480042 56.934593 65.600784 71.237511 76.874245 80.813522 83.419708 89.056435">matrixbycomputing</tspan><tspan
                                   id="tspan292"
                                   y="13.549"
                                   x="-211.632 -207.69272 -202.05598 -193.57526 -187.93852 -183.09052 -179.15125 -174.30324 -170.57561 -161.90941 -159.30322 -153.6665 -148.42358 -142.78685 -138.84758 -131.02248 -125.56792 -118.60138 -114.6621 -109.02537 -100.54463 -95.696632 -90.242081 -84.605347 -78.96862 -74.120613 -69.272606 -65.333336 -60.474419 -51.204956 -42.538769 -39.932583 -34.295853 -29.146757 -25.419117 -17.604929 -12.150379 -5.1729188 -0.99146086 1.6147232 6.3569088 14.837644">thedeterminantsoftheconnectedminorsofsize1</tspan></text>
<text
                                   id="text298"
                                   style="font-variant:normal;font-weight:normal;font-size:10.90909958px;font-family:CMMI10;-inkscape-font-specification:CMMI10;writing-mode:lr-tb;fill:#000000;fill-opacity:1;fill-rule:nonzero;stroke:none"
                                   transform="matrix(1,0,0,-1,260.271,123.998)"><tspan
                                   id="tspan296"
                                   y="0"
                                   x="0 4.8523679 9.6938267 14.546194 19.398561">,...,</tspan></text>
<text
                                   id="text302"
                                   style="font-variant:normal;font-weight:normal;font-size:10.90909958px;font-family:CMSSI10;-inkscape-font-specification:CMSSI10;writing-mode:lr-tb;fill:#000000;fill-opacity:1;fill-rule:nonzero;stroke:none"
                                   transform="matrix(1,0,0,-1,284.513,123.998)"><tspan
                                   id="tspan300"
                                   y="0"
                                   x="0">n</tspan></text>
<text
                                   id="text306"
                                   style="font-variant:normal;font-weight:normal;font-size:10.90909958px;font-family:CMSS10;-inkscape-font-specification:CMSS10;writing-mode:lr-tb;fill:#000000;fill-opacity:1;fill-rule:nonzero;stroke:none"
                                   transform="matrix(1,0,0,-1,290.343,123.998)"><tspan
                                   id="tspan304"
                                   y="0"
                                   x="0">.</tspan></text>
<g
                                   transform="translate(1e-5,1e-5)"
                                   id="g308"><text
                                   id="text314"
                                   style="font-variant:normal;font-weight:normal;font-size:10.90909958px;font-family:CMSS10;-inkscape-font-specification:CMSS10;writing-mode:lr-tb;fill:#000000;fill-opacity:1;fill-rule:nonzero;stroke:none"
                                   transform="matrix(1,0,0,-1,28.346,98.494)"><tspan
                                   id="tspan310"
                                   y="0"
                                   x="0 10.302554 15.939286 21.182199 28.754206 34.390938 39.63385 45.270584 51.212769 56.060776 61.697506 69.511696 76.965881 82.602615 87.450615 96.730988 103.87972 112.36046 116.0881 120.9361 126.57283 129.17902 134.42194 139.26993 147.76158 151.70085 157.33759 165.81831 174.48451 177.0907 182.72743 188.36415 196.17834 200.3598 202.96599 208.42053 217.70091 225.15509 227.76128 231.70056 240.97002 246.21294 255.48239 260.43076 264.14749 269.78421 272.39041 276.32968 280.05731 285.00571 288.73334">Whathappenswhenwereplacetheminussignwithanarbitrary</tspan><tspan
                                   id="tspan312"
                                   y="13.549"
                                   x="0 5.6367321 10.574191 14.30183 19.544744 28.210932 33.058937 36.998211 41.846218 45.573856">parameter?</tspan></text>
<g
                                   transform="translate(28.34601,82.82301)"
                                   id="g316"><g
                                   transform="translate(-28.346,-82.823)"
                                   id="g318"><text
                                   id="text324"
                                   style="font-variant:normal;font-weight:normal;font-size:10.90909958px;font-family:CMSS10;-inkscape-font-specification:CMSS10;writing-mode:lr-tb;fill:#d9d9d9;fill-opacity:1;fill-rule:nonzero;stroke:none"
                                   transform="matrix(1,0,0,-1,28.346,59.44)"><tspan
                                   id="tspan320"
                                   y="0"
                                   x="0 5.9094596 11.152373 16.789104 20.516745 25.364748 31.00148 38.464397 44.101128 49.737858 54.585865 60.222595 65.677147 74.343338 79.191338 84.828072 90.282623 95.91935 103.74991 107.68918 113.32591 121.69756 125.42519 130.27319 134.45465 140.09138 142.69757 150.16049 152.76668 160.48268 164.66414 168.60341 171.20959 173.81578 179.9456 188.71216 194.62161 199.86453 205.50127 209.2289 214.0769 219.71364 227.17656 233.11874 238.57329 241.17947 246.20966 251.84639 257.30093 265.96713 268.5733 273.81622 279.94604 282.55225 291.72351 295.66278 301.29953">Laurentphenomenon:theresultisstillaLaurentpolynomialinthe</tspan><tspan
                                   id="tspan322"
                                   y="13.549"
                                   x="0 4.8480039 10.484736 14.424012 18.151651 20.757835 25.605839 33.420029 38.874577 45.852039 49.791313 55.428047 63.908779 72.574966 77.817886 81.757156 85.484802 88.090981 93.12117">entriesofthematrix.</tspan></text>
<g
                                   transform="translate(28.34601,45.89101)"
                                   id="g326"><g
                                   transform="translate(-28.346,-45.891)"
                                   id="g328"><path
                                   id="path330"
                                   style="fill:#000000;fill-opacity:1;fill-rule:nonzero;stroke:none"
                                   d="M 0,0 H 181.417 V 9.631 H 0 Z" /></g><g
                                   transform="translate(-28.346,-45.891)"
                                   id="g332"><text
                                   id="text336"
                                   style="font-variant:normal;font-weight:normal;font-size:5.9776001px;font-family:CMSS8;-inkscape-font-specification:CMSS8;writing-mode:lr-tb;fill:#ffffff;fill-opacity:1;fill-rule:nonzero;stroke:none"
                                   transform="matrix(1,0,0,-1,46.363,2.989)"><tspan
                                   id="tspan334"
                                   y="0"
                                   x="0 4.1096001 7.9896603 12.223595 15.046217 18.325529 20.494799 23.317423 26.596733 29.876045 33.762081 37.28767 41.167732 45.75494 49.386333 52.844975 55.014244 58.065212 61.344521 64.167145 66.989769 69.424446 72.24707 77.53904 80.590004 83.869316 89.264694 92.796265 96.676323 100.55758 102.0729 105.35221 108.63152 110.74879 113.74775 117.02706 119.46174 121.75534 123.27067">R.Behrend,P.DiFrancescoandP.Zinn-Justin</tspan></text>
<g
                                   transform="translate(181.417)"
                                   id="g338"><path
                                   id="path340"
                                   style="fill:#adade0;fill-opacity:1;fill-rule:nonzero;stroke:none"
                                   d="M 0,0 H 181.417 V 9.631 H 0 Z" /></g><text
                                   id="text344"
                                   style="font-variant:normal;font-weight:normal;font-size:5.9776001px;font-family:CMSS8;-inkscape-font-specification:CMSS8;writing-mode:lr-tb;fill:#000000;fill-opacity:1;fill-rule:nonzero;stroke:none"
                                   transform="matrix(1,0,0,-1,189.921,2.989)"><tspan
                                   id="tspan342"
                                   y="0"
                                   x="0 4.1096001 6.9322228 10.335868 13.615179 16.437801 21.833183 24.655807 27.935118 31.21443 36.258327 39.080952 41.250221 44.301189 46.594795 48.110115 51.286015 56.681396 59.857296 63.920269 68.154205 71.682785 77.224617 81.77536 84.826332 88.105637 93.501022 98.088234 102.14583 106.20342">RefnedenumerationofASMsandDPPs</tspan></text>
</g></g></g></g></g></g></g></g></g></g></g></g></g></g></g></g></g></g></g></g></g></g></svg>