<?xml version="1.0" encoding="utf-8" standalone="no"?>
<!DOCTYPE svg PUBLIC "-//W3C//DTD SVG 1.1//EN"
  "http://www.w3.org/Graphics/SVG/1.1/DTD/svg11.dtd">
<svg xmlns:xlink="http://www.w3.org/1999/xlink" width="432pt" height="432pt" viewBox="0 0 432 432" xmlns="http://www.w3.org/2000/svg" version="1.1">
 <metadata>
  <rdf:RDF xmlns:dc="http://purl.org/dc/elements/1.1/" xmlns:cc="http://creativecommons.org/ns#" xmlns:rdf="http://www.w3.org/1999/02/22-rdf-syntax-ns#">
   <cc:Work>
    <dc:type rdf:resource="http://purl.org/dc/dcmitype/StillImage"/>
    <dc:date>2024-10-22T14:52:17.198432</dc:date>
    <dc:format>image/svg+xml</dc:format>
    <dc:creator>
     <cc:Agent>
      <dc:title>Matplotlib v3.9.2, https://matplotlib.org/</dc:title>
     </cc:Agent>
    </dc:creator>
   </cc:Work>
  </rdf:RDF>
 </metadata>
 <defs>
  <style type="text/css">*{stroke-linejoin: round; stroke-linecap: butt}</style>
 </defs>
 <g id="figure_1">
  <g id="patch_1">
   <path d="M 0 432 
L 432 432 
L 432 0 
L 0 0 
z
" style="fill: #ffffff"/>
  </g>
  <g id="axes_1">
   <g id="line2d_1">
    <path d="M -1 392.727273 
L 433 392.727273 
" clip-path="url(#p6962eeee86)" style="fill: none; stroke-dasharray: 2,2; stroke-dashoffset: 0; stroke: #000000; stroke-width: 0.5"/>
   </g>
   <g id="line2d_2">
    <path d="M -1 353.454545 
L 433 353.454545 
" clip-path="url(#p6962eeee86)" style="fill: none; stroke-dasharray: 2,2; stroke-dashoffset: 0; stroke: #000000; stroke-width: 0.5"/>
   </g>
   <g id="line2d_3">
    <path d="M -1 314.181818 
L 433 314.181818 
" clip-path="url(#p6962eeee86)" style="fill: none; stroke-dasharray: 2,2; stroke-dashoffset: 0; stroke: #000000; stroke-width: 0.5"/>
   </g>
   <g id="line2d_4">
    <path d="M -1 274.909091 
L 433 274.909091 
" clip-path="url(#p6962eeee86)" style="fill: none; stroke-dasharray: 2,2; stroke-dashoffset: 0; stroke: #000000; stroke-width: 0.5"/>
   </g>
   <g id="line2d_5">
    <path d="M -1 235.636364 
L 433 235.636364 
" clip-path="url(#p6962eeee86)" style="fill: none; stroke-dasharray: 2,2; stroke-dashoffset: 0; stroke: #000000; stroke-width: 0.5"/>
   </g>
   <g id="line2d_6">
    <path d="M -1 196.363636 
L 433 196.363636 
" clip-path="url(#p6962eeee86)" style="fill: none; stroke-dasharray: 2,2; stroke-dashoffset: 0; stroke: #000000; stroke-width: 0.5"/>
   </g>
   <g id="line2d_7">
    <path d="M -1 157.090909 
L 433 157.090909 
" clip-path="url(#p6962eeee86)" style="fill: none; stroke-dasharray: 2,2; stroke-dashoffset: 0; stroke: #000000; stroke-width: 0.5"/>
   </g>
   <g id="line2d_8">
    <path d="M -1 117.818182 
L 433 117.818182 
" clip-path="url(#p6962eeee86)" style="fill: none; stroke-dasharray: 2,2; stroke-dashoffset: 0; stroke: #000000; stroke-width: 0.5"/>
   </g>
   <g id="line2d_9">
    <path d="M -1 78.545455 
L 433 78.545455 
" clip-path="url(#p6962eeee86)" style="fill: none; stroke-dasharray: 2,2; stroke-dashoffset: 0; stroke: #000000; stroke-width: 0.5"/>
   </g>
   <g id="line2d_10">
    <path d="M -1 39.272727 
L 433 39.272727 
" clip-path="url(#p6962eeee86)" style="fill: none; stroke-dasharray: 2,2; stroke-dashoffset: 0; stroke: #000000; stroke-width: 0.5"/>
   </g>
   <g id="line2d_11">
    <path d="M -1 -0 
L 433 -0 
" clip-path="url(#p6962eeee86)" style="fill: none; stroke-dasharray: 2,2; stroke-dashoffset: 0; stroke: #000000; stroke-width: 0.5"/>
   </g>
   <g id="line2d_12">
    <path clip-path="url(#p6962eeee86)" style="fill: none; stroke-dasharray: 2,2; stroke-dashoffset: 0; stroke: #000000; stroke-width: 0.5"/>
   </g>
   <g id="line2d_13">
    <path d="M 19.636364 392.727273 
L 19.636364 -0 
" clip-path="url(#p6962eeee86)" style="fill: none; stroke-dasharray: 2,2; stroke-dashoffset: 0; stroke: #000000; stroke-width: 0.5"/>
   </g>
   <g id="line2d_14">
    <path d="M 58.909091 392.727273 
L 58.909091 -0 
" clip-path="url(#p6962eeee86)" style="fill: none; stroke-dasharray: 2,2; stroke-dashoffset: 0; stroke: #000000; stroke-width: 0.5"/>
   </g>
   <g id="line2d_15">
    <path d="M 98.181818 392.727273 
L 98.181818 -0 
" clip-path="url(#p6962eeee86)" style="fill: none; stroke-dasharray: 2,2; stroke-dashoffset: 0; stroke: #000000; stroke-width: 0.5"/>
   </g>
   <g id="line2d_16">
    <path d="M 137.454545 392.727273 
L 137.454545 -0 
" clip-path="url(#p6962eeee86)" style="fill: none; stroke-dasharray: 2,2; stroke-dashoffset: 0; stroke: #000000; stroke-width: 0.5"/>
   </g>
   <g id="line2d_17">
    <path d="M 176.727273 392.727273 
L 176.727273 -0 
" clip-path="url(#p6962eeee86)" style="fill: none; stroke-dasharray: 2,2; stroke-dashoffset: 0; stroke: #000000; stroke-width: 0.5"/>
   </g>
   <g id="line2d_18">
    <path d="M 216 392.727273 
L 216 -0 
" clip-path="url(#p6962eeee86)" style="fill: none; stroke-dasharray: 2,2; stroke-dashoffset: 0; stroke: #000000; stroke-width: 0.5"/>
   </g>
   <g id="line2d_19">
    <path d="M 255.272727 392.727273 
L 255.272727 -0 
" clip-path="url(#p6962eeee86)" style="fill: none; stroke-dasharray: 2,2; stroke-dashoffset: 0; stroke: #000000; stroke-width: 0.5"/>
   </g>
   <g id="line2d_20">
    <path d="M 294.545455 392.727273 
L 294.545455 -0 
" clip-path="url(#p6962eeee86)" style="fill: none; stroke-dasharray: 2,2; stroke-dashoffset: 0; stroke: #000000; stroke-width: 0.5"/>
   </g>
   <g id="line2d_21">
    <path d="M 333.818182 392.727273 
L 333.818182 -0 
" clip-path="url(#p6962eeee86)" style="fill: none; stroke-dasharray: 2,2; stroke-dashoffset: 0; stroke: #000000; stroke-width: 0.5"/>
   </g>
   <g id="line2d_22">
    <path d="M 373.090909 392.727273 
L 373.090909 -0 
" clip-path="url(#p6962eeee86)" style="fill: none; stroke-dasharray: 2,2; stroke-dashoffset: 0; stroke: #000000; stroke-width: 0.5"/>
   </g>
   <g id="line2d_23">
    <path d="M 412.363636 392.727273 
L 412.363636 -0 
" clip-path="url(#p6962eeee86)" style="fill: none; stroke-dasharray: 2,2; stroke-dashoffset: 0; stroke: #000000; stroke-width: 0.5"/>
   </g>
   <g id="line2d_24">
    <path d="M 176.727273 392.727273 
L 216 392.727273 
L 255.272727 392.727273 
L 294.545455 392.727273 
L 294.545455 353.454545 
L 333.818182 353.454545 
L 333.818182 314.181818 
L 373.090909 314.181818 
L 373.090909 274.909091 
L 412.363636 274.909091 
L 412.363636 235.636364 
L 412.363636 196.363636 
" clip-path="url(#p6962eeee86)" style="fill: none; stroke: #000080; stroke-width: 1.5; stroke-linecap: square"/>
   </g>
   <g id="line2d_25">
    <path d="M 137.454545 353.454545 
L 176.727273 353.454545 
L 176.727273 314.181818 
L 176.727273 274.909091 
L 216 274.909091 
L 255.272727 274.909091 
L 255.272727 235.636364 
L 294.545455 235.636364 
L 294.545455 196.363636 
L 333.818182 196.363636 
L 373.090909 196.363636 
L 373.090909 157.090909 
" clip-path="url(#p6962eeee86)" style="fill: none; stroke: #0080ff; stroke-width: 1.5; stroke-linecap: square"/>
   </g>
   <g id="line2d_26">
    <path d="M 98.181818 314.181818 
L 98.181818 196.363636 
L 255.272727 196.363636 
L 255.272727 78.545455 
L 294.545455 78.545455 
" clip-path="url(#p6962eeee86)" style="fill: none; stroke: #7dff7a; stroke-width: 1.5; stroke-linecap: square"/>
   </g>
   <g id="line2d_27">
    <path d="M 58.909091 274.909091 
L 58.909091 235.636364 
L 137.454545 235.636364 
L 137.454545 117.818182 
L 333.818182 117.818182 
" clip-path="url(#p6962eeee86)" style="fill: none; stroke: #ff9400; stroke-width: 1.5; stroke-linecap: square"/>
   </g>
   <g id="line2d_28">
    <path d="M 19.636364 235.636364 
L 19.636364 117.818182 
L 58.909091 117.818182 
L 58.909091 78.545455 
L 98.181818 78.545455 
L 137.454545 78.545455 
L 176.727273 78.545455 
L 176.727273 39.272727 
L 255.272727 39.272727 
" clip-path="url(#p6962eeee86)" style="fill: none; stroke: #800000; stroke-width: 1.5; stroke-linecap: square"/>
   </g>
   <g id="line2d_29">
    <path d="M 176.727273 392.727273 
L 19.636364 235.636364 
" clip-path="url(#p6962eeee86)" style="fill: none; stroke-dasharray: 4,4; stroke-dashoffset: 0; stroke: #000000"/>
   </g>
   <g id="line2d_30">
    <path d="M 412.363636 196.363636 
L 255.272727 39.272727 
" clip-path="url(#p6962eeee86)" style="fill: none; stroke-dasharray: 4,4; stroke-dashoffset: 0; stroke: #000000"/>
   </g>
   <g id="line2d_31">
    <defs>
     <path id="m5be8aa60e3" d="M 0 2 
C 0.530406 2 1.03916 1.789267 1.414214 1.414214 
C 1.789267 1.03916 2 0.530406 2 0 
C 2 -0.530406 1.789267 -1.03916 1.414214 -1.414214 
C 1.03916 -1.789267 0.530406 -2 0 -2 
C -0.530406 -2 -1.03916 -1.789267 -1.414214 -1.414214 
C -1.789267 -1.03916 -2 -0.530406 -2 0 
C -2 0.530406 -1.789267 1.03916 -1.414214 1.414214 
C -1.03916 1.789267 -0.530406 2 0 2 
z
" style="stroke: #ff0000"/>
    </defs>
    <g clip-path="url(#p6962eeee86)">
     <use xlink:href="#m5be8aa60e3" x="137.454545" y="196.363636" style="fill: #ff0000; stroke: #ff0000"/>
    </g>
   </g>
   <g id="line2d_32">
    <g clip-path="url(#p6962eeee86)">
     <use xlink:href="#m5be8aa60e3" x="98.181818" y="235.636364" style="fill: #ff0000; stroke: #ff0000"/>
    </g>
   </g>
   <g id="line2d_33">
    <defs>
     <path id="m8ec6e7990d" d="M 0 5 
C 1.326016 5 2.597899 4.473168 3.535534 3.535534 
C 4.473168 2.597899 5 1.326016 5 0 
C 5 -1.326016 4.473168 -2.597899 3.535534 -3.535534 
C 2.597899 -4.473168 1.326016 -5 0 -5 
C -1.326016 -5 -2.597899 -4.473168 -3.535534 -3.535534 
C -4.473168 -2.597899 -5 -1.326016 -5 0 
C -5 1.326016 -4.473168 2.597899 -3.535534 3.535534 
C -2.597899 4.473168 -1.326016 5 0 5 
z
" style="stroke: #ff0000"/>
    </defs>
    <g clip-path="url(#p6962eeee86)">
     <use xlink:href="#m8ec6e7990d" x="255.272727" y="117.818182" style="fill: #ff0000; stroke: #ff0000"/>
    </g>
   </g>
   <g id="line2d_34">
    <defs>
     <path id="m61256c631a" d="M 0 2 
C 0.530406 2 1.03916 1.789267 1.414214 1.414214 
C 1.789267 1.03916 2 0.530406 2 0 
C 2 -0.530406 1.789267 -1.03916 1.414214 -1.414214 
C 1.03916 -1.789267 0.530406 -2 0 -2 
C -0.530406 -2 -1.03916 -1.789267 -1.414214 -1.414214 
C -1.789267 -1.03916 -2 -0.530406 -2 0 
C -2 0.530406 -1.789267 1.03916 -1.414214 1.414214 
C -1.03916 1.789267 -0.530406 2 0 2 
z
" style="stroke: #000000"/>
    </defs>
    <g clip-path="url(#p6962eeee86)">
     <use xlink:href="#m61256c631a" x="255.272727" y="117.818182" style="stroke: #000000"/>
    </g>
   </g>
   <g id="text_1">
    <!-- $A_1$ -->
    <g transform="translate(157.090909 404.509091) scale(0.13 -0.13)">
     <defs>
      <path id="CMMI12-41" d="M 1088 691 
C 864 314 646 186 339 186 
C 269 180 218 180 218 58 
C 218 24 250 0 294 0 
C 410 0 698 0 813 0 
C 998 0 1203 0 1382 0 
C 1421 0 1498 0 1498 122 
C 1498 180 1446 186 1408 186 
C 1261 186 1139 236 1139 388 
C 1139 476 1178 546 1261 685 
L 1747 1479 
L 3379 1479 
C 3386 1423 3386 1373 3392 1316 
C 3411 1152 3488 495 3488 376 
C 3488 186 3162 186 3059 186 
C 2989 186 2918 186 2918 70 
C 2918 0 2976 0 3014 0 
C 3123 0 3251 0 3360 0 
L 3725 0 
C 4115 0 4397 0 4403 0 
C 4448 0 4518 0 4518 122 
C 4518 186 4461 186 4365 186 
C 4013 186 4006 244 3987 434 
L 3597 4404 
C 3584 4531 3558 4544 3488 4544 
C 3424 4544 3386 4531 3328 4435 
L 1088 691 
z
M 1856 1664 
L 3142 3819 
L 3360 1664 
L 1856 1664 
z
" transform="scale(0.015625)"/>
      <path id="CMR17-31" d="M 1702 4058 
C 1702 4192 1696 4192 1606 4192 
C 1357 3916 979 3827 621 3827 
C 602 3827 570 3827 563 3808 
C 557 3795 557 3782 557 3648 
C 755 3648 1088 3686 1344 3839 
L 1344 461 
C 1344 236 1331 160 781 160 
L 589 160 
L 589 0 
C 896 0 1216 0 1523 0 
C 1830 0 2150 0 2458 0 
L 2458 160 
L 2266 160 
C 1715 160 1702 230 1702 458 
L 1702 4058 
z
" transform="scale(0.015625)"/>
     </defs>
     <use xlink:href="#CMMI12-41" transform="scale(0.996264)"/>
     <use xlink:href="#CMR17-31" transform="translate(73.127885 -14.943915) scale(0.697382)"/>
    </g>
   </g>
   <g id="text_2">
    <!-- $B_1$ -->
    <g transform="translate(412.363636 188.509091) scale(0.13 -0.13)">
     <defs>
      <path id="CMMI12-42" d="M 2342 3921 
C 2400 4160 2426 4160 2675 4160 
L 3507 4160 
C 4230 4160 4230 3544 4230 3485 
C 4230 2966 3712 2304 2867 2304 
L 1946 2304 
L 2342 3921 
z
M 3424 2275 
C 4122 2402 4755 2886 4755 3473 
C 4755 3970 4314 4352 3590 4352 
L 1536 4352 
C 1414 4352 1357 4352 1357 4226 
C 1357 4160 1414 4160 1510 4160 
C 1901 4160 1901 4112 1901 4044 
C 1901 4032 1901 3993 1875 3897 
L 1011 472 
C 954 249 941 185 493 185 
C 371 185 307 185 307 70 
C 307 0 346 0 474 0 
L 2669 0 
C 3648 0 4403 739 4403 1383 
C 4403 1906 3942 2224 3424 2275 
z
M 2515 185 
L 1651 185 
C 1562 185 1549 185 1510 192 
C 1440 198 1434 211 1434 261 
C 1434 305 1446 343 1459 399 
L 1907 2176 
L 3110 2176 
C 3866 2176 3866 1483 3866 1433 
C 3866 828 3309 185 2515 185 
z
" transform="scale(0.015625)"/>
     </defs>
     <use xlink:href="#CMMI12-42" transform="scale(0.996264)"/>
     <use xlink:href="#CMR17-31" transform="translate(74.10802 -14.943915) scale(0.697382)"/>
    </g>
   </g>
   <g id="text_3">
    <!-- $A_2$ -->
    <g transform="translate(117.818182 365.236364) scale(0.13 -0.13)">
     <defs>
      <path id="CMR17-32" d="M 2669 989 
L 2554 989 
C 2490 536 2438 459 2413 420 
C 2381 369 1920 369 1830 369 
L 602 369 
C 832 619 1280 1072 1824 1597 
C 2214 1967 2669 2402 2669 3035 
C 2669 3790 2067 4224 1395 4224 
C 691 4224 262 3604 262 3030 
C 262 2780 448 2748 525 2748 
C 589 2748 781 2787 781 3010 
C 781 3207 614 3264 525 3264 
C 486 3264 448 3258 422 3245 
C 544 3790 915 4058 1306 4058 
C 1862 4058 2227 3617 2227 3035 
C 2227 2479 1901 2000 1536 1584 
L 262 146 
L 262 0 
L 2515 0 
L 2669 989 
z
" transform="scale(0.015625)"/>
     </defs>
     <use xlink:href="#CMMI12-41" transform="scale(0.996264)"/>
     <use xlink:href="#CMR17-32" transform="translate(73.127885 -14.943915) scale(0.697382)"/>
    </g>
   </g>
   <g id="text_4">
    <!-- $B_2$ -->
    <g transform="translate(373.090909 149.236364) scale(0.13 -0.13)">
     <use xlink:href="#CMMI12-42" transform="scale(0.996264)"/>
     <use xlink:href="#CMR17-32" transform="translate(74.10802 -14.943915) scale(0.697382)"/>
    </g>
   </g>
   <g id="text_5">
    <!-- $A_3$ -->
    <g transform="translate(78.545455 325.963636) scale(0.13 -0.13)">
     <defs>
      <path id="CMR17-33" d="M 1414 2157 
C 1984 2157 2234 1662 2234 1090 
C 2234 320 1824 25 1453 25 
C 1114 25 563 194 390 693 
C 422 680 454 680 486 680 
C 640 680 755 782 755 948 
C 755 1133 614 1216 486 1216 
C 378 1216 211 1165 211 926 
C 211 335 787 -128 1466 -128 
C 2176 -128 2720 430 2720 1085 
C 2720 1707 2208 2157 1600 2227 
C 2086 2328 2554 2756 2554 3329 
C 2554 3820 2048 4179 1472 4179 
C 890 4179 378 3829 378 3329 
C 378 3110 544 3072 627 3072 
C 762 3072 877 3155 877 3321 
C 877 3486 762 3569 627 3569 
C 602 3569 570 3569 544 3557 
C 730 3959 1235 4032 1459 4032 
C 1683 4032 2106 3925 2106 3320 
C 2106 3143 2080 2828 1862 2550 
C 1670 2304 1453 2304 1242 2284 
C 1210 2284 1062 2269 1037 2269 
C 992 2263 966 2257 966 2208 
C 966 2163 973 2157 1101 2157 
L 1414 2157 
z
" transform="scale(0.015625)"/>
     </defs>
     <use xlink:href="#CMMI12-41" transform="scale(0.996264)"/>
     <use xlink:href="#CMR17-33" transform="translate(73.127885 -14.943915) scale(0.697382)"/>
    </g>
   </g>
   <g id="text_6">
    <!-- $B_3$ -->
    <g transform="translate(333.818182 109.963636) scale(0.13 -0.13)">
     <use xlink:href="#CMMI12-42" transform="scale(0.996264)"/>
     <use xlink:href="#CMR17-33" transform="translate(74.10802 -14.943915) scale(0.697382)"/>
    </g>
   </g>
   <g id="text_7">
    <!-- $A_4$ -->
    <g transform="translate(39.272727 286.690909) scale(0.13 -0.13)">
     <defs>
      <path id="CMR17-34" d="M 2150 4122 
C 2150 4256 2144 4256 2029 4256 
L 128 1254 
L 128 1088 
L 1779 1088 
L 1779 457 
C 1779 224 1766 160 1318 160 
L 1197 160 
L 1197 0 
C 1402 0 1747 0 1965 0 
C 2182 0 2528 0 2733 0 
L 2733 160 
L 2611 160 
C 2163 160 2150 224 2150 457 
L 2150 1088 
L 2803 1088 
L 2803 1254 
L 2150 1254 
L 2150 4122 
z
M 1798 3703 
L 1798 1254 
L 256 1254 
L 1798 3703 
z
" transform="scale(0.015625)"/>
     </defs>
     <use xlink:href="#CMMI12-41" transform="scale(0.996264)"/>
     <use xlink:href="#CMR17-34" transform="translate(73.127885 -14.943915) scale(0.697382)"/>
    </g>
   </g>
   <g id="text_8">
    <!-- $B_4$ -->
    <g transform="translate(294.545455 70.690909) scale(0.13 -0.13)">
     <use xlink:href="#CMMI12-42" transform="scale(0.996264)"/>
     <use xlink:href="#CMR17-34" transform="translate(74.10802 -14.943915) scale(0.697382)"/>
    </g>
   </g>
   <g id="text_9">
    <!-- $A_5$ -->
    <g transform="translate(0 247.418182) scale(0.13 -0.13)">
     <defs>
      <path id="CMR17-35" d="M 730 3692 
C 794 3666 1056 3584 1325 3584 
C 1920 3584 2246 3911 2432 4100 
C 2432 4157 2432 4192 2394 4192 
C 2387 4192 2374 4192 2323 4163 
C 2099 4058 1837 3973 1517 3973 
C 1325 3973 1037 3999 723 4139 
C 653 4171 640 4171 634 4171 
C 602 4171 595 4164 595 4037 
L 595 2203 
C 595 2089 595 2057 659 2057 
C 691 2057 704 2070 736 2114 
C 941 2401 1222 2522 1542 2522 
C 1766 2522 2246 2382 2246 1289 
C 2246 1085 2246 715 2054 421 
C 1894 159 1645 25 1370 25 
C 947 25 518 320 403 814 
C 429 807 480 795 506 795 
C 589 795 749 840 749 1038 
C 749 1210 627 1280 506 1280 
C 358 1280 262 1190 262 1011 
C 262 454 704 -128 1382 -128 
C 2042 -128 2669 440 2669 1264 
C 2669 2030 2170 2624 1549 2624 
C 1222 2624 947 2503 730 2274 
L 730 3692 
z
" transform="scale(0.015625)"/>
     </defs>
     <use xlink:href="#CMMI12-41" transform="scale(0.996264)"/>
     <use xlink:href="#CMR17-35" transform="translate(73.127885 -14.943915) scale(0.697382)"/>
    </g>
   </g>
   <g id="text_10">
    <!-- $B_5$ -->
    <g transform="translate(255.272727 31.418182) scale(0.13 -0.13)">
     <use xlink:href="#CMMI12-42" transform="scale(0.996264)"/>
     <use xlink:href="#CMR17-35" transform="translate(74.10802 -14.943915) scale(0.697382)"/>
    </g>
   </g>
   <g id="text_11">
    <!-- $C$ -->
    <g transform="translate(263.127273 109.963636) scale(0.15 -0.15)">
     <defs>
      <path id="CMMI12-43" d="M 4781 4423 
C 4781 4480 4736 4480 4723 4480 
C 4710 4480 4685 4480 4634 4416 
L 4192 3882 
C 3968 4264 3616 4480 3136 4480 
C 1754 4480 320 3088 320 1595 
C 320 533 1069 -128 2003 -128 
C 2515 -128 2963 88 3334 400 
C 3891 863 4058 1481 4058 1531 
C 4058 1588 4006 1588 3987 1588 
C 3930 1588 3923 1550 3910 1524 
C 3616 534 2752 57 2112 57 
C 1434 57 845 489 845 1391 
C 845 1595 909 2700 1632 3532 
C 1984 3939 2586 4295 3194 4295 
C 3898 4295 4211 3717 4211 3068 
C 4211 2903 4192 2764 4192 2738 
C 4192 2681 4256 2681 4275 2681 
C 4346 2681 4352 2687 4378 2801 
L 4781 4423 
z
" transform="scale(0.015625)"/>
     </defs>
     <use xlink:href="#CMMI12-43" transform="scale(0.996264)"/>
    </g>
   </g>
   <g id="patch_2">
    <path d="M 176.727273 396.654545 
C 177.768798 396.654545 178.767805 396.240743 179.504274 395.504274 
C 180.240743 394.767805 180.654545 393.768798 180.654545 392.727273 
C 180.654545 391.685748 180.240743 390.686741 179.504274 389.950272 
C 178.767805 389.213802 177.768798 388.8 176.727273 388.8 
C 175.685748 388.8 174.686741 389.213802 173.950272 389.950272 
C 173.213802 390.686741 172.8 391.685748 172.8 392.727273 
C 172.8 393.768798 173.213802 394.767805 173.950272 395.504274 
C 174.686741 396.240743 175.685748 396.654545 176.727273 396.654545 
z
" clip-path="url(#p6962eeee86)" style="fill: #ff8000; stroke: #000000; stroke-width: 0.5; stroke-linejoin: miter"/>
   </g>
   <g id="patch_3">
    <path d="M 412.363636 200.290909 
C 413.405161 200.290909 414.404168 199.877107 415.140638 199.140638 
C 415.877107 198.404168 416.290909 197.405161 416.290909 196.363636 
C 416.290909 195.322111 415.877107 194.323105 415.140638 193.586635 
C 414.404168 192.850166 413.405161 192.436364 412.363636 192.436364 
C 411.322111 192.436364 410.323105 192.850166 409.586635 193.586635 
C 408.850166 194.323105 408.436364 195.322111 408.436364 196.363636 
C 408.436364 197.405161 408.850166 198.404168 409.586635 199.140638 
C 410.323105 199.877107 411.322111 200.290909 412.363636 200.290909 
z
" clip-path="url(#p6962eeee86)" style="fill: #0080ff; stroke: #000000; stroke-width: 0.5; stroke-linejoin: miter"/>
   </g>
   <g id="patch_4">
    <path d="M 137.454545 357.381818 
C 138.49607 357.381818 139.495077 356.968016 140.231547 356.231547 
C 140.968016 355.495077 141.381818 354.49607 141.381818 353.454545 
C 141.381818 352.413021 140.968016 351.414014 140.231547 350.677544 
C 139.495077 349.941075 138.49607 349.527273 137.454545 349.527273 
C 136.413021 349.527273 135.414014 349.941075 134.677544 350.677544 
C 133.941075 351.414014 133.527273 352.413021 133.527273 353.454545 
C 133.527273 354.49607 133.941075 355.495077 134.677544 356.231547 
C 135.414014 356.968016 136.413021 357.381818 137.454545 357.381818 
z
" clip-path="url(#p6962eeee86)" style="fill: #ff8000; stroke: #000000; stroke-width: 0.5; stroke-linejoin: miter"/>
   </g>
   <g id="patch_5">
    <path d="M 373.090909 161.018182 
C 374.132434 161.018182 375.131441 160.60438 375.86791 159.86791 
C 376.60438 159.131441 377.018182 158.132434 377.018182 157.090909 
C 377.018182 156.049384 376.60438 155.050377 375.86791 154.313908 
C 375.131441 153.577439 374.132434 153.163636 373.090909 153.163636 
C 372.049384 153.163636 371.050377 153.577439 370.313908 154.313908 
C 369.577439 155.050377 369.163636 156.049384 369.163636 157.090909 
C 369.163636 158.132434 369.577439 159.131441 370.313908 159.86791 
C 371.050377 160.60438 372.049384 161.018182 373.090909 161.018182 
z
" clip-path="url(#p6962eeee86)" style="fill: #0080ff; stroke: #000000; stroke-width: 0.5; stroke-linejoin: miter"/>
   </g>
   <g id="patch_6">
    <path d="M 98.181818 318.109091 
C 99.223343 318.109091 100.22235 317.695289 100.958819 316.958819 
C 101.695289 316.22235 102.109091 315.223343 102.109091 314.181818 
C 102.109091 313.140293 101.695289 312.141286 100.958819 311.404817 
C 100.22235 310.668348 99.223343 310.254545 98.181818 310.254545 
C 97.140293 310.254545 96.141286 310.668348 95.404817 311.404817 
C 94.668348 312.141286 94.254545 313.140293 94.254545 314.181818 
C 94.254545 315.223343 94.668348 316.22235 95.404817 316.958819 
C 96.141286 317.695289 97.140293 318.109091 98.181818 318.109091 
z
" clip-path="url(#p6962eeee86)" style="fill: #ff8000; stroke: #000000; stroke-width: 0.5; stroke-linejoin: miter"/>
   </g>
   <g id="patch_7">
    <path d="M 333.818182 121.745455 
C 334.859707 121.745455 335.858714 121.331652 336.595183 120.595183 
C 337.331652 119.858714 337.745455 118.859707 337.745455 117.818182 
C 337.745455 116.776657 337.331652 115.77765 336.595183 115.041181 
C 335.858714 114.304711 334.859707 113.890909 333.818182 113.890909 
C 332.776657 113.890909 331.77765 114.304711 331.041181 115.041181 
C 330.304711 115.77765 329.890909 116.776657 329.890909 117.818182 
C 329.890909 118.859707 330.304711 119.858714 331.041181 120.595183 
C 331.77765 121.331652 332.776657 121.745455 333.818182 121.745455 
z
" clip-path="url(#p6962eeee86)" style="fill: #0080ff; stroke: #000000; stroke-width: 0.5; stroke-linejoin: miter"/>
   </g>
   <g id="patch_8">
    <path d="M 58.909091 278.836364 
C 59.950616 278.836364 60.949623 278.422561 61.686092 277.686092 
C 62.422561 276.949623 62.836364 275.950616 62.836364 274.909091 
C 62.836364 273.867566 62.422561 272.868559 61.686092 272.13209 
C 60.949623 271.39562 59.950616 270.981818 58.909091 270.981818 
C 57.867566 270.981818 56.868559 271.39562 56.13209 272.13209 
C 55.39562 272.868559 54.981818 273.867566 54.981818 274.909091 
C 54.981818 275.950616 55.39562 276.949623 56.13209 277.686092 
C 56.868559 278.422561 57.867566 278.836364 58.909091 278.836364 
z
" clip-path="url(#p6962eeee86)" style="fill: #ff8000; stroke: #000000; stroke-width: 0.5; stroke-linejoin: miter"/>
   </g>
   <g id="patch_9">
    <path d="M 294.545455 82.472727 
C 295.586979 82.472727 296.585986 82.058925 297.322456 81.322456 
C 298.058925 80.585986 298.472727 79.586979 298.472727 78.545455 
C 298.472727 77.50393 298.058925 76.504923 297.322456 75.768453 
C 296.585986 75.031984 295.586979 74.618182 294.545455 74.618182 
C 293.50393 74.618182 292.504923 75.031984 291.768453 75.768453 
C 291.031984 76.504923 290.618182 77.50393 290.618182 78.545455 
C 290.618182 79.586979 291.031984 80.585986 291.768453 81.322456 
C 292.504923 82.058925 293.50393 82.472727 294.545455 82.472727 
z
" clip-path="url(#p6962eeee86)" style="fill: #0080ff; stroke: #000000; stroke-width: 0.5; stroke-linejoin: miter"/>
   </g>
   <g id="patch_10">
    <path d="M 19.636364 239.563636 
C 20.677889 239.563636 21.676895 239.149834 22.413365 238.413365 
C 23.149834 237.676895 23.563636 236.677889 23.563636 235.636364 
C 23.563636 234.594839 23.149834 233.595832 22.413365 232.859362 
C 21.676895 232.122893 20.677889 231.709091 19.636364 231.709091 
C 18.594839 231.709091 17.595832 232.122893 16.859362 232.859362 
C 16.122893 233.595832 15.709091 234.594839 15.709091 235.636364 
C 15.709091 236.677889 16.122893 237.676895 16.859362 238.413365 
C 17.595832 239.149834 18.594839 239.563636 19.636364 239.563636 
z
" clip-path="url(#p6962eeee86)" style="fill: #ff8000; stroke: #000000; stroke-width: 0.5; stroke-linejoin: miter"/>
   </g>
   <g id="patch_11">
    <path d="M 255.272727 43.2 
C 256.314252 43.2 257.313259 42.786198 258.049728 42.049728 
C 258.786198 41.313259 259.2 40.314252 259.2 39.272727 
C 259.2 38.231202 258.786198 37.232195 258.049728 36.495726 
C 257.313259 35.759257 256.314252 35.345455 255.272727 35.345455 
C 254.231202 35.345455 253.232195 35.759257 252.495726 36.495726 
C 251.759257 37.232195 251.345455 38.231202 251.345455 39.272727 
C 251.345455 40.314252 251.759257 41.313259 252.495726 42.049728 
C 253.232195 42.786198 254.231202 43.2 255.272727 43.2 
z
" clip-path="url(#p6962eeee86)" style="fill: #0080ff; stroke: #000000; stroke-width: 0.5; stroke-linejoin: miter"/>
   </g>
  </g>
 </g>
 <defs>
  <clipPath id="p6962eeee86">
   <rect x="0" y="19.636364" width="432" height="392.727273"/>
  </clipPath>
 </defs>
</svg>
