<?xml version="1.0" encoding="utf-8" standalone="no"?>
<!DOCTYPE svg PUBLIC "-//W3C//DTD SVG 1.1//EN"
  "http://www.w3.org/Graphics/SVG/1.1/DTD/svg11.dtd">
<svg xmlns:xlink="http://www.w3.org/1999/xlink" width="432pt" height="432pt" viewBox="0 0 432 432" xmlns="http://www.w3.org/2000/svg" version="1.1">
 <metadata>
  <rdf:RDF xmlns:dc="http://purl.org/dc/elements/1.1/" xmlns:cc="http://creativecommons.org/ns#" xmlns:rdf="http://www.w3.org/1999/02/22-rdf-syntax-ns#">
   <cc:Work>
    <dc:type rdf:resource="http://purl.org/dc/dcmitype/StillImage"/>
    <dc:date>2023-12-21T09:29:09.207240</dc:date>
    <dc:format>image/svg+xml</dc:format>
    <dc:creator>
     <cc:Agent>
      <dc:title>Matplotlib v3.7.1, https://matplotlib.org/</dc:title>
     </cc:Agent>
    </dc:creator>
   </cc:Work>
  </rdf:RDF>
 </metadata>
 <defs>
  <style type="text/css">*{stroke-linejoin: round; stroke-linecap: butt}</style>
 </defs>
 <g id="figure_1">
  <g id="patch_1">
   <path d="M 0 432 
L 432 432 
L 432 0 
L 0 0 
z
" style="fill: #ffffff"/>
  </g>
  <g id="axes_1">
   <g id="line2d_1">
    <path d="M -1 387 
L 433 387 
" clip-path="url(#p61b682e387)" style="fill: none; stroke-dasharray: 2,2; stroke-dashoffset: 0; stroke: #000000; stroke-width: 0.5"/>
   </g>
   <g id="line2d_2">
    <path d="M -1 351 
L 433 351 
" clip-path="url(#p61b682e387)" style="fill: none; stroke-dasharray: 2,2; stroke-dashoffset: 0; stroke: #000000; stroke-width: 0.5"/>
   </g>
   <g id="line2d_3">
    <path d="M -1 315 
L 433 315 
" clip-path="url(#p61b682e387)" style="fill: none; stroke-dasharray: 2,2; stroke-dashoffset: 0; stroke: #000000; stroke-width: 0.5"/>
   </g>
   <g id="line2d_4">
    <path d="M -1 279 
L 433 279 
" clip-path="url(#p61b682e387)" style="fill: none; stroke-dasharray: 2,2; stroke-dashoffset: 0; stroke: #000000; stroke-width: 0.5"/>
   </g>
   <g id="line2d_5">
    <path d="M -1 243 
L 433 243 
" clip-path="url(#p61b682e387)" style="fill: none; stroke-dasharray: 2,2; stroke-dashoffset: 0; stroke: #000000; stroke-width: 0.5"/>
   </g>
   <g id="line2d_6">
    <path d="M -1 207 
L 433 207 
" clip-path="url(#p61b682e387)" style="fill: none; stroke-dasharray: 2,2; stroke-dashoffset: 0; stroke: #000000; stroke-width: 0.5"/>
   </g>
   <g id="line2d_7">
    <path d="M -1 171 
L 433 171 
" clip-path="url(#p61b682e387)" style="fill: none; stroke-dasharray: 2,2; stroke-dashoffset: 0; stroke: #000000; stroke-width: 0.5"/>
   </g>
   <g id="line2d_8">
    <path d="M -1 135 
L 433 135 
" clip-path="url(#p61b682e387)" style="fill: none; stroke-dasharray: 2,2; stroke-dashoffset: 0; stroke: #000000; stroke-width: 0.5"/>
   </g>
   <g id="line2d_9">
    <path d="M -1 99 
L 433 99 
" clip-path="url(#p61b682e387)" style="fill: none; stroke-dasharray: 2,2; stroke-dashoffset: 0; stroke: #000000; stroke-width: 0.5"/>
   </g>
   <g id="line2d_10">
    <path d="M -1 63 
L 433 63 
" clip-path="url(#p61b682e387)" style="fill: none; stroke-dasharray: 2,2; stroke-dashoffset: 0; stroke: #000000; stroke-width: 0.5"/>
   </g>
   <g id="line2d_11">
    <path d="M -1 27 
L 433 27 
" clip-path="url(#p61b682e387)" style="fill: none; stroke-dasharray: 2,2; stroke-dashoffset: 0; stroke: #000000; stroke-width: 0.5"/>
   </g>
   <g id="line2d_12">
    <path d="M 18 387 
L 18 27 
" clip-path="url(#p61b682e387)" style="fill: none; stroke-dasharray: 2,2; stroke-dashoffset: 0; stroke: #000000; stroke-width: 0.5"/>
   </g>
   <g id="line2d_13">
    <path d="M 54 387 
L 54 27 
" clip-path="url(#p61b682e387)" style="fill: none; stroke-dasharray: 2,2; stroke-dashoffset: 0; stroke: #000000; stroke-width: 0.5"/>
   </g>
   <g id="line2d_14">
    <path d="M 90 387 
L 90 27 
" clip-path="url(#p61b682e387)" style="fill: none; stroke-dasharray: 2,2; stroke-dashoffset: 0; stroke: #000000; stroke-width: 0.5"/>
   </g>
   <g id="line2d_15">
    <path d="M 126 387 
L 126 27 
" clip-path="url(#p61b682e387)" style="fill: none; stroke-dasharray: 2,2; stroke-dashoffset: 0; stroke: #000000; stroke-width: 0.5"/>
   </g>
   <g id="line2d_16">
    <path d="M 162 387 
L 162 27 
" clip-path="url(#p61b682e387)" style="fill: none; stroke-dasharray: 2,2; stroke-dashoffset: 0; stroke: #000000; stroke-width: 0.5"/>
   </g>
   <g id="line2d_17">
    <path d="M 198 387 
L 198 27 
" clip-path="url(#p61b682e387)" style="fill: none; stroke-dasharray: 2,2; stroke-dashoffset: 0; stroke: #000000; stroke-width: 0.5"/>
   </g>
   <g id="line2d_18">
    <path d="M 234 387 
L 234 27 
" clip-path="url(#p61b682e387)" style="fill: none; stroke-dasharray: 2,2; stroke-dashoffset: 0; stroke: #000000; stroke-width: 0.5"/>
   </g>
   <g id="line2d_19">
    <path d="M 270 387 
L 270 27 
" clip-path="url(#p61b682e387)" style="fill: none; stroke-dasharray: 2,2; stroke-dashoffset: 0; stroke: #000000; stroke-width: 0.5"/>
   </g>
   <g id="line2d_20">
    <path d="M 306 387 
L 306 27 
" clip-path="url(#p61b682e387)" style="fill: none; stroke-dasharray: 2,2; stroke-dashoffset: 0; stroke: #000000; stroke-width: 0.5"/>
   </g>
   <g id="line2d_21">
    <path d="M 342 387 
L 342 27 
" clip-path="url(#p61b682e387)" style="fill: none; stroke-dasharray: 2,2; stroke-dashoffset: 0; stroke: #000000; stroke-width: 0.5"/>
   </g>
   <g id="line2d_22">
    <path d="M 378 387 
L 378 27 
" clip-path="url(#p61b682e387)" style="fill: none; stroke-dasharray: 2,2; stroke-dashoffset: 0; stroke: #000000; stroke-width: 0.5"/>
   </g>
   <g id="line2d_23">
    <path d="M 414 387 
L 414 27 
" clip-path="url(#p61b682e387)" style="fill: none; stroke-dasharray: 2,2; stroke-dashoffset: 0; stroke: #000000; stroke-width: 0.5"/>
   </g>
   <g id="line2d_24">
    <path d="M 198 387 
L 234 387 
L 270 387 
L 306 387 
L 306 351 
L 342 351 
L 342 315 
L 378 315 
L 378 279 
L 414 279 
L 414 243 
L 414 207 
" clip-path="url(#p61b682e387)" style="fill: none; stroke: #000080; stroke-width: 2; stroke-linecap: square"/>
   </g>
   <g id="line2d_25">
    <path d="M 162 351 
L 198 351 
L 198 315 
L 198 279 
L 234 279 
L 270 279 
L 270 243 
L 306 243 
L 306 207 
L 342 207 
L 378 207 
L 378 171 
" clip-path="url(#p61b682e387)" style="fill: none; stroke: #0080ff; stroke-width: 2; stroke-linecap: square"/>
   </g>
   <g id="line2d_26">
    <path d="M 126 315 
L 126 207 
L 270 207 
L 270 99 
L 306 99 
" clip-path="url(#p61b682e387)" style="fill: none; stroke: #7dff7a; stroke-width: 2; stroke-linecap: square"/>
   </g>
   <g id="line2d_27">
    <path d="M 90 279 
L 90 243 
L 162 243 
L 162 135 
L 342 135 
" clip-path="url(#p61b682e387)" style="fill: none; stroke: #ff9400; stroke-width: 2; stroke-linecap: square"/>
   </g>
   <g id="line2d_28">
    <path d="M 54 243 
L 54 135 
L 90 135 
L 90 99 
L 126 99 
L 162 99 
L 198 99 
L 198 63 
L 270 63 
" clip-path="url(#p61b682e387)" style="fill: none; stroke: #800000; stroke-width: 2; stroke-linecap: square"/>
   </g>
   <g id="line2d_29">
    <path d="M 198 387 
L 54 243 
" clip-path="url(#p61b682e387)" style="fill: none; stroke-dasharray: 4,4; stroke-dashoffset: 0; stroke: #000000"/>
   </g>
   <g id="line2d_30">
    <path d="M 414 207 
L 270 63 
" clip-path="url(#p61b682e387)" style="fill: none; stroke-dasharray: 4,4; stroke-dashoffset: 0; stroke: #000000"/>
   </g>
   <g id="line2d_31">
    <defs>
     <path id="m790ee130a5" d="M 0 2 
C 0.530406 2 1.03916 1.789267 1.414214 1.414214 
C 1.789267 1.03916 2 0.530406 2 0 
C 2 -0.530406 1.789267 -1.03916 1.414214 -1.414214 
C 1.03916 -1.789267 0.530406 -2 0 -2 
C -0.530406 -2 -1.03916 -1.789267 -1.414214 -1.414214 
C -1.789267 -1.03916 -2 -0.530406 -2 0 
C -2 0.530406 -1.789267 1.03916 -1.414214 1.414214 
C -1.03916 1.789267 -0.530406 2 0 2 
z
" style="stroke: #ff0000"/>
    </defs>
    <g clip-path="url(#p61b682e387)">
     <use xlink:href="#m790ee130a5" x="162" y="207" style="fill: #ff0000; stroke: #ff0000"/>
    </g>
   </g>
   <g id="line2d_32">
    <g clip-path="url(#p61b682e387)">
     <use xlink:href="#m790ee130a5" x="126" y="243" style="fill: #ff0000; stroke: #ff0000"/>
    </g>
   </g>
   <g id="line2d_33">
    <defs>
     <path id="m27381ab853" d="M 0 5 
C 1.326016 5 2.597899 4.473168 3.535534 3.535534 
C 4.473168 2.597899 5 1.326016 5 0 
C 5 -1.326016 4.473168 -2.597899 3.535534 -3.535534 
C 2.597899 -4.473168 1.326016 -5 0 -5 
C -1.326016 -5 -2.597899 -4.473168 -3.535534 -3.535534 
C -4.473168 -2.597899 -5 -1.326016 -5 0 
C -5 1.326016 -4.473168 2.597899 -3.535534 3.535534 
C -2.597899 4.473168 -1.326016 5 0 5 
z
" style="stroke: #ff0000"/>
    </defs>
    <g clip-path="url(#p61b682e387)">
     <use xlink:href="#m27381ab853" x="270" y="135" style="fill: #ff0000; stroke: #ff0000"/>
    </g>
   </g>
   <g id="line2d_34">
    <defs>
     <path id="mf8e8c97ad9" d="M 0 2 
C 0.530406 2 1.03916 1.789267 1.414214 1.414214 
C 1.789267 1.03916 2 0.530406 2 0 
C 2 -0.530406 1.789267 -1.03916 1.414214 -1.414214 
C 1.03916 -1.789267 0.530406 -2 0 -2 
C -0.530406 -2 -1.03916 -1.789267 -1.414214 -1.414214 
C -1.789267 -1.03916 -2 -0.530406 -2 0 
C -2 0.530406 -1.789267 1.03916 -1.414214 1.414214 
C -1.03916 1.789267 -0.530406 2 0 2 
z
" style="stroke: #000000"/>
    </defs>
    <g clip-path="url(#p61b682e387)">
     <use xlink:href="#mf8e8c97ad9" x="270" y="135" style="stroke: #000000"/>
    </g>
   </g>
   <g id="text_1">
    <!-- $A_1$ -->
    <g transform="translate(180 397.8) scale(0.13 -0.13)">
     <defs>
      <path id="CMMI12-41" d="M 1088 691 
C 864 314 646 186 339 186 
C 269 180 218 180 218 58 
C 218 24 250 0 294 0 
C 410 0 698 0 813 0 
C 998 0 1203 0 1382 0 
C 1421 0 1498 0 1498 122 
C 1498 180 1446 186 1408 186 
C 1261 186 1139 236 1139 388 
C 1139 476 1178 546 1261 685 
L 1747 1479 
L 3379 1479 
C 3386 1423 3386 1373 3392 1316 
C 3411 1152 3488 495 3488 376 
C 3488 186 3162 186 3059 186 
C 2989 186 2918 186 2918 70 
C 2918 0 2976 0 3014 0 
C 3123 0 3251 0 3360 0 
L 3725 0 
C 4115 0 4397 0 4403 0 
C 4448 0 4518 0 4518 122 
C 4518 186 4461 186 4365 186 
C 4013 186 4006 244 3987 434 
L 3597 4404 
C 3584 4531 3558 4544 3488 4544 
C 3424 4544 3386 4531 3328 4435 
L 1088 691 
z
M 1856 1664 
L 3142 3819 
L 3360 1664 
L 1856 1664 
z
" transform="scale(0.015625)"/>
      <path id="CMR17-31" d="M 1702 4058 
C 1702 4192 1696 4192 1606 4192 
C 1357 3916 979 3827 621 3827 
C 602 3827 570 3827 563 3808 
C 557 3795 557 3782 557 3648 
C 755 3648 1088 3686 1344 3839 
L 1344 461 
C 1344 236 1331 160 781 160 
L 589 160 
L 589 0 
C 896 0 1216 0 1523 0 
C 1830 0 2150 0 2458 0 
L 2458 160 
L 2266 160 
C 1715 160 1702 230 1702 458 
L 1702 4058 
z
" transform="scale(0.015625)"/>
     </defs>
     <use xlink:href="#CMMI12-41" transform="scale(0.996264)"/>
     <use xlink:href="#CMR17-31" transform="translate(73.127885 -14.943915) scale(0.697382)"/>
    </g>
   </g>
   <g id="text_2">
    <!-- $B_1$ -->
    <g transform="translate(414 199.8) scale(0.13 -0.13)">
     <defs>
      <path id="CMMI12-42" d="M 2342 3921 
C 2400 4160 2426 4160 2675 4160 
L 3507 4160 
C 4230 4160 4230 3544 4230 3485 
C 4230 2966 3712 2304 2867 2304 
L 1946 2304 
L 2342 3921 
z
M 3424 2275 
C 4122 2402 4755 2886 4755 3473 
C 4755 3970 4314 4352 3590 4352 
L 1536 4352 
C 1414 4352 1357 4352 1357 4226 
C 1357 4160 1414 4160 1510 4160 
C 1901 4160 1901 4112 1901 4044 
C 1901 4032 1901 3993 1875 3897 
L 1011 472 
C 954 249 941 185 493 185 
C 371 185 307 185 307 70 
C 307 0 346 0 474 0 
L 2669 0 
C 3648 0 4403 739 4403 1383 
C 4403 1906 3942 2224 3424 2275 
z
M 2515 185 
L 1651 185 
C 1562 185 1549 185 1510 192 
C 1440 198 1434 211 1434 261 
C 1434 305 1446 343 1459 399 
L 1907 2176 
L 3110 2176 
C 3866 2176 3866 1483 3866 1433 
C 3866 828 3309 185 2515 185 
z
" transform="scale(0.015625)"/>
     </defs>
     <use xlink:href="#CMMI12-42" transform="scale(0.996264)"/>
     <use xlink:href="#CMR17-31" transform="translate(74.10802 -14.943915) scale(0.697382)"/>
    </g>
   </g>
   <g id="text_3">
    <!-- $A_2$ -->
    <g transform="translate(144 361.8) scale(0.13 -0.13)">
     <defs>
      <path id="CMR17-32" d="M 2669 989 
L 2554 989 
C 2490 536 2438 459 2413 420 
C 2381 369 1920 369 1830 369 
L 602 369 
C 832 619 1280 1072 1824 1597 
C 2214 1967 2669 2402 2669 3035 
C 2669 3790 2067 4224 1395 4224 
C 691 4224 262 3604 262 3030 
C 262 2780 448 2748 525 2748 
C 589 2748 781 2787 781 3010 
C 781 3207 614 3264 525 3264 
C 486 3264 448 3258 422 3245 
C 544 3790 915 4058 1306 4058 
C 1862 4058 2227 3617 2227 3035 
C 2227 2479 1901 2000 1536 1584 
L 262 146 
L 262 0 
L 2515 0 
L 2669 989 
z
" transform="scale(0.015625)"/>
     </defs>
     <use xlink:href="#CMMI12-41" transform="scale(0.996264)"/>
     <use xlink:href="#CMR17-32" transform="translate(73.127885 -14.943915) scale(0.697382)"/>
    </g>
   </g>
   <g id="text_4">
    <!-- $B_2$ -->
    <g transform="translate(378 163.8) scale(0.13 -0.13)">
     <use xlink:href="#CMMI12-42" transform="scale(0.996264)"/>
     <use xlink:href="#CMR17-32" transform="translate(74.10802 -14.943915) scale(0.697382)"/>
    </g>
   </g>
   <g id="text_5">
    <!-- $A_3$ -->
    <g transform="translate(108 325.8) scale(0.13 -0.13)">
     <defs>
      <path id="CMR17-33" d="M 1414 2157 
C 1984 2157 2234 1662 2234 1090 
C 2234 320 1824 25 1453 25 
C 1114 25 563 194 390 693 
C 422 680 454 680 486 680 
C 640 680 755 782 755 948 
C 755 1133 614 1216 486 1216 
C 378 1216 211 1165 211 926 
C 211 335 787 -128 1466 -128 
C 2176 -128 2720 430 2720 1085 
C 2720 1707 2208 2157 1600 2227 
C 2086 2328 2554 2756 2554 3329 
C 2554 3820 2048 4179 1472 4179 
C 890 4179 378 3829 378 3329 
C 378 3110 544 3072 627 3072 
C 762 3072 877 3155 877 3321 
C 877 3486 762 3569 627 3569 
C 602 3569 570 3569 544 3557 
C 730 3959 1235 4032 1459 4032 
C 1683 4032 2106 3925 2106 3320 
C 2106 3143 2080 2828 1862 2550 
C 1670 2304 1453 2304 1242 2284 
C 1210 2284 1062 2269 1037 2269 
C 992 2263 966 2257 966 2208 
C 966 2163 973 2157 1101 2157 
L 1414 2157 
z
" transform="scale(0.015625)"/>
     </defs>
     <use xlink:href="#CMMI12-41" transform="scale(0.996264)"/>
     <use xlink:href="#CMR17-33" transform="translate(73.127885 -14.943915) scale(0.697382)"/>
    </g>
   </g>
   <g id="text_6">
    <!-- $B_3$ -->
    <g transform="translate(342 127.8) scale(0.13 -0.13)">
     <use xlink:href="#CMMI12-42" transform="scale(0.996264)"/>
     <use xlink:href="#CMR17-33" transform="translate(74.10802 -14.943915) scale(0.697382)"/>
    </g>
   </g>
   <g id="text_7">
    <!-- $A_4$ -->
    <g transform="translate(72 289.8) scale(0.13 -0.13)">
     <defs>
      <path id="CMR17-34" d="M 2150 4122 
C 2150 4256 2144 4256 2029 4256 
L 128 1254 
L 128 1088 
L 1779 1088 
L 1779 457 
C 1779 224 1766 160 1318 160 
L 1197 160 
L 1197 0 
C 1402 0 1747 0 1965 0 
C 2182 0 2528 0 2733 0 
L 2733 160 
L 2611 160 
C 2163 160 2150 224 2150 457 
L 2150 1088 
L 2803 1088 
L 2803 1254 
L 2150 1254 
L 2150 4122 
z
M 1798 3703 
L 1798 1254 
L 256 1254 
L 1798 3703 
z
" transform="scale(0.015625)"/>
     </defs>
     <use xlink:href="#CMMI12-41" transform="scale(0.996264)"/>
     <use xlink:href="#CMR17-34" transform="translate(73.127885 -14.943915) scale(0.697382)"/>
    </g>
   </g>
   <g id="text_8">
    <!-- $B_4$ -->
    <g transform="translate(306 91.8) scale(0.13 -0.13)">
     <use xlink:href="#CMMI12-42" transform="scale(0.996264)"/>
     <use xlink:href="#CMR17-34" transform="translate(74.10802 -14.943915) scale(0.697382)"/>
    </g>
   </g>
   <g id="text_9">
    <!-- $A_5$ -->
    <g transform="translate(36 253.8) scale(0.13 -0.13)">
     <defs>
      <path id="CMR17-35" d="M 730 3692 
C 794 3666 1056 3584 1325 3584 
C 1920 3584 2246 3911 2432 4100 
C 2432 4157 2432 4192 2394 4192 
C 2387 4192 2374 4192 2323 4163 
C 2099 4058 1837 3973 1517 3973 
C 1325 3973 1037 3999 723 4139 
C 653 4171 640 4171 634 4171 
C 602 4171 595 4164 595 4037 
L 595 2203 
C 595 2089 595 2057 659 2057 
C 691 2057 704 2070 736 2114 
C 941 2401 1222 2522 1542 2522 
C 1766 2522 2246 2382 2246 1289 
C 2246 1085 2246 715 2054 421 
C 1894 159 1645 25 1370 25 
C 947 25 518 320 403 814 
C 429 807 480 795 506 795 
C 589 795 749 840 749 1038 
C 749 1210 627 1280 506 1280 
C 358 1280 262 1190 262 1011 
C 262 454 704 -128 1382 -128 
C 2042 -128 2669 440 2669 1264 
C 2669 2030 2170 2624 1549 2624 
C 1222 2624 947 2503 730 2274 
L 730 3692 
z
" transform="scale(0.015625)"/>
     </defs>
     <use xlink:href="#CMMI12-41" transform="scale(0.996264)"/>
     <use xlink:href="#CMR17-35" transform="translate(73.127885 -14.943915) scale(0.697382)"/>
    </g>
   </g>
   <g id="text_10">
    <!-- $B_5$ -->
    <g transform="translate(270 55.8) scale(0.13 -0.13)">
     <use xlink:href="#CMMI12-42" transform="scale(0.996264)"/>
     <use xlink:href="#CMR17-35" transform="translate(74.10802 -14.943915) scale(0.697382)"/>
    </g>
   </g>
   <g id="text_11">
    <!-- $C$ -->
    <g transform="translate(277.2 127.8) scale(0.15 -0.15)">
     <defs>
      <path id="CMMI12-43" d="M 4781 4423 
C 4781 4480 4736 4480 4723 4480 
C 4710 4480 4685 4480 4634 4416 
L 4192 3882 
C 3968 4264 3616 4480 3136 4480 
C 1754 4480 320 3088 320 1595 
C 320 533 1069 -128 2003 -128 
C 2515 -128 2963 88 3334 400 
C 3891 863 4058 1481 4058 1531 
C 4058 1588 4006 1588 3987 1588 
C 3930 1588 3923 1550 3910 1524 
C 3616 534 2752 57 2112 57 
C 1434 57 845 489 845 1391 
C 845 1595 909 2700 1632 3532 
C 1984 3939 2586 4295 3194 4295 
C 3898 4295 4211 3717 4211 3068 
C 4211 2903 4192 2764 4192 2738 
C 4192 2681 4256 2681 4275 2681 
C 4346 2681 4352 2687 4378 2801 
L 4781 4423 
z
" transform="scale(0.015625)"/>
     </defs>
     <use xlink:href="#CMMI12-43" transform="scale(0.996264)"/>
    </g>
   </g>
   <g id="patch_2">
    <path d="M 198 390.6 
C 198.954731 390.6 199.870488 390.220681 200.545584 389.545584 
C 201.220681 388.870488 201.6 387.954731 201.6 387 
C 201.6 386.045269 201.220681 385.129512 200.545584 384.454416 
C 199.870488 383.779319 198.954731 383.4 198 383.4 
C 197.045269 383.4 196.129512 383.779319 195.454416 384.454416 
C 194.779319 385.129512 194.4 386.045269 194.4 387 
C 194.4 387.954731 194.779319 388.870488 195.454416 389.545584 
C 196.129512 390.220681 197.045269 390.6 198 390.6 
z
" clip-path="url(#p61b682e387)" style="fill: #ff8000; stroke: #000000; stroke-width: 0.5; stroke-linejoin: miter"/>
   </g>
   <g id="patch_3">
    <path d="M 414 210.6 
C 414.954731 210.6 415.870488 210.220681 416.545584 209.545584 
C 417.220681 208.870488 417.6 207.954731 417.6 207 
C 417.6 206.045269 417.220681 205.129512 416.545584 204.454416 
C 415.870488 203.779319 414.954731 203.4 414 203.4 
C 413.045269 203.4 412.129512 203.779319 411.454416 204.454416 
C 410.779319 205.129512 410.4 206.045269 410.4 207 
C 410.4 207.954731 410.779319 208.870488 411.454416 209.545584 
C 412.129512 210.220681 413.045269 210.6 414 210.6 
z
" clip-path="url(#p61b682e387)" style="fill: #0080ff; stroke: #000000; stroke-width: 0.5; stroke-linejoin: miter"/>
   </g>
   <g id="patch_4">
    <path d="M 162 354.6 
C 162.954731 354.6 163.870488 354.220681 164.545584 353.545584 
C 165.220681 352.870488 165.6 351.954731 165.6 351 
C 165.6 350.045269 165.220681 349.129512 164.545584 348.454416 
C 163.870488 347.779319 162.954731 347.4 162 347.4 
C 161.045269 347.4 160.129512 347.779319 159.454416 348.454416 
C 158.779319 349.129512 158.4 350.045269 158.4 351 
C 158.4 351.954731 158.779319 352.870488 159.454416 353.545584 
C 160.129512 354.220681 161.045269 354.6 162 354.6 
z
" clip-path="url(#p61b682e387)" style="fill: #ff8000; stroke: #000000; stroke-width: 0.5; stroke-linejoin: miter"/>
   </g>
   <g id="patch_5">
    <path d="M 378 174.6 
C 378.954731 174.6 379.870488 174.220681 380.545584 173.545584 
C 381.220681 172.870488 381.6 171.954731 381.6 171 
C 381.6 170.045269 381.220681 169.129512 380.545584 168.454416 
C 379.870488 167.779319 378.954731 167.4 378 167.4 
C 377.045269 167.4 376.129512 167.779319 375.454416 168.454416 
C 374.779319 169.129512 374.4 170.045269 374.4 171 
C 374.4 171.954731 374.779319 172.870488 375.454416 173.545584 
C 376.129512 174.220681 377.045269 174.6 378 174.6 
z
" clip-path="url(#p61b682e387)" style="fill: #0080ff; stroke: #000000; stroke-width: 0.5; stroke-linejoin: miter"/>
   </g>
   <g id="patch_6">
    <path d="M 126 318.6 
C 126.954731 318.6 127.870488 318.220681 128.545584 317.545584 
C 129.220681 316.870488 129.6 315.954731 129.6 315 
C 129.6 314.045269 129.220681 313.129512 128.545584 312.454416 
C 127.870488 311.779319 126.954731 311.4 126 311.4 
C 125.045269 311.4 124.129512 311.779319 123.454416 312.454416 
C 122.779319 313.129512 122.4 314.045269 122.4 315 
C 122.4 315.954731 122.779319 316.870488 123.454416 317.545584 
C 124.129512 318.220681 125.045269 318.6 126 318.6 
z
" clip-path="url(#p61b682e387)" style="fill: #ff8000; stroke: #000000; stroke-width: 0.5; stroke-linejoin: miter"/>
   </g>
   <g id="patch_7">
    <path d="M 342 138.6 
C 342.954731 138.6 343.870488 138.220681 344.545584 137.545584 
C 345.220681 136.870488 345.6 135.954731 345.6 135 
C 345.6 134.045269 345.220681 133.129512 344.545584 132.454416 
C 343.870488 131.779319 342.954731 131.4 342 131.4 
C 341.045269 131.4 340.129512 131.779319 339.454416 132.454416 
C 338.779319 133.129512 338.4 134.045269 338.4 135 
C 338.4 135.954731 338.779319 136.870488 339.454416 137.545584 
C 340.129512 138.220681 341.045269 138.6 342 138.6 
z
" clip-path="url(#p61b682e387)" style="fill: #0080ff; stroke: #000000; stroke-width: 0.5; stroke-linejoin: miter"/>
   </g>
   <g id="patch_8">
    <path d="M 90 282.6 
C 90.954731 282.6 91.870488 282.220681 92.545584 281.545584 
C 93.220681 280.870488 93.6 279.954731 93.6 279 
C 93.6 278.045269 93.220681 277.129512 92.545584 276.454416 
C 91.870488 275.779319 90.954731 275.4 90 275.4 
C 89.045269 275.4 88.129512 275.779319 87.454416 276.454416 
C 86.779319 277.129512 86.4 278.045269 86.4 279 
C 86.4 279.954731 86.779319 280.870488 87.454416 281.545584 
C 88.129512 282.220681 89.045269 282.6 90 282.6 
z
" clip-path="url(#p61b682e387)" style="fill: #ff8000; stroke: #000000; stroke-width: 0.5; stroke-linejoin: miter"/>
   </g>
   <g id="patch_9">
    <path d="M 306 102.6 
C 306.954731 102.6 307.870488 102.220681 308.545584 101.545584 
C 309.220681 100.870488 309.6 99.954731 309.6 99 
C 309.6 98.045269 309.220681 97.129512 308.545584 96.454416 
C 307.870488 95.779319 306.954731 95.4 306 95.4 
C 305.045269 95.4 304.129512 95.779319 303.454416 96.454416 
C 302.779319 97.129512 302.4 98.045269 302.4 99 
C 302.4 99.954731 302.779319 100.870488 303.454416 101.545584 
C 304.129512 102.220681 305.045269 102.6 306 102.6 
z
" clip-path="url(#p61b682e387)" style="fill: #0080ff; stroke: #000000; stroke-width: 0.5; stroke-linejoin: miter"/>
   </g>
   <g id="patch_10">
    <path d="M 54 246.6 
C 54.954731 246.6 55.870488 246.220681 56.545584 245.545584 
C 57.220681 244.870488 57.6 243.954731 57.6 243 
C 57.6 242.045269 57.220681 241.129512 56.545584 240.454416 
C 55.870488 239.779319 54.954731 239.4 54 239.4 
C 53.045269 239.4 52.129512 239.779319 51.454416 240.454416 
C 50.779319 241.129512 50.4 242.045269 50.4 243 
C 50.4 243.954731 50.779319 244.870488 51.454416 245.545584 
C 52.129512 246.220681 53.045269 246.6 54 246.6 
z
" clip-path="url(#p61b682e387)" style="fill: #ff8000; stroke: #000000; stroke-width: 0.5; stroke-linejoin: miter"/>
   </g>
   <g id="patch_11">
    <path d="M 270 66.6 
C 270.954731 66.6 271.870488 66.220681 272.545584 65.545584 
C 273.220681 64.870488 273.6 63.954731 273.6 63 
C 273.6 62.045269 273.220681 61.129512 272.545584 60.454416 
C 271.870488 59.779319 270.954731 59.4 270 59.4 
C 269.045269 59.4 268.129512 59.779319 267.454416 60.454416 
C 266.779319 61.129512 266.4 62.045269 266.4 63 
C 266.4 63.954731 266.779319 64.870488 267.454416 65.545584 
C 268.129512 66.220681 269.045269 66.6 270 66.6 
z
" clip-path="url(#p61b682e387)" style="fill: #0080ff; stroke: #000000; stroke-width: 0.5; stroke-linejoin: miter"/>
   </g>
  </g>
 </g>
 <defs>
  <clipPath id="p61b682e387">
   <rect x="0" y="27" width="432" height="378"/>
  </clipPath>
 </defs>
</svg>
