<?xml version="1.0" encoding="utf-8" standalone="no"?>
<!DOCTYPE svg PUBLIC "-//W3C//DTD SVG 1.1//EN"
  "http://www.w3.org/Graphics/SVG/1.1/DTD/svg11.dtd">
<svg xmlns:xlink="http://www.w3.org/1999/xlink" width="432pt" height="432pt" viewBox="0 0 432 432" xmlns="http://www.w3.org/2000/svg" version="1.1">
 <metadata>
  <rdf:RDF xmlns:dc="http://purl.org/dc/elements/1.1/" xmlns:cc="http://creativecommons.org/ns#" xmlns:rdf="http://www.w3.org/1999/02/22-rdf-syntax-ns#">
   <cc:Work>
    <dc:type rdf:resource="http://purl.org/dc/dcmitype/StillImage"/>
    <dc:date>2024-11-12T15:09:12.144325</dc:date>
    <dc:format>image/svg+xml</dc:format>
    <dc:creator>
     <cc:Agent>
      <dc:title>Matplotlib v3.9.2, https://matplotlib.org/</dc:title>
     </cc:Agent>
    </dc:creator>
   </cc:Work>
  </rdf:RDF>
 </metadata>
 <defs>
  <style type="text/css">*{stroke-linejoin: round; stroke-linecap: butt}</style>
 </defs>
 <g id="figure_1">
  <g id="patch_1">
   <path d="M 0 432 
L 432 432 
L 432 0 
L 0 0 
z
" style="fill: #ffffff"/>
  </g>
  <g id="axes_1">
   <g id="line2d_1">
    <path d="M -1 392.727273 
L 433 392.727273 
" clip-path="url(#p53a7b43315)" style="fill: none; stroke-dasharray: 2,2; stroke-dashoffset: 0; stroke: #000000; stroke-width: 0.5"/>
   </g>
   <g id="line2d_2">
    <path d="M -1 353.454545 
L 433 353.454545 
" clip-path="url(#p53a7b43315)" style="fill: none; stroke-dasharray: 2,2; stroke-dashoffset: 0; stroke: #000000; stroke-width: 0.5"/>
   </g>
   <g id="line2d_3">
    <path d="M -1 314.181818 
L 433 314.181818 
" clip-path="url(#p53a7b43315)" style="fill: none; stroke-dasharray: 2,2; stroke-dashoffset: 0; stroke: #000000; stroke-width: 0.5"/>
   </g>
   <g id="line2d_4">
    <path d="M -1 274.909091 
L 433 274.909091 
" clip-path="url(#p53a7b43315)" style="fill: none; stroke-dasharray: 2,2; stroke-dashoffset: 0; stroke: #000000; stroke-width: 0.5"/>
   </g>
   <g id="line2d_5">
    <path d="M -1 235.636364 
L 433 235.636364 
" clip-path="url(#p53a7b43315)" style="fill: none; stroke-dasharray: 2,2; stroke-dashoffset: 0; stroke: #000000; stroke-width: 0.5"/>
   </g>
   <g id="line2d_6">
    <path d="M -1 196.363636 
L 433 196.363636 
" clip-path="url(#p53a7b43315)" style="fill: none; stroke-dasharray: 2,2; stroke-dashoffset: 0; stroke: #000000; stroke-width: 0.5"/>
   </g>
   <g id="line2d_7">
    <path d="M -1 157.090909 
L 433 157.090909 
" clip-path="url(#p53a7b43315)" style="fill: none; stroke-dasharray: 2,2; stroke-dashoffset: 0; stroke: #000000; stroke-width: 0.5"/>
   </g>
   <g id="line2d_8">
    <path d="M -1 117.818182 
L 433 117.818182 
" clip-path="url(#p53a7b43315)" style="fill: none; stroke-dasharray: 2,2; stroke-dashoffset: 0; stroke: #000000; stroke-width: 0.5"/>
   </g>
   <g id="line2d_9">
    <path d="M -1 78.545455 
L 433 78.545455 
" clip-path="url(#p53a7b43315)" style="fill: none; stroke-dasharray: 2,2; stroke-dashoffset: 0; stroke: #000000; stroke-width: 0.5"/>
   </g>
   <g id="line2d_10">
    <path d="M -1 39.272727 
L 433 39.272727 
" clip-path="url(#p53a7b43315)" style="fill: none; stroke-dasharray: 2,2; stroke-dashoffset: 0; stroke: #000000; stroke-width: 0.5"/>
   </g>
   <g id="line2d_11">
    <path d="M -1 -0 
L 433 -0 
" clip-path="url(#p53a7b43315)" style="fill: none; stroke-dasharray: 2,2; stroke-dashoffset: 0; stroke: #000000; stroke-width: 0.5"/>
   </g>
   <g id="line2d_12">
    <path clip-path="url(#p53a7b43315)" style="fill: none; stroke-dasharray: 2,2; stroke-dashoffset: 0; stroke: #000000; stroke-width: 0.5"/>
   </g>
   <g id="line2d_13">
    <path d="M 19.636364 392.727273 
L 19.636364 -0 
" clip-path="url(#p53a7b43315)" style="fill: none; stroke-dasharray: 2,2; stroke-dashoffset: 0; stroke: #000000; stroke-width: 0.5"/>
   </g>
   <g id="line2d_14">
    <path d="M 58.909091 392.727273 
L 58.909091 -0 
" clip-path="url(#p53a7b43315)" style="fill: none; stroke-dasharray: 2,2; stroke-dashoffset: 0; stroke: #000000; stroke-width: 0.5"/>
   </g>
   <g id="line2d_15">
    <path d="M 98.181818 392.727273 
L 98.181818 -0 
" clip-path="url(#p53a7b43315)" style="fill: none; stroke-dasharray: 2,2; stroke-dashoffset: 0; stroke: #000000; stroke-width: 0.5"/>
   </g>
   <g id="line2d_16">
    <path d="M 137.454545 392.727273 
L 137.454545 -0 
" clip-path="url(#p53a7b43315)" style="fill: none; stroke-dasharray: 2,2; stroke-dashoffset: 0; stroke: #000000; stroke-width: 0.5"/>
   </g>
   <g id="line2d_17">
    <path d="M 176.727273 392.727273 
L 176.727273 -0 
" clip-path="url(#p53a7b43315)" style="fill: none; stroke-dasharray: 2,2; stroke-dashoffset: 0; stroke: #000000; stroke-width: 0.5"/>
   </g>
   <g id="line2d_18">
    <path d="M 216 392.727273 
L 216 -0 
" clip-path="url(#p53a7b43315)" style="fill: none; stroke-dasharray: 2,2; stroke-dashoffset: 0; stroke: #000000; stroke-width: 0.5"/>
   </g>
   <g id="line2d_19">
    <path d="M 255.272727 392.727273 
L 255.272727 -0 
" clip-path="url(#p53a7b43315)" style="fill: none; stroke-dasharray: 2,2; stroke-dashoffset: 0; stroke: #000000; stroke-width: 0.5"/>
   </g>
   <g id="line2d_20">
    <path d="M 294.545455 392.727273 
L 294.545455 -0 
" clip-path="url(#p53a7b43315)" style="fill: none; stroke-dasharray: 2,2; stroke-dashoffset: 0; stroke: #000000; stroke-width: 0.5"/>
   </g>
   <g id="line2d_21">
    <path d="M 333.818182 392.727273 
L 333.818182 -0 
" clip-path="url(#p53a7b43315)" style="fill: none; stroke-dasharray: 2,2; stroke-dashoffset: 0; stroke: #000000; stroke-width: 0.5"/>
   </g>
   <g id="line2d_22">
    <path d="M 373.090909 392.727273 
L 373.090909 -0 
" clip-path="url(#p53a7b43315)" style="fill: none; stroke-dasharray: 2,2; stroke-dashoffset: 0; stroke: #000000; stroke-width: 0.5"/>
   </g>
   <g id="line2d_23">
    <path d="M 412.363636 392.727273 
L 412.363636 -0 
" clip-path="url(#p53a7b43315)" style="fill: none; stroke-dasharray: 2,2; stroke-dashoffset: 0; stroke: #000000; stroke-width: 0.5"/>
   </g>
   <g id="line2d_24">
    <path d="M 176.727273 392.727273 
L 19.636364 235.636364 
" clip-path="url(#p53a7b43315)" style="fill: none; stroke-dasharray: 4,4; stroke-dashoffset: 0; stroke: #000000"/>
   </g>
   <g id="line2d_25">
    <path d="M 412.363636 196.363636 
L 255.272727 39.272727 
" clip-path="url(#p53a7b43315)" style="fill: none; stroke-dasharray: 4,4; stroke-dashoffset: 0; stroke: #000000"/>
   </g>
   <g id="patch_2">
    <path d="M 178.726385 392.727273 
Q 196.364467 392.727273 211.766481 392.727273 
" style="fill: none; stroke: #8000ff; stroke-width: 2; stroke-linecap: round"/>
    <path d="M 207.766481 390.727273 
L 211.766481 392.727273 
L 207.766481 394.727273 
" style="fill: none; stroke: #8000ff; stroke-width: 2; stroke-linecap: round"/>
   </g>
   <g id="patch_3">
    <path d="M 217.999112 392.727273 
Q 235.637194 392.727273 251.039208 392.727273 
" style="fill: none; stroke: #8000ff; stroke-width: 2; stroke-linecap: round"/>
    <path d="M 247.039208 390.727273 
L 251.039208 392.727273 
L 247.039208 394.727273 
" style="fill: none; stroke: #8000ff; stroke-width: 2; stroke-linecap: round"/>
   </g>
   <g id="patch_4">
    <path d="M 257.271839 392.727273 
Q 274.909922 392.727273 290.311936 392.727273 
" style="fill: none; stroke: #8000ff; stroke-width: 2; stroke-linecap: round"/>
    <path d="M 286.311936 390.727273 
L 290.311936 392.727273 
L 286.311936 394.727273 
" style="fill: none; stroke: #8000ff; stroke-width: 2; stroke-linecap: round"/>
   </g>
   <g id="patch_5">
    <path d="M 294.545455 390.728161 
Q 294.545455 373.090078 294.545455 357.688064 
" style="fill: none; stroke: #8000ff; stroke-width: 2; stroke-linecap: round"/>
    <path d="M 292.545455 361.688064 
L 294.545455 357.688064 
L 296.545455 361.688064 
" style="fill: none; stroke: #8000ff; stroke-width: 2; stroke-linecap: round"/>
   </g>
   <g id="patch_6">
    <path d="M 296.544567 353.454545 
Q 314.182649 353.454545 329.584663 353.454545 
" style="fill: none; stroke: #8000ff; stroke-width: 2; stroke-linecap: round"/>
    <path d="M 325.584663 351.454545 
L 329.584663 353.454545 
L 325.584663 355.454545 
" style="fill: none; stroke: #8000ff; stroke-width: 2; stroke-linecap: round"/>
   </g>
   <g id="patch_7">
    <path d="M 333.818182 351.455433 
Q 333.818182 333.817351 333.818182 318.415337 
" style="fill: none; stroke: #8000ff; stroke-width: 2; stroke-linecap: round"/>
    <path d="M 331.818182 322.415337 
L 333.818182 318.415337 
L 335.818182 322.415337 
" style="fill: none; stroke: #8000ff; stroke-width: 2; stroke-linecap: round"/>
   </g>
   <g id="patch_8">
    <path d="M 335.817294 314.181818 
Q 353.455376 314.181818 368.85739 314.181818 
" style="fill: none; stroke: #8000ff; stroke-width: 2; stroke-linecap: round"/>
    <path d="M 364.85739 312.181818 
L 368.85739 314.181818 
L 364.85739 316.181818 
" style="fill: none; stroke: #8000ff; stroke-width: 2; stroke-linecap: round"/>
   </g>
   <g id="patch_9">
    <path d="M 373.090909 312.182706 
Q 373.090909 294.544624 373.090909 279.14261 
" style="fill: none; stroke: #8000ff; stroke-width: 2; stroke-linecap: round"/>
    <path d="M 371.090909 283.14261 
L 373.090909 279.14261 
L 375.090909 283.14261 
" style="fill: none; stroke: #8000ff; stroke-width: 2; stroke-linecap: round"/>
   </g>
   <g id="patch_10">
    <path d="M 375.090021 274.909091 
Q 392.728103 274.909091 408.130118 274.909091 
" style="fill: none; stroke: #8000ff; stroke-width: 2; stroke-linecap: round"/>
    <path d="M 404.130118 272.909091 
L 408.130118 274.909091 
L 404.130118 276.909091 
" style="fill: none; stroke: #8000ff; stroke-width: 2; stroke-linecap: round"/>
   </g>
   <g id="patch_11">
    <path d="M 412.363636 272.909979 
Q 412.363636 255.271897 412.363636 239.869882 
" style="fill: none; stroke: #8000ff; stroke-width: 2; stroke-linecap: round"/>
    <path d="M 410.363636 243.869882 
L 412.363636 239.869882 
L 414.363636 243.869882 
" style="fill: none; stroke: #8000ff; stroke-width: 2; stroke-linecap: round"/>
   </g>
   <g id="patch_12">
    <path d="M 412.363636 233.639648 
Q 412.363636 221.893087 412.363636 212.382593 
" style="fill: none; stroke: #8000ff; stroke-width: 2; stroke-linecap: round"/>
    <path d="M 410.363636 216.382593 
L 412.363636 212.382593 
L 414.363636 216.382593 
" style="fill: none; stroke: #8000ff; stroke-width: 2; stroke-linecap: round"/>
   </g>
   <g id="patch_13">
    <path d="M 139.453658 353.454545 
Q 157.09174 353.454545 172.493754 353.454545 
" style="fill: none; stroke: #00b5eb; stroke-width: 2; stroke-linecap: round"/>
    <path d="M 168.493754 351.454545 
L 172.493754 353.454545 
L 168.493754 355.454545 
" style="fill: none; stroke: #00b5eb; stroke-width: 2; stroke-linecap: round"/>
   </g>
   <g id="patch_14">
    <path d="M 176.727273 351.455433 
Q 176.727273 333.817351 176.727273 318.415337 
" style="fill: none; stroke: #00b5eb; stroke-width: 2; stroke-linecap: round"/>
    <path d="M 174.727273 322.415337 
L 176.727273 318.415337 
L 178.727273 322.415337 
" style="fill: none; stroke: #00b5eb; stroke-width: 2; stroke-linecap: round"/>
   </g>
   <g id="patch_15">
    <path d="M 176.727273 312.182706 
Q 176.727273 294.544624 176.727273 279.14261 
" style="fill: none; stroke: #00b5eb; stroke-width: 2; stroke-linecap: round"/>
    <path d="M 174.727273 283.14261 
L 176.727273 279.14261 
L 178.727273 283.14261 
" style="fill: none; stroke: #00b5eb; stroke-width: 2; stroke-linecap: round"/>
   </g>
   <g id="patch_16">
    <path d="M 178.726385 274.909091 
Q 196.364467 274.909091 211.766481 274.909091 
" style="fill: none; stroke: #00b5eb; stroke-width: 2; stroke-linecap: round"/>
    <path d="M 207.766481 272.909091 
L 211.766481 274.909091 
L 207.766481 276.909091 
" style="fill: none; stroke: #00b5eb; stroke-width: 2; stroke-linecap: round"/>
   </g>
   <g id="patch_17">
    <path d="M 217.999112 274.909091 
Q 235.637194 274.909091 251.039208 274.909091 
" style="fill: none; stroke: #00b5eb; stroke-width: 2; stroke-linecap: round"/>
    <path d="M 247.039208 272.909091 
L 251.039208 274.909091 
L 247.039208 276.909091 
" style="fill: none; stroke: #00b5eb; stroke-width: 2; stroke-linecap: round"/>
   </g>
   <g id="patch_18">
    <path d="M 255.272727 272.909979 
Q 255.272727 255.271897 255.272727 239.869882 
" style="fill: none; stroke: #00b5eb; stroke-width: 2; stroke-linecap: round"/>
    <path d="M 253.272727 243.869882 
L 255.272727 239.869882 
L 257.272727 243.869882 
" style="fill: none; stroke: #00b5eb; stroke-width: 2; stroke-linecap: round"/>
   </g>
   <g id="patch_19">
    <path d="M 257.271839 235.636364 
Q 274.909922 235.636364 290.311936 235.636364 
" style="fill: none; stroke: #00b5eb; stroke-width: 2; stroke-linecap: round"/>
    <path d="M 286.311936 233.636364 
L 290.311936 235.636364 
L 286.311936 237.636364 
" style="fill: none; stroke: #00b5eb; stroke-width: 2; stroke-linecap: round"/>
   </g>
   <g id="patch_20">
    <path d="M 294.545455 233.637251 
Q 294.545455 215.999169 294.545455 200.597155 
" style="fill: none; stroke: #00b5eb; stroke-width: 2; stroke-linecap: round"/>
    <path d="M 292.545455 204.597155 
L 294.545455 200.597155 
L 296.545455 204.597155 
" style="fill: none; stroke: #00b5eb; stroke-width: 2; stroke-linecap: round"/>
   </g>
   <g id="patch_21">
    <path d="M 296.544567 196.363636 
Q 314.182649 196.363636 329.584663 196.363636 
" style="fill: none; stroke: #00b5eb; stroke-width: 2; stroke-linecap: round"/>
    <path d="M 325.584663 194.363636 
L 329.584663 196.363636 
L 325.584663 198.363636 
" style="fill: none; stroke: #00b5eb; stroke-width: 2; stroke-linecap: round"/>
   </g>
   <g id="patch_22">
    <path d="M 335.817294 196.363636 
Q 353.455376 196.363636 368.85739 196.363636 
" style="fill: none; stroke: #00b5eb; stroke-width: 2; stroke-linecap: round"/>
    <path d="M 364.85739 194.363636 
L 368.85739 196.363636 
L 364.85739 198.363636 
" style="fill: none; stroke: #00b5eb; stroke-width: 2; stroke-linecap: round"/>
   </g>
   <g id="patch_23">
    <path d="M 373.090909 194.366921 
Q 373.090909 182.620359 373.090909 173.109865 
" style="fill: none; stroke: #00b5eb; stroke-width: 2; stroke-linecap: round"/>
    <path d="M 371.090909 177.109865 
L 373.090909 173.109865 
L 375.090909 177.109865 
" style="fill: none; stroke: #00b5eb; stroke-width: 2; stroke-linecap: round"/>
   </g>
   <g id="patch_24">
    <path d="M 98.181818 312.182706 
Q 98.181818 294.544624 98.181818 279.14261 
" style="fill: none; stroke: #80ffb4; stroke-width: 2; stroke-linecap: round"/>
    <path d="M 96.181818 283.14261 
L 98.181818 279.14261 
L 100.181818 283.14261 
" style="fill: none; stroke: #80ffb4; stroke-width: 2; stroke-linecap: round"/>
   </g>
   <g id="patch_25">
    <path d="M 98.181818 272.909979 
Q 98.181818 255.271897 98.181818 239.869882 
" style="fill: none; stroke: #80ffb4; stroke-width: 2; stroke-linecap: round"/>
    <path d="M 96.181818 243.869882 
L 98.181818 239.869882 
L 100.181818 243.869882 
" style="fill: none; stroke: #80ffb4; stroke-width: 2; stroke-linecap: round"/>
   </g>
   <g id="patch_26">
    <path d="M 98.181818 233.637251 
Q 98.181818 215.999169 98.181818 200.597155 
" style="fill: none; stroke: #80ffb4; stroke-width: 2; stroke-linecap: round"/>
    <path d="M 96.181818 204.597155 
L 98.181818 200.597155 
L 100.181818 204.597155 
" style="fill: none; stroke: #80ffb4; stroke-width: 2; stroke-linecap: round"/>
   </g>
   <g id="patch_27">
    <path d="M 100.18093 196.363636 
Q 117.819013 196.363636 133.221027 196.363636 
" style="fill: none; stroke: #80ffb4; stroke-width: 2; stroke-linecap: round"/>
    <path d="M 129.221027 194.363636 
L 133.221027 196.363636 
L 129.221027 198.363636 
" style="fill: none; stroke: #80ffb4; stroke-width: 2; stroke-linecap: round"/>
   </g>
   <g id="patch_28">
    <path d="M 139.453658 196.363636 
Q 157.09174 196.363636 172.493754 196.363636 
" style="fill: none; stroke: #80ffb4; stroke-width: 2; stroke-linecap: round"/>
    <path d="M 168.493754 194.363636 
L 172.493754 196.363636 
L 168.493754 198.363636 
" style="fill: none; stroke: #80ffb4; stroke-width: 2; stroke-linecap: round"/>
   </g>
   <g id="patch_29">
    <path d="M 178.726385 196.363636 
Q 196.364467 196.363636 211.766481 196.363636 
" style="fill: none; stroke: #80ffb4; stroke-width: 2; stroke-linecap: round"/>
    <path d="M 207.766481 194.363636 
L 211.766481 196.363636 
L 207.766481 198.363636 
" style="fill: none; stroke: #80ffb4; stroke-width: 2; stroke-linecap: round"/>
   </g>
   <g id="patch_30">
    <path d="M 217.999112 196.363636 
Q 235.637194 196.363636 251.039208 196.363636 
" style="fill: none; stroke: #80ffb4; stroke-width: 2; stroke-linecap: round"/>
    <path d="M 247.039208 194.363636 
L 251.039208 196.363636 
L 247.039208 198.363636 
" style="fill: none; stroke: #80ffb4; stroke-width: 2; stroke-linecap: round"/>
   </g>
   <g id="patch_31">
    <path d="M 255.272727 194.364524 
Q 255.272727 176.726442 255.272727 161.324428 
" style="fill: none; stroke: #80ffb4; stroke-width: 2; stroke-linecap: round"/>
    <path d="M 253.272727 165.324428 
L 255.272727 161.324428 
L 257.272727 165.324428 
" style="fill: none; stroke: #80ffb4; stroke-width: 2; stroke-linecap: round"/>
   </g>
   <g id="patch_32">
    <path d="M 255.272727 155.091797 
Q 255.272727 137.453715 255.272727 122.051701 
" style="fill: none; stroke: #80ffb4; stroke-width: 2; stroke-linecap: round"/>
    <path d="M 253.272727 126.051701 
L 255.272727 122.051701 
L 257.272727 126.051701 
" style="fill: none; stroke: #80ffb4; stroke-width: 2; stroke-linecap: round"/>
   </g>
   <g id="patch_33">
    <path d="M 255.272727 115.81907 
Q 255.272727 98.180987 255.272727 82.778973 
" style="fill: none; stroke: #80ffb4; stroke-width: 2; stroke-linecap: round"/>
    <path d="M 253.272727 86.778973 
L 255.272727 82.778973 
L 257.272727 86.778973 
" style="fill: none; stroke: #80ffb4; stroke-width: 2; stroke-linecap: round"/>
   </g>
   <g id="patch_34">
    <path d="M 257.269442 78.545455 
Q 269.016004 78.545455 278.526498 78.545455 
" style="fill: none; stroke: #80ffb4; stroke-width: 2; stroke-linecap: round"/>
    <path d="M 274.526498 76.545455 
L 278.526498 78.545455 
L 274.526498 80.545455 
" style="fill: none; stroke: #80ffb4; stroke-width: 2; stroke-linecap: round"/>
   </g>
   <g id="patch_35">
    <path d="M 58.909091 272.909979 
Q 58.909091 255.271897 58.909091 239.869882 
" style="fill: none; stroke: #ffb360; stroke-width: 2; stroke-linecap: round"/>
    <path d="M 56.909091 243.869882 
L 58.909091 239.869882 
L 60.909091 243.869882 
" style="fill: none; stroke: #ffb360; stroke-width: 2; stroke-linecap: round"/>
   </g>
   <g id="patch_36">
    <path d="M 60.908203 235.636364 
Q 78.546285 235.636364 93.948299 235.636364 
" style="fill: none; stroke: #ffb360; stroke-width: 2; stroke-linecap: round"/>
    <path d="M 89.948299 233.636364 
L 93.948299 235.636364 
L 89.948299 237.636364 
" style="fill: none; stroke: #ffb360; stroke-width: 2; stroke-linecap: round"/>
   </g>
   <g id="patch_37">
    <path d="M 100.18093 235.636364 
Q 117.819013 235.636364 133.221027 235.636364 
" style="fill: none; stroke: #ffb360; stroke-width: 2; stroke-linecap: round"/>
    <path d="M 129.221027 233.636364 
L 133.221027 235.636364 
L 129.221027 237.636364 
" style="fill: none; stroke: #ffb360; stroke-width: 2; stroke-linecap: round"/>
   </g>
   <g id="patch_38">
    <path d="M 137.454545 233.637251 
Q 137.454545 215.999169 137.454545 200.597155 
" style="fill: none; stroke: #ffb360; stroke-width: 2; stroke-linecap: round"/>
    <path d="M 135.454545 204.597155 
L 137.454545 200.597155 
L 139.454545 204.597155 
" style="fill: none; stroke: #ffb360; stroke-width: 2; stroke-linecap: round"/>
   </g>
   <g id="patch_39">
    <path d="M 137.454545 194.364524 
Q 137.454545 176.726442 137.454545 161.324428 
" style="fill: none; stroke: #ffb360; stroke-width: 2; stroke-linecap: round"/>
    <path d="M 135.454545 165.324428 
L 137.454545 161.324428 
L 139.454545 165.324428 
" style="fill: none; stroke: #ffb360; stroke-width: 2; stroke-linecap: round"/>
   </g>
   <g id="patch_40">
    <path d="M 137.454545 155.091797 
Q 137.454545 137.453715 137.454545 122.051701 
" style="fill: none; stroke: #ffb360; stroke-width: 2; stroke-linecap: round"/>
    <path d="M 135.454545 126.051701 
L 137.454545 122.051701 
L 139.454545 126.051701 
" style="fill: none; stroke: #ffb360; stroke-width: 2; stroke-linecap: round"/>
   </g>
   <g id="patch_41">
    <path d="M 139.453658 117.818182 
Q 157.09174 117.818182 172.493754 117.818182 
" style="fill: none; stroke: #ffb360; stroke-width: 2; stroke-linecap: round"/>
    <path d="M 168.493754 115.818182 
L 172.493754 117.818182 
L 168.493754 119.818182 
" style="fill: none; stroke: #ffb360; stroke-width: 2; stroke-linecap: round"/>
   </g>
   <g id="patch_42">
    <path d="M 178.726385 117.818182 
Q 196.364467 117.818182 211.766481 117.818182 
" style="fill: none; stroke: #ffb360; stroke-width: 2; stroke-linecap: round"/>
    <path d="M 207.766481 115.818182 
L 211.766481 117.818182 
L 207.766481 119.818182 
" style="fill: none; stroke: #ffb360; stroke-width: 2; stroke-linecap: round"/>
   </g>
   <g id="patch_43">
    <path d="M 217.999112 117.818182 
Q 235.637194 117.818182 251.039208 117.818182 
" style="fill: none; stroke: #ffb360; stroke-width: 2; stroke-linecap: round"/>
    <path d="M 247.039208 115.818182 
L 251.039208 117.818182 
L 247.039208 119.818182 
" style="fill: none; stroke: #ffb360; stroke-width: 2; stroke-linecap: round"/>
   </g>
   <g id="patch_44">
    <path d="M 257.271839 117.818182 
Q 274.909922 117.818182 290.311936 117.818182 
" style="fill: none; stroke: #ffb360; stroke-width: 2; stroke-linecap: round"/>
    <path d="M 286.311936 115.818182 
L 290.311936 117.818182 
L 286.311936 119.818182 
" style="fill: none; stroke: #ffb360; stroke-width: 2; stroke-linecap: round"/>
   </g>
   <g id="patch_45">
    <path d="M 296.54217 117.818182 
Q 308.288732 117.818182 317.799226 117.818182 
" style="fill: none; stroke: #ffb360; stroke-width: 2; stroke-linecap: round"/>
    <path d="M 313.799226 115.818182 
L 317.799226 117.818182 
L 313.799226 119.818182 
" style="fill: none; stroke: #ffb360; stroke-width: 2; stroke-linecap: round"/>
   </g>
   <g id="patch_46">
    <path d="M 19.636364 233.637251 
Q 19.636364 215.999169 19.636364 200.597155 
" style="fill: none; stroke: #ff0000; stroke-width: 2; stroke-linecap: round"/>
    <path d="M 17.636364 204.597155 
L 19.636364 200.597155 
L 21.636364 204.597155 
" style="fill: none; stroke: #ff0000; stroke-width: 2; stroke-linecap: round"/>
   </g>
   <g id="patch_47">
    <path d="M 19.636364 194.364524 
Q 19.636364 176.726442 19.636364 161.324428 
" style="fill: none; stroke: #ff0000; stroke-width: 2; stroke-linecap: round"/>
    <path d="M 17.636364 165.324428 
L 19.636364 161.324428 
L 21.636364 165.324428 
" style="fill: none; stroke: #ff0000; stroke-width: 2; stroke-linecap: round"/>
   </g>
   <g id="patch_48">
    <path d="M 19.636364 155.091797 
Q 19.636364 137.453715 19.636364 122.051701 
" style="fill: none; stroke: #ff0000; stroke-width: 2; stroke-linecap: round"/>
    <path d="M 17.636364 126.051701 
L 19.636364 122.051701 
L 21.636364 126.051701 
" style="fill: none; stroke: #ff0000; stroke-width: 2; stroke-linecap: round"/>
   </g>
   <g id="patch_49">
    <path d="M 21.635476 117.818182 
Q 39.273558 117.818182 54.675572 117.818182 
" style="fill: none; stroke: #ff0000; stroke-width: 2; stroke-linecap: round"/>
    <path d="M 50.675572 115.818182 
L 54.675572 117.818182 
L 50.675572 119.818182 
" style="fill: none; stroke: #ff0000; stroke-width: 2; stroke-linecap: round"/>
   </g>
   <g id="patch_50">
    <path d="M 58.909091 115.81907 
Q 58.909091 98.180987 58.909091 82.778973 
" style="fill: none; stroke: #ff0000; stroke-width: 2; stroke-linecap: round"/>
    <path d="M 56.909091 86.778973 
L 58.909091 82.778973 
L 60.909091 86.778973 
" style="fill: none; stroke: #ff0000; stroke-width: 2; stroke-linecap: round"/>
   </g>
   <g id="patch_51">
    <path d="M 60.908203 78.545455 
Q 78.546285 78.545455 93.948299 78.545455 
" style="fill: none; stroke: #ff0000; stroke-width: 2; stroke-linecap: round"/>
    <path d="M 89.948299 76.545455 
L 93.948299 78.545455 
L 89.948299 80.545455 
" style="fill: none; stroke: #ff0000; stroke-width: 2; stroke-linecap: round"/>
   </g>
   <g id="patch_52">
    <path d="M 100.18093 78.545455 
Q 117.819013 78.545455 133.221027 78.545455 
" style="fill: none; stroke: #ff0000; stroke-width: 2; stroke-linecap: round"/>
    <path d="M 129.221027 76.545455 
L 133.221027 78.545455 
L 129.221027 80.545455 
" style="fill: none; stroke: #ff0000; stroke-width: 2; stroke-linecap: round"/>
   </g>
   <g id="patch_53">
    <path d="M 139.453658 78.545455 
Q 157.09174 78.545455 172.493754 78.545455 
" style="fill: none; stroke: #ff0000; stroke-width: 2; stroke-linecap: round"/>
    <path d="M 168.493754 76.545455 
L 172.493754 78.545455 
L 168.493754 80.545455 
" style="fill: none; stroke: #ff0000; stroke-width: 2; stroke-linecap: round"/>
   </g>
   <g id="patch_54">
    <path d="M 176.727273 76.546342 
Q 176.727273 58.90826 176.727273 43.506246 
" style="fill: none; stroke: #ff0000; stroke-width: 2; stroke-linecap: round"/>
    <path d="M 174.727273 47.506246 
L 176.727273 43.506246 
L 178.727273 47.506246 
" style="fill: none; stroke: #ff0000; stroke-width: 2; stroke-linecap: round"/>
   </g>
   <g id="patch_55">
    <path d="M 178.726385 39.272727 
Q 196.364467 39.272727 211.766481 39.272727 
" style="fill: none; stroke: #ff0000; stroke-width: 2; stroke-linecap: round"/>
    <path d="M 207.766481 37.272727 
L 211.766481 39.272727 
L 207.766481 41.272727 
" style="fill: none; stroke: #ff0000; stroke-width: 2; stroke-linecap: round"/>
   </g>
   <g id="patch_56">
    <path d="M 217.996715 39.272727 
Q 229.743277 39.272727 239.253771 39.272727 
" style="fill: none; stroke: #ff0000; stroke-width: 2; stroke-linecap: round"/>
    <path d="M 235.253771 37.272727 
L 239.253771 39.272727 
L 235.253771 41.272727 
" style="fill: none; stroke: #ff0000; stroke-width: 2; stroke-linecap: round"/>
   </g>
   <g id="patch_57">
    <path d="M 176.727273 404.509091 
C 179.851847 404.509091 182.848868 403.267684 185.058276 401.058276 
C 187.267684 398.848868 188.509091 395.851847 188.509091 392.727273 
C 188.509091 389.602698 187.267684 386.605677 185.058276 384.396269 
C 182.848868 382.186861 179.851847 380.945455 176.727273 380.945455 
C 173.602698 380.945455 170.605677 382.186861 168.396269 384.396269 
C 166.186861 386.605677 164.945455 389.602698 164.945455 392.727273 
C 164.945455 395.851847 166.186861 398.848868 168.396269 401.058276 
C 170.605677 403.267684 173.602698 404.509091 176.727273 404.509091 
z
" clip-path="url(#p53a7b43315)" style="fill: #ffffff; stroke: #000000; stroke-width: 0.5; stroke-linejoin: miter"/>
   </g>
   <g id="patch_58">
    <path d="M 412.363636 208.145455 
C 415.488211 208.145455 418.485232 206.904048 420.69464 204.69464 
C 422.904048 202.485232 424.145455 199.488211 424.145455 196.363636 
C 424.145455 193.239062 422.904048 190.242041 420.69464 188.032633 
C 418.485232 185.823225 415.488211 184.581818 412.363636 184.581818 
C 409.239062 184.581818 406.242041 185.823225 404.032633 188.032633 
C 401.823225 190.242041 400.581818 193.239062 400.581818 196.363636 
C 400.581818 199.488211 401.823225 202.485232 404.032633 204.69464 
C 406.242041 206.904048 409.239062 208.145455 412.363636 208.145455 
z
" clip-path="url(#p53a7b43315)" style="fill: #ffffff; stroke: #000000; stroke-width: 0.5; stroke-linejoin: miter"/>
   </g>
   <g id="patch_59">
    <path d="M 137.454545 365.236364 
C 140.57912 365.236364 143.576141 363.994957 145.785549 361.785549 
C 147.994957 359.576141 149.236364 356.57912 149.236364 353.454545 
C 149.236364 350.329971 147.994957 347.33295 145.785549 345.123542 
C 143.576141 342.914134 140.57912 341.672727 137.454545 341.672727 
C 134.329971 341.672727 131.33295 342.914134 129.123542 345.123542 
C 126.914134 347.33295 125.672727 350.329971 125.672727 353.454545 
C 125.672727 356.57912 126.914134 359.576141 129.123542 361.785549 
C 131.33295 363.994957 134.329971 365.236364 137.454545 365.236364 
z
" clip-path="url(#p53a7b43315)" style="fill: #ffffff; stroke: #000000; stroke-width: 0.5; stroke-linejoin: miter"/>
   </g>
   <g id="patch_60">
    <path d="M 373.090909 168.872727 
C 376.215484 168.872727 379.212505 167.631321 381.421913 165.421913 
C 383.631321 163.212505 384.872727 160.215484 384.872727 157.090909 
C 384.872727 153.966334 383.631321 150.969314 381.421913 148.759906 
C 379.212505 146.550498 376.215484 145.309091 373.090909 145.309091 
C 369.966334 145.309091 366.969314 146.550498 364.759906 148.759906 
C 362.550498 150.969314 361.309091 153.966334 361.309091 157.090909 
C 361.309091 160.215484 362.550498 163.212505 364.759906 165.421913 
C 366.969314 167.631321 369.966334 168.872727 373.090909 168.872727 
z
" clip-path="url(#p53a7b43315)" style="fill: #ffffff; stroke: #000000; stroke-width: 0.5; stroke-linejoin: miter"/>
   </g>
   <g id="patch_61">
    <path d="M 98.181818 325.963636 
C 101.306393 325.963636 104.303414 324.72223 106.512822 322.512822 
C 108.72223 320.303414 109.963636 317.306393 109.963636 314.181818 
C 109.963636 311.057243 108.72223 308.060223 106.512822 305.850815 
C 104.303414 303.641407 101.306393 302.4 98.181818 302.4 
C 95.057243 302.4 92.060223 303.641407 89.850815 305.850815 
C 87.641407 308.060223 86.4 311.057243 86.4 314.181818 
C 86.4 317.306393 87.641407 320.303414 89.850815 322.512822 
C 92.060223 324.72223 95.057243 325.963636 98.181818 325.963636 
z
" clip-path="url(#p53a7b43315)" style="fill: #ffffff; stroke: #000000; stroke-width: 0.5; stroke-linejoin: miter"/>
   </g>
   <g id="patch_62">
    <path d="M 333.818182 129.6 
C 336.942757 129.6 339.939777 128.358593 342.149185 126.149185 
C 344.358593 123.939777 345.6 120.942757 345.6 117.818182 
C 345.6 114.693607 344.358593 111.696586 342.149185 109.487178 
C 339.939777 107.27777 336.942757 106.036364 333.818182 106.036364 
C 330.693607 106.036364 327.696586 107.27777 325.487178 109.487178 
C 323.27777 111.696586 322.036364 114.693607 322.036364 117.818182 
C 322.036364 120.942757 323.27777 123.939777 325.487178 126.149185 
C 327.696586 128.358593 330.693607 129.6 333.818182 129.6 
z
" clip-path="url(#p53a7b43315)" style="fill: #ffffff; stroke: #000000; stroke-width: 0.5; stroke-linejoin: miter"/>
   </g>
   <g id="patch_63">
    <path d="M 58.909091 286.690909 
C 62.033666 286.690909 65.030686 285.449502 67.240094 283.240094 
C 69.449502 281.030686 70.690909 278.033666 70.690909 274.909091 
C 70.690909 271.784516 69.449502 268.787495 67.240094 266.578087 
C 65.030686 264.368679 62.033666 263.127273 58.909091 263.127273 
C 55.784516 263.127273 52.787495 264.368679 50.578087 266.578087 
C 48.368679 268.787495 47.127273 271.784516 47.127273 274.909091 
C 47.127273 278.033666 48.368679 281.030686 50.578087 283.240094 
C 52.787495 285.449502 55.784516 286.690909 58.909091 286.690909 
z
" clip-path="url(#p53a7b43315)" style="fill: #ffffff; stroke: #000000; stroke-width: 0.5; stroke-linejoin: miter"/>
   </g>
   <g id="patch_64">
    <path d="M 294.545455 90.327273 
C 297.670029 90.327273 300.66705 89.085866 302.876458 86.876458 
C 305.085866 84.66705 306.327273 81.670029 306.327273 78.545455 
C 306.327273 75.42088 305.085866 72.423859 302.876458 70.214451 
C 300.66705 68.005043 297.670029 66.763636 294.545455 66.763636 
C 291.42088 66.763636 288.423859 68.005043 286.214451 70.214451 
C 284.005043 72.423859 282.763636 75.42088 282.763636 78.545455 
C 282.763636 81.670029 284.005043 84.66705 286.214451 86.876458 
C 288.423859 89.085866 291.42088 90.327273 294.545455 90.327273 
z
" clip-path="url(#p53a7b43315)" style="fill: #ffffff; stroke: #000000; stroke-width: 0.5; stroke-linejoin: miter"/>
   </g>
   <g id="patch_65">
    <path d="M 19.636364 247.418182 
C 22.760938 247.418182 25.757959 246.176775 27.967367 243.967367 
C 30.176775 241.757959 31.418182 238.760938 31.418182 235.636364 
C 31.418182 232.511789 30.176775 229.514768 27.967367 227.30536 
C 25.757959 225.095952 22.760938 223.854545 19.636364 223.854545 
C 16.511789 223.854545 13.514768 225.095952 11.30536 227.30536 
C 9.095952 229.514768 7.854545 232.511789 7.854545 235.636364 
C 7.854545 238.760938 9.095952 241.757959 11.30536 243.967367 
C 13.514768 246.176775 16.511789 247.418182 19.636364 247.418182 
z
" clip-path="url(#p53a7b43315)" style="fill: #ffffff; stroke: #000000; stroke-width: 0.5; stroke-linejoin: miter"/>
   </g>
   <g id="patch_66">
    <path d="M 255.272727 51.054545 
C 258.397302 51.054545 261.394323 49.813139 263.603731 47.603731 
C 265.813139 45.394323 267.054545 42.397302 267.054545 39.272727 
C 267.054545 36.148153 265.813139 33.151132 263.603731 30.941724 
C 261.394323 28.732316 258.397302 27.490909 255.272727 27.490909 
C 252.148153 27.490909 249.151132 28.732316 246.941724 30.941724 
C 244.732316 33.151132 243.490909 36.148153 243.490909 39.272727 
C 243.490909 42.397302 244.732316 45.394323 246.941724 47.603731 
C 249.151132 49.813139 252.148153 51.054545 255.272727 51.054545 
z
" clip-path="url(#p53a7b43315)" style="fill: #ffffff; stroke: #000000; stroke-width: 0.5; stroke-linejoin: miter"/>
   </g>
   <g id="text_1">
    <!-- $A_1$ -->
    <g transform="translate(169.644534 395.961893) scale(0.13 -0.13)">
     <defs>
      <path id="CMMI12-41" d="M 1088 691 
C 864 314 646 186 339 186 
C 269 180 218 180 218 58 
C 218 24 250 0 294 0 
C 410 0 698 0 813 0 
C 998 0 1203 0 1382 0 
C 1421 0 1498 0 1498 122 
C 1498 180 1446 186 1408 186 
C 1261 186 1139 236 1139 388 
C 1139 476 1178 546 1261 685 
L 1747 1479 
L 3379 1479 
C 3386 1423 3386 1373 3392 1316 
C 3411 1152 3488 495 3488 376 
C 3488 186 3162 186 3059 186 
C 2989 186 2918 186 2918 70 
C 2918 0 2976 0 3014 0 
C 3123 0 3251 0 3360 0 
L 3725 0 
C 4115 0 4397 0 4403 0 
C 4448 0 4518 0 4518 122 
C 4518 186 4461 186 4365 186 
C 4013 186 4006 244 3987 434 
L 3597 4404 
C 3584 4531 3558 4544 3488 4544 
C 3424 4544 3386 4531 3328 4435 
L 1088 691 
z
M 1856 1664 
L 3142 3819 
L 3360 1664 
L 1856 1664 
z
" transform="scale(0.015625)"/>
      <path id="CMR17-31" d="M 1702 4058 
C 1702 4192 1696 4192 1606 4192 
C 1357 3916 979 3827 621 3827 
C 602 3827 570 3827 563 3808 
C 557 3795 557 3782 557 3648 
C 755 3648 1088 3686 1344 3839 
L 1344 461 
C 1344 236 1331 160 781 160 
L 589 160 
L 589 0 
C 896 0 1216 0 1523 0 
C 1830 0 2150 0 2458 0 
L 2458 160 
L 2266 160 
C 1715 160 1702 230 1702 458 
L 1702 4058 
z
" transform="scale(0.015625)"/>
     </defs>
     <use xlink:href="#CMMI12-41" transform="scale(0.996264)"/>
     <use xlink:href="#CMR17-31" transform="translate(73.127885 -14.943915) scale(0.697382)"/>
    </g>
   </g>
   <g id="text_2">
    <!-- $B_1$ -->
    <g transform="translate(405.217187 199.598256) scale(0.13 -0.13)">
     <defs>
      <path id="CMMI12-42" d="M 2342 3921 
C 2400 4160 2426 4160 2675 4160 
L 3507 4160 
C 4230 4160 4230 3544 4230 3485 
C 4230 2966 3712 2304 2867 2304 
L 1946 2304 
L 2342 3921 
z
M 3424 2275 
C 4122 2402 4755 2886 4755 3473 
C 4755 3970 4314 4352 3590 4352 
L 1536 4352 
C 1414 4352 1357 4352 1357 4226 
C 1357 4160 1414 4160 1510 4160 
C 1901 4160 1901 4112 1901 4044 
C 1901 4032 1901 3993 1875 3897 
L 1011 472 
C 954 249 941 185 493 185 
C 371 185 307 185 307 70 
C 307 0 346 0 474 0 
L 2669 0 
C 3648 0 4403 739 4403 1383 
C 4403 1906 3942 2224 3424 2275 
z
M 2515 185 
L 1651 185 
C 1562 185 1549 185 1510 192 
C 1440 198 1434 211 1434 261 
C 1434 305 1446 343 1459 399 
L 1907 2176 
L 3110 2176 
C 3866 2176 3866 1483 3866 1433 
C 3866 828 3309 185 2515 185 
z
" transform="scale(0.015625)"/>
     </defs>
     <use xlink:href="#CMMI12-42" transform="scale(0.996264)"/>
     <use xlink:href="#CMR17-31" transform="translate(74.10802 -14.943915) scale(0.697382)"/>
    </g>
   </g>
   <g id="text_3">
    <!-- $A_2$ -->
    <g transform="translate(130.371807 356.689166) scale(0.13 -0.13)">
     <defs>
      <path id="CMR17-32" d="M 2669 989 
L 2554 989 
C 2490 536 2438 459 2413 420 
C 2381 369 1920 369 1830 369 
L 602 369 
C 832 619 1280 1072 1824 1597 
C 2214 1967 2669 2402 2669 3035 
C 2669 3790 2067 4224 1395 4224 
C 691 4224 262 3604 262 3030 
C 262 2780 448 2748 525 2748 
C 589 2748 781 2787 781 3010 
C 781 3207 614 3264 525 3264 
C 486 3264 448 3258 422 3245 
C 544 3790 915 4058 1306 4058 
C 1862 4058 2227 3617 2227 3035 
C 2227 2479 1901 2000 1536 1584 
L 262 146 
L 262 0 
L 2515 0 
L 2669 989 
z
" transform="scale(0.015625)"/>
     </defs>
     <use xlink:href="#CMMI12-41" transform="scale(0.996264)"/>
     <use xlink:href="#CMR17-32" transform="translate(73.127885 -14.943915) scale(0.697382)"/>
    </g>
   </g>
   <g id="text_4">
    <!-- $B_2$ -->
    <g transform="translate(365.94446 160.325529) scale(0.13 -0.13)">
     <use xlink:href="#CMMI12-42" transform="scale(0.996264)"/>
     <use xlink:href="#CMR17-32" transform="translate(74.10802 -14.943915) scale(0.697382)"/>
    </g>
   </g>
   <g id="text_5">
    <!-- $A_3$ -->
    <g transform="translate(91.09908 317.416438) scale(0.13 -0.13)">
     <defs>
      <path id="CMR17-33" d="M 1414 2157 
C 1984 2157 2234 1662 2234 1090 
C 2234 320 1824 25 1453 25 
C 1114 25 563 194 390 693 
C 422 680 454 680 486 680 
C 640 680 755 782 755 948 
C 755 1133 614 1216 486 1216 
C 378 1216 211 1165 211 926 
C 211 335 787 -128 1466 -128 
C 2176 -128 2720 430 2720 1085 
C 2720 1707 2208 2157 1600 2227 
C 2086 2328 2554 2756 2554 3329 
C 2554 3820 2048 4179 1472 4179 
C 890 4179 378 3829 378 3329 
C 378 3110 544 3072 627 3072 
C 762 3072 877 3155 877 3321 
C 877 3486 762 3569 627 3569 
C 602 3569 570 3569 544 3557 
C 730 3959 1235 4032 1459 4032 
C 1683 4032 2106 3925 2106 3320 
C 2106 3143 2080 2828 1862 2550 
C 1670 2304 1453 2304 1242 2284 
C 1210 2284 1062 2269 1037 2269 
C 992 2263 966 2257 966 2208 
C 966 2163 973 2157 1101 2157 
L 1414 2157 
z
" transform="scale(0.015625)"/>
     </defs>
     <use xlink:href="#CMMI12-41" transform="scale(0.996264)"/>
     <use xlink:href="#CMR17-33" transform="translate(73.127885 -14.943915) scale(0.697382)"/>
    </g>
   </g>
   <g id="text_6">
    <!-- $B_3$ -->
    <g transform="translate(326.671733 121.052802) scale(0.13 -0.13)">
     <use xlink:href="#CMMI12-42" transform="scale(0.996264)"/>
     <use xlink:href="#CMR17-33" transform="translate(74.10802 -14.943915) scale(0.697382)"/>
    </g>
   </g>
   <g id="text_7">
    <!-- $A_4$ -->
    <g transform="translate(51.826352 278.143711) scale(0.13 -0.13)">
     <defs>
      <path id="CMR17-34" d="M 2150 4122 
C 2150 4256 2144 4256 2029 4256 
L 128 1254 
L 128 1088 
L 1779 1088 
L 1779 457 
C 1779 224 1766 160 1318 160 
L 1197 160 
L 1197 0 
C 1402 0 1747 0 1965 0 
C 2182 0 2528 0 2733 0 
L 2733 160 
L 2611 160 
C 2163 160 2150 224 2150 457 
L 2150 1088 
L 2803 1088 
L 2803 1254 
L 2150 1254 
L 2150 4122 
z
M 1798 3703 
L 1798 1254 
L 256 1254 
L 1798 3703 
z
" transform="scale(0.015625)"/>
     </defs>
     <use xlink:href="#CMMI12-41" transform="scale(0.996264)"/>
     <use xlink:href="#CMR17-34" transform="translate(73.127885 -14.943915) scale(0.697382)"/>
    </g>
   </g>
   <g id="text_8">
    <!-- $B_4$ -->
    <g transform="translate(287.399005 81.780075) scale(0.13 -0.13)">
     <use xlink:href="#CMMI12-42" transform="scale(0.996264)"/>
     <use xlink:href="#CMR17-34" transform="translate(74.10802 -14.943915) scale(0.697382)"/>
    </g>
   </g>
   <g id="text_9">
    <!-- $A_5$ -->
    <g transform="translate(12.553625 238.870984) scale(0.13 -0.13)">
     <defs>
      <path id="CMR17-35" d="M 730 3692 
C 794 3666 1056 3584 1325 3584 
C 1920 3584 2246 3911 2432 4100 
C 2432 4157 2432 4192 2394 4192 
C 2387 4192 2374 4192 2323 4163 
C 2099 4058 1837 3973 1517 3973 
C 1325 3973 1037 3999 723 4139 
C 653 4171 640 4171 634 4171 
C 602 4171 595 4164 595 4037 
L 595 2203 
C 595 2089 595 2057 659 2057 
C 691 2057 704 2070 736 2114 
C 941 2401 1222 2522 1542 2522 
C 1766 2522 2246 2382 2246 1289 
C 2246 1085 2246 715 2054 421 
C 1894 159 1645 25 1370 25 
C 947 25 518 320 403 814 
C 429 807 480 795 506 795 
C 589 795 749 840 749 1038 
C 749 1210 627 1280 506 1280 
C 358 1280 262 1190 262 1011 
C 262 454 704 -128 1382 -128 
C 2042 -128 2669 440 2669 1264 
C 2669 2030 2170 2624 1549 2624 
C 1222 2624 947 2503 730 2274 
L 730 3692 
z
" transform="scale(0.015625)"/>
     </defs>
     <use xlink:href="#CMMI12-41" transform="scale(0.996264)"/>
     <use xlink:href="#CMR17-35" transform="translate(73.127885 -14.943915) scale(0.697382)"/>
    </g>
   </g>
   <g id="text_10">
    <!-- $B_5$ -->
    <g transform="translate(248.126278 42.507347) scale(0.13 -0.13)">
     <use xlink:href="#CMMI12-42" transform="scale(0.996264)"/>
     <use xlink:href="#CMR17-35" transform="translate(74.10802 -14.943915) scale(0.697382)"/>
    </g>
   </g>
   <g id="line2d_26">
    <defs>
     <path id="m80b7fe4312" d="M 0 7.5 
C 1.989023 7.5 3.896849 6.709753 5.303301 5.303301 
C 6.709753 3.896849 7.5 1.989023 7.5 0 
C 7.5 -1.989023 6.709753 -3.896849 5.303301 -5.303301 
C 3.896849 -6.709753 1.989023 -7.5 0 -7.5 
C -1.989023 -7.5 -3.896849 -6.709753 -5.303301 -5.303301 
C -6.709753 -3.896849 -7.5 -1.989023 -7.5 0 
C -7.5 1.989023 -6.709753 3.896849 -5.303301 5.303301 
C -3.896849 6.709753 -1.989023 7.5 0 7.5 
z
" style="stroke: #000000"/>
    </defs>
    <g clip-path="url(#p53a7b43315)">
     <use xlink:href="#m80b7fe4312" x="255.272727" y="117.818182" style="fill: #ffcc00; stroke: #000000"/>
    </g>
   </g>
   <g id="text_11">
    <!-- $C$ -->
    <g transform="translate(251.356444 120.555172) scale(0.11 -0.11)">
     <defs>
      <path id="CMMI12-43" d="M 4781 4423 
C 4781 4480 4736 4480 4723 4480 
C 4710 4480 4685 4480 4634 4416 
L 4192 3882 
C 3968 4264 3616 4480 3136 4480 
C 1754 4480 320 3088 320 1595 
C 320 533 1069 -128 2003 -128 
C 2515 -128 2963 88 3334 400 
C 3891 863 4058 1481 4058 1531 
C 4058 1588 4006 1588 3987 1588 
C 3930 1588 3923 1550 3910 1524 
C 3616 534 2752 57 2112 57 
C 1434 57 845 489 845 1391 
C 845 1595 909 2700 1632 3532 
C 1984 3939 2586 4295 3194 4295 
C 3898 4295 4211 3717 4211 3068 
C 4211 2903 4192 2764 4192 2738 
C 4192 2681 4256 2681 4275 2681 
C 4346 2681 4352 2687 4378 2801 
L 4781 4423 
z
" transform="scale(0.015625)"/>
     </defs>
     <use xlink:href="#CMMI12-43" transform="scale(0.996264)"/>
    </g>
   </g>
  </g>
 </g>
 <defs>
  <clipPath id="p53a7b43315">
   <rect x="0" y="19.636364" width="432" height="392.727273"/>
  </clipPath>
 </defs>
</svg>
