<?xml version="1.0" encoding="utf-8" standalone="no"?>
<!DOCTYPE svg PUBLIC "-//W3C//DTD SVG 1.1//EN"
  "http://www.w3.org/Graphics/SVG/1.1/DTD/svg11.dtd">
<!-- Created with matplotlib (https://matplotlib.org/) -->
<svg height="432pt" version="1.1" viewBox="0 0 432 432" width="432pt" xmlns="http://www.w3.org/2000/svg" xmlns:xlink="http://www.w3.org/1999/xlink">
 <metadata>
  <rdf:RDF xmlns:cc="http://creativecommons.org/ns#" xmlns:dc="http://purl.org/dc/elements/1.1/" xmlns:rdf="http://www.w3.org/1999/02/22-rdf-syntax-ns#">
   <cc:Work>
    <dc:type rdf:resource="http://purl.org/dc/dcmitype/StillImage"/>
    <dc:date>2021-12-06T16:46:32.571252</dc:date>
    <dc:format>image/svg+xml</dc:format>
    <dc:creator>
     <cc:Agent>
      <dc:title>Matplotlib v3.3.4, https://matplotlib.org/</dc:title>
     </cc:Agent>
    </dc:creator>
   </cc:Work>
  </rdf:RDF>
 </metadata>
 <defs>
  <style type="text/css">*{stroke-linecap:butt;stroke-linejoin:round;}</style>
 </defs>
 <g id="figure_1">
  <g id="patch_1">
   <path d="M 0 432 
L 432 432 
L 432 0 
L 0 0 
z
" style="fill:#ffffff;"/>
  </g>
  <g id="axes_1">
   <g id="patch_2">
    <path clip-path="url(#pfd6027b90d)" d="M 92.945455 387.490909 
L 158.4 387.490909 
L 158.4 322.036364 
L 92.945455 322.036364 
z
" style="fill:#add8ff;stroke:#000000;stroke-linejoin:miter;stroke-width:0.5;"/>
   </g>
   <g id="patch_3">
    <path clip-path="url(#pfd6027b90d)" d="M 158.4 387.490909 
L 223.854545 387.490909 
L 223.854545 322.036364 
L 158.4 322.036364 
z
" style="fill:#add8ff;stroke:#000000;stroke-linejoin:miter;stroke-width:0.5;"/>
   </g>
   <g id="patch_4">
    <path clip-path="url(#pfd6027b90d)" d="M 92.945455 322.036364 
L 158.4 322.036364 
L 158.4 256.581818 
L 92.945455 256.581818 
z
" style="fill:#add8ff;stroke:#000000;stroke-linejoin:miter;stroke-width:0.5;"/>
   </g>
   <g id="patch_5">
    <path clip-path="url(#pfd6027b90d)" d="M 158.4 322.036364 
L 223.854545 322.036364 
L 223.854545 256.581818 
L 158.4 256.581818 
z
" style="fill:#add8ff;stroke:#000000;stroke-linejoin:miter;stroke-width:0.5;"/>
   </g>
   <g id="patch_6">
    <path clip-path="url(#pfd6027b90d)" d="M 223.854545 322.036364 
L 289.309091 322.036364 
L 289.309091 256.581818 
L 223.854545 256.581818 
z
" style="fill:#add8ff;stroke:#000000;stroke-linejoin:miter;stroke-width:0.5;"/>
   </g>
   <g id="patch_7">
    <path clip-path="url(#pfd6027b90d)" d="M 223.854545 256.581818 
L 289.309091 256.581818 
L 289.309091 191.127273 
L 223.854545 191.127273 
z
" style="fill:#add8ff;stroke:#000000;stroke-linejoin:miter;stroke-width:0.5;"/>
   </g>
   <g id="patch_8">
    <path clip-path="url(#pfd6027b90d)" d="M 289.309091 256.581818 
L 354.763636 256.581818 
L 354.763636 191.127273 
L 289.309091 191.127273 
z
" style="fill:#add8ff;stroke:#000000;stroke-linejoin:miter;stroke-width:0.5;"/>
   </g>
   <g id="patch_9">
    <path clip-path="url(#pfd6027b90d)" d="M 289.309091 191.127273 
L 354.763636 191.127273 
L 354.763636 125.672727 
L 289.309091 125.672727 
z
" style="fill:#add8ff;stroke:#000000;stroke-linejoin:miter;stroke-width:0.5;"/>
   </g>
   <g id="patch_10">
    <path clip-path="url(#pfd6027b90d)" d="M 354.763636 191.127273 
L 420.218182 191.127273 
L 420.218182 125.672727 
L 354.763636 125.672727 
z
" style="fill:#add8ff;stroke:#000000;stroke-linejoin:miter;stroke-width:0.5;"/>
   </g>
   <g id="patch_11">
    <path clip-path="url(#pfd6027b90d)" d="M 22.254545 382.254545 
L 87.709091 382.254545 
L 87.709091 316.8 
L 22.254545 316.8 
z
" style="fill:#add8ff;stroke:#000000;stroke-linejoin:miter;stroke-width:0.5;"/>
   </g>
   <g id="patch_12">
    <path clip-path="url(#pfd6027b90d)" d="M 153.163636 251.345455 
L 218.618182 251.345455 
L 218.618182 185.890909 
L 153.163636 185.890909 
z
" style="fill:#add8ff;stroke:#000000;stroke-linejoin:miter;stroke-width:0.5;"/>
   </g>
   <g id="patch_13">
    <path clip-path="url(#pfd6027b90d)" d="M 17.018182 311.563636 
L 82.472727 311.563636 
L 82.472727 246.109091 
L 17.018182 246.109091 
z
" style="fill:#add8ff;stroke:#000000;stroke-linejoin:miter;stroke-width:0.5;"/>
   </g>
   <g id="patch_14">
    <path clip-path="url(#pfd6027b90d)" d="M 344.290909 115.2 
L 409.745455 115.2 
L 409.745455 49.745455 
L 344.290909 49.745455 
z
" style="fill:#add8ff;stroke:#000000;stroke-linejoin:miter;stroke-width:0.5;"/>
   </g>
   <g id="patch_15">
    <path clip-path="url(#pfd6027b90d)" d="M 11.781818 240.872727 
L 77.236364 240.872727 
L 77.236364 175.418182 
L 11.781818 175.418182 
z
" style="fill:#add8ff;stroke:#000000;stroke-linejoin:miter;stroke-width:0.5;"/>
   </g>
   <g id="patch_16">
    <path clip-path="url(#pfd6027b90d)" d="M 77.236364 240.872727 
L 142.690909 240.872727 
L 142.690909 175.418182 
L 77.236364 175.418182 
z
" style="fill:#add8ff;stroke:#000000;stroke-linejoin:miter;stroke-width:0.5;"/>
   </g>
   <g id="patch_17">
    <path clip-path="url(#pfd6027b90d)" d="M 77.236364 175.418182 
L 142.690909 175.418182 
L 142.690909 109.963636 
L 77.236364 109.963636 
z
" style="fill:#add8ff;stroke:#000000;stroke-linejoin:miter;stroke-width:0.5;"/>
   </g>
   <g id="patch_18">
    <path clip-path="url(#pfd6027b90d)" d="M 142.690909 175.418182 
L 208.145455 175.418182 
L 208.145455 109.963636 
L 142.690909 109.963636 
z
" style="fill:#add8ff;stroke:#000000;stroke-linejoin:miter;stroke-width:0.5;"/>
   </g>
   <g id="patch_19">
    <path clip-path="url(#pfd6027b90d)" d="M 208.145455 175.418182 
L 273.6 175.418182 
L 273.6 109.963636 
L 208.145455 109.963636 
z
" style="fill:#add8ff;stroke:#000000;stroke-linejoin:miter;stroke-width:0.5;"/>
   </g>
   <g id="patch_20">
    <path clip-path="url(#pfd6027b90d)" d="M 273.6 109.963636 
L 339.054545 109.963636 
L 339.054545 44.509091 
L 273.6 44.509091 
z
" style="fill:#add8ff;stroke:#000000;stroke-linejoin:miter;stroke-width:0.5;"/>
   </g>
   <g id="patch_21">
    <path clip-path="url(#pfd6027b90d)" d="M 6.545455 170.181818 
L 72 170.181818 
L 72 104.727273 
L 6.545455 104.727273 
z
" style="fill:#add8ff;stroke:#000000;stroke-linejoin:miter;stroke-width:0.5;"/>
   </g>
   <g id="patch_22">
    <path clip-path="url(#pfd6027b90d)" d="M 6.545455 104.727273 
L 72 104.727273 
L 72 39.272727 
L 6.545455 39.272727 
z
" style="fill:#add8ff;stroke:#000000;stroke-linejoin:miter;stroke-width:0.5;"/>
   </g>
   <g id="patch_23">
    <path clip-path="url(#pfd6027b90d)" d="M 72 104.727273 
L 137.454545 104.727273 
L 137.454545 39.272727 
L 72 39.272727 
z
" style="fill:#add8ff;stroke:#000000;stroke-linejoin:miter;stroke-width:0.5;"/>
   </g>
   <g id="patch_24">
    <path clip-path="url(#pfd6027b90d)" d="M 137.454545 104.727273 
L 202.909091 104.727273 
L 202.909091 39.272727 
L 137.454545 39.272727 
z
" style="fill:#add8ff;stroke:#000000;stroke-linejoin:miter;stroke-width:0.5;"/>
   </g>
   <g id="patch_25">
    <path clip-path="url(#pfd6027b90d)" d="M 202.909091 104.727273 
L 268.363636 104.727273 
L 268.363636 39.272727 
L 202.909091 39.272727 
z
" style="fill:#add8ff;stroke:#000000;stroke-linejoin:miter;stroke-width:0.5;"/>
   </g>
   <g id="line2d_1">
    <path clip-path="url(#pfd6027b90d)" d="M 27.490909 387.490909 
L 92.945455 387.490909 
L 158.4 387.490909 
L 223.854545 387.490909 
L 223.854545 322.036364 
L 289.309091 322.036364 
L 289.309091 256.581818 
L 354.763636 256.581818 
L 354.763636 191.127273 
L 420.218182 191.127273 
L 420.218182 125.672727 
L 420.218182 60.218182 
" style="fill:none;stroke:#1f77b4;stroke-linecap:square;stroke-width:2;"/>
   </g>
   <g id="line2d_2">
    <path clip-path="url(#pfd6027b90d)" d="M 22.254545 382.254545 
L 87.709091 382.254545 
L 87.709091 316.8 
L 87.709091 251.345455 
L 153.163636 251.345455 
L 218.618182 251.345455 
L 218.618182 185.890909 
L 284.072727 185.890909 
L 284.072727 120.436364 
L 349.527273 120.436364 
L 414.981818 120.436364 
L 414.981818 54.981818 
" style="fill:none;stroke:#ff7f0e;stroke-linecap:square;stroke-width:2;"/>
   </g>
   <g id="line2d_3">
    <path clip-path="url(#pfd6027b90d)" d="M 17.018182 377.018182 
L 17.018182 311.563636 
L 82.472727 311.563636 
L 82.472727 246.109091 
L 147.927273 246.109091 
L 147.927273 180.654545 
L 213.381818 180.654545 
L 278.836364 180.654545 
L 278.836364 115.2 
L 344.290909 115.2 
L 409.745455 115.2 
L 409.745455 49.745455 
" style="fill:none;stroke:#2ca02c;stroke-linecap:square;stroke-width:2;"/>
   </g>
   <g id="line2d_4">
    <path clip-path="url(#pfd6027b90d)" d="M 11.781818 371.781818 
L 11.781818 306.327273 
L 11.781818 240.872727 
L 77.236364 240.872727 
L 142.690909 240.872727 
L 142.690909 175.418182 
L 208.145455 175.418182 
L 273.6 175.418182 
L 273.6 109.963636 
L 339.054545 109.963636 
L 339.054545 44.509091 
L 404.509091 44.509091 
" style="fill:none;stroke:#d62728;stroke-linecap:square;stroke-width:2;"/>
   </g>
   <g id="line2d_5">
    <path clip-path="url(#pfd6027b90d)" d="M 6.545455 366.545455 
L 6.545455 301.090909 
L 6.545455 235.636364 
L 6.545455 170.181818 
L 72 170.181818 
L 72 104.727273 
L 137.454545 104.727273 
L 202.909091 104.727273 
L 268.363636 104.727273 
L 268.363636 39.272727 
L 333.818182 39.272727 
L 399.272727 39.272727 
" style="fill:none;stroke:#9467bd;stroke-linecap:square;stroke-width:2;"/>
   </g>
   <g id="text_1">
    <!-- 1 -->
    <g transform="translate(118.200747 360.710118)scale(0.25 -0.25)">
     <defs>
      <path d="M 32.09375 60.96875 
L 13.59375 55.1875 
C 12 54.6875 11.5 54.09375 11.5 52.984375 
C 11.5 52 12.5 51 13.40625 51 
C 13.59375 51 14.40625 51.1875 14.796875 51.296875 
L 28 55.484375 
L 28 4.09375 
L 14.09375 4.09375 
C 12.203125 4.09375 11.296875 3.390625 11.296875 2.09375 
C 11.296875 0.703125 12.296875 0 14.09375 0 
L 46 0 
C 47.796875 0 48.703125 0.703125 48.703125 2.09375 
C 48.703125 3.390625 47.796875 4.09375 46 4.09375 
L 32.09375 4.09375 
z
" id="Nimbus_Mono_L_Regular-49"/>
     </defs>
     <use transform="scale(0.996264)" xlink:href="#Nimbus_Mono_L_Regular-49"/>
    </g>
   </g>
   <g id="text_2">
    <!-- 1 -->
    <g transform="translate(183.655293 360.710118)scale(0.25 -0.25)">
     <use transform="scale(0.996264)" xlink:href="#Nimbus_Mono_L_Regular-49"/>
    </g>
   </g>
   <g id="text_3">
    <!-- 1 -->
    <g transform="translate(118.200747 295.255572)scale(0.25 -0.25)">
     <use transform="scale(0.996264)" xlink:href="#Nimbus_Mono_L_Regular-49"/>
    </g>
   </g>
   <g id="text_4">
    <!-- 1 -->
    <g transform="translate(183.655293 295.255572)scale(0.25 -0.25)">
     <use transform="scale(0.996264)" xlink:href="#Nimbus_Mono_L_Regular-49"/>
    </g>
   </g>
   <g id="text_5">
    <!-- 1 -->
    <g transform="translate(249.109838 295.255572)scale(0.25 -0.25)">
     <use transform="scale(0.996264)" xlink:href="#Nimbus_Mono_L_Regular-49"/>
    </g>
   </g>
   <g id="text_6">
    <!-- 1 -->
    <g transform="translate(249.109838 229.801027)scale(0.25 -0.25)">
     <use transform="scale(0.996264)" xlink:href="#Nimbus_Mono_L_Regular-49"/>
    </g>
   </g>
   <g id="text_7">
    <!-- 1 -->
    <g transform="translate(314.564384 229.801027)scale(0.25 -0.25)">
     <use transform="scale(0.996264)" xlink:href="#Nimbus_Mono_L_Regular-49"/>
    </g>
   </g>
   <g id="text_8">
    <!-- 1 -->
    <g transform="translate(314.564384 164.346481)scale(0.25 -0.25)">
     <use transform="scale(0.996264)" xlink:href="#Nimbus_Mono_L_Regular-49"/>
    </g>
   </g>
   <g id="text_9">
    <!-- 1 -->
    <g transform="translate(380.018929 164.346481)scale(0.25 -0.25)">
     <use transform="scale(0.996264)" xlink:href="#Nimbus_Mono_L_Regular-49"/>
    </g>
   </g>
   <g id="text_10">
    <!-- 2 -->
    <g transform="translate(47.509838 355.473754)scale(0.25 -0.25)">
     <defs>
      <path d="M 12.296875 4.09375 
L 12.296875 4.390625 
C 18 9.21875 24.296875 15.125 33 23.765625 
C 45.40625 35.90625 47.40625 38.8125 47.40625 44.734375 
C 47.40625 53.859375 38.796875 62 29 62 
C 22.90625 62 17.296875 59.1875 13.59375 54.375 
C 11.703125 51.96875 10.40625 48.953125 10.40625 47.15625 
C 10.40625 46.25 11.296875 45.359375 12.296875 45.359375 
C 13.40625 45.359375 14 45.953125 14.40625 47.359375 
C 16 53.375 22.203125 57.90625 29 57.90625 
C 36.59375 57.90625 43.296875 51.78125 43.296875 44.859375 
C 43.296875 40.328125 41.40625 37.515625 32 28.296875 
C 24.5 20.859375 16.5 13.328125 8.40625 6 
L 8.40625 0 
L 47.796875 0 
L 47.796875 7.703125 
C 47.796875 9.515625 47.09375 10.40625 45.796875 10.40625 
C 44.40625 10.40625 43.703125 9.515625 43.703125 7.703125 
L 43.703125 4.09375 
z
" id="Nimbus_Mono_L_Regular-50"/>
     </defs>
     <use transform="scale(0.996264)" xlink:href="#Nimbus_Mono_L_Regular-50"/>
    </g>
   </g>
   <g id="text_11">
    <!-- 2 -->
    <g transform="translate(178.418929 224.564663)scale(0.25 -0.25)">
     <use transform="scale(0.996264)" xlink:href="#Nimbus_Mono_L_Regular-50"/>
    </g>
   </g>
   <g id="text_12">
    <!-- 3 -->
    <g transform="translate(42.273474 284.782845)scale(0.25 -0.25)">
     <defs>
      <path d="M 37.40625 33.1875 
C 37.59375 33.28125 37.796875 33.375 37.90625 33.375 
C 43.90625 35.875 47.703125 41.0625 47.703125 46.734375 
C 47.703125 55.421875 40.09375 62.09375 30.09375 62.09375 
C 24.90625 62.09375 19.90625 60.5 16 57.546875 
C 13.90625 55.96875 12.5 54.1875 12.5 53.203125 
C 12.5 52.203125 13.40625 51.328125 14.5 51.328125 
C 15.296875 51.328125 15.59375 51.515625 16.59375 52.703125 
C 19.5 56.03125 24.40625 58 30 58 
C 37.703125 58 43.59375 53.171875 43.59375 46.75 
C 43.59375 42.609375 40.796875 38.75 36.59375 36.984375 
C 34.5 36 32.90625 36 27.90625 36 
C 26.203125 36 25.203125 35.3125 25.203125 34.015625 
C 25.203125 32.609375 26.09375 31.90625 27.90625 31.90625 
C 37.59375 31.90625 45.796875 25.265625 45.796875 17.40625 
C 45.796875 9.640625 38.203125 3.09375 29.09375 3.09375 
C 23.5 3.09375 17.90625 5 13.203125 8.640625 
C 12.5 9.140625 12.09375 9.34375 11.5 9.34375 
C 10.5 9.34375 9.59375 8.453125 9.59375 7.4375 
C 9.59375 6.140625 10.90625 4.828125 14.203125 3.125 
C 19.40625 0.3125 24.09375 -1 29 -1 
C 40.5 -1 49.90625 7.171875 49.90625 17.25 
C 49.90625 24.015625 45.203125 30 37.40625 33.1875 
z
" id="Nimbus_Mono_L_Regular-51"/>
     </defs>
     <use transform="scale(0.996264)" xlink:href="#Nimbus_Mono_L_Regular-51"/>
    </g>
   </g>
   <g id="text_13">
    <!-- 3 -->
    <g transform="translate(369.546202 88.419208)scale(0.25 -0.25)">
     <use transform="scale(0.996264)" xlink:href="#Nimbus_Mono_L_Regular-51"/>
    </g>
   </g>
   <g id="text_14">
    <!-- 4 -->
    <g transform="translate(37.037111 214.091936)scale(0.25 -0.25)">
     <defs>
      <path d="M 37.59375 16.90625 
L 37.59375 4 
L 30 4 
C 28.203125 4 27.296875 3.296875 27.296875 2 
C 27.296875 0.609375 28.203125 -0.09375 30 -0.09375 
L 45.09375 -0.09375 
C 46.90625 -0.09375 47.796875 0.609375 47.796875 2 
C 47.796875 3.296875 46.90625 4 45.09375 4 
L 41.703125 4 
L 41.703125 16.90625 
L 45.09375 16.90625 
C 46.90625 16.90625 47.796875 17.609375 47.796875 18.90625 
C 47.796875 20.296875 46.90625 21 45.09375 21 
L 41.703125 21 
L 41.703125 60 
L 33.296875 60 
L 10.5 21.59375 
L 10.5 16.90625 
z
M 37.59375 21 
L 14.40625 21 
L 35.203125 55.90625 
L 37.59375 55.90625 
z
" id="Nimbus_Mono_L_Regular-52"/>
     </defs>
     <use transform="scale(0.996264)" xlink:href="#Nimbus_Mono_L_Regular-52"/>
    </g>
   </g>
   <g id="text_15">
    <!-- 4 -->
    <g transform="translate(102.491656 214.091936)scale(0.25 -0.25)">
     <use transform="scale(0.996264)" xlink:href="#Nimbus_Mono_L_Regular-52"/>
    </g>
   </g>
   <g id="text_16">
    <!-- 4 -->
    <g transform="translate(102.491656 148.63739)scale(0.25 -0.25)">
     <use transform="scale(0.996264)" xlink:href="#Nimbus_Mono_L_Regular-52"/>
    </g>
   </g>
   <g id="text_17">
    <!-- 4 -->
    <g transform="translate(167.946202 148.63739)scale(0.25 -0.25)">
     <use transform="scale(0.996264)" xlink:href="#Nimbus_Mono_L_Regular-52"/>
    </g>
   </g>
   <g id="text_18">
    <!-- 4 -->
    <g transform="translate(233.400747 148.63739)scale(0.25 -0.25)">
     <use transform="scale(0.996264)" xlink:href="#Nimbus_Mono_L_Regular-52"/>
    </g>
   </g>
   <g id="text_19">
    <!-- 4 -->
    <g transform="translate(298.855293 83.182845)scale(0.25 -0.25)">
     <use transform="scale(0.996264)" xlink:href="#Nimbus_Mono_L_Regular-52"/>
    </g>
   </g>
   <g id="text_20">
    <!-- 5 -->
    <g transform="translate(31.800747 143.401027)scale(0.25 -0.25)">
     <defs>
      <path d="M 19 55.90625 
L 43.09375 55.90625 
C 45 55.90625 45.90625 56.609375 45.90625 58 
C 45.90625 59.296875 45 60 43.09375 60 
L 14.90625 60 
L 14.90625 33.078125 
C 14.90625 31.78125 15.703125 30.890625 16.796875 30.890625 
C 17.296875 30.890625 17.796875 31.09375 19 31.6875 
C 23.203125 33.890625 27.59375 35 31.59375 35 
C 40 35 45.796875 28.78125 45.796875 19.84375 
C 45.796875 9.3125 39.09375 2.09375 29.296875 2.09375 
C 23.5 2.09375 18.09375 4.40625 13.296875 8.828125 
C 12.59375 9.53125 12.203125 9.71875 11.59375 9.71875 
C 10.5 9.71875 9.59375 8.828125 9.59375 7.71875 
C 9.59375 6.515625 11 5.015625 14.203125 2.90625 
C 19.203125 -0.40625 24.203125 -2 29.5 -2 
C 41.40625 -2 49.90625 7.015625 49.90625 19.65625 
C 49.90625 30.875 42.40625 39.09375 32.203125 39.09375 
C 27.796875 39.09375 24.09375 38.1875 19 36.09375 
z
" id="Nimbus_Mono_L_Regular-53"/>
     </defs>
     <use transform="scale(0.996264)" xlink:href="#Nimbus_Mono_L_Regular-53"/>
    </g>
   </g>
   <g id="text_21">
    <!-- 5 -->
    <g transform="translate(31.800747 77.946481)scale(0.25 -0.25)">
     <use transform="scale(0.996264)" xlink:href="#Nimbus_Mono_L_Regular-53"/>
    </g>
   </g>
   <g id="text_22">
    <!-- 5 -->
    <g transform="translate(97.255293 77.946481)scale(0.25 -0.25)">
     <use transform="scale(0.996264)" xlink:href="#Nimbus_Mono_L_Regular-53"/>
    </g>
   </g>
   <g id="text_23">
    <!-- 5 -->
    <g transform="translate(162.709838 77.946481)scale(0.25 -0.25)">
     <use transform="scale(0.996264)" xlink:href="#Nimbus_Mono_L_Regular-53"/>
    </g>
   </g>
   <g id="text_24">
    <!-- 5 -->
    <g transform="translate(228.164384 77.946481)scale(0.25 -0.25)">
     <use transform="scale(0.996264)" xlink:href="#Nimbus_Mono_L_Regular-53"/>
    </g>
   </g>
  </g>
 </g>
 <defs>
  <clipPath id="pfd6027b90d">
   <rect height="366.545455" width="432" x="0" y="32.727273"/>
  </clipPath>
 </defs>
</svg>
