<?xml version="1.0" encoding="utf-8" standalone="no"?>
<!DOCTYPE svg PUBLIC "-//W3C//DTD SVG 1.1//EN"
  "http://www.w3.org/Graphics/SVG/1.1/DTD/svg11.dtd">
<svg xmlns:xlink="http://www.w3.org/1999/xlink" width="288pt" height="288pt" viewBox="0 0 288 288" xmlns="http://www.w3.org/2000/svg" version="1.1">
 <metadata>
  <rdf:RDF xmlns:dc="http://purl.org/dc/elements/1.1/" xmlns:cc="http://creativecommons.org/ns#" xmlns:rdf="http://www.w3.org/1999/02/22-rdf-syntax-ns#">
   <cc:Work>
    <dc:type rdf:resource="http://purl.org/dc/dcmitype/StillImage"/>
    <dc:date>2023-12-21T09:40:29.301184</dc:date>
    <dc:format>image/svg+xml</dc:format>
    <dc:creator>
     <cc:Agent>
      <dc:title>Matplotlib v3.7.1, https://matplotlib.org/</dc:title>
     </cc:Agent>
    </dc:creator>
   </cc:Work>
  </rdf:RDF>
 </metadata>
 <defs>
  <style type="text/css">*{stroke-linejoin: round; stroke-linecap: butt}</style>
 </defs>
 <g id="figure_1">
  <g id="patch_1">
   <path d="M 0 288 
L 288 288 
L 288 0 
L 0 0 
z
" style="fill: #ffffff"/>
  </g>
  <g id="axes_1">
   <g id="patch_2">
    <path d="M 131.478261 162.782609 
L 153.166549 150.26087 
L 131.478261 137.73913 
L 109.789972 150.26087 
z
" clip-path="url(#p5c285aa7dd)" style="fill: #add8ff; stroke: #000000; stroke-linejoin: miter"/>
   </g>
   <g id="patch_3">
    <path d="M 153.166549 175.304348 
L 174.854838 162.782609 
L 153.166549 150.26087 
L 131.478261 162.782609 
z
" clip-path="url(#p5c285aa7dd)" style="fill: #add8ff; stroke: #000000; stroke-linejoin: miter"/>
   </g>
   <g id="patch_4">
    <path d="M 174.854838 187.826087 
L 196.543126 175.304348 
L 174.854838 162.782609 
L 153.166549 175.304348 
z
" clip-path="url(#p5c285aa7dd)" style="fill: #add8ff; stroke: #000000; stroke-linejoin: miter"/>
   </g>
   <g id="patch_5">
    <path d="M 196.543126 200.347826 
L 218.231414 187.826087 
L 196.543126 175.304348 
L 174.854838 187.826087 
z
" clip-path="url(#p5c285aa7dd)" style="fill: #add8ff; stroke: #000000; stroke-linejoin: miter"/>
   </g>
   <g id="patch_6">
    <path d="M 218.231414 212.869565 
L 239.919703 200.347826 
L 218.231414 187.826087 
L 196.543126 200.347826 
z
" clip-path="url(#p5c285aa7dd)" style="fill: #add8ff; stroke: #000000; stroke-linejoin: miter"/>
   </g>
   <g id="patch_7">
    <path d="M 239.919703 225.391304 
L 261.607991 212.869565 
L 239.919703 200.347826 
L 218.231414 212.869565 
z
" clip-path="url(#p5c285aa7dd)" style="fill: #add8ff; stroke: #000000; stroke-linejoin: miter"/>
   </g>
   <g id="patch_8">
    <path d="M 109.789972 175.304348 
L 131.478261 162.782609 
L 109.789972 150.26087 
L 88.101684 162.782609 
z
" clip-path="url(#p5c285aa7dd)" style="fill: #add8ff; stroke: #000000; stroke-linejoin: miter"/>
   </g>
   <g id="patch_9">
    <path d="M 131.478261 187.826087 
L 153.166549 175.304348 
L 131.478261 162.782609 
L 109.789972 175.304348 
z
" clip-path="url(#p5c285aa7dd)" style="fill: #add8ff; stroke: #000000; stroke-linejoin: miter"/>
   </g>
   <g id="patch_10">
    <path d="M 153.166549 200.347826 
L 174.854838 187.826087 
L 153.166549 175.304348 
L 131.478261 187.826087 
z
" clip-path="url(#p5c285aa7dd)" style="fill: #add8ff; stroke: #000000; stroke-linejoin: miter"/>
   </g>
   <g id="patch_11">
    <path d="M 174.854838 212.869565 
L 196.543126 200.347826 
L 174.854838 187.826087 
L 153.166549 200.347826 
z
" clip-path="url(#p5c285aa7dd)" style="fill: #add8ff; stroke: #000000; stroke-linejoin: miter"/>
   </g>
   <g id="patch_12">
    <path d="M 196.543126 225.391304 
L 218.231414 212.869565 
L 196.543126 200.347826 
L 174.854838 212.869565 
z
" clip-path="url(#p5c285aa7dd)" style="fill: #add8ff; stroke: #000000; stroke-linejoin: miter"/>
   </g>
   <g id="patch_13">
    <path d="M 218.231414 237.913043 
L 239.919703 225.391304 
L 218.231414 212.869565 
L 196.543126 225.391304 
z
" clip-path="url(#p5c285aa7dd)" style="fill: #add8ff; stroke: #000000; stroke-linejoin: miter"/>
   </g>
   <g id="patch_14">
    <path d="M 88.101684 187.826087 
L 109.789972 175.304348 
L 88.101684 162.782609 
L 66.413396 175.304348 
z
" clip-path="url(#p5c285aa7dd)" style="fill: #add8ff; stroke: #000000; stroke-linejoin: miter"/>
   </g>
   <g id="patch_15">
    <path d="M 109.789972 200.347826 
L 131.478261 187.826087 
L 109.789972 175.304348 
L 88.101684 187.826087 
z
" clip-path="url(#p5c285aa7dd)" style="fill: #add8ff; stroke: #000000; stroke-linejoin: miter"/>
   </g>
   <g id="patch_16">
    <path d="M 131.478261 212.869565 
L 153.166549 200.347826 
L 131.478261 187.826087 
L 109.789972 200.347826 
z
" clip-path="url(#p5c285aa7dd)" style="fill: #add8ff; stroke: #000000; stroke-linejoin: miter"/>
   </g>
   <g id="patch_17">
    <path d="M 153.166549 225.391304 
L 174.854838 212.869565 
L 153.166549 200.347826 
L 131.478261 212.869565 
z
" clip-path="url(#p5c285aa7dd)" style="fill: #add8ff; stroke: #000000; stroke-linejoin: miter"/>
   </g>
   <g id="patch_18">
    <path d="M 174.854838 237.913043 
L 196.543126 225.391304 
L 174.854838 212.869565 
L 153.166549 225.391304 
z
" clip-path="url(#p5c285aa7dd)" style="fill: #add8ff; stroke: #000000; stroke-linejoin: miter"/>
   </g>
   <g id="patch_19">
    <path d="M 196.543126 250.434783 
L 218.231414 237.913043 
L 196.543126 225.391304 
L 174.854838 237.913043 
z
" clip-path="url(#p5c285aa7dd)" style="fill: #add8ff; stroke: #000000; stroke-linejoin: miter"/>
   </g>
   <g id="patch_20">
    <path d="M 66.413396 200.347826 
L 88.101684 187.826087 
L 66.413396 175.304348 
L 44.725107 187.826087 
z
" clip-path="url(#p5c285aa7dd)" style="fill: #add8ff; stroke: #000000; stroke-linejoin: miter"/>
   </g>
   <g id="patch_21">
    <path d="M 88.101684 212.869565 
L 109.789972 200.347826 
L 88.101684 187.826087 
L 66.413396 200.347826 
z
" clip-path="url(#p5c285aa7dd)" style="fill: #add8ff; stroke: #000000; stroke-linejoin: miter"/>
   </g>
   <g id="patch_22">
    <path d="M 109.789972 225.391304 
L 131.478261 212.869565 
L 109.789972 200.347826 
L 88.101684 212.869565 
z
" clip-path="url(#p5c285aa7dd)" style="fill: #add8ff; stroke: #000000; stroke-linejoin: miter"/>
   </g>
   <g id="patch_23">
    <path d="M 131.478261 237.913043 
L 153.166549 225.391304 
L 131.478261 212.869565 
L 109.789972 225.391304 
z
" clip-path="url(#p5c285aa7dd)" style="fill: #add8ff; stroke: #000000; stroke-linejoin: miter"/>
   </g>
   <g id="patch_24">
    <path d="M 153.166549 250.434783 
L 174.854838 237.913043 
L 153.166549 225.391304 
L 131.478261 237.913043 
z
" clip-path="url(#p5c285aa7dd)" style="fill: #add8ff; stroke: #000000; stroke-linejoin: miter"/>
   </g>
   <g id="patch_25">
    <path d="M 174.854838 262.956522 
L 196.543126 250.434783 
L 174.854838 237.913043 
L 153.166549 250.434783 
z
" clip-path="url(#p5c285aa7dd)" style="fill: #add8ff; stroke: #000000; stroke-linejoin: miter"/>
   </g>
   <g id="patch_26">
    <path d="M 44.725107 212.869565 
L 66.413396 200.347826 
L 44.725107 187.826087 
L 23.036819 200.347826 
z
" clip-path="url(#p5c285aa7dd)" style="fill: #add8ff; stroke: #000000; stroke-linejoin: miter"/>
   </g>
   <g id="patch_27">
    <path d="M 66.413396 225.391304 
L 88.101684 212.869565 
L 66.413396 200.347826 
L 44.725107 212.869565 
z
" clip-path="url(#p5c285aa7dd)" style="fill: #add8ff; stroke: #000000; stroke-linejoin: miter"/>
   </g>
   <g id="patch_28">
    <path d="M 88.101684 237.913043 
L 109.789972 225.391304 
L 88.101684 212.869565 
L 66.413396 225.391304 
z
" clip-path="url(#p5c285aa7dd)" style="fill: #add8ff; stroke: #000000; stroke-linejoin: miter"/>
   </g>
   <g id="patch_29">
    <path d="M 109.789972 250.434783 
L 131.478261 237.913043 
L 109.789972 225.391304 
L 88.101684 237.913043 
z
" clip-path="url(#p5c285aa7dd)" style="fill: #add8ff; stroke: #000000; stroke-linejoin: miter"/>
   </g>
   <g id="patch_30">
    <path d="M 131.478261 262.956522 
L 153.166549 250.434783 
L 131.478261 237.913043 
L 109.789972 250.434783 
z
" clip-path="url(#p5c285aa7dd)" style="fill: #add8ff; stroke: #000000; stroke-linejoin: miter"/>
   </g>
   <g id="patch_31">
    <path d="M 153.166549 275.478261 
L 174.854838 262.956522 
L 153.166549 250.434783 
L 131.478261 262.956522 
z
" clip-path="url(#p5c285aa7dd)" style="fill: #add8ff; stroke: #000000; stroke-linejoin: miter"/>
   </g>
   <g id="patch_32">
    <path d="M 109.789972 125.217391 
L 131.478261 112.695652 
L 131.478261 137.73913 
L 109.789972 150.26087 
z
" clip-path="url(#p5c285aa7dd)" style="fill: #ff9175; stroke: #000000; stroke-linejoin: miter"/>
   </g>
   <g id="patch_33">
    <path d="M 109.789972 100.173913 
L 131.478261 87.652174 
L 131.478261 112.695652 
L 109.789972 125.217391 
z
" clip-path="url(#p5c285aa7dd)" style="fill: #ff9175; stroke: #000000; stroke-linejoin: miter"/>
   </g>
   <g id="patch_34">
    <path d="M 109.789972 75.130435 
L 131.478261 62.608696 
L 131.478261 87.652174 
L 109.789972 100.173913 
z
" clip-path="url(#p5c285aa7dd)" style="fill: #ff9175; stroke: #000000; stroke-linejoin: miter"/>
   </g>
   <g id="patch_35">
    <path d="M 109.789972 50.086957 
L 131.478261 37.565217 
L 131.478261 62.608696 
L 109.789972 75.130435 
z
" clip-path="url(#p5c285aa7dd)" style="fill: #ff9175; stroke: #000000; stroke-linejoin: miter"/>
   </g>
   <g id="patch_36">
    <path d="M 109.789972 25.043478 
L 131.478261 12.521739 
L 131.478261 37.565217 
L 109.789972 50.086957 
z
" clip-path="url(#p5c285aa7dd)" style="fill: #ff9175; stroke: #000000; stroke-linejoin: miter"/>
   </g>
   <g id="patch_37">
    <path d="M 88.101684 137.73913 
L 109.789972 125.217391 
L 109.789972 150.26087 
L 88.101684 162.782609 
z
" clip-path="url(#p5c285aa7dd)" style="fill: #ff9175; stroke: #000000; stroke-linejoin: miter"/>
   </g>
   <g id="patch_38">
    <path d="M 88.101684 112.695652 
L 109.789972 100.173913 
L 109.789972 125.217391 
L 88.101684 137.73913 
z
" clip-path="url(#p5c285aa7dd)" style="fill: #ff9175; stroke: #000000; stroke-linejoin: miter"/>
   </g>
   <g id="patch_39">
    <path d="M 88.101684 87.652174 
L 109.789972 75.130435 
L 109.789972 100.173913 
L 88.101684 112.695652 
z
" clip-path="url(#p5c285aa7dd)" style="fill: #ff9175; stroke: #000000; stroke-linejoin: miter"/>
   </g>
   <g id="patch_40">
    <path d="M 88.101684 62.608696 
L 109.789972 50.086957 
L 109.789972 75.130435 
L 88.101684 87.652174 
z
" clip-path="url(#p5c285aa7dd)" style="fill: #ff9175; stroke: #000000; stroke-linejoin: miter"/>
   </g>
   <g id="patch_41">
    <path d="M 88.101684 37.565217 
L 109.789972 25.043478 
L 109.789972 50.086957 
L 88.101684 62.608696 
z
" clip-path="url(#p5c285aa7dd)" style="fill: #ff9175; stroke: #000000; stroke-linejoin: miter"/>
   </g>
   <g id="patch_42">
    <path d="M 66.413396 150.26087 
L 88.101684 137.73913 
L 88.101684 162.782609 
L 66.413396 175.304348 
z
" clip-path="url(#p5c285aa7dd)" style="fill: #ff9175; stroke: #000000; stroke-linejoin: miter"/>
   </g>
   <g id="patch_43">
    <path d="M 66.413396 125.217391 
L 88.101684 112.695652 
L 88.101684 137.73913 
L 66.413396 150.26087 
z
" clip-path="url(#p5c285aa7dd)" style="fill: #ff9175; stroke: #000000; stroke-linejoin: miter"/>
   </g>
   <g id="patch_44">
    <path d="M 66.413396 100.173913 
L 88.101684 87.652174 
L 88.101684 112.695652 
L 66.413396 125.217391 
z
" clip-path="url(#p5c285aa7dd)" style="fill: #ff9175; stroke: #000000; stroke-linejoin: miter"/>
   </g>
   <g id="patch_45">
    <path d="M 66.413396 75.130435 
L 88.101684 62.608696 
L 88.101684 87.652174 
L 66.413396 100.173913 
z
" clip-path="url(#p5c285aa7dd)" style="fill: #ff9175; stroke: #000000; stroke-linejoin: miter"/>
   </g>
   <g id="patch_46">
    <path d="M 66.413396 50.086957 
L 88.101684 37.565217 
L 88.101684 62.608696 
L 66.413396 75.130435 
z
" clip-path="url(#p5c285aa7dd)" style="fill: #ff9175; stroke: #000000; stroke-linejoin: miter"/>
   </g>
   <g id="patch_47">
    <path d="M 44.725107 162.782609 
L 66.413396 150.26087 
L 66.413396 175.304348 
L 44.725107 187.826087 
z
" clip-path="url(#p5c285aa7dd)" style="fill: #ff9175; stroke: #000000; stroke-linejoin: miter"/>
   </g>
   <g id="patch_48">
    <path d="M 44.725107 137.73913 
L 66.413396 125.217391 
L 66.413396 150.26087 
L 44.725107 162.782609 
z
" clip-path="url(#p5c285aa7dd)" style="fill: #ff9175; stroke: #000000; stroke-linejoin: miter"/>
   </g>
   <g id="patch_49">
    <path d="M 44.725107 112.695652 
L 66.413396 100.173913 
L 66.413396 125.217391 
L 44.725107 137.73913 
z
" clip-path="url(#p5c285aa7dd)" style="fill: #ff9175; stroke: #000000; stroke-linejoin: miter"/>
   </g>
   <g id="patch_50">
    <path d="M 44.725107 87.652174 
L 66.413396 75.130435 
L 66.413396 100.173913 
L 44.725107 112.695652 
z
" clip-path="url(#p5c285aa7dd)" style="fill: #ff9175; stroke: #000000; stroke-linejoin: miter"/>
   </g>
   <g id="patch_51">
    <path d="M 44.725107 62.608696 
L 66.413396 50.086957 
L 66.413396 75.130435 
L 44.725107 87.652174 
z
" clip-path="url(#p5c285aa7dd)" style="fill: #ff9175; stroke: #000000; stroke-linejoin: miter"/>
   </g>
   <g id="patch_52">
    <path d="M 23.036819 175.304348 
L 44.725107 162.782609 
L 44.725107 187.826087 
L 23.036819 200.347826 
z
" clip-path="url(#p5c285aa7dd)" style="fill: #ff9175; stroke: #000000; stroke-linejoin: miter"/>
   </g>
   <g id="patch_53">
    <path d="M 23.036819 150.26087 
L 44.725107 137.73913 
L 44.725107 162.782609 
L 23.036819 175.304348 
z
" clip-path="url(#p5c285aa7dd)" style="fill: #ff9175; stroke: #000000; stroke-linejoin: miter"/>
   </g>
   <g id="patch_54">
    <path d="M 23.036819 125.217391 
L 44.725107 112.695652 
L 44.725107 137.73913 
L 23.036819 150.26087 
z
" clip-path="url(#p5c285aa7dd)" style="fill: #ff9175; stroke: #000000; stroke-linejoin: miter"/>
   </g>
   <g id="patch_55">
    <path d="M 23.036819 100.173913 
L 44.725107 87.652174 
L 44.725107 112.695652 
L 23.036819 125.217391 
z
" clip-path="url(#p5c285aa7dd)" style="fill: #ff9175; stroke: #000000; stroke-linejoin: miter"/>
   </g>
   <g id="patch_56">
    <path d="M 23.036819 75.130435 
L 44.725107 62.608696 
L 44.725107 87.652174 
L 23.036819 100.173913 
z
" clip-path="url(#p5c285aa7dd)" style="fill: #ff9175; stroke: #000000; stroke-linejoin: miter"/>
   </g>
   <g id="patch_57">
    <path d="M 153.166549 125.217391 
L 131.478261 112.695652 
L 131.478261 137.73913 
L 153.166549 150.26087 
z
" clip-path="url(#p5c285aa7dd)" style="fill: #503079; stroke: #000000; stroke-linejoin: miter"/>
   </g>
   <g id="patch_58">
    <path d="M 153.166549 100.173913 
L 131.478261 87.652174 
L 131.478261 112.695652 
L 153.166549 125.217391 
z
" clip-path="url(#p5c285aa7dd)" style="fill: #503079; stroke: #000000; stroke-linejoin: miter"/>
   </g>
   <g id="patch_59">
    <path d="M 153.166549 75.130435 
L 131.478261 62.608696 
L 131.478261 87.652174 
L 153.166549 100.173913 
z
" clip-path="url(#p5c285aa7dd)" style="fill: #503079; stroke: #000000; stroke-linejoin: miter"/>
   </g>
   <g id="patch_60">
    <path d="M 153.166549 50.086957 
L 131.478261 37.565217 
L 131.478261 62.608696 
L 153.166549 75.130435 
z
" clip-path="url(#p5c285aa7dd)" style="fill: #503079; stroke: #000000; stroke-linejoin: miter"/>
   </g>
   <g id="patch_61">
    <path d="M 153.166549 25.043478 
L 131.478261 12.521739 
L 131.478261 37.565217 
L 153.166549 50.086957 
z
" clip-path="url(#p5c285aa7dd)" style="fill: #503079; stroke: #000000; stroke-linejoin: miter"/>
   </g>
   <g id="patch_62">
    <path d="M 174.854838 137.73913 
L 153.166549 125.217391 
L 153.166549 150.26087 
L 174.854838 162.782609 
z
" clip-path="url(#p5c285aa7dd)" style="fill: #503079; stroke: #000000; stroke-linejoin: miter"/>
   </g>
   <g id="patch_63">
    <path d="M 174.854838 112.695652 
L 153.166549 100.173913 
L 153.166549 125.217391 
L 174.854838 137.73913 
z
" clip-path="url(#p5c285aa7dd)" style="fill: #503079; stroke: #000000; stroke-linejoin: miter"/>
   </g>
   <g id="patch_64">
    <path d="M 174.854838 87.652174 
L 153.166549 75.130435 
L 153.166549 100.173913 
L 174.854838 112.695652 
z
" clip-path="url(#p5c285aa7dd)" style="fill: #503079; stroke: #000000; stroke-linejoin: miter"/>
   </g>
   <g id="patch_65">
    <path d="M 174.854838 62.608696 
L 153.166549 50.086957 
L 153.166549 75.130435 
L 174.854838 87.652174 
z
" clip-path="url(#p5c285aa7dd)" style="fill: #503079; stroke: #000000; stroke-linejoin: miter"/>
   </g>
   <g id="patch_66">
    <path d="M 174.854838 37.565217 
L 153.166549 25.043478 
L 153.166549 50.086957 
L 174.854838 62.608696 
z
" clip-path="url(#p5c285aa7dd)" style="fill: #503079; stroke: #000000; stroke-linejoin: miter"/>
   </g>
   <g id="patch_67">
    <path d="M 196.543126 150.26087 
L 174.854838 137.73913 
L 174.854838 162.782609 
L 196.543126 175.304348 
z
" clip-path="url(#p5c285aa7dd)" style="fill: #503079; stroke: #000000; stroke-linejoin: miter"/>
   </g>
   <g id="patch_68">
    <path d="M 196.543126 125.217391 
L 174.854838 112.695652 
L 174.854838 137.73913 
L 196.543126 150.26087 
z
" clip-path="url(#p5c285aa7dd)" style="fill: #503079; stroke: #000000; stroke-linejoin: miter"/>
   </g>
   <g id="patch_69">
    <path d="M 196.543126 100.173913 
L 174.854838 87.652174 
L 174.854838 112.695652 
L 196.543126 125.217391 
z
" clip-path="url(#p5c285aa7dd)" style="fill: #503079; stroke: #000000; stroke-linejoin: miter"/>
   </g>
   <g id="patch_70">
    <path d="M 196.543126 75.130435 
L 174.854838 62.608696 
L 174.854838 87.652174 
L 196.543126 100.173913 
z
" clip-path="url(#p5c285aa7dd)" style="fill: #503079; stroke: #000000; stroke-linejoin: miter"/>
   </g>
   <g id="patch_71">
    <path d="M 196.543126 50.086957 
L 174.854838 37.565217 
L 174.854838 62.608696 
L 196.543126 75.130435 
z
" clip-path="url(#p5c285aa7dd)" style="fill: #503079; stroke: #000000; stroke-linejoin: miter"/>
   </g>
   <g id="patch_72">
    <path d="M 218.231414 162.782609 
L 196.543126 150.26087 
L 196.543126 175.304348 
L 218.231414 187.826087 
z
" clip-path="url(#p5c285aa7dd)" style="fill: #503079; stroke: #000000; stroke-linejoin: miter"/>
   </g>
   <g id="patch_73">
    <path d="M 218.231414 137.73913 
L 196.543126 125.217391 
L 196.543126 150.26087 
L 218.231414 162.782609 
z
" clip-path="url(#p5c285aa7dd)" style="fill: #503079; stroke: #000000; stroke-linejoin: miter"/>
   </g>
   <g id="patch_74">
    <path d="M 218.231414 112.695652 
L 196.543126 100.173913 
L 196.543126 125.217391 
L 218.231414 137.73913 
z
" clip-path="url(#p5c285aa7dd)" style="fill: #503079; stroke: #000000; stroke-linejoin: miter"/>
   </g>
   <g id="patch_75">
    <path d="M 218.231414 87.652174 
L 196.543126 75.130435 
L 196.543126 100.173913 
L 218.231414 112.695652 
z
" clip-path="url(#p5c285aa7dd)" style="fill: #503079; stroke: #000000; stroke-linejoin: miter"/>
   </g>
   <g id="patch_76">
    <path d="M 218.231414 62.608696 
L 196.543126 50.086957 
L 196.543126 75.130435 
L 218.231414 87.652174 
z
" clip-path="url(#p5c285aa7dd)" style="fill: #503079; stroke: #000000; stroke-linejoin: miter"/>
   </g>
   <g id="patch_77">
    <path d="M 239.919703 175.304348 
L 218.231414 162.782609 
L 218.231414 187.826087 
L 239.919703 200.347826 
z
" clip-path="url(#p5c285aa7dd)" style="fill: #503079; stroke: #000000; stroke-linejoin: miter"/>
   </g>
   <g id="patch_78">
    <path d="M 239.919703 150.26087 
L 218.231414 137.73913 
L 218.231414 162.782609 
L 239.919703 175.304348 
z
" clip-path="url(#p5c285aa7dd)" style="fill: #503079; stroke: #000000; stroke-linejoin: miter"/>
   </g>
   <g id="patch_79">
    <path d="M 239.919703 125.217391 
L 218.231414 112.695652 
L 218.231414 137.73913 
L 239.919703 150.26087 
z
" clip-path="url(#p5c285aa7dd)" style="fill: #503079; stroke: #000000; stroke-linejoin: miter"/>
   </g>
   <g id="patch_80">
    <path d="M 239.919703 100.173913 
L 218.231414 87.652174 
L 218.231414 112.695652 
L 239.919703 125.217391 
z
" clip-path="url(#p5c285aa7dd)" style="fill: #503079; stroke: #000000; stroke-linejoin: miter"/>
   </g>
   <g id="patch_81">
    <path d="M 239.919703 75.130435 
L 218.231414 62.608696 
L 218.231414 87.652174 
L 239.919703 100.173913 
z
" clip-path="url(#p5c285aa7dd)" style="fill: #503079; stroke: #000000; stroke-linejoin: miter"/>
   </g>
   <g id="patch_82">
    <path d="M 261.607991 187.826087 
L 239.919703 175.304348 
L 239.919703 200.347826 
L 261.607991 212.869565 
z
" clip-path="url(#p5c285aa7dd)" style="fill: #503079; stroke: #000000; stroke-linejoin: miter"/>
   </g>
   <g id="patch_83">
    <path d="M 261.607991 162.782609 
L 239.919703 150.26087 
L 239.919703 175.304348 
L 261.607991 187.826087 
z
" clip-path="url(#p5c285aa7dd)" style="fill: #503079; stroke: #000000; stroke-linejoin: miter"/>
   </g>
   <g id="patch_84">
    <path d="M 261.607991 137.73913 
L 239.919703 125.217391 
L 239.919703 150.26087 
L 261.607991 162.782609 
z
" clip-path="url(#p5c285aa7dd)" style="fill: #503079; stroke: #000000; stroke-linejoin: miter"/>
   </g>
   <g id="patch_85">
    <path d="M 261.607991 112.695652 
L 239.919703 100.173913 
L 239.919703 125.217391 
L 261.607991 137.73913 
z
" clip-path="url(#p5c285aa7dd)" style="fill: #503079; stroke: #000000; stroke-linejoin: miter"/>
   </g>
   <g id="patch_86">
    <path d="M 261.607991 87.652174 
L 239.919703 75.130435 
L 239.919703 100.173913 
L 261.607991 112.695652 
z
" clip-path="url(#p5c285aa7dd)" style="fill: #503079; stroke: #000000; stroke-linejoin: miter"/>
   </g>
   <g id="patch_87">
    <path d="M 131.478261 137.73913 
L 153.166549 125.217391 
L 131.478261 112.695652 
L 109.789972 125.217391 
z
" clip-path="url(#p5c285aa7dd)" style="fill: #add8ff; stroke: #000000; stroke-linejoin: miter"/>
   </g>
   <g id="patch_88">
    <path d="M 131.478261 137.73913 
L 153.166549 125.217391 
L 153.166549 150.26087 
L 131.478261 162.782609 
z
" clip-path="url(#p5c285aa7dd)" style="fill: #ff9175; stroke: #000000; stroke-linejoin: miter"/>
   </g>
   <g id="patch_89">
    <path d="M 131.478261 137.73913 
L 109.789972 125.217391 
L 109.789972 150.26087 
L 131.478261 162.782609 
z
" clip-path="url(#p5c285aa7dd)" style="fill: #503079; stroke: #000000; stroke-linejoin: miter"/>
   </g>
   <g id="patch_90">
    <path d="M 131.478261 112.695652 
L 153.166549 100.173913 
L 131.478261 87.652174 
L 109.789972 100.173913 
z
" clip-path="url(#p5c285aa7dd)" style="fill: #add8ff; stroke: #000000; stroke-linejoin: miter"/>
   </g>
   <g id="patch_91">
    <path d="M 131.478261 112.695652 
L 153.166549 100.173913 
L 153.166549 125.217391 
L 131.478261 137.73913 
z
" clip-path="url(#p5c285aa7dd)" style="fill: #ff9175; stroke: #000000; stroke-linejoin: miter"/>
   </g>
   <g id="patch_92">
    <path d="M 131.478261 112.695652 
L 109.789972 100.173913 
L 109.789972 125.217391 
L 131.478261 137.73913 
z
" clip-path="url(#p5c285aa7dd)" style="fill: #503079; stroke: #000000; stroke-linejoin: miter"/>
   </g>
   <g id="patch_93">
    <path d="M 131.478261 87.652174 
L 153.166549 75.130435 
L 131.478261 62.608696 
L 109.789972 75.130435 
z
" clip-path="url(#p5c285aa7dd)" style="fill: #add8ff; stroke: #000000; stroke-linejoin: miter"/>
   </g>
   <g id="patch_94">
    <path d="M 131.478261 87.652174 
L 153.166549 75.130435 
L 153.166549 100.173913 
L 131.478261 112.695652 
z
" clip-path="url(#p5c285aa7dd)" style="fill: #ff9175; stroke: #000000; stroke-linejoin: miter"/>
   </g>
   <g id="patch_95">
    <path d="M 131.478261 87.652174 
L 109.789972 75.130435 
L 109.789972 100.173913 
L 131.478261 112.695652 
z
" clip-path="url(#p5c285aa7dd)" style="fill: #503079; stroke: #000000; stroke-linejoin: miter"/>
   </g>
   <g id="patch_96">
    <path d="M 131.478261 62.608696 
L 153.166549 50.086957 
L 131.478261 37.565217 
L 109.789972 50.086957 
z
" clip-path="url(#p5c285aa7dd)" style="fill: #add8ff; stroke: #000000; stroke-linejoin: miter"/>
   </g>
   <g id="patch_97">
    <path d="M 131.478261 62.608696 
L 153.166549 50.086957 
L 153.166549 75.130435 
L 131.478261 87.652174 
z
" clip-path="url(#p5c285aa7dd)" style="fill: #ff9175; stroke: #000000; stroke-linejoin: miter"/>
   </g>
   <g id="patch_98">
    <path d="M 131.478261 62.608696 
L 109.789972 50.086957 
L 109.789972 75.130435 
L 131.478261 87.652174 
z
" clip-path="url(#p5c285aa7dd)" style="fill: #503079; stroke: #000000; stroke-linejoin: miter"/>
   </g>
   <g id="patch_99">
    <path d="M 131.478261 37.565217 
L 153.166549 25.043478 
L 131.478261 12.521739 
L 109.789972 25.043478 
z
" clip-path="url(#p5c285aa7dd)" style="fill: #add8ff; stroke: #000000; stroke-linejoin: miter"/>
   </g>
   <g id="patch_100">
    <path d="M 131.478261 37.565217 
L 153.166549 25.043478 
L 153.166549 50.086957 
L 131.478261 62.608696 
z
" clip-path="url(#p5c285aa7dd)" style="fill: #ff9175; stroke: #000000; stroke-linejoin: miter"/>
   </g>
   <g id="patch_101">
    <path d="M 131.478261 37.565217 
L 109.789972 25.043478 
L 109.789972 50.086957 
L 131.478261 62.608696 
z
" clip-path="url(#p5c285aa7dd)" style="fill: #503079; stroke: #000000; stroke-linejoin: miter"/>
   </g>
   <g id="patch_102">
    <path d="M 153.166549 150.26087 
L 174.854838 137.73913 
L 153.166549 125.217391 
L 131.478261 137.73913 
z
" clip-path="url(#p5c285aa7dd)" style="fill: #add8ff; stroke: #000000; stroke-linejoin: miter"/>
   </g>
   <g id="patch_103">
    <path d="M 153.166549 150.26087 
L 174.854838 137.73913 
L 174.854838 162.782609 
L 153.166549 175.304348 
z
" clip-path="url(#p5c285aa7dd)" style="fill: #ff9175; stroke: #000000; stroke-linejoin: miter"/>
   </g>
   <g id="patch_104">
    <path d="M 153.166549 150.26087 
L 131.478261 137.73913 
L 131.478261 162.782609 
L 153.166549 175.304348 
z
" clip-path="url(#p5c285aa7dd)" style="fill: #503079; stroke: #000000; stroke-linejoin: miter"/>
   </g>
   <g id="patch_105">
    <path d="M 153.166549 125.217391 
L 174.854838 112.695652 
L 153.166549 100.173913 
L 131.478261 112.695652 
z
" clip-path="url(#p5c285aa7dd)" style="fill: #add8ff; stroke: #000000; stroke-linejoin: miter"/>
   </g>
   <g id="patch_106">
    <path d="M 153.166549 125.217391 
L 174.854838 112.695652 
L 174.854838 137.73913 
L 153.166549 150.26087 
z
" clip-path="url(#p5c285aa7dd)" style="fill: #ff9175; stroke: #000000; stroke-linejoin: miter"/>
   </g>
   <g id="patch_107">
    <path d="M 153.166549 125.217391 
L 131.478261 112.695652 
L 131.478261 137.73913 
L 153.166549 150.26087 
z
" clip-path="url(#p5c285aa7dd)" style="fill: #503079; stroke: #000000; stroke-linejoin: miter"/>
   </g>
   <g id="patch_108">
    <path d="M 153.166549 100.173913 
L 174.854838 87.652174 
L 153.166549 75.130435 
L 131.478261 87.652174 
z
" clip-path="url(#p5c285aa7dd)" style="fill: #add8ff; stroke: #000000; stroke-linejoin: miter"/>
   </g>
   <g id="patch_109">
    <path d="M 153.166549 100.173913 
L 174.854838 87.652174 
L 174.854838 112.695652 
L 153.166549 125.217391 
z
" clip-path="url(#p5c285aa7dd)" style="fill: #ff9175; stroke: #000000; stroke-linejoin: miter"/>
   </g>
   <g id="patch_110">
    <path d="M 153.166549 100.173913 
L 131.478261 87.652174 
L 131.478261 112.695652 
L 153.166549 125.217391 
z
" clip-path="url(#p5c285aa7dd)" style="fill: #503079; stroke: #000000; stroke-linejoin: miter"/>
   </g>
   <g id="patch_111">
    <path d="M 153.166549 75.130435 
L 174.854838 62.608696 
L 153.166549 50.086957 
L 131.478261 62.608696 
z
" clip-path="url(#p5c285aa7dd)" style="fill: #add8ff; stroke: #000000; stroke-linejoin: miter"/>
   </g>
   <g id="patch_112">
    <path d="M 153.166549 75.130435 
L 174.854838 62.608696 
L 174.854838 87.652174 
L 153.166549 100.173913 
z
" clip-path="url(#p5c285aa7dd)" style="fill: #ff9175; stroke: #000000; stroke-linejoin: miter"/>
   </g>
   <g id="patch_113">
    <path d="M 153.166549 75.130435 
L 131.478261 62.608696 
L 131.478261 87.652174 
L 153.166549 100.173913 
z
" clip-path="url(#p5c285aa7dd)" style="fill: #503079; stroke: #000000; stroke-linejoin: miter"/>
   </g>
   <g id="patch_114">
    <path d="M 153.166549 50.086957 
L 174.854838 37.565217 
L 153.166549 25.043478 
L 131.478261 37.565217 
z
" clip-path="url(#p5c285aa7dd)" style="fill: #add8ff; stroke: #000000; stroke-linejoin: miter"/>
   </g>
   <g id="patch_115">
    <path d="M 153.166549 50.086957 
L 174.854838 37.565217 
L 174.854838 62.608696 
L 153.166549 75.130435 
z
" clip-path="url(#p5c285aa7dd)" style="fill: #ff9175; stroke: #000000; stroke-linejoin: miter"/>
   </g>
   <g id="patch_116">
    <path d="M 153.166549 50.086957 
L 131.478261 37.565217 
L 131.478261 62.608696 
L 153.166549 75.130435 
z
" clip-path="url(#p5c285aa7dd)" style="fill: #503079; stroke: #000000; stroke-linejoin: miter"/>
   </g>
   <g id="patch_117">
    <path d="M 174.854838 162.782609 
L 196.543126 150.26087 
L 174.854838 137.73913 
L 153.166549 150.26087 
z
" clip-path="url(#p5c285aa7dd)" style="fill: #add8ff; stroke: #000000; stroke-linejoin: miter"/>
   </g>
   <g id="patch_118">
    <path d="M 174.854838 162.782609 
L 196.543126 150.26087 
L 196.543126 175.304348 
L 174.854838 187.826087 
z
" clip-path="url(#p5c285aa7dd)" style="fill: #ff9175; stroke: #000000; stroke-linejoin: miter"/>
   </g>
   <g id="patch_119">
    <path d="M 174.854838 162.782609 
L 153.166549 150.26087 
L 153.166549 175.304348 
L 174.854838 187.826087 
z
" clip-path="url(#p5c285aa7dd)" style="fill: #503079; stroke: #000000; stroke-linejoin: miter"/>
   </g>
   <g id="patch_120">
    <path d="M 174.854838 137.73913 
L 196.543126 125.217391 
L 174.854838 112.695652 
L 153.166549 125.217391 
z
" clip-path="url(#p5c285aa7dd)" style="fill: #add8ff; stroke: #000000; stroke-linejoin: miter"/>
   </g>
   <g id="patch_121">
    <path d="M 174.854838 137.73913 
L 196.543126 125.217391 
L 196.543126 150.26087 
L 174.854838 162.782609 
z
" clip-path="url(#p5c285aa7dd)" style="fill: #ff9175; stroke: #000000; stroke-linejoin: miter"/>
   </g>
   <g id="patch_122">
    <path d="M 174.854838 137.73913 
L 153.166549 125.217391 
L 153.166549 150.26087 
L 174.854838 162.782609 
z
" clip-path="url(#p5c285aa7dd)" style="fill: #503079; stroke: #000000; stroke-linejoin: miter"/>
   </g>
   <g id="patch_123">
    <path d="M 174.854838 112.695652 
L 196.543126 100.173913 
L 174.854838 87.652174 
L 153.166549 100.173913 
z
" clip-path="url(#p5c285aa7dd)" style="fill: #add8ff; stroke: #000000; stroke-linejoin: miter"/>
   </g>
   <g id="patch_124">
    <path d="M 174.854838 112.695652 
L 196.543126 100.173913 
L 196.543126 125.217391 
L 174.854838 137.73913 
z
" clip-path="url(#p5c285aa7dd)" style="fill: #ff9175; stroke: #000000; stroke-linejoin: miter"/>
   </g>
   <g id="patch_125">
    <path d="M 174.854838 112.695652 
L 153.166549 100.173913 
L 153.166549 125.217391 
L 174.854838 137.73913 
z
" clip-path="url(#p5c285aa7dd)" style="fill: #503079; stroke: #000000; stroke-linejoin: miter"/>
   </g>
   <g id="patch_126">
    <path d="M 174.854838 87.652174 
L 196.543126 75.130435 
L 174.854838 62.608696 
L 153.166549 75.130435 
z
" clip-path="url(#p5c285aa7dd)" style="fill: #add8ff; stroke: #000000; stroke-linejoin: miter"/>
   </g>
   <g id="patch_127">
    <path d="M 174.854838 87.652174 
L 196.543126 75.130435 
L 196.543126 100.173913 
L 174.854838 112.695652 
z
" clip-path="url(#p5c285aa7dd)" style="fill: #ff9175; stroke: #000000; stroke-linejoin: miter"/>
   </g>
   <g id="patch_128">
    <path d="M 174.854838 87.652174 
L 153.166549 75.130435 
L 153.166549 100.173913 
L 174.854838 112.695652 
z
" clip-path="url(#p5c285aa7dd)" style="fill: #503079; stroke: #000000; stroke-linejoin: miter"/>
   </g>
   <g id="patch_129">
    <path d="M 174.854838 62.608696 
L 196.543126 50.086957 
L 174.854838 37.565217 
L 153.166549 50.086957 
z
" clip-path="url(#p5c285aa7dd)" style="fill: #add8ff; stroke: #000000; stroke-linejoin: miter"/>
   </g>
   <g id="patch_130">
    <path d="M 174.854838 62.608696 
L 196.543126 50.086957 
L 196.543126 75.130435 
L 174.854838 87.652174 
z
" clip-path="url(#p5c285aa7dd)" style="fill: #ff9175; stroke: #000000; stroke-linejoin: miter"/>
   </g>
   <g id="patch_131">
    <path d="M 174.854838 62.608696 
L 153.166549 50.086957 
L 153.166549 75.130435 
L 174.854838 87.652174 
z
" clip-path="url(#p5c285aa7dd)" style="fill: #503079; stroke: #000000; stroke-linejoin: miter"/>
   </g>
   <g id="patch_132">
    <path d="M 196.543126 175.304348 
L 218.231414 162.782609 
L 196.543126 150.26087 
L 174.854838 162.782609 
z
" clip-path="url(#p5c285aa7dd)" style="fill: #add8ff; stroke: #000000; stroke-linejoin: miter"/>
   </g>
   <g id="patch_133">
    <path d="M 196.543126 175.304348 
L 218.231414 162.782609 
L 218.231414 187.826087 
L 196.543126 200.347826 
z
" clip-path="url(#p5c285aa7dd)" style="fill: #ff9175; stroke: #000000; stroke-linejoin: miter"/>
   </g>
   <g id="patch_134">
    <path d="M 196.543126 175.304348 
L 174.854838 162.782609 
L 174.854838 187.826087 
L 196.543126 200.347826 
z
" clip-path="url(#p5c285aa7dd)" style="fill: #503079; stroke: #000000; stroke-linejoin: miter"/>
   </g>
   <g id="patch_135">
    <path d="M 196.543126 150.26087 
L 218.231414 137.73913 
L 196.543126 125.217391 
L 174.854838 137.73913 
z
" clip-path="url(#p5c285aa7dd)" style="fill: #add8ff; stroke: #000000; stroke-linejoin: miter"/>
   </g>
   <g id="patch_136">
    <path d="M 196.543126 150.26087 
L 218.231414 137.73913 
L 218.231414 162.782609 
L 196.543126 175.304348 
z
" clip-path="url(#p5c285aa7dd)" style="fill: #ff9175; stroke: #000000; stroke-linejoin: miter"/>
   </g>
   <g id="patch_137">
    <path d="M 196.543126 150.26087 
L 174.854838 137.73913 
L 174.854838 162.782609 
L 196.543126 175.304348 
z
" clip-path="url(#p5c285aa7dd)" style="fill: #503079; stroke: #000000; stroke-linejoin: miter"/>
   </g>
   <g id="patch_138">
    <path d="M 196.543126 125.217391 
L 218.231414 112.695652 
L 196.543126 100.173913 
L 174.854838 112.695652 
z
" clip-path="url(#p5c285aa7dd)" style="fill: #add8ff; stroke: #000000; stroke-linejoin: miter"/>
   </g>
   <g id="patch_139">
    <path d="M 196.543126 125.217391 
L 218.231414 112.695652 
L 218.231414 137.73913 
L 196.543126 150.26087 
z
" clip-path="url(#p5c285aa7dd)" style="fill: #ff9175; stroke: #000000; stroke-linejoin: miter"/>
   </g>
   <g id="patch_140">
    <path d="M 196.543126 125.217391 
L 174.854838 112.695652 
L 174.854838 137.73913 
L 196.543126 150.26087 
z
" clip-path="url(#p5c285aa7dd)" style="fill: #503079; stroke: #000000; stroke-linejoin: miter"/>
   </g>
   <g id="patch_141">
    <path d="M 196.543126 100.173913 
L 218.231414 87.652174 
L 196.543126 75.130435 
L 174.854838 87.652174 
z
" clip-path="url(#p5c285aa7dd)" style="fill: #add8ff; stroke: #000000; stroke-linejoin: miter"/>
   </g>
   <g id="patch_142">
    <path d="M 196.543126 100.173913 
L 218.231414 87.652174 
L 218.231414 112.695652 
L 196.543126 125.217391 
z
" clip-path="url(#p5c285aa7dd)" style="fill: #ff9175; stroke: #000000; stroke-linejoin: miter"/>
   </g>
   <g id="patch_143">
    <path d="M 196.543126 100.173913 
L 174.854838 87.652174 
L 174.854838 112.695652 
L 196.543126 125.217391 
z
" clip-path="url(#p5c285aa7dd)" style="fill: #503079; stroke: #000000; stroke-linejoin: miter"/>
   </g>
   <g id="patch_144">
    <path d="M 196.543126 75.130435 
L 218.231414 62.608696 
L 196.543126 50.086957 
L 174.854838 62.608696 
z
" clip-path="url(#p5c285aa7dd)" style="fill: #add8ff; stroke: #000000; stroke-linejoin: miter"/>
   </g>
   <g id="patch_145">
    <path d="M 196.543126 75.130435 
L 218.231414 62.608696 
L 218.231414 87.652174 
L 196.543126 100.173913 
z
" clip-path="url(#p5c285aa7dd)" style="fill: #ff9175; stroke: #000000; stroke-linejoin: miter"/>
   </g>
   <g id="patch_146">
    <path d="M 196.543126 75.130435 
L 174.854838 62.608696 
L 174.854838 87.652174 
L 196.543126 100.173913 
z
" clip-path="url(#p5c285aa7dd)" style="fill: #503079; stroke: #000000; stroke-linejoin: miter"/>
   </g>
   <g id="patch_147">
    <path d="M 218.231414 187.826087 
L 239.919703 175.304348 
L 218.231414 162.782609 
L 196.543126 175.304348 
z
" clip-path="url(#p5c285aa7dd)" style="fill: #add8ff; stroke: #000000; stroke-linejoin: miter"/>
   </g>
   <g id="patch_148">
    <path d="M 218.231414 187.826087 
L 239.919703 175.304348 
L 239.919703 200.347826 
L 218.231414 212.869565 
z
" clip-path="url(#p5c285aa7dd)" style="fill: #ff9175; stroke: #000000; stroke-linejoin: miter"/>
   </g>
   <g id="patch_149">
    <path d="M 218.231414 187.826087 
L 196.543126 175.304348 
L 196.543126 200.347826 
L 218.231414 212.869565 
z
" clip-path="url(#p5c285aa7dd)" style="fill: #503079; stroke: #000000; stroke-linejoin: miter"/>
   </g>
   <g id="patch_150">
    <path d="M 218.231414 162.782609 
L 239.919703 150.26087 
L 218.231414 137.73913 
L 196.543126 150.26087 
z
" clip-path="url(#p5c285aa7dd)" style="fill: #add8ff; stroke: #000000; stroke-linejoin: miter"/>
   </g>
   <g id="patch_151">
    <path d="M 218.231414 162.782609 
L 239.919703 150.26087 
L 239.919703 175.304348 
L 218.231414 187.826087 
z
" clip-path="url(#p5c285aa7dd)" style="fill: #ff9175; stroke: #000000; stroke-linejoin: miter"/>
   </g>
   <g id="patch_152">
    <path d="M 218.231414 162.782609 
L 196.543126 150.26087 
L 196.543126 175.304348 
L 218.231414 187.826087 
z
" clip-path="url(#p5c285aa7dd)" style="fill: #503079; stroke: #000000; stroke-linejoin: miter"/>
   </g>
   <g id="patch_153">
    <path d="M 218.231414 137.73913 
L 239.919703 125.217391 
L 218.231414 112.695652 
L 196.543126 125.217391 
z
" clip-path="url(#p5c285aa7dd)" style="fill: #add8ff; stroke: #000000; stroke-linejoin: miter"/>
   </g>
   <g id="patch_154">
    <path d="M 218.231414 137.73913 
L 239.919703 125.217391 
L 239.919703 150.26087 
L 218.231414 162.782609 
z
" clip-path="url(#p5c285aa7dd)" style="fill: #ff9175; stroke: #000000; stroke-linejoin: miter"/>
   </g>
   <g id="patch_155">
    <path d="M 218.231414 137.73913 
L 196.543126 125.217391 
L 196.543126 150.26087 
L 218.231414 162.782609 
z
" clip-path="url(#p5c285aa7dd)" style="fill: #503079; stroke: #000000; stroke-linejoin: miter"/>
   </g>
   <g id="patch_156">
    <path d="M 218.231414 112.695652 
L 239.919703 100.173913 
L 218.231414 87.652174 
L 196.543126 100.173913 
z
" clip-path="url(#p5c285aa7dd)" style="fill: #add8ff; stroke: #000000; stroke-linejoin: miter"/>
   </g>
   <g id="patch_157">
    <path d="M 218.231414 112.695652 
L 239.919703 100.173913 
L 239.919703 125.217391 
L 218.231414 137.73913 
z
" clip-path="url(#p5c285aa7dd)" style="fill: #ff9175; stroke: #000000; stroke-linejoin: miter"/>
   </g>
   <g id="patch_158">
    <path d="M 218.231414 112.695652 
L 196.543126 100.173913 
L 196.543126 125.217391 
L 218.231414 137.73913 
z
" clip-path="url(#p5c285aa7dd)" style="fill: #503079; stroke: #000000; stroke-linejoin: miter"/>
   </g>
   <g id="patch_159">
    <path d="M 239.919703 200.347826 
L 261.607991 187.826087 
L 239.919703 175.304348 
L 218.231414 187.826087 
z
" clip-path="url(#p5c285aa7dd)" style="fill: #add8ff; stroke: #000000; stroke-linejoin: miter"/>
   </g>
   <g id="patch_160">
    <path d="M 239.919703 200.347826 
L 261.607991 187.826087 
L 261.607991 212.869565 
L 239.919703 225.391304 
z
" clip-path="url(#p5c285aa7dd)" style="fill: #ff9175; stroke: #000000; stroke-linejoin: miter"/>
   </g>
   <g id="patch_161">
    <path d="M 239.919703 200.347826 
L 218.231414 187.826087 
L 218.231414 212.869565 
L 239.919703 225.391304 
z
" clip-path="url(#p5c285aa7dd)" style="fill: #503079; stroke: #000000; stroke-linejoin: miter"/>
   </g>
   <g id="patch_162">
    <path d="M 239.919703 175.304348 
L 261.607991 162.782609 
L 239.919703 150.26087 
L 218.231414 162.782609 
z
" clip-path="url(#p5c285aa7dd)" style="fill: #add8ff; stroke: #000000; stroke-linejoin: miter"/>
   </g>
   <g id="patch_163">
    <path d="M 239.919703 175.304348 
L 261.607991 162.782609 
L 261.607991 187.826087 
L 239.919703 200.347826 
z
" clip-path="url(#p5c285aa7dd)" style="fill: #ff9175; stroke: #000000; stroke-linejoin: miter"/>
   </g>
   <g id="patch_164">
    <path d="M 239.919703 175.304348 
L 218.231414 162.782609 
L 218.231414 187.826087 
L 239.919703 200.347826 
z
" clip-path="url(#p5c285aa7dd)" style="fill: #503079; stroke: #000000; stroke-linejoin: miter"/>
   </g>
   <g id="patch_165">
    <path d="M 239.919703 150.26087 
L 261.607991 137.73913 
L 239.919703 125.217391 
L 218.231414 137.73913 
z
" clip-path="url(#p5c285aa7dd)" style="fill: #add8ff; stroke: #000000; stroke-linejoin: miter"/>
   </g>
   <g id="patch_166">
    <path d="M 239.919703 150.26087 
L 261.607991 137.73913 
L 261.607991 162.782609 
L 239.919703 175.304348 
z
" clip-path="url(#p5c285aa7dd)" style="fill: #ff9175; stroke: #000000; stroke-linejoin: miter"/>
   </g>
   <g id="patch_167">
    <path d="M 239.919703 150.26087 
L 218.231414 137.73913 
L 218.231414 162.782609 
L 239.919703 175.304348 
z
" clip-path="url(#p5c285aa7dd)" style="fill: #503079; stroke: #000000; stroke-linejoin: miter"/>
   </g>
   <g id="patch_168">
    <path d="M 109.789972 150.26087 
L 131.478261 137.73913 
L 109.789972 125.217391 
L 88.101684 137.73913 
z
" clip-path="url(#p5c285aa7dd)" style="fill: #add8ff; stroke: #000000; stroke-linejoin: miter"/>
   </g>
   <g id="patch_169">
    <path d="M 109.789972 150.26087 
L 131.478261 137.73913 
L 131.478261 162.782609 
L 109.789972 175.304348 
z
" clip-path="url(#p5c285aa7dd)" style="fill: #ff9175; stroke: #000000; stroke-linejoin: miter"/>
   </g>
   <g id="patch_170">
    <path d="M 109.789972 150.26087 
L 88.101684 137.73913 
L 88.101684 162.782609 
L 109.789972 175.304348 
z
" clip-path="url(#p5c285aa7dd)" style="fill: #503079; stroke: #000000; stroke-linejoin: miter"/>
   </g>
   <g id="patch_171">
    <path d="M 109.789972 125.217391 
L 131.478261 112.695652 
L 109.789972 100.173913 
L 88.101684 112.695652 
z
" clip-path="url(#p5c285aa7dd)" style="fill: #add8ff; stroke: #000000; stroke-linejoin: miter"/>
   </g>
   <g id="patch_172">
    <path d="M 109.789972 125.217391 
L 131.478261 112.695652 
L 131.478261 137.73913 
L 109.789972 150.26087 
z
" clip-path="url(#p5c285aa7dd)" style="fill: #ff9175; stroke: #000000; stroke-linejoin: miter"/>
   </g>
   <g id="patch_173">
    <path d="M 109.789972 125.217391 
L 88.101684 112.695652 
L 88.101684 137.73913 
L 109.789972 150.26087 
z
" clip-path="url(#p5c285aa7dd)" style="fill: #503079; stroke: #000000; stroke-linejoin: miter"/>
   </g>
   <g id="patch_174">
    <path d="M 109.789972 100.173913 
L 131.478261 87.652174 
L 109.789972 75.130435 
L 88.101684 87.652174 
z
" clip-path="url(#p5c285aa7dd)" style="fill: #add8ff; stroke: #000000; stroke-linejoin: miter"/>
   </g>
   <g id="patch_175">
    <path d="M 109.789972 100.173913 
L 131.478261 87.652174 
L 131.478261 112.695652 
L 109.789972 125.217391 
z
" clip-path="url(#p5c285aa7dd)" style="fill: #ff9175; stroke: #000000; stroke-linejoin: miter"/>
   </g>
   <g id="patch_176">
    <path d="M 109.789972 100.173913 
L 88.101684 87.652174 
L 88.101684 112.695652 
L 109.789972 125.217391 
z
" clip-path="url(#p5c285aa7dd)" style="fill: #503079; stroke: #000000; stroke-linejoin: miter"/>
   </g>
   <g id="patch_177">
    <path d="M 109.789972 75.130435 
L 131.478261 62.608696 
L 109.789972 50.086957 
L 88.101684 62.608696 
z
" clip-path="url(#p5c285aa7dd)" style="fill: #add8ff; stroke: #000000; stroke-linejoin: miter"/>
   </g>
   <g id="patch_178">
    <path d="M 109.789972 75.130435 
L 131.478261 62.608696 
L 131.478261 87.652174 
L 109.789972 100.173913 
z
" clip-path="url(#p5c285aa7dd)" style="fill: #ff9175; stroke: #000000; stroke-linejoin: miter"/>
   </g>
   <g id="patch_179">
    <path d="M 109.789972 75.130435 
L 88.101684 62.608696 
L 88.101684 87.652174 
L 109.789972 100.173913 
z
" clip-path="url(#p5c285aa7dd)" style="fill: #503079; stroke: #000000; stroke-linejoin: miter"/>
   </g>
   <g id="patch_180">
    <path d="M 109.789972 50.086957 
L 131.478261 37.565217 
L 109.789972 25.043478 
L 88.101684 37.565217 
z
" clip-path="url(#p5c285aa7dd)" style="fill: #add8ff; stroke: #000000; stroke-linejoin: miter"/>
   </g>
   <g id="patch_181">
    <path d="M 109.789972 50.086957 
L 131.478261 37.565217 
L 131.478261 62.608696 
L 109.789972 75.130435 
z
" clip-path="url(#p5c285aa7dd)" style="fill: #ff9175; stroke: #000000; stroke-linejoin: miter"/>
   </g>
   <g id="patch_182">
    <path d="M 109.789972 50.086957 
L 88.101684 37.565217 
L 88.101684 62.608696 
L 109.789972 75.130435 
z
" clip-path="url(#p5c285aa7dd)" style="fill: #503079; stroke: #000000; stroke-linejoin: miter"/>
   </g>
   <g id="patch_183">
    <path d="M 131.478261 162.782609 
L 153.166549 150.26087 
L 131.478261 137.73913 
L 109.789972 150.26087 
z
" clip-path="url(#p5c285aa7dd)" style="fill: #add8ff; stroke: #000000; stroke-linejoin: miter"/>
   </g>
   <g id="patch_184">
    <path d="M 131.478261 162.782609 
L 153.166549 150.26087 
L 153.166549 175.304348 
L 131.478261 187.826087 
z
" clip-path="url(#p5c285aa7dd)" style="fill: #ff9175; stroke: #000000; stroke-linejoin: miter"/>
   </g>
   <g id="patch_185">
    <path d="M 131.478261 162.782609 
L 109.789972 150.26087 
L 109.789972 175.304348 
L 131.478261 187.826087 
z
" clip-path="url(#p5c285aa7dd)" style="fill: #503079; stroke: #000000; stroke-linejoin: miter"/>
   </g>
   <g id="patch_186">
    <path d="M 131.478261 137.73913 
L 153.166549 125.217391 
L 131.478261 112.695652 
L 109.789972 125.217391 
z
" clip-path="url(#p5c285aa7dd)" style="fill: #add8ff; stroke: #000000; stroke-linejoin: miter"/>
   </g>
   <g id="patch_187">
    <path d="M 131.478261 137.73913 
L 153.166549 125.217391 
L 153.166549 150.26087 
L 131.478261 162.782609 
z
" clip-path="url(#p5c285aa7dd)" style="fill: #ff9175; stroke: #000000; stroke-linejoin: miter"/>
   </g>
   <g id="patch_188">
    <path d="M 131.478261 137.73913 
L 109.789972 125.217391 
L 109.789972 150.26087 
L 131.478261 162.782609 
z
" clip-path="url(#p5c285aa7dd)" style="fill: #503079; stroke: #000000; stroke-linejoin: miter"/>
   </g>
   <g id="patch_189">
    <path d="M 131.478261 112.695652 
L 153.166549 100.173913 
L 131.478261 87.652174 
L 109.789972 100.173913 
z
" clip-path="url(#p5c285aa7dd)" style="fill: #add8ff; stroke: #000000; stroke-linejoin: miter"/>
   </g>
   <g id="patch_190">
    <path d="M 131.478261 112.695652 
L 153.166549 100.173913 
L 153.166549 125.217391 
L 131.478261 137.73913 
z
" clip-path="url(#p5c285aa7dd)" style="fill: #ff9175; stroke: #000000; stroke-linejoin: miter"/>
   </g>
   <g id="patch_191">
    <path d="M 131.478261 112.695652 
L 109.789972 100.173913 
L 109.789972 125.217391 
L 131.478261 137.73913 
z
" clip-path="url(#p5c285aa7dd)" style="fill: #503079; stroke: #000000; stroke-linejoin: miter"/>
   </g>
   <g id="patch_192">
    <path d="M 131.478261 87.652174 
L 153.166549 75.130435 
L 131.478261 62.608696 
L 109.789972 75.130435 
z
" clip-path="url(#p5c285aa7dd)" style="fill: #add8ff; stroke: #000000; stroke-linejoin: miter"/>
   </g>
   <g id="patch_193">
    <path d="M 131.478261 87.652174 
L 153.166549 75.130435 
L 153.166549 100.173913 
L 131.478261 112.695652 
z
" clip-path="url(#p5c285aa7dd)" style="fill: #ff9175; stroke: #000000; stroke-linejoin: miter"/>
   </g>
   <g id="patch_194">
    <path d="M 131.478261 87.652174 
L 109.789972 75.130435 
L 109.789972 100.173913 
L 131.478261 112.695652 
z
" clip-path="url(#p5c285aa7dd)" style="fill: #503079; stroke: #000000; stroke-linejoin: miter"/>
   </g>
   <g id="patch_195">
    <path d="M 153.166549 175.304348 
L 174.854838 162.782609 
L 153.166549 150.26087 
L 131.478261 162.782609 
z
" clip-path="url(#p5c285aa7dd)" style="fill: #add8ff; stroke: #000000; stroke-linejoin: miter"/>
   </g>
   <g id="patch_196">
    <path d="M 153.166549 175.304348 
L 174.854838 162.782609 
L 174.854838 187.826087 
L 153.166549 200.347826 
z
" clip-path="url(#p5c285aa7dd)" style="fill: #ff9175; stroke: #000000; stroke-linejoin: miter"/>
   </g>
   <g id="patch_197">
    <path d="M 153.166549 175.304348 
L 131.478261 162.782609 
L 131.478261 187.826087 
L 153.166549 200.347826 
z
" clip-path="url(#p5c285aa7dd)" style="fill: #503079; stroke: #000000; stroke-linejoin: miter"/>
   </g>
   <g id="patch_198">
    <path d="M 153.166549 150.26087 
L 174.854838 137.73913 
L 153.166549 125.217391 
L 131.478261 137.73913 
z
" clip-path="url(#p5c285aa7dd)" style="fill: #add8ff; stroke: #000000; stroke-linejoin: miter"/>
   </g>
   <g id="patch_199">
    <path d="M 153.166549 150.26087 
L 174.854838 137.73913 
L 174.854838 162.782609 
L 153.166549 175.304348 
z
" clip-path="url(#p5c285aa7dd)" style="fill: #ff9175; stroke: #000000; stroke-linejoin: miter"/>
   </g>
   <g id="patch_200">
    <path d="M 153.166549 150.26087 
L 131.478261 137.73913 
L 131.478261 162.782609 
L 153.166549 175.304348 
z
" clip-path="url(#p5c285aa7dd)" style="fill: #503079; stroke: #000000; stroke-linejoin: miter"/>
   </g>
   <g id="patch_201">
    <path d="M 153.166549 125.217391 
L 174.854838 112.695652 
L 153.166549 100.173913 
L 131.478261 112.695652 
z
" clip-path="url(#p5c285aa7dd)" style="fill: #add8ff; stroke: #000000; stroke-linejoin: miter"/>
   </g>
   <g id="patch_202">
    <path d="M 153.166549 125.217391 
L 174.854838 112.695652 
L 174.854838 137.73913 
L 153.166549 150.26087 
z
" clip-path="url(#p5c285aa7dd)" style="fill: #ff9175; stroke: #000000; stroke-linejoin: miter"/>
   </g>
   <g id="patch_203">
    <path d="M 153.166549 125.217391 
L 131.478261 112.695652 
L 131.478261 137.73913 
L 153.166549 150.26087 
z
" clip-path="url(#p5c285aa7dd)" style="fill: #503079; stroke: #000000; stroke-linejoin: miter"/>
   </g>
   <g id="patch_204">
    <path d="M 153.166549 100.173913 
L 174.854838 87.652174 
L 153.166549 75.130435 
L 131.478261 87.652174 
z
" clip-path="url(#p5c285aa7dd)" style="fill: #add8ff; stroke: #000000; stroke-linejoin: miter"/>
   </g>
   <g id="patch_205">
    <path d="M 153.166549 100.173913 
L 174.854838 87.652174 
L 174.854838 112.695652 
L 153.166549 125.217391 
z
" clip-path="url(#p5c285aa7dd)" style="fill: #ff9175; stroke: #000000; stroke-linejoin: miter"/>
   </g>
   <g id="patch_206">
    <path d="M 153.166549 100.173913 
L 131.478261 87.652174 
L 131.478261 112.695652 
L 153.166549 125.217391 
z
" clip-path="url(#p5c285aa7dd)" style="fill: #503079; stroke: #000000; stroke-linejoin: miter"/>
   </g>
   <g id="patch_207">
    <path d="M 174.854838 187.826087 
L 196.543126 175.304348 
L 174.854838 162.782609 
L 153.166549 175.304348 
z
" clip-path="url(#p5c285aa7dd)" style="fill: #add8ff; stroke: #000000; stroke-linejoin: miter"/>
   </g>
   <g id="patch_208">
    <path d="M 174.854838 187.826087 
L 196.543126 175.304348 
L 196.543126 200.347826 
L 174.854838 212.869565 
z
" clip-path="url(#p5c285aa7dd)" style="fill: #ff9175; stroke: #000000; stroke-linejoin: miter"/>
   </g>
   <g id="patch_209">
    <path d="M 174.854838 187.826087 
L 153.166549 175.304348 
L 153.166549 200.347826 
L 174.854838 212.869565 
z
" clip-path="url(#p5c285aa7dd)" style="fill: #503079; stroke: #000000; stroke-linejoin: miter"/>
   </g>
   <g id="patch_210">
    <path d="M 174.854838 162.782609 
L 196.543126 150.26087 
L 174.854838 137.73913 
L 153.166549 150.26087 
z
" clip-path="url(#p5c285aa7dd)" style="fill: #add8ff; stroke: #000000; stroke-linejoin: miter"/>
   </g>
   <g id="patch_211">
    <path d="M 174.854838 162.782609 
L 196.543126 150.26087 
L 196.543126 175.304348 
L 174.854838 187.826087 
z
" clip-path="url(#p5c285aa7dd)" style="fill: #ff9175; stroke: #000000; stroke-linejoin: miter"/>
   </g>
   <g id="patch_212">
    <path d="M 174.854838 162.782609 
L 153.166549 150.26087 
L 153.166549 175.304348 
L 174.854838 187.826087 
z
" clip-path="url(#p5c285aa7dd)" style="fill: #503079; stroke: #000000; stroke-linejoin: miter"/>
   </g>
   <g id="patch_213">
    <path d="M 174.854838 137.73913 
L 196.543126 125.217391 
L 174.854838 112.695652 
L 153.166549 125.217391 
z
" clip-path="url(#p5c285aa7dd)" style="fill: #add8ff; stroke: #000000; stroke-linejoin: miter"/>
   </g>
   <g id="patch_214">
    <path d="M 174.854838 137.73913 
L 196.543126 125.217391 
L 196.543126 150.26087 
L 174.854838 162.782609 
z
" clip-path="url(#p5c285aa7dd)" style="fill: #ff9175; stroke: #000000; stroke-linejoin: miter"/>
   </g>
   <g id="patch_215">
    <path d="M 174.854838 137.73913 
L 153.166549 125.217391 
L 153.166549 150.26087 
L 174.854838 162.782609 
z
" clip-path="url(#p5c285aa7dd)" style="fill: #503079; stroke: #000000; stroke-linejoin: miter"/>
   </g>
   <g id="patch_216">
    <path d="M 174.854838 112.695652 
L 196.543126 100.173913 
L 174.854838 87.652174 
L 153.166549 100.173913 
z
" clip-path="url(#p5c285aa7dd)" style="fill: #add8ff; stroke: #000000; stroke-linejoin: miter"/>
   </g>
   <g id="patch_217">
    <path d="M 174.854838 112.695652 
L 196.543126 100.173913 
L 196.543126 125.217391 
L 174.854838 137.73913 
z
" clip-path="url(#p5c285aa7dd)" style="fill: #ff9175; stroke: #000000; stroke-linejoin: miter"/>
   </g>
   <g id="patch_218">
    <path d="M 174.854838 112.695652 
L 153.166549 100.173913 
L 153.166549 125.217391 
L 174.854838 137.73913 
z
" clip-path="url(#p5c285aa7dd)" style="fill: #503079; stroke: #000000; stroke-linejoin: miter"/>
   </g>
   <g id="patch_219">
    <path d="M 196.543126 200.347826 
L 218.231414 187.826087 
L 196.543126 175.304348 
L 174.854838 187.826087 
z
" clip-path="url(#p5c285aa7dd)" style="fill: #add8ff; stroke: #000000; stroke-linejoin: miter"/>
   </g>
   <g id="patch_220">
    <path d="M 196.543126 200.347826 
L 218.231414 187.826087 
L 218.231414 212.869565 
L 196.543126 225.391304 
z
" clip-path="url(#p5c285aa7dd)" style="fill: #ff9175; stroke: #000000; stroke-linejoin: miter"/>
   </g>
   <g id="patch_221">
    <path d="M 196.543126 200.347826 
L 174.854838 187.826087 
L 174.854838 212.869565 
L 196.543126 225.391304 
z
" clip-path="url(#p5c285aa7dd)" style="fill: #503079; stroke: #000000; stroke-linejoin: miter"/>
   </g>
   <g id="patch_222">
    <path d="M 218.231414 212.869565 
L 239.919703 200.347826 
L 218.231414 187.826087 
L 196.543126 200.347826 
z
" clip-path="url(#p5c285aa7dd)" style="fill: #add8ff; stroke: #000000; stroke-linejoin: miter"/>
   </g>
   <g id="patch_223">
    <path d="M 218.231414 212.869565 
L 239.919703 200.347826 
L 239.919703 225.391304 
L 218.231414 237.913043 
z
" clip-path="url(#p5c285aa7dd)" style="fill: #ff9175; stroke: #000000; stroke-linejoin: miter"/>
   </g>
   <g id="patch_224">
    <path d="M 218.231414 212.869565 
L 196.543126 200.347826 
L 196.543126 225.391304 
L 218.231414 237.913043 
z
" clip-path="url(#p5c285aa7dd)" style="fill: #503079; stroke: #000000; stroke-linejoin: miter"/>
   </g>
   <g id="patch_225">
    <path d="M 88.101684 162.782609 
L 109.789972 150.26087 
L 88.101684 137.73913 
L 66.413396 150.26087 
z
" clip-path="url(#p5c285aa7dd)" style="fill: #add8ff; stroke: #000000; stroke-linejoin: miter"/>
   </g>
   <g id="patch_226">
    <path d="M 88.101684 162.782609 
L 109.789972 150.26087 
L 109.789972 175.304348 
L 88.101684 187.826087 
z
" clip-path="url(#p5c285aa7dd)" style="fill: #ff9175; stroke: #000000; stroke-linejoin: miter"/>
   </g>
   <g id="patch_227">
    <path d="M 88.101684 162.782609 
L 66.413396 150.26087 
L 66.413396 175.304348 
L 88.101684 187.826087 
z
" clip-path="url(#p5c285aa7dd)" style="fill: #503079; stroke: #000000; stroke-linejoin: miter"/>
   </g>
   <g id="patch_228">
    <path d="M 88.101684 137.73913 
L 109.789972 125.217391 
L 88.101684 112.695652 
L 66.413396 125.217391 
z
" clip-path="url(#p5c285aa7dd)" style="fill: #add8ff; stroke: #000000; stroke-linejoin: miter"/>
   </g>
   <g id="patch_229">
    <path d="M 88.101684 137.73913 
L 109.789972 125.217391 
L 109.789972 150.26087 
L 88.101684 162.782609 
z
" clip-path="url(#p5c285aa7dd)" style="fill: #ff9175; stroke: #000000; stroke-linejoin: miter"/>
   </g>
   <g id="patch_230">
    <path d="M 88.101684 137.73913 
L 66.413396 125.217391 
L 66.413396 150.26087 
L 88.101684 162.782609 
z
" clip-path="url(#p5c285aa7dd)" style="fill: #503079; stroke: #000000; stroke-linejoin: miter"/>
   </g>
   <g id="patch_231">
    <path d="M 88.101684 112.695652 
L 109.789972 100.173913 
L 88.101684 87.652174 
L 66.413396 100.173913 
z
" clip-path="url(#p5c285aa7dd)" style="fill: #add8ff; stroke: #000000; stroke-linejoin: miter"/>
   </g>
   <g id="patch_232">
    <path d="M 88.101684 112.695652 
L 109.789972 100.173913 
L 109.789972 125.217391 
L 88.101684 137.73913 
z
" clip-path="url(#p5c285aa7dd)" style="fill: #ff9175; stroke: #000000; stroke-linejoin: miter"/>
   </g>
   <g id="patch_233">
    <path d="M 88.101684 112.695652 
L 66.413396 100.173913 
L 66.413396 125.217391 
L 88.101684 137.73913 
z
" clip-path="url(#p5c285aa7dd)" style="fill: #503079; stroke: #000000; stroke-linejoin: miter"/>
   </g>
   <g id="patch_234">
    <path d="M 88.101684 87.652174 
L 109.789972 75.130435 
L 88.101684 62.608696 
L 66.413396 75.130435 
z
" clip-path="url(#p5c285aa7dd)" style="fill: #add8ff; stroke: #000000; stroke-linejoin: miter"/>
   </g>
   <g id="patch_235">
    <path d="M 88.101684 87.652174 
L 109.789972 75.130435 
L 109.789972 100.173913 
L 88.101684 112.695652 
z
" clip-path="url(#p5c285aa7dd)" style="fill: #ff9175; stroke: #000000; stroke-linejoin: miter"/>
   </g>
   <g id="patch_236">
    <path d="M 88.101684 87.652174 
L 66.413396 75.130435 
L 66.413396 100.173913 
L 88.101684 112.695652 
z
" clip-path="url(#p5c285aa7dd)" style="fill: #503079; stroke: #000000; stroke-linejoin: miter"/>
   </g>
   <g id="patch_237">
    <path d="M 109.789972 175.304348 
L 131.478261 162.782609 
L 109.789972 150.26087 
L 88.101684 162.782609 
z
" clip-path="url(#p5c285aa7dd)" style="fill: #add8ff; stroke: #000000; stroke-linejoin: miter"/>
   </g>
   <g id="patch_238">
    <path d="M 109.789972 175.304348 
L 131.478261 162.782609 
L 131.478261 187.826087 
L 109.789972 200.347826 
z
" clip-path="url(#p5c285aa7dd)" style="fill: #ff9175; stroke: #000000; stroke-linejoin: miter"/>
   </g>
   <g id="patch_239">
    <path d="M 109.789972 175.304348 
L 88.101684 162.782609 
L 88.101684 187.826087 
L 109.789972 200.347826 
z
" clip-path="url(#p5c285aa7dd)" style="fill: #503079; stroke: #000000; stroke-linejoin: miter"/>
   </g>
   <g id="patch_240">
    <path d="M 109.789972 150.26087 
L 131.478261 137.73913 
L 109.789972 125.217391 
L 88.101684 137.73913 
z
" clip-path="url(#p5c285aa7dd)" style="fill: #add8ff; stroke: #000000; stroke-linejoin: miter"/>
   </g>
   <g id="patch_241">
    <path d="M 109.789972 150.26087 
L 131.478261 137.73913 
L 131.478261 162.782609 
L 109.789972 175.304348 
z
" clip-path="url(#p5c285aa7dd)" style="fill: #ff9175; stroke: #000000; stroke-linejoin: miter"/>
   </g>
   <g id="patch_242">
    <path d="M 109.789972 150.26087 
L 88.101684 137.73913 
L 88.101684 162.782609 
L 109.789972 175.304348 
z
" clip-path="url(#p5c285aa7dd)" style="fill: #503079; stroke: #000000; stroke-linejoin: miter"/>
   </g>
   <g id="patch_243">
    <path d="M 109.789972 125.217391 
L 131.478261 112.695652 
L 109.789972 100.173913 
L 88.101684 112.695652 
z
" clip-path="url(#p5c285aa7dd)" style="fill: #add8ff; stroke: #000000; stroke-linejoin: miter"/>
   </g>
   <g id="patch_244">
    <path d="M 109.789972 125.217391 
L 131.478261 112.695652 
L 131.478261 137.73913 
L 109.789972 150.26087 
z
" clip-path="url(#p5c285aa7dd)" style="fill: #ff9175; stroke: #000000; stroke-linejoin: miter"/>
   </g>
   <g id="patch_245">
    <path d="M 109.789972 125.217391 
L 88.101684 112.695652 
L 88.101684 137.73913 
L 109.789972 150.26087 
z
" clip-path="url(#p5c285aa7dd)" style="fill: #503079; stroke: #000000; stroke-linejoin: miter"/>
   </g>
   <g id="patch_246">
    <path d="M 109.789972 100.173913 
L 131.478261 87.652174 
L 109.789972 75.130435 
L 88.101684 87.652174 
z
" clip-path="url(#p5c285aa7dd)" style="fill: #add8ff; stroke: #000000; stroke-linejoin: miter"/>
   </g>
   <g id="patch_247">
    <path d="M 109.789972 100.173913 
L 131.478261 87.652174 
L 131.478261 112.695652 
L 109.789972 125.217391 
z
" clip-path="url(#p5c285aa7dd)" style="fill: #ff9175; stroke: #000000; stroke-linejoin: miter"/>
   </g>
   <g id="patch_248">
    <path d="M 109.789972 100.173913 
L 88.101684 87.652174 
L 88.101684 112.695652 
L 109.789972 125.217391 
z
" clip-path="url(#p5c285aa7dd)" style="fill: #503079; stroke: #000000; stroke-linejoin: miter"/>
   </g>
   <g id="patch_249">
    <path d="M 131.478261 187.826087 
L 153.166549 175.304348 
L 131.478261 162.782609 
L 109.789972 175.304348 
z
" clip-path="url(#p5c285aa7dd)" style="fill: #add8ff; stroke: #000000; stroke-linejoin: miter"/>
   </g>
   <g id="patch_250">
    <path d="M 131.478261 187.826087 
L 153.166549 175.304348 
L 153.166549 200.347826 
L 131.478261 212.869565 
z
" clip-path="url(#p5c285aa7dd)" style="fill: #ff9175; stroke: #000000; stroke-linejoin: miter"/>
   </g>
   <g id="patch_251">
    <path d="M 131.478261 187.826087 
L 109.789972 175.304348 
L 109.789972 200.347826 
L 131.478261 212.869565 
z
" clip-path="url(#p5c285aa7dd)" style="fill: #503079; stroke: #000000; stroke-linejoin: miter"/>
   </g>
   <g id="patch_252">
    <path d="M 131.478261 162.782609 
L 153.166549 150.26087 
L 131.478261 137.73913 
L 109.789972 150.26087 
z
" clip-path="url(#p5c285aa7dd)" style="fill: #add8ff; stroke: #000000; stroke-linejoin: miter"/>
   </g>
   <g id="patch_253">
    <path d="M 131.478261 162.782609 
L 153.166549 150.26087 
L 153.166549 175.304348 
L 131.478261 187.826087 
z
" clip-path="url(#p5c285aa7dd)" style="fill: #ff9175; stroke: #000000; stroke-linejoin: miter"/>
   </g>
   <g id="patch_254">
    <path d="M 131.478261 162.782609 
L 109.789972 150.26087 
L 109.789972 175.304348 
L 131.478261 187.826087 
z
" clip-path="url(#p5c285aa7dd)" style="fill: #503079; stroke: #000000; stroke-linejoin: miter"/>
   </g>
   <g id="patch_255">
    <path d="M 153.166549 200.347826 
L 174.854838 187.826087 
L 153.166549 175.304348 
L 131.478261 187.826087 
z
" clip-path="url(#p5c285aa7dd)" style="fill: #add8ff; stroke: #000000; stroke-linejoin: miter"/>
   </g>
   <g id="patch_256">
    <path d="M 153.166549 200.347826 
L 174.854838 187.826087 
L 174.854838 212.869565 
L 153.166549 225.391304 
z
" clip-path="url(#p5c285aa7dd)" style="fill: #ff9175; stroke: #000000; stroke-linejoin: miter"/>
   </g>
   <g id="patch_257">
    <path d="M 153.166549 200.347826 
L 131.478261 187.826087 
L 131.478261 212.869565 
L 153.166549 225.391304 
z
" clip-path="url(#p5c285aa7dd)" style="fill: #503079; stroke: #000000; stroke-linejoin: miter"/>
   </g>
   <g id="patch_258">
    <path d="M 174.854838 212.869565 
L 196.543126 200.347826 
L 174.854838 187.826087 
L 153.166549 200.347826 
z
" clip-path="url(#p5c285aa7dd)" style="fill: #add8ff; stroke: #000000; stroke-linejoin: miter"/>
   </g>
   <g id="patch_259">
    <path d="M 174.854838 212.869565 
L 196.543126 200.347826 
L 196.543126 225.391304 
L 174.854838 237.913043 
z
" clip-path="url(#p5c285aa7dd)" style="fill: #ff9175; stroke: #000000; stroke-linejoin: miter"/>
   </g>
   <g id="patch_260">
    <path d="M 174.854838 212.869565 
L 153.166549 200.347826 
L 153.166549 225.391304 
L 174.854838 237.913043 
z
" clip-path="url(#p5c285aa7dd)" style="fill: #503079; stroke: #000000; stroke-linejoin: miter"/>
   </g>
   <g id="patch_261">
    <path d="M 66.413396 175.304348 
L 88.101684 162.782609 
L 66.413396 150.26087 
L 44.725107 162.782609 
z
" clip-path="url(#p5c285aa7dd)" style="fill: #add8ff; stroke: #000000; stroke-linejoin: miter"/>
   </g>
   <g id="patch_262">
    <path d="M 66.413396 175.304348 
L 88.101684 162.782609 
L 88.101684 187.826087 
L 66.413396 200.347826 
z
" clip-path="url(#p5c285aa7dd)" style="fill: #ff9175; stroke: #000000; stroke-linejoin: miter"/>
   </g>
   <g id="patch_263">
    <path d="M 66.413396 175.304348 
L 44.725107 162.782609 
L 44.725107 187.826087 
L 66.413396 200.347826 
z
" clip-path="url(#p5c285aa7dd)" style="fill: #503079; stroke: #000000; stroke-linejoin: miter"/>
   </g>
   <g id="patch_264">
    <path d="M 66.413396 150.26087 
L 88.101684 137.73913 
L 66.413396 125.217391 
L 44.725107 137.73913 
z
" clip-path="url(#p5c285aa7dd)" style="fill: #add8ff; stroke: #000000; stroke-linejoin: miter"/>
   </g>
   <g id="patch_265">
    <path d="M 66.413396 150.26087 
L 88.101684 137.73913 
L 88.101684 162.782609 
L 66.413396 175.304348 
z
" clip-path="url(#p5c285aa7dd)" style="fill: #ff9175; stroke: #000000; stroke-linejoin: miter"/>
   </g>
   <g id="patch_266">
    <path d="M 66.413396 150.26087 
L 44.725107 137.73913 
L 44.725107 162.782609 
L 66.413396 175.304348 
z
" clip-path="url(#p5c285aa7dd)" style="fill: #503079; stroke: #000000; stroke-linejoin: miter"/>
   </g>
   <g id="patch_267">
    <path d="M 66.413396 125.217391 
L 88.101684 112.695652 
L 66.413396 100.173913 
L 44.725107 112.695652 
z
" clip-path="url(#p5c285aa7dd)" style="fill: #add8ff; stroke: #000000; stroke-linejoin: miter"/>
   </g>
   <g id="patch_268">
    <path d="M 66.413396 125.217391 
L 88.101684 112.695652 
L 88.101684 137.73913 
L 66.413396 150.26087 
z
" clip-path="url(#p5c285aa7dd)" style="fill: #ff9175; stroke: #000000; stroke-linejoin: miter"/>
   </g>
   <g id="patch_269">
    <path d="M 66.413396 125.217391 
L 44.725107 112.695652 
L 44.725107 137.73913 
L 66.413396 150.26087 
z
" clip-path="url(#p5c285aa7dd)" style="fill: #503079; stroke: #000000; stroke-linejoin: miter"/>
   </g>
   <g id="patch_270">
    <path d="M 88.101684 187.826087 
L 109.789972 175.304348 
L 88.101684 162.782609 
L 66.413396 175.304348 
z
" clip-path="url(#p5c285aa7dd)" style="fill: #add8ff; stroke: #000000; stroke-linejoin: miter"/>
   </g>
   <g id="patch_271">
    <path d="M 88.101684 187.826087 
L 109.789972 175.304348 
L 109.789972 200.347826 
L 88.101684 212.869565 
z
" clip-path="url(#p5c285aa7dd)" style="fill: #ff9175; stroke: #000000; stroke-linejoin: miter"/>
   </g>
   <g id="patch_272">
    <path d="M 88.101684 187.826087 
L 66.413396 175.304348 
L 66.413396 200.347826 
L 88.101684 212.869565 
z
" clip-path="url(#p5c285aa7dd)" style="fill: #503079; stroke: #000000; stroke-linejoin: miter"/>
   </g>
   <g id="patch_273">
    <path d="M 109.789972 200.347826 
L 131.478261 187.826087 
L 109.789972 175.304348 
L 88.101684 187.826087 
z
" clip-path="url(#p5c285aa7dd)" style="fill: #add8ff; stroke: #000000; stroke-linejoin: miter"/>
   </g>
   <g id="patch_274">
    <path d="M 109.789972 200.347826 
L 131.478261 187.826087 
L 131.478261 212.869565 
L 109.789972 225.391304 
z
" clip-path="url(#p5c285aa7dd)" style="fill: #ff9175; stroke: #000000; stroke-linejoin: miter"/>
   </g>
   <g id="patch_275">
    <path d="M 109.789972 200.347826 
L 88.101684 187.826087 
L 88.101684 212.869565 
L 109.789972 225.391304 
z
" clip-path="url(#p5c285aa7dd)" style="fill: #503079; stroke: #000000; stroke-linejoin: miter"/>
   </g>
   <g id="patch_276">
    <path d="M 131.478261 212.869565 
L 153.166549 200.347826 
L 131.478261 187.826087 
L 109.789972 200.347826 
z
" clip-path="url(#p5c285aa7dd)" style="fill: #add8ff; stroke: #000000; stroke-linejoin: miter"/>
   </g>
   <g id="patch_277">
    <path d="M 131.478261 212.869565 
L 153.166549 200.347826 
L 153.166549 225.391304 
L 131.478261 237.913043 
z
" clip-path="url(#p5c285aa7dd)" style="fill: #ff9175; stroke: #000000; stroke-linejoin: miter"/>
   </g>
   <g id="patch_278">
    <path d="M 131.478261 212.869565 
L 109.789972 200.347826 
L 109.789972 225.391304 
L 131.478261 237.913043 
z
" clip-path="url(#p5c285aa7dd)" style="fill: #503079; stroke: #000000; stroke-linejoin: miter"/>
   </g>
   <g id="patch_279">
    <path d="M 44.725107 187.826087 
L 66.413396 175.304348 
L 44.725107 162.782609 
L 23.036819 175.304348 
z
" clip-path="url(#p5c285aa7dd)" style="fill: #add8ff; stroke: #000000; stroke-linejoin: miter"/>
   </g>
   <g id="patch_280">
    <path d="M 44.725107 187.826087 
L 66.413396 175.304348 
L 66.413396 200.347826 
L 44.725107 212.869565 
z
" clip-path="url(#p5c285aa7dd)" style="fill: #ff9175; stroke: #000000; stroke-linejoin: miter"/>
   </g>
   <g id="patch_281">
    <path d="M 44.725107 187.826087 
L 23.036819 175.304348 
L 23.036819 200.347826 
L 44.725107 212.869565 
z
" clip-path="url(#p5c285aa7dd)" style="fill: #503079; stroke: #000000; stroke-linejoin: miter"/>
   </g>
   <g id="patch_282">
    <path d="M 44.725107 162.782609 
L 66.413396 150.26087 
L 44.725107 137.73913 
L 23.036819 150.26087 
z
" clip-path="url(#p5c285aa7dd)" style="fill: #add8ff; stroke: #000000; stroke-linejoin: miter"/>
   </g>
   <g id="patch_283">
    <path d="M 44.725107 162.782609 
L 66.413396 150.26087 
L 66.413396 175.304348 
L 44.725107 187.826087 
z
" clip-path="url(#p5c285aa7dd)" style="fill: #ff9175; stroke: #000000; stroke-linejoin: miter"/>
   </g>
   <g id="patch_284">
    <path d="M 44.725107 162.782609 
L 23.036819 150.26087 
L 23.036819 175.304348 
L 44.725107 187.826087 
z
" clip-path="url(#p5c285aa7dd)" style="fill: #503079; stroke: #000000; stroke-linejoin: miter"/>
   </g>
   <g id="patch_285">
    <path d="M 66.413396 200.347826 
L 88.101684 187.826087 
L 66.413396 175.304348 
L 44.725107 187.826087 
z
" clip-path="url(#p5c285aa7dd)" style="fill: #add8ff; stroke: #000000; stroke-linejoin: miter"/>
   </g>
   <g id="patch_286">
    <path d="M 66.413396 200.347826 
L 88.101684 187.826087 
L 88.101684 212.869565 
L 66.413396 225.391304 
z
" clip-path="url(#p5c285aa7dd)" style="fill: #ff9175; stroke: #000000; stroke-linejoin: miter"/>
   </g>
   <g id="patch_287">
    <path d="M 66.413396 200.347826 
L 44.725107 187.826087 
L 44.725107 212.869565 
L 66.413396 225.391304 
z
" clip-path="url(#p5c285aa7dd)" style="fill: #503079; stroke: #000000; stroke-linejoin: miter"/>
   </g>
   <g id="patch_288">
    <path d="M 88.101684 212.869565 
L 109.789972 200.347826 
L 88.101684 187.826087 
L 66.413396 200.347826 
z
" clip-path="url(#p5c285aa7dd)" style="fill: #add8ff; stroke: #000000; stroke-linejoin: miter"/>
   </g>
   <g id="patch_289">
    <path d="M 88.101684 212.869565 
L 109.789972 200.347826 
L 109.789972 225.391304 
L 88.101684 237.913043 
z
" clip-path="url(#p5c285aa7dd)" style="fill: #ff9175; stroke: #000000; stroke-linejoin: miter"/>
   </g>
   <g id="patch_290">
    <path d="M 88.101684 212.869565 
L 66.413396 200.347826 
L 66.413396 225.391304 
L 88.101684 237.913043 
z
" clip-path="url(#p5c285aa7dd)" style="fill: #503079; stroke: #000000; stroke-linejoin: miter"/>
   </g>
   <g id="text_1">
    <!-- $5$ -->
    <g style="fill: #ff00ff" transform="translate(128.551766 27.897788) scale(0.12 -0.12)">
     <defs>
      <path id="CMR17-35" d="M 730 3692 
C 794 3666 1056 3584 1325 3584 
C 1920 3584 2246 3911 2432 4100 
C 2432 4157 2432 4192 2394 4192 
C 2387 4192 2374 4192 2323 4163 
C 2099 4058 1837 3973 1517 3973 
C 1325 3973 1037 3999 723 4139 
C 653 4171 640 4171 634 4171 
C 602 4171 595 4164 595 4037 
L 595 2203 
C 595 2089 595 2057 659 2057 
C 691 2057 704 2070 736 2114 
C 941 2401 1222 2522 1542 2522 
C 1766 2522 2246 2382 2246 1289 
C 2246 1085 2246 715 2054 421 
C 1894 159 1645 25 1370 25 
C 947 25 518 320 403 814 
C 429 807 480 795 506 795 
C 589 795 749 840 749 1038 
C 749 1210 627 1280 506 1280 
C 358 1280 262 1190 262 1011 
C 262 454 704 -128 1382 -128 
C 2042 -128 2669 440 2669 1264 
C 2669 2030 2170 2624 1549 2624 
C 1222 2624 947 2503 730 2274 
L 730 3692 
z
" transform="scale(0.015625)"/>
     </defs>
     <use xlink:href="#CMR17-35" transform="scale(0.996264)"/>
    </g>
   </g>
   <g id="text_2">
    <!-- $5$ -->
    <g style="fill: #ff00ff" transform="translate(150.240054 40.419527) scale(0.12 -0.12)">
     <use xlink:href="#CMR17-35" transform="scale(0.996264)"/>
    </g>
   </g>
   <g id="text_3">
    <!-- $5$ -->
    <g style="fill: #ff00ff" transform="translate(171.928342 52.941266) scale(0.12 -0.12)">
     <use xlink:href="#CMR17-35" transform="scale(0.996264)"/>
    </g>
   </g>
   <g id="text_4">
    <!-- $5$ -->
    <g style="fill: #ff00ff" transform="translate(193.616631 65.463005) scale(0.12 -0.12)">
     <use xlink:href="#CMR17-35" transform="scale(0.996264)"/>
    </g>
   </g>
   <g id="text_5">
    <!-- $4$ -->
    <g style="fill: #ff00ff" transform="translate(215.304919 103.028223) scale(0.12 -0.12)">
     <defs>
      <path id="CMR17-34" d="M 2150 4122 
C 2150 4256 2144 4256 2029 4256 
L 128 1254 
L 128 1088 
L 1779 1088 
L 1779 457 
C 1779 224 1766 160 1318 160 
L 1197 160 
L 1197 0 
C 1402 0 1747 0 1965 0 
C 2182 0 2528 0 2733 0 
L 2733 160 
L 2611 160 
C 2163 160 2150 224 2150 457 
L 2150 1088 
L 2803 1088 
L 2803 1254 
L 2150 1254 
L 2150 4122 
z
M 1798 3703 
L 1798 1254 
L 256 1254 
L 1798 3703 
z
" transform="scale(0.015625)"/>
     </defs>
     <use xlink:href="#CMR17-34" transform="scale(0.996264)"/>
    </g>
   </g>
   <g id="text_6">
    <!-- $3$ -->
    <g style="fill: #ff00ff" transform="translate(236.993208 140.59344) scale(0.12 -0.12)">
     <defs>
      <path id="CMR17-33" d="M 1414 2157 
C 1984 2157 2234 1662 2234 1090 
C 2234 320 1824 25 1453 25 
C 1114 25 563 194 390 693 
C 422 680 454 680 486 680 
C 640 680 755 782 755 948 
C 755 1133 614 1216 486 1216 
C 378 1216 211 1165 211 926 
C 211 335 787 -128 1466 -128 
C 2176 -128 2720 430 2720 1085 
C 2720 1707 2208 2157 1600 2227 
C 2086 2328 2554 2756 2554 3329 
C 2554 3820 2048 4179 1472 4179 
C 890 4179 378 3829 378 3329 
C 378 3110 544 3072 627 3072 
C 762 3072 877 3155 877 3321 
C 877 3486 762 3569 627 3569 
C 602 3569 570 3569 544 3557 
C 730 3959 1235 4032 1459 4032 
C 1683 4032 2106 3925 2106 3320 
C 2106 3143 2080 2828 1862 2550 
C 1670 2304 1453 2304 1242 2284 
C 1210 2284 1062 2269 1037 2269 
C 992 2263 966 2257 966 2208 
C 966 2163 973 2157 1101 2157 
L 1414 2157 
z
" transform="scale(0.015625)"/>
     </defs>
     <use xlink:href="#CMR17-33" transform="scale(0.996264)"/>
    </g>
   </g>
   <g id="text_7">
    <!-- $5$ -->
    <g style="fill: #ff00ff" transform="translate(106.863477 40.419527) scale(0.12 -0.12)">
     <use xlink:href="#CMR17-35" transform="scale(0.996264)"/>
    </g>
   </g>
   <g id="text_8">
    <!-- $4$ -->
    <g style="fill: #ff00ff" transform="translate(128.551766 77.984744) scale(0.12 -0.12)">
     <use xlink:href="#CMR17-34" transform="scale(0.996264)"/>
    </g>
   </g>
   <g id="text_9">
    <!-- $4$ -->
    <g style="fill: #ff00ff" transform="translate(150.240054 90.506483) scale(0.12 -0.12)">
     <use xlink:href="#CMR17-34" transform="scale(0.996264)"/>
    </g>
   </g>
   <g id="text_10">
    <!-- $4$ -->
    <g style="fill: #ff00ff" transform="translate(171.928342 103.028223) scale(0.12 -0.12)">
     <use xlink:href="#CMR17-34" transform="scale(0.996264)"/>
    </g>
   </g>
   <g id="text_11">
    <!-- $1$ -->
    <g style="fill: #ff00ff" transform="translate(193.616631 190.680396) scale(0.12 -0.12)">
     <defs>
      <path id="CMR17-31" d="M 1702 4058 
C 1702 4192 1696 4192 1606 4192 
C 1357 3916 979 3827 621 3827 
C 602 3827 570 3827 563 3808 
C 557 3795 557 3782 557 3648 
C 755 3648 1088 3686 1344 3839 
L 1344 461 
C 1344 236 1331 160 781 160 
L 589 160 
L 589 0 
C 896 0 1216 0 1523 0 
C 1830 0 2150 0 2458 0 
L 2458 160 
L 2266 160 
C 1715 160 1702 230 1702 458 
L 1702 4058 
z
" transform="scale(0.015625)"/>
     </defs>
     <use xlink:href="#CMR17-31" transform="scale(0.996264)"/>
    </g>
   </g>
   <g id="text_12">
    <!-- $1$ -->
    <g style="fill: #ff00ff" transform="translate(215.304919 203.202136) scale(0.12 -0.12)">
     <use xlink:href="#CMR17-31" transform="scale(0.996264)"/>
    </g>
   </g>
   <g id="text_13">
    <!-- $4$ -->
    <g style="fill: #ff00ff" transform="translate(85.175189 77.984744) scale(0.12 -0.12)">
     <use xlink:href="#CMR17-34" transform="scale(0.996264)"/>
    </g>
   </g>
   <g id="text_14">
    <!-- $4$ -->
    <g style="fill: #ff00ff" transform="translate(106.863477 90.506483) scale(0.12 -0.12)">
     <use xlink:href="#CMR17-34" transform="scale(0.996264)"/>
    </g>
   </g>
   <g id="text_15">
    <!-- $2$ -->
    <g style="fill: #ff00ff" transform="translate(128.551766 153.115179) scale(0.12 -0.12)">
     <defs>
      <path id="CMR17-32" d="M 2669 989 
L 2554 989 
C 2490 536 2438 459 2413 420 
C 2381 369 1920 369 1830 369 
L 602 369 
C 832 619 1280 1072 1824 1597 
C 2214 1967 2669 2402 2669 3035 
C 2669 3790 2067 4224 1395 4224 
C 691 4224 262 3604 262 3030 
C 262 2780 448 2748 525 2748 
C 589 2748 781 2787 781 3010 
C 781 3207 614 3264 525 3264 
C 486 3264 448 3258 422 3245 
C 544 3790 915 4058 1306 4058 
C 1862 4058 2227 3617 2227 3035 
C 2227 2479 1901 2000 1536 1584 
L 262 146 
L 262 0 
L 2515 0 
L 2669 989 
z
" transform="scale(0.015625)"/>
     </defs>
     <use xlink:href="#CMR17-32" transform="scale(0.996264)"/>
    </g>
   </g>
   <g id="text_16">
    <!-- $1$ -->
    <g style="fill: #ff00ff" transform="translate(150.240054 190.680396) scale(0.12 -0.12)">
     <use xlink:href="#CMR17-31" transform="scale(0.996264)"/>
    </g>
   </g>
   <g id="text_17">
    <!-- $1$ -->
    <g style="fill: #ff00ff" transform="translate(171.928342 203.202136) scale(0.12 -0.12)">
     <use xlink:href="#CMR17-31" transform="scale(0.996264)"/>
    </g>
   </g>
   <g id="text_18">
    <!-- $3$ -->
    <g style="fill: #ff00ff" transform="translate(63.486901 115.549962) scale(0.12 -0.12)">
     <use xlink:href="#CMR17-33" transform="scale(0.996264)"/>
    </g>
   </g>
   <g id="text_19">
    <!-- $1$ -->
    <g style="fill: #ff00ff" transform="translate(85.175189 178.158657) scale(0.12 -0.12)">
     <use xlink:href="#CMR17-31" transform="scale(0.996264)"/>
    </g>
   </g>
   <g id="text_20">
    <!-- $1$ -->
    <g style="fill: #ff00ff" transform="translate(106.863477 190.680396) scale(0.12 -0.12)">
     <use xlink:href="#CMR17-31" transform="scale(0.996264)"/>
    </g>
   </g>
   <g id="text_21">
    <!-- $1$ -->
    <g style="fill: #ff00ff" transform="translate(128.551766 203.202136) scale(0.12 -0.12)">
     <use xlink:href="#CMR17-31" transform="scale(0.996264)"/>
    </g>
   </g>
   <g id="text_22">
    <!-- $2$ -->
    <g style="fill: #ff00ff" transform="translate(41.798612 153.115179) scale(0.12 -0.12)">
     <use xlink:href="#CMR17-32" transform="scale(0.996264)"/>
    </g>
   </g>
   <g id="text_23">
    <!-- $1$ -->
    <g style="fill: #ff00ff" transform="translate(63.486901 190.680396) scale(0.12 -0.12)">
     <use xlink:href="#CMR17-31" transform="scale(0.996264)"/>
    </g>
   </g>
   <g id="text_24">
    <!-- $1$ -->
    <g style="fill: #ff00ff" transform="translate(85.175189 203.202136) scale(0.12 -0.12)">
     <use xlink:href="#CMR17-31" transform="scale(0.996264)"/>
    </g>
   </g>
  </g>
 </g>
 <defs>
  <clipPath id="p5c285aa7dd">
   <rect x="18.782609" y="0" width="250.434783" height="288"/>
  </clipPath>
 </defs>
</svg>
