<?xml version="1.0" encoding="utf-8" standalone="no"?>
<!DOCTYPE svg PUBLIC "-//W3C//DTD SVG 1.1//EN"
  "http://www.w3.org/Graphics/SVG/1.1/DTD/svg11.dtd">
<!-- Created with matplotlib (https://matplotlib.org/) -->
<svg height="432pt" version="1.1" viewBox="0 0 432 432" width="432pt" xmlns="http://www.w3.org/2000/svg" xmlns:xlink="http://www.w3.org/1999/xlink">
 <metadata>
  <rdf:RDF xmlns:cc="http://creativecommons.org/ns#" xmlns:dc="http://purl.org/dc/elements/1.1/" xmlns:rdf="http://www.w3.org/1999/02/22-rdf-syntax-ns#">
   <cc:Work>
    <dc:type rdf:resource="http://purl.org/dc/dcmitype/StillImage"/>
    <dc:date>2021-12-06T16:46:32.239917</dc:date>
    <dc:format>image/svg+xml</dc:format>
    <dc:creator>
     <cc:Agent>
      <dc:title>Matplotlib v3.3.4, https://matplotlib.org/</dc:title>
     </cc:Agent>
    </dc:creator>
   </cc:Work>
  </rdf:RDF>
 </metadata>
 <defs>
  <style type="text/css">*{stroke-linecap:butt;stroke-linejoin:round;}</style>
 </defs>
 <g id="figure_1">
  <g id="patch_1">
   <path d="M 0 432 
L 432 432 
L 432 0 
L 0 0 
z
" style="fill:#ffffff;"/>
  </g>
  <g id="axes_1">
   <g id="patch_2">
    <path clip-path="url(#p44ea8cc853)" d="M 51.385891 293.76 
L 230.964919 397.44 
L 380.614109 311.04 
L 380.614109 138.24 
L 201.035081 34.56 
L 51.385891 120.96 
z
" style="fill:none;stroke:#000000;stroke-linejoin:miter;"/>
   </g>
   <g id="patch_3">
    <path clip-path="url(#p44ea8cc853)" d="M 81.315729 276.48 
L 51.385891 259.2 
L 51.385891 293.76 
L 81.315729 311.04 
z
" style="fill:#503079;stroke:#000000;stroke-linejoin:miter;"/>
   </g>
   <g id="patch_4">
    <path clip-path="url(#p44ea8cc853)" d="M 111.245567 293.76 
L 81.315729 276.48 
L 81.315729 311.04 
L 111.245567 328.32 
z
" style="fill:#503079;stroke:#000000;stroke-linejoin:miter;"/>
   </g>
   <g id="patch_5">
    <path clip-path="url(#p44ea8cc853)" d="M 141.175405 311.04 
L 111.245567 293.76 
L 111.245567 328.32 
L 141.175405 345.6 
z
" style="fill:#503079;stroke:#000000;stroke-linejoin:miter;"/>
   </g>
   <g id="patch_6">
    <path clip-path="url(#p44ea8cc853)" d="M 201.035081 311.04 
L 171.105243 293.76 
L 171.105243 328.32 
L 201.035081 345.6 
z
" style="fill:#503079;stroke:#000000;stroke-linejoin:miter;"/>
   </g>
   <g id="patch_7">
    <path clip-path="url(#p44ea8cc853)" d="M 260.894757 311.04 
L 230.964919 293.76 
L 230.964919 328.32 
L 260.894757 345.6 
z
" style="fill:#503079;stroke:#000000;stroke-linejoin:miter;"/>
   </g>
   <g id="patch_8">
    <path clip-path="url(#p44ea8cc853)" d="M 320.754433 311.04 
L 290.824595 293.76 
L 290.824595 328.32 
L 320.754433 345.6 
z
" style="fill:#503079;stroke:#000000;stroke-linejoin:miter;"/>
   </g>
   <g id="patch_9">
    <path clip-path="url(#p44ea8cc853)" d="M 81.315729 241.92 
L 51.385891 224.64 
L 51.385891 259.2 
L 81.315729 276.48 
z
" style="fill:#503079;stroke:#000000;stroke-linejoin:miter;"/>
   </g>
   <g id="patch_10">
    <path clip-path="url(#p44ea8cc853)" d="M 171.105243 224.64 
L 141.175405 207.36 
L 141.175405 241.92 
L 171.105243 259.2 
z
" style="fill:#503079;stroke:#000000;stroke-linejoin:miter;"/>
   </g>
   <g id="patch_11">
    <path clip-path="url(#p44ea8cc853)" d="M 201.035081 241.92 
L 171.105243 224.64 
L 171.105243 259.2 
L 201.035081 276.48 
z
" style="fill:#503079;stroke:#000000;stroke-linejoin:miter;"/>
   </g>
   <g id="patch_12">
    <path clip-path="url(#p44ea8cc853)" d="M 260.894757 241.92 
L 230.964919 224.64 
L 230.964919 259.2 
L 260.894757 276.48 
z
" style="fill:#503079;stroke:#000000;stroke-linejoin:miter;"/>
   </g>
   <g id="patch_13">
    <path clip-path="url(#p44ea8cc853)" d="M 320.754433 241.92 
L 290.824595 224.64 
L 290.824595 259.2 
L 320.754433 276.48 
z
" style="fill:#503079;stroke:#000000;stroke-linejoin:miter;"/>
   </g>
   <g id="patch_14">
    <path clip-path="url(#p44ea8cc853)" d="M 350.684271 259.2 
L 320.754433 241.92 
L 320.754433 276.48 
L 350.684271 293.76 
z
" style="fill:#503079;stroke:#000000;stroke-linejoin:miter;"/>
   </g>
   <g id="patch_15">
    <path clip-path="url(#p44ea8cc853)" d="M 111.245567 190.08 
L 81.315729 172.8 
L 81.315729 207.36 
L 111.245567 224.64 
z
" style="fill:#503079;stroke:#000000;stroke-linejoin:miter;"/>
   </g>
   <g id="patch_16">
    <path clip-path="url(#p44ea8cc853)" d="M 171.105243 190.08 
L 141.175405 172.8 
L 141.175405 207.36 
L 171.105243 224.64 
z
" style="fill:#503079;stroke:#000000;stroke-linejoin:miter;"/>
   </g>
   <g id="patch_17">
    <path clip-path="url(#p44ea8cc853)" d="M 230.964919 190.08 
L 201.035081 172.8 
L 201.035081 207.36 
L 230.964919 224.64 
z
" style="fill:#503079;stroke:#000000;stroke-linejoin:miter;"/>
   </g>
   <g id="patch_18">
    <path clip-path="url(#p44ea8cc853)" d="M 260.894757 207.36 
L 230.964919 190.08 
L 230.964919 224.64 
L 260.894757 241.92 
z
" style="fill:#503079;stroke:#000000;stroke-linejoin:miter;"/>
   </g>
   <g id="patch_19">
    <path clip-path="url(#p44ea8cc853)" d="M 320.754433 207.36 
L 290.824595 190.08 
L 290.824595 224.64 
L 320.754433 241.92 
z
" style="fill:#503079;stroke:#000000;stroke-linejoin:miter;"/>
   </g>
   <g id="patch_20">
    <path clip-path="url(#p44ea8cc853)" d="M 350.684271 224.64 
L 320.754433 207.36 
L 320.754433 241.92 
L 350.684271 259.2 
z
" style="fill:#503079;stroke:#000000;stroke-linejoin:miter;"/>
   </g>
   <g id="patch_21">
    <path clip-path="url(#p44ea8cc853)" d="M 141.175405 138.24 
L 111.245567 120.96 
L 111.245567 155.52 
L 141.175405 172.8 
z
" style="fill:#503079;stroke:#000000;stroke-linejoin:miter;"/>
   </g>
   <g id="patch_22">
    <path clip-path="url(#p44ea8cc853)" d="M 171.105243 155.52 
L 141.175405 138.24 
L 141.175405 172.8 
L 171.105243 190.08 
z
" style="fill:#503079;stroke:#000000;stroke-linejoin:miter;"/>
   </g>
   <g id="patch_23">
    <path clip-path="url(#p44ea8cc853)" d="M 230.964919 155.52 
L 201.035081 138.24 
L 201.035081 172.8 
L 230.964919 190.08 
z
" style="fill:#503079;stroke:#000000;stroke-linejoin:miter;"/>
   </g>
   <g id="patch_24">
    <path clip-path="url(#p44ea8cc853)" d="M 260.894757 172.8 
L 230.964919 155.52 
L 230.964919 190.08 
L 260.894757 207.36 
z
" style="fill:#503079;stroke:#000000;stroke-linejoin:miter;"/>
   </g>
   <g id="patch_25">
    <path clip-path="url(#p44ea8cc853)" d="M 320.754433 172.8 
L 290.824595 155.52 
L 290.824595 190.08 
L 320.754433 207.36 
z
" style="fill:#503079;stroke:#000000;stroke-linejoin:miter;"/>
   </g>
   <g id="patch_26">
    <path clip-path="url(#p44ea8cc853)" d="M 380.614109 172.8 
L 350.684271 155.52 
L 350.684271 190.08 
L 380.614109 207.36 
z
" style="fill:#503079;stroke:#000000;stroke-linejoin:miter;"/>
   </g>
   <g id="patch_27">
    <path clip-path="url(#p44ea8cc853)" d="M 171.105243 86.4 
L 141.175405 69.12 
L 141.175405 103.68 
L 171.105243 120.96 
z
" style="fill:#503079;stroke:#000000;stroke-linejoin:miter;"/>
   </g>
   <g id="patch_28">
    <path clip-path="url(#p44ea8cc853)" d="M 230.964919 86.4 
L 201.035081 69.12 
L 201.035081 103.68 
L 230.964919 120.96 
z
" style="fill:#503079;stroke:#000000;stroke-linejoin:miter;"/>
   </g>
   <g id="patch_29">
    <path clip-path="url(#p44ea8cc853)" d="M 260.894757 103.68 
L 230.964919 86.4 
L 230.964919 120.96 
L 260.894757 138.24 
z
" style="fill:#503079;stroke:#000000;stroke-linejoin:miter;"/>
   </g>
   <g id="patch_30">
    <path clip-path="url(#p44ea8cc853)" d="M 290.824595 120.96 
L 260.894757 103.68 
L 260.894757 138.24 
L 290.824595 155.52 
z
" style="fill:#503079;stroke:#000000;stroke-linejoin:miter;"/>
   </g>
   <g id="patch_31">
    <path clip-path="url(#p44ea8cc853)" d="M 350.684271 120.96 
L 320.754433 103.68 
L 320.754433 138.24 
L 350.684271 155.52 
z
" style="fill:#503079;stroke:#000000;stroke-linejoin:miter;"/>
   </g>
   <g id="patch_32">
    <path clip-path="url(#p44ea8cc853)" d="M 380.614109 138.24 
L 350.684271 120.96 
L 350.684271 155.52 
L 380.614109 172.8 
z
" style="fill:#503079;stroke:#000000;stroke-linejoin:miter;"/>
   </g>
   <g id="patch_33">
    <path clip-path="url(#p44ea8cc853)" d="M 171.105243 293.76 
L 141.175405 311.04 
L 141.175405 345.6 
L 171.105243 328.32 
z
" style="fill:#ff9175;stroke:#000000;stroke-linejoin:miter;"/>
   </g>
   <g id="patch_34">
    <path clip-path="url(#p44ea8cc853)" d="M 230.964919 293.76 
L 201.035081 311.04 
L 201.035081 345.6 
L 230.964919 328.32 
z
" style="fill:#ff9175;stroke:#000000;stroke-linejoin:miter;"/>
   </g>
   <g id="patch_35">
    <path clip-path="url(#p44ea8cc853)" d="M 290.824595 293.76 
L 260.894757 311.04 
L 260.894757 345.6 
L 290.824595 328.32 
z
" style="fill:#ff9175;stroke:#000000;stroke-linejoin:miter;"/>
   </g>
   <g id="patch_36">
    <path clip-path="url(#p44ea8cc853)" d="M 350.684271 293.76 
L 320.754433 311.04 
L 320.754433 345.6 
L 350.684271 328.32 
z
" style="fill:#ff9175;stroke:#000000;stroke-linejoin:miter;"/>
   </g>
   <g id="patch_37">
    <path clip-path="url(#p44ea8cc853)" d="M 380.614109 276.48 
L 350.684271 293.76 
L 350.684271 328.32 
L 380.614109 311.04 
z
" style="fill:#ff9175;stroke:#000000;stroke-linejoin:miter;"/>
   </g>
   <g id="patch_38">
    <path clip-path="url(#p44ea8cc853)" d="M 111.245567 224.64 
L 81.315729 241.92 
L 81.315729 276.48 
L 111.245567 259.2 
z
" style="fill:#ff9175;stroke:#000000;stroke-linejoin:miter;"/>
   </g>
   <g id="patch_39">
    <path clip-path="url(#p44ea8cc853)" d="M 141.175405 207.36 
L 111.245567 224.64 
L 111.245567 259.2 
L 141.175405 241.92 
z
" style="fill:#ff9175;stroke:#000000;stroke-linejoin:miter;"/>
   </g>
   <g id="patch_40">
    <path clip-path="url(#p44ea8cc853)" d="M 230.964919 224.64 
L 201.035081 241.92 
L 201.035081 276.48 
L 230.964919 259.2 
z
" style="fill:#ff9175;stroke:#000000;stroke-linejoin:miter;"/>
   </g>
   <g id="patch_41">
    <path clip-path="url(#p44ea8cc853)" d="M 290.824595 224.64 
L 260.894757 241.92 
L 260.894757 276.48 
L 290.824595 259.2 
z
" style="fill:#ff9175;stroke:#000000;stroke-linejoin:miter;"/>
   </g>
   <g id="patch_42">
    <path clip-path="url(#p44ea8cc853)" d="M 380.614109 241.92 
L 350.684271 259.2 
L 350.684271 293.76 
L 380.614109 276.48 
z
" style="fill:#ff9175;stroke:#000000;stroke-linejoin:miter;"/>
   </g>
   <g id="patch_43">
    <path clip-path="url(#p44ea8cc853)" d="M 81.315729 172.8 
L 51.385891 190.08 
L 51.385891 224.64 
L 81.315729 207.36 
z
" style="fill:#ff9175;stroke:#000000;stroke-linejoin:miter;"/>
   </g>
   <g id="patch_44">
    <path clip-path="url(#p44ea8cc853)" d="M 141.175405 172.8 
L 111.245567 190.08 
L 111.245567 224.64 
L 141.175405 207.36 
z
" style="fill:#ff9175;stroke:#000000;stroke-linejoin:miter;"/>
   </g>
   <g id="patch_45">
    <path clip-path="url(#p44ea8cc853)" d="M 201.035081 172.8 
L 171.105243 190.08 
L 171.105243 224.64 
L 201.035081 207.36 
z
" style="fill:#ff9175;stroke:#000000;stroke-linejoin:miter;"/>
   </g>
   <g id="patch_46">
    <path clip-path="url(#p44ea8cc853)" d="M 290.824595 190.08 
L 260.894757 207.36 
L 260.894757 241.92 
L 290.824595 224.64 
z
" style="fill:#ff9175;stroke:#000000;stroke-linejoin:miter;"/>
   </g>
   <g id="patch_47">
    <path clip-path="url(#p44ea8cc853)" d="M 380.614109 207.36 
L 350.684271 224.64 
L 350.684271 259.2 
L 380.614109 241.92 
z
" style="fill:#ff9175;stroke:#000000;stroke-linejoin:miter;"/>
   </g>
   <g id="patch_48">
    <path clip-path="url(#p44ea8cc853)" d="M 81.315729 138.24 
L 51.385891 155.52 
L 51.385891 190.08 
L 81.315729 172.8 
z
" style="fill:#ff9175;stroke:#000000;stroke-linejoin:miter;"/>
   </g>
   <g id="patch_49">
    <path clip-path="url(#p44ea8cc853)" d="M 111.245567 120.96 
L 81.315729 138.24 
L 81.315729 172.8 
L 111.245567 155.52 
z
" style="fill:#ff9175;stroke:#000000;stroke-linejoin:miter;"/>
   </g>
   <g id="patch_50">
    <path clip-path="url(#p44ea8cc853)" d="M 201.035081 138.24 
L 171.105243 155.52 
L 171.105243 190.08 
L 201.035081 172.8 
z
" style="fill:#ff9175;stroke:#000000;stroke-linejoin:miter;"/>
   </g>
   <g id="patch_51">
    <path clip-path="url(#p44ea8cc853)" d="M 290.824595 155.52 
L 260.894757 172.8 
L 260.894757 207.36 
L 290.824595 190.08 
z
" style="fill:#ff9175;stroke:#000000;stroke-linejoin:miter;"/>
   </g>
   <g id="patch_52">
    <path clip-path="url(#p44ea8cc853)" d="M 350.684271 155.52 
L 320.754433 172.8 
L 320.754433 207.36 
L 350.684271 190.08 
z
" style="fill:#ff9175;stroke:#000000;stroke-linejoin:miter;"/>
   </g>
   <g id="patch_53">
    <path clip-path="url(#p44ea8cc853)" d="M 81.315729 103.68 
L 51.385891 120.96 
L 51.385891 155.52 
L 81.315729 138.24 
z
" style="fill:#ff9175;stroke:#000000;stroke-linejoin:miter;"/>
   </g>
   <g id="patch_54">
    <path clip-path="url(#p44ea8cc853)" d="M 111.245567 86.4 
L 81.315729 103.68 
L 81.315729 138.24 
L 111.245567 120.96 
z
" style="fill:#ff9175;stroke:#000000;stroke-linejoin:miter;"/>
   </g>
   <g id="patch_55">
    <path clip-path="url(#p44ea8cc853)" d="M 141.175405 69.12 
L 111.245567 86.4 
L 111.245567 120.96 
L 141.175405 103.68 
z
" style="fill:#ff9175;stroke:#000000;stroke-linejoin:miter;"/>
   </g>
   <g id="patch_56">
    <path clip-path="url(#p44ea8cc853)" d="M 201.035081 69.12 
L 171.105243 86.4 
L 171.105243 120.96 
L 201.035081 103.68 
z
" style="fill:#ff9175;stroke:#000000;stroke-linejoin:miter;"/>
   </g>
   <g id="patch_57">
    <path clip-path="url(#p44ea8cc853)" d="M 320.754433 103.68 
L 290.824595 120.96 
L 290.824595 155.52 
L 320.754433 138.24 
z
" style="fill:#ff9175;stroke:#000000;stroke-linejoin:miter;"/>
   </g>
   <g id="patch_58">
    <path clip-path="url(#p44ea8cc853)" d="M 171.105243 328.32 
L 141.175405 345.6 
L 171.105243 362.88 
L 201.035081 345.6 
z
" style="fill:#add8ff;stroke:#000000;stroke-linejoin:miter;"/>
   </g>
   <g id="patch_59">
    <path clip-path="url(#p44ea8cc853)" d="M 201.035081 345.6 
L 171.105243 362.88 
L 201.035081 380.16 
L 230.964919 362.88 
z
" style="fill:#add8ff;stroke:#000000;stroke-linejoin:miter;"/>
   </g>
   <g id="patch_60">
    <path clip-path="url(#p44ea8cc853)" d="M 230.964919 362.88 
L 201.035081 380.16 
L 230.964919 397.44 
L 260.894757 380.16 
z
" style="fill:#add8ff;stroke:#000000;stroke-linejoin:miter;"/>
   </g>
   <g id="patch_61">
    <path clip-path="url(#p44ea8cc853)" d="M 230.964919 328.32 
L 201.035081 345.6 
L 230.964919 362.88 
L 260.894757 345.6 
z
" style="fill:#add8ff;stroke:#000000;stroke-linejoin:miter;"/>
   </g>
   <g id="patch_62">
    <path clip-path="url(#p44ea8cc853)" d="M 260.894757 345.6 
L 230.964919 362.88 
L 260.894757 380.16 
L 290.824595 362.88 
z
" style="fill:#add8ff;stroke:#000000;stroke-linejoin:miter;"/>
   </g>
   <g id="patch_63">
    <path clip-path="url(#p44ea8cc853)" d="M 290.824595 328.32 
L 260.894757 345.6 
L 290.824595 362.88 
L 320.754433 345.6 
z
" style="fill:#add8ff;stroke:#000000;stroke-linejoin:miter;"/>
   </g>
   <g id="patch_64">
    <path clip-path="url(#p44ea8cc853)" d="M 111.245567 259.2 
L 81.315729 276.48 
L 111.245567 293.76 
L 141.175405 276.48 
z
" style="fill:#add8ff;stroke:#000000;stroke-linejoin:miter;"/>
   </g>
   <g id="patch_65">
    <path clip-path="url(#p44ea8cc853)" d="M 141.175405 276.48 
L 111.245567 293.76 
L 141.175405 311.04 
L 171.105243 293.76 
z
" style="fill:#add8ff;stroke:#000000;stroke-linejoin:miter;"/>
   </g>
   <g id="patch_66">
    <path clip-path="url(#p44ea8cc853)" d="M 141.175405 241.92 
L 111.245567 259.2 
L 141.175405 276.48 
L 171.105243 259.2 
z
" style="fill:#add8ff;stroke:#000000;stroke-linejoin:miter;"/>
   </g>
   <g id="patch_67">
    <path clip-path="url(#p44ea8cc853)" d="M 171.105243 259.2 
L 141.175405 276.48 
L 171.105243 293.76 
L 201.035081 276.48 
z
" style="fill:#add8ff;stroke:#000000;stroke-linejoin:miter;"/>
   </g>
   <g id="patch_68">
    <path clip-path="url(#p44ea8cc853)" d="M 201.035081 276.48 
L 171.105243 293.76 
L 201.035081 311.04 
L 230.964919 293.76 
z
" style="fill:#add8ff;stroke:#000000;stroke-linejoin:miter;"/>
   </g>
   <g id="patch_69">
    <path clip-path="url(#p44ea8cc853)" d="M 230.964919 259.2 
L 201.035081 276.48 
L 230.964919 293.76 
L 260.894757 276.48 
z
" style="fill:#add8ff;stroke:#000000;stroke-linejoin:miter;"/>
   </g>
   <g id="patch_70">
    <path clip-path="url(#p44ea8cc853)" d="M 260.894757 276.48 
L 230.964919 293.76 
L 260.894757 311.04 
L 290.824595 293.76 
z
" style="fill:#add8ff;stroke:#000000;stroke-linejoin:miter;"/>
   </g>
   <g id="patch_71">
    <path clip-path="url(#p44ea8cc853)" d="M 290.824595 259.2 
L 260.894757 276.48 
L 290.824595 293.76 
L 320.754433 276.48 
z
" style="fill:#add8ff;stroke:#000000;stroke-linejoin:miter;"/>
   </g>
   <g id="patch_72">
    <path clip-path="url(#p44ea8cc853)" d="M 320.754433 276.48 
L 290.824595 293.76 
L 320.754433 311.04 
L 350.684271 293.76 
z
" style="fill:#add8ff;stroke:#000000;stroke-linejoin:miter;"/>
   </g>
   <g id="patch_73">
    <path clip-path="url(#p44ea8cc853)" d="M 81.315729 207.36 
L 51.385891 224.64 
L 81.315729 241.92 
L 111.245567 224.64 
z
" style="fill:#add8ff;stroke:#000000;stroke-linejoin:miter;"/>
   </g>
   <g id="patch_74">
    <path clip-path="url(#p44ea8cc853)" d="M 201.035081 207.36 
L 171.105243 224.64 
L 201.035081 241.92 
L 230.964919 224.64 
z
" style="fill:#add8ff;stroke:#000000;stroke-linejoin:miter;"/>
   </g>
   <g id="patch_75">
    <path clip-path="url(#p44ea8cc853)" d="M 111.245567 155.52 
L 81.315729 172.8 
L 111.245567 190.08 
L 141.175405 172.8 
z
" style="fill:#add8ff;stroke:#000000;stroke-linejoin:miter;"/>
   </g>
   <g id="patch_76">
    <path clip-path="url(#p44ea8cc853)" d="M 350.684271 190.08 
L 320.754433 207.36 
L 350.684271 224.64 
L 380.614109 207.36 
z
" style="fill:#add8ff;stroke:#000000;stroke-linejoin:miter;"/>
   </g>
   <g id="patch_77">
    <path clip-path="url(#p44ea8cc853)" d="M 141.175405 103.68 
L 111.245567 120.96 
L 141.175405 138.24 
L 171.105243 120.96 
z
" style="fill:#add8ff;stroke:#000000;stroke-linejoin:miter;"/>
   </g>
   <g id="patch_78">
    <path clip-path="url(#p44ea8cc853)" d="M 171.105243 120.96 
L 141.175405 138.24 
L 171.105243 155.52 
L 201.035081 138.24 
z
" style="fill:#add8ff;stroke:#000000;stroke-linejoin:miter;"/>
   </g>
   <g id="patch_79">
    <path clip-path="url(#p44ea8cc853)" d="M 201.035081 103.68 
L 171.105243 120.96 
L 201.035081 138.24 
L 230.964919 120.96 
z
" style="fill:#add8ff;stroke:#000000;stroke-linejoin:miter;"/>
   </g>
   <g id="patch_80">
    <path clip-path="url(#p44ea8cc853)" d="M 230.964919 120.96 
L 201.035081 138.24 
L 230.964919 155.52 
L 260.894757 138.24 
z
" style="fill:#add8ff;stroke:#000000;stroke-linejoin:miter;"/>
   </g>
   <g id="patch_81">
    <path clip-path="url(#p44ea8cc853)" d="M 260.894757 138.24 
L 230.964919 155.52 
L 260.894757 172.8 
L 290.824595 155.52 
z
" style="fill:#add8ff;stroke:#000000;stroke-linejoin:miter;"/>
   </g>
   <g id="patch_82">
    <path clip-path="url(#p44ea8cc853)" d="M 320.754433 138.24 
L 290.824595 155.52 
L 320.754433 172.8 
L 350.684271 155.52 
z
" style="fill:#add8ff;stroke:#000000;stroke-linejoin:miter;"/>
   </g>
   <g id="patch_83">
    <path clip-path="url(#p44ea8cc853)" d="M 171.105243 51.84 
L 141.175405 69.12 
L 171.105243 86.4 
L 201.035081 69.12 
z
" style="fill:#add8ff;stroke:#000000;stroke-linejoin:miter;"/>
   </g>
   <g id="patch_84">
    <path clip-path="url(#p44ea8cc853)" d="M 201.035081 34.56 
L 171.105243 51.84 
L 201.035081 69.12 
L 230.964919 51.84 
z
" style="fill:#add8ff;stroke:#000000;stroke-linejoin:miter;"/>
   </g>
   <g id="patch_85">
    <path clip-path="url(#p44ea8cc853)" d="M 230.964919 51.84 
L 201.035081 69.12 
L 230.964919 86.4 
L 260.894757 69.12 
z
" style="fill:#add8ff;stroke:#000000;stroke-linejoin:miter;"/>
   </g>
   <g id="patch_86">
    <path clip-path="url(#p44ea8cc853)" d="M 260.894757 69.12 
L 230.964919 86.4 
L 260.894757 103.68 
L 290.824595 86.4 
z
" style="fill:#add8ff;stroke:#000000;stroke-linejoin:miter;"/>
   </g>
   <g id="patch_87">
    <path clip-path="url(#p44ea8cc853)" d="M 290.824595 86.4 
L 260.894757 103.68 
L 290.824595 120.96 
L 320.754433 103.68 
z
" style="fill:#add8ff;stroke:#000000;stroke-linejoin:miter;"/>
   </g>
   <g id="line2d_1">
    <path clip-path="url(#p44ea8cc853)" d="M 51.385891 293.76 
L 230.964919 397.44 
L 380.614109 311.04 
L 380.614109 138.24 
L 201.035081 34.56 
L 51.385891 120.96 
L 51.385891 293.76 
" style="fill:none;stroke:#000000;stroke-linecap:square;"/>
   </g>
   <g id="text_1">
    <!-- $a$ -->
    <g transform="translate(308.104595 58.752)scale(0.2 -0.2)">
     <defs>
      <path d="M 30.09375 11.875 
C 29.59375 10.171875 29.59375 9.984375 28.203125 8.078125 
C 26 5.28125 21.59375 1 16.90625 1 
C 12.796875 1 10.5 4.6875 10.5 10.578125 
C 10.5 16.0625 13.59375 27.234375 15.5 31.4375 
C 18.90625 38.421875 23.59375 42.015625 27.5 42.015625 
C 34.09375 42.015625 35.40625 33.828125 35.40625 33.03125 
C 35.40625 32.9375 35.09375 31.625 35 31.4375 
z
M 36.5 37.421875 
C 35.40625 40.015625 32.703125 44 27.5 44 
C 16.203125 44 4 29.4375 4 14.671875 
C 4 4.796875 9.796875 -1 16.59375 -1 
C 22.09375 -1 26.796875 3.296875 29.59375 6.59375 
C 30.59375 0.703125 35.296875 -1 38.296875 -1 
C 41.296875 -1 43.703125 0.796875 45.5 4.390625 
C 47.09375 7.78125 48.5 13.875 48.5 14.265625 
C 48.5 14.765625 48.09375 15.171875 47.5 15.171875 
C 46.59375 15.171875 46.5 14.671875 46.09375 13.171875 
C 44.59375 7.28125 42.703125 1 38.59375 1 
C 35.703125 1 35.5 3.59375 35.5 5.59375 
C 35.5 7.890625 35.796875 8.984375 36.703125 12.875 
C 37.40625 15.375 37.90625 17.5625 38.703125 20.453125 
C 42.40625 35.421875 43.296875 39.015625 43.296875 39.609375 
C 43.296875 41.015625 42.203125 42.109375 40.703125 42.109375 
C 37.5 42.109375 36.703125 38.625 36.5 37.421875 
z
" id="CMMI12-97"/>
     </defs>
     <use transform="scale(0.996264)" xlink:href="#CMMI12-97"/>
    </g>
   </g>
   <g id="text_2">
    <!-- $b$ -->
    <g transform="translate(98.562486 53.568)scale(0.2 -0.2)">
     <defs>
      <path d="M 23.09375 66.515625 
C 23.203125 66.921875 23.40625 67.515625 23.40625 68 
C 23.40625 69 22.40625 69 22.203125 69 
C 22.09375 69 18.5 68.640625 16.703125 68.390625 
C 15 68.390625 13.5 68.09375 11.703125 68.09375 
C 9.296875 67.890625 8.59375 67.796875 8.59375 66 
C 8.59375 65 9.59375 65 10.59375 65 
C 15.703125 65 15.703125 64.109375 15.703125 63.125 
C 15.703125 62.4375 14.90625 59.546875 14.5 57.75 
L 12.09375 48.203125 
C 11.09375 44.234375 5.40625 21.671875 5 19.875 
C 4.5 17.40625 4.5 15.703125 4.5 14.40625 
C 4.5 4.28125 10.203125 -1 16.703125 -1 
C 28.296875 -1 40.296875 13.875 40.296875 28.34375 
C 40.296875 37.515625 35.09375 44 27.59375 44 
C 22.40625 44 17.703125 39.71875 15.796875 37.71875 
z
M 16.796875 1 
C 13.59375 1 10.09375 3.390625 10.09375 11.171875 
C 10.09375 14.46875 10.40625 16.359375 12.203125 23.34375 
C 12.5 24.640625 14.09375 31.03125 14.5 32.328125 
C 14.703125 33.125 20.59375 42.015625 27.40625 42.015625 
C 31.796875 42.015625 33.796875 37.625 33.796875 32.4375 
C 33.796875 27.640625 31 16.359375 28.5 11.171875 
C 26 5.78125 21.40625 1 16.796875 1 
z
" id="CMMI12-98"/>
     </defs>
     <use transform="scale(0.996264)" xlink:href="#CMMI12-98"/>
    </g>
   </g>
   <g id="text_3">
    <!-- $c$ -->
    <g transform="translate(16.825891 207.36)scale(0.2 -0.2)">
     <defs>
      <path d="M 39.09375 37.984375 
C 37.203125 37.984375 36.296875 37.984375 34.90625 36.796875 
C 34.296875 36.296875 33.203125 34.796875 33.203125 33.203125 
C 33.203125 31.203125 34.703125 30 36.59375 30 
C 39 30 41.703125 31.9375 41.703125 35.8125 
C 41.703125 40.4375 37.09375 44 30.203125 44 
C 17.09375 44 4 29.734375 4 15.5625 
C 4 6.890625 9.40625 -1 19.59375 -1 
C 33.203125 -1 41.796875 9.71875 41.796875 11.03125 
C 41.796875 11.625 41.203125 12.125 40.796875 12.125 
C 40.5 12.125 40.40625 12.03125 39.5 11.140625 
C 33.09375 2.53125 23.59375 1 19.796875 1 
C 12.90625 1 10.703125 6.96875 10.703125 11.9375 
C 10.703125 15.4375 12.40625 25.078125 16 31.859375 
C 18.59375 36.53125 24 41.90625 30.296875 41.90625 
C 31.59375 41.90625 37.09375 41.90625 39.09375 37.984375 
z
" id="CMMI12-99"/>
     </defs>
     <use transform="scale(0.996264)" xlink:href="#CMMI12-99"/>
    </g>
   </g>
   <g id="text_4">
    <!-- 1 -->
    <g style="fill:#ff00ff;" transform="translate(107.061261 279.810026)scale(0.14 -0.14)">
     <defs>
      <path d="M 32.09375 60.96875 
L 13.59375 55.1875 
C 12 54.6875 11.5 54.09375 11.5 52.984375 
C 11.5 52 12.5 51 13.40625 51 
C 13.59375 51 14.40625 51.1875 14.796875 51.296875 
L 28 55.484375 
L 28 4.09375 
L 14.09375 4.09375 
C 12.203125 4.09375 11.296875 3.390625 11.296875 2.09375 
C 11.296875 0.703125 12.296875 0 14.09375 0 
L 46 0 
C 47.796875 0 48.703125 0.703125 48.703125 2.09375 
C 48.703125 3.390625 47.796875 4.09375 46 4.09375 
L 32.09375 4.09375 
z
" id="Nimbus_Mono_L_Regular-49"/>
     </defs>
     <use transform="scale(0.996264)" xlink:href="#Nimbus_Mono_L_Regular-49"/>
    </g>
   </g>
   <g id="text_5">
    <!-- 1 -->
    <g style="fill:#ff00ff;" transform="translate(136.991099 297.090026)scale(0.14 -0.14)">
     <use transform="scale(0.996264)" xlink:href="#Nimbus_Mono_L_Regular-49"/>
    </g>
   </g>
   <g id="text_6">
    <!-- 1 -->
    <g style="fill:#ff00ff;" transform="translate(136.991099 262.530026)scale(0.14 -0.14)">
     <use transform="scale(0.996264)" xlink:href="#Nimbus_Mono_L_Regular-49"/>
    </g>
   </g>
   <g id="text_7">
    <!-- 1 -->
    <g style="fill:#ff00ff;" transform="translate(166.920937 279.810026)scale(0.14 -0.14)">
     <use transform="scale(0.996264)" xlink:href="#Nimbus_Mono_L_Regular-49"/>
    </g>
   </g>
   <g id="text_8">
    <!-- 1 -->
    <g style="fill:#ff00ff;" transform="translate(196.850775 297.090026)scale(0.14 -0.14)">
     <use transform="scale(0.996264)" xlink:href="#Nimbus_Mono_L_Regular-49"/>
    </g>
   </g>
   <g id="text_9">
    <!-- 1 -->
    <g style="fill:#ff00ff;" transform="translate(226.780613 279.810026)scale(0.14 -0.14)">
     <use transform="scale(0.996264)" xlink:href="#Nimbus_Mono_L_Regular-49"/>
    </g>
   </g>
   <g id="text_10">
    <!-- 1 -->
    <g style="fill:#ff00ff;" transform="translate(256.710451 297.090026)scale(0.14 -0.14)">
     <use transform="scale(0.996264)" xlink:href="#Nimbus_Mono_L_Regular-49"/>
    </g>
   </g>
   <g id="text_11">
    <!-- 1 -->
    <g style="fill:#ff00ff;" transform="translate(286.640289 279.810026)scale(0.14 -0.14)">
     <use transform="scale(0.996264)" xlink:href="#Nimbus_Mono_L_Regular-49"/>
    </g>
   </g>
   <g id="text_12">
    <!-- 1 -->
    <g style="fill:#ff00ff;" transform="translate(316.570127 297.090026)scale(0.14 -0.14)">
     <use transform="scale(0.996264)" xlink:href="#Nimbus_Mono_L_Regular-49"/>
    </g>
   </g>
   <g id="text_13">
    <!-- 2 -->
    <g style="fill:#ff00ff;" transform="translate(77.131423 227.970026)scale(0.14 -0.14)">
     <defs>
      <path d="M 12.296875 4.09375 
L 12.296875 4.390625 
C 18 9.21875 24.296875 15.125 33 23.765625 
C 45.40625 35.90625 47.40625 38.8125 47.40625 44.734375 
C 47.40625 53.859375 38.796875 62 29 62 
C 22.90625 62 17.296875 59.1875 13.59375 54.375 
C 11.703125 51.96875 10.40625 48.953125 10.40625 47.15625 
C 10.40625 46.25 11.296875 45.359375 12.296875 45.359375 
C 13.40625 45.359375 14 45.953125 14.40625 47.359375 
C 16 53.375 22.203125 57.90625 29 57.90625 
C 36.59375 57.90625 43.296875 51.78125 43.296875 44.859375 
C 43.296875 40.328125 41.40625 37.515625 32 28.296875 
C 24.5 20.859375 16.5 13.328125 8.40625 6 
L 8.40625 0 
L 47.796875 0 
L 47.796875 7.703125 
C 47.796875 9.515625 47.09375 10.40625 45.796875 10.40625 
C 44.40625 10.40625 43.703125 9.515625 43.703125 7.703125 
L 43.703125 4.09375 
z
" id="Nimbus_Mono_L_Regular-50"/>
     </defs>
     <use transform="scale(0.996264)" xlink:href="#Nimbus_Mono_L_Regular-50"/>
    </g>
   </g>
   <g id="text_14">
    <!-- 2 -->
    <g style="fill:#ff00ff;" transform="translate(196.850775 227.970026)scale(0.14 -0.14)">
     <use transform="scale(0.996264)" xlink:href="#Nimbus_Mono_L_Regular-50"/>
    </g>
   </g>
   <g id="text_15">
    <!-- 3 -->
    <g style="fill:#ff00ff;" transform="translate(107.061261 176.130026)scale(0.14 -0.14)">
     <defs>
      <path d="M 37.40625 33.1875 
C 37.59375 33.28125 37.796875 33.375 37.90625 33.375 
C 43.90625 35.875 47.703125 41.0625 47.703125 46.734375 
C 47.703125 55.421875 40.09375 62.09375 30.09375 62.09375 
C 24.90625 62.09375 19.90625 60.5 16 57.546875 
C 13.90625 55.96875 12.5 54.1875 12.5 53.203125 
C 12.5 52.203125 13.40625 51.328125 14.5 51.328125 
C 15.296875 51.328125 15.59375 51.515625 16.59375 52.703125 
C 19.5 56.03125 24.40625 58 30 58 
C 37.703125 58 43.59375 53.171875 43.59375 46.75 
C 43.59375 42.609375 40.796875 38.75 36.59375 36.984375 
C 34.5 36 32.90625 36 27.90625 36 
C 26.203125 36 25.203125 35.3125 25.203125 34.015625 
C 25.203125 32.609375 26.09375 31.90625 27.90625 31.90625 
C 37.59375 31.90625 45.796875 25.265625 45.796875 17.40625 
C 45.796875 9.640625 38.203125 3.09375 29.09375 3.09375 
C 23.5 3.09375 17.90625 5 13.203125 8.640625 
C 12.5 9.140625 12.09375 9.34375 11.5 9.34375 
C 10.5 9.34375 9.59375 8.453125 9.59375 7.4375 
C 9.59375 6.140625 10.90625 4.828125 14.203125 3.125 
C 19.40625 0.3125 24.09375 -1 29 -1 
C 40.5 -1 49.90625 7.171875 49.90625 17.25 
C 49.90625 24.015625 45.203125 30 37.40625 33.1875 
z
" id="Nimbus_Mono_L_Regular-51"/>
     </defs>
     <use transform="scale(0.996264)" xlink:href="#Nimbus_Mono_L_Regular-51"/>
    </g>
   </g>
   <g id="text_16">
    <!-- 3 -->
    <g style="fill:#ff00ff;" transform="translate(346.499965 210.690026)scale(0.14 -0.14)">
     <use transform="scale(0.996264)" xlink:href="#Nimbus_Mono_L_Regular-51"/>
    </g>
   </g>
   <g id="text_17">
    <!-- 4 -->
    <g style="fill:#ff00ff;" transform="translate(136.991099 124.290026)scale(0.14 -0.14)">
     <defs>
      <path d="M 37.59375 16.90625 
L 37.59375 4 
L 30 4 
C 28.203125 4 27.296875 3.296875 27.296875 2 
C 27.296875 0.609375 28.203125 -0.09375 30 -0.09375 
L 45.09375 -0.09375 
C 46.90625 -0.09375 47.796875 0.609375 47.796875 2 
C 47.796875 3.296875 46.90625 4 45.09375 4 
L 41.703125 4 
L 41.703125 16.90625 
L 45.09375 16.90625 
C 46.90625 16.90625 47.796875 17.609375 47.796875 18.90625 
C 47.796875 20.296875 46.90625 21 45.09375 21 
L 41.703125 21 
L 41.703125 60 
L 33.296875 60 
L 10.5 21.59375 
L 10.5 16.90625 
z
M 37.59375 21 
L 14.40625 21 
L 35.203125 55.90625 
L 37.59375 55.90625 
z
" id="Nimbus_Mono_L_Regular-52"/>
     </defs>
     <use transform="scale(0.996264)" xlink:href="#Nimbus_Mono_L_Regular-52"/>
    </g>
   </g>
   <g id="text_18">
    <!-- 4 -->
    <g style="fill:#ff00ff;" transform="translate(166.920937 141.570026)scale(0.14 -0.14)">
     <use transform="scale(0.996264)" xlink:href="#Nimbus_Mono_L_Regular-52"/>
    </g>
   </g>
   <g id="text_19">
    <!-- 4 -->
    <g style="fill:#ff00ff;" transform="translate(196.850775 124.290026)scale(0.14 -0.14)">
     <use transform="scale(0.996264)" xlink:href="#Nimbus_Mono_L_Regular-52"/>
    </g>
   </g>
   <g id="text_20">
    <!-- 4 -->
    <g style="fill:#ff00ff;" transform="translate(226.780613 141.570026)scale(0.14 -0.14)">
     <use transform="scale(0.996264)" xlink:href="#Nimbus_Mono_L_Regular-52"/>
    </g>
   </g>
   <g id="text_21">
    <!-- 4 -->
    <g style="fill:#ff00ff;" transform="translate(256.710451 158.850026)scale(0.14 -0.14)">
     <use transform="scale(0.996264)" xlink:href="#Nimbus_Mono_L_Regular-52"/>
    </g>
   </g>
   <g id="text_22">
    <!-- 4 -->
    <g style="fill:#ff00ff;" transform="translate(316.570127 158.850026)scale(0.14 -0.14)">
     <use transform="scale(0.996264)" xlink:href="#Nimbus_Mono_L_Regular-52"/>
    </g>
   </g>
   <g id="text_23">
    <!-- 5 -->
    <g style="fill:#ff00ff;" transform="translate(166.920937 72.450026)scale(0.14 -0.14)">
     <defs>
      <path d="M 19 55.90625 
L 43.09375 55.90625 
C 45 55.90625 45.90625 56.609375 45.90625 58 
C 45.90625 59.296875 45 60 43.09375 60 
L 14.90625 60 
L 14.90625 33.078125 
C 14.90625 31.78125 15.703125 30.890625 16.796875 30.890625 
C 17.296875 30.890625 17.796875 31.09375 19 31.6875 
C 23.203125 33.890625 27.59375 35 31.59375 35 
C 40 35 45.796875 28.78125 45.796875 19.84375 
C 45.796875 9.3125 39.09375 2.09375 29.296875 2.09375 
C 23.5 2.09375 18.09375 4.40625 13.296875 8.828125 
C 12.59375 9.53125 12.203125 9.71875 11.59375 9.71875 
C 10.5 9.71875 9.59375 8.828125 9.59375 7.71875 
C 9.59375 6.515625 11 5.015625 14.203125 2.90625 
C 19.203125 -0.40625 24.203125 -2 29.5 -2 
C 41.40625 -2 49.90625 7.015625 49.90625 19.65625 
C 49.90625 30.875 42.40625 39.09375 32.203125 39.09375 
C 27.796875 39.09375 24.09375 38.1875 19 36.09375 
z
" id="Nimbus_Mono_L_Regular-53"/>
     </defs>
     <use transform="scale(0.996264)" xlink:href="#Nimbus_Mono_L_Regular-53"/>
    </g>
   </g>
   <g id="text_24">
    <!-- 5 -->
    <g style="fill:#ff00ff;" transform="translate(196.850775 55.170026)scale(0.14 -0.14)">
     <use transform="scale(0.996264)" xlink:href="#Nimbus_Mono_L_Regular-53"/>
    </g>
   </g>
   <g id="text_25">
    <!-- 5 -->
    <g style="fill:#ff00ff;" transform="translate(226.780613 72.450026)scale(0.14 -0.14)">
     <use transform="scale(0.996264)" xlink:href="#Nimbus_Mono_L_Regular-53"/>
    </g>
   </g>
   <g id="text_26">
    <!-- 5 -->
    <g style="fill:#ff00ff;" transform="translate(256.710451 89.730026)scale(0.14 -0.14)">
     <use transform="scale(0.996264)" xlink:href="#Nimbus_Mono_L_Regular-53"/>
    </g>
   </g>
   <g id="text_27">
    <!-- 5 -->
    <g style="fill:#ff00ff;" transform="translate(286.640289 107.010026)scale(0.14 -0.14)">
     <use transform="scale(0.996264)" xlink:href="#Nimbus_Mono_L_Regular-53"/>
    </g>
   </g>
  </g>
 </g>
 <defs>
  <clipPath id="p44ea8cc853">
   <rect height="432" width="398.348218" x="16.825891" y="0"/>
  </clipPath>
 </defs>
</svg>
