<?xml version="1.0" encoding="UTF-8"?>
<svg xmlns="http://www.w3.org/2000/svg" xmlns:xlink="http://www.w3.org/1999/xlink" width="64pt" height="64pt" viewBox="0 0 64 64" version="1.1">
<g id="surface1">
<rect x="0" y="0" width="64" height="64" style="fill:rgb(100%,100%,100%);fill-opacity:1;stroke:none;"/>
<path style="fill-rule:nonzero;fill:rgb(0%,100%,0%);fill-opacity:1;stroke-width:0.045;stroke-linecap:butt;stroke-linejoin:miter;stroke:rgb(0%,0%,0%);stroke-opacity:1;stroke-miterlimit:10;" d="M 0.450012 0.25 C 0.450012 0.360474 0.360474 0.450012 0.25 0.450012 C 0.139526 0.450012 0.0499878 0.360474 0.0499878 0.25 C 0.0499878 0.139526 0.139526 0.0499878 0.25 0.0499878 C 0.360474 0.0499878 0.450012 0.139526 0.450012 0.25 " transform="matrix(64,0,0,64,0,0)"/>
<path style="fill-rule:nonzero;fill:rgb(0%,0%,100%);fill-opacity:1;stroke-width:0.045;stroke-linecap:butt;stroke-linejoin:miter;stroke:rgb(0%,0%,0%);stroke-opacity:1;stroke-miterlimit:10;" d="M 0.950012 0.75 C 0.950012 0.860474 0.860474 0.950012 0.75 0.950012 C 0.639526 0.950012 0.549988 0.860474 0.549988 0.75 C 0.549988 0.639526 0.639526 0.549988 0.75 0.549988 C 0.860474 0.549988 0.950012 0.639526 0.950012 0.75 " transform="matrix(64,0,0,64,0,0)"/>
<path style="fill-rule:nonzero;fill:rgb(100%,0%,0%);fill-opacity:1;stroke-width:0.045;stroke-linecap:butt;stroke-linejoin:miter;stroke:rgb(0%,0%,0%);stroke-opacity:1;stroke-miterlimit:10;" d="M 0.450012 0.75 C 0.450012 0.860474 0.360474 0.950012 0.25 0.950012 C 0.139526 0.950012 0.0499878 0.860474 0.0499878 0.75 C 0.0499878 0.639526 0.139526 0.549988 0.25 0.549988 C 0.360474 0.549988 0.450012 0.639526 0.450012 0.75 " transform="matrix(64,0,0,64,0,0)"/>
</g>
</svg>
