<?xml version="1.0" encoding="UTF-8"?>
<svg xmlns="http://www.w3.org/2000/svg" xmlns:xlink="http://www.w3.org/1999/xlink" width="64pt" height="64pt" viewBox="0 0 64 64" version="1.1">
<g id="surface1">
<rect x="0" y="0" width="64" height="64" style="fill:rgb(100%,100%,100%);fill-opacity:1;stroke:none;"/>
<path style="fill-rule:nonzero;fill:rgb(0%,100%,0%);fill-opacity:1;stroke-width:0.0225;stroke-linecap:butt;stroke-linejoin:miter;stroke:rgb(0%,0%,0%);stroke-opacity:1;stroke-miterlimit:10;" d="M 0.224976 0.125 C 0.224976 0.180237 0.180237 0.224976 0.125 0.224976 C 0.0697632 0.224976 0.0250244 0.180237 0.0250244 0.125 C 0.0250244 0.0697632 0.0697632 0.0250244 0.125 0.0250244 C 0.180237 0.0250244 0.224976 0.0697632 0.224976 0.125 " transform="matrix(64,0,0,64,0,0)"/>
<path style="fill-rule:nonzero;fill:rgb(0%,100%,0%);fill-opacity:1;stroke-width:0.0225;stroke-linecap:butt;stroke-linejoin:miter;stroke:rgb(0%,0%,0%);stroke-opacity:1;stroke-miterlimit:10;" d="M 0.474976 0.375 C 0.474976 0.430237 0.430237 0.474976 0.375 0.474976 C 0.319763 0.474976 0.275024 0.430237 0.275024 0.375 C 0.275024 0.319763 0.319763 0.275024 0.375 0.275024 C 0.430237 0.275024 0.474976 0.319763 0.474976 0.375 " transform="matrix(64,0,0,64,0,0)"/>
<path style="fill-rule:nonzero;fill:rgb(0%,100%,0%);fill-opacity:1;stroke-width:0.0225;stroke-linecap:butt;stroke-linejoin:miter;stroke:rgb(0%,0%,0%);stroke-opacity:1;stroke-miterlimit:10;" d="M 0.224976 0.375 C 0.224976 0.430237 0.180237 0.474976 0.125 0.474976 C 0.0697632 0.474976 0.0250244 0.430237 0.0250244 0.375 C 0.0250244 0.319763 0.0697632 0.275024 0.125 0.275024 C 0.180237 0.275024 0.224976 0.319763 0.224976 0.375 " transform="matrix(64,0,0,64,0,0)"/>
<path style="fill-rule:nonzero;fill:rgb(0%,0%,100%);fill-opacity:1;stroke-width:0.0225;stroke-linecap:butt;stroke-linejoin:miter;stroke:rgb(0%,0%,0%);stroke-opacity:1;stroke-miterlimit:10;" d="M 0.724976 0.625 C 0.724976 0.680237 0.680237 0.724976 0.625 0.724976 C 0.569763 0.724976 0.525024 0.680237 0.525024 0.625 C 0.525024 0.569763 0.569763 0.525024 0.625 0.525024 C 0.680237 0.525024 0.724976 0.569763 0.724976 0.625 " transform="matrix(64,0,0,64,0,0)"/>
<path style="fill-rule:nonzero;fill:rgb(0%,0%,100%);fill-opacity:1;stroke-width:0.0225;stroke-linecap:butt;stroke-linejoin:miter;stroke:rgb(0%,0%,0%);stroke-opacity:1;stroke-miterlimit:10;" d="M 0.974976 0.875 C 0.974976 0.930237 0.930237 0.974976 0.875 0.974976 C 0.819763 0.974976 0.775024 0.930237 0.775024 0.875 C 0.775024 0.819763 0.819763 0.775024 0.875 0.775024 C 0.930237 0.775024 0.974976 0.819763 0.974976 0.875 " transform="matrix(64,0,0,64,0,0)"/>
<path style="fill-rule:nonzero;fill:rgb(0%,0%,100%);fill-opacity:1;stroke-width:0.0225;stroke-linecap:butt;stroke-linejoin:miter;stroke:rgb(0%,0%,0%);stroke-opacity:1;stroke-miterlimit:10;" d="M 0.724976 0.875 C 0.724976 0.930237 0.680237 0.974976 0.625 0.974976 C 0.569763 0.974976 0.525024 0.930237 0.525024 0.875 C 0.525024 0.819763 0.569763 0.775024 0.625 0.775024 C 0.680237 0.775024 0.724976 0.819763 0.724976 0.875 " transform="matrix(64,0,0,64,0,0)"/>
<path style="fill-rule:nonzero;fill:rgb(100%,0%,0%);fill-opacity:1;stroke-width:0.0225;stroke-linecap:butt;stroke-linejoin:miter;stroke:rgb(0%,0%,0%);stroke-opacity:1;stroke-miterlimit:10;" d="M 0.224976 0.625 C 0.224976 0.680237 0.180237 0.724976 0.125 0.724976 C 0.0697632 0.724976 0.0250244 0.680237 0.0250244 0.625 C 0.0250244 0.569763 0.0697632 0.525024 0.125 0.525024 C 0.180237 0.525024 0.224976 0.569763 0.224976 0.625 " transform="matrix(64,0,0,64,0,0)"/>
<path style="fill-rule:nonzero;fill:rgb(100%,0%,0%);fill-opacity:1;stroke-width:0.0225;stroke-linecap:butt;stroke-linejoin:miter;stroke:rgb(0%,0%,0%);stroke-opacity:1;stroke-miterlimit:10;" d="M 0.474976 0.875 C 0.474976 0.930237 0.430237 0.974976 0.375 0.974976 C 0.319763 0.974976 0.275024 0.930237 0.275024 0.875 C 0.275024 0.819763 0.319763 0.775024 0.375 0.775024 C 0.430237 0.775024 0.474976 0.819763 0.474976 0.875 " transform="matrix(64,0,0,64,0,0)"/>
<path style="fill-rule:nonzero;fill:rgb(100%,0%,0%);fill-opacity:1;stroke-width:0.0225;stroke-linecap:butt;stroke-linejoin:miter;stroke:rgb(0%,0%,0%);stroke-opacity:1;stroke-miterlimit:10;" d="M 0.224976 0.875 C 0.224976 0.930237 0.180237 0.974976 0.125 0.974976 C 0.0697632 0.974976 0.0250244 0.930237 0.0250244 0.875 C 0.0250244 0.819763 0.0697632 0.775024 0.125 0.775024 C 0.180237 0.775024 0.224976 0.819763 0.224976 0.875 " transform="matrix(64,0,0,64,0,0)"/>
</g>
</svg>
