<?xml version="1.0" encoding="UTF-8"?>
<svg xmlns="http://www.w3.org/2000/svg" xmlns:xlink="http://www.w3.org/1999/xlink" width="64pt" height="64pt" viewBox="0 0 64 64" version="1.1">
<g id="surface1">
<rect x="0" y="0" width="64" height="64" style="fill:rgb(100%,100%,100%);fill-opacity:1;stroke:none;"/>
<path style="fill-rule:nonzero;fill:rgb(0%,100%,0%);fill-opacity:1;stroke-width:0.01125;stroke-linecap:butt;stroke-linejoin:miter;stroke:rgb(0%,0%,0%);stroke-opacity:1;stroke-miterlimit:10;" d="M 0.112488 0.0625 C 0.112488 0.12915 0.0125122 0.12915 0.0125122 0.0625 C 0.0125122 -0.00415039 0.112488 -0.00415039 0.112488 0.0625 " transform="matrix(64,0,0,64,0,0)"/>
<path style="fill-rule:nonzero;fill:rgb(0%,100%,0%);fill-opacity:1;stroke-width:0.01125;stroke-linecap:butt;stroke-linejoin:miter;stroke:rgb(0%,0%,0%);stroke-opacity:1;stroke-miterlimit:10;" d="M 0.237488 0.1875 C 0.237488 0.25415 0.137512 0.25415 0.137512 0.1875 C 0.137512 0.12085 0.237488 0.12085 0.237488 0.1875 " transform="matrix(64,0,0,64,0,0)"/>
<path style="fill-rule:nonzero;fill:rgb(0%,100%,0%);fill-opacity:1;stroke-width:0.01125;stroke-linecap:butt;stroke-linejoin:miter;stroke:rgb(0%,0%,0%);stroke-opacity:1;stroke-miterlimit:10;" d="M 0.112488 0.1875 C 0.112488 0.25415 0.0125122 0.25415 0.0125122 0.1875 C 0.0125122 0.12085 0.112488 0.12085 0.112488 0.1875 " transform="matrix(64,0,0,64,0,0)"/>
<path style="fill-rule:nonzero;fill:rgb(0%,100%,0%);fill-opacity:1;stroke-width:0.01125;stroke-linecap:butt;stroke-linejoin:miter;stroke:rgb(0%,0%,0%);stroke-opacity:1;stroke-miterlimit:10;" d="M 0.362488 0.3125 C 0.362488 0.37915 0.262512 0.37915 0.262512 0.3125 C 0.262512 0.24585 0.362488 0.24585 0.362488 0.3125 " transform="matrix(64,0,0,64,0,0)"/>
<path style="fill-rule:nonzero;fill:rgb(0%,100%,0%);fill-opacity:1;stroke-width:0.01125;stroke-linecap:butt;stroke-linejoin:miter;stroke:rgb(0%,0%,0%);stroke-opacity:1;stroke-miterlimit:10;" d="M 0.487488 0.4375 C 0.487488 0.50415 0.387512 0.50415 0.387512 0.4375 C 0.387512 0.37085 0.487488 0.37085 0.487488 0.4375 " transform="matrix(64,0,0,64,0,0)"/>
<path style="fill-rule:nonzero;fill:rgb(0%,100%,0%);fill-opacity:1;stroke-width:0.01125;stroke-linecap:butt;stroke-linejoin:miter;stroke:rgb(0%,0%,0%);stroke-opacity:1;stroke-miterlimit:10;" d="M 0.362488 0.4375 C 0.362488 0.50415 0.262512 0.50415 0.262512 0.4375 C 0.262512 0.37085 0.362488 0.37085 0.362488 0.4375 " transform="matrix(64,0,0,64,0,0)"/>
<path style="fill-rule:nonzero;fill:rgb(0%,100%,0%);fill-opacity:1;stroke-width:0.01125;stroke-linecap:butt;stroke-linejoin:miter;stroke:rgb(0%,0%,0%);stroke-opacity:1;stroke-miterlimit:10;" d="M 0.112488 0.3125 C 0.112488 0.37915 0.0125122 0.37915 0.0125122 0.3125 C 0.0125122 0.24585 0.112488 0.24585 0.112488 0.3125 " transform="matrix(64,0,0,64,0,0)"/>
<path style="fill-rule:nonzero;fill:rgb(0%,100%,0%);fill-opacity:1;stroke-width:0.01125;stroke-linecap:butt;stroke-linejoin:miter;stroke:rgb(0%,0%,0%);stroke-opacity:1;stroke-miterlimit:10;" d="M 0.237488 0.4375 C 0.237488 0.50415 0.137512 0.50415 0.137512 0.4375 C 0.137512 0.37085 0.237488 0.37085 0.237488 0.4375 " transform="matrix(64,0,0,64,0,0)"/>
<path style="fill-rule:nonzero;fill:rgb(0%,100%,0%);fill-opacity:1;stroke-width:0.01125;stroke-linecap:butt;stroke-linejoin:miter;stroke:rgb(0%,0%,0%);stroke-opacity:1;stroke-miterlimit:10;" d="M 0.112488 0.4375 C 0.112488 0.50415 0.0125122 0.50415 0.0125122 0.4375 C 0.0125122 0.37085 0.112488 0.37085 0.112488 0.4375 " transform="matrix(64,0,0,64,0,0)"/>
<path style="fill-rule:nonzero;fill:rgb(0%,0%,100%);fill-opacity:1;stroke-width:0.01125;stroke-linecap:butt;stroke-linejoin:miter;stroke:rgb(0%,0%,0%);stroke-opacity:1;stroke-miterlimit:10;" d="M 0.612488 0.5625 C 0.612488 0.62915 0.512512 0.62915 0.512512 0.5625 C 0.512512 0.49585 0.612488 0.49585 0.612488 0.5625 " transform="matrix(64,0,0,64,0,0)"/>
<path style="fill-rule:nonzero;fill:rgb(0%,0%,100%);fill-opacity:1;stroke-width:0.01125;stroke-linecap:butt;stroke-linejoin:miter;stroke:rgb(0%,0%,0%);stroke-opacity:1;stroke-miterlimit:10;" d="M 0.737488 0.6875 C 0.737488 0.75415 0.637512 0.75415 0.637512 0.6875 C 0.637512 0.62085 0.737488 0.62085 0.737488 0.6875 " transform="matrix(64,0,0,64,0,0)"/>
<path style="fill-rule:nonzero;fill:rgb(0%,0%,100%);fill-opacity:1;stroke-width:0.01125;stroke-linecap:butt;stroke-linejoin:miter;stroke:rgb(0%,0%,0%);stroke-opacity:1;stroke-miterlimit:10;" d="M 0.612488 0.6875 C 0.612488 0.75415 0.512512 0.75415 0.512512 0.6875 C 0.512512 0.62085 0.612488 0.62085 0.612488 0.6875 " transform="matrix(64,0,0,64,0,0)"/>
<path style="fill-rule:nonzero;fill:rgb(0%,0%,100%);fill-opacity:1;stroke-width:0.01125;stroke-linecap:butt;stroke-linejoin:miter;stroke:rgb(0%,0%,0%);stroke-opacity:1;stroke-miterlimit:10;" d="M 0.862488 0.8125 C 0.862488 0.87915 0.762512 0.87915 0.762512 0.8125 C 0.762512 0.74585 0.862488 0.74585 0.862488 0.8125 " transform="matrix(64,0,0,64,0,0)"/>
<path style="fill-rule:nonzero;fill:rgb(0%,0%,100%);fill-opacity:1;stroke-width:0.01125;stroke-linecap:butt;stroke-linejoin:miter;stroke:rgb(0%,0%,0%);stroke-opacity:1;stroke-miterlimit:10;" d="M 0.987488 0.9375 C 0.987488 1.00415 0.887512 1.00415 0.887512 0.9375 C 0.887512 0.87085 0.987488 0.87085 0.987488 0.9375 " transform="matrix(64,0,0,64,0,0)"/>
<path style="fill-rule:nonzero;fill:rgb(0%,0%,100%);fill-opacity:1;stroke-width:0.01125;stroke-linecap:butt;stroke-linejoin:miter;stroke:rgb(0%,0%,0%);stroke-opacity:1;stroke-miterlimit:10;" d="M 0.862488 0.9375 C 0.862488 1.00415 0.762512 1.00415 0.762512 0.9375 C 0.762512 0.87085 0.862488 0.87085 0.862488 0.9375 " transform="matrix(64,0,0,64,0,0)"/>
<path style="fill-rule:nonzero;fill:rgb(0%,0%,100%);fill-opacity:1;stroke-width:0.01125;stroke-linecap:butt;stroke-linejoin:miter;stroke:rgb(0%,0%,0%);stroke-opacity:1;stroke-miterlimit:10;" d="M 0.612488 0.8125 C 0.612488 0.87915 0.512512 0.87915 0.512512 0.8125 C 0.512512 0.74585 0.612488 0.74585 0.612488 0.8125 " transform="matrix(64,0,0,64,0,0)"/>
<path style="fill-rule:nonzero;fill:rgb(0%,0%,100%);fill-opacity:1;stroke-width:0.01125;stroke-linecap:butt;stroke-linejoin:miter;stroke:rgb(0%,0%,0%);stroke-opacity:1;stroke-miterlimit:10;" d="M 0.737488 0.9375 C 0.737488 1.00415 0.637512 1.00415 0.637512 0.9375 C 0.637512 0.87085 0.737488 0.87085 0.737488 0.9375 " transform="matrix(64,0,0,64,0,0)"/>
<path style="fill-rule:nonzero;fill:rgb(0%,0%,100%);fill-opacity:1;stroke-width:0.01125;stroke-linecap:butt;stroke-linejoin:miter;stroke:rgb(0%,0%,0%);stroke-opacity:1;stroke-miterlimit:10;" d="M 0.612488 0.9375 C 0.612488 1.00415 0.512512 1.00415 0.512512 0.9375 C 0.512512 0.87085 0.612488 0.87085 0.612488 0.9375 " transform="matrix(64,0,0,64,0,0)"/>
<path style="fill-rule:nonzero;fill:rgb(100%,0%,0%);fill-opacity:1;stroke-width:0.01125;stroke-linecap:butt;stroke-linejoin:miter;stroke:rgb(0%,0%,0%);stroke-opacity:1;stroke-miterlimit:10;" d="M 0.112488 0.5625 C 0.112488 0.62915 0.0125122 0.62915 0.0125122 0.5625 C 0.0125122 0.49585 0.112488 0.49585 0.112488 0.5625 " transform="matrix(64,0,0,64,0,0)"/>
<path style="fill-rule:nonzero;fill:rgb(100%,0%,0%);fill-opacity:1;stroke-width:0.01125;stroke-linecap:butt;stroke-linejoin:miter;stroke:rgb(0%,0%,0%);stroke-opacity:1;stroke-miterlimit:10;" d="M 0.237488 0.6875 C 0.237488 0.75415 0.137512 0.75415 0.137512 0.6875 C 0.137512 0.62085 0.237488 0.62085 0.237488 0.6875 " transform="matrix(64,0,0,64,0,0)"/>
<path style="fill-rule:nonzero;fill:rgb(100%,0%,0%);fill-opacity:1;stroke-width:0.01125;stroke-linecap:butt;stroke-linejoin:miter;stroke:rgb(0%,0%,0%);stroke-opacity:1;stroke-miterlimit:10;" d="M 0.112488 0.6875 C 0.112488 0.75415 0.0125122 0.75415 0.0125122 0.6875 C 0.0125122 0.62085 0.112488 0.62085 0.112488 0.6875 " transform="matrix(64,0,0,64,0,0)"/>
<path style="fill-rule:nonzero;fill:rgb(100%,0%,0%);fill-opacity:1;stroke-width:0.01125;stroke-linecap:butt;stroke-linejoin:miter;stroke:rgb(0%,0%,0%);stroke-opacity:1;stroke-miterlimit:10;" d="M 0.362488 0.8125 C 0.362488 0.87915 0.262512 0.87915 0.262512 0.8125 C 0.262512 0.74585 0.362488 0.74585 0.362488 0.8125 " transform="matrix(64,0,0,64,0,0)"/>
<path style="fill-rule:nonzero;fill:rgb(100%,0%,0%);fill-opacity:1;stroke-width:0.01125;stroke-linecap:butt;stroke-linejoin:miter;stroke:rgb(0%,0%,0%);stroke-opacity:1;stroke-miterlimit:10;" d="M 0.487488 0.9375 C 0.487488 1.00415 0.387512 1.00415 0.387512 0.9375 C 0.387512 0.87085 0.487488 0.87085 0.487488 0.9375 " transform="matrix(64,0,0,64,0,0)"/>
<path style="fill-rule:nonzero;fill:rgb(100%,0%,0%);fill-opacity:1;stroke-width:0.01125;stroke-linecap:butt;stroke-linejoin:miter;stroke:rgb(0%,0%,0%);stroke-opacity:1;stroke-miterlimit:10;" d="M 0.362488 0.9375 C 0.362488 1.00415 0.262512 1.00415 0.262512 0.9375 C 0.262512 0.87085 0.362488 0.87085 0.362488 0.9375 " transform="matrix(64,0,0,64,0,0)"/>
<path style="fill-rule:nonzero;fill:rgb(100%,0%,0%);fill-opacity:1;stroke-width:0.01125;stroke-linecap:butt;stroke-linejoin:miter;stroke:rgb(0%,0%,0%);stroke-opacity:1;stroke-miterlimit:10;" d="M 0.112488 0.8125 C 0.112488 0.87915 0.0125122 0.87915 0.0125122 0.8125 C 0.0125122 0.74585 0.112488 0.74585 0.112488 0.8125 " transform="matrix(64,0,0,64,0,0)"/>
<path style="fill-rule:nonzero;fill:rgb(100%,0%,0%);fill-opacity:1;stroke-width:0.01125;stroke-linecap:butt;stroke-linejoin:miter;stroke:rgb(0%,0%,0%);stroke-opacity:1;stroke-miterlimit:10;" d="M 0.237488 0.9375 C 0.237488 1.00415 0.137512 1.00415 0.137512 0.9375 C 0.137512 0.87085 0.237488 0.87085 0.237488 0.9375 " transform="matrix(64,0,0,64,0,0)"/>
<path style="fill-rule:nonzero;fill:rgb(100%,0%,0%);fill-opacity:1;stroke-width:0.01125;stroke-linecap:butt;stroke-linejoin:miter;stroke:rgb(0%,0%,0%);stroke-opacity:1;stroke-miterlimit:10;" d="M 0.112488 0.9375 C 0.112488 1.00415 0.0125122 1.00415 0.0125122 0.9375 C 0.0125122 0.87085 0.112488 0.87085 0.112488 0.9375 " transform="matrix(64,0,0,64,0,0)"/>
</g>
</svg>
