<?xml version="1.0" encoding="utf-8"?>
<!-- Generator: Adobe Illustrator 26.5.2, SVG Export Plug-In . SVG Version: 6.00 Build 0)  -->
<svg version="1.1" id="Layer_1" xmlns="http://www.w3.org/2000/svg" xmlns:xlink="http://www.w3.org/1999/xlink" x="0px" y="0px"
	 width="268.60803px" height="234.77225px" viewBox="0 0 268.60803 234.77225" enable-background="new 0 0 268.60803 234.77225"
	 xml:space="preserve">
<linearGradient id="SVGID_1_" gradientUnits="userSpaceOnUse" x1="67.81334" y1="62.45778" x2="193.99876" y2="122.48549">
	<stop  offset="0" style="stop-color:#F7D57E"/>
	<stop  offset="0.93042" style="stop-color:#FFFFBA"/>
</linearGradient>
<polygon fill="url(#SVGID_1_)" points="106.91758,0.26191 8.6476,135.32013 129.1846,234.39949 268.17795,15.02653 "/>
<linearGradient id="SVGID_00000147221812325124812000000011595658287963260057_" gradientUnits="userSpaceOnUse" x1="130.91473" y1="74.96756" x2="9.50735" y2="29.7753">
	<stop  offset="0.03028" style="stop-color:#B0F5A4"/>
	<stop  offset="0.99511" style="stop-color:#56CC8C"/>
</linearGradient>
<path fill="url(#SVGID_00000147221812325124812000000011595658287963260057_)" d="M86.19604,71.28287
	c3.77066-12.63845,8.9694-26.60424,13.92825-38.92747C44.26997,33.52672,0.01207,42.54254,0.12522,52.98893
	c0.10326,9.53366,37.12817,17.07568,86.06247,18.29144"/>
<linearGradient id="SVGID_00000078729218270362915330000016129980227699503248_" gradientUnits="userSpaceOnUse" x1="41.3533" y1="15.16178" x2="167.13693" y2="101.96099">
	<stop  offset="0.03028" style="stop-color:#B0F5A4"/>
	<stop  offset="0.99511" style="stop-color:#56CC8C"/>
</linearGradient>
<path fill="url(#SVGID_00000078729218270362915330000016129980227699503248_)" d="M210.19751,54.72356
	c-18.48947,16.39533-54.07733,44.37944-69.29253,54.16379c-5.60352,3.60342-39.32548,24.38035-51.74118,16.21906L2.8787,57.37156
	c10.94062,8.57049,53.19775,14.59182,103.58669,14.04608C157.62962,70.86349,200.26521,63.72183,210.19751,54.72356z"/>
<g>
	<g>
		
			<line fill="none" stroke="#000000" stroke-width="0.5" stroke-miterlimit="10" x1="109.91364" y1="141.3887" x2="137.57352" y2="156.12338"/>
		<g>
			<polygon points="140.68927,157.78317 135.34305,157.23837 137.34058,155.9993 137.25424,153.65073 			"/>
		</g>
	</g>
</g>
<g>
	<g>
		
			<line fill="none" stroke="#000000" stroke-width="0.5" stroke-miterlimit="10" x1="72.20662" y1="153.23306" x2="142.71417" y2="131.08557"/>
		<g>
			<polygon points="68.83859,154.29102 74.19374,154.73953 72.4584,153.15396 72.97556,150.86139 			"/>
		</g>
		<g>
			<polygon points="146.08218,130.02762 141.94537,133.45767 142.46237,131.16464 140.7272,129.57956 			"/>
		</g>
	</g>
</g>
<g>
	<g>
		
			<line fill="none" stroke="#000000" stroke-width="0.5" stroke-miterlimit="10" x1="109.91364" y1="141.3887" x2="109.18481" y2="99.97742"/>
		<g>
			<polygon points="109.12268,96.44766 111.24261,101.38574 109.18945,100.24127 107.17831,101.45728 			"/>
		</g>
	</g>
</g>
<line fill="none" stroke="#000000" stroke-width="0.5" stroke-miterlimit="10" x1="109.91365" y1="141.3887" x2="89.27673" y2="125.06612"/>
<line fill="none" stroke="#000000" stroke-width="0.5" stroke-miterlimit="10" x1="109.91365" y1="141.3887" x2="146.2979" y2="87.74709"/>
<line fill="none" stroke="#000000" stroke-width="0.25" stroke-miterlimit="10" x1="109.12269" y1="96.44768" x2="146.2979" y2="87.74709"/>
<line fill="none" stroke="#000000" stroke-width="0.25" stroke-miterlimit="10" x1="82.39127" y1="85.96364" x2="140.90498" y2="108.88735"/>
<path fill="none" stroke="#AA8757" stroke-width="0.25" stroke-miterlimit="10" d="M158.19322,96.64719
	c0.19832,5.00265-6.18552,8.67211-16.76212,11.89989"/>
<path fill="none" stroke="#589370" stroke-width="0.25" stroke-miterlimit="10" d="M82.39113,85.96294
	c7.5517-1.53152,16.47692-2.49622,26.05079-2.66473c26.78992-0.4715,48.72335,5.46628,49.7513,13.34898"/>
<path fill="none" stroke="#AA8757" stroke-width="0.25" stroke-miterlimit="10" d="M100.1243,32.35539
	c1.95854-0.04107,3.93135-0.0725,5.917-0.09401c58.61294-0.63481,106.22306,7.616,106.34017,18.4287
	c0.01488,1.37411-0.73798,2.72346-2.18396,4.03347"/>
<line fill="none" stroke="#AA8757" stroke-width="0.25" stroke-miterlimit="10" x1="109.91365" y1="141.3887" x2="210.19733" y2="54.72334"/>
<g>
	<g>
		<path d="M83.34491,126.66412v0.44629h-0.5625v1.125h-0.50977v-1.125h-1.77539v-0.40234l1.94531-2.82129h0.33984v2.77734H83.34491z
			 M82.27264,126.66412v-2.11426l-1.47168,2.11426H82.27264z"/>
	</g>
	<g>
		<path d="M79.65009,124.2276h-2.43994c0.02832,0.59961,0.18555,1.07324,0.4707,1.4209
			c0.21875,0.26758,0.48193,0.40137,0.78955,0.40137c0.19043,0,0.36328-0.05371,0.51855-0.16211
			c0.15527-0.10742,0.32178-0.30176,0.49951-0.58203l0.16162,0.10645c-0.24072,0.49902-0.50732,0.85254-0.79883,1.06055
			c-0.29199,0.20801-0.62939,0.3125-1.01318,0.3125c-0.65967,0-1.15918-0.25781-1.49854-0.77344
			c-0.27246-0.41602-0.40869-0.93164-0.40869-1.54785c0-0.75342,0.2002-1.35352,0.60156-1.80029
			c0.40088-0.44629,0.87109-0.66943,1.41016-0.66943c0.4502,0,0.84131,0.18799,1.17236,0.56348
			C79.44647,122.93317,79.62469,123.48981,79.65009,124.2276z M78.48016,123.90338c0-0.51855-0.02783-0.87451-0.0835-1.06787
			c-0.05518-0.19336-0.1416-0.33984-0.25879-0.43994c-0.06689-0.05811-0.15576-0.08691-0.2666-0.08691
			c-0.16504,0-0.2998,0.08203-0.4043,0.24658c-0.18701,0.28662-0.28076,0.67969-0.28076,1.1792v0.16895H78.48016z"/>
	</g>
</g>
<g>
	<g>
		<path d="M156.41571,79.35455l-0.24121,0.53418h-1.26172l-0.27539,0.57227c0.5459,0.08105,0.97949,0.28809,1.29883,0.61816
			c0.27344,0.28516,0.41113,0.62012,0.41113,1.00586c0,0.22461-0.04492,0.43164-0.13477,0.62207s-0.20215,0.35352-0.33887,0.4873
			c-0.13574,0.13379-0.28711,0.24219-0.4541,0.32324c-0.2373,0.11523-0.48047,0.17285-0.72949,0.17285
			c-0.25195,0-0.43457-0.04297-0.54883-0.12988s-0.17188-0.18262-0.17188-0.28809c0-0.05859,0.02344-0.11035,0.07129-0.15527
			s0.10742-0.06738,0.17969-0.06738c0.05371,0,0.10059,0.00781,0.14062,0.02539c0.04004,0.0166,0.1084,0.05957,0.20508,0.12891
			c0.15527,0.1084,0.31152,0.16309,0.4707,0.16309c0.24023,0,0.45215-0.09277,0.63477-0.27832s0.27344-0.41113,0.27344-0.67676
			c0-0.25781-0.08105-0.49805-0.24414-0.72168c-0.16309-0.22266-0.3877-0.39551-0.67383-0.5166
			c-0.22461-0.09473-0.53027-0.14844-0.91797-0.16309l0.80371-1.65625H156.41571z"/>
	</g>
	<g>
		<path d="M153.10614,79.60748h-2.44043c0.02832,0.59961,0.18555,1.07324,0.4707,1.4209
			c0.21875,0.26758,0.48242,0.40137,0.79004,0.40137c0.19043,0,0.36328-0.05371,0.51855-0.16211
			c0.15527-0.10742,0.32129-0.30176,0.49902-0.58203l0.16211,0.10645c-0.24121,0.49902-0.50781,0.85254-0.79883,1.06055
			c-0.29199,0.20801-0.62988,0.3125-1.01367,0.3125c-0.65918,0-1.15918-0.25781-1.49805-0.77344
			c-0.27246-0.41602-0.40918-0.93164-0.40918-1.54785c0-0.75342,0.2002-1.35352,0.60156-1.80029
			c0.40137-0.44629,0.87109-0.66943,1.41016-0.66943c0.4502,0,0.8418,0.18799,1.17285,0.56348
			S153.08075,78.86969,153.10614,79.60748z M151.93622,79.28326c0-0.51855-0.02832-0.87451-0.08398-1.06787
			c-0.05469-0.19336-0.1416-0.33984-0.25879-0.43994c-0.06641-0.05811-0.15527-0.08691-0.2666-0.08691
			c-0.16504,0-0.2998,0.08203-0.4043,0.24658c-0.18652,0.28662-0.28027,0.67969-0.28027,1.1792v0.16895H151.93622z"/>
	</g>
</g>
<g>
	<g>
		<path d="M111.66718,91.65729h3.24609v0.31055h-3.24609V91.65729z"/>
	</g>
	<g>
		<path d="M110.80438,89.45905h-2.43994c0.02832,0.59961,0.18555,1.07324,0.4707,1.4209
			c0.21875,0.26758,0.48193,0.40137,0.78955,0.40137c0.19043,0,0.36328-0.05371,0.51855-0.16211
			c0.15527-0.10742,0.32178-0.30176,0.49951-0.58203l0.16162,0.10645c-0.24072,0.49902-0.50732,0.85254-0.79883,1.06055
			c-0.29199,0.20801-0.62939,0.3125-1.01318,0.3125c-0.65967,0-1.15918-0.25781-1.49854-0.77344
			c-0.27246-0.41602-0.40869-0.93164-0.40869-1.54785c0-0.75391,0.2002-1.35352,0.60156-1.80078
			c0.40088-0.44629,0.87109-0.66895,1.41016-0.66895c0.4502,0,0.84131,0.1875,1.17236,0.56348
			C110.60077,88.16412,110.77899,88.72076,110.80438,89.45905z M109.63446,89.13483c0-0.51855-0.02783-0.875-0.0835-1.06836
			c-0.05518-0.19336-0.1416-0.33984-0.25879-0.43945c-0.06689-0.05859-0.15576-0.08691-0.2666-0.08691
			c-0.16504,0-0.2998,0.08203-0.4043,0.24609c-0.18701,0.28711-0.28076,0.67969-0.28076,1.17969v0.16895H109.63446z"/>
	</g>
</g>
<g>
	<g>
		<path d="M156.61395,128.67291h0.30371v1.50195h1.46777v0.30469h-1.46777v1.49219h-0.30371v-1.49219h-1.47461v-0.30469h1.47461
			V128.67291z"/>
	</g>
	<g>
		<path d="M154.27704,127.96393h-2.44043c0.02832,0.59961,0.18555,1.07324,0.4707,1.4209
			c0.21875,0.26758,0.48242,0.40137,0.79004,0.40137c0.19043,0,0.36328-0.05371,0.51855-0.16211
			c0.15527-0.10742,0.32129-0.30176,0.49902-0.58203l0.16211,0.10645c-0.24121,0.49902-0.50781,0.85254-0.79883,1.06055
			c-0.29199,0.20801-0.62988,0.3125-1.01367,0.3125c-0.65918,0-1.15918-0.25781-1.49805-0.77344
			c-0.27246-0.41602-0.40918-0.93164-0.40918-1.54785c0-0.75342,0.2002-1.35352,0.60156-1.80029
			c0.40137-0.44629,0.87109-0.66943,1.41016-0.66943c0.4502,0,0.8418,0.18799,1.17285,0.56348
			S154.25165,127.22614,154.27704,127.96393z M153.10712,127.63971c0-0.51855-0.02832-0.87451-0.08398-1.06787
			c-0.05469-0.19336-0.1416-0.33984-0.25879-0.43994c-0.06641-0.05811-0.15527-0.08691-0.2666-0.08691
			c-0.16504,0-0.2998,0.08203-0.4043,0.24658c-0.18652,0.28662-0.28027,0.67969-0.28027,1.1792v0.16895H153.10712z"/>
	</g>
</g>
<g>
	<g>
		<path d="M65.03925,156.94147h0.30566v1.50195h1.48047v0.30469h-1.48047v1.49219h-0.30566v-1.49219h-1.4873v-0.30469h1.4873
			V156.94147z"/>
	</g>
	<g>
		<path d="M53.36395,155.87018h5.03662v0.47852h-5.03662V155.87018z"/>
	</g>
	<g>
		<path d="M62.69159,156.23248h-2.46094c0.02881,0.59961,0.1875,1.07324,0.47461,1.4209
			c0.2207,0.26758,0.48633,0.40137,0.79688,0.40137c0.19141,0,0.36621-0.05371,0.52246-0.16211
			c0.15723-0.10742,0.32422-0.30176,0.50391-0.58203l0.16309,0.10645c-0.24316,0.49902-0.51172,0.85254-0.80566,1.06055
			c-0.29492,0.20801-0.63477,0.3125-1.02148,0.3125c-0.66553,0-1.16943-0.25781-1.51123-0.77344
			c-0.2749-0.41602-0.4126-0.93164-0.4126-1.54785c0-0.75342,0.20215-1.35352,0.60693-1.80029
			c0.4043-0.44629,0.87842-0.66943,1.42236-0.66943c0.4541,0,0.84766,0.18799,1.18164,0.56348S62.6662,155.49469,62.69159,156.23248
			z M61.5119,155.90826c0-0.51855-0.02832-0.87451-0.08398-1.06787c-0.05664-0.19336-0.14355-0.33984-0.26172-0.43994
			c-0.06738-0.05811-0.15625-0.08691-0.26855-0.08691c-0.16602,0-0.30176,0.08203-0.4082,0.24658
			c-0.18848,0.28662-0.28271,0.67969-0.28271,1.1792v0.16895H61.5119z"/>
	</g>
</g>
<g>
	<g>
		<path d="M145.68427,158.04108c0.16113,0.16504,0.28223,0.33008,0.36523,0.49512c0.05859,0.11426,0.15527,0.41406,0.29004,0.8999
			l0.43262-0.62842c0.11523-0.15234,0.25488-0.29736,0.41895-0.43555s0.30859-0.23242,0.43359-0.2832
			c0.0791-0.03174,0.16602-0.04785,0.26074-0.04785c0.1416,0,0.25391,0.03662,0.33789,0.10938
			c0.08301,0.07324,0.125,0.16211,0.125,0.2666c0,0.12109-0.02441,0.20361-0.07422,0.24805
			c-0.0918,0.0791-0.19629,0.11865-0.31445,0.11865c-0.06934,0-0.14258-0.01416-0.22168-0.04248
			c-0.1543-0.05078-0.25781-0.07617-0.31055-0.07617c-0.0791,0-0.17188,0.04443-0.28027,0.13281
			c-0.2041,0.16553-0.44727,0.48438-0.72852,0.95703l0.40332,1.6377c0.0625,0.25098,0.11523,0.40039,0.15723,0.4502
			c0.04297,0.04883,0.08594,0.07324,0.12793,0.07324c0.06934,0,0.14941-0.03613,0.24121-0.10938
			c0.18066-0.14551,0.33496-0.33594,0.46289-0.57129l0.17285,0.08594c-0.20703,0.375-0.46973,0.68555-0.78809,0.93262
			c-0.18066,0.13965-0.33301,0.20996-0.45801,0.20996c-0.18359,0-0.3291-0.09961-0.43848-0.2998
			c-0.06836-0.12402-0.21094-0.65723-0.42773-1.59961c-0.51172,0.86035-0.92285,1.41406-1.23145,1.66113
			c-0.2002,0.15918-0.39355,0.23828-0.58105,0.23828c-0.13086,0-0.25098-0.0459-0.35938-0.1377
			c-0.07812-0.07031-0.11816-0.16406-0.11816-0.28125c0-0.10449,0.03613-0.19238,0.1084-0.26172
			c0.07227-0.07031,0.16113-0.10449,0.26562-0.10449c0.10547,0,0.2168,0.05078,0.33496,0.15234
			c0.08594,0.07227,0.15137,0.10938,0.19727,0.10938c0.03906,0,0.08984-0.02539,0.15234-0.07617
			c0.1543-0.12109,0.36426-0.38086,0.63086-0.78125c0.26562-0.39941,0.43945-0.68848,0.52148-0.86621
			c-0.20312-0.77148-0.31348-1.1792-0.33008-1.22363c-0.0752-0.20605-0.17383-0.35205-0.29492-0.43799
			c-0.12207-0.08545-0.30078-0.12842-0.53711-0.12842c-0.0752,0-0.16211,0.00342-0.26074,0.00977v-0.17188L145.68427,158.04108z"/>
	</g>
</g>
<g>
	<g>
		
			<line fill="none" stroke="#000000" stroke-width="0.25" stroke-miterlimit="10" x1="109.12268" y1="96.44766" x2="108.55118" y2="97.26828"/>
		
			<line fill="none" stroke="#000000" stroke-width="0.25" stroke-miterlimit="10" stroke-dasharray="1.95682,1.95682" x1="107.43286" y1="98.87405" x2="69.96925" y2="152.66751"/>
		
			<line fill="none" stroke="#000000" stroke-width="0.25" stroke-miterlimit="10" x1="69.4101" y1="153.4704" x2="68.83859" y2="154.29102"/>
	</g>
</g>
<path fill="none" stroke="#000000" stroke-width="0.25" stroke-miterlimit="10" d="M59.17181,98.89129
	c-0.09301-5.28478,9.19447-10.08405,23.21931-12.92835"/>
<path fill="none" stroke="#000000" stroke-width="0.25" stroke-miterlimit="10" d="M141.43111,108.54709
	c-8.66286,2.40846-20.01822,3.97469-32.471,4.19386"/>
<line fill="none" stroke="#589370" stroke-width="0.5" stroke-miterlimit="10" x1="83.12044" y1="32.96772" x2="42.64823" y2="88.59106"/>
<path fill="none" stroke="#000000" stroke-width="0.25" stroke-miterlimit="10" d="M100.1243,32.35539
	C44.26997,33.52672,0.01207,42.54254,0.12522,52.98893"/>
<path fill="none" stroke="#000000" stroke-width="0.25" stroke-miterlimit="10" d="M106.46539,71.41763
	c51.16424-0.55414,93.79983-7.6958,103.73212-16.69407"/>
<line fill="none" stroke="#000000" stroke-width="0.25" stroke-miterlimit="10" x1="109.92815" y1="141.40668" x2="2.74633" y2="57.26757"/>
<path fill="none" stroke="#7B2BE2" stroke-miterlimit="10" d="M86.19604,71.28288
	c8.10354-27.1613,22.80283-60.45313,27.54166-70.39654"/>
<path fill="none" stroke="#7D98D8" stroke-miterlimit="10" d="M89.27673,125.06612
	c-5.77766-3.79787-12.55952-12.05618-6.88547-39.10249c0.95106-4.5334,2.25772-9.49536,3.80478-14.68076"/>
<path fill="none" stroke="#7B2BE2" stroke-miterlimit="10" d="M254.22888,13.74938
	c-17.25673,16.7472-25.81474,24.81425-44.30421,41.20959s-53.80449,44.14403-69.01968,53.92838
	c-5.60352,3.60342-39.21255,24.34007-51.62825,16.17877"/>
<path fill="none" stroke="#000000" stroke-width="0.25" stroke-miterlimit="10" d="M108.96011,112.74094
	c-27.35422,0.48143-49.6452-5.71927-49.78829-13.84966"/>
<line fill="none" stroke="#000000" stroke-width="0.25" stroke-miterlimit="10" x1="66.51953" y1="106.41862" x2="109.12269" y2="96.44768"/>
<path fill="none" stroke="#000000" stroke-width="0.25" stroke-miterlimit="10" d="M0.12522,52.98893
	c0.11711,10.8127,47.72723,19.06351,106.34017,18.4287"/>
<polyline fill="none" stroke="#000000" stroke-width="0.5" stroke-miterlimit="10" points="42.64823,88.59106 8.6476,135.32013 
	129.1846,234.39949 268.17795,15.02653 106.91758,0.26191 83.12044,32.96772 "/>
<circle cx="146.2979" cy="87.74709" r="2.25"/>
<circle cx="89.27673" cy="125.06612" r="2.25"/>
<circle fill="#FFFFFF" stroke="#000000" stroke-width="0.5" stroke-miterlimit="10" cx="109.88218" cy="141.39859" r="2.25"/>
<line fill="none" stroke="#000000" stroke-width="0.25" stroke-miterlimit="10" stroke-dasharray="2" x1="146.2979" y1="87.74709" x2="146.08218" y2="130.02762"/>
<line fill="none" stroke="#000000" stroke-width="0.25" stroke-miterlimit="10" stroke-dasharray="2" x1="66.51953" y1="106.41862" x2="68.8386" y2="154.29102"/>
<g>
	<path fill="none" d="M254.22888,13.74938c-17.25673,16.7472-25.81474,24.81425-44.30421,41.20959
		s-53.80449,44.14403-69.01968,53.92838c-5.60352,3.60342-39.21255,24.34007-51.62825,16.17877
		c-5.77766-3.79787-12.55952-12.05618-6.88547-39.10249c5.93276-28.27951,25.70291-73.23559,31.34644-85.0773"/>
	<path fill="#7B2BE2" d="M198.23993,71.17194l2.36621-1.96484l-1.20996-1.45752c-0.21582-0.26074-0.375-0.41846-0.47656-0.47412
		c-0.07715-0.04199-0.17383-0.05225-0.29199-0.03076c-0.15723,0.0293-0.2959,0.09424-0.41602,0.19385l-0.18066,0.1499
		l-0.11523-0.13916l2.17871-1.80908l0.11523,0.13867l-0.18066,0.1499c-0.12012,0.09961-0.20996,0.22314-0.26953,0.37012
		c-0.04688,0.10693-0.05078,0.21289-0.0127,0.31787c0.03906,0.10547,0.16309,0.2832,0.37109,0.53369l2.72949,3.28662
		c0.21387,0.2583,0.37109,0.41504,0.47266,0.4707c0.07715,0.0415,0.17285,0.05273,0.28809,0.0332
		c0.16016-0.03125,0.30078-0.09668,0.4209-0.19678l0.17969-0.14941l0.11523,0.13867l-2.17871,1.80957l-0.11523-0.13916
		l0.18066-0.14941c0.20801-0.17285,0.30859-0.35986,0.30176-0.56152c-0.00391-0.13232-0.13281-0.35107-0.38672-0.65674
		l-1.28809-1.55127l-2.36719,1.96533l1.28906,1.55127c0.21387,0.25781,0.37207,0.41455,0.47266,0.47021
		c0.07715,0.04199,0.1748,0.05225,0.29199,0.03076c0.15723-0.0293,0.29688-0.09424,0.41699-0.19385l0.18359-0.15283l0.11523,0.13916
		l-2.18164,1.81201l-0.11621-0.13867l0.18066-0.1499c0.20996-0.1748,0.3125-0.36279,0.30566-0.56445
		c-0.00684-0.13037-0.13672-0.34814-0.39062-0.65332l-2.72949-3.28711c-0.21582-0.26025-0.375-0.41846-0.47656-0.47412
		c-0.07617-0.0415-0.17285-0.05273-0.28809-0.03369c-0.16016,0.03174-0.2998,0.09717-0.41992,0.19727l-0.18066,0.14941
		l-0.11523-0.13867l2.18262-1.8125l0.11523,0.13867l-0.18359,0.15283c-0.12012,0.1001-0.21094,0.22363-0.27051,0.37061
		c-0.04395,0.10449-0.04785,0.20996-0.00977,0.31641c0.03711,0.10596,0.16016,0.28467,0.36816,0.53516L198.23993,71.17194z"/>
	<path fill="#7B2BE2" d="M203.45477,65.43854c0.51758-0.43701,1.09863-0.59131,1.74414-0.46289
		c0.5498,0.11084,1.00879,0.38428,1.37598,0.81934c0.25781,0.30566,0.44629,0.67725,0.56445,1.11475s0.11523,0.84424-0.00781,1.2207
		s-0.34277,0.69824-0.6582,0.96484c-0.51465,0.43506-1.09668,0.5752-1.74707,0.42139
		c-0.54785-0.12939-1.00391-0.40918-1.36719-0.83936c-0.26465-0.31348-0.4502-0.69092-0.55566-1.13184
		c-0.10645-0.44043-0.09473-0.84229,0.0332-1.20459C202.96552,65.97906,203.17157,65.6778,203.45477,65.43854z M203.54462,65.77887
		c-0.13184,0.11133-0.23145,0.26221-0.29785,0.45264c-0.06738,0.19092-0.05859,0.41943,0.02539,0.68506
		s0.25586,0.55273,0.5166,0.86133c0.41992,0.49707,0.88086,0.84277,1.38281,1.03613c0.50293,0.19385,0.91504,0.1543,1.23828-0.11914
		c0.24121-0.20361,0.35645-0.47119,0.34473-0.80225c-0.01074-0.33154-0.22168-0.73926-0.63086-1.22461
		c-0.5127-0.60645-1.04688-0.97363-1.60156-1.10156C204.14423,65.47711,203.81805,65.54791,203.54462,65.77887z"/>
	<path fill="#7B2BE2" d="M206.59442,62.7691l0.6543,0.76416c-0.15234-0.75293-0.07812-1.25732,0.2207-1.51367
		c0.13574-0.11621,0.28418-0.17139,0.44434-0.16504c0.15918,0.00684,0.28613,0.06445,0.37891,0.17334
		c0.08301,0.09619,0.12109,0.20557,0.11328,0.32715c-0.00684,0.12207-0.05469,0.22119-0.14355,0.29736
		c-0.08691,0.07422-0.2207,0.11426-0.40137,0.12109s-0.29688,0.03271-0.34863,0.07715
		c-0.04395,0.03809-0.07129,0.104-0.08105,0.19775c-0.02441,0.19678,0.00391,0.4624,0.08398,0.79639l1.39453,1.62793
		c0.16113,0.18799,0.30566,0.31006,0.43555,0.36621c0.08887,0.03906,0.19336,0.0459,0.31348,0.02051
		c0.12012-0.0249,0.25586-0.10352,0.40918-0.23486l0.11426,0.13379l-1.73926,1.48926l-0.11426-0.1333
		c0.17285-0.14844,0.27832-0.28564,0.31641-0.41211c0.02734-0.09229,0.0166-0.19238-0.03223-0.30029
		c-0.02344-0.05225-0.12012-0.17773-0.29004-0.37549l-1.12695-1.31641c-0.33887-0.39551-0.54883-0.62451-0.62988-0.68604
		c-0.08008-0.06152-0.15723-0.09131-0.22949-0.08887c-0.07324,0.00244-0.1416,0.03125-0.20605,0.08643
		c-0.07715,0.06543-0.14746,0.1582-0.21191,0.27783l-0.15137-0.10156l0.6709-1.29541L206.59442,62.7691z"/>
	<path fill="#7B2BE2" d="M209.79755,60.00446c0.51074-0.44482,1.08984-0.60791,1.73633-0.48975
		c0.55176,0.10254,1.01465,0.36865,1.38867,0.79834c0.2627,0.30176,0.45703,0.67041,0.58105,1.10596
		c0.125,0.43506,0.12891,0.84229,0.01172,1.2207s-0.33203,0.70312-0.64355,0.97461c-0.50781,0.44287-1.08887,0.5918-1.74023,0.44775
		c-0.55078-0.12061-1.01074-0.39355-1.38086-0.81836c-0.26855-0.30908-0.45996-0.68359-0.57324-1.12256
		c-0.1123-0.43945-0.10742-0.84082,0.01562-1.20508S209.51825,60.24811,209.79755,60.00446z M209.89227,60.34283
		c-0.12988,0.11328-0.22754,0.26611-0.29102,0.45752c-0.06445,0.19189-0.05176,0.41992,0.03613,0.68457
		c0.08789,0.26416,0.26367,0.54883,0.5293,0.85303c0.42773,0.49121,0.89355,0.82959,1.39941,1.01514
		c0.50488,0.18604,0.91699,0.14014,1.23633-0.13818c0.2373-0.20703,0.34863-0.47656,0.33203-0.80762
		s-0.2334-0.73584-0.64941-1.21436c-0.52246-0.59912-1.06152-0.95801-1.61816-1.07715
		C210.487,60.03229,210.1618,60.10797,209.89227,60.34283z"/>
	<path fill="#7B2BE2" d="M214.07782,56.22809l1.01172,1.13916l-0.12012,0.10693c-0.41016-0.27588-0.74512-0.41357-1.00488-0.41406
		c-0.25879-0.00049-0.50098,0.09863-0.72461,0.29736c-0.1709,0.15137-0.26855,0.31836-0.29297,0.50146
		c-0.02441,0.18262,0.01172,0.3291,0.1084,0.43848c0.12109,0.13672,0.26367,0.21875,0.42871,0.24707
		c0.16406,0.03271,0.41113,0.00244,0.74121-0.09082l0.76367-0.21387c0.70801-0.19775,1.2373-0.09912,1.58691,0.29541
		c0.27051,0.3042,0.37305,0.65137,0.30859,1.04199s-0.23926,0.71191-0.52441,0.96484
		c-0.20508,0.18164-0.4707,0.35254-0.79883,0.5127c-0.10156,0.04736-0.17871,0.09326-0.22949,0.13867
		c-0.05566,0.0498-0.07129,0.12012-0.04688,0.21143l-0.12109,0.10693l-1.05957-1.19385l0.12109-0.10693
		c0.37012,0.28027,0.72852,0.42139,1.07422,0.42334c0.3457,0.00244,0.6377-0.10254,0.87598-0.31396
		c0.16895-0.14941,0.26172-0.32031,0.28027-0.5127s-0.03418-0.3584-0.15723-0.49707
		c-0.14941-0.16797-0.33398-0.25684-0.55371-0.2666c-0.21875-0.00928-0.58301,0.05469-1.0918,0.19287
		c-0.50879,0.1377-0.88086,0.18506-1.11523,0.14111c-0.23242-0.0415-0.44336-0.16846-0.63086-0.38037
		c-0.24414-0.2749-0.35449-0.58887-0.33008-0.94141c0.02441-0.35205,0.18652-0.66162,0.48633-0.92725
		c0.13086-0.1167,0.31543-0.22998,0.55273-0.34082c0.15625-0.07324,0.25586-0.12842,0.29688-0.16553
		c0.03906-0.03418,0.06152-0.06982,0.06836-0.10645s-0.00098-0.09717-0.02344-0.18115L214.07782,56.22809z"/>
	<path fill="#7B2BE2" d="M214.98407,56.19391l0.65723-1.33154l0.13867-0.12354l0.69531,0.78027
		c-0.08984-0.44775-0.09961-0.80811-0.03125-1.08105c0.06934-0.27246,0.19922-0.49463,0.3916-0.66553
		c0.33496-0.29883,0.73145-0.4165,1.18848-0.35352c0.56055,0.07617,1.07031,0.37158,1.53027,0.88672
		c0.5127,0.57617,0.77246,1.19971,0.77734,1.87061c0.00293,0.55127-0.20215,1.01123-0.61523,1.37939
		c-0.17969,0.16016-0.3584,0.27344-0.53516,0.33936c-0.12988,0.0498-0.30371,0.07471-0.52246,0.07373l0.90625,1.0166
		c0.20312,0.22852,0.34668,0.36133,0.42969,0.39844s0.17578,0.04297,0.27734,0.01758
		c0.10254-0.02539,0.24414-0.11914,0.42676-0.28125l0.12012,0.13477l-1.75,1.55908l-0.12012-0.13477l0.09082-0.08105
		c0.13574-0.1167,0.22754-0.24414,0.27441-0.38184c0.02246-0.06787,0.01953-0.14307-0.00781-0.22559
		c-0.02734-0.08203-0.14941-0.24463-0.36621-0.48779l-2.81348-3.15674c-0.19238-0.21631-0.32422-0.34473-0.39551-0.38574
		c-0.07227-0.04102-0.1416-0.05713-0.20996-0.04834c-0.06934,0.0083-0.13965,0.04541-0.21289,0.11035
		c-0.05762,0.05176-0.11719,0.13525-0.17676,0.24902L214.98407,56.19391z M216.66669,55.73395l1.11133,1.24658
		c0.24023,0.27002,0.40918,0.4375,0.50684,0.50293c0.16016,0.11084,0.35352,0.16064,0.58105,0.14941
		c0.22852-0.01074,0.44238-0.10645,0.64453-0.28613c0.24316-0.2168,0.35547-0.48682,0.33691-0.81055
		c-0.02344-0.42334-0.23633-0.85986-0.63672-1.30957c-0.45508-0.51025-0.91602-0.80322-1.38477-0.87842
		c-0.32422-0.05078-0.59375,0.01904-0.80762,0.20947c-0.11621,0.104-0.20605,0.23584-0.26855,0.396
		C216.70184,55.07574,216.67352,55.33551,216.66669,55.73395z"/>
	<path fill="#7B2BE2" d="M217.98798,49.60797l2.18457,2.43555c0.00391-0.53711,0.04688-0.91797,0.12891-1.14258
		c0.08301-0.2251,0.20312-0.40771,0.36035-0.54932c0.18945-0.16943,0.39844-0.2627,0.62793-0.28027
		c0.22852-0.01758,0.47559,0.05566,0.74121,0.22021c0.18555,0.11377,0.46289,0.37646,0.83203,0.78857l1.05566,1.17822
		c0.18945,0.21045,0.33594,0.33984,0.43945,0.38672c0.07617,0.03662,0.1582,0.04541,0.24707,0.02734
		s0.21094-0.09668,0.36621-0.23584l0.11719,0.13086l-1.63672,1.4668l-0.11719-0.13086l0.07617-0.06836
		c0.15527-0.13916,0.24219-0.25977,0.26074-0.36133c0.01758-0.10156-0.00195-0.20898-0.06055-0.32275
		c-0.02734-0.04541-0.12598-0.1626-0.2959-0.35156l-1.05566-1.17822c-0.32617-0.36328-0.55859-0.58496-0.69824-0.66553
		c-0.13965-0.08008-0.27637-0.11182-0.41016-0.09473c-0.13379,0.0166-0.25781,0.07715-0.375,0.18164
		c-0.11816,0.10645-0.21387,0.24902-0.28516,0.42725c-0.07227,0.17822-0.1123,0.44336-0.12012,0.79541l1.57812,1.75977
		c0.2041,0.22754,0.34375,0.35791,0.41895,0.39111c0.07617,0.03271,0.16504,0.03711,0.26758,0.0127s0.23926-0.1123,0.4082-0.26465
		l0.11816,0.13086l-1.65039,1.47998l-0.11816-0.13086c0.14844-0.13281,0.24414-0.25977,0.28711-0.38232
		c0.02734-0.06738,0.02441-0.14844-0.00684-0.24219c-0.03223-0.09375-0.1416-0.24512-0.32812-0.45361l-2.70215-3.01367
		c-0.3418-0.38086-0.56055-0.60645-0.65625-0.67725c-0.09668-0.07129-0.17773-0.10547-0.24414-0.10352
		c-0.06543,0.00244-0.12988,0.03174-0.19336,0.08838c-0.05078,0.04541-0.11523,0.13867-0.19434,0.27979l-0.16504-0.08154
		l0.63086-1.30029L217.98798,49.60797z"/>
	<path fill="#7B2BE2" d="M224.06708,49.73297c0.44238,0.49512,0.91113,0.77393,1.40527,0.83594
		c0.49512,0.06201,0.90527-0.0542,1.23145-0.34863c0.21777-0.19678,0.35254-0.42725,0.40527-0.69189s0.00195-0.59082-0.15039-0.979
		l0.17773-0.02881c0.24805,0.37646,0.37305,0.81104,0.37402,1.30322s-0.18164,0.9043-0.54883,1.23584
		c-0.39844,0.35986-0.87988,0.5127-1.44434,0.4585c-0.56348-0.05371-1.08301-0.34326-1.55664-0.86719
		c-0.51172-0.56787-0.7666-1.14209-0.7627-1.72266c0.00488-0.58057,0.22656-1.06934,0.66602-1.46631
		c0.37207-0.33594,0.78906-0.48975,1.24902-0.46045c0.46094,0.0293,0.87695,0.24951,1.24805,0.66016L224.06708,49.73297z
		 M223.87665,49.52301l1.53711-1.3877c-0.2041-0.20166-0.36523-0.32861-0.48242-0.38086
		c-0.18262-0.08057-0.36816-0.10547-0.55762-0.07471s-0.34961,0.10498-0.48047,0.22266
		c-0.2002,0.18115-0.30957,0.4209-0.32617,0.71973C223.5495,48.92096,223.65204,49.22125,223.87665,49.52301z"/>
	<path fill="#7B2BE2" d="M226.56805,45.01862l0.67676,0.74414c-0.17383-0.74805-0.11523-1.25439,0.17578-1.51953
		c0.13281-0.12061,0.2793-0.17969,0.43848-0.17822c0.16016,0.00195,0.28906,0.05615,0.38477,0.16211
		c0.08594,0.09375,0.12695,0.20166,0.12305,0.32373c-0.00293,0.12207-0.04883,0.22217-0.13477,0.30127
		c-0.08496,0.07666-0.2168,0.12109-0.39746,0.1333c-0.17969,0.01221-0.2959,0.04102-0.3457,0.08691
		c-0.04395,0.03955-0.06836,0.10645-0.0752,0.20068c-0.01855,0.19727,0.0166,0.46143,0.10742,0.79297l1.44141,1.58594
		c0.16699,0.18311,0.31543,0.30078,0.44629,0.35303c0.09082,0.03662,0.19531,0.04053,0.31445,0.01172
		c0.11914-0.0293,0.25293-0.11133,0.40234-0.24707l0.11816,0.12988L228.5495,49.44l-0.11816-0.12988
		c0.16895-0.15332,0.26953-0.29346,0.30371-0.42139c0.02441-0.09277,0.01074-0.19287-0.04102-0.29883
		c-0.02539-0.05225-0.12598-0.17432-0.30078-0.36719l-1.16602-1.28223c-0.35059-0.38525-0.56738-0.60742-0.64941-0.66699
		c-0.08301-0.05908-0.16016-0.08643-0.2334-0.08203c-0.07227,0.00488-0.14062,0.03564-0.20312,0.09229
		c-0.07422,0.06836-0.14258,0.1626-0.20312,0.28418l-0.1543-0.09717l0.63281-1.31445L226.56805,45.01862z"/>
	<path fill="#7B2BE2" d="M229.83563,44.49762c0.44629,0.4917,0.91699,0.7666,1.41211,0.8252s0.90527-0.06104,1.22949-0.35791
		c0.21582-0.19775,0.34863-0.4292,0.39941-0.69434s-0.00195-0.59131-0.15723-0.97803l0.17676-0.03027
		c0.25098,0.375,0.37891,0.80859,0.38477,1.30029c0.00488,0.49219-0.1748,0.90576-0.54004,1.23975
		c-0.39551,0.36279-0.87598,0.51953-1.44043,0.46973s-1.08594-0.33545-1.56348-0.85596
		c-0.5166-0.56396-0.77539-1.13623-0.77539-1.7168s0.21875-1.07129,0.65527-1.47168
		c0.37012-0.33838,0.78516-0.49512,1.24609-0.46924c0.45996,0.02588,0.87793,0.24268,1.25195,0.65088L229.83563,44.49762z
		 M229.6452,44.28864l1.52539-1.39893c-0.20508-0.2002-0.36719-0.32568-0.48438-0.37695
		c-0.18262-0.07959-0.36914-0.10303-0.55859-0.0708c-0.18945,0.03174-0.34863,0.10742-0.47754,0.22607
		c-0.19922,0.18262-0.30664,0.42334-0.32227,0.72217S229.41864,43.98834,229.6452,44.28864z"/>
</g>
<g>
	<path fill="none" d="M106.46539,71.41763c51.16424-0.55414,93.79983-7.6958,103.73212-16.69407L100.1243,32.35539
		C44.26997,33.52672,0.01207,42.54254,0.12522,52.98893"/>
	<path fill="#548E6B" d="M19.90741,31.30866l1.75293-0.39502l5.04053,3.9541l-0.83984-3.72461
		c-0.08936-0.39697-0.18945-0.63477-0.30078-0.71338c-0.14746-0.10693-0.34814-0.13135-0.60205-0.07422l-0.22412,0.05029
		l-0.03955-0.17627l2.24805-0.50684l0.04004,0.17627l-0.229,0.05176c-0.27295,0.06152-0.44824,0.18799-0.5249,0.37842
		c-0.04736,0.11768-0.02979,0.35742,0.05176,0.71924l1.22705,5.44433l-0.17139,0.03857l-5.43066-4.24121l0.89648,3.97705
		c0.08936,0.39697,0.18799,0.63525,0.2959,0.71436c0.15088,0.10596,0.35156,0.13086,0.60254,0.07422l0.22852-0.05127
		l0.04004,0.17627l-2.24854,0.50635l-0.03955-0.17578l0.22363-0.05078c0.27637-0.06201,0.45312-0.18896,0.53027-0.37988
		c0.04688-0.11719,0.02979-0.35693-0.05225-0.71875l-1.01221-4.4917c-0.23682-0.17725-0.41162-0.28955-0.52393-0.3374
		c-0.11279-0.04834-0.26953-0.08105-0.4707-0.09912c-0.09863-0.00781-0.24121,0.00928-0.42871,0.05127L19.90741,31.30866z"/>
	<path fill="#548E6B" d="M31.88251,30.97077l0.51367,2.66064c0.09814,0.5083,0.16992,0.81689,0.21582,0.92578
		s0.09961,0.18066,0.16064,0.21484c0.06152,0.03467,0.12744,0.04541,0.19775,0.03174
		c0.09912-0.01904,0.20557-0.06787,0.31982-0.14648l0.09961,0.15479l-1.20898,0.79541l-0.21582,0.04199l-0.17969-0.93018
		c-0.29834,0.48193-0.53613,0.79443-0.71387,0.93848c-0.17773,0.14355-0.37695,0.23682-0.59766,0.2793
		c-0.24609,0.04736-0.47314,0.01758-0.68115-0.08984s-0.36865-0.26611-0.48242-0.47607
		c-0.11328-0.21045-0.20947-0.52002-0.28857-0.9292l-0.37842-1.96094c-0.04004-0.20752-0.09033-0.34717-0.15039-0.41846
		c-0.06006-0.07129-0.13867-0.12012-0.23486-0.14599c-0.09619-0.02637-0.25879-0.01562-0.48828,0.03223l-0.03418-0.17773
		l1.53906-0.29688l0.56689,2.93896c0.0791,0.40918,0.20215,0.66406,0.36914,0.76416c0.1665,0.10059,0.35059,0.13135,0.55225,0.09229
		c0.13721-0.02637,0.28467-0.09961,0.44238-0.21973c0.15771-0.11963,0.33252-0.32422,0.52539-0.61377l-0.47998-2.48828
		c-0.04834-0.24902-0.12646-0.40869-0.23438-0.479s-0.30664-0.08105-0.59521-0.03223l-0.03467-0.17725L31.88251,30.97077z"/>
	<path fill="#548E6B" d="M34.10419,28.06793l1.02881,5.84277c0.04834,0.27588,0.10059,0.45508,0.15625,0.5376
		c0.05615,0.08301,0.12988,0.14014,0.22119,0.17188c0.0918,0.03174,0.25098,0.02783,0.479-0.01221l0.03027,0.17285l-2.15918,0.38037
		l-0.03027-0.17334c0.20166-0.03564,0.33594-0.08057,0.40234-0.13525s0.11182-0.13379,0.13672-0.2373
		s0.01318-0.2915-0.03467-0.56396l-0.70459-4.00097c-0.0874-0.49707-0.15234-0.80029-0.19482-0.91016
		s-0.09229-0.18115-0.14941-0.21436c-0.05713-0.03271-0.12402-0.04248-0.20068-0.02881
		c-0.0835,0.01465-0.18506,0.05908-0.3042,0.13281l-0.11133-0.15381l1.21826-0.77002L34.10419,28.06793z"/>
	<path fill="#548E6B" d="M36.94061,27.58942l0.96631,5.85303c0.0459,0.27637,0.0957,0.45605,0.15088,0.53955
		c0.05518,0.08301,0.12793,0.14111,0.21924,0.17383s0.25098,0.03027,0.479-0.00732l0.02881,0.17334l-2.16309,0.35742
		l-0.02881-0.17334c0.20215-0.03369,0.33691-0.07715,0.40381-0.13135c0.06689-0.05371,0.11328-0.13232,0.13916-0.23584
		c0.02588-0.10303,0.0166-0.29102-0.02881-0.56396l-0.66162-4.0083c-0.08203-0.49805-0.14404-0.80176-0.18555-0.91211
		c-0.04102-0.11035-0.09033-0.18213-0.14697-0.21582s-0.12354-0.04395-0.2002-0.03125
		c-0.08398,0.01367-0.18555,0.05713-0.30566,0.12939l-0.10938-0.15479l1.22607-0.75684L36.94061,27.58942z"/>
	<path fill="#548E6B" d="M46.48456,26.34479l0.46289,2.20801l-0.1499,0.021c-0.29346-0.63916-0.64648-1.07959-1.05811-1.3208
		c-0.41211-0.24121-0.87744-0.3252-1.39648-0.25244c-0.43506,0.06104-0.81299,0.22656-1.1333,0.49707
		c-0.32031,0.27002-0.54736,0.66113-0.68066,1.17285c-0.13379,0.51172-0.1499,1.12695-0.04883,1.84619
		c0.08301,0.59277,0.25049,1.09375,0.50195,1.50244c0.25098,0.4082,0.58398,0.70166,0.99854,0.88037
		c0.41455,0.17822,0.8667,0.23291,1.35693,0.16406c0.42578-0.05957,0.78809-0.20361,1.08838-0.43115
		c0.2998-0.22803,0.60693-0.64013,0.9209-1.23633l0.16357,0.07568c-0.24707,0.62939-0.5708,1.11035-0.9707,1.44287
		c-0.40039,0.33252-0.90234,0.54102-1.50488,0.62549c-1.08643,0.15283-1.98438-0.13232-2.69385-0.85449
		c-0.5293-0.53711-0.85059-1.21142-0.96484-2.02392c-0.0918-0.6543-0.02979-1.27637,0.18652-1.86523
		c0.21631-0.58936,0.56055-1.0708,1.03223-1.44434c0.47217-0.37354,1.0127-0.60352,1.62207-0.68896
		c0.47363-0.06641,0.95752-0.01611,1.45068,0.15137c0.14551,0.05176,0.24707,0.07373,0.30518,0.06543
		c0.08691-0.01221,0.15869-0.05322,0.21436-0.12354c0.07178-0.09912,0.11426-0.22803,0.12793-0.38818L46.48456,26.34479z"/>
	<path fill="#548E6B" d="M49.99384,28.09186c0.67188-0.08301,1.24268,0.10596,1.71289,0.56592
		c0.39941,0.39355,0.63428,0.87305,0.7041,1.43848c0.04883,0.39746,0.00293,0.81104-0.13721,1.2417
		c-0.14062,0.43066-0.36523,0.77002-0.67383,1.01806c-0.30908,0.24805-0.66846,0.39746-1.07861,0.44775
		c-0.66895,0.08252-1.2334-0.11816-1.69336-0.60254c-0.38818-0.4082-0.6167-0.8916-0.68555-1.45068
		c-0.05029-0.40674,0.00098-0.82422,0.15332-1.25098c0.15186-0.42725,0.38135-0.75732,0.68701-0.99023
		S49.62518,28.13727,49.99384,28.09186z M49.88251,28.42536c-0.17139,0.021-0.3374,0.09326-0.49756,0.21631
		s-0.27783,0.31885-0.35303,0.5874c-0.0752,0.26807-0.08789,0.60303-0.03857,1.00342c0.07959,0.646,0.27686,1.1875,0.5918,1.62451
		c0.31445,0.43652,0.68164,0.6289,1.10156,0.57715c0.31348-0.03857,0.55615-0.19971,0.72754-0.4834
		c0.17188-0.28369,0.21875-0.74023,0.14111-1.37012c-0.09717-0.78857-0.34326-1.3877-0.73828-1.79834
		C50.54901,28.50055,50.23749,28.38141,49.88251,28.42536z"/>
	<path fill="#548E6B" d="M54.2829,28.53961c0.45215-0.68506,0.91406-1.05371,1.38672-1.10596
		c0.24268-0.02637,0.45801,0.01123,0.646,0.11328s0.34912,0.28662,0.4834,0.55371c0.09229,0.18604,0.16113,0.47998,0.20508,0.88086
		l0.20898,1.89795c0.03076,0.28125,0.07471,0.46973,0.13086,0.56543c0.04443,0.07666,0.10889,0.1333,0.19336,0.16992
		c0.08398,0.03662,0.23291,0.04346,0.44678,0.01953l0.01904,0.1748l-2.19873,0.24219l-0.01904-0.1748l0.09229-0.01025
		c0.20703-0.02246,0.34814-0.07031,0.42383-0.14209c0.07568-0.07227,0.12256-0.17188,0.1416-0.29834
		c0.00732-0.0498-0.00293-0.20264-0.03076-0.4585l-0.20068-1.81982c-0.04443-0.4043-0.12939-0.69238-0.25439-0.86377
		c-0.12549-0.1709-0.3125-0.24268-0.56152-0.21533c-0.38525,0.04248-0.74561,0.29492-1.08105,0.75732l0.2583,2.34424
		c0.03271,0.30078,0.07129,0.48535,0.11475,0.55225c0.05566,0.08887,0.12549,0.15088,0.20947,0.18604
		c0.08398,0.03467,0.24756,0.03906,0.49023,0.01221l0.01904,0.1748l-2.19873,0.2417l-0.01904-0.17432l0.09717-0.01074
		c0.22656-0.0249,0.37305-0.09912,0.43945-0.22314c0.06689-0.12354,0.08203-0.34717,0.04688-0.67041l-0.18213-1.65039
		c-0.05859-0.53369-0.10645-0.85742-0.14355-0.97168c-0.03711-0.11377-0.08301-0.18896-0.1377-0.2251
		c-0.05518-0.03662-0.12451-0.05029-0.2085-0.04102c-0.09082,0.00977-0.19629,0.0459-0.31738,0.1084l-0.0918-0.1665l1.27979-0.69141
		l0.2085-0.02295L54.2829,28.53961z"/>
	<path fill="#548E6B" d="M58.82684,28.92829c0.06201,0.66113,0.27344,1.16357,0.63428,1.50732
		c0.36133,0.34375,0.76025,0.49414,1.19775,0.45117c0.2915-0.02881,0.53711-0.13379,0.73682-0.31543
		c0.19922-0.18164,0.35303-0.47412,0.46045-0.87744l0.16016,0.08252c-0.02441,0.45068-0.18213,0.87402-0.47314,1.271
		c-0.2915,0.39648-0.68311,0.61914-1.17529,0.66797c-0.53467,0.05225-1.0127-0.11035-1.43457-0.48926
		s-0.66699-0.91943-0.73633-1.62256c-0.0752-0.76123,0.06152-1.37402,0.40967-1.83887
		c0.34863-0.46436,0.81738-0.72559,1.40723-0.78369c0.49854-0.04932,0.9248,0.07471,1.27783,0.37207
		c0.35303,0.29688,0.55664,0.72119,0.61133,1.27148L58.82684,28.92829z M58.79901,28.64606l2.06055-0.20312
		c-0.04443-0.2832-0.09814-0.48096-0.16162-0.59229c-0.09863-0.17334-0.2334-0.3042-0.4043-0.39209
		c-0.17041-0.08789-0.34326-0.12305-0.51807-0.10596c-0.26904,0.02686-0.49902,0.15479-0.69092,0.38477
		C58.89325,27.96735,58.79803,28.27008,58.79901,28.64606z"/>
</g>
<g>
	<g>
		<path d="M109.85614,147.71832c1.02783-0.03955,1.86279,0.27197,2.50439,0.93457c0.64258,0.66211,0.96289,1.49121,0.96289,2.48682
			c0,0.8501-0.23926,1.59814-0.71777,2.24463c-0.63477,0.85645-1.53027,1.28516-2.6875,1.28516
			c-1.16064,0-2.05811-0.40918-2.69238-1.22656c-0.50098-0.64551-0.75146-1.41211-0.75146-2.29834
			c0-0.99561,0.32617-1.8252,0.97754-2.48926C108.1037,147.99127,108.90497,147.67877,109.85614,147.71832z M109.91327,148.03473
			c-0.58984,0-1.03857,0.31299-1.3457,0.93945c-0.25098,0.51416-0.37598,1.25244-0.37598,2.21484
			c0,1.14355,0.19336,1.98926,0.58008,2.53613c0.26953,0.38281,0.64697,0.57324,1.13232,0.57324
			c0.32666,0,0.59912-0.08203,0.81787-0.24707c0.2793-0.21094,0.49609-0.54785,0.65137-1.01074
			c0.15625-0.46289,0.2334-1.06738,0.2334-1.81201c0-0.88672-0.0791-1.5498-0.2373-1.98975
			c-0.15918-0.44043-0.36133-0.75098-0.60742-0.93213C110.51678,148.12555,110.23358,148.03473,109.91327,148.03473z"/>
	</g>
</g>
<g>
</g>
<g>
</g>
<g>
</g>
<g>
</g>
<g>
</g>
<g>
</g>
<g>
</g>
</svg>
