<?xml version="1.0" encoding="UTF-8"?>
<svg xmlns="http://www.w3.org/2000/svg" xmlns:xlink="http://www.w3.org/1999/xlink" width="134pt" height="25pt" viewBox="0 0 134 25" version="1.1">
<defs>
<clipPath id="clip1">
  <path d="M 0.300781 0.601562 L 133.699219 0.601562 L 133.699219 25 L 0.300781 25 Z M 0.300781 0.601562 "/>
</clipPath>
</defs>
<g id="surface1">
<g clip-path="url(#clip1)" clip-rule="nonzero">
<path style="fill-rule:nonzero;fill:rgb(100%,100%,100%);fill-opacity:1;stroke-width:5;stroke-linecap:round;stroke-linejoin:round;stroke:rgb(100%,100%,100%);stroke-opacity:1;stroke-miterlimit:10;" d="M 6.40625 2.578125 L 1338.671875 2.578125 L 1338.671875 241.953125 L 6.40625 241.953125 Z M 6.40625 2.578125 " transform="matrix(0.1,0,0,-0.1,0,25)"/>
</g>
<path style="fill:none;stroke-width:5;stroke-linecap:round;stroke-linejoin:round;stroke:rgb(0%,0%,0%);stroke-opacity:1;stroke-miterlimit:10;" d="M 119.765625 87.617188 L 1253.632812 87.617188 " transform="matrix(0.1,0,0,-0.1,0,25)"/>
<path style=" stroke:none;fill-rule:nonzero;fill:rgb(100%,100%,100%);fill-opacity:1;" d="M 17.648438 16.238281 C 17.648438 13.109375 15.109375 10.570312 11.976562 10.570312 C 8.847656 10.570312 6.308594 13.109375 6.308594 16.238281 C 6.308594 19.371094 8.847656 21.90625 11.976562 21.90625 C 15.109375 21.90625 17.648438 19.371094 17.648438 16.238281 "/>
<path style="fill:none;stroke-width:5;stroke-linecap:round;stroke-linejoin:round;stroke:rgb(0%,0%,0%);stroke-opacity:1;stroke-miterlimit:10;" d="M 176.484375 87.617188 C 176.484375 118.90625 151.09375 144.296875 119.765625 144.296875 C 88.476562 144.296875 63.085938 118.90625 63.085938 87.617188 C 63.085938 56.289062 88.476562 30.9375 119.765625 30.9375 C 151.09375 30.9375 176.484375 56.289062 176.484375 87.617188 Z M 176.484375 87.617188 " transform="matrix(0.1,0,0,-0.1,0,25)"/>
<path style=" stroke:none;fill-rule:nonzero;fill:rgb(100%,100%,0%);fill-opacity:1;" d="M 14.8125 16.238281 C 14.8125 14.671875 13.542969 13.40625 11.976562 13.40625 C 10.410156 13.40625 9.144531 14.671875 9.144531 16.238281 C 9.144531 17.804688 10.410156 19.074219 11.976562 19.074219 C 13.542969 19.074219 14.8125 17.804688 14.8125 16.238281 "/>
<path style="fill:none;stroke-width:5;stroke-linecap:round;stroke-linejoin:round;stroke:rgb(0%,0%,0%);stroke-opacity:1;stroke-miterlimit:10;" d="M 148.125 87.617188 C 148.125 103.28125 135.429688 115.9375 119.765625 115.9375 C 104.101562 115.9375 91.445312 103.28125 91.445312 87.617188 C 91.445312 71.953125 104.101562 59.257812 119.765625 59.257812 C 135.429688 59.257812 148.125 71.953125 148.125 87.617188 Z M 148.125 87.617188 " transform="matrix(0.1,0,0,-0.1,0,25)"/>
<path style=" stroke:none;fill-rule:nonzero;fill:rgb(100%,100%,0%);fill-opacity:1;" d="M 128.199219 16.238281 C 128.199219 14.671875 126.929688 13.40625 125.363281 13.40625 C 123.796875 13.40625 122.527344 14.671875 122.527344 16.238281 C 122.527344 17.804688 123.796875 19.074219 125.363281 19.074219 C 126.929688 19.074219 128.199219 17.804688 128.199219 16.238281 "/>
<path style="fill:none;stroke-width:5;stroke-linecap:round;stroke-linejoin:round;stroke:rgb(0%,0%,0%);stroke-opacity:1;stroke-miterlimit:10;" d="M 1281.992188 87.617188 C 1281.992188 103.28125 1269.296875 115.9375 1253.632812 115.9375 C 1237.96875 115.9375 1225.273438 103.28125 1225.273438 87.617188 C 1225.273438 71.953125 1237.96875 59.257812 1253.632812 59.257812 C 1269.296875 59.257812 1281.992188 71.953125 1281.992188 87.617188 Z M 1281.992188 87.617188 " transform="matrix(0.1,0,0,-0.1,0,25)"/>
<path style=" stroke:none;fill-rule:nonzero;fill:rgb(100%,100%,0%);fill-opacity:1;" d="M 71.503906 16.238281 C 71.503906 14.671875 70.234375 13.40625 68.671875 13.40625 C 67.105469 13.40625 65.835938 14.671875 65.835938 16.238281 C 65.835938 17.804688 67.105469 19.074219 68.671875 19.074219 C 70.234375 19.074219 71.503906 17.804688 71.503906 16.238281 "/>
<path style="fill:none;stroke-width:5;stroke-linecap:round;stroke-linejoin:round;stroke:rgb(0%,0%,0%);stroke-opacity:1;stroke-miterlimit:10;" d="M 715.039062 87.617188 C 715.039062 103.28125 702.34375 115.9375 686.71875 115.9375 C 671.054688 115.9375 658.359375 103.28125 658.359375 87.617188 C 658.359375 71.953125 671.054688 59.257812 686.71875 59.257812 C 702.34375 59.257812 715.039062 71.953125 715.039062 87.617188 Z M 715.039062 87.617188 " transform="matrix(0.1,0,0,-0.1,0,25)"/>
<path style=" stroke:none;fill-rule:nonzero;fill:rgb(0%,0%,0%);fill-opacity:1;" d="M 42.808594 9.617188 C 42.808594 8.371094 41.953125 7.363281 40.347656 7.363281 C 40.03125 7.363281 39.457031 7.394531 38.945312 7.742188 L 38.945312 6.308594 C 39.25 6.363281 39.371094 6.386719 39.738281 6.386719 C 41.324219 6.386719 42.320312 5.160156 42.320312 4.886719 C 42.320312 4.8125 42.300781 4.691406 42.171875 4.691406 C 42.136719 4.691406 42.125 4.691406 42.007812 4.734375 C 41.390625 4.976562 40.8125 5.039062 40.347656 5.039062 C 39.523438 5.039062 38.945312 4.835938 38.664062 4.734375 C 38.566406 4.703125 38.554688 4.691406 38.523438 4.691406 C 38.371094 4.691406 38.371094 4.8125 38.371094 4.984375 L 38.371094 8.15625 C 38.371094 8.351562 38.371094 8.492188 38.609375 8.492188 C 38.75 8.492188 38.773438 8.445312 38.851562 8.359375 C 39.273438 7.859375 39.859375 7.753906 40.304688 7.753906 C 41.269531 7.753906 41.269531 8.707031 41.269531 9.574219 C 41.269531 10.367188 41.269531 11.453125 39.96875 11.453125 C 39.707031 11.453125 39.023438 11.398438 38.566406 10.78125 C 38.957031 10.757812 39.273438 10.5 39.273438 10.054688 C 39.273438 9.476562 38.804688 9.316406 38.546875 9.316406 C 38.382812 9.316406 37.820312 9.414062 37.820312 10.074219 C 37.820312 10.996094 38.664062 11.917969 40.011719 11.917969 C 41.746094 11.917969 42.808594 10.941406 42.808594 9.617188 "/>
<path style=" stroke:none;fill-rule:nonzero;fill:rgb(0%,0%,0%);fill-opacity:1;" d="M 90.914062 7.164062 C 91.222656 7.21875 91.367188 7.21875 91.554688 7.21875 C 91.808594 7.21875 92.382812 7.21875 93.0625 6.765625 C 93.257812 6.640625 93.78125 6.199219 93.78125 5.964844 C 93.78125 5.929688 93.78125 5.785156 93.636719 5.785156 C 93.621094 5.785156 93.601562 5.785156 93.503906 5.828125 C 93.042969 5.992188 92.546875 6.074219 92.078125 6.074219 C 91.519531 6.074219 91.058594 5.964844 90.671875 5.828125 C 90.554688 5.785156 90.535156 5.785156 90.519531 5.785156 C 90.382812 5.785156 90.382812 5.902344 90.382812 6.039062 L 90.382812 8.695312 C 90.382812 8.859375 90.382812 8.984375 90.601562 8.984375 C 90.71875 8.984375 90.734375 8.976562 90.835938 8.859375 C 91.203125 8.4375 91.699219 8.363281 92.050781 8.363281 C 92.890625 8.363281 92.890625 9.148438 92.890625 9.859375 C 92.890625 10.507812 92.890625 11.402344 91.761719 11.402344 C 91.265625 11.402344 90.835938 11.167969 90.609375 10.878906 C 90.988281 10.84375 91.1875 10.582031 91.1875 10.257812 C 91.1875 9.816406 90.851562 9.625 90.5625 9.625 C 90.285156 9.625 89.929688 9.796875 89.929688 10.273438 C 89.929688 11.058594 90.664062 11.808594 91.796875 11.808594 C 93.339844 11.808594 94.195312 10.953125 94.195312 9.886719 C 94.195312 8.859375 93.46875 8.003906 92.09375 8.003906 C 91.679688 8.003906 91.292969 8.074219 90.914062 8.308594 L 90.914062 7.164062 "/>
<path style=" stroke:none;fill-rule:nonzero;fill:rgb(0%,0%,0%);fill-opacity:1;" d="M 98.757812 5.296875 C 98.8125 5.171875 98.8125 5.152344 98.8125 5.136719 C 98.8125 5.019531 98.722656 4.9375 98.621094 4.9375 C 98.496094 4.9375 98.460938 5.007812 98.453125 5.027344 L 95.269531 13.59375 C 95.214844 13.71875 95.214844 13.738281 95.214844 13.757812 C 95.214844 13.875 95.304688 13.953125 95.402344 13.953125 C 95.492188 13.953125 95.566406 13.917969 95.628906 13.738281 L 98.757812 5.296875 "/>
<path style=" stroke:none;fill-rule:nonzero;fill:rgb(0%,0%,0%);fill-opacity:1;" d="M 104.097656 9.671875 L 103.636719 9.671875 C 103.617188 9.796875 103.539062 10.4375 103.402344 10.5 C 103.285156 10.546875 102.617188 10.546875 102.464844 10.546875 L 101.175781 10.546875 C 101.652344 10.15625 102.195312 9.734375 102.644531 9.417969 C 103.402344 8.886719 104.097656 8.398438 104.097656 7.515625 C 104.097656 6.460938 103.132812 5.785156 101.824219 5.785156 C 100.707031 5.785156 99.832031 6.316406 99.832031 7.148438 C 99.832031 7.617188 100.191406 7.832031 100.507812 7.832031 C 100.796875 7.832031 101.175781 7.625 101.175781 7.15625 C 101.175781 6.957031 101.09375 6.625 100.695312 6.515625 C 101.011719 6.261719 101.417969 6.226562 101.601562 6.226562 C 102.339844 6.226562 102.808594 6.777344 102.808594 7.523438 C 102.808594 8.175781 102.421875 8.769531 101.941406 9.257812 L 99.929688 11.242188 C 99.832031 11.339844 99.832031 11.347656 99.832031 11.527344 L 99.832031 11.699219 L 103.816406 11.699219 L 104.097656 9.671875 "/>
</g>
</svg>
