<?xml version="1.0" encoding="UTF-8"?>
<svg xmlns="http://www.w3.org/2000/svg" xmlns:xlink="http://www.w3.org/1999/xlink" width="134pt" height="24pt" viewBox="0 0 134 24" version="1.1">
<defs>
<clipPath id="clip1">
  <path d="M 0.300781 0 L 133.699219 0 L 133.699219 24 L 0.300781 24 Z M 0.300781 0 "/>
</clipPath>
</defs>
<g id="surface1">
<g clip-path="url(#clip1)" clip-rule="nonzero">
<path style="fill-rule:nonzero;fill:rgb(100%,100%,100%);fill-opacity:1;stroke-width:5;stroke-linecap:round;stroke-linejoin:round;stroke:rgb(100%,100%,100%);stroke-opacity:1;stroke-miterlimit:10;" d="M 6.40625 2.617188 L 1338.671875 2.617188 L 1338.671875 238.320312 L 6.40625 238.320312 Z M 6.40625 2.617188 " transform="matrix(0.1,0,0,-0.1,0,24)"/>
</g>
<path style="fill:none;stroke-width:5;stroke-linecap:round;stroke-linejoin:round;stroke:rgb(0%,0%,0%);stroke-opacity:1;stroke-miterlimit:10;" d="M 119.765625 87.65625 L 1253.632812 87.65625 " transform="matrix(0.1,0,0,-0.1,0,24)"/>
<path style=" stroke:none;fill-rule:nonzero;fill:rgb(100%,100%,100%);fill-opacity:1;" d="M 17.648438 15.234375 C 17.648438 12.101562 15.109375 9.566406 11.976562 9.566406 C 8.847656 9.566406 6.308594 12.101562 6.308594 15.234375 C 6.308594 18.363281 8.847656 20.902344 11.976562 20.902344 C 15.109375 20.902344 17.648438 18.363281 17.648438 15.234375 "/>
<path style="fill:none;stroke-width:5;stroke-linecap:round;stroke-linejoin:round;stroke:rgb(0%,0%,0%);stroke-opacity:1;stroke-miterlimit:10;" d="M 176.484375 87.65625 C 176.484375 118.984375 151.09375 144.335938 119.765625 144.335938 C 88.476562 144.335938 63.085938 118.984375 63.085938 87.65625 C 63.085938 56.367188 88.476562 30.976562 119.765625 30.976562 C 151.09375 30.976562 176.484375 56.367188 176.484375 87.65625 Z M 176.484375 87.65625 " transform="matrix(0.1,0,0,-0.1,0,24)"/>
<path style=" stroke:none;fill-rule:nonzero;fill:rgb(100%,100%,0%);fill-opacity:1;" d="M 14.8125 15.234375 C 14.8125 13.667969 13.542969 12.398438 11.976562 12.398438 C 10.410156 12.398438 9.144531 13.667969 9.144531 15.234375 C 9.144531 16.800781 10.410156 18.070312 11.976562 18.070312 C 13.542969 18.070312 14.8125 16.800781 14.8125 15.234375 "/>
<path style="fill:none;stroke-width:5;stroke-linecap:round;stroke-linejoin:round;stroke:rgb(0%,0%,0%);stroke-opacity:1;stroke-miterlimit:10;" d="M 148.125 87.65625 C 148.125 103.320312 135.429688 116.015625 119.765625 116.015625 C 104.101562 116.015625 91.445312 103.320312 91.445312 87.65625 C 91.445312 71.992188 104.101562 59.296875 119.765625 59.296875 C 135.429688 59.296875 148.125 71.992188 148.125 87.65625 Z M 148.125 87.65625 " transform="matrix(0.1,0,0,-0.1,0,24)"/>
<path style=" stroke:none;fill-rule:nonzero;fill:rgb(100%,100%,0%);fill-opacity:1;" d="M 128.199219 15.234375 C 128.199219 13.667969 126.929688 12.398438 125.363281 12.398438 C 123.796875 12.398438 122.527344 13.667969 122.527344 15.234375 C 122.527344 16.800781 123.796875 18.070312 125.363281 18.070312 C 126.929688 18.070312 128.199219 16.800781 128.199219 15.234375 "/>
<path style="fill:none;stroke-width:5;stroke-linecap:round;stroke-linejoin:round;stroke:rgb(0%,0%,0%);stroke-opacity:1;stroke-miterlimit:10;" d="M 1281.992188 87.65625 C 1281.992188 103.320312 1269.296875 116.015625 1253.632812 116.015625 C 1237.96875 116.015625 1225.273438 103.320312 1225.273438 87.65625 C 1225.273438 71.992188 1237.96875 59.296875 1253.632812 59.296875 C 1269.296875 59.296875 1281.992188 71.992188 1281.992188 87.65625 Z M 1281.992188 87.65625 " transform="matrix(0.1,0,0,-0.1,0,24)"/>
<path style=" stroke:none;fill-rule:nonzero;fill:rgb(100%,100%,0%);fill-opacity:1;" d="M 71.503906 15.234375 C 71.503906 13.667969 70.234375 12.398438 68.671875 12.398438 C 67.105469 12.398438 65.835938 13.667969 65.835938 15.234375 C 65.835938 16.800781 67.105469 18.070312 68.671875 18.070312 C 70.234375 18.070312 71.503906 16.800781 71.503906 15.234375 "/>
<path style="fill:none;stroke-width:5;stroke-linecap:round;stroke-linejoin:round;stroke:rgb(0%,0%,0%);stroke-opacity:1;stroke-miterlimit:10;" d="M 715.039062 87.65625 C 715.039062 103.320312 702.34375 116.015625 686.71875 116.015625 C 671.054688 116.015625 658.359375 103.320312 658.359375 87.65625 C 658.359375 71.992188 671.054688 59.296875 686.71875 59.296875 C 702.34375 59.296875 715.039062 71.992188 715.039062 87.65625 Z M 715.039062 87.65625 " transform="matrix(0.1,0,0,-0.1,0,24)"/>
<path style=" stroke:none;fill-rule:nonzero;fill:rgb(0%,0%,0%);fill-opacity:1;" d="M 38.9375 8.1875 C 38.9375 8.351562 38.9375 8.449219 39.0625 8.449219 C 39.136719 8.449219 39.164062 8.414062 39.21875 8.332031 C 39.488281 7.953125 39.921875 7.738281 40.390625 7.738281 C 41.355469 7.738281 41.355469 9.125 41.355469 9.453125 C 41.355469 9.730469 41.355469 10.289062 41.101562 10.695312 C 40.859375 11.074219 40.480469 11.246094 40.128906 11.246094 C 39.59375 11.246094 38.992188 10.914062 38.773438 10.246094 C 38.785156 10.246094 38.839844 10.261719 38.902344 10.261719 C 39.082031 10.261719 39.34375 10.144531 39.34375 9.820312 C 39.34375 9.542969 39.144531 9.378906 38.902344 9.378906 C 38.710938 9.378906 38.460938 9.488281 38.460938 9.847656 C 38.460938 10.667969 39.144531 11.5 40.144531 11.5 C 41.238281 11.5 42.164062 10.613281 42.164062 9.496094 C 42.164062 8.40625 41.390625 7.511719 40.40625 7.511719 C 39.976562 7.511719 39.53125 7.65625 39.21875 7.980469 L 39.21875 6.207031 C 39.488281 6.285156 39.765625 6.332031 40.046875 6.332031 C 41.15625 6.332031 41.804688 5.53125 41.804688 5.414062 C 41.804688 5.332031 41.75 5.296875 41.707031 5.296875 C 41.6875 5.296875 41.671875 5.296875 41.589844 5.339844 C 41.164062 5.511719 40.75 5.582031 40.371094 5.582031 C 39.984375 5.582031 39.578125 5.511719 39.164062 5.339844 C 39.074219 5.296875 39.054688 5.296875 39.046875 5.296875 C 38.9375 5.296875 38.9375 5.382812 38.9375 5.539062 L 38.9375 8.1875 "/>
<path style=" stroke:none;fill-rule:nonzero;fill:rgb(0%,0%,0%);fill-opacity:1;" d="M 91.039062 7.589844 C 91.039062 7.75 91.039062 7.851562 91.164062 7.851562 C 91.234375 7.851562 91.261719 7.8125 91.316406 7.734375 C 91.585938 7.355469 92.019531 7.140625 92.488281 7.140625 C 93.453125 7.140625 93.453125 8.527344 93.453125 8.851562 C 93.453125 9.132812 93.453125 9.691406 93.203125 10.09375 C 92.957031 10.476562 92.578125 10.644531 92.226562 10.644531 C 91.695312 10.644531 91.09375 10.3125 90.875 9.644531 C 90.882812 9.644531 90.9375 9.664062 91 9.664062 C 91.179688 9.664062 91.445312 9.546875 91.445312 9.222656 C 91.445312 8.941406 91.246094 8.78125 91 8.78125 C 90.8125 8.78125 90.558594 8.886719 90.558594 9.25 C 90.558594 10.070312 91.246094 10.898438 92.246094 10.898438 C 93.335938 10.898438 94.265625 10.015625 94.265625 8.898438 C 94.265625 7.804688 93.492188 6.914062 92.507812 6.914062 C 92.074219 6.914062 91.632812 7.058594 91.316406 7.382812 L 91.316406 5.605469 C 91.585938 5.6875 91.867188 5.730469 92.148438 5.730469 C 93.257812 5.730469 93.90625 4.929688 93.90625 4.8125 C 93.90625 4.730469 93.851562 4.695312 93.804688 4.695312 C 93.789062 4.695312 93.769531 4.695312 93.6875 4.742188 C 93.265625 4.910156 92.851562 4.984375 92.472656 4.984375 C 92.085938 4.984375 91.679688 4.910156 91.261719 4.742188 C 91.171875 4.695312 91.15625 4.695312 91.144531 4.695312 C 91.039062 4.695312 91.039062 4.785156 91.039062 4.9375 L 91.039062 7.589844 "/>
<path style=" stroke:none;fill-rule:nonzero;fill:rgb(0%,0%,0%);fill-opacity:1;" d="M 98.757812 4.296875 C 98.8125 4.171875 98.8125 4.152344 98.8125 4.136719 C 98.8125 4.019531 98.722656 3.9375 98.621094 3.9375 C 98.496094 3.9375 98.460938 4.007812 98.453125 4.027344 L 95.269531 12.59375 C 95.214844 12.71875 95.214844 12.738281 95.214844 12.757812 C 95.214844 12.875 95.304688 12.953125 95.402344 12.953125 C 95.492188 12.953125 95.566406 12.917969 95.628906 12.738281 L 98.757812 4.296875 "/>
<path style=" stroke:none;fill-rule:nonzero;fill:rgb(0%,0%,0%);fill-opacity:1;" d="M 103.464844 9.105469 L 103.214844 9.105469 C 103.195312 9.222656 103.121094 9.753906 103.007812 9.898438 C 102.953125 9.976562 102.328125 9.976562 102.148438 9.976562 L 100.542969 9.976562 L 101.4375 9.132812 C 102.914062 7.851562 103.464844 7.375 103.464844 6.453125 C 103.464844 5.414062 102.609375 4.695312 101.5 4.695312 C 100.464844 4.695312 99.757812 5.515625 99.757812 6.335938 C 99.757812 6.789062 100.148438 6.832031 100.226562 6.832031 C 100.425781 6.832031 100.695312 6.6875 100.695312 6.363281 C 100.695312 6.09375 100.507812 5.894531 100.226562 5.894531 C 100.183594 5.894531 100.15625 5.894531 100.121094 5.902344 C 100.339844 5.261719 100.914062 4.976562 101.402344 4.976562 C 102.320312 4.976562 102.636719 5.832031 102.636719 6.453125 C 102.636719 7.375 101.941406 8.121094 101.507812 8.589844 L 99.859375 10.375 C 99.757812 10.476562 99.757812 10.492188 99.757812 10.699219 L 103.214844 10.699219 L 103.464844 9.105469 "/>
</g>
</svg>
