<?xml version="1.0" encoding="UTF-8"?>
<svg xmlns="http://www.w3.org/2000/svg" xmlns:xlink="http://www.w3.org/1999/xlink" width="400pt" height="100pt" viewBox="0 0 400 100" version="1.1">
<defs>
<g>
<symbol overflow="visible" id="glyph0-0">
<path style="stroke:none;" d=""/>
</symbol>
<symbol overflow="visible" id="glyph0-1">
<path style="stroke:none;" d="M 5.546875 -18.6875 C 6.765625 -18.390625 7.734375 -18.390625 8.28125 -18.390625 C 9.140625 -18.390625 11.203125 -18.390625 13.609375 -19.875 C 14.71875 -20.5625 16.59375 -22.171875 16.59375 -23 C 16.59375 -23.1875 16.59375 -23.609375 16.15625 -23.609375 C 16.125 -23.609375 16.0625 -23.609375 15.703125 -23.4375 C 14.046875 -22.859375 12.28125 -22.46875 10.265625 -22.46875 C 8.203125 -22.46875 6.484375 -22.859375 4.78125 -23.46875 C 4.53125 -23.546875 4.421875 -23.609375 4.3125 -23.609375 C 3.890625 -23.609375 3.890625 -23.25 3.890625 -22.640625 L 3.890625 -12.171875 C 3.890625 -11.484375 3.890625 -11.09375 4.609375 -11.09375 C 4.96875 -11.09375 5.046875 -11.125 5.328125 -11.484375 C 5.765625 -11.984375 7.0625 -13.578125 10.109375 -13.578125 C 13.421875 -13.578125 13.421875 -10.1875 13.421875 -7.34375 C 13.421875 -4.75 13.421875 -1.015625 9 -1.015625 C 7.671875 -1.015625 5.40625 -1.515625 4.171875 -3.5625 C 6.078125 -3.5625 6.546875 -5 6.546875 -5.796875 C 6.546875 -7.09375 5.609375 -8.0625 4.28125 -8.0625 C 3.203125 -8.0625 2.015625 -7.421875 2.015625 -5.71875 C 2.015625 -2.59375 4.859375 0.4375 9.140625 0.4375 C 14.6875 0.4375 18.1875 -2.765625 18.1875 -7.234375 C 18.1875 -11.625 15.1875 -14.765625 10.265625 -14.765625 C 8.8125 -14.765625 7.09375 -14.46875 5.546875 -13.3125 Z M 5.546875 -18.6875 "/>
</symbol>
<symbol overflow="visible" id="glyph0-2">
<path style="stroke:none;" d="M 18.1875 -7.734375 L 16.671875 -7.734375 C 16.5625 -6.984375 16.3125 -4.859375 15.765625 -4.5 C 15.484375 -4.25 12.671875 -4.25 12.125 -4.25 L 6.546875 -4.25 C 7.921875 -5.40625 11.203125 -8.140625 11.734375 -8.53125 C 15.734375 -11.515625 18.1875 -13.359375 18.1875 -16.8125 C 18.1875 -21.0625 14.328125 -23.609375 9.578125 -23.609375 C 5.515625 -23.609375 2.015625 -21.3125 2.015625 -17.890625 C 2.015625 -15.984375 3.5625 -15.4375 4.390625 -15.4375 C 5.515625 -15.4375 6.796875 -16.203125 6.796875 -17.859375 C 6.796875 -19.375 5.6875 -20.125 4.578125 -20.265625 C 6.015625 -21.921875 7.921875 -22.0625 8.671875 -22.0625 C 11.984375 -22.0625 13.578125 -19.375 13.578125 -16.78125 C 13.578125 -13.96875 11.65625 -11.375 10.1875 -9.828125 L 2.375 -1.65625 C 2.015625 -1.328125 2.015625 -1.265625 2.015625 -0.609375 L 2.015625 0 L 17.140625 0 Z M 18.1875 -7.734375 "/>
</symbol>
<symbol overflow="visible" id="glyph1-0">
<path style="stroke:none;" d=""/>
</symbol>
<symbol overflow="visible" id="glyph1-1">
<path style="stroke:none;" d="M 15.4375 -25.671875 C 15.4375 -25.703125 15.65625 -26.25 15.65625 -26.3125 C 15.65625 -26.75 15.296875 -27 15.015625 -27 C 14.828125 -27 14.515625 -27 14.21875 -26.203125 L 2.15625 7.671875 C 2.15625 7.703125 1.9375 8.25 1.9375 8.3125 C 1.9375 8.75 2.296875 9 2.59375 9 C 2.8125 9 3.125 8.96875 3.390625 8.203125 Z M 15.4375 -25.671875 "/>
</symbol>
</g>
</defs>
<g id="surface1">
<path style=" stroke:none;fill-rule:nonzero;fill:rgb(100%,100%,0%);fill-opacity:1;" d="M 208 50 C 208 45.582031 204.417969 42 200 42 C 195.582031 42 192 45.582031 192 50 C 192 54.417969 195.582031 58 200 58 C 204.417969 58 208 54.417969 208 50 "/>
<path style="fill:none;stroke-width:25;stroke-linecap:butt;stroke-linejoin:miter;stroke:rgb(0%,0%,0%);stroke-opacity:1;stroke-miterlimit:10;" d="M 2080 500 C 2080 544.179688 2044.179688 580 2000 580 C 1955.820312 580 1920 544.179688 1920 500 C 1920 455.820312 1955.820312 420 2000 420 C 2044.179688 420 2080 455.820312 2080 500 Z M 2080 500 " transform="matrix(0.1,0,0,-0.1,0,100)"/>
<path style=" stroke:none;fill-rule:nonzero;fill:rgb(100%,100%,0%);fill-opacity:1;" d="M 48 50 C 48 45.582031 44.417969 42 40 42 C 35.582031 42 32 45.582031 32 50 C 32 54.417969 35.582031 58 40 58 C 44.417969 58 48 54.417969 48 50 "/>
<path style="fill:none;stroke-width:25;stroke-linecap:butt;stroke-linejoin:miter;stroke:rgb(0%,0%,0%);stroke-opacity:1;stroke-miterlimit:10;" d="M 480 500 C 480 544.179688 444.179688 580 400 580 C 355.820312 580 320 544.179688 320 500 C 320 455.820312 355.820312 420 400 420 C 444.179688 420 480 455.820312 480 500 Z M 480 500 " transform="matrix(0.1,0,0,-0.1,0,100)"/>
<path style=" stroke:none;fill-rule:nonzero;fill:rgb(100%,100%,0%);fill-opacity:1;" d="M 368 50 C 368 45.582031 364.417969 42 360 42 C 355.582031 42 352 45.582031 352 50 C 352 54.417969 355.582031 58 360 58 C 364.417969 58 368 54.417969 368 50 "/>
<path style="fill:none;stroke-width:25;stroke-linecap:butt;stroke-linejoin:miter;stroke:rgb(0%,0%,0%);stroke-opacity:1;stroke-miterlimit:10;" d="M 3680 500 C 3680 544.179688 3644.179688 580 3600 580 C 3555.820312 580 3520 544.179688 3520 500 C 3520 455.820312 3555.820312 420 3600 420 C 3644.179688 420 3680 455.820312 3680 500 Z M 3680 500 " transform="matrix(0.1,0,0,-0.1,0,100)"/>
<path style="fill:none;stroke-width:25;stroke-linecap:butt;stroke-linejoin:miter;stroke:rgb(0%,0%,0%);stroke-opacity:1;stroke-miterlimit:10;" d="M 560 500 C 560 588.359375 488.359375 660 400 660 C 311.640625 660 240 588.359375 240 500 C 240 411.640625 311.640625 340 400 340 C 488.359375 340 560 411.640625 560 500 Z M 560 500 " transform="matrix(0.1,0,0,-0.1,0,100)"/>
<g style="fill:rgb(0%,0%,0%);fill-opacity:1;">
  <use xlink:href="#glyph0-1" x="113.275" y="33.8523"/>
</g>
<g style="fill:rgb(0%,0%,0%);fill-opacity:1;">
  <use xlink:href="#glyph0-1" x="260.697" y="34.483159"/>
</g>
<g style="fill:rgb(0%,0%,0%);fill-opacity:1;">
  <use xlink:href="#glyph1-1" x="280.8716" y="34.483159"/>
</g>
<g style="fill:rgb(0%,0%,0%);fill-opacity:1;">
  <use xlink:href="#glyph0-2" x="298.4306" y="34.483159"/>
</g>
<path style="fill:none;stroke-width:10;stroke-linecap:butt;stroke-linejoin:miter;stroke:rgb(0%,0%,0%);stroke-opacity:1;stroke-miterlimit:10;" d="M 560 500 L 1920 500 " transform="matrix(0.1,0,0,-0.1,0,100)"/>
<path style="fill:none;stroke-width:10;stroke-linecap:butt;stroke-linejoin:miter;stroke:rgb(0%,0%,0%);stroke-opacity:1;stroke-miterlimit:10;" d="M 2080 500 L 3520 500 " transform="matrix(0.1,0,0,-0.1,0,100)"/>
</g>
</svg>
