<?xml version="1.0" encoding="UTF-8"?>
<svg xmlns="http://www.w3.org/2000/svg" xmlns:xlink="http://www.w3.org/1999/xlink" width="134pt" height="25pt" viewBox="0 0 134 25" version="1.1">
<defs>
<clipPath id="clip1">
  <path d="M 0.300781 0.601562 L 133.699219 0.601562 L 133.699219 25 L 0.300781 25 Z M 0.300781 0.601562 "/>
</clipPath>
</defs>
<g id="surface1">
<g clip-path="url(#clip1)" clip-rule="nonzero">
<path style="fill-rule:nonzero;fill:rgb(100%,100%,100%);fill-opacity:1;stroke-width:5;stroke-linecap:round;stroke-linejoin:round;stroke:rgb(100%,100%,100%);stroke-opacity:1;stroke-miterlimit:10;" d="M 6.40625 2.578125 L 1338.671875 2.578125 L 1338.671875 241.953125 L 6.40625 241.953125 Z M 6.40625 2.578125 " transform="matrix(0.1,0,0,-0.1,0,25)"/>
</g>
<path style="fill:none;stroke-width:5;stroke-linecap:round;stroke-linejoin:round;stroke:rgb(0%,0%,0%);stroke-opacity:1;stroke-miterlimit:10;" d="M 119.765625 87.617188 L 1253.632812 87.617188 " transform="matrix(0.1,0,0,-0.1,0,25)"/>
<path style=" stroke:none;fill-rule:nonzero;fill:rgb(100%,100%,100%);fill-opacity:1;" d="M 17.648438 16.238281 C 17.648438 13.109375 15.109375 10.570312 11.976562 10.570312 C 8.847656 10.570312 6.308594 13.109375 6.308594 16.238281 C 6.308594 19.371094 8.847656 21.90625 11.976562 21.90625 C 15.109375 21.90625 17.648438 19.371094 17.648438 16.238281 "/>
<path style="fill:none;stroke-width:5;stroke-linecap:round;stroke-linejoin:round;stroke:rgb(0%,0%,0%);stroke-opacity:1;stroke-miterlimit:10;" d="M 176.484375 87.617188 C 176.484375 118.90625 151.09375 144.296875 119.765625 144.296875 C 88.476562 144.296875 63.085938 118.90625 63.085938 87.617188 C 63.085938 56.289062 88.476562 30.9375 119.765625 30.9375 C 151.09375 30.9375 176.484375 56.289062 176.484375 87.617188 Z M 176.484375 87.617188 " transform="matrix(0.1,0,0,-0.1,0,25)"/>
<path style=" stroke:none;fill-rule:nonzero;fill:rgb(100%,100%,0%);fill-opacity:1;" d="M 14.8125 16.238281 C 14.8125 14.671875 13.542969 13.40625 11.976562 13.40625 C 10.410156 13.40625 9.144531 14.671875 9.144531 16.238281 C 9.144531 17.804688 10.410156 19.074219 11.976562 19.074219 C 13.542969 19.074219 14.8125 17.804688 14.8125 16.238281 "/>
<path style="fill:none;stroke-width:5;stroke-linecap:round;stroke-linejoin:round;stroke:rgb(0%,0%,0%);stroke-opacity:1;stroke-miterlimit:10;" d="M 148.125 87.617188 C 148.125 103.28125 135.429688 115.9375 119.765625 115.9375 C 104.101562 115.9375 91.445312 103.28125 91.445312 87.617188 C 91.445312 71.953125 104.101562 59.257812 119.765625 59.257812 C 135.429688 59.257812 148.125 71.953125 148.125 87.617188 Z M 148.125 87.617188 " transform="matrix(0.1,0,0,-0.1,0,25)"/>
<path style=" stroke:none;fill-rule:nonzero;fill:rgb(100%,100%,0%);fill-opacity:1;" d="M 128.199219 16.238281 C 128.199219 14.671875 126.929688 13.40625 125.363281 13.40625 C 123.796875 13.40625 122.527344 14.671875 122.527344 16.238281 C 122.527344 17.804688 123.796875 19.074219 125.363281 19.074219 C 126.929688 19.074219 128.199219 17.804688 128.199219 16.238281 "/>
<path style="fill:none;stroke-width:5;stroke-linecap:round;stroke-linejoin:round;stroke:rgb(0%,0%,0%);stroke-opacity:1;stroke-miterlimit:10;" d="M 1281.992188 87.617188 C 1281.992188 103.28125 1269.296875 115.9375 1253.632812 115.9375 C 1237.96875 115.9375 1225.273438 103.28125 1225.273438 87.617188 C 1225.273438 71.953125 1237.96875 59.257812 1253.632812 59.257812 C 1269.296875 59.257812 1281.992188 71.953125 1281.992188 87.617188 Z M 1281.992188 87.617188 " transform="matrix(0.1,0,0,-0.1,0,25)"/>
<path style=" stroke:none;fill-rule:nonzero;fill:rgb(100%,100%,0%);fill-opacity:1;" d="M 71.503906 16.238281 C 71.503906 14.671875 70.234375 13.40625 68.671875 13.40625 C 67.105469 13.40625 65.835938 14.671875 65.835938 16.238281 C 65.835938 17.804688 67.105469 19.074219 68.671875 19.074219 C 70.234375 19.074219 71.503906 17.804688 71.503906 16.238281 "/>
<path style="fill:none;stroke-width:5;stroke-linecap:round;stroke-linejoin:round;stroke:rgb(0%,0%,0%);stroke-opacity:1;stroke-miterlimit:10;" d="M 715.039062 87.617188 C 715.039062 103.28125 702.34375 115.9375 686.71875 115.9375 C 671.054688 115.9375 658.359375 103.28125 658.359375 87.617188 C 658.359375 71.953125 671.054688 59.257812 686.71875 59.257812 C 702.34375 59.257812 715.039062 71.953125 715.039062 87.617188 Z M 715.039062 87.617188 " transform="matrix(0.1,0,0,-0.1,0,25)"/>
<path style=" stroke:none;fill-rule:nonzero;fill:rgb(0%,0%,0%);fill-opacity:1;" d="M 42.027344 10.109375 L 43.082031 10.109375 L 43.082031 9.597656 L 42.027344 9.597656 L 42.027344 5.03125 C 42.027344 4.734375 42.007812 4.679688 41.703125 4.679688 C 41.476562 4.679688 41.464844 4.691406 41.335938 4.855469 L 37.546875 9.597656 L 37.546875 10.109375 L 40.671875 10.109375 L 40.671875 11.289062 L 39.457031 11.289062 L 39.457031 11.800781 C 39.867188 11.765625 40.855469 11.765625 41.324219 11.765625 C 41.757812 11.765625 42.703125 11.765625 43.082031 11.800781 L 43.082031 11.289062 L 42.027344 11.289062 Z M 40.792969 9.597656 L 38.109375 9.597656 L 40.792969 6.234375 Z M 40.792969 9.597656 "/>
</g>
</svg>
