<?xml version="1.0" encoding="UTF-8"?>
<svg xmlns="http://www.w3.org/2000/svg" xmlns:xlink="http://www.w3.org/1999/xlink" width="134pt" height="23pt" viewBox="0 0 134 23" version="1.1">
<defs>
<clipPath id="clip1">
  <path d="M 0.300781 0.300781 L 133.699219 0.300781 L 133.699219 23 L 0.300781 23 Z M 0.300781 0.300781 "/>
</clipPath>
</defs>
<g id="surface1">
<g clip-path="url(#clip1)" clip-rule="nonzero">
<path style="fill-rule:nonzero;fill:rgb(100%,100%,100%);fill-opacity:1;stroke-width:5;stroke-linecap:round;stroke-linejoin:round;stroke:rgb(100%,100%,100%);stroke-opacity:1;stroke-miterlimit:10;" d="M 6.40625 2.65625 L 1338.671875 2.65625 L 1338.671875 225.078125 L 6.40625 225.078125 Z M 6.40625 2.65625 " transform="matrix(0.1,0,0,-0.1,0,23)"/>
</g>
<path style="fill:none;stroke-width:5;stroke-linecap:round;stroke-linejoin:round;stroke:rgb(0%,0%,0%);stroke-opacity:1;stroke-miterlimit:10;" d="M 119.765625 87.695312 L 1253.632812 87.695312 " transform="matrix(0.1,0,0,-0.1,0,23)"/>
<path style=" stroke:none;fill-rule:nonzero;fill:rgb(100%,100%,100%);fill-opacity:1;" d="M 17.648438 14.230469 C 17.648438 11.101562 15.109375 8.5625 11.976562 8.5625 C 8.847656 8.5625 6.308594 11.101562 6.308594 14.230469 C 6.308594 17.363281 8.847656 19.902344 11.976562 19.902344 C 15.109375 19.902344 17.648438 17.363281 17.648438 14.230469 "/>
<path style="fill:none;stroke-width:5;stroke-linecap:round;stroke-linejoin:round;stroke:rgb(0%,0%,0%);stroke-opacity:1;stroke-miterlimit:10;" d="M 176.484375 87.695312 C 176.484375 118.984375 151.09375 144.375 119.765625 144.375 C 88.476562 144.375 63.085938 118.984375 63.085938 87.695312 C 63.085938 56.367188 88.476562 30.976562 119.765625 30.976562 C 151.09375 30.976562 176.484375 56.367188 176.484375 87.695312 Z M 176.484375 87.695312 " transform="matrix(0.1,0,0,-0.1,0,23)"/>
<path style=" stroke:none;fill-rule:nonzero;fill:rgb(100%,100%,0%);fill-opacity:1;" d="M 14.8125 14.230469 C 14.8125 12.667969 13.542969 11.398438 11.976562 11.398438 C 10.410156 11.398438 9.144531 12.667969 9.144531 14.230469 C 9.144531 15.796875 10.410156 17.066406 11.976562 17.066406 C 13.542969 17.066406 14.8125 15.796875 14.8125 14.230469 "/>
<path style="fill:none;stroke-width:5;stroke-linecap:round;stroke-linejoin:round;stroke:rgb(0%,0%,0%);stroke-opacity:1;stroke-miterlimit:10;" d="M 148.125 87.695312 C 148.125 103.320312 135.429688 116.015625 119.765625 116.015625 C 104.101562 116.015625 91.445312 103.320312 91.445312 87.695312 C 91.445312 72.03125 104.101562 59.335938 119.765625 59.335938 C 135.429688 59.335938 148.125 72.03125 148.125 87.695312 Z M 148.125 87.695312 " transform="matrix(0.1,0,0,-0.1,0,23)"/>
<path style=" stroke:none;fill-rule:nonzero;fill:rgb(100%,100%,0%);fill-opacity:1;" d="M 128.199219 14.230469 C 128.199219 12.667969 126.929688 11.398438 125.363281 11.398438 C 123.796875 11.398438 122.527344 12.667969 122.527344 14.230469 C 122.527344 15.796875 123.796875 17.066406 125.363281 17.066406 C 126.929688 17.066406 128.199219 15.796875 128.199219 14.230469 "/>
<path style="fill:none;stroke-width:5;stroke-linecap:round;stroke-linejoin:round;stroke:rgb(0%,0%,0%);stroke-opacity:1;stroke-miterlimit:10;" d="M 1281.992188 87.695312 C 1281.992188 103.320312 1269.296875 116.015625 1253.632812 116.015625 C 1237.96875 116.015625 1225.273438 103.320312 1225.273438 87.695312 C 1225.273438 72.03125 1237.96875 59.335938 1253.632812 59.335938 C 1269.296875 59.335938 1281.992188 72.03125 1281.992188 87.695312 Z M 1281.992188 87.695312 " transform="matrix(0.1,0,0,-0.1,0,23)"/>
<path style=" stroke:none;fill-rule:nonzero;fill:rgb(100%,100%,0%);fill-opacity:1;" d="M 71.503906 14.230469 C 71.503906 12.667969 70.234375 11.398438 68.671875 11.398438 C 67.105469 11.398438 65.835938 12.667969 65.835938 14.230469 C 65.835938 15.796875 67.105469 17.066406 68.671875 17.066406 C 70.234375 17.066406 71.503906 15.796875 71.503906 14.230469 "/>
<path style="fill:none;stroke-width:5;stroke-linecap:round;stroke-linejoin:round;stroke:rgb(0%,0%,0%);stroke-opacity:1;stroke-miterlimit:10;" d="M 715.039062 87.695312 C 715.039062 103.320312 702.34375 116.015625 686.71875 116.015625 C 671.054688 116.015625 658.359375 103.320312 658.359375 87.695312 C 658.359375 72.03125 671.054688 59.335938 686.71875 59.335938 C 702.34375 59.335938 715.039062 72.03125 715.039062 87.695312 Z M 715.039062 87.695312 " transform="matrix(0.1,0,0,-0.1,0,23)"/>
<path style=" stroke:none;fill-rule:nonzero;fill:rgb(0%,0%,0%);fill-opacity:1;" d="M 40.625 8.867188 L 40.625 9.542969 C 40.625 10.085938 40.523438 10.210938 40.085938 10.230469 L 39.523438 10.257812 L 39.523438 10.527344 C 40.722656 10.5 40.722656 10.5 40.941406 10.5 C 41.15625 10.5 41.15625 10.5 42.355469 10.527344 L 42.355469 10.257812 L 41.921875 10.230469 C 41.480469 10.203125 41.382812 10.085938 41.382812 9.542969 L 41.382812 8.867188 C 41.914062 8.867188 42.101562 8.875 42.355469 8.90625 L 42.355469 8.265625 C 41.933594 8.300781 41.761719 8.300781 41.625 8.289062 L 41.382812 8.289062 L 41.382812 7.039062 C 41.382812 5.433594 41.398438 4.65625 41.445312 4.289062 L 41.335938 4.242188 L 40.671875 4.484375 L 38.117188 8.660156 L 38.21875 8.867188 Z M 40.625 8.289062 L 38.6875 8.289062 L 40.625 5.117188 Z M 40.625 8.289062 "/>
</g>
</svg>
