<?xml version="1.0" encoding="utf-8" standalone="no"?>
<!DOCTYPE svg PUBLIC "-//W3C//DTD SVG 1.1//EN"
  "http://www.w3.org/Graphics/SVG/1.1/DTD/svg11.dtd">
<svg xmlns:xlink="http://www.w3.org/1999/xlink" width="432pt" height="432pt" viewBox="0 0 432 432" xmlns="http://www.w3.org/2000/svg" version="1.1">
 <metadata>
  <rdf:RDF xmlns:dc="http://purl.org/dc/elements/1.1/" xmlns:cc="http://creativecommons.org/ns#" xmlns:rdf="http://www.w3.org/1999/02/22-rdf-syntax-ns#">
   <cc:Work>
    <dc:type rdf:resource="http://purl.org/dc/dcmitype/StillImage"/>
    <dc:date>2023-11-20T22:51:44.266559</dc:date>
    <dc:format>image/svg+xml</dc:format>
    <dc:creator>
     <cc:Agent>
      <dc:title>Matplotlib v3.7.1, https://matplotlib.org/</dc:title>
     </cc:Agent>
    </dc:creator>
   </cc:Work>
  </rdf:RDF>
 </metadata>
 <defs>
  <style type="text/css">*{stroke-linejoin: round; stroke-linecap: butt}</style>
 </defs>
 <g id="figure_1">
  <g id="patch_1">
   <path d="M 0 432 
L 432 432 
L 432 0 
L 0 0 
z
" style="fill: #ffffff"/>
  </g>
  <g id="axes_1">
   <g id="patch_2">
    <path d="M 189 405 
C 224.802419 405 259.143283 390.775548 284.459415 365.459415 
C 309.775548 340.143283 324 305.802418 324 270 
C 324 234.197582 309.775548 199.856717 284.459415 174.540585 
C 259.143283 149.224452 224.802419 135 189 135 
C 153.197582 135 118.856717 149.224452 93.540585 174.540585 
C 68.224452 199.856717 54 234.197582 54 270 
C 54 305.802418 68.224452 340.143283 93.540585 365.459415 
C 118.856717 390.775548 153.197582 405 189 405 
L 189 405 
z
" clip-path="url(#pe651f8837b)" style="fill: none; stroke-dasharray: 3.7,1.6; stroke-dashoffset: 0; stroke: #0000ff; stroke-linejoin: miter"/>
   </g>
   <g id="patch_3">
    <path d="M 208.878335 250.121665 
C 216.33378 250.121665 223.484873 247.159585 228.756669 241.887789 
C 234.028465 236.615993 236.990545 229.4649 236.990545 222.009455 
C 236.990545 214.554009 234.028465 207.402916 228.756669 202.13112 
C 223.484873 196.859324 216.33378 193.897244 208.878335 193.897244 
C 201.422889 193.897244 194.271796 196.859324 189 202.13112 
C 183.728204 207.402916 180.766124 214.554009 180.766124 222.009455 
C 180.766124 229.4649 183.728204 236.615993 189 241.887789 
C 194.271796 247.159585 201.422889 250.121665 208.878335 250.121665 
L 208.878335 250.121665 
z
" clip-path="url(#pe651f8837b)" style="fill: none; stroke: #0000ff; stroke-linejoin: miter"/>
   </g>
   <g id="patch_4">
    <path d="M 250.437131 208.562869 
C 273.479362 208.562869 295.580945 199.408094 311.874262 183.114776 
C 328.16758 166.821458 337.322355 144.719875 337.322355 121.677645 
C 337.322355 98.635414 328.16758 76.533831 311.874262 60.240514 
C 295.580945 43.947196 273.479362 34.792421 250.437131 34.792421 
C 227.3949 34.792421 205.293318 43.947196 189 60.240514 
C 172.706682 76.533831 163.551907 98.635414 163.551907 121.677645 
C 163.551907 144.719875 172.706682 166.821458 189 183.114776 
C 205.293318 199.408094 227.3949 208.562869 250.437131 208.562869 
L 250.437131 208.562869 
z
" clip-path="url(#pe651f8837b)" style="fill: none; stroke: #008000; stroke-linejoin: miter"/>
   </g>
   <g id="patch_5">
    <path d="M 189 313.680021 
C 200.584077 313.680021 211.69526 309.077618 219.886439 300.886439 
C 228.077618 292.69526 232.680021 281.584077 232.680021 270 
C 232.680021 258.415923 228.077618 247.30474 219.886439 239.113561 
C 211.69526 230.922382 200.584077 226.319979 189 226.319979 
C 177.415923 226.319979 166.30474 230.922382 158.113561 239.113561 
C 149.922382 247.30474 145.319979 258.415923 145.319979 270 
C 145.319979 281.584077 149.922382 292.69526 158.113561 300.886439 
C 166.30474 309.077618 177.415923 313.680021 189 313.680021 
L 189 313.680021 
z
" clip-path="url(#pe651f8837b)" style="fill: none; stroke-dasharray: 3.7,1.6; stroke-dashoffset: 0; stroke: #008000; stroke-linejoin: miter"/>
   </g>
   <g id="patch_6">
    <path d="M 246.498717 239.248285 
C 253.592105 239.248285 260.395921 236.430052 265.411704 231.41427 
C 270.427487 226.398487 273.24572 219.594671 273.24572 212.501283 
C 273.24572 205.407895 270.427487 198.604079 265.411704 193.588296 
C 260.395921 188.572513 253.592105 185.75428 246.498717 185.75428 
C 239.405329 185.75428 232.601513 188.572513 227.58573 193.588296 
C 222.569948 198.604079 219.751715 205.407895 219.751715 212.501283 
C 219.751715 219.594671 222.569948 226.398487 227.58573 231.41427 
C 232.601513 236.430052 239.405329 239.248285 246.498717 239.248285 
L 246.498717 239.248285 
z
" clip-path="url(#pe651f8837b)" style="fill: none; stroke-dasharray: 3.7,1.6; stroke-dashoffset: 0; stroke: #ff0000; stroke-linejoin: miter"/>
   </g>
   <g id="patch_7">
    <path d="M 189 215.431537 
C 196.093388 215.431537 202.897204 212.613304 207.912987 207.597521 
C 212.92877 202.581738 215.747003 195.777922 215.747003 188.684534 
C 215.747003 181.591146 212.92877 174.78733 207.912987 169.771547 
C 202.897204 164.755764 196.093388 161.937532 189 161.937532 
C 181.906612 161.937532 175.102796 164.755764 170.087013 169.771547 
C 165.07123 174.78733 162.252997 181.591146 162.252997 188.684534 
C 162.252997 195.777922 165.07123 202.581738 170.087013 207.597521 
C 175.102796 212.613304 181.906612 215.431537 189 215.431537 
L 189 215.431537 
z
" clip-path="url(#pe651f8837b)" style="fill: none; stroke-dasharray: 3.7,1.6; stroke-dashoffset: 0; stroke: #bfbf00; stroke-linejoin: miter"/>
   </g>
   <g id="line2d_1">
    <path d="M 189 433 
L 189 -1 
" clip-path="url(#pe651f8837b)" style="fill: none; stroke: #ff0000; stroke-width: 1.5; stroke-linecap: square"/>
   </g>
   <g id="line2d_2">
    <path d="M 433 26 
L 26 433 
" clip-path="url(#pe651f8837b)" style="fill: none; stroke: #bfbf00; stroke-width: 1.5; stroke-linecap: square"/>
   </g>
   <g id="text_1">
    <!-- $B_3$ -->
    <g style="fill: #ff0000" transform="translate(168.75 40.5) scale(0.12 -0.12)">
     <defs>
      <path id="CMMI12-42" d="M 2342 3921 
C 2400 4160 2426 4160 2675 4160 
L 3507 4160 
C 4230 4160 4230 3544 4230 3485 
C 4230 2966 3712 2304 2867 2304 
L 1946 2304 
L 2342 3921 
z
M 3424 2275 
C 4122 2402 4755 2886 4755 3473 
C 4755 3970 4314 4352 3590 4352 
L 1536 4352 
C 1414 4352 1357 4352 1357 4226 
C 1357 4160 1414 4160 1510 4160 
C 1901 4160 1901 4112 1901 4044 
C 1901 4032 1901 3993 1875 3897 
L 1011 472 
C 954 249 941 185 493 185 
C 371 185 307 185 307 70 
C 307 0 346 0 474 0 
L 2669 0 
C 3648 0 4403 739 4403 1383 
C 4403 1906 3942 2224 3424 2275 
z
M 2515 185 
L 1651 185 
C 1562 185 1549 185 1510 192 
C 1440 198 1434 211 1434 261 
C 1434 305 1446 343 1459 399 
L 1907 2176 
L 3110 2176 
C 3866 2176 3866 1483 3866 1433 
C 3866 828 3309 185 2515 185 
z
" transform="scale(0.015625)"/>
      <path id="CMR17-33" d="M 1414 2157 
C 1984 2157 2234 1662 2234 1090 
C 2234 320 1824 25 1453 25 
C 1114 25 563 194 390 693 
C 422 680 454 680 486 680 
C 640 680 755 782 755 948 
C 755 1133 614 1216 486 1216 
C 378 1216 211 1165 211 926 
C 211 335 787 -128 1466 -128 
C 2176 -128 2720 430 2720 1085 
C 2720 1707 2208 2157 1600 2227 
C 2086 2328 2554 2756 2554 3329 
C 2554 3820 2048 4179 1472 4179 
C 890 4179 378 3829 378 3329 
C 378 3110 544 3072 627 3072 
C 762 3072 877 3155 877 3321 
C 877 3486 762 3569 627 3569 
C 602 3569 570 3569 544 3557 
C 730 3959 1235 4032 1459 4032 
C 1683 4032 2106 3925 2106 3320 
C 2106 3143 2080 2828 1862 2550 
C 1670 2304 1453 2304 1242 2284 
C 1210 2284 1062 2269 1037 2269 
C 992 2263 966 2257 966 2208 
C 966 2163 973 2157 1101 2157 
L 1414 2157 
z
" transform="scale(0.015625)"/>
     </defs>
     <use xlink:href="#CMMI12-42" transform="scale(0.996264)"/>
     <use xlink:href="#CMR17-33" transform="translate(74.10802 -14.943915) scale(0.697382)"/>
    </g>
   </g>
   <g id="text_2">
    <!-- $B_4$ -->
    <g style="fill: #bfbf00" transform="translate(364.5 67.5) scale(0.12 -0.12)">
     <defs>
      <path id="CMR17-34" d="M 2150 4122 
C 2150 4256 2144 4256 2029 4256 
L 128 1254 
L 128 1088 
L 1779 1088 
L 1779 457 
C 1779 224 1766 160 1318 160 
L 1197 160 
L 1197 0 
C 1402 0 1747 0 1965 0 
C 2182 0 2528 0 2733 0 
L 2733 160 
L 2611 160 
C 2163 160 2150 224 2150 457 
L 2150 1088 
L 2803 1088 
L 2803 1254 
L 2150 1254 
L 2150 4122 
z
M 1798 3703 
L 1798 1254 
L 256 1254 
L 1798 3703 
z
" transform="scale(0.015625)"/>
     </defs>
     <use xlink:href="#CMMI12-42" transform="scale(0.996264)"/>
     <use xlink:href="#CMR17-34" transform="translate(74.10802 -14.943915) scale(0.697382)"/>
    </g>
   </g>
   <g id="text_3">
    <!-- $B_2^{\rm inv}$ -->
    <g style="fill: #008000" transform="translate(256.5 54) scale(0.12 -0.12)">
     <defs>
      <path id="CMR17-69" d="M 992 3909 
C 992 4049 877 4170 730 4170 
C 589 4170 467 4056 467 3909 
C 467 3769 582 3648 730 3648 
C 870 3648 992 3763 992 3909 
z
M 243 2706 
L 243 2541 
C 602 2541 653 2502 653 2197 
L 653 427 
C 653 184 627 153 218 153 
L 218 -13 
C 371 0 646 0 806 0 
C 960 0 1222 0 1370 -13 
L 1370 153 
C 992 153 979 191 979 420 
L 979 2776 
L 243 2706 
z
" transform="scale(0.015625)"/>
      <path id="CMR17-6e" d="M 2656 1933 
C 2656 2259 2592 2790 1837 2790 
C 1331 2790 1069 2400 973 2144 
L 966 2144 
L 966 2790 
L 211 2720 
L 211 2554 
C 589 2554 646 2515 646 2208 
L 646 428 
C 646 184 621 153 211 153 
L 211 -13 
C 365 0 646 0 813 0 
C 979 0 1267 0 1421 -13 
L 1421 153 
C 1011 153 986 178 986 428 
L 986 1658 
C 986 2247 1344 2688 1792 2688 
C 2266 2688 2317 2266 2317 1958 
L 2317 428 
C 2317 184 2291 153 1882 153 
L 1882 -13 
C 2035 0 2317 0 2483 0 
C 2650 0 2938 0 3091 -13 
L 3091 153 
C 2682 153 2656 178 2656 428 
L 2656 1933 
z
" transform="scale(0.015625)"/>
      <path id="CMR17-76" d="M 2502 2163 
C 2560 2304 2662 2560 3034 2560 
L 3034 2726 
C 2912 2726 2752 2726 2630 2726 
C 2496 2726 2285 2726 2157 2732 
L 2157 2566 
C 2317 2553 2406 2477 2406 2311 
C 2406 2253 2406 2240 2368 2151 
L 1664 377 
L 902 2286 
C 864 2369 864 2381 864 2407 
C 864 2560 1075 2560 1171 2560 
L 1171 2732 
C 1018 2726 736 2726 576 2726 
C 403 2726 205 2726 64 2732 
L 64 2560 
C 307 2560 442 2560 518 2362 
L 1446 44 
C 1485 -51 1491 -64 1549 -64 
C 1606 -64 1613 -51 1651 44 
L 2502 2163 
z
" transform="scale(0.015625)"/>
      <path id="CMR17-32" d="M 2669 989 
L 2554 989 
C 2490 536 2438 459 2413 420 
C 2381 369 1920 369 1830 369 
L 602 369 
C 832 619 1280 1072 1824 1597 
C 2214 1967 2669 2402 2669 3035 
C 2669 3790 2067 4224 1395 4224 
C 691 4224 262 3604 262 3030 
C 262 2780 448 2748 525 2748 
C 589 2748 781 2787 781 3010 
C 781 3207 614 3264 525 3264 
C 486 3264 448 3258 422 3245 
C 544 3790 915 4058 1306 4058 
C 1862 4058 2227 3617 2227 3035 
C 2227 2479 1901 2000 1536 1584 
L 262 146 
L 262 0 
L 2515 0 
L 2669 989 
z
" transform="scale(0.015625)"/>
     </defs>
     <use xlink:href="#CMMI12-42" transform="scale(0.996264)"/>
     <use xlink:href="#CMR17-69" transform="translate(79.135523 36.153639) scale(0.697382)"/>
     <use xlink:href="#CMR17-6e" transform="translate(96.545182 36.153639) scale(0.697382)"/>
     <use xlink:href="#CMR17-76" transform="translate(130.35007 36.153639) scale(0.697382)"/>
     <use xlink:href="#CMR17-32" transform="translate(74.10802 -24.740171) scale(0.697382)"/>
    </g>
   </g>
   <g id="text_4">
    <!-- $B_1^{\rm inv}$ -->
    <g style="fill: #0000ff" transform="translate(148.5 222.75) scale(0.12 -0.12)">
     <defs>
      <path id="CMR17-31" d="M 1702 4058 
C 1702 4192 1696 4192 1606 4192 
C 1357 3916 979 3827 621 3827 
C 602 3827 570 3827 563 3808 
C 557 3795 557 3782 557 3648 
C 755 3648 1088 3686 1344 3839 
L 1344 461 
C 1344 236 1331 160 781 160 
L 589 160 
L 589 0 
C 896 0 1216 0 1523 0 
C 1830 0 2150 0 2458 0 
L 2458 160 
L 2266 160 
C 1715 160 1702 230 1702 458 
L 1702 4058 
z
" transform="scale(0.015625)"/>
     </defs>
     <use xlink:href="#CMMI12-42" transform="scale(0.996264)"/>
     <use xlink:href="#CMR17-69" transform="translate(79.135523 36.153639) scale(0.697382)"/>
     <use xlink:href="#CMR17-6e" transform="translate(96.545182 36.153639) scale(0.697382)"/>
     <use xlink:href="#CMR17-76" transform="translate(130.35007 36.153639) scale(0.697382)"/>
     <use xlink:href="#CMR17-31" transform="translate(74.10802 -24.740171) scale(0.697382)"/>
    </g>
   </g>
   <g id="text_5">
    <!-- $C_3$ -->
    <g style="fill: #ff0000" transform="translate(243 178.2) scale(0.12 -0.12)">
     <defs>
      <path id="CMMI12-43" d="M 4781 4423 
C 4781 4480 4736 4480 4723 4480 
C 4710 4480 4685 4480 4634 4416 
L 4192 3882 
C 3968 4264 3616 4480 3136 4480 
C 1754 4480 320 3088 320 1595 
C 320 533 1069 -128 2003 -128 
C 2515 -128 2963 88 3334 400 
C 3891 863 4058 1481 4058 1531 
C 4058 1588 4006 1588 3987 1588 
C 3930 1588 3923 1550 3910 1524 
C 3616 534 2752 57 2112 57 
C 1434 57 845 489 845 1391 
C 845 1595 909 2700 1632 3532 
C 1984 3939 2586 4295 3194 4295 
C 3898 4295 4211 3717 4211 3068 
C 4211 2903 4192 2764 4192 2738 
C 4192 2681 4256 2681 4275 2681 
C 4346 2681 4352 2687 4378 2801 
L 4781 4423 
z
" transform="scale(0.015625)"/>
     </defs>
     <use xlink:href="#CMMI12-43" transform="scale(0.996264)"/>
     <use xlink:href="#CMR17-33" transform="translate(69.792037 -14.943915) scale(0.697382)"/>
    </g>
   </g>
   <g id="text_6">
    <!-- $C_4$ -->
    <g style="fill: #bfbf00" transform="translate(195.75 159.3) scale(0.12 -0.12)">
     <use xlink:href="#CMMI12-43" transform="scale(0.996264)"/>
     <use xlink:href="#CMR17-34" transform="translate(69.792037 -14.943915) scale(0.697382)"/>
    </g>
   </g>
   <g id="text_7">
    <!-- $C_2$ -->
    <g style="fill: #008000" transform="translate(121.5 270) scale(0.12 -0.12)">
     <use xlink:href="#CMMI12-43" transform="scale(0.996264)"/>
     <use xlink:href="#CMR17-32" transform="translate(69.792037 -14.943915) scale(0.697382)"/>
    </g>
   </g>
   <g id="text_8">
    <!-- $C_1^{\rm inv}$ -->
    <g style="fill: #0000ff" transform="translate(67.5 175.5) scale(0.12 -0.12)">
     <use xlink:href="#CMMI12-43" transform="scale(0.996264)"/>
     <use xlink:href="#CMR17-69" transform="translate(76.946847 36.153639) scale(0.697382)"/>
     <use xlink:href="#CMR17-6e" transform="translate(94.356506 36.153639) scale(0.697382)"/>
     <use xlink:href="#CMR17-76" transform="translate(128.161393 36.153639) scale(0.697382)"/>
     <use xlink:href="#CMR17-31" transform="translate(69.792037 -24.740171) scale(0.697382)"/>
    </g>
   </g>
  </g>
 </g>
 <defs>
  <clipPath id="pe651f8837b">
   <rect x="27" y="0" width="378" height="432"/>
  </clipPath>
 </defs>
</svg>
