<?xml version="1.0" encoding="UTF-8" standalone="no"?>
<!-- Created with Inkscape (http://www.inkscape.org/) -->

<svg
   xmlns:dc="http://purl.org/dc/elements/1.1/"
   xmlns:cc="http://creativecommons.org/ns#"
   xmlns:rdf="http://www.w3.org/1999/02/22-rdf-syntax-ns#"
   xmlns:svg="http://www.w3.org/2000/svg"
   xmlns="http://www.w3.org/2000/svg"
   xmlns:sodipodi="http://sodipodi.sourceforge.net/DTD/sodipodi-0.dtd"
   xmlns:inkscape="http://www.inkscape.org/namespaces/inkscape"
   version="1.1"
   id="svg2"
   xml:space="preserve"
   width="400"
   height="400"
   viewBox="0 0 400 400"
   sodipodi:docname="diagram334.svg"
   inkscape:version="0.92.3 (2405546, 2018-03-11)"><metadata
     id="metadata8"><rdf:RDF><cc:Work
         rdf:about=""><dc:format>image/svg+xml</dc:format><dc:type
           rdf:resource="http://purl.org/dc/dcmitype/StillImage" /><dc:title></dc:title></cc:Work></rdf:RDF></metadata><defs
     id="defs6" /><sodipodi:namedview
     pagecolor="#ffffff"
     bordercolor="#666666"
     borderopacity="1"
     objecttolerance="10"
     gridtolerance="10"
     guidetolerance="10"
     inkscape:pageopacity="0"
     inkscape:pageshadow="2"
     inkscape:window-width="784"
     inkscape:window-height="480"
     id="namedview4"
     showgrid="false"
     inkscape:zoom="0.59"
     inkscape:cx="200"
     inkscape:cy="200"
     inkscape:window-x="67"
     inkscape:window-y="29"
     inkscape:window-maximized="0"
     inkscape:current-layer="g10" /><g
     id="g10"
     inkscape:groupmode="layer"
     inkscape:label="ink_ext_XXXXXX"
     transform="matrix(1.3333333,0,0,-1.3333333,0,400)"><g
       id="g12"
       transform="scale(0.1)"><path
         d="M 1500,2700 330.867,675 H 2669.13 Z"
         style="fill:none;stroke:#000000;stroke-width:25;stroke-linecap:butt;stroke-linejoin:miter;stroke-miterlimit:10;stroke-dasharray:none;stroke-opacity:1"
         id="path14"
         inkscape:connector-curvature="0" /><path
         d="m 1612.5,2700 c 0,62.13 -50.37,112.5 -112.5,112.5 v 0 c -62.13,0 -112.5,-50.37 -112.5,-112.5 v 0 c 0,-62.13 50.37,-112.5 112.5,-112.5 v 0 c 62.13,0 112.5,50.37 112.5,112.5"
         style="fill:#ffff00;fill-opacity:1;fill-rule:nonzero;stroke:none"
         id="path16"
         inkscape:connector-curvature="0" /><path
         d="m 1612.5,2700 c 0,62.13 -50.37,112.5 -112.5,112.5 v 0 c -62.13,0 -112.5,-50.37 -112.5,-112.5 v 0 c 0,-62.13 50.37,-112.5 112.5,-112.5 v 0 c 62.13,0 112.5,50.37 112.5,112.5 z"
         style="fill:none;stroke:#000000;stroke-width:25;stroke-linecap:butt;stroke-linejoin:miter;stroke-miterlimit:10;stroke-dasharray:none;stroke-opacity:1"
         id="path18"
         inkscape:connector-curvature="0" /><path
         d="m 443.367,675 c 0,62.133 -50.371,112.5 -112.5,112.5 v 0 c -62.133,0 -112.5,-50.367 -112.5,-112.5 v 0 c 0,-62.133 50.367,-112.5 112.5,-112.5 v 0 c 62.129,0 112.5,50.367 112.5,112.5"
         style="fill:#ffff00;fill-opacity:1;fill-rule:nonzero;stroke:none"
         id="path20"
         inkscape:connector-curvature="0" /><path
         d="m 443.367,675 c 0,62.133 -50.371,112.5 -112.5,112.5 v 0 c -62.133,0 -112.5,-50.367 -112.5,-112.5 v 0 c 0,-62.133 50.367,-112.5 112.5,-112.5 v 0 c 62.129,0 112.5,50.367 112.5,112.5 z"
         style="fill:none;stroke:#000000;stroke-width:25;stroke-linecap:butt;stroke-linejoin:miter;stroke-miterlimit:10;stroke-dasharray:none;stroke-opacity:1"
         id="path22"
         inkscape:connector-curvature="0" /><path
         d="m 2781.63,675 c 0,62.133 -50.36,112.5 -112.5,112.5 v 0 c -62.13,0 -112.5,-50.367 -112.5,-112.5 v 0 c 0,-62.133 50.37,-112.5 112.5,-112.5 v 0 c 62.14,0 112.5,50.367 112.5,112.5"
         style="fill:#ffff00;fill-opacity:1;fill-rule:nonzero;stroke:none"
         id="path24"
         inkscape:connector-curvature="0" /><path
         d="m 2781.63,675 c 0,62.133 -50.36,112.5 -112.5,112.5 v 0 c -62.13,0 -112.5,-50.367 -112.5,-112.5 v 0 c 0,-62.133 50.37,-112.5 112.5,-112.5 v 0 c 62.14,0 112.5,50.367 112.5,112.5 z"
         style="fill:none;stroke:#000000;stroke-width:25;stroke-linecap:butt;stroke-linejoin:miter;stroke-miterlimit:10;stroke-dasharray:none;stroke-opacity:1"
         id="path26"
         inkscape:connector-curvature="0" /><g
         id="g28"
         transform="scale(10)"><text
           transform="matrix(1,0,0,-1,142.5,22.5)"
           style="font-variant:normal;font-weight:normal;font-size:43.20000076px;font-family:CMBX12;-inkscape-font-specification:CMBX12;writing-mode:lr-tb;fill:#000000;fill-opacity:1;fill-rule:nonzero;stroke:none"
           id="text32"><tspan
             x="0"
             y="0"
             id="tspan30">4</tspan></text>
</g></g></g></svg>