<?xml version="1.0" encoding="UTF-8" standalone="no"?>
<svg
   xmlns:dc="http://purl.org/dc/elements/1.1/"
   xmlns:cc="http://creativecommons.org/ns#"
   xmlns:rdf="http://www.w3.org/1999/02/22-rdf-syntax-ns#"
   xmlns:svg="http://www.w3.org/2000/svg"
   xmlns="http://www.w3.org/2000/svg"
   viewBox="0 0 1664.7311 884.02991"
   height="884.02991"
   width="1664.7311"
   xml:space="preserve"
   id="svg2"
   version="1.1"><metadata
     id="metadata8"><rdf:RDF><cc:Work
         rdf:about=""><dc:format>image/svg+xml</dc:format><dc:type
           rdf:resource="http://purl.org/dc/dcmitype/StillImage" /><dc:title></dc:title></cc:Work></rdf:RDF></metadata><defs
     id="defs6"><clipPath
       id="clipPath20"
       clipPathUnits="userSpaceOnUse"><path
         id="path18"
         d="M 0,0 H 1920 V 1080 H 0 Z" /></clipPath><clipPath
       id="clipPath34"
       clipPathUnits="userSpaceOnUse"><path
         id="path32"
         d="M 60,1087 H 1939 V 935 H 60 Z" /></clipPath><clipPath
       id="clipPath40"
       clipPathUnits="userSpaceOnUse"><path
         id="path38"
         d="M 0,0 H 1920 V 1080 H 0 Z" /></clipPath><clipPath
       id="clipPath54"
       clipPathUnits="userSpaceOnUse"><path
         id="path52"
         d="M 341,773.0001 H 1579 V 141 H 341 Z" /></clipPath><clipPath
       id="clipPath60"
       clipPathUnits="userSpaceOnUse"><path
         id="path58"
         d="M 341,141 H 1579 V 773 H 341 Z" /></clipPath><clipPath
       id="clipPath66"
       clipPathUnits="userSpaceOnUse"><path
         id="path64"
         d="m 653,303 h 613 V 559 H 653 Z" /></clipPath><clipPath
       id="clipPath70"
       clipPathUnits="userSpaceOnUse"><path
         id="path68"
         d="m 653.3604,303.0634 h 611.8522 V 558.9055 H 653.3604 Z" /></clipPath><clipPath
       id="clipPath164"
       clipPathUnits="userSpaceOnUse"><path
         id="path162"
         d="M 341,773.0001 H 1579 V 141 H 341 Z" /></clipPath><clipPath
       id="clipPath170"
       clipPathUnits="userSpaceOnUse"><path
         id="path168"
         d="M 341,141 H 1579 V 773 H 341 Z" /></clipPath><clipPath
       id="clipPath176"
       clipPathUnits="userSpaceOnUse"><path
         id="path174"
         d="m 647,293 h 625 V 563 H 647 Z" /></clipPath><clipPath
       id="clipPath180"
       clipPathUnits="userSpaceOnUse"><path
         id="path178"
         d="m 647.7855,293.8858 h 623.3674 V 562.404 H 647.7855 Z" /></clipPath><clipPath
       id="clipPath200"
       clipPathUnits="userSpaceOnUse"><path
         id="path198"
         d="M 341,773.0001 H 1579 V 141 H 341 Z" /></clipPath><clipPath
       id="clipPath206"
       clipPathUnits="userSpaceOnUse"><path
         id="path204"
         d="M 341,141 H 1579 V 773 H 341 Z" /></clipPath><clipPath
       id="clipPath212"
       clipPathUnits="userSpaceOnUse"><path
         id="path210"
         d="m 652,293 h 614 V 559 H 652 Z" /></clipPath><clipPath
       id="clipPath216"
       clipPathUnits="userSpaceOnUse"><path
         id="path214"
         d="m 652.8791,293.8858 h 612.7337 V 558.5252 H 652.8791 Z" /></clipPath><clipPath
       id="clipPath364"
       clipPathUnits="userSpaceOnUse"><path
         id="path362"
         d="M 341,773.0001 H 1579 V 141 H 341 Z" /></clipPath><clipPath
       id="clipPath370"
       clipPathUnits="userSpaceOnUse"><path
         id="path368"
         d="M 341,141 H 1579 V 773 H 341 Z" /></clipPath><clipPath
       id="clipPath376"
       clipPathUnits="userSpaceOnUse"><path
         id="path374"
         d="m 681,601 h 555 v 3 H 681 Z" /></clipPath><clipPath
       id="clipPath380"
       clipPathUnits="userSpaceOnUse"><path
         id="path378"
         d="m 681.9056,601.8605 h 553.7006 v 1.85742 H 681.9056 Z" /></clipPath><clipPath
       id="clipPath402"
       clipPathUnits="userSpaceOnUse"><path
         id="path400"
         d="M 341,773.0001 H 1579 V 141 H 341 Z" /></clipPath><clipPath
       id="clipPath408"
       clipPathUnits="userSpaceOnUse"><path
         id="path406"
         d="M 341,141 H 1579 V 773 H 341 Z" /></clipPath><clipPath
       id="clipPath414"
       clipPathUnits="userSpaceOnUse"><path
         id="path412"
         d="m 648,142 h 622 V 420 H 648 Z" /></clipPath><clipPath
       id="clipPath418"
       clipPathUnits="userSpaceOnUse"><path
         id="path416"
         d="m 648.0229,142.6249 h 621.1395 V 419.0748 H 648.0229 Z" /></clipPath><clipPath
       id="clipPath446"
       clipPathUnits="userSpaceOnUse"><path
         id="path444"
         d="M 341,773.0001 H 1579 V 141 H 341 Z" /></clipPath><clipPath
       id="clipPath452"
       clipPathUnits="userSpaceOnUse"><path
         id="path450"
         d="M 341,141 H 1579 V 773 H 341 Z" /></clipPath><clipPath
       id="clipPath458"
       clipPathUnits="userSpaceOnUse"><path
         id="path456"
         d="M 343,193 H 1577 V 603 H 343 Z" /></clipPath><clipPath
       id="clipPath462"
       clipPathUnits="userSpaceOnUse"><path
         id="path460"
         d="m 343.1361,193.9409 h 1233.722 V 602.7891 H 343.1361 Z" /></clipPath><clipPath
       id="clipPath482"
       clipPathUnits="userSpaceOnUse"><path
         id="path480"
         d="M 341,773.0001 H 1579 V 141 H 341 Z" /></clipPath><clipPath
       id="clipPath488"
       clipPathUnits="userSpaceOnUse"><path
         id="path486"
         d="M 341,141 H 1579 V 773 H 341 Z" /></clipPath><clipPath
       id="clipPath494"
       clipPathUnits="userSpaceOnUse"><path
         id="path492"
         d="m 585,271 h 670 V 474 H 585 Z" /></clipPath><clipPath
       id="clipPath498"
       clipPathUnits="userSpaceOnUse"><path
         id="path496"
         d="m 585.7084,271.2609 h 668.5853 V 473.0394 H 585.7084 Z" /></clipPath><clipPath
       id="clipPath526"
       clipPathUnits="userSpaceOnUse"><path
         id="path524"
         d="M 341,773.0001 H 1579 V 141 H 341 Z" /></clipPath><clipPath
       id="clipPath532"
       clipPathUnits="userSpaceOnUse"><path
         id="path530"
         d="M 341,141 H 1579 V 773 H 341 Z" /></clipPath><clipPath
       id="clipPath538"
       clipPathUnits="userSpaceOnUse"><path
         id="path536"
         d="m 645,142 h 628 V 772 H 645 Z" /></clipPath><clipPath
       id="clipPath542"
       clipPathUnits="userSpaceOnUse"><path
         id="path540"
         d="m 645.7641,142.6249 h 626.4556 V 771.3735 H 645.7641 Z" /></clipPath><clipPath
       id="clipPath588"
       clipPathUnits="userSpaceOnUse"><path
         id="path586"
         d="M 341,773.0001 H 1579 V 141 H 341 Z" /></clipPath><clipPath
       id="clipPath594"
       clipPathUnits="userSpaceOnUse"><path
         id="path592"
         d="M 341,141 H 1579 V 773 H 341 Z" /></clipPath><clipPath
       id="clipPath600"
       clipPathUnits="userSpaceOnUse"><path
         id="path598"
         d="m 646,428 h 626 V 564 H 646 Z" /></clipPath><clipPath
       id="clipPath604"
       clipPathUnits="userSpaceOnUse"><path
         id="path602"
         d="m 646.9735,428.1443 h 624.9916 V 563.2167 H 646.9735 Z" /></clipPath><clipPath
       id="clipPath634"
       clipPathUnits="userSpaceOnUse"><path
         id="path632"
         d="M 341,773.0001 H 1579 V 141 H 341 Z" /></clipPath><clipPath
       id="clipPath640"
       clipPathUnits="userSpaceOnUse"><path
         id="path638"
         d="M 341,141 H 1579 V 773 H 341 Z" /></clipPath><clipPath
       id="clipPath646"
       clipPathUnits="userSpaceOnUse"><path
         id="path644"
         d="m 649,320 h 621 V 773 H 649 Z" /></clipPath><clipPath
       id="clipPath650"
       clipPathUnits="userSpaceOnUse"><path
         id="path648"
         d="m 649.0922,320.9329 h 620.5781 V 772.3022 H 649.0922 Z" /></clipPath><clipPath
       id="clipPath654"
       clipPathUnits="userSpaceOnUse"><path
         id="path652"
         d="m 649,320 h 621 V 773 H 649 Z" /></clipPath><clipPath
       id="clipPath658"
       clipPathUnits="userSpaceOnUse"><path
         id="path656"
         d="m 649.6763,320.9329 h 619.4099 V 772.3022 H 649.6763 Z" /></clipPath><clipPath
       id="clipPath662"
       clipPathUnits="userSpaceOnUse"><path
         id="path660"
         d="m 649.0922,320.9329 h 620.5781 V 772.3022 H 649.0922 Z" /></clipPath><clipPath
       id="clipPath666"
       clipPathUnits="userSpaceOnUse"><path
         id="path664"
         d="m 649,506 h 621 V 760 H 649 Z" /></clipPath><clipPath
       id="clipPath670"
       clipPathUnits="userSpaceOnUse"><path
         id="path668"
         d="m 649.0922,506.3726 h 620.5781 V 759.3232 H 649.0922 Z" /></clipPath><clipPath
       id="clipPath764"
       clipPathUnits="userSpaceOnUse"><path
         id="path762"
         d="M 341,773.0001 H 1579 V 141 H 341 Z" /></clipPath><clipPath
       id="clipPath770"
       clipPathUnits="userSpaceOnUse"><path
         id="path768"
         d="M 341,141 H 1579 V 773 H 341 Z" /></clipPath><clipPath
       id="clipPath776"
       clipPathUnits="userSpaceOnUse"><path
         id="path774"
         d="m 837,219 h 25 v 83 h -25 z" /></clipPath><clipPath
       id="clipPath780"
       clipPathUnits="userSpaceOnUse"><path
         id="path778"
         d="m 837.7958,219.7899 h 23.94897 v 81.39212 H 837.7958 Z" /></clipPath><clipPath
       id="clipPath812"
       clipPathUnits="userSpaceOnUse"><path
         id="path810"
         d="m 971.5571,693.7137 h 30.6679 v 57.37653 h -30.6679 z" /></clipPath><clipPath
       id="clipPath822"
       clipPathUnits="userSpaceOnUse"><path
         id="path820"
         d="M 341,773.0001 H 1579 V 141 H 341 Z" /></clipPath><clipPath
       id="clipPath828"
       clipPathUnits="userSpaceOnUse"><path
         id="path826"
         d="M 341,141 H 1579 V 773 H 341 Z" /></clipPath><clipPath
       id="clipPath834"
       clipPathUnits="userSpaceOnUse"><path
         id="path832"
         d="m 864,202 h 36 v 57 h -36 z" /></clipPath><clipPath
       id="clipPath838"
       clipPathUnits="userSpaceOnUse"><path
         id="path836"
         d="m 863.2488,201.3436 h 37.33484 v 57.37575 H 863.2488 Z" /></clipPath><clipPath
       id="clipPath858"
       clipPathUnits="userSpaceOnUse"><path
         id="path856"
         d="m 825.9139,329.1751 h 37.33484 v 70.70526 H 825.9139 Z" /></clipPath></defs><g
     transform="matrix(1.3333333,0,0,-1.3333333,-444.52591,1052.7877)"
     id="g10"><g
       id="g12" /><g
       id="g14"><g
         clip-path="url(#clipPath20)"
         id="g16"><path
           id="path22"
           style="fill:#ffffff;fill-opacity:1;fill-rule:nonzero;stroke:none"
           d="M 0,1080 H 1920 V 0 H 0 Z" /><path
           id="path24"
           style="fill:#ffffff;fill-opacity:1;fill-rule:nonzero;stroke:none"
           d="M 0,1080 H 1920 V 0 H 0 Z" /><path
           id="path26"
           style="fill:#c3c4e3;fill-opacity:1;fill-rule:nonzero;stroke:none"
           d="M 0,1080 H 1920 V 928 H 0 Z" /></g></g><g
       id="g28"><g
         clip-path="url(#clipPath34)"
         id="g30"><g
           clip-path="url(#clipPath40)"
           id="g36"><g
             transform="matrix(1,0,0,-1,60,1087)"
             id="g42"><text
   id="text46"
   style="font-style:italic;font-variant:normal;font-size:90px;font-family:Palatino;-inkscape-font-specification:Palatino-Italic;writing-mode:lr-tb;fill:#000000;fill-opacity:1;fill-rule:nonzero;stroke:none"
   transform="translate(4,110)"><tspan
     id="tspan44"
     y="0"
     x="0 54.972 99.972 139.914 209.916 254.916 279.918 314.94601 404.94601 455.004 484.974 520.00201 553.44598 588.474 628.41602 673.41602 708.44397 748.38599 793.38599 838.38599 863.388 900.03601 922.53601 977.508 1010.952 1050.894 1075.896 1110.924 1147.572 1177.542 1202.5439 1242.486">Example—Stereographic Projection</tspan></text>

</g></g></g></g><g
       id="g48"><g
         clip-path="url(#clipPath54)"
         id="g50"><g
           clip-path="url(#clipPath60)"
           id="g56"><g
             id="g62" /><g
             id="g156"><g
               style="opacity:0.5"
               id="g154"
               clip-path="url(#clipPath66)"><g
                 id="g72" /><g
                 id="g152"><g
                   id="g150"
                   clip-path="url(#clipPath70)"><g
                     id="g76"
                     transform="matrix(1.333386,0,0,1.334338,959.3762,540.1183)"><path
                       id="path74"
                       style="fill:none;stroke:#000000;stroke-width:0.87;stroke-linecap:butt;stroke-linejoin:miter;stroke-miterlimit:10;stroke-dasharray:none;stroke-opacity:1"
                       d="M -1.19257e-5,0 C -1.19257e-5,0 -38.51101,-3.243009 -83.992,-14.84599 -129.458,-26.44801 -158.004,-42.46 -158.004,-42.46 c 0,0 -11.376,-18.56501 0.705,-43.38801 16.706,-34.33199 42.449,-44.99899 42.449,-44.99899 0,0 32.706,-9.98 114.8499880743,-9.98 82.1180319257,0 114.8430119257,9.98 114.8430119257,9.98 0,0 31.322,17.63 42.924,44.53899 11.587,26.91601 0.92,43.84801 0.92,43.84801 0,0 -29.224,15.08401 -73.77802,27.14301 C 40.37099,-3.243009 -1.19257e-5,0 -1.19257e-5,0 Z" /></g><g
                     id="g80"
                     transform="matrix(1.333386,0,0,1.334338,958.9841,454.3923)"><path
                       id="path78"
                       style="fill:none;stroke:#000000;stroke-width:0.87;stroke-linecap:butt;stroke-linejoin:miter;stroke-miterlimit:10;stroke-dasharray:none;stroke-opacity:1"
                       d="M -1.550111e-5,-1.014783e-5 V 64.246" /></g><g
                     id="g84"
                     transform="matrix(1.333386,0,0,1.334338,958.9841,454.3923)"><path
                       id="path82"
                       style="fill:none;stroke:#000000;stroke-width:0.87;stroke-linecap:butt;stroke-linejoin:miter;stroke-miterlimit:10;stroke-dasharray:none;stroke-opacity:1"
                       d="M -1.550111e-5,-1.014783e-5 158.9809,21.78598" /></g><g
                     id="g88"
                     transform="matrix(1.333386,0,0,1.334338,958.9841,454.3923)"><path
                       id="path86"
                       style="fill:none;stroke:#000000;stroke-width:0.87;stroke-linecap:butt;stroke-linejoin:miter;stroke-miterlimit:10;stroke-dasharray:none;stroke-opacity:1"
                       d="M -1.550111e-5,-1.014783e-5 115.137,-66.60102" /></g><g
                     id="g92"
                     transform="matrix(1.333386,0,0,1.334338,958.9841,454.3923)"><path
                       id="path90"
                       style="fill:none;stroke:#000000;stroke-width:0.87;stroke-linecap:butt;stroke-linejoin:miter;stroke-miterlimit:10;stroke-dasharray:none;stroke-opacity:1"
                       d="M -1.550111e-5,-1.014783e-5 -114.556,-66.60102" /></g><g
                     id="g96"
                     transform="matrix(1.333386,0,0,1.334338,958.9841,454.3923)"><path
                       id="path94"
                       style="fill:none;stroke:#000000;stroke-width:0.87;stroke-linecap:butt;stroke-linejoin:miter;stroke-miterlimit:10;stroke-dasharray:none;stroke-opacity:1"
                       d="M -1.550111e-5,-1.014783e-5 -157.71,21.78598" /></g><g
                     id="g100"
                     transform="matrix(1.333386,0,0,1.334338,885.1323,558.3281)"><path
                       id="path98"
                       style="fill:none;stroke:#000000;stroke-width:0.87;stroke-linecap:butt;stroke-linejoin:miter;stroke-miterlimit:10;stroke-dasharray:none;stroke-opacity:1"
                       d="M 3.449226e-6,-3.420726e-6 C 3.449226e-6,-3.420726e-6 -69.34198,-30.824 2.896983,-109.505 68.245,-180.696 144.799,-190.873 144.799,-190.873" /></g><g
                     id="g104"
                     transform="matrix(1.333386,0,0,1.334338,737.2188,522.4527)"><path
                       id="path102"
                       style="fill:none;stroke:#000000;stroke-width:0.87;stroke-linecap:butt;stroke-linejoin:miter;stroke-miterlimit:10;stroke-dasharray:none;stroke-opacity:1"
                       d="M -1.343522e-5,0 C -1.343522e-5,0 109.573,10.06299 250.63,-39.71 c 122.466,-43.21101 125.121,-75.86 125.121,-75.86" /></g><g
                     id="g108"
                     transform="matrix(1.333386,0,0,1.334338,1181.63,522.4527)"><path
                       id="path106"
                       style="fill:none;stroke:#000000;stroke-width:0.87;stroke-linecap:butt;stroke-linejoin:miter;stroke-miterlimit:10;stroke-dasharray:none;stroke-opacity:1"
                       d="M -2.854349e-5,0 C -2.854349e-5,0 -108.856,10.06299 -249.944,-39.71 c -122.4621,-43.21101 -125.11,-75.86 -125.11,-75.86" /></g><g
                     id="g112"
                     transform="matrix(1.333386,0,0,1.334338,1033.525,558.3281)"><path
                       id="path110"
                       style="fill:none;stroke:#000000;stroke-width:0.87;stroke-linecap:butt;stroke-linejoin:miter;stroke-miterlimit:10;stroke-dasharray:none;stroke-opacity:1"
                       d="M 2.131157e-5,-3.420726e-6 C 2.131157e-5,-3.420726e-6 69.32704,-30.824 -2.896958,-109.505 -68.23697,-180.696 -144.799,-190.873 -144.799,-190.873" /></g><g
                     id="g116"
                     transform="matrix(1.333386,0,0,1.334338,653.7312,455.324)"><path
                       id="path114"
                       style="fill:none;stroke:#000000;stroke-width:0.87;stroke-linecap:butt;stroke-linejoin:miter;stroke-miterlimit:10;stroke-dasharray:none;stroke-opacity:1"
                       d="M -1.249317e-5,5.207577e-6 C -1.249317e-5,5.207577e-6 39.33699,-32.61199 228.931,-32.61199 418.5399,-32.61199 457.873,5.207577e-6 457.873,5.207577e-6" /></g><g
                     id="g120"
                     transform="matrix(1.333386,0,0,1.334338,845.1594,303.6394)"><path
                       id="path118"
                       style="fill:none;stroke:#000000;stroke-width:0.87;stroke-linecap:butt;stroke-linejoin:miter;stroke-miterlimit:10;stroke-dasharray:none;stroke-opacity:1"
                       d="M -2.596863e-5,-4.205893e-6 C -2.596863e-5,-4.205893e-6 -13.57104,8.161995 -22.21702,22.82001 c -8.667,14.65798 -6.97302,23.55899 -6.97302,23.55899 0,0 -19.245,-3.48501 -45.24101,-2.79101 C -100.412,44.28201 -122.854,48.416 -122.854,48.416" /></g><g
                     id="g124"
                     transform="matrix(1.333386,0,0,1.334338,748.6959,483.4623)"><path
                       id="path122"
                       style="fill:none;stroke:#000000;stroke-width:0.87;stroke-linecap:butt;stroke-linejoin:miter;stroke-miterlimit:10;stroke-dasharray:none;stroke-opacity:1"
                       d="M -4.527654e-6,-6.679948e-6 C -4.527654e-6,-6.679948e-6 -14.141,-2.085997 -35.60299,-8.113016 -57.06901,-14.14802 -71.22099,-21.088 -71.22099,-21.088" /></g><g
                     id="g128"
                     transform="matrix(1.333386,0,0,1.334338,1073.538,303.6394)"><path
                       id="path126"
                       style="fill:none;stroke:#000000;stroke-width:0.87;stroke-linecap:butt;stroke-linejoin:miter;stroke-miterlimit:10;stroke-dasharray:none;stroke-opacity:1"
                       d="M -1.150626e-5,-4.205893e-6 C -1.150626e-5,-4.205893e-6 13.56399,8.161995 22.225,22.82001 30.88499,37.47799 29.17998,46.379 29.17998,46.379 c 0,0 19.25204,-3.48501 45.24704,-2.79101 C 100.408,44.28201 122.858,48.416 122.858,48.416" /></g><g
                     id="g132"
                     transform="matrix(1.333386,0,0,1.334338,1170.002,483.4623)"><path
                       id="path130"
                       style="fill:none;stroke:#000000;stroke-width:0.87;stroke-linecap:butt;stroke-linejoin:miter;stroke-miterlimit:10;stroke-dasharray:none;stroke-opacity:1"
                       d="M -1.769391e-5,-6.679948e-6 C -1.769391e-5,-6.679948e-6 14.138,-2.085997 35.60599,-8.113016 57.06199,-14.14802 71.21401,-21.088 71.21401,-21.088" /></g><g
                     id="g136"
                     transform="matrix(1.333386,0,0,1.334338,1170.968,483.4623)"><path
                       id="path134"
                       style="fill:none;stroke:#000000;stroke-width:0.87;stroke-linecap:butt;stroke-linejoin:miter;stroke-miterlimit:10;stroke-dasharray:none;stroke-opacity:1"
                       d="M -1.597093e-5,-6.679948e-6 C -1.597093e-5,-6.679948e-6 7.890967,8.584991 9.520999,15.084 11.13501,21.58298 7.995974,29.22101 7.995974,29.22101" /></g><g
                     id="g140"
                     transform="matrix(1.333386,0,0,1.334338,747.1568,483.4623)"><path
                       id="path138"
                       style="fill:none;stroke:#000000;stroke-width:0.87;stroke-linecap:butt;stroke-linejoin:miter;stroke-miterlimit:10;stroke-dasharray:none;stroke-opacity:1"
                       d="M -4.434565e-6,-6.679948e-6 C -4.434565e-6,-6.679948e-6 -7.883022,8.584991 -9.504998,15.084 c -1.634012,6.49898 1.516007,14.13701 1.516007,14.13701" /></g><g
                     id="g144"
                     transform="matrix(1.333386,0,0,1.334338,958.9841,540.1183)"><path
                       id="path142"
                       style="fill:none;stroke:#000000;stroke-width:0.87;stroke-linecap:butt;stroke-linejoin:miter;stroke-miterlimit:10;stroke-dasharray:none;stroke-opacity:1"
                       d="m -1.550111e-5,0 c 0,0 -12.05500449889,5.567016 -27.68600449889,9.045 -15.638,3.48201 -27.70102,4.602 -27.70102,4.602" /></g><g
                     id="g148"
                     transform="matrix(1.333386,0,0,1.334338,959.3762,540.1183)"><path
                       id="path146"
                       style="fill:none;stroke:#000000;stroke-width:0.87;stroke-linecap:butt;stroke-linejoin:miter;stroke-miterlimit:10;stroke-dasharray:none;stroke-opacity:1"
                       d="m -1.19257e-5,0 c 0,0 12.0659919257,5.567016 27.6969919257,9.045 15.631,3.48201 27.68605,4.602 27.68605,4.602" /></g></g></g></g></g></g></g></g><g
       id="g158"><g
         clip-path="url(#clipPath164)"
         id="g160"><g
           clip-path="url(#clipPath170)"
           id="g166"><g
             id="g172" /><g
             id="g192"><g
               style="opacity:0.15"
               id="g190"
               clip-path="url(#clipPath176)"><g
                 id="g182" /><g
                 id="g188"><g
                   id="g186"
                   clip-path="url(#clipPath180)"><path
                     id="path184"
                     style="fill:#1b1f8a;fill-opacity:1;fill-rule:nonzero;stroke:none"
                     d="m 1271.153,428.1447 c 0,74.1465 -139.555,134.2598 -311.6967,134.2598 -172.1255,0 -311.671,-60.1133 -311.671,-134.2598 0,-74.1545 139.5455,-134.2585 311.671,-134.2585 172.1417,0 311.6967,60.104 311.6967,134.2585" /></g></g></g></g></g></g></g><g
       id="g194"><g
         clip-path="url(#clipPath200)"
         id="g196"><g
           clip-path="url(#clipPath206)"
           id="g202"><g
             id="g208" /><g
             id="g294"><g
               style="opacity:0.05"
               id="g292"
               clip-path="url(#clipPath212)"><g
                 id="g218" /><g
                 id="g290"><g
                   id="g288"
                   clip-path="url(#clipPath216)"><g
                     id="g222"
                     transform="matrix(1.333386,0,0,1.334338,959.9998,447.2397)"><path
                       id="path220"
                       style="fill:none;stroke:#000000;stroke-width:1.39199996;stroke-linecap:butt;stroke-linejoin:miter;stroke-miterlimit:10;stroke-dasharray:none;stroke-opacity:1"
                       d="M 1.526607e-5,2.263532e-6 V -114.929" /></g><g
                     id="g226"
                     transform="matrix(1.333386,0,0,1.334338,959.9998,447.2397)"><path
                       id="path224"
                       style="fill:none;stroke:#000000;stroke-width:1.39199996;stroke-linecap:butt;stroke-linejoin:miter;stroke-miterlimit:10;stroke-dasharray:none;stroke-opacity:1"
                       d="M 1.526607e-5,2.263532e-6 177.019,-54.979" /></g><g
                     id="g230"
                     transform="matrix(1.333386,0,0,1.334338,959.9998,447.2397)"><path
                       id="path228"
                       style="fill:none;stroke:#000000;stroke-width:1.39199996;stroke-linecap:butt;stroke-linejoin:miter;stroke-miterlimit:10;stroke-dasharray:none;stroke-opacity:1"
                       d="M 1.526607e-5,2.263532e-6 -178.644,-54.979" /></g><g
                     id="g234"
                     transform="matrix(1.333386,0,0,1.334338,721.7983,373.8798)"><path
                       id="path232"
                       style="fill:none;stroke:#000000;stroke-width:1.39199996;stroke-linecap:butt;stroke-linejoin:miter;stroke-miterlimit:10;stroke-dasharray:none;stroke-opacity:1"
                       d="M -2.689182e-5,-1.24372e-5 C -2.689182e-5,-1.24372e-5 3.741951,-13.23202 20.78299,-33.69001" /></g><g
                     id="g238"
                     transform="matrix(1.333386,0,0,1.334338,1165.899,327.5454)"><path
                       id="path236"
                       style="fill:none;stroke:#000000;stroke-width:1.39199996;stroke-linecap:butt;stroke-linejoin:miter;stroke-miterlimit:10;stroke-dasharray:none;stroke-opacity:1"
                       d="M -1.748448e-5,-5.464954e-6 C 17.75794,20.935 22.60098,34.72499 22.60098,34.72499" /></g><g
                     id="g242"
                     transform="matrix(1.333386,0,0,1.334338,959.9998,447.2397)"><path
                       id="path240"
                       style="fill:none;stroke:#000000;stroke-width:1.39199996;stroke-linecap:butt;stroke-linejoin:miter;stroke-miterlimit:10;stroke-dasharray:none;stroke-opacity:1"
                       d="M 1.526607e-5,2.263532e-6 59.31998,82.993" /></g><g
                     id="g246"
                     transform="matrix(1.333386,0,0,1.334338,959.9998,447.2397)"><path
                       id="path244"
                       style="fill:none;stroke:#000000;stroke-width:1.39199996;stroke-linecap:butt;stroke-linejoin:miter;stroke-miterlimit:10;stroke-dasharray:none;stroke-opacity:1"
                       d="M 1.526607e-5,2.263532e-6 -60.12399,82.993" /></g><g
                     id="g250"
                     transform="matrix(1.333386,0,0,1.334338,736.4688,521.9393)"><path
                       id="path248"
                       style="fill:none;stroke:#000000;stroke-width:1.39199996;stroke-linecap:butt;stroke-linejoin:miter;stroke-miterlimit:10;stroke-dasharray:none;stroke-opacity:1"
                       d="M -3.685802e-5,0 C -3.685802e-5,0 61.40995,-110.373 198.432,-170.029" /></g><g
                     id="g254"
                     transform="matrix(1.333386,0,0,1.334338,879.8312,557.9808)"><path
                       id="path252"
                       style="fill:none;stroke:#000000;stroke-width:1.39199996;stroke-linecap:butt;stroke-linejoin:miter;stroke-miterlimit:10;stroke-dasharray:none;stroke-opacity:1"
                       d="M -2.167338e-5,9.669347e-6 C -2.167338e-5,9.669347e-6 -45.466,-97.12998 -45.49603,-187.173" /></g><g
                     id="g258"
                     transform="matrix(1.333386,0,0,1.334338,1182.213,521.9393)"><path
                       id="path256"
                       style="fill:none;stroke:#000000;stroke-width:1.39199996;stroke-linecap:butt;stroke-linejoin:miter;stroke-miterlimit:10;stroke-dasharray:none;stroke-opacity:1"
                       d="M -1.541182e-5,0 C -1.541182e-5,0 -59.43003,-112.545 -194.505,-170.225" /></g><g
                     id="g262"
                     transform="matrix(1.333386,0,0,1.334338,1038.554,557.9808)"><path
                       id="path260"
                       style="fill:none;stroke:#000000;stroke-width:1.39199996;stroke-linecap:butt;stroke-linejoin:miter;stroke-miterlimit:10;stroke-dasharray:none;stroke-opacity:1"
                       d="M -6.488292e-6,9.669347e-6 C -6.488292e-6,9.669347e-6 50.12102,-95.983 45.50502,-187.263" /></g><g
                     id="g266"
                     transform="matrix(1.333386,0,0,1.334338,721.7983,373.8798)"><path
                       id="path264"
                       style="fill:none;stroke:#000000;stroke-width:1.39199996;stroke-linecap:butt;stroke-linejoin:miter;stroke-miterlimit:10;stroke-dasharray:none;stroke-opacity:1"
                       d="m -2.689182e-5,-1.24372e-5 c 0,0 -3.48499910818,19.0860024372 0,55.4769924372 C 3.465976,91.87199 11.00198,110.961 11.00198,110.961" /></g><g
                     id="g270"
                     transform="matrix(1.333386,0,0,1.334338,721.7983,373.8798)"><path
                       id="path268"
                       style="fill:none;stroke:#000000;stroke-width:1.39199996;stroke-linecap:butt;stroke-linejoin:miter;stroke-miterlimit:10;stroke-dasharray:none;stroke-opacity:1"
                       d="m -2.689182e-5,-1.24372e-5 c 0,0 -14.86098310818,9.0530054372 -28.77598310818,23.8980124372 -13.914,14.83898 -22.262,36.441 -22.262,36.441" /></g><g
                     id="g274"
                     transform="matrix(1.333386,0,0,1.334338,721.7983,373.8798)"><path
                       id="path272"
                       style="fill:none;stroke:#000000;stroke-width:1.39199996;stroke-linecap:butt;stroke-linejoin:miter;stroke-miterlimit:10;stroke-dasharray:none;stroke-opacity:1"
                       d="m -2.689182e-5,-1.24372e-5 c 0,0 -3.29201410818,-8.7359915628 -5.99001110818,-21.2589975628" /></g><g
                     id="g278"
                     transform="matrix(1.333386,0,0,1.334338,1195.793,373.8798)"><path
                       id="path276"
                       style="fill:none;stroke:#000000;stroke-width:1.39199996;stroke-linecap:butt;stroke-linejoin:miter;stroke-miterlimit:10;stroke-dasharray:none;stroke-opacity:1"
                       d="m 7.123686e-6,-1.24372e-5 c 0,0 3.484999876314,19.0860024372 0,55.4769924372 C -3.484992,91.87199 -11.015,110.961 -11.015,110.961" /></g><g
                     id="g282"
                     transform="matrix(1.333386,0,0,1.334338,1195.793,373.8798)"><path
                       id="path280"
                       style="fill:none;stroke:#000000;stroke-width:1.39199996;stroke-linecap:butt;stroke-linejoin:miter;stroke-miterlimit:10;stroke-dasharray:none;stroke-opacity:1"
                       d="M 7.123686e-6,-1.24372e-5 C 7.123686e-6,-1.24372e-5 14.84597,9.052993 28.77105,23.898 42.68303,38.73698 51.72003,60.339 51.72003,60.339" /></g><g
                     id="g286"
                     transform="matrix(1.333386,0,0,1.334338,1195.793,373.8798)"><path
                       id="path284"
                       style="fill:none;stroke:#000000;stroke-width:1.39199996;stroke-linecap:butt;stroke-linejoin:miter;stroke-miterlimit:10;stroke-dasharray:none;stroke-opacity:1"
                       d="M 7.123686e-6,-1.24372e-5 C 7.123686e-6,-1.24372e-5 3.696027,-8.69001 6.365965,-21.62101" /></g></g></g></g></g><g
             transform="matrix(1.333386,0,0,1.334338,1226.03,292.8892)"
             id="g296"><path
               id="path298"
               style="fill:none;stroke:#000000;stroke-width:1.39199996;stroke-linecap:butt;stroke-linejoin:miter;stroke-miterlimit:10;stroke-dasharray:none;stroke-opacity:1"
               d="M -8.997536e-6,3.573987e-6 C 16.09798,24.94701 9.519999,56.45702 9.519999,56.45702" /></g><g
             transform="matrix(1.333386,0,0,1.334338,890.1116,150.8486)"
             id="g300"><path
               id="path302"
               style="fill:none;stroke:#000000;stroke-width:1.39199996;stroke-linecap:butt;stroke-linejoin:miter;stroke-miterlimit:10;stroke-dasharray:none;stroke-opacity:1"
               d="M 7.640323e-6,-2.813171e-6 C 55.15998,-13.25501 138.138,114.733 138.138,114.733" /></g><g
             transform="matrix(1.333386,0,0,1.334338,690.7275,295.6673)"
             id="g304"><path
               id="path306"
               style="fill:none;stroke:#000000;stroke-width:1.39199996;stroke-linecap:butt;stroke-linejoin:miter;stroke-miterlimit:10;stroke-dasharray:none;stroke-opacity:1"
               d="M -1.176537e-6,5.802845e-6 C -14.24701,24.02001 -7.151999,54.37501 -7.151999,54.37501" /></g><g
             transform="matrix(1.333386,0,0,1.334338,1026.966,150.5567)"
             id="g308"><path
               id="path310"
               style="fill:none;stroke:#000000;stroke-width:1.39199996;stroke-linecap:butt;stroke-linejoin:miter;stroke-miterlimit:10;stroke-dasharray:none;stroke-opacity:1"
               d="M -2.736045e-5,-1.915043e-6 C -55.14801,-11.52 -137.149,114.952 -137.149,114.952" /></g><g
             transform="matrix(1.333386,0,0,1.334338,736.9624,235.8957)"
             id="g312"><path
               id="path314"
               style="fill:none;stroke:#000000;stroke-width:1.39199996;stroke-linecap:butt;stroke-linejoin:miter;stroke-miterlimit:10;stroke-dasharray:none;stroke-opacity:1"
               d="M 9.465148e-6,8.833862e-6 C 17.89699,-17.24499 34.79503,-15.38199 34.79503,-15.38199" /></g><g
             transform="matrix(1.333386,0,0,1.334338,1182.918,236.8222)"
             id="g316"><path
               id="path318"
               style="fill:none;stroke:#000000;stroke-width:1.39199996;stroke-linecap:butt;stroke-linejoin:miter;stroke-miterlimit:10;stroke-dasharray:none;stroke-opacity:1"
               d="M -5.889015e-6,8.072504e-6 C -18.79897,-17.23799 -36.51198,-16.07599 -36.51198,-16.07599" /></g><g
             transform="matrix(1.333386,0,0,1.334338,783.3581,215.3711)"
             id="g320"><path
               id="path322"
               style="fill:none;stroke:#000000;stroke-width:1.39199996;stroke-linecap:butt;stroke-linejoin:miter;stroke-miterlimit:10;stroke-dasharray:none;stroke-opacity:1"
               d="M -1.520196e-5,7.207278e-6 45.549,66.37801" /></g><g
             transform="matrix(1.333386,0,0,1.334338,1134.233,215.3711)"
             id="g324"><path
               id="path326"
               style="fill:none;stroke:#000000;stroke-width:1.39199996;stroke-linecap:butt;stroke-linejoin:miter;stroke-miterlimit:10;stroke-dasharray:none;stroke-opacity:1"
               d="M -1.982678e-5,7.207278e-6 -44.94605,66.37801" /></g><g
             transform="matrix(1.333386,0,0,1.334338,783.3581,215.3711)"
             id="g328"><path
               id="path330"
               style="fill:none;stroke:#000000;stroke-width:1.39199996;stroke-linecap:butt;stroke-linejoin:miter;stroke-miterlimit:10;stroke-dasharray:none;stroke-opacity:1"
               d="M -1.520196e-5,7.207278e-6 C -1.520196e-5,7.207278e-6 27.14297,-18.098 58.22297,-25.52099 89.326,-32.94299 131.775,-31.435 131.775,-31.435" /></g><g
             transform="matrix(1.333386,0,0,1.334338,1134.776,215.3711)"
             id="g332"><path
               id="path334"
               style="fill:none;stroke:#000000;stroke-width:1.39199996;stroke-linecap:butt;stroke-linejoin:miter;stroke-miterlimit:10;stroke-dasharray:none;stroke-opacity:1"
               d="M -5.49457e-6,7.207278e-6 C -5.49457e-6,7.207278e-6 -27.12802,-18.098 -58.22303,-25.52099 -89.304,-32.94299 -131.778,-31.435 -131.778,-31.435" /></g><g
             transform="matrix(1.333386,0,0,1.334338,783.3581,215.3711)"
             id="g336"><path
               id="path338"
               style="fill:none;stroke:#000000;stroke-width:1.39199996;stroke-linecap:butt;stroke-linejoin:miter;stroke-miterlimit:10;stroke-dasharray:none;stroke-opacity:1"
               d="M -1.520196e-5,7.207278e-6 C -1.520196e-5,7.207278e-6 13.53396,-23.635 26.856,-29.798" /></g><g
             transform="matrix(1.333386,0,0,1.334338,1135.038,215.3711)"
             id="g340"><path
               id="path342"
               style="fill:none;stroke:#000000;stroke-width:1.39199996;stroke-linecap:butt;stroke-linejoin:miter;stroke-miterlimit:10;stroke-dasharray:none;stroke-opacity:1"
               d="M -1.32944e-5,7.207278e-6 C -1.32944e-5,7.207278e-6 -13.51898,-23.635 -26.85502,-29.798" /></g><g
             transform="matrix(1.333386,0,0,1.334338,1134.233,215.3711)"
             id="g344"><path
               id="path346"
               style="fill:none;stroke:#000000;stroke-width:1.39199996;stroke-linecap:butt;stroke-linejoin:miter;stroke-miterlimit:10;stroke-dasharray:none;stroke-opacity:1"
               d="M -1.982678e-5,7.207278e-6 C -1.982678e-5,7.207278e-6 24.698,18.79201 41.44499,43.85201 c 16.73298,25.05301 36.919,70.69999 36.919,70.69999" /></g><g
             transform="matrix(1.333386,0,0,1.334338,783.5189,215.3711)"
             id="g348"><path
               id="path350"
               style="fill:none;stroke:#000000;stroke-width:1.39199996;stroke-linecap:butt;stroke-linejoin:miter;stroke-miterlimit:10;stroke-dasharray:none;stroke-opacity:1"
               d="M -4.736212e-6,7.207278e-6 C -4.736212e-6,7.207278e-6 -23.98102,18.79201 -40.24599,43.85201 -56.51001,68.912 -55.79401,68.203 -76.743,113.858" /></g><path
             id="path352"
             style="fill:#231f20;fill-opacity:1;fill-rule:nonzero;stroke:none"
             d="m 970.0536,762.5411 c 0,1.4837 -4.7668,2.678 -10.6777,2.678 -5.8736,0 -10.6618,-1.1943 -10.6618,-2.678 0,-1.4705 4.7882,-2.662 10.6618,-2.662 5.9109,0 10.6777,1.1915 10.6777,2.662" /><g
             transform="matrix(1.333386,0,0,1.334338,970.0536,762.5411)"
             id="g354"><path
               id="path356"
               style="fill:none;stroke:#000000;stroke-width:0.69599998;stroke-linecap:butt;stroke-linejoin:miter;stroke-miterlimit:10;stroke-dasharray:none;stroke-opacity:1"
               d="M -2.496391e-5,-1.360921e-5 C -2.496391e-5,1.111972 -3.575017,2.007003 -8.008007,2.007003 -12.41303,2.007003 -16.00404,1.111972 -16.00404,-1.360921e-5 -16.00404,-1.102027 -12.41303,-1.995 -8.008007,-1.995 c 4.43299,0 8.00798203609,0.892973 8.00798203609,1.99498639079 z" /></g></g></g></g><g
       id="g358"><g
         clip-path="url(#clipPath364)"
         id="g360"><g
           clip-path="url(#clipPath370)"
           id="g366"><g
             id="g372" /><g
             id="g394"><g
               style="opacity:0.15"
               id="g392"
               clip-path="url(#clipPath376)"><g
                 id="g382" /><g
                 id="g390"><g
                   id="g388"
                   clip-path="url(#clipPath380)"><g
                     id="g386"
                     transform="matrix(1.333386,0,0,1.334338,681.9054,602.7893)"><path
                       id="path384"
                       style="fill:none;stroke:#231f20;stroke-width:1.39199996;stroke-linecap:butt;stroke-linejoin:miter;stroke-miterlimit:10;stroke-dasharray:none;stroke-opacity:1"
                       d="M 2.342596e-6,1.018951e-5 H 415.259" /></g></g></g></g></g></g></g></g><g
       id="g396"><g
         clip-path="url(#clipPath402)"
         id="g398"><g
           clip-path="url(#clipPath408)"
           id="g404"><g
             id="g410" /><g
             id="g430"><g
               style="opacity:0.4"
               id="g428"
               clip-path="url(#clipPath414)"><g
                 id="g420" /><g
                 id="g426"><g
                   id="g424"
                   clip-path="url(#clipPath418)"><path
                     id="path422"
                     style="fill:#1b1f8a;fill-opacity:1;fill-rule:nonzero;stroke:none"
                     d="m 1268.679,412.835 c -17.624,-66.9384 -149.554,-118.9496 -309.6846,-118.9496 -165.0439,0 -300.1439,55.2723 -310.9724,125.1903 18.6501,-155.7399 150.7767,-276.4509 310.9617,-276.4509 158.0693,0 288.7733,117.5005 310.1773,270.2102 z" /></g></g></g></g><g
             transform="matrix(1.333386,0,0,1.334338,1131.879,194.8061)"
             id="g432"><path
               id="path434"
               style="fill:none;stroke:#000000;stroke-width:2.43600011;stroke-linecap:butt;stroke-linejoin:miter;stroke-miterlimit:10;stroke-dasharray:none;stroke-opacity:1"
               d="M -1.069988e-5,1.643737e-6 C 54.75303,36.41401 93.39297,95.232 102.958,163.413" /></g><g
             transform="matrix(1.333386,0,0,1.334338,648.3742,416.2568)"
             id="g436"><path
               id="path438"
               style="fill:none;stroke:#000000;stroke-width:2.43600011;stroke-linecap:butt;stroke-linejoin:miter;stroke-miterlimit:10;stroke-dasharray:none;stroke-opacity:1"
               d="M -2.068897e-5,-1.156341e-5 C 8.999988,-69.76501 48.424,-129.964 104.5,-166.755" /></g></g></g></g><g
       transform="matrix(1.0120176,0,0,1.6216837,-13.865329,-187.94246)"
       id="g440"><g
         clip-path="url(#clipPath446)"
         id="g442"><g
           clip-path="url(#clipPath452)"
           id="g448"><g
             id="g454" /><g
             id="g474"><g
               style="opacity:0.5"
               id="g472"
               clip-path="url(#clipPath458)"><g
                 id="g464" /><g
                 id="g470"><g
                   id="g468"
                   clip-path="url(#clipPath462)"><path
                     id="path466"
                     style="fill:#ffffff;fill-opacity:1;fill-rule:nonzero;stroke:none"
                     d="m 1271.153,428.1447 c 0,74.1465 -139.555,134.2598 -311.6967,134.2598 -172.1255,0 -311.671,-60.1133 -311.671,-134.2598 0,-74.1545 139.5455,-134.2585 311.671,-134.2585 172.1417,0 311.6967,60.104 311.6967,134.2585 M 608.4517,602.7896 H 1310.544 L 1576.859,193.9402 H 343.1358 Z" /></g></g></g></g></g></g></g><g
       id="g476"><g
         clip-path="url(#clipPath482)"
         id="g478"><g
           clip-path="url(#clipPath488)"
           id="g484"><g
             id="g490" /><g
             id="g510"><g
               style="opacity:0.05"
               id="g508"
               clip-path="url(#clipPath494)"><g
                 id="g500" /><g
                 id="g506"><g
                   id="g504"
                   clip-path="url(#clipPath498)"><path
                     id="path502"
                     style="fill:#1b1f8a;fill-opacity:1;fill-rule:nonzero;stroke:none"
                     d="m 648.3742,416.2568 c 14.0872,-68.5383 148.3419,-122.3708 311.083,-122.3708 136.7138,0 252.8118,37.3134 294.8368,90.0598 -44.701,-55.6553 -168.442,-101.3043 -316.4936,-110.8862 -189.4875,-12.2399 -347.0778,39.2762 -351.9767,115.0533 -1.9414,30.1574 20.5755,59.6103 60.3384,84.9267 0,0 -0.3973,-10.62 -0.3973,-16.0348 0,-13.8117 0.8893,-27.4206 2.6094,-40.748" /></g></g></g></g><g
             transform="matrix(1.333386,0,0,1.334338,787.7137,193.7493)"
             id="g512"><path
               id="path514"
               style="fill:none;stroke:#000000;stroke-width:2.43600011;stroke-linecap:butt;stroke-linejoin:miter;stroke-miterlimit:10;stroke-dasharray:none;stroke-opacity:1"
               d="M -7.681403e-6,-4.061258e-6 C 36.90398,-24.23001 81.05001,-38.314 128.448,-38.314 c 47.937,0 92.506,14.39299 129.666,39.1059939" /></g><g
             transform="matrix(1.333386,0,0,1.334338,1235.606,602.7893)"
             id="g516"><path
               id="path518"
               style="fill:none;stroke:#231f20;stroke-width:1.74000001;stroke-linecap:butt;stroke-linejoin:miter;stroke-miterlimit:10;stroke-dasharray:none;stroke-opacity:1"
               d="M -1.972058e-5,1.018951e-5 H 56.20096 L 255.93,-306.405 H -669.326 L -470.347,1.018951e-5 h 55.088" /></g></g></g></g><g
       id="g520"><g
         clip-path="url(#clipPath526)"
         id="g522"><g
           clip-path="url(#clipPath532)"
           id="g528"><g
             id="g534" /><g
             id="g554"><g
               style="opacity:0.2"
               id="g552"
               clip-path="url(#clipPath538)"><g
                 id="g544" /><g
                 id="g550"><g
                   id="g548"
                   clip-path="url(#clipPath542)"><path
                     id="path546"
                     style="fill:#1b1f8a;fill-opacity:1;fill-rule:nonzero;stroke:none"
                     d="m 1272.219,457.0043 c 0,173.6174 -140.239,314.3701 -313.2349,314.3701 -172.9856,0 -313.2191,-140.7527 -313.2191,-314.3701 0,-173.6375 140.2335,-314.3795 313.2191,-314.3795 172.9959,0 313.2349,140.742 313.2349,314.3795" /></g></g></g></g><g
             transform="matrix(1.333386,0,0,1.334338,959.3762,762.4304)"
             id="g556"><path
               id="path558"
               style="fill:#ffffff;fill-opacity:1;fill-rule:nonzero;stroke:#231f20;stroke-width:2.78399992;stroke-linecap:butt;stroke-linejoin:miter;stroke-miterlimit:10;stroke-dasharray:none;stroke-opacity:1"
               d="M -1.19257e-5,1.842132e-5 -68.75402,-319.618" /></g><path
             id="path560"
             style="fill:#231f20;fill-opacity:1;fill-rule:nonzero;stroke:none"
             d="m 873.9873,335.9515 c 0,3.4733 -2.8161,6.2807 -6.2869,6.2807 -3.4602,0 -6.2763,-2.8074 -6.2763,-6.2807 0,-3.4826 2.8161,-6.3021 6.2763,-6.3021 3.4708,0 6.2869,2.8195 6.2869,6.3021" /><g
             transform="matrix(1.333386,0,0,1.334338,867.7006,335.9515)"
             id="g562"><path
               id="path564"
               style="fill:none;stroke:#231f20;stroke-width:2.43600011;stroke-linecap:butt;stroke-linejoin:miter;stroke-miterlimit:10;stroke-dasharray:none;stroke-opacity:1"
               d="M -2.636381e-5,6.414131e-6 -0.7310459,-3.402001" /></g><g
             transform="matrix(1.333386,0,0,1.334338,864.8607,322.7345)"
             id="g566"><path
               id="path568"
               style="fill:none;stroke:#231f20;stroke-width:2.43600011;stroke-linecap:butt;stroke-linejoin:miter;stroke-miterlimit:10;stroke-dasharray:6.652, 6.652;stroke-dashoffset:0;stroke-opacity:1"
               d="M -3.327896e-5,3.95994e-6 -2.097011,-9.753996" /></g><g
             transform="matrix(1.333386,0,0,1.334338,861.132,305.3803)"
             id="g570"><path
               id="path572"
               style="fill:none;stroke:#231f20;stroke-width:2.43600011;stroke-linecap:butt;stroke-linejoin:miter;stroke-miterlimit:10;stroke-dasharray:none;stroke-opacity:1"
               d="M -1.370964e-5,4.120589e-6 -0.7310333,-3.402003" /></g><g
             transform="matrix(1.333386,0,0,1.334338,647.7856,428.1447)"
             id="g574"><path
               id="path576"
               style="fill:none;stroke:#231f20;stroke-width:1.74000001;stroke-linecap:butt;stroke-linejoin:miter;stroke-miterlimit:10;stroke-dasharray:none;stroke-opacity:1"
               d="M -1.840724e-5,1.709854e-6 C -1.840724e-5,-55.57399 104.655,-100.618 233.744,-100.618 c 129.101,0 233.763,45.04401 233.763,100.618001709854" /></g><g
             transform="matrix(1.333386,0,0,1.334338,1269.162,412.8545)"
             id="g578"><path
               id="path580"
               style="fill:none;stroke:#000000;stroke-width:2.43600011;stroke-linecap:butt;stroke-linejoin:miter;stroke-miterlimit:10;stroke-dasharray:none;stroke-opacity:1"
               d="M -1.268814e-5,1.079577e-5 C 1.508991,10.80301 2.293018,21.85402 2.293018,33.08702 2.293018,163.202 -102.882,268.687 -232.624,268.687 c -129.734,0 -234.905,-105.485 -234.905,-235.59998 0,-10.35 0.667,-20.549 1.957,-30.537013" /></g></g></g></g><g
       id="g582"><g
         clip-path="url(#clipPath588)"
         id="g584"><g
           clip-path="url(#clipPath594)"
           id="g590"><g
             id="g596" /><g
             id="g626"><g
               style="opacity:0.5"
               id="g624"
               clip-path="url(#clipPath600)"><g
                 id="g606" /><g
                 id="g622"><g
                   id="g620"
                   clip-path="url(#clipPath604)"><g
                     id="g610"
                     transform="matrix(1.333386,0,0,1.334338,1271.153,428.1447)"><path
                       id="path608"
                       style="fill:none;stroke:#000000;stroke-width:1.21800005;stroke-linecap:butt;stroke-linejoin:miter;stroke-miterlimit:10;stroke-dasharray:none;stroke-opacity:1"
                       d="M -1.098841e-5,1.709854e-6 C -1.098841e-5,0.9289966 -0.02903205,1.854995 -0.08798967,2.777998" /></g><g
                     id="g614"
                     transform="matrix(1.333386,0,0,1.334338,1270.107,439.2233)"><path
                       id="path612"
                       style="fill:none;stroke:#000000;stroke-width:1.21800005;stroke-linecap:butt;stroke-linejoin:miter;stroke-miterlimit:10;stroke-dasharray:5.574, 5.574;stroke-dashoffset:0;stroke-opacity:1"
                       d="M -1.03467e-5,-8.505544e-6 C -9.809038,51.684 -110.373,92.31599 -232.979,92.31599 c -124.758,0 -226.6941,-42.07899 -233.393,-95.063005" /></g><g
                     id="g618"
                     transform="matrix(1.333386,0,0,1.334338,647.9022,431.8519)"><path
                       id="path616"
                       style="fill:none;stroke:#000000;stroke-width:1.21800005;stroke-linecap:butt;stroke-linejoin:miter;stroke-miterlimit:10;stroke-dasharray:none;stroke-opacity:1"
                       d="M -6.620903e-6,5.483518e-6 C -0.05800297,-0.9229972 -0.08702404,-1.850002 -0.08702404,-2.777991" /></g></g></g></g></g></g></g></g><g
       id="g628"><g
         clip-path="url(#clipPath634)"
         id="g630"><g
           clip-path="url(#clipPath640)"
           id="g636"><g
             id="g642" /><g
             id="g756"><g
               style="opacity:0.35"
               id="g754"
               clip-path="url(#clipPath646)"><g
                 id="g672" /><g
                 id="g720"><g
                   id="g718"
                   clip-path="url(#clipPath650)"><g
                     id="g674" /><g
                     id="g716"><g
                       style="opacity:0.25"
                       id="g714"
                       clip-path="url(#clipPath654)"><g
                         id="g676" /><g
                         id="g712"><g
                           id="g710"
                           clip-path="url(#clipPath658)"><g
                             id="g680"
                             transform="matrix(1.333386,0,0,1.334338,1050.322,748.6198)"><path
                               id="path678"
                               style="fill:none;stroke:#000000;stroke-width:1.39199996;stroke-linecap:butt;stroke-linejoin:miter;stroke-miterlimit:10;stroke-dasharray:none;stroke-opacity:1"
                               d="M -2.152883e-5,7.952556e-6 C -2.152883e-5,9.415014 -30.537,17.053 -68.20703,17.053 -105.873,17.053 -136.41,9.415014 -136.41,7.952556e-6 -136.41,-9.417972 -105.873,-17.056 -68.20703,-17.056 -30.537,-17.056 -2.152883e-5,-9.417972 -2.152883e-5,7.952556e-6 Z" /></g><g
                             id="g684"
                             transform="matrix(1.333386,0,0,1.334338,814.3795,735.5494)"><path
                               id="path682"
                               style="fill:none;stroke:#000000;stroke-width:1.21800005;stroke-linecap:butt;stroke-linejoin:miter;stroke-miterlimit:10;stroke-dasharray:none;stroke-opacity:1"
                               d="M 6.334318e-6,2.184046e-5 C -10.08999,-4.816965 -15.83401,-10.38398 -15.83401,-16.306 c 0,-18.452 55.77803,-33.41198 124.57701,-33.41198 68.811,0 124.59,14.95998 124.59,33.41198 0,6.465021 -6.851,12.496043 -18.694,17.611038" /></g><g
                             id="g688"
                             transform="matrix(1.333386,0,0,1.334338,734.513,674.7457)"><path
                               id="path686"
                               style="fill:none;stroke:#000000;stroke-width:0.87;stroke-linecap:butt;stroke-linejoin:miter;stroke-miterlimit:10;stroke-dasharray:none;stroke-opacity:1"
                               d="M 6.169066e-6,9.059571e-6 C -4.398013,-4.521988 -6.759979,-9.29799 -6.759979,-14.235 c 0,-28.51499 78.530999,-51.62599 175.400979,-51.62599 96.874,0 175.42,23.111 175.42,51.62599 0,5.103008 -2.5359,10.041027 -7.228,14.6949895" /></g><g
                             id="g692"
                             transform="matrix(1.333386,0,0,1.334338,682.554,603.8916)"><path
                               id="path690"
                               style="fill:none;stroke:#000000;stroke-width:0.69599998;stroke-linecap:butt;stroke-linejoin:miter;stroke-miterlimit:10;stroke-dasharray:none;stroke-opacity:1"
                               d="M -1.698598e-5,-2.181507e-6 C -2.908028,-4.719009 -4.447014,-9.611012 -4.447014,-14.62002 c 0,-39.33299 94.738984,-71.22499 211.595014,-71.22499 116.858,0 211.5769,31.892 211.5769,71.22499 0,4.847035 -1.4329,9.581 -4.1639,14.1480073" /></g><g
                             id="g696"
                             transform="matrix(1.333386,0,0,1.334338,650.024,506.3728)"><path
                               id="path694"
                               style="fill:none;stroke:#000000;stroke-width:0.52200001;stroke-linecap:butt;stroke-linejoin:miter;stroke-miterlimit:10;stroke-dasharray:none;stroke-opacity:1"
                               d="M -8.821095e-6,5.160313e-6 C -8.821095e-6,-48.948 103.874,-88.62801 232.005,-88.62801 c 128.135,0 232.013,39.68001 232.013,88.628015160313" /></g><path
                             id="path698"
                             style="fill:#000000;fill-opacity:1;fill-rule:nonzero;stroke:none"
                             d="m 1144.071,320.9325 c 0,0 0.368,8.3009 0.063,22.8278 -0.299,14.523 -1.29,35.2773 -3.989,60.0372 -2.702,24.748 -7.024,53.5284 -13.951,83.8766 -3.452,15.1727 -7.521,30.7365 -12.243,46.3749 -4.709,15.6398 -10.08,31.3556 -16.183,46.7846 -6.075,15.4383 -12.786,30.6231 -20.022,45.2594 -7.335,14.6016 -15.106,28.6603 -23.331,41.8529 -8.216,13.1899 -16.883,25.4885 -25.85,36.5435 -8.959,11.059 -18.221,20.8637 -27.438,29.1633 -9.2208,8.2916 -18.3518,15.1381 -26.9881,20.2913 -8.6178,5.1852 -16.6087,8.8774 -23.4223,11.1951 -6.7977,2.3818 -12.3605,3.4933 -16.1553,3.9803 -1.8988,0.2522 -3.3602,0.3496 -4.3336,0.3816 -0.9867,0.0428 -1.444,0.0147 -1.4453,0.0147 l -0.0894,1.8547 c -10e-4,0 0.5787,0.0294 1.6001,-0.0173 1.0334,-0.0374 2.5508,-0.1455 4.5068,-0.4123 3.9122,-0.5164 9.5951,-1.676 16.502,-4.1231 6.9243,-2.3845 15.0126,-6.1567 23.709,-11.4313 8.7176,-5.2426 17.9074,-12.1852 27.1651,-20.5702 9.255,-8.393 18.535,-18.2884 27.497,-29.4287 8.971,-11.1391 17.625,-23.5138 25.818,-36.7704 8.201,-13.2527 15.954,-27.4007 23.24,-42.0344 7.2,-14.6924 13.87,-29.9279 19.902,-45.4115 6.056,-15.4744 11.381,-31.2302 16.041,-46.9047 4.672,-15.6731 8.691,-31.2662 12.092,-46.463 6.827,-30.3976 11.051,-59.2073 13.667,-83.9753 2.614,-24.7786 3.533,-45.5396 3.779,-60.0665 0.256,-14.5296 -0.141,-22.8292 -0.141,-22.8292" /><path
                             id="path700"
                             style="fill:#000000;fill-opacity:1;fill-rule:nonzero;stroke:none"
                             d="m 1251.72,383.1707 c 0,0 0.321,2.2016 0.666,6.3595 0.352,4.1537 0.698,10.265 0.75,18.0482 0.056,7.7819 -0.188,17.241 -1.107,28.0438 -0.92,10.7961 -2.408,22.9533 -4.939,36.0525 -2.515,13.0992 -5.975,27.1524 -10.608,41.7154 -4.664,14.5509 -10.559,29.5837 -17.716,44.6336 -7.188,15.03 -15.53,30.1414 -25.329,44.651 -1.19,1.836 -2.382,3.6761 -3.578,5.5202 -1.275,1.7853 -2.551,3.5746 -3.83,5.3667 -2.583,3.564 -5.064,7.2174 -7.747,10.7347 -2.733,3.4787 -5.472,6.9653 -8.214,10.4546 l -2.065,2.6113 -2.175,2.5218 -4.352,5.0439 c -11.684,13.366 -24.148,26.0983 -37.488,37.4041 -13.273,11.378 -27.13,21.6283 -41.156,30.5857 -3.547,2.1723 -7.002,4.434 -10.538,6.4809 -3.554,2.0216 -7.07,4.0231 -10.551,6.0032 -3.551,1.8508 -7.063,3.6801 -10.534,5.4882 -3.496,1.7559 -7.014,3.3625 -10.448,5.0171 -13.853,6.3848 -27.34,11.5447 -39.994,15.6571 -25.3236,8.2368 -47.2338,12.2946 -62.6104,14.2161 -7.695,0.9726 -13.7712,1.4397 -17.9114,1.6665 -4.1415,0.2282 -6.3296,0.2148 -6.3296,0.2148 l -0.009,1.8574 c 0,0 2.2601,0.005 6.4403,-0.2374 4.1801,-0.2429 10.2977,-0.7353 18.0353,-1.7387 15.4633,-1.9828 37.4642,-6.134 62.8701,-14.4883 12.696,-4.1724 26.223,-9.3977 40.109,-15.8532 3.442,-1.6733 6.969,-3.2958 10.472,-5.0719 3.478,-1.8253 6.998,-3.6734 10.557,-5.5428 3.486,-1.9989 7.012,-4.019 10.571,-6.0592 3.541,-2.0656 7.003,-4.3473 10.555,-6.5396 14.046,-9.0362 27.916,-19.3666 41.191,-30.8205 13.344,-11.386 25.801,-24.193 37.47,-37.6311 l 4.345,-5.0705 2.172,-2.5339 2.061,-2.6246 c 2.738,-3.5053 5.471,-7.0093 8.199,-10.5052 2.679,-3.5347 5.158,-7.2082 7.735,-10.7909 1.276,-1.8014 2.551,-3.6 3.823,-5.3947 1.188,-1.8481 2.376,-3.6921 3.561,-5.5321 9.761,-14.5563 18.074,-29.7331 25.224,-44.8098 7.119,-15.0967 12.973,-30.1707 17.595,-44.7537 4.591,-14.5964 8.009,-28.675 10.484,-41.7915 2.488,-13.1192 3.938,-25.2884 4.824,-36.0952 0.882,-10.8095 1.097,-20.2726 1.017,-28.0558 -0.079,-7.7859 -0.445,-13.8971 -0.809,-18.0509 -0.36,-4.1565 -0.688,-6.3568 -0.688,-6.3568" /><path
                             id="path702"
                             style="fill:#000000;fill-opacity:1;fill-rule:nonzero;stroke:none"
                             d="m 959.2811,763.3542 c 0,0 0.232,0.0187 0.6826,0.0547 0.4561,0.0281 1.1614,0.0214 2.0668,0.0348 0.9201,0.0346 2.0028,-0.0281 3.2788,-0.0921 1.2774,-0.0814 2.7561,-0.0948 4.3882,-0.2562 3.2601,-0.3469 7.247,-0.5938 11.7578,-1.261 2.2601,-0.2989 4.6668,-0.6164 7.203,-0.9527 2.5401,-0.3135 5.1801,-0.8126 7.9522,-1.2422 5.5365,-0.8954 11.5395,-1.8334 17.8405,-3.0783 3.156,-0.5925 6.399,-1.1996 9.714,-1.8215 1.656,-0.3109 3.331,-0.6257 5.023,-0.942 1.683,-0.3523 3.384,-0.7072 5.099,-1.0648 6.856,-1.4318 13.942,-2.9115 21.141,-4.4153 3.62,-0.8033 7.177,-1.7574 10.799,-2.6367 1.804,-0.4563 3.617,-0.8819 5.42,-1.3663 l 5.364,-1.6666 5.362,-1.6666 2.677,-0.8313 2.623,-0.9727 c 3.491,-1.3037 6.967,-2.6033 10.416,-3.8923 3.375,-1.4691 6.724,-2.9276 10.033,-4.3673 1.67,-0.6845 3.258,-1.5211 4.856,-2.3084 1.593,-0.7926 3.175,-1.5812 4.745,-2.3618 3.174,-1.4944 6.134,-3.2704 9.089,-4.897 1.465,-0.8339 2.938,-1.6185 4.352,-2.4658 1.4,-0.87 2.783,-1.732 4.147,-2.5793 1.364,-0.8487 2.709,-1.6853 4.033,-2.5099 1.31,-0.8486 2.563,-1.7413 3.815,-2.5873 2.492,-1.7079 4.926,-3.3265 7.143,-5.0452 4.527,-3.3051 8.518,-6.5488 11.991,-9.4937 3.464,-2.9583 6.372,-5.6603 8.726,-7.9314 2.336,-2.2884 4.108,-4.1471 5.295,-5.4361 1.173,-1.2996 1.776,-2.0134 1.776,-2.0134 0,0 -0.608,0.7098 -1.792,2.0001 -1.196,1.2796 -2.982,3.1237 -5.335,5.3921 -2.368,2.251 -5.298,4.929 -8.781,7.8579 -3.492,2.9155 -7.504,6.1246 -12.052,9.391 -2.227,1.6987 -4.668,3.2959 -7.171,4.9824 -1.256,0.834 -2.513,1.7161 -3.827,2.5527 -1.329,0.8126 -2.68,1.6372 -4.047,2.4738 -1.369,0.8366 -2.754,1.6839 -4.158,2.542 -1.418,0.8339 -2.894,1.6065 -4.365,2.4257 -2.961,1.6026 -5.925,3.3506 -9.104,4.817 -1.572,0.7673 -3.156,1.5399 -4.752,2.3191 -1.599,0.7726 -3.188,1.5945 -4.86,2.2644 -3.31,1.4104 -6.661,2.8381 -10.038,4.2766 -3.447,1.2582 -6.923,2.5272 -10.412,3.8001 l -2.622,0.9488 -2.669,0.8072 -5.347,1.6159 -5.343,1.6159 c -1.803,0.4697 -3.623,0.8806 -5.43,1.3237 -3.613,0.8473 -7.224,1.7853 -10.785,2.5459 -7.207,1.4464 -14.298,2.8688 -21.161,4.2458 -1.715,0.3443 -3.415,0.6859 -5.102,1.0248 -1.689,0.3042 -3.365,0.6044 -5.023,0.9021 -3.315,0.595 -6.556,1.1768 -9.713,1.7426 -6.303,1.1942 -12.3,2.0842 -17.8291,2.9355 -2.7668,0.4043 -5.4082,0.8834 -7.939,1.1769 -2.5268,0.3136 -4.9255,0.6111 -7.1789,0.8914 -4.5016,0.6311 -8.4457,0.8419 -11.6859,1.1621 -1.62,0.1482 -3.0641,0.1482 -4.3215,0.2189 -1.2587,0.0547 -2.3307,0.1067 -3.1627,0.068 -0.8454,-0.02 -1.4828,-0.012 -1.9295,-0.0427 -0.4507,-0.04 -0.6827,-0.06 -0.6827,-0.06 z" /><path
                             id="path704"
                             style="fill:#000000;fill-opacity:1;fill-rule:nonzero;stroke:none"
                             d="m 774.6123,320.9325 c 0,0 -0.3973,8.2996 -0.1414,22.8292 0.2468,14.5256 1.1641,35.2865 3.7776,60.0652 2.6147,24.7693 6.8376,53.5777 13.6632,83.9753 3.4001,15.1968 7.4176,30.7898 12.0898,46.463 4.6588,15.6744 9.9817,31.4303 16.0379,46.906 6.0283,15.4836 12.6979,30.7191 19.8968,45.4115 7.2883,14.6324 15.0433,28.7803 23.2423,42.0317 8.1963,13.2566 16.8513,25.6299 25.8197,36.7676 8.963,11.1418 18.242,21.0373 27.4984,29.4303 9.2577,8.3849 18.4447,15.3275 27.1624,20.5714 8.6951,5.2747 16.7834,9.0482 23.709,11.4326 6.9056,2.4485 12.5885,3.6081 16.5007,4.1245 1.956,0.2668 3.4734,0.3736 4.5054,0.4123 1.0228,0.0467 1.6028,0.0173 1.6028,0.0173 l -0.092,-1.8547 c 0,0 -0.4588,0.0281 -1.4441,-0.0147 -0.9747,-0.032 -2.4361,-0.1294 -4.3335,-0.3816 -3.7948,-0.487 -9.3564,-1.5985 -16.1553,-3.9816 -6.8123,-2.3178 -14.8046,-6.0113 -23.4196,-11.1965 -8.6377,-5.1546 -17.7674,-12.0011 -26.9877,-20.2926 -9.2164,-8.2996 -18.4781,-18.1056 -27.4372,-29.1633 -8.9669,-11.055 -17.634,-23.3536 -25.8516,-36.5422 -8.2243,-13.1912 -15.998,-27.2499 -23.3343,-41.8502 -7.2336,-14.6377 -13.9445,-29.8211 -20.0181,-45.2594 -6.1003,-15.4303 -11.4711,-31.1462 -16.1793,-46.7859 -4.7216,-15.6385 -8.7884,-31.2022 -12.2405,-46.375 -6.9257,-30.3481 -11.2458,-59.1285 -13.9473,-83.8765 -2.6987,-24.76 -3.6894,-45.5129 -3.9868,-60.0359 -0.3053,-14.5269 0.0627,-22.8278 0.0627,-22.8278" /><path
                             id="path706"
                             style="fill:#000000;fill-opacity:1;fill-rule:nonzero;stroke:none"
                             d="m 666.9583,383.1707 c 0,0 -0.328,2.2003 -0.6867,6.3568 -0.3654,4.1538 -0.7307,10.265 -0.808,18.0509 -0.08,7.7845 0.1333,17.2463 1.0187,28.0571 0.8854,10.8069 2.3361,22.976 4.8255,36.0939 2.4748,13.1179 5.8909,27.1965 10.4831,41.7928 4.6215,14.5843 10.4751,29.657 17.594,44.7551 7.1483,15.0766 15.462,30.2547 25.2224,44.8097 1.1854,1.8414 2.3734,3.6855 3.5628,5.5322 1.2707,1.796 2.5454,3.5947 3.8215,5.3947 2.5787,3.5827 5.0575,7.2575 7.7362,10.7921 2.7282,3.496 5.4603,6.9986 8.1977,10.5053 l 2.0614,2.6233 2.1708,2.5352 4.3468,5.0705 c 11.6712,13.4382 24.1264,26.2451 37.4708,37.6297 13.2752,11.4553 27.1478,21.7857 41.1937,30.8205 3.5535,2.1924 7.0136,4.4728 10.5564,6.5397 3.5575,2.0388 7.0829,4.0603 10.5698,6.0592 3.5588,1.868 7.0789,3.7161 10.5564,5.5428 3.5041,1.7747 7.0296,3.3986 10.4724,5.0705 13.8859,6.4569 27.4144,11.6808 40.1096,15.8533 25.4077,8.3529 47.4072,12.5041 62.8705,14.4869 7.739,1.0034 13.8565,1.4958 18.0367,1.7387 4.1802,0.2428 6.4402,0.2374 6.4402,0.2374 l -0.01,-1.8574 c 0,0 -2.188,0.0134 -6.3299,-0.2148 -4.1401,-0.2268 -10.2177,-0.6939 -17.9113,-1.6665 -15.3766,-1.9202 -37.2868,-5.9793 -62.6119,-14.2147 -12.6538,-4.1125 -26.1436,-9.2711 -39.9949,-15.6572 -3.4347,-1.6546 -6.9523,-3.2611 -10.4484,-5.0171 -3.4708,-1.808 -6.9829,-3.6374 -10.535,-5.4868 -3.4789,-1.9802 -6.9977,-3.9816 -10.5499,-6.0032 -3.5361,-2.0469 -6.9909,-4.3086 -10.539,-6.4822 -14.0259,-8.9561 -27.8851,-19.2079 -41.1563,-30.583 -13.3419,-11.3072 -25.8037,-24.0382 -37.4908,-37.4042 l -4.3508,-5.0438 -2.1748,-2.522 -2.0654,-2.6112 c -2.7415,-3.4893 -5.4816,-6.976 -8.2137,-10.4559 -2.6841,-3.516 -5.1655,-7.1707 -7.7483,-10.7334 -1.2787,-1.792 -2.5548,-3.5814 -3.8295,-5.3667 -1.1947,-1.8441 -2.3894,-3.6841 -3.5802,-5.5202 -9.799,-14.5096 -18.138,-29.6223 -25.3263,-44.6536 -7.1563,-15.0487 -13.0512,-30.0827 -17.7153,-44.6337 -4.6322,-14.5629 -8.0924,-28.6175 -10.6084,-41.7154 -2.5295,-13.0992 -4.0189,-25.2564 -4.9389,-36.0538 -0.9187,-10.8028 -1.1641,-20.2606 -1.1108,-28.0425 0.0534,-7.7845 0.3987,-13.8958 0.7494,-18.0495 0.3454,-4.1579 0.6667,-6.3595 0.6667,-6.3595" /><path
                             id="path708"
                             style="fill:#000000;fill-opacity:1;fill-rule:nonzero;stroke:none"
                             d="m 959.2003,761.5065 c 0,0 -0.232,0.02 -0.6827,0.06 -0.4467,0.0307 -1.0841,0.0227 -1.9295,0.0427 -0.8307,0.0387 -1.904,-0.0133 -3.1627,-0.0693 -1.2574,-0.0694 -2.7001,-0.0694 -4.3215,-0.2189 -3.2388,-0.3189 -7.183,-0.5311 -11.6859,-1.1609 -2.2534,-0.2802 -4.6508,-0.5778 -7.1789,-0.8926 -2.5308,-0.2936 -5.1709,-0.7726 -7.9376,-1.1783 -5.5296,-0.8499 -11.5259,-1.74 -17.8288,-2.9342 -3.1574,-0.5658 -6.3988,-1.1488 -9.7137,-1.7426 -1.6574,-0.2989 -3.3321,-0.5992 -5.0242,-0.902 -1.684,-0.339 -3.3854,-0.6792 -5.1002,-1.0248 -6.8629,-1.3771 -13.9539,-2.7994 -21.1595,-4.2459 -3.5615,-0.7619 -7.1722,-1.6986 -10.7871,-2.5459 -1.8054,-0.443 -3.6254,-0.854 -5.4282,-1.3237 l -5.3442,-1.6158 -5.3455,-1.6159 -2.6708,-0.8073 -2.6201,-0.9487 c -3.4895,-1.273 -6.9643,-2.5406 -10.4124,-3.7989 -3.3775,-1.4384 -6.7283,-2.8662 -10.0378,-4.2766 -1.672,-0.6698 -3.2614,-1.4917 -4.8602,-2.2656 -1.5961,-0.7779 -3.1801,-1.5505 -4.7508,-2.3178 -3.1788,-1.4664 -6.1443,-3.2157 -9.1057,-4.8169 -1.4694,-0.8193 -2.9468,-1.5919 -4.3628,-2.4259 -1.4041,-0.858 -2.7908,-1.7052 -4.1589,-2.5419 -1.3681,-0.8366 -2.7174,-1.6626 -4.0468,-2.4738 -1.3134,-0.8367 -2.5708,-1.7187 -3.8268,-2.5526 -2.5028,-1.6866 -4.9442,-3.2839 -7.171,-4.9825 -4.5482,-3.2664 -8.559,-6.4755 -12.0511,-9.391 -3.4842,-2.9289 -6.4123,-5.607 -8.7804,-7.8579 -2.3534,-2.2685 -4.1388,-4.1138 -5.3349,-5.3921 -1.184,-1.2903 -1.7907,-2.0002 -1.792,-2.0002 0.001,0 0.6026,0.7139 1.776,2.0135 1.1868,1.289 2.9588,3.1478 5.2949,5.4361 2.3521,2.271 5.2615,4.9731 8.7257,7.9313 3.4721,2.9449 7.4616,6.1887 11.9911,9.4939 2.2161,1.7186 4.6482,3.3358 7.1417,5.0451 1.252,0.846 2.5041,1.7386 3.8134,2.5872 1.3254,0.8233 2.6708,1.6613 4.0336,2.5099 1.364,0.8487 2.7467,1.708 4.1467,2.5793 1.4148,0.846 2.8868,1.6319 4.3536,2.4645 2.9547,1.6279 5.9135,3.404 9.087,4.8984 1.5707,0.7806 3.1521,1.5678 4.7455,2.3618 1.5974,0.7873 3.1855,1.6239 4.8562,2.3084 3.3081,1.4397 6.6576,2.8968 10.0324,4.3673 3.4495,1.2876 6.9256,2.5873 10.4151,3.8923 l 2.6241,0.9713 2.6775,0.8327 5.3615,1.6666 5.3642,1.6666 c 1.8027,0.4843 3.6161,0.9086 5.4189,1.365 3.6215,0.8793 7.1789,1.8333 10.7991,2.638 7.2002,1.5024 14.2845,2.9822 21.1421,4.414 1.7148,0.3576 3.4148,0.7125 5.0976,1.0648 1.6907,0.3162 3.3668,0.6311 5.0229,0.942 3.3147,0.6218 6.5562,1.229 9.7136,1.8214 6.3017,1.2449 12.3046,2.1843 17.8408,3.0783 2.7721,0.4283 5.4135,0.9273 7.9523,1.2436 2.5361,0.3349 4.9415,0.6525 7.203,0.9514 4.5094,0.6685 8.4963,0.914 11.7577,1.261 1.6321,0.1627 3.1109,0.176 4.3869,0.2561 1.276,0.0654 2.3601,0.1281 3.2801,0.0934 0.9041,-0.0146 1.6094,-0.007 2.0655,-0.0347 0.4506,-0.0373 0.684,-0.0546 0.684,-0.0546 z" /></g></g></g></g></g></g><g
                 id="g752"><g
                   id="g750"
                   clip-path="url(#clipPath662)"><g
                     id="g722" /><g
                     id="g748"><g
                       style="opacity:0.1"
                       id="g746"
                       clip-path="url(#clipPath666)"><g
                         id="g724" /><g
                         id="g744"><g
                           id="g742"
                           clip-path="url(#clipPath670)"><g
                             id="g728"
                             transform="matrix(1.333386,0,0,1.334338,1183.642,675.3596)"><path
                               id="path726"
                               style="fill:none;stroke:#000000;stroke-width:1.39600003;stroke-linecap:butt;stroke-linejoin:miter;stroke-miterlimit:10;stroke-dasharray:none;stroke-opacity:1"
                               d="M 3.051711e-6,1.323868e-5 C -21.52996,21.34903 -88.66997,36.923 -168.192,36.923 c -80.078,0 -147.639,-15.79998 -168.641,-37.3829672" /></g><g
                             id="g732"
                             transform="matrix(1.333386,0,0,1.334338,1235.323,603.2622)"><path
                               id="path730"
                               style="fill:none;stroke:#000000;stroke-width:1.39400005;stroke-linecap:butt;stroke-linejoin:miter;stroke-miterlimit:10;stroke-dasharray:none;stroke-opacity:1"
                               d="M -1.13023e-5,1.769076e-5 C -19.50802,32.56303 -104.934,57.08004 -207.412,57.08004 c -101.9921,0 -187.116,-24.28304 -207.149,-56.6080118" /></g><g
                             id="g736"
                             transform="matrix(1.333386,0,0,1.334338,1268.739,506.3728)"><path
                               id="path734"
                               style="fill:none;stroke:#000000;stroke-width:1.39699996;stroke-linecap:butt;stroke-linejoin:miter;stroke-miterlimit:10;stroke-dasharray:none;stroke-opacity:1"
                               d="M 0,5.160313e-6 C 0,48.95498 -103.878,88.62399 -232.013,88.62399 -360.144,88.62399 -464.018,48.95498 -464.018,5.160313e-6" /></g><g
                             id="g740"
                             transform="matrix(1.333386,0,0,1.334338,1100.576,737.2903)"><path
                               id="path738"
                               style="fill:none;stroke:#000000;stroke-width:1.42999995;stroke-linecap:butt;stroke-linejoin:miter;stroke-miterlimit:10;stroke-dasharray:none;stroke-opacity:1"
                               d="M 6.681512e-6,3.016694e-5 C -21.99695,9.486029 -61.19402,15.79704 -105.896,15.79704 c -46.718,0 -87.424,-6.899024 -108.743,-17.102026" /></g></g></g></g></g></g></g></g></g></g></g></g><g
       id="g758"><g
         clip-path="url(#clipPath764)"
         id="g760"><g
           clip-path="url(#clipPath770)"
           id="g766"><g
             id="g772" /><g
             id="g804"><g
               style="opacity:0.6"
               id="g802"
               clip-path="url(#clipPath776)"><g
                 id="g782" /><g
                 id="g800"><g
                   id="g798"
                   clip-path="url(#clipPath780)"><g
                     id="g786"
                     transform="matrix(1.333386,0,0,1.334338,860.1567,300.8404)"><path
                       id="path784"
                       style="fill:none;stroke:#231f20;stroke-width:2.43600011;stroke-linecap:butt;stroke-linejoin:miter;stroke-miterlimit:10;stroke-dasharray:none;stroke-opacity:1"
                       d="M 0,-2.220004e-6 -0.7319807,-3.402009" /></g><g
                     id="g790"
                     transform="matrix(1.333386,0,0,1.334338,857.165,286.9198)"><path
                       id="path788"
                       style="fill:none;stroke:#231f20;stroke-width:2.43600011;stroke-linecap:butt;stroke-linejoin:miter;stroke-miterlimit:10;stroke-dasharray:7.191, 7.191;stroke-dashoffset:0;stroke-opacity:1"
                       d="M -3.281352e-5,-3.908473e-6 -8.316032,-38.66901" /></g><g
                     id="g794"
                     transform="matrix(1.333386,0,0,1.334338,845.0682,230.6314)"><path
                       id="path792"
                       style="fill:none;stroke:#231f20;stroke-width:2.43600011;stroke-linecap:butt;stroke-linejoin:miter;stroke-miterlimit:10;stroke-dasharray:none;stroke-opacity:1"
                       d="M 7.266513e-6,-4.065176e-6 -0.7310123,-3.402" /></g><path
                     id="path796"
                     style="fill:#231f20;fill-opacity:1;fill-rule:nonzero;stroke:none"
                     d="m 850.3691,226.0914 c 0,3.4733 -2.8054,6.2914 -6.2762,6.2914 -3.4708,0 -6.2976,-2.8181 -6.2976,-6.2914 0,-3.4826 2.8268,-6.302 6.2976,-6.302 3.4708,0 6.2762,2.8194 6.2762,6.302" /></g></g></g></g></g></g></g><g
       id="g806"><g
         clip-path="url(#clipPath812)"
         id="g808"><path
           id="path814"
           style="fill:#000000;fill-opacity:1;fill-rule:nonzero;stroke:none"
           d="m 998.6108,749.2836 c -3.2321,1.2796 -5.3616,1.776 -7.527,1.776 -2.024,0 -3.7988,-0.5684 -5.8936,-1.8481 -2.6641,-1.6331 -5.9295,-4.3339 -7.5616,-6.1819 -2.9841,-3.4813 -5.8949,-14.3535 -5.8949,-22.0273 0,-4.406 0.8881,-6.6089 2.6988,-6.6089 1.6334,0 3.0521,0.567 5.4308,2.2029 l 0.5694,0.4617 c 4.8642,3.4106 9.6924,8.776 12.4258,13.6797 l -5.6441,-30.8046 c -0.3561,-1.7773 -1.1014,-3.2704 -2.0242,-4.2285 l 0.6734,-1.0661 c 2.3094,0.6044 4.6162,1.0661 6.3909,1.2796 0.32,4.015 0.7467,8.0994 1.4214,11.8303 l 6.3911,33.9321 c 0.816,4.5475 1.279,6.5023 2.023,8.8107 l -1.03,0.427 z m -4.1189,-10.9429 c -0.816,-3.8029 -2.4494,-7.0706 -5.1842,-10.4825 -3.8695,-4.7596 -8.4136,-8.2783 -10.5804,-8.2783 -1.0294,0 -1.6334,1.5638 -1.6334,4.0151 0,7.1427 3.1961,18.3338 6.3216,22.0285 0.888,1.1369 3.0522,1.812 5.4322,1.812 2.0935,0 3.6561,-0.4603 7.2056,-2.0241 l -1.5614,-7.0707" /></g></g><g
       id="g816"><g
         clip-path="url(#clipPath822)"
         id="g818"><g
           clip-path="url(#clipPath828)"
           id="g824"><g
             id="g830" /><g
             id="g850"><g
               style="opacity:0.6"
               id="g848"
               clip-path="url(#clipPath834)"><g
                 id="g840" /><g
                 id="g846"><g
                   id="g844"
                   clip-path="url(#clipPath838)"><path
                     id="path842"
                     style="fill:#000000;fill-opacity:1;fill-rule:nonzero;stroke:none"
                     d="m 873.5453,223.0527 0.6747,-0.2135 c 1.9174,-0.6031 3.0534,-0.8166 3.8695,-0.8166 4.1548,0 12.7112,5.4361 15.9059,10.125 3.0535,4.5127 5.5749,12.7216 5.5749,18.2978 0,4.9757 -1.704,8.2435 -4.4028,8.2435 -3.1228,0 -7.0656,-1.9174 -10.9365,-5.4361 -3.0174,-2.5939 -4.5082,-4.5114 -7.2069,-8.9174 l 1.7761,8.8467 c 0.248,1.2796 0.3907,2.3805 0.3907,3.3051 0,1.3851 -0.6041,2.2017 -1.6335,2.2017 -1.5627,0 -4.4028,-1.5638 -9.9057,-5.5068 l -2.0587,-1.4918 0.496,-1.4571 2.3788,1.5639 c 2.0947,1.3129 2.9121,1.7039 3.5868,1.7039 0.7453,0 1.2414,-0.6752 1.2414,-1.7039 0,-0.6045 -0.1414,-2.0963 -0.2828,-2.8435 l -4.2961,-25.5446 c -0.7467,-4.4433 -2.1667,-11.2285 -3.6575,-17.9442 l -0.6027,-2.7354 0.5321,-0.4617 c 1.5614,0.5324 3.0534,0.9234 5.4321,1.2797 z m 2.0588,12.0438 c 1.6693,9.5231 9.6217,19.2932 15.7992,19.2932 1.9188,0 2.8055,-1.6333 2.8055,-5.0799 0,-6.0045 -2.9828,-14.8872 -6.923,-20.5368 -1.492,-2.1322 -3.8695,-3.2691 -6.8882,-3.2691 -2.3081,0 -4.1895,0.5324 -6.107,1.7053 l 1.3135,7.8873" /></g></g></g></g></g></g></g><g
       id="g852"><g
         clip-path="url(#clipPath858)"
         id="g854"><path
           id="path860"
           style="fill:#000000;fill-opacity:1;fill-rule:nonzero;stroke:none"
           d="m 859.9275,399.0993 c -1.1361,-2.7714 -2.3081,-3.7308 -4.4028,-3.7308 -0.8868,0 -1.7041,0.3189 -3.4789,1.1369 -3.9414,1.9188 -4.8642,2.203 -6.6402,2.203 -4.0828,0 -6.8523,-2.594 -7.8817,-7.4256 h 2.1654 c 0.9601,2.3097 2.1668,3.3398 3.9416,3.3398 1.0293,0 2.52,-0.499 5.2908,-1.9187 2.2361,-1.0662 3.4081,-1.4211 5.0416,-1.4211 4.2601,0 7.8109,3.4813 8.0949,7.8165 h -2.1307" /><path
           id="path862"
           style="fill:#000000;fill-opacity:1;fill-rule:nonzero;stroke:none"
           d="m 836.2104,350.6006 0.6747,-0.2135 c 1.9175,-0.6032 3.0535,-0.8167 3.8695,-0.8167 4.1549,0 12.7112,5.4361 15.906,10.125 3.0535,4.5488 5.5749,12.7216 5.5749,18.2991 0,5.0091 -1.7041,8.2783 -4.4029,8.2783 -3.1241,0 -7.0656,-1.9535 -10.9351,-5.4361 -3.0187,-2.594 -4.5095,-4.5475 -7.2082,-8.9174 l 1.776,8.8453 c 0.248,1.245 0.3907,2.3818 0.3907,3.2705 0,1.4197 -0.604,2.2377 -1.6334,2.2377 -1.5627,0 -4.4028,-1.5639 -9.9057,-5.5082 l -2.0588,-1.4918 0.4961,-1.4918 2.3787,1.5639 c 2.0948,1.3503 2.9121,1.7039 3.5868,1.7039 0.7454,0 1.2414,-0.6751 1.2414,-1.7039 0,-0.6045 -0.1413,-2.0963 -0.2827,-2.8435 l -4.2961,-25.5099 c -0.7467,-4.478 -2.1668,-11.2271 -3.6575,-17.9428 l -0.6027,-2.7701 0.532,-0.4283 c 1.5614,0.5337 3.0535,0.8886 5.4322,1.2796 z m 2.0588,12.0811 c 1.6694,9.5204 9.6217,19.2558 15.8006,19.2558 1.9174,0 2.8042,-1.6332 2.8042,-5.0451 0,-6.0393 -2.9828,-14.8859 -6.923,-20.5368 -1.4907,-2.167 -3.8708,-3.2678 -6.8883,-3.2678 -2.3081,0 -4.1895,0.4963 -6.1069,1.7066 l 1.3134,7.8873" /></g></g></g></svg>