<?xml version="1.0" encoding="UTF-8"?>
<svg xmlns="http://www.w3.org/2000/svg" xmlns:xlink="http://www.w3.org/1999/xlink" width="600pt" height="200pt" viewBox="0 0 600 200" version="1.2">
<g id="surface1">
<path style="fill:none;stroke-width:10;stroke-linecap:butt;stroke-linejoin:miter;stroke:rgb(0%,0%,0%);stroke-opacity:1;stroke-dasharray:40,40;stroke-miterlimit:10;" d="M 1000 1500 L 500 1000 " transform="matrix(0.1,0,0,-0.1,0,200)"/>
<path style="fill:none;stroke-width:10;stroke-linecap:butt;stroke-linejoin:miter;stroke:rgb(0%,0%,0%);stroke-opacity:1;stroke-dasharray:40,40;stroke-miterlimit:10;" d="M 1000 500 L 1500 1000 " transform="matrix(0.1,0,0,-0.1,0,200)"/>
<path style="fill:none;stroke-width:10;stroke-linecap:butt;stroke-linejoin:miter;stroke:rgb(0%,0%,0%);stroke-opacity:1;stroke-dasharray:40,40;stroke-miterlimit:10;" d="M 1500 1000 L 1000 1500 " transform="matrix(0.1,0,0,-0.1,0,200)"/>
<path style="fill:none;stroke-width:10;stroke-linecap:butt;stroke-linejoin:miter;stroke:rgb(0%,0%,0%);stroke-opacity:1;stroke-dasharray:40,40;stroke-miterlimit:10;" d="M 1000 500 L 500 1000 " transform="matrix(0.1,0,0,-0.1,0,200)"/>
<path style="fill:none;stroke-width:10;stroke-linecap:butt;stroke-linejoin:miter;stroke:rgb(0%,0%,0%);stroke-opacity:1;stroke-miterlimit:10;" d="M 1500 1000 L 1650 1000 " transform="matrix(0.1,0,0,-0.1,0,200)"/>
<path style="fill:none;stroke-width:10;stroke-linecap:butt;stroke-linejoin:miter;stroke:rgb(0%,0%,0%);stroke-opacity:1;stroke-miterlimit:10;" d="M 1500 1000 L 1606.054688 1106.054688 " transform="matrix(0.1,0,0,-0.1,0,200)"/>
<path style="fill:none;stroke-width:10;stroke-linecap:butt;stroke-linejoin:miter;stroke:rgb(0%,0%,0%);stroke-opacity:1;stroke-miterlimit:10;" d="M 1500 1000 L 1606.054688 893.945312 " transform="matrix(0.1,0,0,-0.1,0,200)"/>
<path style="fill:none;stroke-width:10;stroke-linecap:butt;stroke-linejoin:miter;stroke:rgb(0%,0%,0%);stroke-opacity:1;stroke-miterlimit:10;" d="M 1000 1500 L 1000 1650 " transform="matrix(0.1,0,0,-0.1,0,200)"/>
<path style="fill:none;stroke-width:10;stroke-linecap:butt;stroke-linejoin:miter;stroke:rgb(0%,0%,0%);stroke-opacity:1;stroke-miterlimit:10;" d="M 1000 1500 L 893.945312 1606.054688 " transform="matrix(0.1,0,0,-0.1,0,200)"/>
<path style="fill:none;stroke-width:10;stroke-linecap:butt;stroke-linejoin:miter;stroke:rgb(0%,0%,0%);stroke-opacity:1;stroke-miterlimit:10;" d="M 1000 1500 L 1106.054688 1606.054688 " transform="matrix(0.1,0,0,-0.1,0,200)"/>
<path style="fill:none;stroke-width:10;stroke-linecap:butt;stroke-linejoin:miter;stroke:rgb(0%,0%,0%);stroke-opacity:1;stroke-miterlimit:10;" d="M 500 1000 L 350 1000 " transform="matrix(0.1,0,0,-0.1,0,200)"/>
<path style="fill:none;stroke-width:10;stroke-linecap:butt;stroke-linejoin:miter;stroke:rgb(0%,0%,0%);stroke-opacity:1;stroke-miterlimit:10;" d="M 500 1000 L 393.945312 893.945312 " transform="matrix(0.1,0,0,-0.1,0,200)"/>
<path style="fill:none;stroke-width:10;stroke-linecap:butt;stroke-linejoin:miter;stroke:rgb(0%,0%,0%);stroke-opacity:1;stroke-miterlimit:10;" d="M 500 1000 L 393.945312 1106.054688 " transform="matrix(0.1,0,0,-0.1,0,200)"/>
<path style="fill:none;stroke-width:10;stroke-linecap:butt;stroke-linejoin:miter;stroke:rgb(0%,0%,0%);stroke-opacity:1;stroke-miterlimit:10;" d="M 1000 500 L 1000 350 " transform="matrix(0.1,0,0,-0.1,0,200)"/>
<path style="fill:none;stroke-width:10;stroke-linecap:butt;stroke-linejoin:miter;stroke:rgb(0%,0%,0%);stroke-opacity:1;stroke-miterlimit:10;" d="M 1000 500 L 1106.054688 393.945312 " transform="matrix(0.1,0,0,-0.1,0,200)"/>
<path style="fill:none;stroke-width:10;stroke-linecap:butt;stroke-linejoin:miter;stroke:rgb(0%,0%,0%);stroke-opacity:1;stroke-miterlimit:10;" d="M 1000 500 L 893.945312 393.945312 " transform="matrix(0.1,0,0,-0.1,0,200)"/>
<path style=" stroke:none;fill-rule:nonzero;fill:rgb(100%,0%,0%);fill-opacity:1;" d="M 153.5 100 C 153.5 98.066406 151.933594 96.5 150 96.5 C 148.066406 96.5 146.5 98.066406 146.5 100 C 146.5 101.933594 148.066406 103.5 150 103.5 C 151.933594 103.5 153.5 101.933594 153.5 100 "/>
<path style="fill:none;stroke-width:10;stroke-linecap:butt;stroke-linejoin:miter;stroke:rgb(0%,0%,0%);stroke-opacity:1;stroke-miterlimit:10;" d="M 1535 1000 C 1535 1019.335938 1519.335938 1035 1500 1035 C 1480.664062 1035 1465 1019.335938 1465 1000 C 1465 980.664062 1480.664062 965 1500 965 C 1519.335938 965 1535 980.664062 1535 1000 Z M 1535 1000 " transform="matrix(0.1,0,0,-0.1,0,200)"/>
<path style=" stroke:none;fill-rule:nonzero;fill:rgb(100%,0%,0%);fill-opacity:1;" d="M 103.5 50 C 103.5 48.066406 101.933594 46.5 100 46.5 C 98.066406 46.5 96.5 48.066406 96.5 50 C 96.5 51.933594 98.066406 53.5 100 53.5 C 101.933594 53.5 103.5 51.933594 103.5 50 "/>
<path style="fill:none;stroke-width:10;stroke-linecap:butt;stroke-linejoin:miter;stroke:rgb(0%,0%,0%);stroke-opacity:1;stroke-miterlimit:10;" d="M 1035 1500 C 1035 1519.335938 1019.335938 1535 1000 1535 C 980.664062 1535 965 1519.335938 965 1500 C 965 1480.664062 980.664062 1465 1000 1465 C 1019.335938 1465 1035 1480.664062 1035 1500 Z M 1035 1500 " transform="matrix(0.1,0,0,-0.1,0,200)"/>
<path style=" stroke:none;fill-rule:nonzero;fill:rgb(100%,0%,0%);fill-opacity:1;" d="M 53.5 100 C 53.5 98.066406 51.933594 96.5 50 96.5 C 48.066406 96.5 46.5 98.066406 46.5 100 C 46.5 101.933594 48.066406 103.5 50 103.5 C 51.933594 103.5 53.5 101.933594 53.5 100 "/>
<path style="fill:none;stroke-width:10;stroke-linecap:butt;stroke-linejoin:miter;stroke:rgb(0%,0%,0%);stroke-opacity:1;stroke-miterlimit:10;" d="M 535 1000 C 535 1019.335938 519.335938 1035 500 1035 C 480.664062 1035 465 1019.335938 465 1000 C 465 980.664062 480.664062 965 500 965 C 519.335938 965 535 980.664062 535 1000 Z M 535 1000 " transform="matrix(0.1,0,0,-0.1,0,200)"/>
<path style=" stroke:none;fill-rule:nonzero;fill:rgb(100%,0%,0%);fill-opacity:1;" d="M 103.5 150 C 103.5 148.066406 101.933594 146.5 100 146.5 C 98.066406 146.5 96.5 148.066406 96.5 150 C 96.5 151.933594 98.066406 153.5 100 153.5 C 101.933594 153.5 103.5 151.933594 103.5 150 "/>
<path style="fill:none;stroke-width:10;stroke-linecap:butt;stroke-linejoin:miter;stroke:rgb(0%,0%,0%);stroke-opacity:1;stroke-miterlimit:10;" d="M 1035 500 C 1035 519.335938 1019.335938 535 1000 535 C 980.664062 535 965 519.335938 965 500 C 965 480.664062 980.664062 465 1000 465 C 1019.335938 465 1035 480.664062 1035 500 Z M 1035 500 " transform="matrix(0.1,0,0,-0.1,0,200)"/>
<path style="fill:none;stroke-width:10;stroke-linecap:butt;stroke-linejoin:miter;stroke:rgb(0%,0%,100%);stroke-opacity:1;stroke-miterlimit:10;" d="M 3000 1750 L 2750 1500 " transform="matrix(0.1,0,0,-0.1,0,200)"/>
<path style="fill:none;stroke-width:10;stroke-linecap:butt;stroke-linejoin:miter;stroke:rgb(0%,0%,100%);stroke-opacity:1;stroke-miterlimit:10;" d="M 3000 1250 L 3250 1500 " transform="matrix(0.1,0,0,-0.1,0,200)"/>
<path style="fill:none;stroke-width:10;stroke-linecap:butt;stroke-linejoin:miter;stroke:rgb(0%,0%,0%);stroke-opacity:1;stroke-dasharray:40,40;stroke-miterlimit:10;" d="M 3250 1500 L 3000 1750 " transform="matrix(0.1,0,0,-0.1,0,200)"/>
<path style="fill:none;stroke-width:10;stroke-linecap:butt;stroke-linejoin:miter;stroke:rgb(0%,0%,0%);stroke-opacity:1;stroke-dasharray:40,40;stroke-miterlimit:10;" d="M 2750 1500 L 3000 1250 " transform="matrix(0.1,0,0,-0.1,0,200)"/>
<path style="fill:none;stroke-width:10;stroke-linecap:butt;stroke-linejoin:miter;stroke:rgb(0%,0%,0%);stroke-opacity:1;stroke-miterlimit:10;" d="M 3350 1500 L 3425 1500 " transform="matrix(0.1,0,0,-0.1,0,200)"/>
<path style="fill:none;stroke-width:10;stroke-linecap:butt;stroke-linejoin:miter;stroke:rgb(0%,0%,0%);stroke-opacity:1;stroke-miterlimit:10;" d="M 3350 1500 L 3403.046875 1553.046875 " transform="matrix(0.1,0,0,-0.1,0,200)"/>
<path style="fill:none;stroke-width:10;stroke-linecap:butt;stroke-linejoin:miter;stroke:rgb(0%,0%,0%);stroke-opacity:1;stroke-miterlimit:10;" d="M 3350 1500 L 3403.046875 1446.953125 " transform="matrix(0.1,0,0,-0.1,0,200)"/>
<path style="fill:none;stroke-width:10;stroke-linecap:butt;stroke-linejoin:miter;stroke:rgb(0%,0%,0%);stroke-opacity:1;stroke-miterlimit:10;" d="M 3000 1850 L 3000 1925 " transform="matrix(0.1,0,0,-0.1,0,200)"/>
<path style="fill:none;stroke-width:10;stroke-linecap:butt;stroke-linejoin:miter;stroke:rgb(0%,0%,0%);stroke-opacity:1;stroke-miterlimit:10;" d="M 3000 1850 L 2946.953125 1903.046875 " transform="matrix(0.1,0,0,-0.1,0,200)"/>
<path style="fill:none;stroke-width:10;stroke-linecap:butt;stroke-linejoin:miter;stroke:rgb(0%,0%,0%);stroke-opacity:1;stroke-miterlimit:10;" d="M 3000 1850 L 3053.046875 1903.046875 " transform="matrix(0.1,0,0,-0.1,0,200)"/>
<path style="fill:none;stroke-width:10;stroke-linecap:butt;stroke-linejoin:miter;stroke:rgb(0%,0%,0%);stroke-opacity:1;stroke-miterlimit:10;" d="M 2650 1500 L 2575 1500 " transform="matrix(0.1,0,0,-0.1,0,200)"/>
<path style="fill:none;stroke-width:10;stroke-linecap:butt;stroke-linejoin:miter;stroke:rgb(0%,0%,0%);stroke-opacity:1;stroke-miterlimit:10;" d="M 2650 1500 L 2596.953125 1446.953125 " transform="matrix(0.1,0,0,-0.1,0,200)"/>
<path style="fill:none;stroke-width:10;stroke-linecap:butt;stroke-linejoin:miter;stroke:rgb(0%,0%,0%);stroke-opacity:1;stroke-miterlimit:10;" d="M 2650 1500 L 2596.953125 1553.046875 " transform="matrix(0.1,0,0,-0.1,0,200)"/>
<path style="fill:none;stroke-width:10;stroke-linecap:butt;stroke-linejoin:miter;stroke:rgb(0%,0%,0%);stroke-opacity:1;stroke-miterlimit:10;" d="M 3000 1150 L 3000 1075 " transform="matrix(0.1,0,0,-0.1,0,200)"/>
<path style="fill:none;stroke-width:10;stroke-linecap:butt;stroke-linejoin:miter;stroke:rgb(0%,0%,0%);stroke-opacity:1;stroke-miterlimit:10;" d="M 3000 1150 L 3053.046875 1096.953125 " transform="matrix(0.1,0,0,-0.1,0,200)"/>
<path style="fill:none;stroke-width:10;stroke-linecap:butt;stroke-linejoin:miter;stroke:rgb(0%,0%,0%);stroke-opacity:1;stroke-miterlimit:10;" d="M 3000 1150 L 2946.953125 1096.953125 " transform="matrix(0.1,0,0,-0.1,0,200)"/>
<path style="fill:none;stroke-width:10;stroke-linecap:butt;stroke-linejoin:miter;stroke:rgb(0%,0%,0%);stroke-opacity:1;stroke-dasharray:40,40;stroke-miterlimit:10;" d="M 3350 1500 L 3250 1500 " transform="matrix(0.1,0,0,-0.1,0,200)"/>
<path style="fill:none;stroke-width:10;stroke-linecap:butt;stroke-linejoin:miter;stroke:rgb(0%,0%,0%);stroke-opacity:1;stroke-dasharray:40,40;stroke-miterlimit:10;" d="M 3000 1850 L 3000 1750 " transform="matrix(0.1,0,0,-0.1,0,200)"/>
<path style="fill:none;stroke-width:10;stroke-linecap:butt;stroke-linejoin:miter;stroke:rgb(0%,0%,0%);stroke-opacity:1;stroke-dasharray:40,40;stroke-miterlimit:10;" d="M 2650 1500 L 2750 1500 " transform="matrix(0.1,0,0,-0.1,0,200)"/>
<path style="fill:none;stroke-width:10;stroke-linecap:butt;stroke-linejoin:miter;stroke:rgb(0%,0%,0%);stroke-opacity:1;stroke-dasharray:40,40;stroke-miterlimit:10;" d="M 3000 1150 L 3000 1250 " transform="matrix(0.1,0,0,-0.1,0,200)"/>
<path style=" stroke:none;fill-rule:nonzero;fill:rgb(100%,0%,0%);fill-opacity:1;" d="M 336.75 50 C 336.75 49.035156 335.964844 48.25 335 48.25 C 334.035156 48.25 333.25 49.035156 333.25 50 C 333.25 50.964844 334.035156 51.75 335 51.75 C 335.964844 51.75 336.75 50.964844 336.75 50 "/>
<path style="fill:none;stroke-width:10;stroke-linecap:butt;stroke-linejoin:miter;stroke:rgb(0%,0%,0%);stroke-opacity:1;stroke-miterlimit:10;" d="M 3367.5 1500 C 3367.5 1509.648438 3359.648438 1517.5 3350 1517.5 C 3340.351562 1517.5 3332.5 1509.648438 3332.5 1500 C 3332.5 1490.351562 3340.351562 1482.5 3350 1482.5 C 3359.648438 1482.5 3367.5 1490.351562 3367.5 1500 Z M 3367.5 1500 " transform="matrix(0.1,0,0,-0.1,0,200)"/>
<path style=" stroke:none;fill-rule:nonzero;fill:rgb(100%,0%,0%);fill-opacity:1;" d="M 301.75 15 C 301.75 14.035156 300.964844 13.25 300 13.25 C 299.035156 13.25 298.25 14.035156 298.25 15 C 298.25 15.964844 299.035156 16.75 300 16.75 C 300.964844 16.75 301.75 15.964844 301.75 15 "/>
<path style="fill:none;stroke-width:10;stroke-linecap:butt;stroke-linejoin:miter;stroke:rgb(0%,0%,0%);stroke-opacity:1;stroke-miterlimit:10;" d="M 3017.5 1850 C 3017.5 1859.648438 3009.648438 1867.5 3000 1867.5 C 2990.351562 1867.5 2982.5 1859.648438 2982.5 1850 C 2982.5 1840.351562 2990.351562 1832.5 3000 1832.5 C 3009.648438 1832.5 3017.5 1840.351562 3017.5 1850 Z M 3017.5 1850 " transform="matrix(0.1,0,0,-0.1,0,200)"/>
<path style=" stroke:none;fill-rule:nonzero;fill:rgb(100%,0%,0%);fill-opacity:1;" d="M 266.75 50 C 266.75 49.035156 265.964844 48.25 265 48.25 C 264.035156 48.25 263.25 49.035156 263.25 50 C 263.25 50.964844 264.035156 51.75 265 51.75 C 265.964844 51.75 266.75 50.964844 266.75 50 "/>
<path style="fill:none;stroke-width:10;stroke-linecap:butt;stroke-linejoin:miter;stroke:rgb(0%,0%,0%);stroke-opacity:1;stroke-miterlimit:10;" d="M 2667.5 1500 C 2667.5 1509.648438 2659.648438 1517.5 2650 1517.5 C 2640.351562 1517.5 2632.5 1509.648438 2632.5 1500 C 2632.5 1490.351562 2640.351562 1482.5 2650 1482.5 C 2659.648438 1482.5 2667.5 1490.351562 2667.5 1500 Z M 2667.5 1500 " transform="matrix(0.1,0,0,-0.1,0,200)"/>
<path style=" stroke:none;fill-rule:nonzero;fill:rgb(100%,0%,0%);fill-opacity:1;" d="M 301.75 85 C 301.75 84.035156 300.964844 83.25 300 83.25 C 299.035156 83.25 298.25 84.035156 298.25 85 C 298.25 85.964844 299.035156 86.75 300 86.75 C 300.964844 86.75 301.75 85.964844 301.75 85 "/>
<path style="fill:none;stroke-width:10;stroke-linecap:butt;stroke-linejoin:miter;stroke:rgb(0%,0%,0%);stroke-opacity:1;stroke-miterlimit:10;" d="M 3017.5 1150 C 3017.5 1159.648438 3009.648438 1167.5 3000 1167.5 C 2990.351562 1167.5 2982.5 1159.648438 2982.5 1150 C 2982.5 1140.351562 2990.351562 1132.5 3000 1132.5 C 3009.648438 1132.5 3017.5 1140.351562 3017.5 1150 Z M 3017.5 1150 " transform="matrix(0.1,0,0,-0.1,0,200)"/>
<path style=" stroke:none;fill-rule:nonzero;fill:rgb(100%,0%,0%);fill-opacity:1;" d="M 326.75 50 C 326.75 49.035156 325.964844 48.25 325 48.25 C 324.035156 48.25 323.25 49.035156 323.25 50 C 323.25 50.964844 324.035156 51.75 325 51.75 C 325.964844 51.75 326.75 50.964844 326.75 50 "/>
<path style="fill:none;stroke-width:10;stroke-linecap:butt;stroke-linejoin:miter;stroke:rgb(0%,0%,0%);stroke-opacity:1;stroke-miterlimit:10;" d="M 3267.5 1500 C 3267.5 1509.648438 3259.648438 1517.5 3250 1517.5 C 3240.351562 1517.5 3232.5 1509.648438 3232.5 1500 C 3232.5 1490.351562 3240.351562 1482.5 3250 1482.5 C 3259.648438 1482.5 3267.5 1490.351562 3267.5 1500 Z M 3267.5 1500 " transform="matrix(0.1,0,0,-0.1,0,200)"/>
<path style=" stroke:none;fill-rule:nonzero;fill:rgb(100%,0%,0%);fill-opacity:1;" d="M 301.75 25 C 301.75 24.035156 300.964844 23.25 300 23.25 C 299.035156 23.25 298.25 24.035156 298.25 25 C 298.25 25.964844 299.035156 26.75 300 26.75 C 300.964844 26.75 301.75 25.964844 301.75 25 "/>
<path style="fill:none;stroke-width:10;stroke-linecap:butt;stroke-linejoin:miter;stroke:rgb(0%,0%,0%);stroke-opacity:1;stroke-miterlimit:10;" d="M 3017.5 1750 C 3017.5 1759.648438 3009.648438 1767.5 3000 1767.5 C 2990.351562 1767.5 2982.5 1759.648438 2982.5 1750 C 2982.5 1740.351562 2990.351562 1732.5 3000 1732.5 C 3009.648438 1732.5 3017.5 1740.351562 3017.5 1750 Z M 3017.5 1750 " transform="matrix(0.1,0,0,-0.1,0,200)"/>
<path style=" stroke:none;fill-rule:nonzero;fill:rgb(100%,0%,0%);fill-opacity:1;" d="M 276.75 50 C 276.75 49.035156 275.964844 48.25 275 48.25 C 274.035156 48.25 273.25 49.035156 273.25 50 C 273.25 50.964844 274.035156 51.75 275 51.75 C 275.964844 51.75 276.75 50.964844 276.75 50 "/>
<path style="fill:none;stroke-width:10;stroke-linecap:butt;stroke-linejoin:miter;stroke:rgb(0%,0%,0%);stroke-opacity:1;stroke-miterlimit:10;" d="M 2767.5 1500 C 2767.5 1509.648438 2759.648438 1517.5 2750 1517.5 C 2740.351562 1517.5 2732.5 1509.648438 2732.5 1500 C 2732.5 1490.351562 2740.351562 1482.5 2750 1482.5 C 2759.648438 1482.5 2767.5 1490.351562 2767.5 1500 Z M 2767.5 1500 " transform="matrix(0.1,0,0,-0.1,0,200)"/>
<path style=" stroke:none;fill-rule:nonzero;fill:rgb(100%,0%,0%);fill-opacity:1;" d="M 301.75 75 C 301.75 74.035156 300.964844 73.25 300 73.25 C 299.035156 73.25 298.25 74.035156 298.25 75 C 298.25 75.964844 299.035156 76.75 300 76.75 C 300.964844 76.75 301.75 75.964844 301.75 75 "/>
<path style="fill:none;stroke-width:10;stroke-linecap:butt;stroke-linejoin:miter;stroke:rgb(0%,0%,0%);stroke-opacity:1;stroke-miterlimit:10;" d="M 3017.5 1250 C 3017.5 1259.648438 3009.648438 1267.5 3000 1267.5 C 2990.351562 1267.5 2982.5 1259.648438 2982.5 1250 C 2982.5 1240.351562 2990.351562 1232.5 3000 1232.5 C 3009.648438 1232.5 3017.5 1240.351562 3017.5 1250 Z M 3017.5 1250 " transform="matrix(0.1,0,0,-0.1,0,200)"/>
<path style="fill:none;stroke-width:10;stroke-linecap:butt;stroke-linejoin:miter;stroke:rgb(0%,0%,0%);stroke-opacity:1;stroke-dasharray:40,40;stroke-miterlimit:10;" d="M 3000 750 L 2750 500 " transform="matrix(0.1,0,0,-0.1,0,200)"/>
<path style="fill:none;stroke-width:10;stroke-linecap:butt;stroke-linejoin:miter;stroke:rgb(0%,0%,0%);stroke-opacity:1;stroke-dasharray:40,40;stroke-miterlimit:10;" d="M 3000 250 L 3250 500 " transform="matrix(0.1,0,0,-0.1,0,200)"/>
<path style="fill:none;stroke-width:10;stroke-linecap:butt;stroke-linejoin:miter;stroke:rgb(0%,0%,100%);stroke-opacity:1;stroke-miterlimit:10;" d="M 3250 500 L 3000 750 " transform="matrix(0.1,0,0,-0.1,0,200)"/>
<path style="fill:none;stroke-width:10;stroke-linecap:butt;stroke-linejoin:miter;stroke:rgb(0%,0%,100%);stroke-opacity:1;stroke-miterlimit:10;" d="M 2750 500 L 3000 250 " transform="matrix(0.1,0,0,-0.1,0,200)"/>
<path style="fill:none;stroke-width:10;stroke-linecap:butt;stroke-linejoin:miter;stroke:rgb(0%,0%,0%);stroke-opacity:1;stroke-miterlimit:10;" d="M 3350 500 L 3425 500 " transform="matrix(0.1,0,0,-0.1,0,200)"/>
<path style="fill:none;stroke-width:10;stroke-linecap:butt;stroke-linejoin:miter;stroke:rgb(0%,0%,0%);stroke-opacity:1;stroke-miterlimit:10;" d="M 3350 500 L 3403.046875 553.046875 " transform="matrix(0.1,0,0,-0.1,0,200)"/>
<path style="fill:none;stroke-width:10;stroke-linecap:butt;stroke-linejoin:miter;stroke:rgb(0%,0%,0%);stroke-opacity:1;stroke-miterlimit:10;" d="M 3350 500 L 3403.046875 446.953125 " transform="matrix(0.1,0,0,-0.1,0,200)"/>
<path style="fill:none;stroke-width:10;stroke-linecap:butt;stroke-linejoin:miter;stroke:rgb(0%,0%,0%);stroke-opacity:1;stroke-miterlimit:10;" d="M 3000 850 L 3000 925 " transform="matrix(0.1,0,0,-0.1,0,200)"/>
<path style="fill:none;stroke-width:10;stroke-linecap:butt;stroke-linejoin:miter;stroke:rgb(0%,0%,0%);stroke-opacity:1;stroke-miterlimit:10;" d="M 3000 850 L 2946.953125 903.046875 " transform="matrix(0.1,0,0,-0.1,0,200)"/>
<path style="fill:none;stroke-width:10;stroke-linecap:butt;stroke-linejoin:miter;stroke:rgb(0%,0%,0%);stroke-opacity:1;stroke-miterlimit:10;" d="M 3000 850 L 3053.046875 903.046875 " transform="matrix(0.1,0,0,-0.1,0,200)"/>
<path style="fill:none;stroke-width:10;stroke-linecap:butt;stroke-linejoin:miter;stroke:rgb(0%,0%,0%);stroke-opacity:1;stroke-miterlimit:10;" d="M 2650 500 L 2575 500 " transform="matrix(0.1,0,0,-0.1,0,200)"/>
<path style="fill:none;stroke-width:10;stroke-linecap:butt;stroke-linejoin:miter;stroke:rgb(0%,0%,0%);stroke-opacity:1;stroke-miterlimit:10;" d="M 2650 500 L 2596.953125 446.953125 " transform="matrix(0.1,0,0,-0.1,0,200)"/>
<path style="fill:none;stroke-width:10;stroke-linecap:butt;stroke-linejoin:miter;stroke:rgb(0%,0%,0%);stroke-opacity:1;stroke-miterlimit:10;" d="M 2650 500 L 2596.953125 553.046875 " transform="matrix(0.1,0,0,-0.1,0,200)"/>
<path style="fill:none;stroke-width:10;stroke-linecap:butt;stroke-linejoin:miter;stroke:rgb(0%,0%,0%);stroke-opacity:1;stroke-miterlimit:10;" d="M 3000 150 L 3000 75 " transform="matrix(0.1,0,0,-0.1,0,200)"/>
<path style="fill:none;stroke-width:10;stroke-linecap:butt;stroke-linejoin:miter;stroke:rgb(0%,0%,0%);stroke-opacity:1;stroke-miterlimit:10;" d="M 3000 150 L 3053.046875 96.953125 " transform="matrix(0.1,0,0,-0.1,0,200)"/>
<path style="fill:none;stroke-width:10;stroke-linecap:butt;stroke-linejoin:miter;stroke:rgb(0%,0%,0%);stroke-opacity:1;stroke-miterlimit:10;" d="M 3000 150 L 2946.953125 96.953125 " transform="matrix(0.1,0,0,-0.1,0,200)"/>
<path style="fill:none;stroke-width:10;stroke-linecap:butt;stroke-linejoin:miter;stroke:rgb(0%,0%,0%);stroke-opacity:1;stroke-dasharray:40,40;stroke-miterlimit:10;" d="M 3350 500 L 3250 500 " transform="matrix(0.1,0,0,-0.1,0,200)"/>
<path style="fill:none;stroke-width:10;stroke-linecap:butt;stroke-linejoin:miter;stroke:rgb(0%,0%,0%);stroke-opacity:1;stroke-dasharray:40,40;stroke-miterlimit:10;" d="M 3000 850 L 3000 750 " transform="matrix(0.1,0,0,-0.1,0,200)"/>
<path style="fill:none;stroke-width:10;stroke-linecap:butt;stroke-linejoin:miter;stroke:rgb(0%,0%,0%);stroke-opacity:1;stroke-dasharray:40,40;stroke-miterlimit:10;" d="M 2650 500 L 2750 500 " transform="matrix(0.1,0,0,-0.1,0,200)"/>
<path style="fill:none;stroke-width:10;stroke-linecap:butt;stroke-linejoin:miter;stroke:rgb(0%,0%,0%);stroke-opacity:1;stroke-dasharray:40,40;stroke-miterlimit:10;" d="M 3000 150 L 3000 250 " transform="matrix(0.1,0,0,-0.1,0,200)"/>
<path style=" stroke:none;fill-rule:nonzero;fill:rgb(100%,0%,0%);fill-opacity:1;" d="M 336.75 150 C 336.75 149.035156 335.964844 148.25 335 148.25 C 334.035156 148.25 333.25 149.035156 333.25 150 C 333.25 150.964844 334.035156 151.75 335 151.75 C 335.964844 151.75 336.75 150.964844 336.75 150 "/>
<path style="fill:none;stroke-width:10;stroke-linecap:butt;stroke-linejoin:miter;stroke:rgb(0%,0%,0%);stroke-opacity:1;stroke-miterlimit:10;" d="M 3367.5 500 C 3367.5 509.648438 3359.648438 517.5 3350 517.5 C 3340.351562 517.5 3332.5 509.648438 3332.5 500 C 3332.5 490.351562 3340.351562 482.5 3350 482.5 C 3359.648438 482.5 3367.5 490.351562 3367.5 500 Z M 3367.5 500 " transform="matrix(0.1,0,0,-0.1,0,200)"/>
<path style=" stroke:none;fill-rule:nonzero;fill:rgb(100%,0%,0%);fill-opacity:1;" d="M 301.75 115 C 301.75 114.035156 300.964844 113.25 300 113.25 C 299.035156 113.25 298.25 114.035156 298.25 115 C 298.25 115.964844 299.035156 116.75 300 116.75 C 300.964844 116.75 301.75 115.964844 301.75 115 "/>
<path style="fill:none;stroke-width:10;stroke-linecap:butt;stroke-linejoin:miter;stroke:rgb(0%,0%,0%);stroke-opacity:1;stroke-miterlimit:10;" d="M 3017.5 850 C 3017.5 859.648438 3009.648438 867.5 3000 867.5 C 2990.351562 867.5 2982.5 859.648438 2982.5 850 C 2982.5 840.351562 2990.351562 832.5 3000 832.5 C 3009.648438 832.5 3017.5 840.351562 3017.5 850 Z M 3017.5 850 " transform="matrix(0.1,0,0,-0.1,0,200)"/>
<path style=" stroke:none;fill-rule:nonzero;fill:rgb(100%,0%,0%);fill-opacity:1;" d="M 266.75 150 C 266.75 149.035156 265.964844 148.25 265 148.25 C 264.035156 148.25 263.25 149.035156 263.25 150 C 263.25 150.964844 264.035156 151.75 265 151.75 C 265.964844 151.75 266.75 150.964844 266.75 150 "/>
<path style="fill:none;stroke-width:10;stroke-linecap:butt;stroke-linejoin:miter;stroke:rgb(0%,0%,0%);stroke-opacity:1;stroke-miterlimit:10;" d="M 2667.5 500 C 2667.5 509.648438 2659.648438 517.5 2650 517.5 C 2640.351562 517.5 2632.5 509.648438 2632.5 500 C 2632.5 490.351562 2640.351562 482.5 2650 482.5 C 2659.648438 482.5 2667.5 490.351562 2667.5 500 Z M 2667.5 500 " transform="matrix(0.1,0,0,-0.1,0,200)"/>
<path style=" stroke:none;fill-rule:nonzero;fill:rgb(100%,0%,0%);fill-opacity:1;" d="M 301.75 185 C 301.75 184.035156 300.964844 183.25 300 183.25 C 299.035156 183.25 298.25 184.035156 298.25 185 C 298.25 185.964844 299.035156 186.75 300 186.75 C 300.964844 186.75 301.75 185.964844 301.75 185 "/>
<path style="fill:none;stroke-width:10;stroke-linecap:butt;stroke-linejoin:miter;stroke:rgb(0%,0%,0%);stroke-opacity:1;stroke-miterlimit:10;" d="M 3017.5 150 C 3017.5 159.648438 3009.648438 167.5 3000 167.5 C 2990.351562 167.5 2982.5 159.648438 2982.5 150 C 2982.5 140.351562 2990.351562 132.5 3000 132.5 C 3009.648438 132.5 3017.5 140.351562 3017.5 150 Z M 3017.5 150 " transform="matrix(0.1,0,0,-0.1,0,200)"/>
<path style=" stroke:none;fill-rule:nonzero;fill:rgb(100%,0%,0%);fill-opacity:1;" d="M 326.75 150 C 326.75 149.035156 325.964844 148.25 325 148.25 C 324.035156 148.25 323.25 149.035156 323.25 150 C 323.25 150.964844 324.035156 151.75 325 151.75 C 325.964844 151.75 326.75 150.964844 326.75 150 "/>
<path style="fill:none;stroke-width:10;stroke-linecap:butt;stroke-linejoin:miter;stroke:rgb(0%,0%,0%);stroke-opacity:1;stroke-miterlimit:10;" d="M 3267.5 500 C 3267.5 509.648438 3259.648438 517.5 3250 517.5 C 3240.351562 517.5 3232.5 509.648438 3232.5 500 C 3232.5 490.351562 3240.351562 482.5 3250 482.5 C 3259.648438 482.5 3267.5 490.351562 3267.5 500 Z M 3267.5 500 " transform="matrix(0.1,0,0,-0.1,0,200)"/>
<path style=" stroke:none;fill-rule:nonzero;fill:rgb(100%,0%,0%);fill-opacity:1;" d="M 301.75 125 C 301.75 124.035156 300.964844 123.25 300 123.25 C 299.035156 123.25 298.25 124.035156 298.25 125 C 298.25 125.964844 299.035156 126.75 300 126.75 C 300.964844 126.75 301.75 125.964844 301.75 125 "/>
<path style="fill:none;stroke-width:10;stroke-linecap:butt;stroke-linejoin:miter;stroke:rgb(0%,0%,0%);stroke-opacity:1;stroke-miterlimit:10;" d="M 3017.5 750 C 3017.5 759.648438 3009.648438 767.5 3000 767.5 C 2990.351562 767.5 2982.5 759.648438 2982.5 750 C 2982.5 740.351562 2990.351562 732.5 3000 732.5 C 3009.648438 732.5 3017.5 740.351562 3017.5 750 Z M 3017.5 750 " transform="matrix(0.1,0,0,-0.1,0,200)"/>
<path style=" stroke:none;fill-rule:nonzero;fill:rgb(100%,0%,0%);fill-opacity:1;" d="M 276.75 150 C 276.75 149.035156 275.964844 148.25 275 148.25 C 274.035156 148.25 273.25 149.035156 273.25 150 C 273.25 150.964844 274.035156 151.75 275 151.75 C 275.964844 151.75 276.75 150.964844 276.75 150 "/>
<path style="fill:none;stroke-width:10;stroke-linecap:butt;stroke-linejoin:miter;stroke:rgb(0%,0%,0%);stroke-opacity:1;stroke-miterlimit:10;" d="M 2767.5 500 C 2767.5 509.648438 2759.648438 517.5 2750 517.5 C 2740.351562 517.5 2732.5 509.648438 2732.5 500 C 2732.5 490.351562 2740.351562 482.5 2750 482.5 C 2759.648438 482.5 2767.5 490.351562 2767.5 500 Z M 2767.5 500 " transform="matrix(0.1,0,0,-0.1,0,200)"/>
<path style=" stroke:none;fill-rule:nonzero;fill:rgb(100%,0%,0%);fill-opacity:1;" d="M 301.75 175 C 301.75 174.035156 300.964844 173.25 300 173.25 C 299.035156 173.25 298.25 174.035156 298.25 175 C 298.25 175.964844 299.035156 176.75 300 176.75 C 300.964844 176.75 301.75 175.964844 301.75 175 "/>
<path style="fill:none;stroke-width:10;stroke-linecap:butt;stroke-linejoin:miter;stroke:rgb(0%,0%,0%);stroke-opacity:1;stroke-miterlimit:10;" d="M 3017.5 250 C 3017.5 259.648438 3009.648438 267.5 3000 267.5 C 2990.351562 267.5 2982.5 259.648438 2982.5 250 C 2982.5 240.351562 2990.351562 232.5 3000 232.5 C 3009.648438 232.5 3017.5 240.351562 3017.5 250 Z M 3017.5 250 " transform="matrix(0.1,0,0,-0.1,0,200)"/>
<path style="fill:none;stroke-width:10;stroke-linecap:butt;stroke-linejoin:miter;stroke:rgb(0%,0%,0%);stroke-opacity:1;stroke-miterlimit:10;" d="M 2000 990 L 2410.78125 990 L 2387.695312 950 L 2500 1000 L 2387.695312 1050 L 2410.78125 1010 L 2000 1010 Z M 2000 990 " transform="matrix(0.1,0,0,-0.1,0,200)"/>
<path style="fill:none;stroke-width:10;stroke-linecap:butt;stroke-linejoin:miter;stroke:rgb(0%,0%,0%);stroke-opacity:1;stroke-miterlimit:10;" d="M 3750 990 L 4160.78125 990 L 4137.695312 950 L 4250 1000 L 4137.695312 1050 L 4160.78125 1010 L 3750 1010 Z M 3750 990 " transform="matrix(0.1,0,0,-0.1,0,200)"/>
<path style="fill:none;stroke-width:10;stroke-linecap:butt;stroke-linejoin:miter;stroke:rgb(0%,0%,100%);stroke-opacity:1;stroke-miterlimit:10;" d="M 5100 1780 L 4800 1480 " transform="matrix(0.1,0,0,-0.1,0,200)"/>
<path style="fill:none;stroke-width:10;stroke-linecap:butt;stroke-linejoin:miter;stroke:rgb(0%,0%,100%);stroke-opacity:1;stroke-miterlimit:10;" d="M 5100 1180 L 5400 1480 " transform="matrix(0.1,0,0,-0.1,0,200)"/>
<path style="fill:none;stroke-width:10;stroke-linecap:butt;stroke-linejoin:miter;stroke:rgb(0%,0%,0%);stroke-opacity:1;stroke-dasharray:40,40;stroke-miterlimit:10;" d="M 5400 1480 L 5100 1780 " transform="matrix(0.1,0,0,-0.1,0,200)"/>
<path style="fill:none;stroke-width:10;stroke-linecap:butt;stroke-linejoin:miter;stroke:rgb(0%,0%,0%);stroke-opacity:1;stroke-dasharray:40,40;stroke-miterlimit:10;" d="M 4800 1480 L 5100 1180 " transform="matrix(0.1,0,0,-0.1,0,200)"/>
<path style="fill:none;stroke-width:10;stroke-linecap:butt;stroke-linejoin:miter;stroke:rgb(0%,0%,0%);stroke-opacity:1;stroke-miterlimit:10;" d="M 5400 1480 L 5490 1480 " transform="matrix(0.1,0,0,-0.1,0,200)"/>
<path style="fill:none;stroke-width:10;stroke-linecap:butt;stroke-linejoin:miter;stroke:rgb(0%,0%,0%);stroke-opacity:1;stroke-miterlimit:10;" d="M 5400 1480 L 5463.632812 1543.632812 " transform="matrix(0.1,0,0,-0.1,0,200)"/>
<path style="fill:none;stroke-width:10;stroke-linecap:butt;stroke-linejoin:miter;stroke:rgb(0%,0%,0%);stroke-opacity:1;stroke-miterlimit:10;" d="M 5400 1480 L 5463.632812 1416.367188 " transform="matrix(0.1,0,0,-0.1,0,200)"/>
<path style="fill:none;stroke-width:10;stroke-linecap:butt;stroke-linejoin:miter;stroke:rgb(0%,0%,0%);stroke-opacity:1;stroke-miterlimit:10;" d="M 5100 1780 L 5100 1870 " transform="matrix(0.1,0,0,-0.1,0,200)"/>
<path style="fill:none;stroke-width:10;stroke-linecap:butt;stroke-linejoin:miter;stroke:rgb(0%,0%,0%);stroke-opacity:1;stroke-miterlimit:10;" d="M 5100 1780 L 5036.367188 1843.632812 " transform="matrix(0.1,0,0,-0.1,0,200)"/>
<path style="fill:none;stroke-width:10;stroke-linecap:butt;stroke-linejoin:miter;stroke:rgb(0%,0%,0%);stroke-opacity:1;stroke-miterlimit:10;" d="M 5100 1780 L 5163.632812 1843.632812 " transform="matrix(0.1,0,0,-0.1,0,200)"/>
<path style="fill:none;stroke-width:10;stroke-linecap:butt;stroke-linejoin:miter;stroke:rgb(0%,0%,0%);stroke-opacity:1;stroke-miterlimit:10;" d="M 4800 1480 L 4710 1480 " transform="matrix(0.1,0,0,-0.1,0,200)"/>
<path style="fill:none;stroke-width:10;stroke-linecap:butt;stroke-linejoin:miter;stroke:rgb(0%,0%,0%);stroke-opacity:1;stroke-miterlimit:10;" d="M 4800 1480 L 4736.367188 1416.367188 " transform="matrix(0.1,0,0,-0.1,0,200)"/>
<path style="fill:none;stroke-width:10;stroke-linecap:butt;stroke-linejoin:miter;stroke:rgb(0%,0%,0%);stroke-opacity:1;stroke-miterlimit:10;" d="M 4800 1480 L 4736.367188 1543.632812 " transform="matrix(0.1,0,0,-0.1,0,200)"/>
<path style="fill:none;stroke-width:10;stroke-linecap:butt;stroke-linejoin:miter;stroke:rgb(0%,0%,0%);stroke-opacity:1;stroke-miterlimit:10;" d="M 5100 1180 L 5100 1090 " transform="matrix(0.1,0,0,-0.1,0,200)"/>
<path style="fill:none;stroke-width:10;stroke-linecap:butt;stroke-linejoin:miter;stroke:rgb(0%,0%,0%);stroke-opacity:1;stroke-miterlimit:10;" d="M 5100 1180 L 5163.632812 1116.367188 " transform="matrix(0.1,0,0,-0.1,0,200)"/>
<path style="fill:none;stroke-width:10;stroke-linecap:butt;stroke-linejoin:miter;stroke:rgb(0%,0%,0%);stroke-opacity:1;stroke-miterlimit:10;" d="M 5100 1180 L 5036.367188 1116.367188 " transform="matrix(0.1,0,0,-0.1,0,200)"/>
<path style=" stroke:none;fill-rule:nonzero;fill:rgb(100%,0%,0%);fill-opacity:1;" d="M 542.101562 52 C 542.101562 50.839844 541.160156 49.898438 540 49.898438 C 538.839844 49.898438 537.898438 50.839844 537.898438 52 C 537.898438 53.160156 538.839844 54.101562 540 54.101562 C 541.160156 54.101562 542.101562 53.160156 542.101562 52 "/>
<path style="fill:none;stroke-width:10;stroke-linecap:butt;stroke-linejoin:miter;stroke:rgb(0%,0%,0%);stroke-opacity:1;stroke-miterlimit:10;" d="M 5421.015625 1480 C 5421.015625 1491.601562 5411.601562 1501.015625 5400 1501.015625 C 5388.398438 1501.015625 5378.984375 1491.601562 5378.984375 1480 C 5378.984375 1468.398438 5388.398438 1458.984375 5400 1458.984375 C 5411.601562 1458.984375 5421.015625 1468.398438 5421.015625 1480 Z M 5421.015625 1480 " transform="matrix(0.1,0,0,-0.1,0,200)"/>
<path style=" stroke:none;fill-rule:nonzero;fill:rgb(100%,0%,0%);fill-opacity:1;" d="M 512.101562 22 C 512.101562 20.839844 511.160156 19.898438 510 19.898438 C 508.839844 19.898438 507.898438 20.839844 507.898438 22 C 507.898438 23.160156 508.839844 24.101562 510 24.101562 C 511.160156 24.101562 512.101562 23.160156 512.101562 22 "/>
<path style="fill:none;stroke-width:10;stroke-linecap:butt;stroke-linejoin:miter;stroke:rgb(0%,0%,0%);stroke-opacity:1;stroke-miterlimit:10;" d="M 5121.015625 1780 C 5121.015625 1791.601562 5111.601562 1801.015625 5100 1801.015625 C 5088.398438 1801.015625 5078.984375 1791.601562 5078.984375 1780 C 5078.984375 1768.398438 5088.398438 1758.984375 5100 1758.984375 C 5111.601562 1758.984375 5121.015625 1768.398438 5121.015625 1780 Z M 5121.015625 1780 " transform="matrix(0.1,0,0,-0.1,0,200)"/>
<path style=" stroke:none;fill-rule:nonzero;fill:rgb(100%,0%,0%);fill-opacity:1;" d="M 482.101562 52 C 482.101562 50.839844 481.160156 49.898438 480 49.898438 C 478.839844 49.898438 477.898438 50.839844 477.898438 52 C 477.898438 53.160156 478.839844 54.101562 480 54.101562 C 481.160156 54.101562 482.101562 53.160156 482.101562 52 "/>
<path style="fill:none;stroke-width:10;stroke-linecap:butt;stroke-linejoin:miter;stroke:rgb(0%,0%,0%);stroke-opacity:1;stroke-miterlimit:10;" d="M 4821.015625 1480 C 4821.015625 1491.601562 4811.601562 1501.015625 4800 1501.015625 C 4788.398438 1501.015625 4778.984375 1491.601562 4778.984375 1480 C 4778.984375 1468.398438 4788.398438 1458.984375 4800 1458.984375 C 4811.601562 1458.984375 4821.015625 1468.398438 4821.015625 1480 Z M 4821.015625 1480 " transform="matrix(0.1,0,0,-0.1,0,200)"/>
<path style=" stroke:none;fill-rule:nonzero;fill:rgb(100%,0%,0%);fill-opacity:1;" d="M 512.101562 82 C 512.101562 80.839844 511.160156 79.898438 510 79.898438 C 508.839844 79.898438 507.898438 80.839844 507.898438 82 C 507.898438 83.160156 508.839844 84.101562 510 84.101562 C 511.160156 84.101562 512.101562 83.160156 512.101562 82 "/>
<path style="fill:none;stroke-width:10;stroke-linecap:butt;stroke-linejoin:miter;stroke:rgb(0%,0%,0%);stroke-opacity:1;stroke-miterlimit:10;" d="M 5121.015625 1180 C 5121.015625 1191.601562 5111.601562 1201.015625 5100 1201.015625 C 5088.398438 1201.015625 5078.984375 1191.601562 5078.984375 1180 C 5078.984375 1168.398438 5088.398438 1158.984375 5100 1158.984375 C 5111.601562 1158.984375 5121.015625 1168.398438 5121.015625 1180 Z M 5121.015625 1180 " transform="matrix(0.1,0,0,-0.1,0,200)"/>
<path style="fill:none;stroke-width:10;stroke-linecap:butt;stroke-linejoin:miter;stroke:rgb(0%,0%,0%);stroke-opacity:1;stroke-dasharray:40,40;stroke-miterlimit:10;" d="M 5100 820 L 4800 520 " transform="matrix(0.1,0,0,-0.1,0,200)"/>
<path style="fill:none;stroke-width:10;stroke-linecap:butt;stroke-linejoin:miter;stroke:rgb(0%,0%,0%);stroke-opacity:1;stroke-dasharray:40,40;stroke-miterlimit:10;" d="M 5100 220 L 5400 520 " transform="matrix(0.1,0,0,-0.1,0,200)"/>
<path style="fill:none;stroke-width:10;stroke-linecap:butt;stroke-linejoin:miter;stroke:rgb(0%,0%,100%);stroke-opacity:1;stroke-miterlimit:10;" d="M 5400 520 L 5100 820 " transform="matrix(0.1,0,0,-0.1,0,200)"/>
<path style="fill:none;stroke-width:10;stroke-linecap:butt;stroke-linejoin:miter;stroke:rgb(0%,0%,100%);stroke-opacity:1;stroke-miterlimit:10;" d="M 4800 520 L 5100 220 " transform="matrix(0.1,0,0,-0.1,0,200)"/>
<path style="fill:none;stroke-width:10;stroke-linecap:butt;stroke-linejoin:miter;stroke:rgb(0%,0%,0%);stroke-opacity:1;stroke-miterlimit:10;" d="M 5400 520 L 5490 520 " transform="matrix(0.1,0,0,-0.1,0,200)"/>
<path style="fill:none;stroke-width:10;stroke-linecap:butt;stroke-linejoin:miter;stroke:rgb(0%,0%,0%);stroke-opacity:1;stroke-miterlimit:10;" d="M 5400 520 L 5463.632812 583.632812 " transform="matrix(0.1,0,0,-0.1,0,200)"/>
<path style="fill:none;stroke-width:10;stroke-linecap:butt;stroke-linejoin:miter;stroke:rgb(0%,0%,0%);stroke-opacity:1;stroke-miterlimit:10;" d="M 5400 520 L 5463.632812 456.367188 " transform="matrix(0.1,0,0,-0.1,0,200)"/>
<path style="fill:none;stroke-width:10;stroke-linecap:butt;stroke-linejoin:miter;stroke:rgb(0%,0%,0%);stroke-opacity:1;stroke-miterlimit:10;" d="M 5100 820 L 5100 910 " transform="matrix(0.1,0,0,-0.1,0,200)"/>
<path style="fill:none;stroke-width:10;stroke-linecap:butt;stroke-linejoin:miter;stroke:rgb(0%,0%,0%);stroke-opacity:1;stroke-miterlimit:10;" d="M 5100 820 L 5036.367188 883.632812 " transform="matrix(0.1,0,0,-0.1,0,200)"/>
<path style="fill:none;stroke-width:10;stroke-linecap:butt;stroke-linejoin:miter;stroke:rgb(0%,0%,0%);stroke-opacity:1;stroke-miterlimit:10;" d="M 5100 820 L 5163.632812 883.632812 " transform="matrix(0.1,0,0,-0.1,0,200)"/>
<path style="fill:none;stroke-width:10;stroke-linecap:butt;stroke-linejoin:miter;stroke:rgb(0%,0%,0%);stroke-opacity:1;stroke-miterlimit:10;" d="M 4800 520 L 4710 520 " transform="matrix(0.1,0,0,-0.1,0,200)"/>
<path style="fill:none;stroke-width:10;stroke-linecap:butt;stroke-linejoin:miter;stroke:rgb(0%,0%,0%);stroke-opacity:1;stroke-miterlimit:10;" d="M 4800 520 L 4736.367188 456.367188 " transform="matrix(0.1,0,0,-0.1,0,200)"/>
<path style="fill:none;stroke-width:10;stroke-linecap:butt;stroke-linejoin:miter;stroke:rgb(0%,0%,0%);stroke-opacity:1;stroke-miterlimit:10;" d="M 4800 520 L 4736.367188 583.632812 " transform="matrix(0.1,0,0,-0.1,0,200)"/>
<path style="fill:none;stroke-width:10;stroke-linecap:butt;stroke-linejoin:miter;stroke:rgb(0%,0%,0%);stroke-opacity:1;stroke-miterlimit:10;" d="M 5100 220 L 5100 130 " transform="matrix(0.1,0,0,-0.1,0,200)"/>
<path style="fill:none;stroke-width:10;stroke-linecap:butt;stroke-linejoin:miter;stroke:rgb(0%,0%,0%);stroke-opacity:1;stroke-miterlimit:10;" d="M 5100 220 L 5163.632812 156.367188 " transform="matrix(0.1,0,0,-0.1,0,200)"/>
<path style="fill:none;stroke-width:10;stroke-linecap:butt;stroke-linejoin:miter;stroke:rgb(0%,0%,0%);stroke-opacity:1;stroke-miterlimit:10;" d="M 5100 220 L 5036.367188 156.367188 " transform="matrix(0.1,0,0,-0.1,0,200)"/>
<path style=" stroke:none;fill-rule:nonzero;fill:rgb(100%,0%,0%);fill-opacity:1;" d="M 542.101562 148 C 542.101562 146.839844 541.160156 145.898438 540 145.898438 C 538.839844 145.898438 537.898438 146.839844 537.898438 148 C 537.898438 149.160156 538.839844 150.101562 540 150.101562 C 541.160156 150.101562 542.101562 149.160156 542.101562 148 "/>
<path style="fill:none;stroke-width:10;stroke-linecap:butt;stroke-linejoin:miter;stroke:rgb(0%,0%,0%);stroke-opacity:1;stroke-miterlimit:10;" d="M 5421.015625 520 C 5421.015625 531.601562 5411.601562 541.015625 5400 541.015625 C 5388.398438 541.015625 5378.984375 531.601562 5378.984375 520 C 5378.984375 508.398438 5388.398438 498.984375 5400 498.984375 C 5411.601562 498.984375 5421.015625 508.398438 5421.015625 520 Z M 5421.015625 520 " transform="matrix(0.1,0,0,-0.1,0,200)"/>
<path style=" stroke:none;fill-rule:nonzero;fill:rgb(100%,0%,0%);fill-opacity:1;" d="M 512.101562 118 C 512.101562 116.839844 511.160156 115.898438 510 115.898438 C 508.839844 115.898438 507.898438 116.839844 507.898438 118 C 507.898438 119.160156 508.839844 120.101562 510 120.101562 C 511.160156 120.101562 512.101562 119.160156 512.101562 118 "/>
<path style="fill:none;stroke-width:10;stroke-linecap:butt;stroke-linejoin:miter;stroke:rgb(0%,0%,0%);stroke-opacity:1;stroke-miterlimit:10;" d="M 5121.015625 820 C 5121.015625 831.601562 5111.601562 841.015625 5100 841.015625 C 5088.398438 841.015625 5078.984375 831.601562 5078.984375 820 C 5078.984375 808.398438 5088.398438 798.984375 5100 798.984375 C 5111.601562 798.984375 5121.015625 808.398438 5121.015625 820 Z M 5121.015625 820 " transform="matrix(0.1,0,0,-0.1,0,200)"/>
<path style=" stroke:none;fill-rule:nonzero;fill:rgb(100%,0%,0%);fill-opacity:1;" d="M 482.101562 148 C 482.101562 146.839844 481.160156 145.898438 480 145.898438 C 478.839844 145.898438 477.898438 146.839844 477.898438 148 C 477.898438 149.160156 478.839844 150.101562 480 150.101562 C 481.160156 150.101562 482.101562 149.160156 482.101562 148 "/>
<path style="fill:none;stroke-width:10;stroke-linecap:butt;stroke-linejoin:miter;stroke:rgb(0%,0%,0%);stroke-opacity:1;stroke-miterlimit:10;" d="M 4821.015625 520 C 4821.015625 531.601562 4811.601562 541.015625 4800 541.015625 C 4788.398438 541.015625 4778.984375 531.601562 4778.984375 520 C 4778.984375 508.398438 4788.398438 498.984375 4800 498.984375 C 4811.601562 498.984375 4821.015625 508.398438 4821.015625 520 Z M 4821.015625 520 " transform="matrix(0.1,0,0,-0.1,0,200)"/>
<path style=" stroke:none;fill-rule:nonzero;fill:rgb(100%,0%,0%);fill-opacity:1;" d="M 512.101562 178 C 512.101562 176.839844 511.160156 175.898438 510 175.898438 C 508.839844 175.898438 507.898438 176.839844 507.898438 178 C 507.898438 179.160156 508.839844 180.101562 510 180.101562 C 511.160156 180.101562 512.101562 179.160156 512.101562 178 "/>
<path style="fill:none;stroke-width:10;stroke-linecap:butt;stroke-linejoin:miter;stroke:rgb(0%,0%,0%);stroke-opacity:1;stroke-miterlimit:10;" d="M 5121.015625 220 C 5121.015625 231.601562 5111.601562 241.015625 5100 241.015625 C 5088.398438 241.015625 5078.984375 231.601562 5078.984375 220 C 5078.984375 208.398438 5088.398438 198.984375 5100 198.984375 C 5111.601562 198.984375 5121.015625 208.398438 5121.015625 220 Z M 5121.015625 220 " transform="matrix(0.1,0,0,-0.1,0,200)"/>
</g>
</svg>
