<?xml version="1.0" encoding="UTF-8"?>
<svg xmlns="http://www.w3.org/2000/svg" xmlns:xlink="http://www.w3.org/1999/xlink" width="600pt" height="200pt" viewBox="0 0 600 200" version="1.2">
<g id="surface1">
<path style="fill:none;stroke-width:10;stroke-linecap:butt;stroke-linejoin:miter;stroke:rgb(0%,0%,100%);stroke-opacity:1;stroke-miterlimit:10;" d="M 750 1800 L 450 1500 " transform="matrix(0.1,0,0,-0.1,0,200)"/>
<path style="fill:none;stroke-width:10;stroke-linecap:butt;stroke-linejoin:miter;stroke:rgb(0%,0%,100%);stroke-opacity:1;stroke-miterlimit:10;" d="M 750 1200 L 1050 1500 " transform="matrix(0.1,0,0,-0.1,0,200)"/>
<path style="fill:none;stroke-width:10;stroke-linecap:butt;stroke-linejoin:miter;stroke:rgb(0%,0%,0%);stroke-opacity:1;stroke-dasharray:40,40;stroke-miterlimit:10;" d="M 1050 1500 L 750 1800 " transform="matrix(0.1,0,0,-0.1,0,200)"/>
<path style="fill:none;stroke-width:10;stroke-linecap:butt;stroke-linejoin:miter;stroke:rgb(0%,0%,0%);stroke-opacity:1;stroke-dasharray:40,40;stroke-miterlimit:10;" d="M 750 1200 L 450 1500 " transform="matrix(0.1,0,0,-0.1,0,200)"/>
<path style="fill:none;stroke-width:10;stroke-linecap:butt;stroke-linejoin:miter;stroke:rgb(0%,0%,0%);stroke-opacity:1;stroke-miterlimit:10;" d="M 1050 1500 L 1140 1500 " transform="matrix(0.1,0,0,-0.1,0,200)"/>
<path style="fill:none;stroke-width:10;stroke-linecap:butt;stroke-linejoin:miter;stroke:rgb(0%,0%,0%);stroke-opacity:1;stroke-miterlimit:10;" d="M 1050 1500 L 1113.632812 1563.632812 " transform="matrix(0.1,0,0,-0.1,0,200)"/>
<path style="fill:none;stroke-width:10;stroke-linecap:butt;stroke-linejoin:miter;stroke:rgb(0%,0%,0%);stroke-opacity:1;stroke-miterlimit:10;" d="M 1050 1500 L 1113.632812 1436.367188 " transform="matrix(0.1,0,0,-0.1,0,200)"/>
<path style="fill:none;stroke-width:10;stroke-linecap:butt;stroke-linejoin:miter;stroke:rgb(0%,0%,0%);stroke-opacity:1;stroke-miterlimit:10;" d="M 750 1800 L 750 1890 " transform="matrix(0.1,0,0,-0.1,0,200)"/>
<path style="fill:none;stroke-width:10;stroke-linecap:butt;stroke-linejoin:miter;stroke:rgb(0%,0%,0%);stroke-opacity:1;stroke-miterlimit:10;" d="M 750 1800 L 686.367188 1863.632812 " transform="matrix(0.1,0,0,-0.1,0,200)"/>
<path style="fill:none;stroke-width:10;stroke-linecap:butt;stroke-linejoin:miter;stroke:rgb(0%,0%,0%);stroke-opacity:1;stroke-miterlimit:10;" d="M 750 1800 L 813.632812 1863.632812 " transform="matrix(0.1,0,0,-0.1,0,200)"/>
<path style="fill:none;stroke-width:10;stroke-linecap:butt;stroke-linejoin:miter;stroke:rgb(0%,0%,0%);stroke-opacity:1;stroke-miterlimit:10;" d="M 450 1500 L 360 1500 " transform="matrix(0.1,0,0,-0.1,0,200)"/>
<path style="fill:none;stroke-width:10;stroke-linecap:butt;stroke-linejoin:miter;stroke:rgb(0%,0%,0%);stroke-opacity:1;stroke-miterlimit:10;" d="M 450 1500 L 386.367188 1436.367188 " transform="matrix(0.1,0,0,-0.1,0,200)"/>
<path style="fill:none;stroke-width:10;stroke-linecap:butt;stroke-linejoin:miter;stroke:rgb(0%,0%,0%);stroke-opacity:1;stroke-miterlimit:10;" d="M 450 1500 L 386.367188 1563.632812 " transform="matrix(0.1,0,0,-0.1,0,200)"/>
<path style="fill:none;stroke-width:10;stroke-linecap:butt;stroke-linejoin:miter;stroke:rgb(0%,0%,0%);stroke-opacity:1;stroke-miterlimit:10;" d="M 750 1200 L 750 1110 " transform="matrix(0.1,0,0,-0.1,0,200)"/>
<path style="fill:none;stroke-width:10;stroke-linecap:butt;stroke-linejoin:miter;stroke:rgb(0%,0%,0%);stroke-opacity:1;stroke-miterlimit:10;" d="M 750 1200 L 813.632812 1136.367188 " transform="matrix(0.1,0,0,-0.1,0,200)"/>
<path style="fill:none;stroke-width:10;stroke-linecap:butt;stroke-linejoin:miter;stroke:rgb(0%,0%,0%);stroke-opacity:1;stroke-miterlimit:10;" d="M 750 1200 L 686.367188 1136.367188 " transform="matrix(0.1,0,0,-0.1,0,200)"/>
<path style=" stroke:none;fill-rule:nonzero;fill:rgb(100%,0%,0%);fill-opacity:1;" d="M 77.101562 20 C 77.101562 18.839844 76.160156 17.898438 75 17.898438 C 73.839844 17.898438 72.898438 18.839844 72.898438 20 C 72.898438 21.160156 73.839844 22.101562 75 22.101562 C 76.160156 22.101562 77.101562 21.160156 77.101562 20 "/>
<path style="fill:none;stroke-width:10;stroke-linecap:butt;stroke-linejoin:miter;stroke:rgb(0%,0%,0%);stroke-opacity:1;stroke-miterlimit:10;" d="M 771.015625 1800 C 771.015625 1811.601562 761.601562 1821.015625 750 1821.015625 C 738.398438 1821.015625 728.984375 1811.601562 728.984375 1800 C 728.984375 1788.398438 738.398438 1778.984375 750 1778.984375 C 761.601562 1778.984375 771.015625 1788.398438 771.015625 1800 Z M 771.015625 1800 " transform="matrix(0.1,0,0,-0.1,0,200)"/>
<path style=" stroke:none;fill-rule:nonzero;fill:rgb(100%,0%,0%);fill-opacity:1;" d="M 107.101562 50 C 107.101562 48.839844 106.160156 47.898438 105 47.898438 C 103.839844 47.898438 102.898438 48.839844 102.898438 50 C 102.898438 51.160156 103.839844 52.101562 105 52.101562 C 106.160156 52.101562 107.101562 51.160156 107.101562 50 "/>
<path style="fill:none;stroke-width:10;stroke-linecap:butt;stroke-linejoin:miter;stroke:rgb(0%,0%,0%);stroke-opacity:1;stroke-miterlimit:10;" d="M 1071.015625 1500 C 1071.015625 1511.601562 1061.601562 1521.015625 1050 1521.015625 C 1038.398438 1521.015625 1028.984375 1511.601562 1028.984375 1500 C 1028.984375 1488.398438 1038.398438 1478.984375 1050 1478.984375 C 1061.601562 1478.984375 1071.015625 1488.398438 1071.015625 1500 Z M 1071.015625 1500 " transform="matrix(0.1,0,0,-0.1,0,200)"/>
<path style=" stroke:none;fill-rule:nonzero;fill:rgb(100%,0%,0%);fill-opacity:1;" d="M 77.101562 80 C 77.101562 78.839844 76.160156 77.898438 75 77.898438 C 73.839844 77.898438 72.898438 78.839844 72.898438 80 C 72.898438 81.160156 73.839844 82.101562 75 82.101562 C 76.160156 82.101562 77.101562 81.160156 77.101562 80 "/>
<path style="fill:none;stroke-width:10;stroke-linecap:butt;stroke-linejoin:miter;stroke:rgb(0%,0%,0%);stroke-opacity:1;stroke-miterlimit:10;" d="M 771.015625 1200 C 771.015625 1211.601562 761.601562 1221.015625 750 1221.015625 C 738.398438 1221.015625 728.984375 1211.601562 728.984375 1200 C 728.984375 1188.398438 738.398438 1178.984375 750 1178.984375 C 761.601562 1178.984375 771.015625 1188.398438 771.015625 1200 Z M 771.015625 1200 " transform="matrix(0.1,0,0,-0.1,0,200)"/>
<path style=" stroke:none;fill-rule:nonzero;fill:rgb(100%,0%,0%);fill-opacity:1;" d="M 47.101562 50 C 47.101562 48.839844 46.160156 47.898438 45 47.898438 C 43.839844 47.898438 42.898438 48.839844 42.898438 50 C 42.898438 51.160156 43.839844 52.101562 45 52.101562 C 46.160156 52.101562 47.101562 51.160156 47.101562 50 "/>
<path style="fill:none;stroke-width:10;stroke-linecap:butt;stroke-linejoin:miter;stroke:rgb(0%,0%,0%);stroke-opacity:1;stroke-miterlimit:10;" d="M 471.015625 1500 C 471.015625 1511.601562 461.601562 1521.015625 450 1521.015625 C 438.398438 1521.015625 428.984375 1511.601562 428.984375 1500 C 428.984375 1488.398438 438.398438 1478.984375 450 1478.984375 C 461.601562 1478.984375 471.015625 1488.398438 471.015625 1500 Z M 471.015625 1500 " transform="matrix(0.1,0,0,-0.1,0,200)"/>
<path style="fill:none;stroke-width:10;stroke-linecap:butt;stroke-linejoin:miter;stroke:rgb(0%,0%,0%);stroke-opacity:1;stroke-dasharray:40,40;stroke-miterlimit:10;" d="M 3050 1500 L 2550 1000 " transform="matrix(0.1,0,0,-0.1,0,200)"/>
<path style="fill:none;stroke-width:10;stroke-linecap:butt;stroke-linejoin:miter;stroke:rgb(0%,0%,0%);stroke-opacity:1;stroke-dasharray:40,40;stroke-miterlimit:10;" d="M 3050 500 L 3550 1000 " transform="matrix(0.1,0,0,-0.1,0,200)"/>
<path style="fill:none;stroke-width:10;stroke-linecap:butt;stroke-linejoin:miter;stroke:rgb(0%,0%,0%);stroke-opacity:1;stroke-dasharray:40,40;stroke-miterlimit:10;" d="M 3550 1000 L 3050 1500 " transform="matrix(0.1,0,0,-0.1,0,200)"/>
<path style="fill:none;stroke-width:10;stroke-linecap:butt;stroke-linejoin:miter;stroke:rgb(0%,0%,0%);stroke-opacity:1;stroke-dasharray:40,40;stroke-miterlimit:10;" d="M 2550 1000 L 3050 500 " transform="matrix(0.1,0,0,-0.1,0,200)"/>
<path style="fill:none;stroke-width:10;stroke-linecap:butt;stroke-linejoin:miter;stroke:rgb(0%,0%,0%);stroke-opacity:1;stroke-miterlimit:10;" d="M 3750 1000 L 3900 1000 " transform="matrix(0.1,0,0,-0.1,0,200)"/>
<path style="fill:none;stroke-width:10;stroke-linecap:butt;stroke-linejoin:miter;stroke:rgb(0%,0%,0%);stroke-opacity:1;stroke-miterlimit:10;" d="M 3750 1000 L 3856.054688 1106.054688 " transform="matrix(0.1,0,0,-0.1,0,200)"/>
<path style="fill:none;stroke-width:10;stroke-linecap:butt;stroke-linejoin:miter;stroke:rgb(0%,0%,0%);stroke-opacity:1;stroke-miterlimit:10;" d="M 3750 1000 L 3856.054688 893.945312 " transform="matrix(0.1,0,0,-0.1,0,200)"/>
<path style="fill:none;stroke-width:10;stroke-linecap:butt;stroke-linejoin:miter;stroke:rgb(0%,0%,0%);stroke-opacity:1;stroke-miterlimit:10;" d="M 3050 1700 L 3050 1850 " transform="matrix(0.1,0,0,-0.1,0,200)"/>
<path style="fill:none;stroke-width:10;stroke-linecap:butt;stroke-linejoin:miter;stroke:rgb(0%,0%,0%);stroke-opacity:1;stroke-miterlimit:10;" d="M 3050 1700 L 2943.945312 1806.054688 " transform="matrix(0.1,0,0,-0.1,0,200)"/>
<path style="fill:none;stroke-width:10;stroke-linecap:butt;stroke-linejoin:miter;stroke:rgb(0%,0%,0%);stroke-opacity:1;stroke-miterlimit:10;" d="M 3050 1700 L 3156.054688 1806.054688 " transform="matrix(0.1,0,0,-0.1,0,200)"/>
<path style="fill:none;stroke-width:10;stroke-linecap:butt;stroke-linejoin:miter;stroke:rgb(0%,0%,0%);stroke-opacity:1;stroke-miterlimit:10;" d="M 2350 1000 L 2200 1000 " transform="matrix(0.1,0,0,-0.1,0,200)"/>
<path style="fill:none;stroke-width:10;stroke-linecap:butt;stroke-linejoin:miter;stroke:rgb(0%,0%,0%);stroke-opacity:1;stroke-miterlimit:10;" d="M 2350 1000 L 2243.945312 893.945312 " transform="matrix(0.1,0,0,-0.1,0,200)"/>
<path style="fill:none;stroke-width:10;stroke-linecap:butt;stroke-linejoin:miter;stroke:rgb(0%,0%,0%);stroke-opacity:1;stroke-miterlimit:10;" d="M 2350 1000 L 2243.945312 1106.054688 " transform="matrix(0.1,0,0,-0.1,0,200)"/>
<path style="fill:none;stroke-width:10;stroke-linecap:butt;stroke-linejoin:miter;stroke:rgb(0%,0%,0%);stroke-opacity:1;stroke-miterlimit:10;" d="M 3050 300 L 3050 150 " transform="matrix(0.1,0,0,-0.1,0,200)"/>
<path style="fill:none;stroke-width:10;stroke-linecap:butt;stroke-linejoin:miter;stroke:rgb(0%,0%,0%);stroke-opacity:1;stroke-miterlimit:10;" d="M 3050 300 L 3156.054688 193.945312 " transform="matrix(0.1,0,0,-0.1,0,200)"/>
<path style="fill:none;stroke-width:10;stroke-linecap:butt;stroke-linejoin:miter;stroke:rgb(0%,0%,0%);stroke-opacity:1;stroke-miterlimit:10;" d="M 3050 300 L 2943.945312 193.945312 " transform="matrix(0.1,0,0,-0.1,0,200)"/>
<path style="fill:none;stroke-width:10;stroke-linecap:butt;stroke-linejoin:miter;stroke:rgb(0%,0%,100%);stroke-opacity:1;stroke-miterlimit:10;" d="M 3750 1000 L 3550 1000 " transform="matrix(0.1,0,0,-0.1,0,200)"/>
<path style="fill:none;stroke-width:10;stroke-linecap:butt;stroke-linejoin:miter;stroke:rgb(0%,0%,100%);stroke-opacity:1;stroke-miterlimit:10;" d="M 3050 1700 L 3050 1500 " transform="matrix(0.1,0,0,-0.1,0,200)"/>
<path style="fill:none;stroke-width:10;stroke-linecap:butt;stroke-linejoin:miter;stroke:rgb(0%,0%,100%);stroke-opacity:1;stroke-miterlimit:10;" d="M 2350 1000 L 2550 1000 " transform="matrix(0.1,0,0,-0.1,0,200)"/>
<path style="fill:none;stroke-width:10;stroke-linecap:butt;stroke-linejoin:miter;stroke:rgb(0%,0%,100%);stroke-opacity:1;stroke-miterlimit:10;" d="M 3050 300 L 3050 500 " transform="matrix(0.1,0,0,-0.1,0,200)"/>
<path style=" stroke:none;fill-rule:nonzero;fill:rgb(100%,0%,0%);fill-opacity:1;" d="M 378.5 100 C 378.5 98.066406 376.933594 96.5 375 96.5 C 373.066406 96.5 371.5 98.066406 371.5 100 C 371.5 101.933594 373.066406 103.5 375 103.5 C 376.933594 103.5 378.5 101.933594 378.5 100 "/>
<path style="fill:none;stroke-width:10;stroke-linecap:butt;stroke-linejoin:miter;stroke:rgb(0%,0%,0%);stroke-opacity:1;stroke-miterlimit:10;" d="M 3785 1000 C 3785 1019.335938 3769.335938 1035 3750 1035 C 3730.664062 1035 3715 1019.335938 3715 1000 C 3715 980.664062 3730.664062 965 3750 965 C 3769.335938 965 3785 980.664062 3785 1000 Z M 3785 1000 " transform="matrix(0.1,0,0,-0.1,0,200)"/>
<path style=" stroke:none;fill-rule:nonzero;fill:rgb(100%,0%,0%);fill-opacity:1;" d="M 308.5 30 C 308.5 28.066406 306.933594 26.5 305 26.5 C 303.066406 26.5 301.5 28.066406 301.5 30 C 301.5 31.933594 303.066406 33.5 305 33.5 C 306.933594 33.5 308.5 31.933594 308.5 30 "/>
<path style="fill:none;stroke-width:10;stroke-linecap:butt;stroke-linejoin:miter;stroke:rgb(0%,0%,0%);stroke-opacity:1;stroke-miterlimit:10;" d="M 3085 1700 C 3085 1719.335938 3069.335938 1735 3050 1735 C 3030.664062 1735 3015 1719.335938 3015 1700 C 3015 1680.664062 3030.664062 1665 3050 1665 C 3069.335938 1665 3085 1680.664062 3085 1700 Z M 3085 1700 " transform="matrix(0.1,0,0,-0.1,0,200)"/>
<path style=" stroke:none;fill-rule:nonzero;fill:rgb(100%,0%,0%);fill-opacity:1;" d="M 238.5 100 C 238.5 98.066406 236.933594 96.5 235 96.5 C 233.066406 96.5 231.5 98.066406 231.5 100 C 231.5 101.933594 233.066406 103.5 235 103.5 C 236.933594 103.5 238.5 101.933594 238.5 100 "/>
<path style="fill:none;stroke-width:10;stroke-linecap:butt;stroke-linejoin:miter;stroke:rgb(0%,0%,0%);stroke-opacity:1;stroke-miterlimit:10;" d="M 2385 1000 C 2385 1019.335938 2369.335938 1035 2350 1035 C 2330.664062 1035 2315 1019.335938 2315 1000 C 2315 980.664062 2330.664062 965 2350 965 C 2369.335938 965 2385 980.664062 2385 1000 Z M 2385 1000 " transform="matrix(0.1,0,0,-0.1,0,200)"/>
<path style=" stroke:none;fill-rule:nonzero;fill:rgb(100%,0%,0%);fill-opacity:1;" d="M 308.5 170 C 308.5 168.066406 306.933594 166.5 305 166.5 C 303.066406 166.5 301.5 168.066406 301.5 170 C 301.5 171.933594 303.066406 173.5 305 173.5 C 306.933594 173.5 308.5 171.933594 308.5 170 "/>
<path style="fill:none;stroke-width:10;stroke-linecap:butt;stroke-linejoin:miter;stroke:rgb(0%,0%,0%);stroke-opacity:1;stroke-miterlimit:10;" d="M 3085 300 C 3085 319.335938 3069.335938 335 3050 335 C 3030.664062 335 3015 319.335938 3015 300 C 3015 280.664062 3030.664062 265 3050 265 C 3069.335938 265 3085 280.664062 3085 300 Z M 3085 300 " transform="matrix(0.1,0,0,-0.1,0,200)"/>
<path style=" stroke:none;fill-rule:nonzero;fill:rgb(100%,0%,0%);fill-opacity:1;" d="M 358.5 100 C 358.5 98.066406 356.933594 96.5 355 96.5 C 353.066406 96.5 351.5 98.066406 351.5 100 C 351.5 101.933594 353.066406 103.5 355 103.5 C 356.933594 103.5 358.5 101.933594 358.5 100 "/>
<path style="fill:none;stroke-width:10;stroke-linecap:butt;stroke-linejoin:miter;stroke:rgb(0%,0%,0%);stroke-opacity:1;stroke-miterlimit:10;" d="M 3585 1000 C 3585 1019.335938 3569.335938 1035 3550 1035 C 3530.664062 1035 3515 1019.335938 3515 1000 C 3515 980.664062 3530.664062 965 3550 965 C 3569.335938 965 3585 980.664062 3585 1000 Z M 3585 1000 " transform="matrix(0.1,0,0,-0.1,0,200)"/>
<path style=" stroke:none;fill-rule:nonzero;fill:rgb(100%,0%,0%);fill-opacity:1;" d="M 308.5 50 C 308.5 48.066406 306.933594 46.5 305 46.5 C 303.066406 46.5 301.5 48.066406 301.5 50 C 301.5 51.933594 303.066406 53.5 305 53.5 C 306.933594 53.5 308.5 51.933594 308.5 50 "/>
<path style="fill:none;stroke-width:10;stroke-linecap:butt;stroke-linejoin:miter;stroke:rgb(0%,0%,0%);stroke-opacity:1;stroke-miterlimit:10;" d="M 3085 1500 C 3085 1519.335938 3069.335938 1535 3050 1535 C 3030.664062 1535 3015 1519.335938 3015 1500 C 3015 1480.664062 3030.664062 1465 3050 1465 C 3069.335938 1465 3085 1480.664062 3085 1500 Z M 3085 1500 " transform="matrix(0.1,0,0,-0.1,0,200)"/>
<path style=" stroke:none;fill-rule:nonzero;fill:rgb(100%,0%,0%);fill-opacity:1;" d="M 258.5 100 C 258.5 98.066406 256.933594 96.5 255 96.5 C 253.066406 96.5 251.5 98.066406 251.5 100 C 251.5 101.933594 253.066406 103.5 255 103.5 C 256.933594 103.5 258.5 101.933594 258.5 100 "/>
<path style="fill:none;stroke-width:10;stroke-linecap:butt;stroke-linejoin:miter;stroke:rgb(0%,0%,0%);stroke-opacity:1;stroke-miterlimit:10;" d="M 2585 1000 C 2585 1019.335938 2569.335938 1035 2550 1035 C 2530.664062 1035 2515 1019.335938 2515 1000 C 2515 980.664062 2530.664062 965 2550 965 C 2569.335938 965 2585 980.664062 2585 1000 Z M 2585 1000 " transform="matrix(0.1,0,0,-0.1,0,200)"/>
<path style=" stroke:none;fill-rule:nonzero;fill:rgb(100%,0%,0%);fill-opacity:1;" d="M 308.5 150 C 308.5 148.066406 306.933594 146.5 305 146.5 C 303.066406 146.5 301.5 148.066406 301.5 150 C 301.5 151.933594 303.066406 153.5 305 153.5 C 306.933594 153.5 308.5 151.933594 308.5 150 "/>
<path style="fill:none;stroke-width:10;stroke-linecap:butt;stroke-linejoin:miter;stroke:rgb(0%,0%,0%);stroke-opacity:1;stroke-miterlimit:10;" d="M 3085 500 C 3085 519.335938 3069.335938 535 3050 535 C 3030.664062 535 3015 519.335938 3015 500 C 3015 480.664062 3030.664062 465 3050 465 C 3069.335938 465 3085 480.664062 3085 500 Z M 3085 500 " transform="matrix(0.1,0,0,-0.1,0,200)"/>
<path style="fill:none;stroke-width:10;stroke-linecap:butt;stroke-linejoin:miter;stroke:rgb(0%,0%,100%);stroke-opacity:1;stroke-miterlimit:10;" d="M 1050 500 L 750 800 " transform="matrix(0.1,0,0,-0.1,0,200)"/>
<path style="fill:none;stroke-width:10;stroke-linecap:butt;stroke-linejoin:miter;stroke:rgb(0%,0%,100%);stroke-opacity:1;stroke-miterlimit:10;" d="M 750 200 L 450 500 " transform="matrix(0.1,0,0,-0.1,0,200)"/>
<path style="fill:none;stroke-width:10;stroke-linecap:butt;stroke-linejoin:miter;stroke:rgb(0%,0%,0%);stroke-opacity:1;stroke-dasharray:40,40;stroke-miterlimit:10;" d="M 450 500 L 750 800 " transform="matrix(0.1,0,0,-0.1,0,200)"/>
<path style="fill:none;stroke-width:10;stroke-linecap:butt;stroke-linejoin:miter;stroke:rgb(0%,0%,0%);stroke-opacity:1;stroke-dasharray:40,40;stroke-miterlimit:10;" d="M 750 200 L 1050 500 " transform="matrix(0.1,0,0,-0.1,0,200)"/>
<path style="fill:none;stroke-width:10;stroke-linecap:butt;stroke-linejoin:miter;stroke:rgb(0%,0%,0%);stroke-opacity:1;stroke-miterlimit:10;" d="M 1050 500 L 1140 500 " transform="matrix(0.1,0,0,-0.1,0,200)"/>
<path style="fill:none;stroke-width:10;stroke-linecap:butt;stroke-linejoin:miter;stroke:rgb(0%,0%,0%);stroke-opacity:1;stroke-miterlimit:10;" d="M 1050 500 L 1113.632812 563.632812 " transform="matrix(0.1,0,0,-0.1,0,200)"/>
<path style="fill:none;stroke-width:10;stroke-linecap:butt;stroke-linejoin:miter;stroke:rgb(0%,0%,0%);stroke-opacity:1;stroke-miterlimit:10;" d="M 1050 500 L 1113.632812 436.367188 " transform="matrix(0.1,0,0,-0.1,0,200)"/>
<path style="fill:none;stroke-width:10;stroke-linecap:butt;stroke-linejoin:miter;stroke:rgb(0%,0%,0%);stroke-opacity:1;stroke-miterlimit:10;" d="M 750 800 L 750 890 " transform="matrix(0.1,0,0,-0.1,0,200)"/>
<path style="fill:none;stroke-width:10;stroke-linecap:butt;stroke-linejoin:miter;stroke:rgb(0%,0%,0%);stroke-opacity:1;stroke-miterlimit:10;" d="M 750 800 L 686.367188 863.632812 " transform="matrix(0.1,0,0,-0.1,0,200)"/>
<path style="fill:none;stroke-width:10;stroke-linecap:butt;stroke-linejoin:miter;stroke:rgb(0%,0%,0%);stroke-opacity:1;stroke-miterlimit:10;" d="M 750 800 L 813.632812 863.632812 " transform="matrix(0.1,0,0,-0.1,0,200)"/>
<path style="fill:none;stroke-width:10;stroke-linecap:butt;stroke-linejoin:miter;stroke:rgb(0%,0%,0%);stroke-opacity:1;stroke-miterlimit:10;" d="M 450 500 L 360 500 " transform="matrix(0.1,0,0,-0.1,0,200)"/>
<path style="fill:none;stroke-width:10;stroke-linecap:butt;stroke-linejoin:miter;stroke:rgb(0%,0%,0%);stroke-opacity:1;stroke-miterlimit:10;" d="M 450 500 L 386.367188 436.367188 " transform="matrix(0.1,0,0,-0.1,0,200)"/>
<path style="fill:none;stroke-width:10;stroke-linecap:butt;stroke-linejoin:miter;stroke:rgb(0%,0%,0%);stroke-opacity:1;stroke-miterlimit:10;" d="M 450 500 L 386.367188 563.632812 " transform="matrix(0.1,0,0,-0.1,0,200)"/>
<path style="fill:none;stroke-width:10;stroke-linecap:butt;stroke-linejoin:miter;stroke:rgb(0%,0%,0%);stroke-opacity:1;stroke-miterlimit:10;" d="M 750 200 L 750 110 " transform="matrix(0.1,0,0,-0.1,0,200)"/>
<path style="fill:none;stroke-width:10;stroke-linecap:butt;stroke-linejoin:miter;stroke:rgb(0%,0%,0%);stroke-opacity:1;stroke-miterlimit:10;" d="M 750 200 L 813.632812 136.367188 " transform="matrix(0.1,0,0,-0.1,0,200)"/>
<path style="fill:none;stroke-width:10;stroke-linecap:butt;stroke-linejoin:miter;stroke:rgb(0%,0%,0%);stroke-opacity:1;stroke-miterlimit:10;" d="M 750 200 L 686.367188 136.367188 " transform="matrix(0.1,0,0,-0.1,0,200)"/>
<path style=" stroke:none;fill-rule:nonzero;fill:rgb(100%,0%,0%);fill-opacity:1;" d="M 77.101562 120 C 77.101562 118.839844 76.160156 117.898438 75 117.898438 C 73.839844 117.898438 72.898438 118.839844 72.898438 120 C 72.898438 121.160156 73.839844 122.101562 75 122.101562 C 76.160156 122.101562 77.101562 121.160156 77.101562 120 "/>
<path style="fill:none;stroke-width:10;stroke-linecap:butt;stroke-linejoin:miter;stroke:rgb(0%,0%,0%);stroke-opacity:1;stroke-miterlimit:10;" d="M 771.015625 800 C 771.015625 811.601562 761.601562 821.015625 750 821.015625 C 738.398438 821.015625 728.984375 811.601562 728.984375 800 C 728.984375 788.398438 738.398438 778.984375 750 778.984375 C 761.601562 778.984375 771.015625 788.398438 771.015625 800 Z M 771.015625 800 " transform="matrix(0.1,0,0,-0.1,0,200)"/>
<path style=" stroke:none;fill-rule:nonzero;fill:rgb(100%,0%,0%);fill-opacity:1;" d="M 107.101562 150 C 107.101562 148.839844 106.160156 147.898438 105 147.898438 C 103.839844 147.898438 102.898438 148.839844 102.898438 150 C 102.898438 151.160156 103.839844 152.101562 105 152.101562 C 106.160156 152.101562 107.101562 151.160156 107.101562 150 "/>
<path style="fill:none;stroke-width:10;stroke-linecap:butt;stroke-linejoin:miter;stroke:rgb(0%,0%,0%);stroke-opacity:1;stroke-miterlimit:10;" d="M 1071.015625 500 C 1071.015625 511.601562 1061.601562 521.015625 1050 521.015625 C 1038.398438 521.015625 1028.984375 511.601562 1028.984375 500 C 1028.984375 488.398438 1038.398438 478.984375 1050 478.984375 C 1061.601562 478.984375 1071.015625 488.398438 1071.015625 500 Z M 1071.015625 500 " transform="matrix(0.1,0,0,-0.1,0,200)"/>
<path style=" stroke:none;fill-rule:nonzero;fill:rgb(100%,0%,0%);fill-opacity:1;" d="M 77.101562 180 C 77.101562 178.839844 76.160156 177.898438 75 177.898438 C 73.839844 177.898438 72.898438 178.839844 72.898438 180 C 72.898438 181.160156 73.839844 182.101562 75 182.101562 C 76.160156 182.101562 77.101562 181.160156 77.101562 180 "/>
<path style="fill:none;stroke-width:10;stroke-linecap:butt;stroke-linejoin:miter;stroke:rgb(0%,0%,0%);stroke-opacity:1;stroke-miterlimit:10;" d="M 771.015625 200 C 771.015625 211.601562 761.601562 221.015625 750 221.015625 C 738.398438 221.015625 728.984375 211.601562 728.984375 200 C 728.984375 188.398438 738.398438 178.984375 750 178.984375 C 761.601562 178.984375 771.015625 188.398438 771.015625 200 Z M 771.015625 200 " transform="matrix(0.1,0,0,-0.1,0,200)"/>
<path style=" stroke:none;fill-rule:nonzero;fill:rgb(100%,0%,0%);fill-opacity:1;" d="M 47.101562 150 C 47.101562 148.839844 46.160156 147.898438 45 147.898438 C 43.839844 147.898438 42.898438 148.839844 42.898438 150 C 42.898438 151.160156 43.839844 152.101562 45 152.101562 C 46.160156 152.101562 47.101562 151.160156 47.101562 150 "/>
<path style="fill:none;stroke-width:10;stroke-linecap:butt;stroke-linejoin:miter;stroke:rgb(0%,0%,0%);stroke-opacity:1;stroke-miterlimit:10;" d="M 471.015625 500 C 471.015625 511.601562 461.601562 521.015625 450 521.015625 C 438.398438 521.015625 428.984375 511.601562 428.984375 500 C 428.984375 488.398438 438.398438 478.984375 450 478.984375 C 461.601562 478.984375 471.015625 488.398438 471.015625 500 Z M 471.015625 500 " transform="matrix(0.1,0,0,-0.1,0,200)"/>
<path style="fill:none;stroke-width:10;stroke-linecap:butt;stroke-linejoin:miter;stroke:rgb(0%,0%,0%);stroke-opacity:1;stroke-dasharray:40,40;stroke-miterlimit:10;" d="M 3050 1500 L 2550 1000 " transform="matrix(0.1,0,0,-0.1,0,200)"/>
<path style="fill:none;stroke-width:10;stroke-linecap:butt;stroke-linejoin:miter;stroke:rgb(0%,0%,0%);stroke-opacity:1;stroke-dasharray:40,40;stroke-miterlimit:10;" d="M 3050 500 L 3550 1000 " transform="matrix(0.1,0,0,-0.1,0,200)"/>
<path style="fill:none;stroke-width:10;stroke-linecap:butt;stroke-linejoin:miter;stroke:rgb(0%,0%,0%);stroke-opacity:1;stroke-dasharray:40,40;stroke-miterlimit:10;" d="M 3550 1000 L 3050 1500 " transform="matrix(0.1,0,0,-0.1,0,200)"/>
<path style="fill:none;stroke-width:10;stroke-linecap:butt;stroke-linejoin:miter;stroke:rgb(0%,0%,0%);stroke-opacity:1;stroke-dasharray:40,40;stroke-miterlimit:10;" d="M 2550 1000 L 3050 500 " transform="matrix(0.1,0,0,-0.1,0,200)"/>
<path style="fill:none;stroke-width:10;stroke-linecap:butt;stroke-linejoin:miter;stroke:rgb(0%,0%,0%);stroke-opacity:1;stroke-miterlimit:10;" d="M 3750 1000 L 3900 1000 " transform="matrix(0.1,0,0,-0.1,0,200)"/>
<path style="fill:none;stroke-width:10;stroke-linecap:butt;stroke-linejoin:miter;stroke:rgb(0%,0%,0%);stroke-opacity:1;stroke-miterlimit:10;" d="M 3750 1000 L 3856.054688 1106.054688 " transform="matrix(0.1,0,0,-0.1,0,200)"/>
<path style="fill:none;stroke-width:10;stroke-linecap:butt;stroke-linejoin:miter;stroke:rgb(0%,0%,0%);stroke-opacity:1;stroke-miterlimit:10;" d="M 3750 1000 L 3856.054688 893.945312 " transform="matrix(0.1,0,0,-0.1,0,200)"/>
<path style="fill:none;stroke-width:10;stroke-linecap:butt;stroke-linejoin:miter;stroke:rgb(0%,0%,0%);stroke-opacity:1;stroke-miterlimit:10;" d="M 3050 1700 L 3050 1850 " transform="matrix(0.1,0,0,-0.1,0,200)"/>
<path style="fill:none;stroke-width:10;stroke-linecap:butt;stroke-linejoin:miter;stroke:rgb(0%,0%,0%);stroke-opacity:1;stroke-miterlimit:10;" d="M 3050 1700 L 2943.945312 1806.054688 " transform="matrix(0.1,0,0,-0.1,0,200)"/>
<path style="fill:none;stroke-width:10;stroke-linecap:butt;stroke-linejoin:miter;stroke:rgb(0%,0%,0%);stroke-opacity:1;stroke-miterlimit:10;" d="M 3050 1700 L 3156.054688 1806.054688 " transform="matrix(0.1,0,0,-0.1,0,200)"/>
<path style="fill:none;stroke-width:10;stroke-linecap:butt;stroke-linejoin:miter;stroke:rgb(0%,0%,0%);stroke-opacity:1;stroke-miterlimit:10;" d="M 2350 1000 L 2200 1000 " transform="matrix(0.1,0,0,-0.1,0,200)"/>
<path style="fill:none;stroke-width:10;stroke-linecap:butt;stroke-linejoin:miter;stroke:rgb(0%,0%,0%);stroke-opacity:1;stroke-miterlimit:10;" d="M 2350 1000 L 2243.945312 893.945312 " transform="matrix(0.1,0,0,-0.1,0,200)"/>
<path style="fill:none;stroke-width:10;stroke-linecap:butt;stroke-linejoin:miter;stroke:rgb(0%,0%,0%);stroke-opacity:1;stroke-miterlimit:10;" d="M 2350 1000 L 2243.945312 1106.054688 " transform="matrix(0.1,0,0,-0.1,0,200)"/>
<path style="fill:none;stroke-width:10;stroke-linecap:butt;stroke-linejoin:miter;stroke:rgb(0%,0%,0%);stroke-opacity:1;stroke-miterlimit:10;" d="M 3050 300 L 3050 150 " transform="matrix(0.1,0,0,-0.1,0,200)"/>
<path style="fill:none;stroke-width:10;stroke-linecap:butt;stroke-linejoin:miter;stroke:rgb(0%,0%,0%);stroke-opacity:1;stroke-miterlimit:10;" d="M 3050 300 L 3156.054688 193.945312 " transform="matrix(0.1,0,0,-0.1,0,200)"/>
<path style="fill:none;stroke-width:10;stroke-linecap:butt;stroke-linejoin:miter;stroke:rgb(0%,0%,0%);stroke-opacity:1;stroke-miterlimit:10;" d="M 3050 300 L 2943.945312 193.945312 " transform="matrix(0.1,0,0,-0.1,0,200)"/>
<path style="fill:none;stroke-width:10;stroke-linecap:butt;stroke-linejoin:miter;stroke:rgb(0%,0%,100%);stroke-opacity:1;stroke-miterlimit:10;" d="M 3750 1000 L 3550 1000 " transform="matrix(0.1,0,0,-0.1,0,200)"/>
<path style="fill:none;stroke-width:10;stroke-linecap:butt;stroke-linejoin:miter;stroke:rgb(0%,0%,100%);stroke-opacity:1;stroke-miterlimit:10;" d="M 3050 1700 L 3050 1500 " transform="matrix(0.1,0,0,-0.1,0,200)"/>
<path style="fill:none;stroke-width:10;stroke-linecap:butt;stroke-linejoin:miter;stroke:rgb(0%,0%,100%);stroke-opacity:1;stroke-miterlimit:10;" d="M 2350 1000 L 2550 1000 " transform="matrix(0.1,0,0,-0.1,0,200)"/>
<path style="fill:none;stroke-width:10;stroke-linecap:butt;stroke-linejoin:miter;stroke:rgb(0%,0%,100%);stroke-opacity:1;stroke-miterlimit:10;" d="M 3050 300 L 3050 500 " transform="matrix(0.1,0,0,-0.1,0,200)"/>
<path style=" stroke:none;fill-rule:nonzero;fill:rgb(100%,0%,0%);fill-opacity:1;" d="M 378.5 100 C 378.5 98.066406 376.933594 96.5 375 96.5 C 373.066406 96.5 371.5 98.066406 371.5 100 C 371.5 101.933594 373.066406 103.5 375 103.5 C 376.933594 103.5 378.5 101.933594 378.5 100 "/>
<path style="fill:none;stroke-width:10;stroke-linecap:butt;stroke-linejoin:miter;stroke:rgb(0%,0%,0%);stroke-opacity:1;stroke-miterlimit:10;" d="M 3785 1000 C 3785 1019.335938 3769.335938 1035 3750 1035 C 3730.664062 1035 3715 1019.335938 3715 1000 C 3715 980.664062 3730.664062 965 3750 965 C 3769.335938 965 3785 980.664062 3785 1000 Z M 3785 1000 " transform="matrix(0.1,0,0,-0.1,0,200)"/>
<path style=" stroke:none;fill-rule:nonzero;fill:rgb(100%,0%,0%);fill-opacity:1;" d="M 308.5 30 C 308.5 28.066406 306.933594 26.5 305 26.5 C 303.066406 26.5 301.5 28.066406 301.5 30 C 301.5 31.933594 303.066406 33.5 305 33.5 C 306.933594 33.5 308.5 31.933594 308.5 30 "/>
<path style="fill:none;stroke-width:10;stroke-linecap:butt;stroke-linejoin:miter;stroke:rgb(0%,0%,0%);stroke-opacity:1;stroke-miterlimit:10;" d="M 3085 1700 C 3085 1719.335938 3069.335938 1735 3050 1735 C 3030.664062 1735 3015 1719.335938 3015 1700 C 3015 1680.664062 3030.664062 1665 3050 1665 C 3069.335938 1665 3085 1680.664062 3085 1700 Z M 3085 1700 " transform="matrix(0.1,0,0,-0.1,0,200)"/>
<path style=" stroke:none;fill-rule:nonzero;fill:rgb(100%,0%,0%);fill-opacity:1;" d="M 238.5 100 C 238.5 98.066406 236.933594 96.5 235 96.5 C 233.066406 96.5 231.5 98.066406 231.5 100 C 231.5 101.933594 233.066406 103.5 235 103.5 C 236.933594 103.5 238.5 101.933594 238.5 100 "/>
<path style="fill:none;stroke-width:10;stroke-linecap:butt;stroke-linejoin:miter;stroke:rgb(0%,0%,0%);stroke-opacity:1;stroke-miterlimit:10;" d="M 2385 1000 C 2385 1019.335938 2369.335938 1035 2350 1035 C 2330.664062 1035 2315 1019.335938 2315 1000 C 2315 980.664062 2330.664062 965 2350 965 C 2369.335938 965 2385 980.664062 2385 1000 Z M 2385 1000 " transform="matrix(0.1,0,0,-0.1,0,200)"/>
<path style=" stroke:none;fill-rule:nonzero;fill:rgb(100%,0%,0%);fill-opacity:1;" d="M 308.5 170 C 308.5 168.066406 306.933594 166.5 305 166.5 C 303.066406 166.5 301.5 168.066406 301.5 170 C 301.5 171.933594 303.066406 173.5 305 173.5 C 306.933594 173.5 308.5 171.933594 308.5 170 "/>
<path style="fill:none;stroke-width:10;stroke-linecap:butt;stroke-linejoin:miter;stroke:rgb(0%,0%,0%);stroke-opacity:1;stroke-miterlimit:10;" d="M 3085 300 C 3085 319.335938 3069.335938 335 3050 335 C 3030.664062 335 3015 319.335938 3015 300 C 3015 280.664062 3030.664062 265 3050 265 C 3069.335938 265 3085 280.664062 3085 300 Z M 3085 300 " transform="matrix(0.1,0,0,-0.1,0,200)"/>
<path style=" stroke:none;fill-rule:nonzero;fill:rgb(100%,0%,0%);fill-opacity:1;" d="M 358.5 100 C 358.5 98.066406 356.933594 96.5 355 96.5 C 353.066406 96.5 351.5 98.066406 351.5 100 C 351.5 101.933594 353.066406 103.5 355 103.5 C 356.933594 103.5 358.5 101.933594 358.5 100 "/>
<path style="fill:none;stroke-width:10;stroke-linecap:butt;stroke-linejoin:miter;stroke:rgb(0%,0%,0%);stroke-opacity:1;stroke-miterlimit:10;" d="M 3585 1000 C 3585 1019.335938 3569.335938 1035 3550 1035 C 3530.664062 1035 3515 1019.335938 3515 1000 C 3515 980.664062 3530.664062 965 3550 965 C 3569.335938 965 3585 980.664062 3585 1000 Z M 3585 1000 " transform="matrix(0.1,0,0,-0.1,0,200)"/>
<path style=" stroke:none;fill-rule:nonzero;fill:rgb(100%,0%,0%);fill-opacity:1;" d="M 308.5 50 C 308.5 48.066406 306.933594 46.5 305 46.5 C 303.066406 46.5 301.5 48.066406 301.5 50 C 301.5 51.933594 303.066406 53.5 305 53.5 C 306.933594 53.5 308.5 51.933594 308.5 50 "/>
<path style="fill:none;stroke-width:10;stroke-linecap:butt;stroke-linejoin:miter;stroke:rgb(0%,0%,0%);stroke-opacity:1;stroke-miterlimit:10;" d="M 3085 1500 C 3085 1519.335938 3069.335938 1535 3050 1535 C 3030.664062 1535 3015 1519.335938 3015 1500 C 3015 1480.664062 3030.664062 1465 3050 1465 C 3069.335938 1465 3085 1480.664062 3085 1500 Z M 3085 1500 " transform="matrix(0.1,0,0,-0.1,0,200)"/>
<path style=" stroke:none;fill-rule:nonzero;fill:rgb(100%,0%,0%);fill-opacity:1;" d="M 258.5 100 C 258.5 98.066406 256.933594 96.5 255 96.5 C 253.066406 96.5 251.5 98.066406 251.5 100 C 251.5 101.933594 253.066406 103.5 255 103.5 C 256.933594 103.5 258.5 101.933594 258.5 100 "/>
<path style="fill:none;stroke-width:10;stroke-linecap:butt;stroke-linejoin:miter;stroke:rgb(0%,0%,0%);stroke-opacity:1;stroke-miterlimit:10;" d="M 2585 1000 C 2585 1019.335938 2569.335938 1035 2550 1035 C 2530.664062 1035 2515 1019.335938 2515 1000 C 2515 980.664062 2530.664062 965 2550 965 C 2569.335938 965 2585 980.664062 2585 1000 Z M 2585 1000 " transform="matrix(0.1,0,0,-0.1,0,200)"/>
<path style=" stroke:none;fill-rule:nonzero;fill:rgb(100%,0%,0%);fill-opacity:1;" d="M 308.5 150 C 308.5 148.066406 306.933594 146.5 305 146.5 C 303.066406 146.5 301.5 148.066406 301.5 150 C 301.5 151.933594 303.066406 153.5 305 153.5 C 306.933594 153.5 308.5 151.933594 308.5 150 "/>
<path style="fill:none;stroke-width:10;stroke-linecap:butt;stroke-linejoin:miter;stroke:rgb(0%,0%,0%);stroke-opacity:1;stroke-miterlimit:10;" d="M 3085 500 C 3085 519.335938 3069.335938 535 3050 535 C 3030.664062 535 3015 519.335938 3015 500 C 3015 480.664062 3030.664062 465 3050 465 C 3069.335938 465 3085 480.664062 3085 500 Z M 3085 500 " transform="matrix(0.1,0,0,-0.1,0,200)"/>
<path style="fill:none;stroke-width:10;stroke-linecap:butt;stroke-linejoin:miter;stroke:rgb(0%,0%,0%);stroke-opacity:1;stroke-miterlimit:10;" d="M 1500 990 L 1910.78125 990 L 1887.695312 950 L 2000 1000 L 1887.695312 1050 L 1910.78125 1010 L 1500 1010 Z M 1500 990 " transform="matrix(0.1,0,0,-0.1,0,200)"/>
<path style="fill:none;stroke-width:10;stroke-linecap:butt;stroke-linejoin:miter;stroke:rgb(0%,0%,0%);stroke-opacity:1;stroke-miterlimit:10;" d="M 4000 990 L 4410.78125 990 L 4387.695312 950 L 4500 1000 L 4387.695312 1050 L 4410.78125 1010 L 4000 1010 Z M 4000 990 " transform="matrix(0.1,0,0,-0.1,0,200)"/>
<path style="fill:none;stroke-width:10;stroke-linecap:butt;stroke-linejoin:miter;stroke:rgb(0%,0%,0%);stroke-opacity:1;stroke-dasharray:40,40;stroke-miterlimit:10;" d="M 5250 1500 L 4750 1000 " transform="matrix(0.1,0,0,-0.1,0,200)"/>
<path style="fill:none;stroke-width:10;stroke-linecap:butt;stroke-linejoin:miter;stroke:rgb(0%,0%,0%);stroke-opacity:1;stroke-dasharray:40,40;stroke-miterlimit:10;" d="M 5250 500 L 5750 1000 " transform="matrix(0.1,0,0,-0.1,0,200)"/>
<path style="fill:none;stroke-width:10;stroke-linecap:butt;stroke-linejoin:miter;stroke:rgb(0%,0%,0%);stroke-opacity:1;stroke-dasharray:40,40;stroke-miterlimit:10;" d="M 5750 1000 L 5250 1500 " transform="matrix(0.1,0,0,-0.1,0,200)"/>
<path style="fill:none;stroke-width:10;stroke-linecap:butt;stroke-linejoin:miter;stroke:rgb(0%,0%,0%);stroke-opacity:1;stroke-dasharray:40,40;stroke-miterlimit:10;" d="M 4750 1000 L 5250 500 " transform="matrix(0.1,0,0,-0.1,0,200)"/>
<path style="fill:none;stroke-width:10;stroke-linecap:butt;stroke-linejoin:miter;stroke:rgb(0%,0%,0%);stroke-opacity:1;stroke-miterlimit:10;" d="M 5750 1000 L 5900 1000 " transform="matrix(0.1,0,0,-0.1,0,200)"/>
<path style="fill:none;stroke-width:10;stroke-linecap:butt;stroke-linejoin:miter;stroke:rgb(0%,0%,0%);stroke-opacity:1;stroke-miterlimit:10;" d="M 5750 1000 L 5856.054688 1106.054688 " transform="matrix(0.1,0,0,-0.1,0,200)"/>
<path style="fill:none;stroke-width:10;stroke-linecap:butt;stroke-linejoin:miter;stroke:rgb(0%,0%,0%);stroke-opacity:1;stroke-miterlimit:10;" d="M 5750 1000 L 5856.054688 893.945312 " transform="matrix(0.1,0,0,-0.1,0,200)"/>
<path style="fill:none;stroke-width:10;stroke-linecap:butt;stroke-linejoin:miter;stroke:rgb(0%,0%,0%);stroke-opacity:1;stroke-miterlimit:10;" d="M 5250 1500 L 5250 1650 " transform="matrix(0.1,0,0,-0.1,0,200)"/>
<path style="fill:none;stroke-width:10;stroke-linecap:butt;stroke-linejoin:miter;stroke:rgb(0%,0%,0%);stroke-opacity:1;stroke-miterlimit:10;" d="M 5250 1500 L 5143.945312 1606.054688 " transform="matrix(0.1,0,0,-0.1,0,200)"/>
<path style="fill:none;stroke-width:10;stroke-linecap:butt;stroke-linejoin:miter;stroke:rgb(0%,0%,0%);stroke-opacity:1;stroke-miterlimit:10;" d="M 5250 1500 L 5356.054688 1606.054688 " transform="matrix(0.1,0,0,-0.1,0,200)"/>
<path style="fill:none;stroke-width:10;stroke-linecap:butt;stroke-linejoin:miter;stroke:rgb(0%,0%,0%);stroke-opacity:1;stroke-miterlimit:10;" d="M 4750 1000 L 4600 1000 " transform="matrix(0.1,0,0,-0.1,0,200)"/>
<path style="fill:none;stroke-width:10;stroke-linecap:butt;stroke-linejoin:miter;stroke:rgb(0%,0%,0%);stroke-opacity:1;stroke-miterlimit:10;" d="M 4750 1000 L 4643.945312 893.945312 " transform="matrix(0.1,0,0,-0.1,0,200)"/>
<path style="fill:none;stroke-width:10;stroke-linecap:butt;stroke-linejoin:miter;stroke:rgb(0%,0%,0%);stroke-opacity:1;stroke-miterlimit:10;" d="M 4750 1000 L 4643.945312 1106.054688 " transform="matrix(0.1,0,0,-0.1,0,200)"/>
<path style="fill:none;stroke-width:10;stroke-linecap:butt;stroke-linejoin:miter;stroke:rgb(0%,0%,0%);stroke-opacity:1;stroke-miterlimit:10;" d="M 5250 500 L 5250 350 " transform="matrix(0.1,0,0,-0.1,0,200)"/>
<path style="fill:none;stroke-width:10;stroke-linecap:butt;stroke-linejoin:miter;stroke:rgb(0%,0%,0%);stroke-opacity:1;stroke-miterlimit:10;" d="M 5250 500 L 5356.054688 393.945312 " transform="matrix(0.1,0,0,-0.1,0,200)"/>
<path style="fill:none;stroke-width:10;stroke-linecap:butt;stroke-linejoin:miter;stroke:rgb(0%,0%,0%);stroke-opacity:1;stroke-miterlimit:10;" d="M 5250 500 L 5143.945312 393.945312 " transform="matrix(0.1,0,0,-0.1,0,200)"/>
<path style="fill:none;stroke-width:10;stroke-linecap:butt;stroke-linejoin:miter;stroke:rgb(0%,0%,0%);stroke-opacity:1;stroke-dasharray:40,40;stroke-miterlimit:10;" d="M 5750 1000 L 5750 1000 " transform="matrix(0.1,0,0,-0.1,0,200)"/>
<path style="fill:none;stroke-width:10;stroke-linecap:butt;stroke-linejoin:miter;stroke:rgb(0%,0%,0%);stroke-opacity:1;stroke-dasharray:40,40;stroke-miterlimit:10;" d="M 5250 1500 L 5250 1500 " transform="matrix(0.1,0,0,-0.1,0,200)"/>
<path style="fill:none;stroke-width:10;stroke-linecap:butt;stroke-linejoin:miter;stroke:rgb(0%,0%,0%);stroke-opacity:1;stroke-dasharray:40,40;stroke-miterlimit:10;" d="M 4750 1000 L 4750 1000 " transform="matrix(0.1,0,0,-0.1,0,200)"/>
<path style="fill:none;stroke-width:10;stroke-linecap:butt;stroke-linejoin:miter;stroke:rgb(0%,0%,0%);stroke-opacity:1;stroke-dasharray:40,40;stroke-miterlimit:10;" d="M 5250 500 L 5250 500 " transform="matrix(0.1,0,0,-0.1,0,200)"/>
<path style=" stroke:none;fill-rule:nonzero;fill:rgb(100%,0%,0%);fill-opacity:1;" d="M 578.5 100 C 578.5 98.066406 576.933594 96.5 575 96.5 C 573.066406 96.5 571.5 98.066406 571.5 100 C 571.5 101.933594 573.066406 103.5 575 103.5 C 576.933594 103.5 578.5 101.933594 578.5 100 "/>
<path style="fill:none;stroke-width:10;stroke-linecap:butt;stroke-linejoin:miter;stroke:rgb(0%,0%,0%);stroke-opacity:1;stroke-miterlimit:10;" d="M 5785 1000 C 5785 1019.335938 5769.335938 1035 5750 1035 C 5730.664062 1035 5715 1019.335938 5715 1000 C 5715 980.664062 5730.664062 965 5750 965 C 5769.335938 965 5785 980.664062 5785 1000 Z M 5785 1000 " transform="matrix(0.1,0,0,-0.1,0,200)"/>
<path style=" stroke:none;fill-rule:nonzero;fill:rgb(100%,0%,0%);fill-opacity:1;" d="M 528.5 50 C 528.5 48.066406 526.933594 46.5 525 46.5 C 523.066406 46.5 521.5 48.066406 521.5 50 C 521.5 51.933594 523.066406 53.5 525 53.5 C 526.933594 53.5 528.5 51.933594 528.5 50 "/>
<path style="fill:none;stroke-width:10;stroke-linecap:butt;stroke-linejoin:miter;stroke:rgb(0%,0%,0%);stroke-opacity:1;stroke-miterlimit:10;" d="M 5285 1500 C 5285 1519.335938 5269.335938 1535 5250 1535 C 5230.664062 1535 5215 1519.335938 5215 1500 C 5215 1480.664062 5230.664062 1465 5250 1465 C 5269.335938 1465 5285 1480.664062 5285 1500 Z M 5285 1500 " transform="matrix(0.1,0,0,-0.1,0,200)"/>
<path style=" stroke:none;fill-rule:nonzero;fill:rgb(100%,0%,0%);fill-opacity:1;" d="M 478.5 100 C 478.5 98.066406 476.933594 96.5 475 96.5 C 473.066406 96.5 471.5 98.066406 471.5 100 C 471.5 101.933594 473.066406 103.5 475 103.5 C 476.933594 103.5 478.5 101.933594 478.5 100 "/>
<path style="fill:none;stroke-width:10;stroke-linecap:butt;stroke-linejoin:miter;stroke:rgb(0%,0%,0%);stroke-opacity:1;stroke-miterlimit:10;" d="M 4785 1000 C 4785 1019.335938 4769.335938 1035 4750 1035 C 4730.664062 1035 4715 1019.335938 4715 1000 C 4715 980.664062 4730.664062 965 4750 965 C 4769.335938 965 4785 980.664062 4785 1000 Z M 4785 1000 " transform="matrix(0.1,0,0,-0.1,0,200)"/>
<path style=" stroke:none;fill-rule:nonzero;fill:rgb(100%,0%,0%);fill-opacity:1;" d="M 528.5 150 C 528.5 148.066406 526.933594 146.5 525 146.5 C 523.066406 146.5 521.5 148.066406 521.5 150 C 521.5 151.933594 523.066406 153.5 525 153.5 C 526.933594 153.5 528.5 151.933594 528.5 150 "/>
<path style="fill:none;stroke-width:10;stroke-linecap:butt;stroke-linejoin:miter;stroke:rgb(0%,0%,0%);stroke-opacity:1;stroke-miterlimit:10;" d="M 5285 500 C 5285 519.335938 5269.335938 535 5250 535 C 5230.664062 535 5215 519.335938 5215 500 C 5215 480.664062 5230.664062 465 5250 465 C 5269.335938 465 5285 480.664062 5285 500 Z M 5285 500 " transform="matrix(0.1,0,0,-0.1,0,200)"/>
<path style=" stroke:none;fill-rule:nonzero;fill:rgb(100%,0%,0%);fill-opacity:1;" d="M 578.5 100 C 578.5 98.066406 576.933594 96.5 575 96.5 C 573.066406 96.5 571.5 98.066406 571.5 100 C 571.5 101.933594 573.066406 103.5 575 103.5 C 576.933594 103.5 578.5 101.933594 578.5 100 "/>
<path style="fill:none;stroke-width:10;stroke-linecap:butt;stroke-linejoin:miter;stroke:rgb(0%,0%,0%);stroke-opacity:1;stroke-miterlimit:10;" d="M 5785 1000 C 5785 1019.335938 5769.335938 1035 5750 1035 C 5730.664062 1035 5715 1019.335938 5715 1000 C 5715 980.664062 5730.664062 965 5750 965 C 5769.335938 965 5785 980.664062 5785 1000 Z M 5785 1000 " transform="matrix(0.1,0,0,-0.1,0,200)"/>
<path style=" stroke:none;fill-rule:nonzero;fill:rgb(100%,0%,0%);fill-opacity:1;" d="M 528.5 50 C 528.5 48.066406 526.933594 46.5 525 46.5 C 523.066406 46.5 521.5 48.066406 521.5 50 C 521.5 51.933594 523.066406 53.5 525 53.5 C 526.933594 53.5 528.5 51.933594 528.5 50 "/>
<path style="fill:none;stroke-width:10;stroke-linecap:butt;stroke-linejoin:miter;stroke:rgb(0%,0%,0%);stroke-opacity:1;stroke-miterlimit:10;" d="M 5285 1500 C 5285 1519.335938 5269.335938 1535 5250 1535 C 5230.664062 1535 5215 1519.335938 5215 1500 C 5215 1480.664062 5230.664062 1465 5250 1465 C 5269.335938 1465 5285 1480.664062 5285 1500 Z M 5285 1500 " transform="matrix(0.1,0,0,-0.1,0,200)"/>
<path style=" stroke:none;fill-rule:nonzero;fill:rgb(100%,0%,0%);fill-opacity:1;" d="M 478.5 100 C 478.5 98.066406 476.933594 96.5 475 96.5 C 473.066406 96.5 471.5 98.066406 471.5 100 C 471.5 101.933594 473.066406 103.5 475 103.5 C 476.933594 103.5 478.5 101.933594 478.5 100 "/>
<path style="fill:none;stroke-width:10;stroke-linecap:butt;stroke-linejoin:miter;stroke:rgb(0%,0%,0%);stroke-opacity:1;stroke-miterlimit:10;" d="M 4785 1000 C 4785 1019.335938 4769.335938 1035 4750 1035 C 4730.664062 1035 4715 1019.335938 4715 1000 C 4715 980.664062 4730.664062 965 4750 965 C 4769.335938 965 4785 980.664062 4785 1000 Z M 4785 1000 " transform="matrix(0.1,0,0,-0.1,0,200)"/>
<path style=" stroke:none;fill-rule:nonzero;fill:rgb(100%,0%,0%);fill-opacity:1;" d="M 528.5 150 C 528.5 148.066406 526.933594 146.5 525 146.5 C 523.066406 146.5 521.5 148.066406 521.5 150 C 521.5 151.933594 523.066406 153.5 525 153.5 C 526.933594 153.5 528.5 151.933594 528.5 150 "/>
<path style="fill:none;stroke-width:10;stroke-linecap:butt;stroke-linejoin:miter;stroke:rgb(0%,0%,0%);stroke-opacity:1;stroke-miterlimit:10;" d="M 5285 500 C 5285 519.335938 5269.335938 535 5250 535 C 5230.664062 535 5215 519.335938 5215 500 C 5215 480.664062 5230.664062 465 5250 465 C 5269.335938 465 5285 480.664062 5285 500 Z M 5285 500 " transform="matrix(0.1,0,0,-0.1,0,200)"/>
</g>
</svg>
