<?xml version="1.0" encoding="UTF-8"?>
<svg xmlns="http://www.w3.org/2000/svg" xmlns:xlink="http://www.w3.org/1999/xlink" width="400pt" height="400pt" viewBox="0 0 400 400" version="1.2">
<g id="surface1">
<path style=" stroke:none;fill-rule:nonzero;fill:rgb(100%,75%,75%);fill-opacity:1;" d="M 306.066406 341.421875 L 270.710938 306.066406 L 306.066406 270.710938 L 341.421875 306.066406 L 306.066406 341.421875 "/>
<path style="fill:none;stroke-width:10;stroke-linecap:butt;stroke-linejoin:miter;stroke:rgb(0%,0%,0%);stroke-opacity:1;stroke-miterlimit:10;" d="M 3060.664062 585.78125 L 2707.109375 939.335938 " transform="matrix(0.1,0,0,-0.1,0,400)"/>
<path style="fill:none;stroke-width:10;stroke-linecap:butt;stroke-linejoin:miter;stroke:rgb(0%,0%,0%);stroke-opacity:1;stroke-miterlimit:10;" d="M 3060.664062 585.78125 L 3414.21875 939.335938 " transform="matrix(0.1,0,0,-0.1,0,400)"/>
<path style="fill:none;stroke-width:10;stroke-linecap:butt;stroke-linejoin:miter;stroke:rgb(0%,0%,0%);stroke-opacity:1;stroke-miterlimit:10;" d="M 3060.664062 585.78125 L 3060.664062 232.226562 " transform="matrix(0.1,0,0,-0.1,0,400)"/>
<path style=" stroke:none;fill-rule:nonzero;fill:rgb(100%,0%,0%);fill-opacity:1;" d="M 308.894531 373.949219 C 307.332031 372.386719 304.800781 372.386719 303.238281 373.949219 C 301.675781 375.511719 301.675781 378.042969 303.238281 379.605469 C 304.800781 381.167969 307.332031 381.167969 308.894531 379.605469 C 310.457031 378.042969 310.457031 375.511719 308.894531 373.949219 "/>
<path style="fill:none;stroke-width:10;stroke-linecap:butt;stroke-linejoin:miter;stroke:rgb(0%,0%,0%);stroke-opacity:1;stroke-miterlimit:10;" d="M 3088.945312 260.507812 C 3073.320312 276.132812 3048.007812 276.132812 3032.382812 260.507812 C 3016.757812 244.882812 3016.757812 219.570312 3032.382812 203.945312 C 3048.007812 188.320312 3073.320312 188.320312 3088.945312 203.945312 C 3104.570312 219.570312 3104.570312 244.882812 3088.945312 260.507812 Z M 3088.945312 260.507812 " transform="matrix(0.1,0,0,-0.1,0,400)"/>
<path style=" stroke:none;fill-rule:nonzero;fill:rgb(100%,0%,0%);fill-opacity:1;" d="M 308.894531 338.59375 C 307.332031 337.03125 304.800781 337.03125 303.238281 338.59375 C 301.675781 340.15625 301.675781 342.6875 303.238281 344.25 C 304.800781 345.8125 307.332031 345.8125 308.894531 344.25 C 310.457031 342.6875 310.457031 340.15625 308.894531 338.59375 "/>
<path style="fill:none;stroke-width:10;stroke-linecap:butt;stroke-linejoin:miter;stroke:rgb(0%,0%,0%);stroke-opacity:1;stroke-miterlimit:10;" d="M 3088.945312 614.0625 C 3073.320312 629.6875 3048.007812 629.6875 3032.382812 614.0625 C 3016.757812 598.4375 3016.757812 573.125 3032.382812 557.5 C 3048.007812 541.875 3073.320312 541.875 3088.945312 557.5 C 3104.570312 573.125 3104.570312 598.4375 3088.945312 614.0625 Z M 3088.945312 614.0625 " transform="matrix(0.1,0,0,-0.1,0,400)"/>
<path style="fill:none;stroke-width:10;stroke-linecap:butt;stroke-linejoin:miter;stroke:rgb(0%,0%,0%);stroke-opacity:1;stroke-miterlimit:10;" d="M 3414.21875 939.335938 L 3060.664062 1292.890625 " transform="matrix(0.1,0,0,-0.1,0,400)"/>
<path style="fill:none;stroke-width:10;stroke-linecap:butt;stroke-linejoin:miter;stroke:rgb(0%,0%,0%);stroke-opacity:1;stroke-miterlimit:10;" d="M 3414.21875 939.335938 L 3767.773438 939.335938 " transform="matrix(0.1,0,0,-0.1,0,400)"/>
<path style=" stroke:none;fill-rule:nonzero;fill:rgb(100%,0%,0%);fill-opacity:1;" d="M 379.605469 303.238281 C 378.042969 301.675781 375.511719 301.675781 373.949219 303.238281 C 372.386719 304.800781 372.386719 307.332031 373.949219 308.894531 C 375.511719 310.457031 378.042969 310.457031 379.605469 308.894531 C 381.167969 307.332031 381.167969 304.800781 379.605469 303.238281 "/>
<path style="fill:none;stroke-width:10;stroke-linecap:butt;stroke-linejoin:miter;stroke:rgb(0%,0%,0%);stroke-opacity:1;stroke-miterlimit:10;" d="M 3796.054688 967.617188 C 3780.429688 983.242188 3755.117188 983.242188 3739.492188 967.617188 C 3723.867188 951.992188 3723.867188 926.679688 3739.492188 911.054688 C 3755.117188 895.429688 3780.429688 895.429688 3796.054688 911.054688 C 3811.679688 926.679688 3811.679688 951.992188 3796.054688 967.617188 Z M 3796.054688 967.617188 " transform="matrix(0.1,0,0,-0.1,0,400)"/>
<path style=" stroke:none;fill-rule:nonzero;fill:rgb(100%,0%,0%);fill-opacity:1;" d="M 344.25 303.238281 C 342.6875 301.675781 340.15625 301.675781 338.59375 303.238281 C 337.03125 304.800781 337.03125 307.332031 338.59375 308.894531 C 340.15625 310.457031 342.6875 310.457031 344.25 308.894531 C 345.8125 307.332031 345.8125 304.800781 344.25 303.238281 "/>
<path style="fill:none;stroke-width:10;stroke-linecap:butt;stroke-linejoin:miter;stroke:rgb(0%,0%,0%);stroke-opacity:1;stroke-miterlimit:10;" d="M 3442.5 967.617188 C 3426.875 983.242188 3401.5625 983.242188 3385.9375 967.617188 C 3370.3125 951.992188 3370.3125 926.679688 3385.9375 911.054688 C 3401.5625 895.429688 3426.875 895.429688 3442.5 911.054688 C 3458.125 926.679688 3458.125 951.992188 3442.5 967.617188 Z M 3442.5 967.617188 " transform="matrix(0.1,0,0,-0.1,0,400)"/>
<path style=" stroke:none;fill-rule:nonzero;fill:rgb(100%,75%,75%);fill-opacity:1;" d="M 235.355469 341.421875 L 200 306.066406 L 235.355469 270.710938 L 270.710938 306.066406 L 235.355469 341.421875 "/>
<path style="fill:none;stroke-width:10;stroke-linecap:butt;stroke-linejoin:miter;stroke:rgb(0%,0%,0%);stroke-opacity:1;stroke-miterlimit:10;" d="M 2353.554688 585.78125 L 2000 939.335938 " transform="matrix(0.1,0,0,-0.1,0,400)"/>
<path style="fill:none;stroke-width:10;stroke-linecap:butt;stroke-linejoin:miter;stroke:rgb(0%,0%,0%);stroke-opacity:1;stroke-miterlimit:10;" d="M 2353.554688 585.78125 L 2707.109375 939.335938 " transform="matrix(0.1,0,0,-0.1,0,400)"/>
<path style="fill:none;stroke-width:10;stroke-linecap:butt;stroke-linejoin:miter;stroke:rgb(0%,0%,0%);stroke-opacity:1;stroke-miterlimit:10;" d="M 2353.554688 585.78125 L 2353.554688 232.226562 " transform="matrix(0.1,0,0,-0.1,0,400)"/>
<path style=" stroke:none;fill-rule:nonzero;fill:rgb(100%,0%,0%);fill-opacity:1;" d="M 238.183594 373.949219 C 236.621094 372.386719 234.089844 372.386719 232.527344 373.949219 C 230.964844 375.511719 230.964844 378.042969 232.527344 379.605469 C 234.089844 381.167969 236.621094 381.167969 238.183594 379.605469 C 239.746094 378.042969 239.746094 375.511719 238.183594 373.949219 "/>
<path style="fill:none;stroke-width:10;stroke-linecap:butt;stroke-linejoin:miter;stroke:rgb(0%,0%,0%);stroke-opacity:1;stroke-miterlimit:10;" d="M 2381.835938 260.507812 C 2366.210938 276.132812 2340.898438 276.132812 2325.273438 260.507812 C 2309.648438 244.882812 2309.648438 219.570312 2325.273438 203.945312 C 2340.898438 188.320312 2366.210938 188.320312 2381.835938 203.945312 C 2397.460938 219.570312 2397.460938 244.882812 2381.835938 260.507812 Z M 2381.835938 260.507812 " transform="matrix(0.1,0,0,-0.1,0,400)"/>
<path style=" stroke:none;fill-rule:nonzero;fill:rgb(100%,0%,0%);fill-opacity:1;" d="M 238.183594 338.59375 C 236.621094 337.03125 234.089844 337.03125 232.527344 338.59375 C 230.964844 340.15625 230.964844 342.6875 232.527344 344.25 C 234.089844 345.8125 236.621094 345.8125 238.183594 344.25 C 239.746094 342.6875 239.746094 340.15625 238.183594 338.59375 "/>
<path style="fill:none;stroke-width:10;stroke-linecap:butt;stroke-linejoin:miter;stroke:rgb(0%,0%,0%);stroke-opacity:1;stroke-miterlimit:10;" d="M 2381.835938 614.0625 C 2366.210938 629.6875 2340.898438 629.6875 2325.273438 614.0625 C 2309.648438 598.4375 2309.648438 573.125 2325.273438 557.5 C 2340.898438 541.875 2366.210938 541.875 2381.835938 557.5 C 2397.460938 573.125 2397.460938 598.4375 2381.835938 614.0625 Z M 2381.835938 614.0625 " transform="matrix(0.1,0,0,-0.1,0,400)"/>
<path style="fill:none;stroke-width:10;stroke-linecap:butt;stroke-linejoin:miter;stroke:rgb(0%,0%,0%);stroke-opacity:1;stroke-miterlimit:10;" d="M 2707.109375 939.335938 L 2353.554688 1292.890625 " transform="matrix(0.1,0,0,-0.1,0,400)"/>
<path style="fill:none;stroke-width:10;stroke-linecap:butt;stroke-linejoin:miter;stroke:rgb(0%,0%,0%);stroke-opacity:1;stroke-miterlimit:10;" d="M 2707.109375 939.335938 L 3060.664062 1292.890625 " transform="matrix(0.1,0,0,-0.1,0,400)"/>
<path style=" stroke:none;fill-rule:nonzero;fill:rgb(100%,0%,0%);fill-opacity:1;" d="M 273.539062 303.238281 C 271.976562 301.675781 269.445312 301.675781 267.882812 303.238281 C 266.320312 304.800781 266.320312 307.332031 267.882812 308.894531 C 269.445312 310.457031 271.976562 310.457031 273.539062 308.894531 C 275.101562 307.332031 275.101562 304.800781 273.539062 303.238281 "/>
<path style="fill:none;stroke-width:10;stroke-linecap:butt;stroke-linejoin:miter;stroke:rgb(0%,0%,0%);stroke-opacity:1;stroke-miterlimit:10;" d="M 2735.390625 967.617188 C 2719.765625 983.242188 2694.453125 983.242188 2678.828125 967.617188 C 2663.203125 951.992188 2663.203125 926.679688 2678.828125 911.054688 C 2694.453125 895.429688 2719.765625 895.429688 2735.390625 911.054688 C 2751.015625 926.679688 2751.015625 951.992188 2735.390625 967.617188 Z M 2735.390625 967.617188 " transform="matrix(0.1,0,0,-0.1,0,400)"/>
<path style=" stroke:none;fill-rule:nonzero;fill:rgb(100%,75%,75%);fill-opacity:1;" d="M 306.066406 270.710938 L 270.710938 235.355469 L 306.066406 200 L 341.421875 235.355469 L 306.066406 270.710938 "/>
<path style="fill:none;stroke-width:10;stroke-linecap:butt;stroke-linejoin:miter;stroke:rgb(0%,0%,0%);stroke-opacity:1;stroke-miterlimit:10;" d="M 3060.664062 1292.890625 L 2707.109375 1646.445312 " transform="matrix(0.1,0,0,-0.1,0,400)"/>
<path style="fill:none;stroke-width:10;stroke-linecap:butt;stroke-linejoin:miter;stroke:rgb(0%,0%,0%);stroke-opacity:1;stroke-miterlimit:10;" d="M 3060.664062 1292.890625 L 3414.21875 1646.445312 " transform="matrix(0.1,0,0,-0.1,0,400)"/>
<path style=" stroke:none;fill-rule:nonzero;fill:rgb(100%,0%,0%);fill-opacity:1;" d="M 308.894531 267.882812 C 307.332031 266.320312 304.800781 266.320312 303.238281 267.882812 C 301.675781 269.445312 301.675781 271.976562 303.238281 273.539062 C 304.800781 275.101562 307.332031 275.101562 308.894531 273.539062 C 310.457031 271.976562 310.457031 269.445312 308.894531 267.882812 "/>
<path style="fill:none;stroke-width:10;stroke-linecap:butt;stroke-linejoin:miter;stroke:rgb(0%,0%,0%);stroke-opacity:1;stroke-miterlimit:10;" d="M 3088.945312 1321.171875 C 3073.320312 1336.796875 3048.007812 1336.796875 3032.382812 1321.171875 C 3016.757812 1305.546875 3016.757812 1280.234375 3032.382812 1264.609375 C 3048.007812 1248.984375 3073.320312 1248.984375 3088.945312 1264.609375 C 3104.570312 1280.234375 3104.570312 1305.546875 3088.945312 1321.171875 Z M 3088.945312 1321.171875 " transform="matrix(0.1,0,0,-0.1,0,400)"/>
<path style="fill:none;stroke-width:10;stroke-linecap:butt;stroke-linejoin:miter;stroke:rgb(0%,0%,0%);stroke-opacity:1;stroke-miterlimit:10;" d="M 3414.21875 1646.445312 L 3060.664062 2000 " transform="matrix(0.1,0,0,-0.1,0,400)"/>
<path style="fill:none;stroke-width:10;stroke-linecap:butt;stroke-linejoin:miter;stroke:rgb(0%,0%,0%);stroke-opacity:1;stroke-miterlimit:10;" d="M 3414.21875 1646.445312 L 3767.773438 1646.445312 " transform="matrix(0.1,0,0,-0.1,0,400)"/>
<path style=" stroke:none;fill-rule:nonzero;fill:rgb(100%,0%,0%);fill-opacity:1;" d="M 379.605469 232.527344 C 378.042969 230.964844 375.511719 230.964844 373.949219 232.527344 C 372.386719 234.089844 372.386719 236.621094 373.949219 238.183594 C 375.511719 239.746094 378.042969 239.746094 379.605469 238.183594 C 381.167969 236.621094 381.167969 234.089844 379.605469 232.527344 "/>
<path style="fill:none;stroke-width:10;stroke-linecap:butt;stroke-linejoin:miter;stroke:rgb(0%,0%,0%);stroke-opacity:1;stroke-miterlimit:10;" d="M 3796.054688 1674.726562 C 3780.429688 1690.351562 3755.117188 1690.351562 3739.492188 1674.726562 C 3723.867188 1659.101562 3723.867188 1633.789062 3739.492188 1618.164062 C 3755.117188 1602.539062 3780.429688 1602.539062 3796.054688 1618.164062 C 3811.679688 1633.789062 3811.679688 1659.101562 3796.054688 1674.726562 Z M 3796.054688 1674.726562 " transform="matrix(0.1,0,0,-0.1,0,400)"/>
<path style=" stroke:none;fill-rule:nonzero;fill:rgb(100%,0%,0%);fill-opacity:1;" d="M 344.25 232.527344 C 342.6875 230.964844 340.15625 230.964844 338.59375 232.527344 C 337.03125 234.089844 337.03125 236.621094 338.59375 238.183594 C 340.15625 239.746094 342.6875 239.746094 344.25 238.183594 C 345.8125 236.621094 345.8125 234.089844 344.25 232.527344 "/>
<path style="fill:none;stroke-width:10;stroke-linecap:butt;stroke-linejoin:miter;stroke:rgb(0%,0%,0%);stroke-opacity:1;stroke-miterlimit:10;" d="M 3442.5 1674.726562 C 3426.875 1690.351562 3401.5625 1690.351562 3385.9375 1674.726562 C 3370.3125 1659.101562 3370.3125 1633.789062 3385.9375 1618.164062 C 3401.5625 1602.539062 3426.875 1602.539062 3442.5 1618.164062 C 3458.125 1633.789062 3458.125 1659.101562 3442.5 1674.726562 Z M 3442.5 1674.726562 " transform="matrix(0.1,0,0,-0.1,0,400)"/>
<path style=" stroke:none;fill-rule:nonzero;fill:rgb(100%,75%,75%);fill-opacity:1;" d="M 164.644531 341.421875 L 129.289062 306.066406 L 164.644531 270.710938 L 200 306.066406 L 164.644531 341.421875 "/>
<path style="fill:none;stroke-width:10;stroke-linecap:butt;stroke-linejoin:miter;stroke:rgb(0%,0%,0%);stroke-opacity:1;stroke-miterlimit:10;" d="M 1646.445312 585.78125 L 1292.890625 939.335938 " transform="matrix(0.1,0,0,-0.1,0,400)"/>
<path style="fill:none;stroke-width:10;stroke-linecap:butt;stroke-linejoin:miter;stroke:rgb(0%,0%,0%);stroke-opacity:1;stroke-miterlimit:10;" d="M 1646.445312 585.78125 L 2000 939.335938 " transform="matrix(0.1,0,0,-0.1,0,400)"/>
<path style="fill:none;stroke-width:10;stroke-linecap:butt;stroke-linejoin:miter;stroke:rgb(0%,0%,0%);stroke-opacity:1;stroke-miterlimit:10;" d="M 1646.445312 585.78125 L 1646.445312 232.226562 " transform="matrix(0.1,0,0,-0.1,0,400)"/>
<path style=" stroke:none;fill-rule:nonzero;fill:rgb(100%,0%,0%);fill-opacity:1;" d="M 167.472656 373.949219 C 165.910156 372.386719 163.378906 372.386719 161.816406 373.949219 C 160.253906 375.511719 160.253906 378.042969 161.816406 379.605469 C 163.378906 381.167969 165.910156 381.167969 167.472656 379.605469 C 169.035156 378.042969 169.035156 375.511719 167.472656 373.949219 "/>
<path style="fill:none;stroke-width:10;stroke-linecap:butt;stroke-linejoin:miter;stroke:rgb(0%,0%,0%);stroke-opacity:1;stroke-miterlimit:10;" d="M 1674.726562 260.507812 C 1659.101562 276.132812 1633.789062 276.132812 1618.164062 260.507812 C 1602.539062 244.882812 1602.539062 219.570312 1618.164062 203.945312 C 1633.789062 188.320312 1659.101562 188.320312 1674.726562 203.945312 C 1690.351562 219.570312 1690.351562 244.882812 1674.726562 260.507812 Z M 1674.726562 260.507812 " transform="matrix(0.1,0,0,-0.1,0,400)"/>
<path style=" stroke:none;fill-rule:nonzero;fill:rgb(100%,0%,0%);fill-opacity:1;" d="M 167.472656 338.59375 C 165.910156 337.03125 163.378906 337.03125 161.816406 338.59375 C 160.253906 340.15625 160.253906 342.6875 161.816406 344.25 C 163.378906 345.8125 165.910156 345.8125 167.472656 344.25 C 169.035156 342.6875 169.035156 340.15625 167.472656 338.59375 "/>
<path style="fill:none;stroke-width:10;stroke-linecap:butt;stroke-linejoin:miter;stroke:rgb(0%,0%,0%);stroke-opacity:1;stroke-miterlimit:10;" d="M 1674.726562 614.0625 C 1659.101562 629.6875 1633.789062 629.6875 1618.164062 614.0625 C 1602.539062 598.4375 1602.539062 573.125 1618.164062 557.5 C 1633.789062 541.875 1659.101562 541.875 1674.726562 557.5 C 1690.351562 573.125 1690.351562 598.4375 1674.726562 614.0625 Z M 1674.726562 614.0625 " transform="matrix(0.1,0,0,-0.1,0,400)"/>
<path style="fill:none;stroke-width:10;stroke-linecap:butt;stroke-linejoin:miter;stroke:rgb(0%,0%,0%);stroke-opacity:1;stroke-miterlimit:10;" d="M 2000 939.335938 L 1646.445312 1292.890625 " transform="matrix(0.1,0,0,-0.1,0,400)"/>
<path style="fill:none;stroke-width:10;stroke-linecap:butt;stroke-linejoin:miter;stroke:rgb(0%,0%,0%);stroke-opacity:1;stroke-miterlimit:10;" d="M 2000 939.335938 L 2353.554688 1292.890625 " transform="matrix(0.1,0,0,-0.1,0,400)"/>
<path style=" stroke:none;fill-rule:nonzero;fill:rgb(100%,0%,0%);fill-opacity:1;" d="M 202.828125 303.238281 C 201.265625 301.675781 198.734375 301.675781 197.171875 303.238281 C 195.609375 304.800781 195.609375 307.332031 197.171875 308.894531 C 198.734375 310.457031 201.265625 310.457031 202.828125 308.894531 C 204.390625 307.332031 204.390625 304.800781 202.828125 303.238281 "/>
<path style="fill:none;stroke-width:10;stroke-linecap:butt;stroke-linejoin:miter;stroke:rgb(0%,0%,0%);stroke-opacity:1;stroke-miterlimit:10;" d="M 2028.28125 967.617188 C 2012.65625 983.242188 1987.34375 983.242188 1971.71875 967.617188 C 1956.09375 951.992188 1956.09375 926.679688 1971.71875 911.054688 C 1987.34375 895.429688 2012.65625 895.429688 2028.28125 911.054688 C 2043.90625 926.679688 2043.90625 951.992188 2028.28125 967.617188 Z M 2028.28125 967.617188 " transform="matrix(0.1,0,0,-0.1,0,400)"/>
<path style=" stroke:none;fill-rule:nonzero;fill:rgb(100%,75%,75%);fill-opacity:1;" d="M 235.355469 270.710938 L 200 235.355469 L 235.355469 200 L 270.710938 235.355469 L 235.355469 270.710938 "/>
<path style="fill:none;stroke-width:10;stroke-linecap:butt;stroke-linejoin:miter;stroke:rgb(0%,0%,0%);stroke-opacity:1;stroke-miterlimit:10;" d="M 2353.554688 1292.890625 L 2000 1646.445312 " transform="matrix(0.1,0,0,-0.1,0,400)"/>
<path style="fill:none;stroke-width:10;stroke-linecap:butt;stroke-linejoin:miter;stroke:rgb(0%,0%,0%);stroke-opacity:1;stroke-miterlimit:10;" d="M 2353.554688 1292.890625 L 2707.109375 1646.445312 " transform="matrix(0.1,0,0,-0.1,0,400)"/>
<path style=" stroke:none;fill-rule:nonzero;fill:rgb(100%,0%,0%);fill-opacity:1;" d="M 238.183594 267.882812 C 236.621094 266.320312 234.089844 266.320312 232.527344 267.882812 C 230.964844 269.445312 230.964844 271.976562 232.527344 273.539062 C 234.089844 275.101562 236.621094 275.101562 238.183594 273.539062 C 239.746094 271.976562 239.746094 269.445312 238.183594 267.882812 "/>
<path style="fill:none;stroke-width:10;stroke-linecap:butt;stroke-linejoin:miter;stroke:rgb(0%,0%,0%);stroke-opacity:1;stroke-miterlimit:10;" d="M 2381.835938 1321.171875 C 2366.210938 1336.796875 2340.898438 1336.796875 2325.273438 1321.171875 C 2309.648438 1305.546875 2309.648438 1280.234375 2325.273438 1264.609375 C 2340.898438 1248.984375 2366.210938 1248.984375 2381.835938 1264.609375 C 2397.460938 1280.234375 2397.460938 1305.546875 2381.835938 1321.171875 Z M 2381.835938 1321.171875 " transform="matrix(0.1,0,0,-0.1,0,400)"/>
<path style="fill:none;stroke-width:10;stroke-linecap:butt;stroke-linejoin:miter;stroke:rgb(0%,0%,0%);stroke-opacity:1;stroke-miterlimit:10;" d="M 2707.109375 1646.445312 L 2353.554688 2000 " transform="matrix(0.1,0,0,-0.1,0,400)"/>
<path style="fill:none;stroke-width:10;stroke-linecap:butt;stroke-linejoin:miter;stroke:rgb(0%,0%,0%);stroke-opacity:1;stroke-miterlimit:10;" d="M 2707.109375 1646.445312 L 3060.664062 2000 " transform="matrix(0.1,0,0,-0.1,0,400)"/>
<path style=" stroke:none;fill-rule:nonzero;fill:rgb(100%,0%,0%);fill-opacity:1;" d="M 273.539062 232.527344 C 271.976562 230.964844 269.445312 230.964844 267.882812 232.527344 C 266.320312 234.089844 266.320312 236.621094 267.882812 238.183594 C 269.445312 239.746094 271.976562 239.746094 273.539062 238.183594 C 275.101562 236.621094 275.101562 234.089844 273.539062 232.527344 "/>
<path style="fill:none;stroke-width:10;stroke-linecap:butt;stroke-linejoin:miter;stroke:rgb(0%,0%,0%);stroke-opacity:1;stroke-miterlimit:10;" d="M 2735.390625 1674.726562 C 2719.765625 1690.351562 2694.453125 1690.351562 2678.828125 1674.726562 C 2663.203125 1659.101562 2663.203125 1633.789062 2678.828125 1618.164062 C 2694.453125 1602.539062 2719.765625 1602.539062 2735.390625 1618.164062 C 2751.015625 1633.789062 2751.015625 1659.101562 2735.390625 1674.726562 Z M 2735.390625 1674.726562 " transform="matrix(0.1,0,0,-0.1,0,400)"/>
<path style=" stroke:none;fill-rule:nonzero;fill:rgb(100%,75%,75%);fill-opacity:1;" d="M 306.066406 200 L 270.710938 164.644531 L 306.066406 129.289062 L 341.421875 164.644531 L 306.066406 200 "/>
<path style="fill:none;stroke-width:10;stroke-linecap:butt;stroke-linejoin:miter;stroke:rgb(0%,0%,0%);stroke-opacity:1;stroke-miterlimit:10;" d="M 3060.664062 2000 L 2707.109375 2353.554688 " transform="matrix(0.1,0,0,-0.1,0,400)"/>
<path style="fill:none;stroke-width:10;stroke-linecap:butt;stroke-linejoin:miter;stroke:rgb(0%,0%,0%);stroke-opacity:1;stroke-miterlimit:10;" d="M 3060.664062 2000 L 3414.21875 2353.554688 " transform="matrix(0.1,0,0,-0.1,0,400)"/>
<path style=" stroke:none;fill-rule:nonzero;fill:rgb(100%,0%,0%);fill-opacity:1;" d="M 308.894531 197.171875 C 307.332031 195.609375 304.800781 195.609375 303.238281 197.171875 C 301.675781 198.734375 301.675781 201.265625 303.238281 202.828125 C 304.800781 204.390625 307.332031 204.390625 308.894531 202.828125 C 310.457031 201.265625 310.457031 198.734375 308.894531 197.171875 "/>
<path style="fill:none;stroke-width:10;stroke-linecap:butt;stroke-linejoin:miter;stroke:rgb(0%,0%,0%);stroke-opacity:1;stroke-miterlimit:10;" d="M 3088.945312 2028.28125 C 3073.320312 2043.90625 3048.007812 2043.90625 3032.382812 2028.28125 C 3016.757812 2012.65625 3016.757812 1987.34375 3032.382812 1971.71875 C 3048.007812 1956.09375 3073.320312 1956.09375 3088.945312 1971.71875 C 3104.570312 1987.34375 3104.570312 2012.65625 3088.945312 2028.28125 Z M 3088.945312 2028.28125 " transform="matrix(0.1,0,0,-0.1,0,400)"/>
<path style="fill:none;stroke-width:10;stroke-linecap:butt;stroke-linejoin:miter;stroke:rgb(0%,0%,0%);stroke-opacity:1;stroke-miterlimit:10;" d="M 3414.21875 2353.554688 L 3060.664062 2707.109375 " transform="matrix(0.1,0,0,-0.1,0,400)"/>
<path style="fill:none;stroke-width:10;stroke-linecap:butt;stroke-linejoin:miter;stroke:rgb(0%,0%,0%);stroke-opacity:1;stroke-miterlimit:10;" d="M 3414.21875 2353.554688 L 3767.773438 2353.554688 " transform="matrix(0.1,0,0,-0.1,0,400)"/>
<path style=" stroke:none;fill-rule:nonzero;fill:rgb(100%,0%,0%);fill-opacity:1;" d="M 379.605469 161.816406 C 378.042969 160.253906 375.511719 160.253906 373.949219 161.816406 C 372.386719 163.378906 372.386719 165.910156 373.949219 167.472656 C 375.511719 169.035156 378.042969 169.035156 379.605469 167.472656 C 381.167969 165.910156 381.167969 163.378906 379.605469 161.816406 "/>
<path style="fill:none;stroke-width:10;stroke-linecap:butt;stroke-linejoin:miter;stroke:rgb(0%,0%,0%);stroke-opacity:1;stroke-miterlimit:10;" d="M 3796.054688 2381.835938 C 3780.429688 2397.460938 3755.117188 2397.460938 3739.492188 2381.835938 C 3723.867188 2366.210938 3723.867188 2340.898438 3739.492188 2325.273438 C 3755.117188 2309.648438 3780.429688 2309.648438 3796.054688 2325.273438 C 3811.679688 2340.898438 3811.679688 2366.210938 3796.054688 2381.835938 Z M 3796.054688 2381.835938 " transform="matrix(0.1,0,0,-0.1,0,400)"/>
<path style=" stroke:none;fill-rule:nonzero;fill:rgb(100%,0%,0%);fill-opacity:1;" d="M 344.25 161.816406 C 342.6875 160.253906 340.15625 160.253906 338.59375 161.816406 C 337.03125 163.378906 337.03125 165.910156 338.59375 167.472656 C 340.15625 169.035156 342.6875 169.035156 344.25 167.472656 C 345.8125 165.910156 345.8125 163.378906 344.25 161.816406 "/>
<path style="fill:none;stroke-width:10;stroke-linecap:butt;stroke-linejoin:miter;stroke:rgb(0%,0%,0%);stroke-opacity:1;stroke-miterlimit:10;" d="M 3442.5 2381.835938 C 3426.875 2397.460938 3401.5625 2397.460938 3385.9375 2381.835938 C 3370.3125 2366.210938 3370.3125 2340.898438 3385.9375 2325.273438 C 3401.5625 2309.648438 3426.875 2309.648438 3442.5 2325.273438 C 3458.125 2340.898438 3458.125 2366.210938 3442.5 2381.835938 Z M 3442.5 2381.835938 " transform="matrix(0.1,0,0,-0.1,0,400)"/>
<path style=" stroke:none;fill-rule:nonzero;fill:rgb(100%,75%,75%);fill-opacity:1;" d="M 93.933594 341.421875 L 58.578125 306.066406 L 93.933594 270.710938 L 129.289062 306.066406 L 93.933594 341.421875 "/>
<path style="fill:none;stroke-width:10;stroke-linecap:butt;stroke-linejoin:miter;stroke:rgb(0%,0%,0%);stroke-opacity:1;stroke-miterlimit:10;" d="M 939.335938 585.78125 L 585.78125 939.335938 " transform="matrix(0.1,0,0,-0.1,0,400)"/>
<path style="fill:none;stroke-width:10;stroke-linecap:butt;stroke-linejoin:miter;stroke:rgb(0%,0%,0%);stroke-opacity:1;stroke-miterlimit:10;" d="M 939.335938 585.78125 L 1292.890625 939.335938 " transform="matrix(0.1,0,0,-0.1,0,400)"/>
<path style="fill:none;stroke-width:10;stroke-linecap:butt;stroke-linejoin:miter;stroke:rgb(0%,0%,0%);stroke-opacity:1;stroke-miterlimit:10;" d="M 939.335938 585.78125 L 939.335938 232.226562 " transform="matrix(0.1,0,0,-0.1,0,400)"/>
<path style=" stroke:none;fill-rule:nonzero;fill:rgb(100%,0%,0%);fill-opacity:1;" d="M 96.761719 373.949219 C 95.199219 372.386719 92.667969 372.386719 91.105469 373.949219 C 89.542969 375.511719 89.542969 378.042969 91.105469 379.605469 C 92.667969 381.167969 95.199219 381.167969 96.761719 379.605469 C 98.324219 378.042969 98.324219 375.511719 96.761719 373.949219 "/>
<path style="fill:none;stroke-width:10;stroke-linecap:butt;stroke-linejoin:miter;stroke:rgb(0%,0%,0%);stroke-opacity:1;stroke-miterlimit:10;" d="M 967.617188 260.507812 C 951.992188 276.132812 926.679688 276.132812 911.054688 260.507812 C 895.429688 244.882812 895.429688 219.570312 911.054688 203.945312 C 926.679688 188.320312 951.992188 188.320312 967.617188 203.945312 C 983.242188 219.570312 983.242188 244.882812 967.617188 260.507812 Z M 967.617188 260.507812 " transform="matrix(0.1,0,0,-0.1,0,400)"/>
<path style=" stroke:none;fill-rule:nonzero;fill:rgb(100%,0%,0%);fill-opacity:1;" d="M 96.761719 338.59375 C 95.199219 337.03125 92.667969 337.03125 91.105469 338.59375 C 89.542969 340.15625 89.542969 342.6875 91.105469 344.25 C 92.667969 345.8125 95.199219 345.8125 96.761719 344.25 C 98.324219 342.6875 98.324219 340.15625 96.761719 338.59375 "/>
<path style="fill:none;stroke-width:10;stroke-linecap:butt;stroke-linejoin:miter;stroke:rgb(0%,0%,0%);stroke-opacity:1;stroke-miterlimit:10;" d="M 967.617188 614.0625 C 951.992188 629.6875 926.679688 629.6875 911.054688 614.0625 C 895.429688 598.4375 895.429688 573.125 911.054688 557.5 C 926.679688 541.875 951.992188 541.875 967.617188 557.5 C 983.242188 573.125 983.242188 598.4375 967.617188 614.0625 Z M 967.617188 614.0625 " transform="matrix(0.1,0,0,-0.1,0,400)"/>
<path style="fill:none;stroke-width:10;stroke-linecap:butt;stroke-linejoin:miter;stroke:rgb(0%,0%,0%);stroke-opacity:1;stroke-miterlimit:10;" d="M 1292.890625 939.335938 L 939.335938 1292.890625 " transform="matrix(0.1,0,0,-0.1,0,400)"/>
<path style="fill:none;stroke-width:10;stroke-linecap:butt;stroke-linejoin:miter;stroke:rgb(0%,0%,0%);stroke-opacity:1;stroke-miterlimit:10;" d="M 1292.890625 939.335938 L 1646.445312 1292.890625 " transform="matrix(0.1,0,0,-0.1,0,400)"/>
<path style=" stroke:none;fill-rule:nonzero;fill:rgb(100%,0%,0%);fill-opacity:1;" d="M 132.117188 303.238281 C 130.554688 301.675781 128.023438 301.675781 126.460938 303.238281 C 124.898438 304.800781 124.898438 307.332031 126.460938 308.894531 C 128.023438 310.457031 130.554688 310.457031 132.117188 308.894531 C 133.679688 307.332031 133.679688 304.800781 132.117188 303.238281 "/>
<path style="fill:none;stroke-width:10;stroke-linecap:butt;stroke-linejoin:miter;stroke:rgb(0%,0%,0%);stroke-opacity:1;stroke-miterlimit:10;" d="M 1321.171875 967.617188 C 1305.546875 983.242188 1280.234375 983.242188 1264.609375 967.617188 C 1248.984375 951.992188 1248.984375 926.679688 1264.609375 911.054688 C 1280.234375 895.429688 1305.546875 895.429688 1321.171875 911.054688 C 1336.796875 926.679688 1336.796875 951.992188 1321.171875 967.617188 Z M 1321.171875 967.617188 " transform="matrix(0.1,0,0,-0.1,0,400)"/>
<path style=" stroke:none;fill-rule:nonzero;fill:rgb(100%,75%,75%);fill-opacity:1;" d="M 164.644531 270.710938 L 129.289062 235.355469 L 164.644531 200 L 200 235.355469 L 164.644531 270.710938 "/>
<path style="fill:none;stroke-width:10;stroke-linecap:butt;stroke-linejoin:miter;stroke:rgb(0%,0%,0%);stroke-opacity:1;stroke-miterlimit:10;" d="M 1646.445312 1292.890625 L 1292.890625 1646.445312 " transform="matrix(0.1,0,0,-0.1,0,400)"/>
<path style="fill:none;stroke-width:10;stroke-linecap:butt;stroke-linejoin:miter;stroke:rgb(0%,0%,0%);stroke-opacity:1;stroke-miterlimit:10;" d="M 1646.445312 1292.890625 L 2000 1646.445312 " transform="matrix(0.1,0,0,-0.1,0,400)"/>
<path style=" stroke:none;fill-rule:nonzero;fill:rgb(100%,0%,0%);fill-opacity:1;" d="M 167.472656 267.882812 C 165.910156 266.320312 163.378906 266.320312 161.816406 267.882812 C 160.253906 269.445312 160.253906 271.976562 161.816406 273.539062 C 163.378906 275.101562 165.910156 275.101562 167.472656 273.539062 C 169.035156 271.976562 169.035156 269.445312 167.472656 267.882812 "/>
<path style="fill:none;stroke-width:10;stroke-linecap:butt;stroke-linejoin:miter;stroke:rgb(0%,0%,0%);stroke-opacity:1;stroke-miterlimit:10;" d="M 1674.726562 1321.171875 C 1659.101562 1336.796875 1633.789062 1336.796875 1618.164062 1321.171875 C 1602.539062 1305.546875 1602.539062 1280.234375 1618.164062 1264.609375 C 1633.789062 1248.984375 1659.101562 1248.984375 1674.726562 1264.609375 C 1690.351562 1280.234375 1690.351562 1305.546875 1674.726562 1321.171875 Z M 1674.726562 1321.171875 " transform="matrix(0.1,0,0,-0.1,0,400)"/>
<path style="fill:none;stroke-width:10;stroke-linecap:butt;stroke-linejoin:miter;stroke:rgb(0%,0%,0%);stroke-opacity:1;stroke-miterlimit:10;" d="M 2000 1646.445312 L 1646.445312 2000 " transform="matrix(0.1,0,0,-0.1,0,400)"/>
<path style="fill:none;stroke-width:10;stroke-linecap:butt;stroke-linejoin:miter;stroke:rgb(0%,0%,0%);stroke-opacity:1;stroke-miterlimit:10;" d="M 2000 1646.445312 L 2353.554688 2000 " transform="matrix(0.1,0,0,-0.1,0,400)"/>
<path style=" stroke:none;fill-rule:nonzero;fill:rgb(100%,0%,0%);fill-opacity:1;" d="M 202.828125 232.527344 C 201.265625 230.964844 198.734375 230.964844 197.171875 232.527344 C 195.609375 234.089844 195.609375 236.621094 197.171875 238.183594 C 198.734375 239.746094 201.265625 239.746094 202.828125 238.183594 C 204.390625 236.621094 204.390625 234.089844 202.828125 232.527344 "/>
<path style="fill:none;stroke-width:10;stroke-linecap:butt;stroke-linejoin:miter;stroke:rgb(0%,0%,0%);stroke-opacity:1;stroke-miterlimit:10;" d="M 2028.28125 1674.726562 C 2012.65625 1690.351562 1987.34375 1690.351562 1971.71875 1674.726562 C 1956.09375 1659.101562 1956.09375 1633.789062 1971.71875 1618.164062 C 1987.34375 1602.539062 2012.65625 1602.539062 2028.28125 1618.164062 C 2043.90625 1633.789062 2043.90625 1659.101562 2028.28125 1674.726562 Z M 2028.28125 1674.726562 " transform="matrix(0.1,0,0,-0.1,0,400)"/>
<path style=" stroke:none;fill-rule:nonzero;fill:rgb(100%,75%,75%);fill-opacity:1;" d="M 235.355469 200 L 200 164.644531 L 235.355469 129.289062 L 270.710938 164.644531 L 235.355469 200 "/>
<path style="fill:none;stroke-width:10;stroke-linecap:butt;stroke-linejoin:miter;stroke:rgb(0%,0%,0%);stroke-opacity:1;stroke-miterlimit:10;" d="M 2353.554688 2000 L 2000 2353.554688 " transform="matrix(0.1,0,0,-0.1,0,400)"/>
<path style="fill:none;stroke-width:10;stroke-linecap:butt;stroke-linejoin:miter;stroke:rgb(0%,0%,0%);stroke-opacity:1;stroke-miterlimit:10;" d="M 2353.554688 2000 L 2707.109375 2353.554688 " transform="matrix(0.1,0,0,-0.1,0,400)"/>
<path style=" stroke:none;fill-rule:nonzero;fill:rgb(100%,0%,0%);fill-opacity:1;" d="M 238.183594 197.171875 C 236.621094 195.609375 234.089844 195.609375 232.527344 197.171875 C 230.964844 198.734375 230.964844 201.265625 232.527344 202.828125 C 234.089844 204.390625 236.621094 204.390625 238.183594 202.828125 C 239.746094 201.265625 239.746094 198.734375 238.183594 197.171875 "/>
<path style="fill:none;stroke-width:10;stroke-linecap:butt;stroke-linejoin:miter;stroke:rgb(0%,0%,0%);stroke-opacity:1;stroke-miterlimit:10;" d="M 2381.835938 2028.28125 C 2366.210938 2043.90625 2340.898438 2043.90625 2325.273438 2028.28125 C 2309.648438 2012.65625 2309.648438 1987.34375 2325.273438 1971.71875 C 2340.898438 1956.09375 2366.210938 1956.09375 2381.835938 1971.71875 C 2397.460938 1987.34375 2397.460938 2012.65625 2381.835938 2028.28125 Z M 2381.835938 2028.28125 " transform="matrix(0.1,0,0,-0.1,0,400)"/>
<path style="fill:none;stroke-width:10;stroke-linecap:butt;stroke-linejoin:miter;stroke:rgb(0%,0%,0%);stroke-opacity:1;stroke-miterlimit:10;" d="M 2707.109375 2353.554688 L 2353.554688 2707.109375 " transform="matrix(0.1,0,0,-0.1,0,400)"/>
<path style="fill:none;stroke-width:10;stroke-linecap:butt;stroke-linejoin:miter;stroke:rgb(0%,0%,0%);stroke-opacity:1;stroke-miterlimit:10;" d="M 2707.109375 2353.554688 L 3060.664062 2707.109375 " transform="matrix(0.1,0,0,-0.1,0,400)"/>
<path style=" stroke:none;fill-rule:nonzero;fill:rgb(100%,0%,0%);fill-opacity:1;" d="M 273.539062 161.816406 C 271.976562 160.253906 269.445312 160.253906 267.882812 161.816406 C 266.320312 163.378906 266.320312 165.910156 267.882812 167.472656 C 269.445312 169.035156 271.976562 169.035156 273.539062 167.472656 C 275.101562 165.910156 275.101562 163.378906 273.539062 161.816406 "/>
<path style="fill:none;stroke-width:10;stroke-linecap:butt;stroke-linejoin:miter;stroke:rgb(0%,0%,0%);stroke-opacity:1;stroke-miterlimit:10;" d="M 2735.390625 2381.835938 C 2719.765625 2397.460938 2694.453125 2397.460938 2678.828125 2381.835938 C 2663.203125 2366.210938 2663.203125 2340.898438 2678.828125 2325.273438 C 2694.453125 2309.648438 2719.765625 2309.648438 2735.390625 2325.273438 C 2751.015625 2340.898438 2751.015625 2366.210938 2735.390625 2381.835938 Z M 2735.390625 2381.835938 " transform="matrix(0.1,0,0,-0.1,0,400)"/>
<path style=" stroke:none;fill-rule:nonzero;fill:rgb(100%,75%,75%);fill-opacity:1;" d="M 306.066406 129.289062 L 270.710938 93.933594 L 306.066406 58.578125 L 341.421875 93.933594 L 306.066406 129.289062 "/>
<path style="fill:none;stroke-width:10;stroke-linecap:butt;stroke-linejoin:miter;stroke:rgb(0%,0%,0%);stroke-opacity:1;stroke-miterlimit:10;" d="M 3060.664062 2707.109375 L 2707.109375 3060.664062 " transform="matrix(0.1,0,0,-0.1,0,400)"/>
<path style="fill:none;stroke-width:10;stroke-linecap:butt;stroke-linejoin:miter;stroke:rgb(0%,0%,0%);stroke-opacity:1;stroke-miterlimit:10;" d="M 3060.664062 2707.109375 L 3414.21875 3060.664062 " transform="matrix(0.1,0,0,-0.1,0,400)"/>
<path style=" stroke:none;fill-rule:nonzero;fill:rgb(100%,0%,0%);fill-opacity:1;" d="M 308.894531 126.460938 C 307.332031 124.898438 304.800781 124.898438 303.238281 126.460938 C 301.675781 128.023438 301.675781 130.554688 303.238281 132.117188 C 304.800781 133.679688 307.332031 133.679688 308.894531 132.117188 C 310.457031 130.554688 310.457031 128.023438 308.894531 126.460938 "/>
<path style="fill:none;stroke-width:10;stroke-linecap:butt;stroke-linejoin:miter;stroke:rgb(0%,0%,0%);stroke-opacity:1;stroke-miterlimit:10;" d="M 3088.945312 2735.390625 C 3073.320312 2751.015625 3048.007812 2751.015625 3032.382812 2735.390625 C 3016.757812 2719.765625 3016.757812 2694.453125 3032.382812 2678.828125 C 3048.007812 2663.203125 3073.320312 2663.203125 3088.945312 2678.828125 C 3104.570312 2694.453125 3104.570312 2719.765625 3088.945312 2735.390625 Z M 3088.945312 2735.390625 " transform="matrix(0.1,0,0,-0.1,0,400)"/>
<path style="fill:none;stroke-width:10;stroke-linecap:butt;stroke-linejoin:miter;stroke:rgb(0%,0%,0%);stroke-opacity:1;stroke-miterlimit:10;" d="M 3414.21875 3060.664062 L 3060.664062 3414.21875 " transform="matrix(0.1,0,0,-0.1,0,400)"/>
<path style="fill:none;stroke-width:10;stroke-linecap:butt;stroke-linejoin:miter;stroke:rgb(0%,0%,0%);stroke-opacity:1;stroke-miterlimit:10;" d="M 3414.21875 3060.664062 L 3767.773438 3060.664062 " transform="matrix(0.1,0,0,-0.1,0,400)"/>
<path style=" stroke:none;fill-rule:nonzero;fill:rgb(100%,0%,0%);fill-opacity:1;" d="M 379.605469 91.105469 C 378.042969 89.542969 375.511719 89.542969 373.949219 91.105469 C 372.386719 92.667969 372.386719 95.199219 373.949219 96.761719 C 375.511719 98.324219 378.042969 98.324219 379.605469 96.761719 C 381.167969 95.199219 381.167969 92.667969 379.605469 91.105469 "/>
<path style="fill:none;stroke-width:10;stroke-linecap:butt;stroke-linejoin:miter;stroke:rgb(0%,0%,0%);stroke-opacity:1;stroke-miterlimit:10;" d="M 3796.054688 3088.945312 C 3780.429688 3104.570312 3755.117188 3104.570312 3739.492188 3088.945312 C 3723.867188 3073.320312 3723.867188 3048.007812 3739.492188 3032.382812 C 3755.117188 3016.757812 3780.429688 3016.757812 3796.054688 3032.382812 C 3811.679688 3048.007812 3811.679688 3073.320312 3796.054688 3088.945312 Z M 3796.054688 3088.945312 " transform="matrix(0.1,0,0,-0.1,0,400)"/>
<path style=" stroke:none;fill-rule:nonzero;fill:rgb(100%,0%,0%);fill-opacity:1;" d="M 344.25 91.105469 C 342.6875 89.542969 340.15625 89.542969 338.59375 91.105469 C 337.03125 92.667969 337.03125 95.199219 338.59375 96.761719 C 340.15625 98.324219 342.6875 98.324219 344.25 96.761719 C 345.8125 95.199219 345.8125 92.667969 344.25 91.105469 "/>
<path style="fill:none;stroke-width:10;stroke-linecap:butt;stroke-linejoin:miter;stroke:rgb(0%,0%,0%);stroke-opacity:1;stroke-miterlimit:10;" d="M 3442.5 3088.945312 C 3426.875 3104.570312 3401.5625 3104.570312 3385.9375 3088.945312 C 3370.3125 3073.320312 3370.3125 3048.007812 3385.9375 3032.382812 C 3401.5625 3016.757812 3426.875 3016.757812 3442.5 3032.382812 C 3458.125 3048.007812 3458.125 3073.320312 3442.5 3088.945312 Z M 3442.5 3088.945312 " transform="matrix(0.1,0,0,-0.1,0,400)"/>
<path style="fill:none;stroke-width:10;stroke-linecap:butt;stroke-linejoin:miter;stroke:rgb(0%,0%,0%);stroke-opacity:1;stroke-miterlimit:10;" d="M 585.78125 939.335938 L 939.335938 1292.890625 " transform="matrix(0.1,0,0,-0.1,0,400)"/>
<path style="fill:none;stroke-width:10;stroke-linecap:butt;stroke-linejoin:miter;stroke:rgb(0%,0%,0%);stroke-opacity:1;stroke-miterlimit:10;" d="M 585.78125 939.335938 L 232.226562 939.335938 " transform="matrix(0.1,0,0,-0.1,0,400)"/>
<path style=" stroke:none;fill-rule:nonzero;fill:rgb(100%,0%,0%);fill-opacity:1;" d="M 26.050781 303.238281 C 24.488281 301.675781 21.957031 301.675781 20.394531 303.238281 C 18.832031 304.800781 18.832031 307.332031 20.394531 308.894531 C 21.957031 310.457031 24.488281 310.457031 26.050781 308.894531 C 27.613281 307.332031 27.613281 304.800781 26.050781 303.238281 "/>
<path style="fill:none;stroke-width:10;stroke-linecap:butt;stroke-linejoin:miter;stroke:rgb(0%,0%,0%);stroke-opacity:1;stroke-miterlimit:10;" d="M 260.507812 967.617188 C 244.882812 983.242188 219.570312 983.242188 203.945312 967.617188 C 188.320312 951.992188 188.320312 926.679688 203.945312 911.054688 C 219.570312 895.429688 244.882812 895.429688 260.507812 911.054688 C 276.132812 926.679688 276.132812 951.992188 260.507812 967.617188 Z M 260.507812 967.617188 " transform="matrix(0.1,0,0,-0.1,0,400)"/>
<path style=" stroke:none;fill-rule:nonzero;fill:rgb(100%,0%,0%);fill-opacity:1;" d="M 61.40625 303.238281 C 59.84375 301.675781 57.3125 301.675781 55.75 303.238281 C 54.1875 304.800781 54.1875 307.332031 55.75 308.894531 C 57.3125 310.457031 59.84375 310.457031 61.40625 308.894531 C 62.96875 307.332031 62.96875 304.800781 61.40625 303.238281 "/>
<path style="fill:none;stroke-width:10;stroke-linecap:butt;stroke-linejoin:miter;stroke:rgb(0%,0%,0%);stroke-opacity:1;stroke-miterlimit:10;" d="M 614.0625 967.617188 C 598.4375 983.242188 573.125 983.242188 557.5 967.617188 C 541.875 951.992188 541.875 926.679688 557.5 911.054688 C 573.125 895.429688 598.4375 895.429688 614.0625 911.054688 C 629.6875 926.679688 629.6875 951.992188 614.0625 967.617188 Z M 614.0625 967.617188 " transform="matrix(0.1,0,0,-0.1,0,400)"/>
<path style=" stroke:none;fill-rule:nonzero;fill:rgb(100%,75%,75%);fill-opacity:1;" d="M 93.933594 270.710938 L 58.578125 235.355469 L 93.933594 200 L 129.289062 235.355469 L 93.933594 270.710938 "/>
<path style="fill:none;stroke-width:10;stroke-linecap:butt;stroke-linejoin:miter;stroke:rgb(0%,0%,0%);stroke-opacity:1;stroke-miterlimit:10;" d="M 939.335938 1292.890625 L 585.78125 1646.445312 " transform="matrix(0.1,0,0,-0.1,0,400)"/>
<path style="fill:none;stroke-width:10;stroke-linecap:butt;stroke-linejoin:miter;stroke:rgb(0%,0%,0%);stroke-opacity:1;stroke-miterlimit:10;" d="M 939.335938 1292.890625 L 1292.890625 1646.445312 " transform="matrix(0.1,0,0,-0.1,0,400)"/>
<path style=" stroke:none;fill-rule:nonzero;fill:rgb(100%,0%,0%);fill-opacity:1;" d="M 96.761719 267.882812 C 95.199219 266.320312 92.667969 266.320312 91.105469 267.882812 C 89.542969 269.445312 89.542969 271.976562 91.105469 273.539062 C 92.667969 275.101562 95.199219 275.101562 96.761719 273.539062 C 98.324219 271.976562 98.324219 269.445312 96.761719 267.882812 "/>
<path style="fill:none;stroke-width:10;stroke-linecap:butt;stroke-linejoin:miter;stroke:rgb(0%,0%,0%);stroke-opacity:1;stroke-miterlimit:10;" d="M 967.617188 1321.171875 C 951.992188 1336.796875 926.679688 1336.796875 911.054688 1321.171875 C 895.429688 1305.546875 895.429688 1280.234375 911.054688 1264.609375 C 926.679688 1248.984375 951.992188 1248.984375 967.617188 1264.609375 C 983.242188 1280.234375 983.242188 1305.546875 967.617188 1321.171875 Z M 967.617188 1321.171875 " transform="matrix(0.1,0,0,-0.1,0,400)"/>
<path style="fill:none;stroke-width:10;stroke-linecap:butt;stroke-linejoin:miter;stroke:rgb(0%,0%,0%);stroke-opacity:1;stroke-miterlimit:10;" d="M 1292.890625 1646.445312 L 939.335938 2000 " transform="matrix(0.1,0,0,-0.1,0,400)"/>
<path style="fill:none;stroke-width:10;stroke-linecap:butt;stroke-linejoin:miter;stroke:rgb(0%,0%,0%);stroke-opacity:1;stroke-miterlimit:10;" d="M 1292.890625 1646.445312 L 1646.445312 2000 " transform="matrix(0.1,0,0,-0.1,0,400)"/>
<path style=" stroke:none;fill-rule:nonzero;fill:rgb(100%,0%,0%);fill-opacity:1;" d="M 132.117188 232.527344 C 130.554688 230.964844 128.023438 230.964844 126.460938 232.527344 C 124.898438 234.089844 124.898438 236.621094 126.460938 238.183594 C 128.023438 239.746094 130.554688 239.746094 132.117188 238.183594 C 133.679688 236.621094 133.679688 234.089844 132.117188 232.527344 "/>
<path style="fill:none;stroke-width:10;stroke-linecap:butt;stroke-linejoin:miter;stroke:rgb(0%,0%,0%);stroke-opacity:1;stroke-miterlimit:10;" d="M 1321.171875 1674.726562 C 1305.546875 1690.351562 1280.234375 1690.351562 1264.609375 1674.726562 C 1248.984375 1659.101562 1248.984375 1633.789062 1264.609375 1618.164062 C 1280.234375 1602.539062 1305.546875 1602.539062 1321.171875 1618.164062 C 1336.796875 1633.789062 1336.796875 1659.101562 1321.171875 1674.726562 Z M 1321.171875 1674.726562 " transform="matrix(0.1,0,0,-0.1,0,400)"/>
<path style=" stroke:none;fill-rule:nonzero;fill:rgb(100%,75%,75%);fill-opacity:1;" d="M 164.644531 200 L 129.289062 164.644531 L 164.644531 129.289062 L 200 164.644531 L 164.644531 200 "/>
<path style="fill:none;stroke-width:10;stroke-linecap:butt;stroke-linejoin:miter;stroke:rgb(0%,0%,0%);stroke-opacity:1;stroke-miterlimit:10;" d="M 1646.445312 2000 L 1292.890625 2353.554688 " transform="matrix(0.1,0,0,-0.1,0,400)"/>
<path style="fill:none;stroke-width:10;stroke-linecap:butt;stroke-linejoin:miter;stroke:rgb(0%,0%,0%);stroke-opacity:1;stroke-miterlimit:10;" d="M 1646.445312 2000 L 2000 2353.554688 " transform="matrix(0.1,0,0,-0.1,0,400)"/>
<path style=" stroke:none;fill-rule:nonzero;fill:rgb(100%,0%,0%);fill-opacity:1;" d="M 167.472656 197.171875 C 165.910156 195.609375 163.378906 195.609375 161.816406 197.171875 C 160.253906 198.734375 160.253906 201.265625 161.816406 202.828125 C 163.378906 204.390625 165.910156 204.390625 167.472656 202.828125 C 169.035156 201.265625 169.035156 198.734375 167.472656 197.171875 "/>
<path style="fill:none;stroke-width:10;stroke-linecap:butt;stroke-linejoin:miter;stroke:rgb(0%,0%,0%);stroke-opacity:1;stroke-miterlimit:10;" d="M 1674.726562 2028.28125 C 1659.101562 2043.90625 1633.789062 2043.90625 1618.164062 2028.28125 C 1602.539062 2012.65625 1602.539062 1987.34375 1618.164062 1971.71875 C 1633.789062 1956.09375 1659.101562 1956.09375 1674.726562 1971.71875 C 1690.351562 1987.34375 1690.351562 2012.65625 1674.726562 2028.28125 Z M 1674.726562 2028.28125 " transform="matrix(0.1,0,0,-0.1,0,400)"/>
<path style="fill:none;stroke-width:10;stroke-linecap:butt;stroke-linejoin:miter;stroke:rgb(0%,0%,0%);stroke-opacity:1;stroke-miterlimit:10;" d="M 2000 2353.554688 L 1646.445312 2707.109375 " transform="matrix(0.1,0,0,-0.1,0,400)"/>
<path style="fill:none;stroke-width:10;stroke-linecap:butt;stroke-linejoin:miter;stroke:rgb(0%,0%,0%);stroke-opacity:1;stroke-miterlimit:10;" d="M 2000 2353.554688 L 2353.554688 2707.109375 " transform="matrix(0.1,0,0,-0.1,0,400)"/>
<path style=" stroke:none;fill-rule:nonzero;fill:rgb(100%,0%,0%);fill-opacity:1;" d="M 202.828125 161.816406 C 201.265625 160.253906 198.734375 160.253906 197.171875 161.816406 C 195.609375 163.378906 195.609375 165.910156 197.171875 167.472656 C 198.734375 169.035156 201.265625 169.035156 202.828125 167.472656 C 204.390625 165.910156 204.390625 163.378906 202.828125 161.816406 "/>
<path style="fill:none;stroke-width:10;stroke-linecap:butt;stroke-linejoin:miter;stroke:rgb(0%,0%,0%);stroke-opacity:1;stroke-miterlimit:10;" d="M 2028.28125 2381.835938 C 2012.65625 2397.460938 1987.34375 2397.460938 1971.71875 2381.835938 C 1956.09375 2366.210938 1956.09375 2340.898438 1971.71875 2325.273438 C 1987.34375 2309.648438 2012.65625 2309.648438 2028.28125 2325.273438 C 2043.90625 2340.898438 2043.90625 2366.210938 2028.28125 2381.835938 Z M 2028.28125 2381.835938 " transform="matrix(0.1,0,0,-0.1,0,400)"/>
<path style=" stroke:none;fill-rule:nonzero;fill:rgb(100%,75%,75%);fill-opacity:1;" d="M 235.355469 129.289062 L 200 93.933594 L 235.355469 58.578125 L 270.710938 93.933594 L 235.355469 129.289062 "/>
<path style="fill:none;stroke-width:10;stroke-linecap:butt;stroke-linejoin:miter;stroke:rgb(0%,0%,0%);stroke-opacity:1;stroke-miterlimit:10;" d="M 2353.554688 2707.109375 L 2000 3060.664062 " transform="matrix(0.1,0,0,-0.1,0,400)"/>
<path style="fill:none;stroke-width:10;stroke-linecap:butt;stroke-linejoin:miter;stroke:rgb(0%,0%,0%);stroke-opacity:1;stroke-miterlimit:10;" d="M 2353.554688 2707.109375 L 2707.109375 3060.664062 " transform="matrix(0.1,0,0,-0.1,0,400)"/>
<path style=" stroke:none;fill-rule:nonzero;fill:rgb(100%,0%,0%);fill-opacity:1;" d="M 238.183594 126.460938 C 236.621094 124.898438 234.089844 124.898438 232.527344 126.460938 C 230.964844 128.023438 230.964844 130.554688 232.527344 132.117188 C 234.089844 133.679688 236.621094 133.679688 238.183594 132.117188 C 239.746094 130.554688 239.746094 128.023438 238.183594 126.460938 "/>
<path style="fill:none;stroke-width:10;stroke-linecap:butt;stroke-linejoin:miter;stroke:rgb(0%,0%,0%);stroke-opacity:1;stroke-miterlimit:10;" d="M 2381.835938 2735.390625 C 2366.210938 2751.015625 2340.898438 2751.015625 2325.273438 2735.390625 C 2309.648438 2719.765625 2309.648438 2694.453125 2325.273438 2678.828125 C 2340.898438 2663.203125 2366.210938 2663.203125 2381.835938 2678.828125 C 2397.460938 2694.453125 2397.460938 2719.765625 2381.835938 2735.390625 Z M 2381.835938 2735.390625 " transform="matrix(0.1,0,0,-0.1,0,400)"/>
<path style="fill:none;stroke-width:10;stroke-linecap:butt;stroke-linejoin:miter;stroke:rgb(0%,0%,0%);stroke-opacity:1;stroke-miterlimit:10;" d="M 2707.109375 3060.664062 L 2353.554688 3414.21875 " transform="matrix(0.1,0,0,-0.1,0,400)"/>
<path style="fill:none;stroke-width:10;stroke-linecap:butt;stroke-linejoin:miter;stroke:rgb(0%,0%,0%);stroke-opacity:1;stroke-miterlimit:10;" d="M 2707.109375 3060.664062 L 3060.664062 3414.21875 " transform="matrix(0.1,0,0,-0.1,0,400)"/>
<path style=" stroke:none;fill-rule:nonzero;fill:rgb(100%,0%,0%);fill-opacity:1;" d="M 273.539062 91.105469 C 271.976562 89.542969 269.445312 89.542969 267.882812 91.105469 C 266.320312 92.667969 266.320312 95.199219 267.882812 96.761719 C 269.445312 98.324219 271.976562 98.324219 273.539062 96.761719 C 275.101562 95.199219 275.101562 92.667969 273.539062 91.105469 "/>
<path style="fill:none;stroke-width:10;stroke-linecap:butt;stroke-linejoin:miter;stroke:rgb(0%,0%,0%);stroke-opacity:1;stroke-miterlimit:10;" d="M 2735.390625 3088.945312 C 2719.765625 3104.570312 2694.453125 3104.570312 2678.828125 3088.945312 C 2663.203125 3073.320312 2663.203125 3048.007812 2678.828125 3032.382812 C 2694.453125 3016.757812 2719.765625 3016.757812 2735.390625 3032.382812 C 2751.015625 3048.007812 2751.015625 3073.320312 2735.390625 3088.945312 Z M 2735.390625 3088.945312 " transform="matrix(0.1,0,0,-0.1,0,400)"/>
<path style="fill:none;stroke-width:10;stroke-linecap:butt;stroke-linejoin:miter;stroke:rgb(0%,0%,0%);stroke-opacity:1;stroke-miterlimit:10;" d="M 3060.664062 3414.21875 L 3060.664062 3767.773438 " transform="matrix(0.1,0,0,-0.1,0,400)"/>
<path style=" stroke:none;fill-rule:nonzero;fill:rgb(100%,0%,0%);fill-opacity:1;" d="M 308.894531 20.394531 C 307.332031 18.832031 304.800781 18.832031 303.238281 20.394531 C 301.675781 21.957031 301.675781 24.488281 303.238281 26.050781 C 304.800781 27.613281 307.332031 27.613281 308.894531 26.050781 C 310.457031 24.488281 310.457031 21.957031 308.894531 20.394531 "/>
<path style="fill:none;stroke-width:10;stroke-linecap:butt;stroke-linejoin:miter;stroke:rgb(0%,0%,0%);stroke-opacity:1;stroke-miterlimit:10;" d="M 3088.945312 3796.054688 C 3073.320312 3811.679688 3048.007812 3811.679688 3032.382812 3796.054688 C 3016.757812 3780.429688 3016.757812 3755.117188 3032.382812 3739.492188 C 3048.007812 3723.867188 3073.320312 3723.867188 3088.945312 3739.492188 C 3104.570312 3755.117188 3104.570312 3780.429688 3088.945312 3796.054688 Z M 3088.945312 3796.054688 " transform="matrix(0.1,0,0,-0.1,0,400)"/>
<path style=" stroke:none;fill-rule:nonzero;fill:rgb(100%,0%,0%);fill-opacity:1;" d="M 308.894531 55.75 C 307.332031 54.1875 304.800781 54.1875 303.238281 55.75 C 301.675781 57.3125 301.675781 59.84375 303.238281 61.40625 C 304.800781 62.96875 307.332031 62.96875 308.894531 61.40625 C 310.457031 59.84375 310.457031 57.3125 308.894531 55.75 "/>
<path style="fill:none;stroke-width:10;stroke-linecap:butt;stroke-linejoin:miter;stroke:rgb(0%,0%,0%);stroke-opacity:1;stroke-miterlimit:10;" d="M 3088.945312 3442.5 C 3073.320312 3458.125 3048.007812 3458.125 3032.382812 3442.5 C 3016.757812 3426.875 3016.757812 3401.5625 3032.382812 3385.9375 C 3048.007812 3370.3125 3073.320312 3370.3125 3088.945312 3385.9375 C 3104.570312 3401.5625 3104.570312 3426.875 3088.945312 3442.5 Z M 3088.945312 3442.5 " transform="matrix(0.1,0,0,-0.1,0,400)"/>
<path style="fill:none;stroke-width:10;stroke-linecap:butt;stroke-linejoin:miter;stroke:rgb(0%,0%,0%);stroke-opacity:1;stroke-miterlimit:10;" d="M 585.78125 1646.445312 L 939.335938 2000 " transform="matrix(0.1,0,0,-0.1,0,400)"/>
<path style="fill:none;stroke-width:10;stroke-linecap:butt;stroke-linejoin:miter;stroke:rgb(0%,0%,0%);stroke-opacity:1;stroke-miterlimit:10;" d="M 585.78125 1646.445312 L 232.226562 1646.445312 " transform="matrix(0.1,0,0,-0.1,0,400)"/>
<path style=" stroke:none;fill-rule:nonzero;fill:rgb(100%,0%,0%);fill-opacity:1;" d="M 26.050781 232.527344 C 24.488281 230.964844 21.957031 230.964844 20.394531 232.527344 C 18.832031 234.089844 18.832031 236.621094 20.394531 238.183594 C 21.957031 239.746094 24.488281 239.746094 26.050781 238.183594 C 27.613281 236.621094 27.613281 234.089844 26.050781 232.527344 "/>
<path style="fill:none;stroke-width:10;stroke-linecap:butt;stroke-linejoin:miter;stroke:rgb(0%,0%,0%);stroke-opacity:1;stroke-miterlimit:10;" d="M 260.507812 1674.726562 C 244.882812 1690.351562 219.570312 1690.351562 203.945312 1674.726562 C 188.320312 1659.101562 188.320312 1633.789062 203.945312 1618.164062 C 219.570312 1602.539062 244.882812 1602.539062 260.507812 1618.164062 C 276.132812 1633.789062 276.132812 1659.101562 260.507812 1674.726562 Z M 260.507812 1674.726562 " transform="matrix(0.1,0,0,-0.1,0,400)"/>
<path style=" stroke:none;fill-rule:nonzero;fill:rgb(100%,0%,0%);fill-opacity:1;" d="M 61.40625 232.527344 C 59.84375 230.964844 57.3125 230.964844 55.75 232.527344 C 54.1875 234.089844 54.1875 236.621094 55.75 238.183594 C 57.3125 239.746094 59.84375 239.746094 61.40625 238.183594 C 62.96875 236.621094 62.96875 234.089844 61.40625 232.527344 "/>
<path style="fill:none;stroke-width:10;stroke-linecap:butt;stroke-linejoin:miter;stroke:rgb(0%,0%,0%);stroke-opacity:1;stroke-miterlimit:10;" d="M 614.0625 1674.726562 C 598.4375 1690.351562 573.125 1690.351562 557.5 1674.726562 C 541.875 1659.101562 541.875 1633.789062 557.5 1618.164062 C 573.125 1602.539062 598.4375 1602.539062 614.0625 1618.164062 C 629.6875 1633.789062 629.6875 1659.101562 614.0625 1674.726562 Z M 614.0625 1674.726562 " transform="matrix(0.1,0,0,-0.1,0,400)"/>
<path style=" stroke:none;fill-rule:nonzero;fill:rgb(100%,75%,75%);fill-opacity:1;" d="M 93.933594 200 L 58.578125 164.644531 L 93.933594 129.289062 L 129.289062 164.644531 L 93.933594 200 "/>
<path style="fill:none;stroke-width:10;stroke-linecap:butt;stroke-linejoin:miter;stroke:rgb(0%,0%,0%);stroke-opacity:1;stroke-miterlimit:10;" d="M 939.335938 2000 L 585.78125 2353.554688 " transform="matrix(0.1,0,0,-0.1,0,400)"/>
<path style="fill:none;stroke-width:10;stroke-linecap:butt;stroke-linejoin:miter;stroke:rgb(0%,0%,0%);stroke-opacity:1;stroke-miterlimit:10;" d="M 939.335938 2000 L 1292.890625 2353.554688 " transform="matrix(0.1,0,0,-0.1,0,400)"/>
<path style=" stroke:none;fill-rule:nonzero;fill:rgb(100%,0%,0%);fill-opacity:1;" d="M 96.761719 197.171875 C 95.199219 195.609375 92.667969 195.609375 91.105469 197.171875 C 89.542969 198.734375 89.542969 201.265625 91.105469 202.828125 C 92.667969 204.390625 95.199219 204.390625 96.761719 202.828125 C 98.324219 201.265625 98.324219 198.734375 96.761719 197.171875 "/>
<path style="fill:none;stroke-width:10;stroke-linecap:butt;stroke-linejoin:miter;stroke:rgb(0%,0%,0%);stroke-opacity:1;stroke-miterlimit:10;" d="M 967.617188 2028.28125 C 951.992188 2043.90625 926.679688 2043.90625 911.054688 2028.28125 C 895.429688 2012.65625 895.429688 1987.34375 911.054688 1971.71875 C 926.679688 1956.09375 951.992188 1956.09375 967.617188 1971.71875 C 983.242188 1987.34375 983.242188 2012.65625 967.617188 2028.28125 Z M 967.617188 2028.28125 " transform="matrix(0.1,0,0,-0.1,0,400)"/>
<path style="fill:none;stroke-width:10;stroke-linecap:butt;stroke-linejoin:miter;stroke:rgb(0%,0%,0%);stroke-opacity:1;stroke-miterlimit:10;" d="M 1292.890625 2353.554688 L 939.335938 2707.109375 " transform="matrix(0.1,0,0,-0.1,0,400)"/>
<path style="fill:none;stroke-width:10;stroke-linecap:butt;stroke-linejoin:miter;stroke:rgb(0%,0%,0%);stroke-opacity:1;stroke-miterlimit:10;" d="M 1292.890625 2353.554688 L 1646.445312 2707.109375 " transform="matrix(0.1,0,0,-0.1,0,400)"/>
<path style=" stroke:none;fill-rule:nonzero;fill:rgb(100%,0%,0%);fill-opacity:1;" d="M 132.117188 161.816406 C 130.554688 160.253906 128.023438 160.253906 126.460938 161.816406 C 124.898438 163.378906 124.898438 165.910156 126.460938 167.472656 C 128.023438 169.035156 130.554688 169.035156 132.117188 167.472656 C 133.679688 165.910156 133.679688 163.378906 132.117188 161.816406 "/>
<path style="fill:none;stroke-width:10;stroke-linecap:butt;stroke-linejoin:miter;stroke:rgb(0%,0%,0%);stroke-opacity:1;stroke-miterlimit:10;" d="M 1321.171875 2381.835938 C 1305.546875 2397.460938 1280.234375 2397.460938 1264.609375 2381.835938 C 1248.984375 2366.210938 1248.984375 2340.898438 1264.609375 2325.273438 C 1280.234375 2309.648438 1305.546875 2309.648438 1321.171875 2325.273438 C 1336.796875 2340.898438 1336.796875 2366.210938 1321.171875 2381.835938 Z M 1321.171875 2381.835938 " transform="matrix(0.1,0,0,-0.1,0,400)"/>
<path style=" stroke:none;fill-rule:nonzero;fill:rgb(100%,75%,75%);fill-opacity:1;" d="M 164.644531 129.289062 L 129.289062 93.933594 L 164.644531 58.578125 L 200 93.933594 L 164.644531 129.289062 "/>
<path style="fill:none;stroke-width:10;stroke-linecap:butt;stroke-linejoin:miter;stroke:rgb(0%,0%,0%);stroke-opacity:1;stroke-miterlimit:10;" d="M 1646.445312 2707.109375 L 1292.890625 3060.664062 " transform="matrix(0.1,0,0,-0.1,0,400)"/>
<path style="fill:none;stroke-width:10;stroke-linecap:butt;stroke-linejoin:miter;stroke:rgb(0%,0%,0%);stroke-opacity:1;stroke-miterlimit:10;" d="M 1646.445312 2707.109375 L 2000 3060.664062 " transform="matrix(0.1,0,0,-0.1,0,400)"/>
<path style=" stroke:none;fill-rule:nonzero;fill:rgb(100%,0%,0%);fill-opacity:1;" d="M 167.472656 126.460938 C 165.910156 124.898438 163.378906 124.898438 161.816406 126.460938 C 160.253906 128.023438 160.253906 130.554688 161.816406 132.117188 C 163.378906 133.679688 165.910156 133.679688 167.472656 132.117188 C 169.035156 130.554688 169.035156 128.023438 167.472656 126.460938 "/>
<path style="fill:none;stroke-width:10;stroke-linecap:butt;stroke-linejoin:miter;stroke:rgb(0%,0%,0%);stroke-opacity:1;stroke-miterlimit:10;" d="M 1674.726562 2735.390625 C 1659.101562 2751.015625 1633.789062 2751.015625 1618.164062 2735.390625 C 1602.539062 2719.765625 1602.539062 2694.453125 1618.164062 2678.828125 C 1633.789062 2663.203125 1659.101562 2663.203125 1674.726562 2678.828125 C 1690.351562 2694.453125 1690.351562 2719.765625 1674.726562 2735.390625 Z M 1674.726562 2735.390625 " transform="matrix(0.1,0,0,-0.1,0,400)"/>
<path style="fill:none;stroke-width:10;stroke-linecap:butt;stroke-linejoin:miter;stroke:rgb(0%,0%,0%);stroke-opacity:1;stroke-miterlimit:10;" d="M 2000 3060.664062 L 1646.445312 3414.21875 " transform="matrix(0.1,0,0,-0.1,0,400)"/>
<path style="fill:none;stroke-width:10;stroke-linecap:butt;stroke-linejoin:miter;stroke:rgb(0%,0%,0%);stroke-opacity:1;stroke-miterlimit:10;" d="M 2000 3060.664062 L 2353.554688 3414.21875 " transform="matrix(0.1,0,0,-0.1,0,400)"/>
<path style=" stroke:none;fill-rule:nonzero;fill:rgb(100%,0%,0%);fill-opacity:1;" d="M 202.828125 91.105469 C 201.265625 89.542969 198.734375 89.542969 197.171875 91.105469 C 195.609375 92.667969 195.609375 95.199219 197.171875 96.761719 C 198.734375 98.324219 201.265625 98.324219 202.828125 96.761719 C 204.390625 95.199219 204.390625 92.667969 202.828125 91.105469 "/>
<path style="fill:none;stroke-width:10;stroke-linecap:butt;stroke-linejoin:miter;stroke:rgb(0%,0%,0%);stroke-opacity:1;stroke-miterlimit:10;" d="M 2028.28125 3088.945312 C 2012.65625 3104.570312 1987.34375 3104.570312 1971.71875 3088.945312 C 1956.09375 3073.320312 1956.09375 3048.007812 1971.71875 3032.382812 C 1987.34375 3016.757812 2012.65625 3016.757812 2028.28125 3032.382812 C 2043.90625 3048.007812 2043.90625 3073.320312 2028.28125 3088.945312 Z M 2028.28125 3088.945312 " transform="matrix(0.1,0,0,-0.1,0,400)"/>
<path style="fill:none;stroke-width:10;stroke-linecap:butt;stroke-linejoin:miter;stroke:rgb(0%,0%,0%);stroke-opacity:1;stroke-miterlimit:10;" d="M 2353.554688 3414.21875 L 2353.554688 3767.773438 " transform="matrix(0.1,0,0,-0.1,0,400)"/>
<path style=" stroke:none;fill-rule:nonzero;fill:rgb(100%,0%,0%);fill-opacity:1;" d="M 238.183594 20.394531 C 236.621094 18.832031 234.089844 18.832031 232.527344 20.394531 C 230.964844 21.957031 230.964844 24.488281 232.527344 26.050781 C 234.089844 27.613281 236.621094 27.613281 238.183594 26.050781 C 239.746094 24.488281 239.746094 21.957031 238.183594 20.394531 "/>
<path style="fill:none;stroke-width:10;stroke-linecap:butt;stroke-linejoin:miter;stroke:rgb(0%,0%,0%);stroke-opacity:1;stroke-miterlimit:10;" d="M 2381.835938 3796.054688 C 2366.210938 3811.679688 2340.898438 3811.679688 2325.273438 3796.054688 C 2309.648438 3780.429688 2309.648438 3755.117188 2325.273438 3739.492188 C 2340.898438 3723.867188 2366.210938 3723.867188 2381.835938 3739.492188 C 2397.460938 3755.117188 2397.460938 3780.429688 2381.835938 3796.054688 Z M 2381.835938 3796.054688 " transform="matrix(0.1,0,0,-0.1,0,400)"/>
<path style=" stroke:none;fill-rule:nonzero;fill:rgb(100%,0%,0%);fill-opacity:1;" d="M 238.183594 55.75 C 236.621094 54.1875 234.089844 54.1875 232.527344 55.75 C 230.964844 57.3125 230.964844 59.84375 232.527344 61.40625 C 234.089844 62.96875 236.621094 62.96875 238.183594 61.40625 C 239.746094 59.84375 239.746094 57.3125 238.183594 55.75 "/>
<path style="fill:none;stroke-width:10;stroke-linecap:butt;stroke-linejoin:miter;stroke:rgb(0%,0%,0%);stroke-opacity:1;stroke-miterlimit:10;" d="M 2381.835938 3442.5 C 2366.210938 3458.125 2340.898438 3458.125 2325.273438 3442.5 C 2309.648438 3426.875 2309.648438 3401.5625 2325.273438 3385.9375 C 2340.898438 3370.3125 2366.210938 3370.3125 2381.835938 3385.9375 C 2397.460938 3401.5625 2397.460938 3426.875 2381.835938 3442.5 Z M 2381.835938 3442.5 " transform="matrix(0.1,0,0,-0.1,0,400)"/>
<path style="fill:none;stroke-width:10;stroke-linecap:butt;stroke-linejoin:miter;stroke:rgb(0%,0%,0%);stroke-opacity:1;stroke-miterlimit:10;" d="M 585.78125 2353.554688 L 939.335938 2707.109375 " transform="matrix(0.1,0,0,-0.1,0,400)"/>
<path style="fill:none;stroke-width:10;stroke-linecap:butt;stroke-linejoin:miter;stroke:rgb(0%,0%,0%);stroke-opacity:1;stroke-miterlimit:10;" d="M 585.78125 2353.554688 L 232.226562 2353.554688 " transform="matrix(0.1,0,0,-0.1,0,400)"/>
<path style=" stroke:none;fill-rule:nonzero;fill:rgb(100%,0%,0%);fill-opacity:1;" d="M 26.050781 161.816406 C 24.488281 160.253906 21.957031 160.253906 20.394531 161.816406 C 18.832031 163.378906 18.832031 165.910156 20.394531 167.472656 C 21.957031 169.035156 24.488281 169.035156 26.050781 167.472656 C 27.613281 165.910156 27.613281 163.378906 26.050781 161.816406 "/>
<path style="fill:none;stroke-width:10;stroke-linecap:butt;stroke-linejoin:miter;stroke:rgb(0%,0%,0%);stroke-opacity:1;stroke-miterlimit:10;" d="M 260.507812 2381.835938 C 244.882812 2397.460938 219.570312 2397.460938 203.945312 2381.835938 C 188.320312 2366.210938 188.320312 2340.898438 203.945312 2325.273438 C 219.570312 2309.648438 244.882812 2309.648438 260.507812 2325.273438 C 276.132812 2340.898438 276.132812 2366.210938 260.507812 2381.835938 Z M 260.507812 2381.835938 " transform="matrix(0.1,0,0,-0.1,0,400)"/>
<path style=" stroke:none;fill-rule:nonzero;fill:rgb(100%,0%,0%);fill-opacity:1;" d="M 61.40625 161.816406 C 59.84375 160.253906 57.3125 160.253906 55.75 161.816406 C 54.1875 163.378906 54.1875 165.910156 55.75 167.472656 C 57.3125 169.035156 59.84375 169.035156 61.40625 167.472656 C 62.96875 165.910156 62.96875 163.378906 61.40625 161.816406 "/>
<path style="fill:none;stroke-width:10;stroke-linecap:butt;stroke-linejoin:miter;stroke:rgb(0%,0%,0%);stroke-opacity:1;stroke-miterlimit:10;" d="M 614.0625 2381.835938 C 598.4375 2397.460938 573.125 2397.460938 557.5 2381.835938 C 541.875 2366.210938 541.875 2340.898438 557.5 2325.273438 C 573.125 2309.648438 598.4375 2309.648438 614.0625 2325.273438 C 629.6875 2340.898438 629.6875 2366.210938 614.0625 2381.835938 Z M 614.0625 2381.835938 " transform="matrix(0.1,0,0,-0.1,0,400)"/>
<path style=" stroke:none;fill-rule:nonzero;fill:rgb(100%,75%,75%);fill-opacity:1;" d="M 93.933594 129.289062 L 58.578125 93.933594 L 93.933594 58.578125 L 129.289062 93.933594 L 93.933594 129.289062 "/>
<path style="fill:none;stroke-width:10;stroke-linecap:butt;stroke-linejoin:miter;stroke:rgb(0%,0%,0%);stroke-opacity:1;stroke-miterlimit:10;" d="M 939.335938 2707.109375 L 585.78125 3060.664062 " transform="matrix(0.1,0,0,-0.1,0,400)"/>
<path style="fill:none;stroke-width:10;stroke-linecap:butt;stroke-linejoin:miter;stroke:rgb(0%,0%,0%);stroke-opacity:1;stroke-miterlimit:10;" d="M 939.335938 2707.109375 L 1292.890625 3060.664062 " transform="matrix(0.1,0,0,-0.1,0,400)"/>
<path style=" stroke:none;fill-rule:nonzero;fill:rgb(100%,0%,0%);fill-opacity:1;" d="M 96.761719 126.460938 C 95.199219 124.898438 92.667969 124.898438 91.105469 126.460938 C 89.542969 128.023438 89.542969 130.554688 91.105469 132.117188 C 92.667969 133.679688 95.199219 133.679688 96.761719 132.117188 C 98.324219 130.554688 98.324219 128.023438 96.761719 126.460938 "/>
<path style="fill:none;stroke-width:10;stroke-linecap:butt;stroke-linejoin:miter;stroke:rgb(0%,0%,0%);stroke-opacity:1;stroke-miterlimit:10;" d="M 967.617188 2735.390625 C 951.992188 2751.015625 926.679688 2751.015625 911.054688 2735.390625 C 895.429688 2719.765625 895.429688 2694.453125 911.054688 2678.828125 C 926.679688 2663.203125 951.992188 2663.203125 967.617188 2678.828125 C 983.242188 2694.453125 983.242188 2719.765625 967.617188 2735.390625 Z M 967.617188 2735.390625 " transform="matrix(0.1,0,0,-0.1,0,400)"/>
<path style="fill:none;stroke-width:10;stroke-linecap:butt;stroke-linejoin:miter;stroke:rgb(0%,0%,0%);stroke-opacity:1;stroke-miterlimit:10;" d="M 1292.890625 3060.664062 L 939.335938 3414.21875 " transform="matrix(0.1,0,0,-0.1,0,400)"/>
<path style="fill:none;stroke-width:10;stroke-linecap:butt;stroke-linejoin:miter;stroke:rgb(0%,0%,0%);stroke-opacity:1;stroke-miterlimit:10;" d="M 1292.890625 3060.664062 L 1646.445312 3414.21875 " transform="matrix(0.1,0,0,-0.1,0,400)"/>
<path style=" stroke:none;fill-rule:nonzero;fill:rgb(100%,0%,0%);fill-opacity:1;" d="M 132.117188 91.105469 C 130.554688 89.542969 128.023438 89.542969 126.460938 91.105469 C 124.898438 92.667969 124.898438 95.199219 126.460938 96.761719 C 128.023438 98.324219 130.554688 98.324219 132.117188 96.761719 C 133.679688 95.199219 133.679688 92.667969 132.117188 91.105469 "/>
<path style="fill:none;stroke-width:10;stroke-linecap:butt;stroke-linejoin:miter;stroke:rgb(0%,0%,0%);stroke-opacity:1;stroke-miterlimit:10;" d="M 1321.171875 3088.945312 C 1305.546875 3104.570312 1280.234375 3104.570312 1264.609375 3088.945312 C 1248.984375 3073.320312 1248.984375 3048.007812 1264.609375 3032.382812 C 1280.234375 3016.757812 1305.546875 3016.757812 1321.171875 3032.382812 C 1336.796875 3048.007812 1336.796875 3073.320312 1321.171875 3088.945312 Z M 1321.171875 3088.945312 " transform="matrix(0.1,0,0,-0.1,0,400)"/>
<path style="fill:none;stroke-width:10;stroke-linecap:butt;stroke-linejoin:miter;stroke:rgb(0%,0%,0%);stroke-opacity:1;stroke-miterlimit:10;" d="M 1646.445312 3414.21875 L 1646.445312 3767.773438 " transform="matrix(0.1,0,0,-0.1,0,400)"/>
<path style=" stroke:none;fill-rule:nonzero;fill:rgb(100%,0%,0%);fill-opacity:1;" d="M 167.472656 20.394531 C 165.910156 18.832031 163.378906 18.832031 161.816406 20.394531 C 160.253906 21.957031 160.253906 24.488281 161.816406 26.050781 C 163.378906 27.613281 165.910156 27.613281 167.472656 26.050781 C 169.035156 24.488281 169.035156 21.957031 167.472656 20.394531 "/>
<path style="fill:none;stroke-width:10;stroke-linecap:butt;stroke-linejoin:miter;stroke:rgb(0%,0%,0%);stroke-opacity:1;stroke-miterlimit:10;" d="M 1674.726562 3796.054688 C 1659.101562 3811.679688 1633.789062 3811.679688 1618.164062 3796.054688 C 1602.539062 3780.429688 1602.539062 3755.117188 1618.164062 3739.492188 C 1633.789062 3723.867188 1659.101562 3723.867188 1674.726562 3739.492188 C 1690.351562 3755.117188 1690.351562 3780.429688 1674.726562 3796.054688 Z M 1674.726562 3796.054688 " transform="matrix(0.1,0,0,-0.1,0,400)"/>
<path style=" stroke:none;fill-rule:nonzero;fill:rgb(100%,0%,0%);fill-opacity:1;" d="M 167.472656 55.75 C 165.910156 54.1875 163.378906 54.1875 161.816406 55.75 C 160.253906 57.3125 160.253906 59.84375 161.816406 61.40625 C 163.378906 62.96875 165.910156 62.96875 167.472656 61.40625 C 169.035156 59.84375 169.035156 57.3125 167.472656 55.75 "/>
<path style="fill:none;stroke-width:10;stroke-linecap:butt;stroke-linejoin:miter;stroke:rgb(0%,0%,0%);stroke-opacity:1;stroke-miterlimit:10;" d="M 1674.726562 3442.5 C 1659.101562 3458.125 1633.789062 3458.125 1618.164062 3442.5 C 1602.539062 3426.875 1602.539062 3401.5625 1618.164062 3385.9375 C 1633.789062 3370.3125 1659.101562 3370.3125 1674.726562 3385.9375 C 1690.351562 3401.5625 1690.351562 3426.875 1674.726562 3442.5 Z M 1674.726562 3442.5 " transform="matrix(0.1,0,0,-0.1,0,400)"/>
<path style="fill:none;stroke-width:10;stroke-linecap:butt;stroke-linejoin:miter;stroke:rgb(0%,0%,0%);stroke-opacity:1;stroke-miterlimit:10;" d="M 585.78125 3060.664062 L 939.335938 3414.21875 " transform="matrix(0.1,0,0,-0.1,0,400)"/>
<path style="fill:none;stroke-width:10;stroke-linecap:butt;stroke-linejoin:miter;stroke:rgb(0%,0%,0%);stroke-opacity:1;stroke-miterlimit:10;" d="M 585.78125 3060.664062 L 232.226562 3060.664062 " transform="matrix(0.1,0,0,-0.1,0,400)"/>
<path style=" stroke:none;fill-rule:nonzero;fill:rgb(100%,0%,0%);fill-opacity:1;" d="M 26.050781 91.105469 C 24.488281 89.542969 21.957031 89.542969 20.394531 91.105469 C 18.832031 92.667969 18.832031 95.199219 20.394531 96.761719 C 21.957031 98.324219 24.488281 98.324219 26.050781 96.761719 C 27.613281 95.199219 27.613281 92.667969 26.050781 91.105469 "/>
<path style="fill:none;stroke-width:10;stroke-linecap:butt;stroke-linejoin:miter;stroke:rgb(0%,0%,0%);stroke-opacity:1;stroke-miterlimit:10;" d="M 260.507812 3088.945312 C 244.882812 3104.570312 219.570312 3104.570312 203.945312 3088.945312 C 188.320312 3073.320312 188.320312 3048.007812 203.945312 3032.382812 C 219.570312 3016.757812 244.882812 3016.757812 260.507812 3032.382812 C 276.132812 3048.007812 276.132812 3073.320312 260.507812 3088.945312 Z M 260.507812 3088.945312 " transform="matrix(0.1,0,0,-0.1,0,400)"/>
<path style=" stroke:none;fill-rule:nonzero;fill:rgb(100%,0%,0%);fill-opacity:1;" d="M 61.40625 91.105469 C 59.84375 89.542969 57.3125 89.542969 55.75 91.105469 C 54.1875 92.667969 54.1875 95.199219 55.75 96.761719 C 57.3125 98.324219 59.84375 98.324219 61.40625 96.761719 C 62.96875 95.199219 62.96875 92.667969 61.40625 91.105469 "/>
<path style="fill:none;stroke-width:10;stroke-linecap:butt;stroke-linejoin:miter;stroke:rgb(0%,0%,0%);stroke-opacity:1;stroke-miterlimit:10;" d="M 614.0625 3088.945312 C 598.4375 3104.570312 573.125 3104.570312 557.5 3088.945312 C 541.875 3073.320312 541.875 3048.007812 557.5 3032.382812 C 573.125 3016.757812 598.4375 3016.757812 614.0625 3032.382812 C 629.6875 3048.007812 629.6875 3073.320312 614.0625 3088.945312 Z M 614.0625 3088.945312 " transform="matrix(0.1,0,0,-0.1,0,400)"/>
<path style="fill:none;stroke-width:10;stroke-linecap:butt;stroke-linejoin:miter;stroke:rgb(0%,0%,0%);stroke-opacity:1;stroke-miterlimit:10;" d="M 939.335938 3414.21875 L 939.335938 3767.773438 " transform="matrix(0.1,0,0,-0.1,0,400)"/>
<path style=" stroke:none;fill-rule:nonzero;fill:rgb(100%,0%,0%);fill-opacity:1;" d="M 96.761719 20.394531 C 95.199219 18.832031 92.667969 18.832031 91.105469 20.394531 C 89.542969 21.957031 89.542969 24.488281 91.105469 26.050781 C 92.667969 27.613281 95.199219 27.613281 96.761719 26.050781 C 98.324219 24.488281 98.324219 21.957031 96.761719 20.394531 "/>
<path style="fill:none;stroke-width:10;stroke-linecap:butt;stroke-linejoin:miter;stroke:rgb(0%,0%,0%);stroke-opacity:1;stroke-miterlimit:10;" d="M 967.617188 3796.054688 C 951.992188 3811.679688 926.679688 3811.679688 911.054688 3796.054688 C 895.429688 3780.429688 895.429688 3755.117188 911.054688 3739.492188 C 926.679688 3723.867188 951.992188 3723.867188 967.617188 3739.492188 C 983.242188 3755.117188 983.242188 3780.429688 967.617188 3796.054688 Z M 967.617188 3796.054688 " transform="matrix(0.1,0,0,-0.1,0,400)"/>
<path style=" stroke:none;fill-rule:nonzero;fill:rgb(100%,0%,0%);fill-opacity:1;" d="M 96.761719 55.75 C 95.199219 54.1875 92.667969 54.1875 91.105469 55.75 C 89.542969 57.3125 89.542969 59.84375 91.105469 61.40625 C 92.667969 62.96875 95.199219 62.96875 96.761719 61.40625 C 98.324219 59.84375 98.324219 57.3125 96.761719 55.75 "/>
<path style="fill:none;stroke-width:10;stroke-linecap:butt;stroke-linejoin:miter;stroke:rgb(0%,0%,0%);stroke-opacity:1;stroke-miterlimit:10;" d="M 967.617188 3442.5 C 951.992188 3458.125 926.679688 3458.125 911.054688 3442.5 C 895.429688 3426.875 895.429688 3401.5625 911.054688 3385.9375 C 926.679688 3370.3125 951.992188 3370.3125 967.617188 3385.9375 C 983.242188 3401.5625 983.242188 3426.875 967.617188 3442.5 Z M 967.617188 3442.5 " transform="matrix(0.1,0,0,-0.1,0,400)"/>
</g>
</svg>
