<?xml version="1.0" encoding="UTF-8"?>
<svg xmlns="http://www.w3.org/2000/svg" xmlns:xlink="http://www.w3.org/1999/xlink" width="480pt" height="200pt" viewBox="0 0 480 200" version="1.1">
<g id="surface1">
<path style="fill-rule:nonzero;fill:rgb(100%,100%,100%);fill-opacity:1;stroke-width:10;stroke-linecap:butt;stroke-linejoin:miter;stroke:rgb(0%,0%,0%);stroke-opacity:1;stroke-miterlimit:10;" d="M 60 843.984375 L 450 843.984375 L 450 1233.984375 L 60 1233.984375 Z M 60 843.984375 " transform="matrix(0.1,0,0,-0.1,0,200)"/>
<path style="fill-rule:nonzero;fill:rgb(0%,0%,0%);fill-opacity:1;stroke-width:10;stroke-linecap:butt;stroke-linejoin:miter;stroke:rgb(0%,0%,0%);stroke-opacity:1;stroke-miterlimit:10;" d="M 450 843.984375 L 840 843.984375 L 840 1233.984375 L 450 1233.984375 Z M 450 843.984375 " transform="matrix(0.1,0,0,-0.1,0,200)"/>
<path style=" stroke:none;fill-rule:nonzero;fill:rgb(100%,100%,100%);fill-opacity:1;" d="M 45.878906 61 L 45.878906 29.828125 L 49.386719 31.855469 L 45 22 L 40.613281 31.855469 L 44.121094 29.828125 L 44.121094 61 L 45.878906 61 "/>
<path style="fill:none;stroke-width:5;stroke-linecap:butt;stroke-linejoin:miter;stroke:rgb(0%,0%,0%);stroke-opacity:1;stroke-miterlimit:10;" d="M 458.789062 1390 L 458.789062 1701.71875 L 493.867188 1681.445312 L 450 1780 L 406.132812 1681.445312 L 441.210938 1701.71875 L 441.210938 1390 Z M 458.789062 1390 " transform="matrix(0.1,0,0,-0.1,0,200)"/>
<path style="fill-rule:nonzero;fill:rgb(0%,0%,0%);fill-opacity:1;stroke-width:10;stroke-linecap:butt;stroke-linejoin:miter;stroke:rgb(0%,0%,0%);stroke-opacity:1;stroke-miterlimit:10;" d="M 1230 843.984375 L 1620 843.984375 L 1620 1233.984375 L 1230 1233.984375 Z M 1230 843.984375 " transform="matrix(0.1,0,0,-0.1,0,200)"/>
<path style="fill-rule:nonzero;fill:rgb(100%,100%,100%);fill-opacity:1;stroke-width:10;stroke-linecap:butt;stroke-linejoin:miter;stroke:rgb(0%,0%,0%);stroke-opacity:1;stroke-miterlimit:10;" d="M 1620 843.984375 L 2010 843.984375 L 2010 1233.984375 L 1620 1233.984375 Z M 1620 843.984375 " transform="matrix(0.1,0,0,-0.1,0,200)"/>
<path style=" stroke:none;fill-rule:nonzero;fill:rgb(100%,100%,100%);fill-opacity:1;" d="M 161.121094 131.199219 L 161.121094 162.371094 L 157.613281 160.34375 L 162 170.199219 L 166.386719 160.34375 L 162.878906 162.371094 L 162.878906 131.199219 L 161.121094 131.199219 "/>
<path style="fill:none;stroke-width:5;stroke-linecap:butt;stroke-linejoin:miter;stroke:rgb(0%,0%,0%);stroke-opacity:1;stroke-miterlimit:10;" d="M 1611.210938 688.007812 L 1611.210938 376.289062 L 1576.132812 396.5625 L 1620 298.007812 L 1663.867188 396.5625 L 1628.789062 376.289062 L 1628.789062 688.007812 Z M 1611.210938 688.007812 " transform="matrix(0.1,0,0,-0.1,0,200)"/>
<path style="fill-rule:nonzero;fill:rgb(100%,100%,100%);fill-opacity:1;stroke-width:10;stroke-linecap:butt;stroke-linejoin:miter;stroke:rgb(0%,0%,0%);stroke-opacity:1;stroke-miterlimit:10;" d="M 2790 1038.984375 L 3180 1038.984375 L 3180 1428.984375 L 2790 1428.984375 Z M 2790 1038.984375 " transform="matrix(0.1,0,0,-0.1,0,200)"/>
<path style="fill-rule:nonzero;fill:rgb(0%,0%,0%);fill-opacity:1;stroke-width:10;stroke-linecap:butt;stroke-linejoin:miter;stroke:rgb(0%,0%,0%);stroke-opacity:1;stroke-miterlimit:10;" d="M 2790 648.984375 L 3180 648.984375 L 3180 1038.984375 L 2790 1038.984375 Z M 2790 648.984375 " transform="matrix(0.1,0,0,-0.1,0,200)"/>
<path style=" stroke:none;fill-rule:nonzero;fill:rgb(100%,100%,100%);fill-opacity:1;" d="M 263.398438 95.222656 L 232.226562 95.222656 L 234.253906 91.710938 L 224.398438 96.101562 L 234.253906 100.488281 L 232.226562 96.976562 L 263.398438 96.976562 L 263.398438 95.222656 "/>
<path style="fill:none;stroke-width:5;stroke-linecap:butt;stroke-linejoin:miter;stroke:rgb(0%,0%,0%);stroke-opacity:1;stroke-miterlimit:10;" d="M 2633.984375 1047.773438 L 2322.265625 1047.773438 L 2342.539062 1082.890625 L 2243.984375 1038.984375 L 2342.539062 995.117188 L 2322.265625 1030.234375 L 2633.984375 1030.234375 Z M 2633.984375 1047.773438 " transform="matrix(0.1,0,0,-0.1,0,200)"/>
<path style="fill-rule:nonzero;fill:rgb(0%,0%,0%);fill-opacity:1;stroke-width:10;stroke-linecap:butt;stroke-linejoin:miter;stroke:rgb(0%,0%,0%);stroke-opacity:1;stroke-miterlimit:10;" d="M 3570 1038.984375 L 3960 1038.984375 L 3960 1428.984375 L 3570 1428.984375 Z M 3570 1038.984375 " transform="matrix(0.1,0,0,-0.1,0,200)"/>
<path style="fill-rule:nonzero;fill:rgb(100%,100%,100%);fill-opacity:1;stroke-width:10;stroke-linecap:butt;stroke-linejoin:miter;stroke:rgb(0%,0%,0%);stroke-opacity:1;stroke-miterlimit:10;" d="M 3570 648.984375 L 3960 648.984375 L 3960 1038.984375 L 3570 1038.984375 Z M 3570 648.984375 " transform="matrix(0.1,0,0,-0.1,0,200)"/>
<path style=" stroke:none;fill-rule:nonzero;fill:rgb(100%,100%,100%);fill-opacity:1;" d="M 411.601562 96.976562 L 442.773438 96.976562 L 440.746094 100.488281 L 450.601562 96.101562 L 440.746094 91.710938 L 442.773438 95.222656 L 411.601562 95.222656 L 411.601562 96.976562 "/>
<path style="fill:none;stroke-width:5;stroke-linecap:butt;stroke-linejoin:miter;stroke:rgb(0%,0%,0%);stroke-opacity:1;stroke-miterlimit:10;" d="M 4116.015625 1030.234375 L 4427.734375 1030.234375 L 4407.460938 995.117188 L 4506.015625 1038.984375 L 4407.460938 1082.890625 L 4427.734375 1047.773438 L 4116.015625 1047.773438 Z M 4116.015625 1030.234375 " transform="matrix(0.1,0,0,-0.1,0,200)"/>
</g>
</svg>
