<?xml version="1.0" encoding="UTF-8"?>
<svg xmlns="http://www.w3.org/2000/svg" xmlns:xlink="http://www.w3.org/1999/xlink" width="600pt" height="200pt" viewBox="0 0 600 200" version="1.2">
<g id="surface1">
<path style="fill:none;stroke-width:10;stroke-linecap:butt;stroke-linejoin:miter;stroke:rgb(0%,0%,100%);stroke-opacity:1;stroke-miterlimit:10;" d="M 750 1500 L 250 1000 " transform="matrix(0.1,0,0,-0.1,0,200)"/>
<path style="fill:none;stroke-width:10;stroke-linecap:butt;stroke-linejoin:miter;stroke:rgb(0%,0%,0%);stroke-opacity:1;stroke-dasharray:40,40;stroke-miterlimit:10;" d="M 750 500 L 1250 1000 " transform="matrix(0.1,0,0,-0.1,0,200)"/>
<path style="fill:none;stroke-width:10;stroke-linecap:butt;stroke-linejoin:miter;stroke:rgb(0%,0%,0%);stroke-opacity:1;stroke-dasharray:40,40;stroke-miterlimit:10;" d="M 1250 1000 L 750 1500 " transform="matrix(0.1,0,0,-0.1,0,200)"/>
<path style="fill:none;stroke-width:10;stroke-linecap:butt;stroke-linejoin:miter;stroke:rgb(0%,0%,0%);stroke-opacity:1;stroke-dasharray:40,40;stroke-miterlimit:10;" d="M 750 500 L 250 1000 " transform="matrix(0.1,0,0,-0.1,0,200)"/>
<path style="fill:none;stroke-width:10;stroke-linecap:butt;stroke-linejoin:miter;stroke:rgb(0%,0%,0%);stroke-opacity:1;stroke-miterlimit:10;" d="M 1250 1000 L 1400 1000 " transform="matrix(0.1,0,0,-0.1,0,200)"/>
<path style="fill:none;stroke-width:10;stroke-linecap:butt;stroke-linejoin:miter;stroke:rgb(0%,0%,0%);stroke-opacity:1;stroke-miterlimit:10;" d="M 1250 1000 L 1356.054688 1106.054688 " transform="matrix(0.1,0,0,-0.1,0,200)"/>
<path style="fill:none;stroke-width:10;stroke-linecap:butt;stroke-linejoin:miter;stroke:rgb(0%,0%,0%);stroke-opacity:1;stroke-miterlimit:10;" d="M 1250 1000 L 1356.054688 893.945312 " transform="matrix(0.1,0,0,-0.1,0,200)"/>
<path style="fill:none;stroke-width:10;stroke-linecap:butt;stroke-linejoin:miter;stroke:rgb(0%,0%,0%);stroke-opacity:1;stroke-miterlimit:10;" d="M 750 1500 L 750 1650 " transform="matrix(0.1,0,0,-0.1,0,200)"/>
<path style="fill:none;stroke-width:10;stroke-linecap:butt;stroke-linejoin:miter;stroke:rgb(0%,0%,0%);stroke-opacity:1;stroke-miterlimit:10;" d="M 750 1500 L 643.945312 1606.054688 " transform="matrix(0.1,0,0,-0.1,0,200)"/>
<path style="fill:none;stroke-width:10;stroke-linecap:butt;stroke-linejoin:miter;stroke:rgb(0%,0%,0%);stroke-opacity:1;stroke-miterlimit:10;" d="M 750 1500 L 856.054688 1606.054688 " transform="matrix(0.1,0,0,-0.1,0,200)"/>
<path style="fill:none;stroke-width:10;stroke-linecap:butt;stroke-linejoin:miter;stroke:rgb(0%,0%,0%);stroke-opacity:1;stroke-miterlimit:10;" d="M 250 1000 L 100 1000 " transform="matrix(0.1,0,0,-0.1,0,200)"/>
<path style="fill:none;stroke-width:10;stroke-linecap:butt;stroke-linejoin:miter;stroke:rgb(0%,0%,0%);stroke-opacity:1;stroke-miterlimit:10;" d="M 250 1000 L 143.945312 893.945312 " transform="matrix(0.1,0,0,-0.1,0,200)"/>
<path style="fill:none;stroke-width:10;stroke-linecap:butt;stroke-linejoin:miter;stroke:rgb(0%,0%,0%);stroke-opacity:1;stroke-miterlimit:10;" d="M 250 1000 L 143.945312 1106.054688 " transform="matrix(0.1,0,0,-0.1,0,200)"/>
<path style="fill:none;stroke-width:10;stroke-linecap:butt;stroke-linejoin:miter;stroke:rgb(0%,0%,0%);stroke-opacity:1;stroke-miterlimit:10;" d="M 750 500 L 750 350 " transform="matrix(0.1,0,0,-0.1,0,200)"/>
<path style="fill:none;stroke-width:10;stroke-linecap:butt;stroke-linejoin:miter;stroke:rgb(0%,0%,0%);stroke-opacity:1;stroke-miterlimit:10;" d="M 750 500 L 856.054688 393.945312 " transform="matrix(0.1,0,0,-0.1,0,200)"/>
<path style="fill:none;stroke-width:10;stroke-linecap:butt;stroke-linejoin:miter;stroke:rgb(0%,0%,0%);stroke-opacity:1;stroke-miterlimit:10;" d="M 750 500 L 643.945312 393.945312 " transform="matrix(0.1,0,0,-0.1,0,200)"/>
<path style=" stroke:none;fill-rule:nonzero;fill:rgb(100%,0%,0%);fill-opacity:1;" d="M 78.5 50 C 78.5 48.066406 76.933594 46.5 75 46.5 C 73.066406 46.5 71.5 48.066406 71.5 50 C 71.5 51.933594 73.066406 53.5 75 53.5 C 76.933594 53.5 78.5 51.933594 78.5 50 "/>
<path style="fill:none;stroke-width:10;stroke-linecap:butt;stroke-linejoin:miter;stroke:rgb(0%,0%,0%);stroke-opacity:1;stroke-miterlimit:10;" d="M 785 1500 C 785 1519.335938 769.335938 1535 750 1535 C 730.664062 1535 715 1519.335938 715 1500 C 715 1480.664062 730.664062 1465 750 1465 C 769.335938 1465 785 1480.664062 785 1500 Z M 785 1500 " transform="matrix(0.1,0,0,-0.1,0,200)"/>
<path style=" stroke:none;fill-rule:nonzero;fill:rgb(100%,0%,0%);fill-opacity:1;" d="M 128.5 100 C 128.5 98.066406 126.933594 96.5 125 96.5 C 123.066406 96.5 121.5 98.066406 121.5 100 C 121.5 101.933594 123.066406 103.5 125 103.5 C 126.933594 103.5 128.5 101.933594 128.5 100 "/>
<path style="fill:none;stroke-width:10;stroke-linecap:butt;stroke-linejoin:miter;stroke:rgb(0%,0%,0%);stroke-opacity:1;stroke-miterlimit:10;" d="M 1285 1000 C 1285 1019.335938 1269.335938 1035 1250 1035 C 1230.664062 1035 1215 1019.335938 1215 1000 C 1215 980.664062 1230.664062 965 1250 965 C 1269.335938 965 1285 980.664062 1285 1000 Z M 1285 1000 " transform="matrix(0.1,0,0,-0.1,0,200)"/>
<path style=" stroke:none;fill-rule:nonzero;fill:rgb(100%,0%,0%);fill-opacity:1;" d="M 78.5 150 C 78.5 148.066406 76.933594 146.5 75 146.5 C 73.066406 146.5 71.5 148.066406 71.5 150 C 71.5 151.933594 73.066406 153.5 75 153.5 C 76.933594 153.5 78.5 151.933594 78.5 150 "/>
<path style="fill:none;stroke-width:10;stroke-linecap:butt;stroke-linejoin:miter;stroke:rgb(0%,0%,0%);stroke-opacity:1;stroke-miterlimit:10;" d="M 785 500 C 785 519.335938 769.335938 535 750 535 C 730.664062 535 715 519.335938 715 500 C 715 480.664062 730.664062 465 750 465 C 769.335938 465 785 480.664062 785 500 Z M 785 500 " transform="matrix(0.1,0,0,-0.1,0,200)"/>
<path style=" stroke:none;fill-rule:nonzero;fill:rgb(100%,0%,0%);fill-opacity:1;" d="M 28.5 100 C 28.5 98.066406 26.933594 96.5 25 96.5 C 23.066406 96.5 21.5 98.066406 21.5 100 C 21.5 101.933594 23.066406 103.5 25 103.5 C 26.933594 103.5 28.5 101.933594 28.5 100 "/>
<path style="fill:none;stroke-width:10;stroke-linecap:butt;stroke-linejoin:miter;stroke:rgb(0%,0%,0%);stroke-opacity:1;stroke-miterlimit:10;" d="M 285 1000 C 285 1019.335938 269.335938 1035 250 1035 C 230.664062 1035 215 1019.335938 215 1000 C 215 980.664062 230.664062 965 250 965 C 269.335938 965 285 980.664062 285 1000 Z M 285 1000 " transform="matrix(0.1,0,0,-0.1,0,200)"/>
<path style="fill:none;stroke-width:10;stroke-linecap:butt;stroke-linejoin:miter;stroke:rgb(0%,0%,100%);stroke-opacity:1;stroke-miterlimit:10;" d="M 3500 1000 L 3000 500 " transform="matrix(0.1,0,0,-0.1,0,200)"/>
<path style="fill:none;stroke-width:10;stroke-linecap:butt;stroke-linejoin:miter;stroke:rgb(0%,0%,0%);stroke-opacity:1;stroke-dasharray:40,40;stroke-miterlimit:10;" d="M 3000 1500 L 2500 1000 " transform="matrix(0.1,0,0,-0.1,0,200)"/>
<path style="fill:none;stroke-width:10;stroke-linecap:butt;stroke-linejoin:miter;stroke:rgb(0%,0%,0%);stroke-opacity:1;stroke-dasharray:40,40;stroke-miterlimit:10;" d="M 3500 1000 L 3000 1500 " transform="matrix(0.1,0,0,-0.1,0,200)"/>
<path style="fill:none;stroke-width:10;stroke-linecap:butt;stroke-linejoin:miter;stroke:rgb(0%,0%,0%);stroke-opacity:1;stroke-dasharray:40,40;stroke-miterlimit:10;" d="M 2500 1000 L 3000 500 " transform="matrix(0.1,0,0,-0.1,0,200)"/>
<path style="fill:none;stroke-width:10;stroke-linecap:butt;stroke-linejoin:miter;stroke:rgb(0%,0%,0%);stroke-opacity:1;stroke-miterlimit:10;" d="M 3700 1000 L 3850 1000 " transform="matrix(0.1,0,0,-0.1,0,200)"/>
<path style="fill:none;stroke-width:10;stroke-linecap:butt;stroke-linejoin:miter;stroke:rgb(0%,0%,0%);stroke-opacity:1;stroke-miterlimit:10;" d="M 3700 1000 L 3806.054688 1106.054688 " transform="matrix(0.1,0,0,-0.1,0,200)"/>
<path style="fill:none;stroke-width:10;stroke-linecap:butt;stroke-linejoin:miter;stroke:rgb(0%,0%,0%);stroke-opacity:1;stroke-miterlimit:10;" d="M 3700 1000 L 3806.054688 893.945312 " transform="matrix(0.1,0,0,-0.1,0,200)"/>
<path style="fill:none;stroke-width:10;stroke-linecap:butt;stroke-linejoin:miter;stroke:rgb(0%,0%,0%);stroke-opacity:1;stroke-miterlimit:10;" d="M 3000 1700 L 3000 1850 " transform="matrix(0.1,0,0,-0.1,0,200)"/>
<path style="fill:none;stroke-width:10;stroke-linecap:butt;stroke-linejoin:miter;stroke:rgb(0%,0%,0%);stroke-opacity:1;stroke-miterlimit:10;" d="M 3000 1700 L 2893.945312 1806.054688 " transform="matrix(0.1,0,0,-0.1,0,200)"/>
<path style="fill:none;stroke-width:10;stroke-linecap:butt;stroke-linejoin:miter;stroke:rgb(0%,0%,0%);stroke-opacity:1;stroke-miterlimit:10;" d="M 3000 1700 L 3106.054688 1806.054688 " transform="matrix(0.1,0,0,-0.1,0,200)"/>
<path style="fill:none;stroke-width:10;stroke-linecap:butt;stroke-linejoin:miter;stroke:rgb(0%,0%,0%);stroke-opacity:1;stroke-miterlimit:10;" d="M 2300 1000 L 2150 1000 " transform="matrix(0.1,0,0,-0.1,0,200)"/>
<path style="fill:none;stroke-width:10;stroke-linecap:butt;stroke-linejoin:miter;stroke:rgb(0%,0%,0%);stroke-opacity:1;stroke-miterlimit:10;" d="M 2300 1000 L 2193.945312 893.945312 " transform="matrix(0.1,0,0,-0.1,0,200)"/>
<path style="fill:none;stroke-width:10;stroke-linecap:butt;stroke-linejoin:miter;stroke:rgb(0%,0%,0%);stroke-opacity:1;stroke-miterlimit:10;" d="M 2300 1000 L 2193.945312 1106.054688 " transform="matrix(0.1,0,0,-0.1,0,200)"/>
<path style="fill:none;stroke-width:10;stroke-linecap:butt;stroke-linejoin:miter;stroke:rgb(0%,0%,0%);stroke-opacity:1;stroke-miterlimit:10;" d="M 3000 300 L 3000 150 " transform="matrix(0.1,0,0,-0.1,0,200)"/>
<path style="fill:none;stroke-width:10;stroke-linecap:butt;stroke-linejoin:miter;stroke:rgb(0%,0%,0%);stroke-opacity:1;stroke-miterlimit:10;" d="M 3000 300 L 3106.054688 193.945312 " transform="matrix(0.1,0,0,-0.1,0,200)"/>
<path style="fill:none;stroke-width:10;stroke-linecap:butt;stroke-linejoin:miter;stroke:rgb(0%,0%,0%);stroke-opacity:1;stroke-miterlimit:10;" d="M 3000 300 L 2893.945312 193.945312 " transform="matrix(0.1,0,0,-0.1,0,200)"/>
<path style="fill:none;stroke-width:10;stroke-linecap:butt;stroke-linejoin:miter;stroke:rgb(0%,0%,100%);stroke-opacity:1;stroke-miterlimit:10;" d="M 3000 1700 L 3000 1500 " transform="matrix(0.1,0,0,-0.1,0,200)"/>
<path style="fill:none;stroke-width:10;stroke-linecap:butt;stroke-linejoin:miter;stroke:rgb(0%,0%,100%);stroke-opacity:1;stroke-miterlimit:10;" d="M 2300 1000 L 2500 1000 " transform="matrix(0.1,0,0,-0.1,0,200)"/>
<path style="fill:none;stroke-width:10;stroke-linecap:butt;stroke-linejoin:miter;stroke:rgb(0%,0%,0%);stroke-opacity:1;stroke-dasharray:40,40;stroke-miterlimit:10;" d="M 3000 300 L 3000 500 " transform="matrix(0.1,0,0,-0.1,0,200)"/>
<path style="fill:none;stroke-width:10;stroke-linecap:butt;stroke-linejoin:miter;stroke:rgb(0%,0%,0%);stroke-opacity:1;stroke-dasharray:40,40;stroke-miterlimit:10;" d="M 3700 1000 L 3500 1000 " transform="matrix(0.1,0,0,-0.1,0,200)"/>
<path style=" stroke:none;fill-rule:nonzero;fill:rgb(100%,0%,0%);fill-opacity:1;" d="M 373.5 100 C 373.5 98.066406 371.933594 96.5 370 96.5 C 368.066406 96.5 366.5 98.066406 366.5 100 C 366.5 101.933594 368.066406 103.5 370 103.5 C 371.933594 103.5 373.5 101.933594 373.5 100 "/>
<path style="fill:none;stroke-width:10;stroke-linecap:butt;stroke-linejoin:miter;stroke:rgb(0%,0%,0%);stroke-opacity:1;stroke-miterlimit:10;" d="M 3735 1000 C 3735 1019.335938 3719.335938 1035 3700 1035 C 3680.664062 1035 3665 1019.335938 3665 1000 C 3665 980.664062 3680.664062 965 3700 965 C 3719.335938 965 3735 980.664062 3735 1000 Z M 3735 1000 " transform="matrix(0.1,0,0,-0.1,0,200)"/>
<path style=" stroke:none;fill-rule:nonzero;fill:rgb(100%,0%,0%);fill-opacity:1;" d="M 303.5 30 C 303.5 28.066406 301.933594 26.5 300 26.5 C 298.066406 26.5 296.5 28.066406 296.5 30 C 296.5 31.933594 298.066406 33.5 300 33.5 C 301.933594 33.5 303.5 31.933594 303.5 30 "/>
<path style="fill:none;stroke-width:10;stroke-linecap:butt;stroke-linejoin:miter;stroke:rgb(0%,0%,0%);stroke-opacity:1;stroke-miterlimit:10;" d="M 3035 1700 C 3035 1719.335938 3019.335938 1735 3000 1735 C 2980.664062 1735 2965 1719.335938 2965 1700 C 2965 1680.664062 2980.664062 1665 3000 1665 C 3019.335938 1665 3035 1680.664062 3035 1700 Z M 3035 1700 " transform="matrix(0.1,0,0,-0.1,0,200)"/>
<path style=" stroke:none;fill-rule:nonzero;fill:rgb(100%,0%,0%);fill-opacity:1;" d="M 233.5 100 C 233.5 98.066406 231.933594 96.5 230 96.5 C 228.066406 96.5 226.5 98.066406 226.5 100 C 226.5 101.933594 228.066406 103.5 230 103.5 C 231.933594 103.5 233.5 101.933594 233.5 100 "/>
<path style="fill:none;stroke-width:10;stroke-linecap:butt;stroke-linejoin:miter;stroke:rgb(0%,0%,0%);stroke-opacity:1;stroke-miterlimit:10;" d="M 2335 1000 C 2335 1019.335938 2319.335938 1035 2300 1035 C 2280.664062 1035 2265 1019.335938 2265 1000 C 2265 980.664062 2280.664062 965 2300 965 C 2319.335938 965 2335 980.664062 2335 1000 Z M 2335 1000 " transform="matrix(0.1,0,0,-0.1,0,200)"/>
<path style=" stroke:none;fill-rule:nonzero;fill:rgb(100%,0%,0%);fill-opacity:1;" d="M 303.5 170 C 303.5 168.066406 301.933594 166.5 300 166.5 C 298.066406 166.5 296.5 168.066406 296.5 170 C 296.5 171.933594 298.066406 173.5 300 173.5 C 301.933594 173.5 303.5 171.933594 303.5 170 "/>
<path style="fill:none;stroke-width:10;stroke-linecap:butt;stroke-linejoin:miter;stroke:rgb(0%,0%,0%);stroke-opacity:1;stroke-miterlimit:10;" d="M 3035 300 C 3035 319.335938 3019.335938 335 3000 335 C 2980.664062 335 2965 319.335938 2965 300 C 2965 280.664062 2980.664062 265 3000 265 C 3019.335938 265 3035 280.664062 3035 300 Z M 3035 300 " transform="matrix(0.1,0,0,-0.1,0,200)"/>
<path style=" stroke:none;fill-rule:nonzero;fill:rgb(100%,0%,0%);fill-opacity:1;" d="M 353.5 100 C 353.5 98.066406 351.933594 96.5 350 96.5 C 348.066406 96.5 346.5 98.066406 346.5 100 C 346.5 101.933594 348.066406 103.5 350 103.5 C 351.933594 103.5 353.5 101.933594 353.5 100 "/>
<path style="fill:none;stroke-width:10;stroke-linecap:butt;stroke-linejoin:miter;stroke:rgb(0%,0%,0%);stroke-opacity:1;stroke-miterlimit:10;" d="M 3535 1000 C 3535 1019.335938 3519.335938 1035 3500 1035 C 3480.664062 1035 3465 1019.335938 3465 1000 C 3465 980.664062 3480.664062 965 3500 965 C 3519.335938 965 3535 980.664062 3535 1000 Z M 3535 1000 " transform="matrix(0.1,0,0,-0.1,0,200)"/>
<path style=" stroke:none;fill-rule:nonzero;fill:rgb(100%,0%,0%);fill-opacity:1;" d="M 303.5 50 C 303.5 48.066406 301.933594 46.5 300 46.5 C 298.066406 46.5 296.5 48.066406 296.5 50 C 296.5 51.933594 298.066406 53.5 300 53.5 C 301.933594 53.5 303.5 51.933594 303.5 50 "/>
<path style="fill:none;stroke-width:10;stroke-linecap:butt;stroke-linejoin:miter;stroke:rgb(0%,0%,0%);stroke-opacity:1;stroke-miterlimit:10;" d="M 3035 1500 C 3035 1519.335938 3019.335938 1535 3000 1535 C 2980.664062 1535 2965 1519.335938 2965 1500 C 2965 1480.664062 2980.664062 1465 3000 1465 C 3019.335938 1465 3035 1480.664062 3035 1500 Z M 3035 1500 " transform="matrix(0.1,0,0,-0.1,0,200)"/>
<path style=" stroke:none;fill-rule:nonzero;fill:rgb(100%,0%,0%);fill-opacity:1;" d="M 253.5 100 C 253.5 98.066406 251.933594 96.5 250 96.5 C 248.066406 96.5 246.5 98.066406 246.5 100 C 246.5 101.933594 248.066406 103.5 250 103.5 C 251.933594 103.5 253.5 101.933594 253.5 100 "/>
<path style="fill:none;stroke-width:10;stroke-linecap:butt;stroke-linejoin:miter;stroke:rgb(0%,0%,0%);stroke-opacity:1;stroke-miterlimit:10;" d="M 2535 1000 C 2535 1019.335938 2519.335938 1035 2500 1035 C 2480.664062 1035 2465 1019.335938 2465 1000 C 2465 980.664062 2480.664062 965 2500 965 C 2519.335938 965 2535 980.664062 2535 1000 Z M 2535 1000 " transform="matrix(0.1,0,0,-0.1,0,200)"/>
<path style=" stroke:none;fill-rule:nonzero;fill:rgb(100%,0%,0%);fill-opacity:1;" d="M 303.5 150 C 303.5 148.066406 301.933594 146.5 300 146.5 C 298.066406 146.5 296.5 148.066406 296.5 150 C 296.5 151.933594 298.066406 153.5 300 153.5 C 301.933594 153.5 303.5 151.933594 303.5 150 "/>
<path style="fill:none;stroke-width:10;stroke-linecap:butt;stroke-linejoin:miter;stroke:rgb(0%,0%,0%);stroke-opacity:1;stroke-miterlimit:10;" d="M 3035 500 C 3035 519.335938 3019.335938 535 3000 535 C 2980.664062 535 2965 519.335938 2965 500 C 2965 480.664062 2980.664062 465 3000 465 C 3019.335938 465 3035 480.664062 3035 500 Z M 3035 500 " transform="matrix(0.1,0,0,-0.1,0,200)"/>
<path style="fill:none;stroke-width:10;stroke-linecap:butt;stroke-linejoin:miter;stroke:rgb(0%,0%,0%);stroke-opacity:1;stroke-dasharray:40,40;stroke-miterlimit:10;" d="M 5250 1500 L 4750 1000 " transform="matrix(0.1,0,0,-0.1,0,200)"/>
<path style="fill:none;stroke-width:10;stroke-linecap:butt;stroke-linejoin:miter;stroke:rgb(0%,0%,100%);stroke-opacity:1;stroke-miterlimit:10;" d="M 5250 500 L 5750 1000 " transform="matrix(0.1,0,0,-0.1,0,200)"/>
<path style="fill:none;stroke-width:10;stroke-linecap:butt;stroke-linejoin:miter;stroke:rgb(0%,0%,0%);stroke-opacity:1;stroke-dasharray:40,40;stroke-miterlimit:10;" d="M 5750 1000 L 5250 1500 " transform="matrix(0.1,0,0,-0.1,0,200)"/>
<path style="fill:none;stroke-width:10;stroke-linecap:butt;stroke-linejoin:miter;stroke:rgb(0%,0%,0%);stroke-opacity:1;stroke-dasharray:40,40;stroke-miterlimit:10;" d="M 4750 1000 L 5250 500 " transform="matrix(0.1,0,0,-0.1,0,200)"/>
<path style="fill:none;stroke-width:10;stroke-linecap:butt;stroke-linejoin:miter;stroke:rgb(0%,0%,0%);stroke-opacity:1;stroke-miterlimit:10;" d="M 5750 1000 L 5900 1000 " transform="matrix(0.1,0,0,-0.1,0,200)"/>
<path style="fill:none;stroke-width:10;stroke-linecap:butt;stroke-linejoin:miter;stroke:rgb(0%,0%,0%);stroke-opacity:1;stroke-miterlimit:10;" d="M 5750 1000 L 5856.054688 1106.054688 " transform="matrix(0.1,0,0,-0.1,0,200)"/>
<path style="fill:none;stroke-width:10;stroke-linecap:butt;stroke-linejoin:miter;stroke:rgb(0%,0%,0%);stroke-opacity:1;stroke-miterlimit:10;" d="M 5750 1000 L 5856.054688 893.945312 " transform="matrix(0.1,0,0,-0.1,0,200)"/>
<path style="fill:none;stroke-width:10;stroke-linecap:butt;stroke-linejoin:miter;stroke:rgb(0%,0%,0%);stroke-opacity:1;stroke-miterlimit:10;" d="M 5250 1500 L 5250 1650 " transform="matrix(0.1,0,0,-0.1,0,200)"/>
<path style="fill:none;stroke-width:10;stroke-linecap:butt;stroke-linejoin:miter;stroke:rgb(0%,0%,0%);stroke-opacity:1;stroke-miterlimit:10;" d="M 5250 1500 L 5143.945312 1606.054688 " transform="matrix(0.1,0,0,-0.1,0,200)"/>
<path style="fill:none;stroke-width:10;stroke-linecap:butt;stroke-linejoin:miter;stroke:rgb(0%,0%,0%);stroke-opacity:1;stroke-miterlimit:10;" d="M 5250 1500 L 5356.054688 1606.054688 " transform="matrix(0.1,0,0,-0.1,0,200)"/>
<path style="fill:none;stroke-width:10;stroke-linecap:butt;stroke-linejoin:miter;stroke:rgb(0%,0%,0%);stroke-opacity:1;stroke-miterlimit:10;" d="M 4750 1000 L 4600 1000 " transform="matrix(0.1,0,0,-0.1,0,200)"/>
<path style="fill:none;stroke-width:10;stroke-linecap:butt;stroke-linejoin:miter;stroke:rgb(0%,0%,0%);stroke-opacity:1;stroke-miterlimit:10;" d="M 4750 1000 L 4643.945312 893.945312 " transform="matrix(0.1,0,0,-0.1,0,200)"/>
<path style="fill:none;stroke-width:10;stroke-linecap:butt;stroke-linejoin:miter;stroke:rgb(0%,0%,0%);stroke-opacity:1;stroke-miterlimit:10;" d="M 4750 1000 L 4643.945312 1106.054688 " transform="matrix(0.1,0,0,-0.1,0,200)"/>
<path style="fill:none;stroke-width:10;stroke-linecap:butt;stroke-linejoin:miter;stroke:rgb(0%,0%,0%);stroke-opacity:1;stroke-miterlimit:10;" d="M 5250 500 L 5250 350 " transform="matrix(0.1,0,0,-0.1,0,200)"/>
<path style="fill:none;stroke-width:10;stroke-linecap:butt;stroke-linejoin:miter;stroke:rgb(0%,0%,0%);stroke-opacity:1;stroke-miterlimit:10;" d="M 5250 500 L 5356.054688 393.945312 " transform="matrix(0.1,0,0,-0.1,0,200)"/>
<path style="fill:none;stroke-width:10;stroke-linecap:butt;stroke-linejoin:miter;stroke:rgb(0%,0%,0%);stroke-opacity:1;stroke-miterlimit:10;" d="M 5250 500 L 5143.945312 393.945312 " transform="matrix(0.1,0,0,-0.1,0,200)"/>
<path style=" stroke:none;fill-rule:nonzero;fill:rgb(100%,0%,0%);fill-opacity:1;" d="M 578.5 100 C 578.5 98.066406 576.933594 96.5 575 96.5 C 573.066406 96.5 571.5 98.066406 571.5 100 C 571.5 101.933594 573.066406 103.5 575 103.5 C 576.933594 103.5 578.5 101.933594 578.5 100 "/>
<path style="fill:none;stroke-width:10;stroke-linecap:butt;stroke-linejoin:miter;stroke:rgb(0%,0%,0%);stroke-opacity:1;stroke-miterlimit:10;" d="M 5785 1000 C 5785 1019.335938 5769.335938 1035 5750 1035 C 5730.664062 1035 5715 1019.335938 5715 1000 C 5715 980.664062 5730.664062 965 5750 965 C 5769.335938 965 5785 980.664062 5785 1000 Z M 5785 1000 " transform="matrix(0.1,0,0,-0.1,0,200)"/>
<path style=" stroke:none;fill-rule:nonzero;fill:rgb(100%,0%,0%);fill-opacity:1;" d="M 528.5 50 C 528.5 48.066406 526.933594 46.5 525 46.5 C 523.066406 46.5 521.5 48.066406 521.5 50 C 521.5 51.933594 523.066406 53.5 525 53.5 C 526.933594 53.5 528.5 51.933594 528.5 50 "/>
<path style="fill:none;stroke-width:10;stroke-linecap:butt;stroke-linejoin:miter;stroke:rgb(0%,0%,0%);stroke-opacity:1;stroke-miterlimit:10;" d="M 5285 1500 C 5285 1519.335938 5269.335938 1535 5250 1535 C 5230.664062 1535 5215 1519.335938 5215 1500 C 5215 1480.664062 5230.664062 1465 5250 1465 C 5269.335938 1465 5285 1480.664062 5285 1500 Z M 5285 1500 " transform="matrix(0.1,0,0,-0.1,0,200)"/>
<path style=" stroke:none;fill-rule:nonzero;fill:rgb(100%,0%,0%);fill-opacity:1;" d="M 478.5 100 C 478.5 98.066406 476.933594 96.5 475 96.5 C 473.066406 96.5 471.5 98.066406 471.5 100 C 471.5 101.933594 473.066406 103.5 475 103.5 C 476.933594 103.5 478.5 101.933594 478.5 100 "/>
<path style="fill:none;stroke-width:10;stroke-linecap:butt;stroke-linejoin:miter;stroke:rgb(0%,0%,0%);stroke-opacity:1;stroke-miterlimit:10;" d="M 4785 1000 C 4785 1019.335938 4769.335938 1035 4750 1035 C 4730.664062 1035 4715 1019.335938 4715 1000 C 4715 980.664062 4730.664062 965 4750 965 C 4769.335938 965 4785 980.664062 4785 1000 Z M 4785 1000 " transform="matrix(0.1,0,0,-0.1,0,200)"/>
<path style=" stroke:none;fill-rule:nonzero;fill:rgb(100%,0%,0%);fill-opacity:1;" d="M 528.5 150 C 528.5 148.066406 526.933594 146.5 525 146.5 C 523.066406 146.5 521.5 148.066406 521.5 150 C 521.5 151.933594 523.066406 153.5 525 153.5 C 526.933594 153.5 528.5 151.933594 528.5 150 "/>
<path style="fill:none;stroke-width:10;stroke-linecap:butt;stroke-linejoin:miter;stroke:rgb(0%,0%,0%);stroke-opacity:1;stroke-miterlimit:10;" d="M 5285 500 C 5285 519.335938 5269.335938 535 5250 535 C 5230.664062 535 5215 519.335938 5215 500 C 5215 480.664062 5230.664062 465 5250 465 C 5269.335938 465 5285 480.664062 5285 500 Z M 5285 500 " transform="matrix(0.1,0,0,-0.1,0,200)"/>
<path style="fill:none;stroke-width:10;stroke-linecap:butt;stroke-linejoin:miter;stroke:rgb(0%,0%,0%);stroke-opacity:1;stroke-miterlimit:10;" d="M 1500 990 L 1910.78125 990 L 1887.695312 950 L 2000 1000 L 1887.695312 1050 L 1910.78125 1010 L 1500 1010 Z M 1500 990 " transform="matrix(0.1,0,0,-0.1,0,200)"/>
<path style="fill:none;stroke-width:10;stroke-linecap:butt;stroke-linejoin:miter;stroke:rgb(0%,0%,0%);stroke-opacity:1;stroke-miterlimit:10;" d="M 4000 990 L 4410.78125 990 L 4387.695312 950 L 4500 1000 L 4387.695312 1050 L 4410.78125 1010 L 4000 1010 Z M 4000 990 " transform="matrix(0.1,0,0,-0.1,0,200)"/>
</g>
</svg>
