<?xml version="1.0" encoding="UTF-8"?>
<svg xmlns="http://www.w3.org/2000/svg" xmlns:xlink="http://www.w3.org/1999/xlink" width="300pt" height="300pt" viewBox="0 0 300 300" version="1.2">
<g id="surface1">
<path style="fill-rule:nonzero;fill:rgb(100%,100%,100%);fill-opacity:1;stroke-width:10;stroke-linecap:butt;stroke-linejoin:miter;stroke:rgb(0%,0%,0%);stroke-opacity:1;stroke-miterlimit:10;" d="M 1287.695312 13.984375 L 1500 13.984375 L 1500 226.289062 L 1287.695312 226.289062 Z M 1287.695312 13.984375 " transform="matrix(0.1,0,0,-0.1,0,300)"/>
<path style="fill-rule:nonzero;fill:rgb(59.959412%,59.959412%,59.959412%);fill-opacity:1;stroke-width:10;stroke-linecap:butt;stroke-linejoin:miter;stroke:rgb(0%,0%,0%);stroke-opacity:1;stroke-miterlimit:10;" d="M 1500 13.984375 L 1712.265625 13.984375 L 1712.265625 226.289062 L 1500 226.289062 Z M 1500 13.984375 " transform="matrix(0.1,0,0,-0.1,0,300)"/>
<path style="fill-rule:nonzero;fill:rgb(100%,100%,100%);fill-opacity:1;stroke-width:10;stroke-linecap:butt;stroke-linejoin:miter;stroke:rgb(0%,0%,0%);stroke-opacity:1;stroke-miterlimit:10;" d="M 1075.429688 226.289062 L 1287.734375 226.289062 L 1287.734375 438.554688 L 1075.429688 438.554688 Z M 1075.429688 226.289062 " transform="matrix(0.1,0,0,-0.1,0,300)"/>
<path style="fill-rule:nonzero;fill:rgb(59.959412%,59.959412%,59.959412%);fill-opacity:1;stroke-width:10;stroke-linecap:butt;stroke-linejoin:miter;stroke:rgb(0%,0%,0%);stroke-opacity:1;stroke-miterlimit:10;" d="M 1287.695312 226.289062 L 1500 226.289062 L 1500 438.554688 L 1287.695312 438.554688 Z M 1287.695312 226.289062 " transform="matrix(0.1,0,0,-0.1,0,300)"/>
<path style="fill-rule:nonzero;fill:rgb(100%,100%,100%);fill-opacity:1;stroke-width:10;stroke-linecap:butt;stroke-linejoin:miter;stroke:rgb(0%,0%,0%);stroke-opacity:1;stroke-miterlimit:10;" d="M 1500 226.289062 L 1712.265625 226.289062 L 1712.265625 438.554688 L 1500 438.554688 Z M 1500 226.289062 " transform="matrix(0.1,0,0,-0.1,0,300)"/>
<path style="fill-rule:nonzero;fill:rgb(59.959412%,59.959412%,59.959412%);fill-opacity:1;stroke-width:10;stroke-linecap:butt;stroke-linejoin:miter;stroke:rgb(0%,0%,0%);stroke-opacity:1;stroke-miterlimit:10;" d="M 1712.304688 226.289062 L 1924.570312 226.289062 L 1924.570312 438.554688 L 1712.304688 438.554688 Z M 1712.304688 226.289062 " transform="matrix(0.1,0,0,-0.1,0,300)"/>
<path style="fill-rule:nonzero;fill:rgb(100%,100%,100%);fill-opacity:1;stroke-width:10;stroke-linecap:butt;stroke-linejoin:miter;stroke:rgb(0%,0%,0%);stroke-opacity:1;stroke-miterlimit:10;" d="M 863.164062 438.554688 L 1075.429688 438.554688 L 1075.429688 650.859375 L 863.164062 650.859375 Z M 863.164062 438.554688 " transform="matrix(0.1,0,0,-0.1,0,300)"/>
<path style="fill-rule:nonzero;fill:rgb(59.959412%,59.959412%,59.959412%);fill-opacity:1;stroke-width:10;stroke-linecap:butt;stroke-linejoin:miter;stroke:rgb(0%,0%,0%);stroke-opacity:1;stroke-miterlimit:10;" d="M 1075.429688 438.554688 L 1287.734375 438.554688 L 1287.734375 650.859375 L 1075.429688 650.859375 Z M 1075.429688 438.554688 " transform="matrix(0.1,0,0,-0.1,0,300)"/>
<path style="fill-rule:nonzero;fill:rgb(100%,100%,100%);fill-opacity:1;stroke-width:10;stroke-linecap:butt;stroke-linejoin:miter;stroke:rgb(0%,0%,0%);stroke-opacity:1;stroke-miterlimit:10;" d="M 1287.695312 438.554688 L 1500 438.554688 L 1500 650.859375 L 1287.695312 650.859375 Z M 1287.695312 438.554688 " transform="matrix(0.1,0,0,-0.1,0,300)"/>
<path style="fill-rule:nonzero;fill:rgb(59.959412%,59.959412%,59.959412%);fill-opacity:1;stroke-width:10;stroke-linecap:butt;stroke-linejoin:miter;stroke:rgb(0%,0%,0%);stroke-opacity:1;stroke-miterlimit:10;" d="M 1500 438.554688 L 1712.265625 438.554688 L 1712.265625 650.859375 L 1500 650.859375 Z M 1500 438.554688 " transform="matrix(0.1,0,0,-0.1,0,300)"/>
<path style="fill-rule:nonzero;fill:rgb(100%,100%,100%);fill-opacity:1;stroke-width:10;stroke-linecap:butt;stroke-linejoin:miter;stroke:rgb(0%,0%,0%);stroke-opacity:1;stroke-miterlimit:10;" d="M 1712.304688 438.554688 L 1924.570312 438.554688 L 1924.570312 650.859375 L 1712.304688 650.859375 Z M 1712.304688 438.554688 " transform="matrix(0.1,0,0,-0.1,0,300)"/>
<path style="fill-rule:nonzero;fill:rgb(59.959412%,59.959412%,59.959412%);fill-opacity:1;stroke-width:10;stroke-linecap:butt;stroke-linejoin:miter;stroke:rgb(0%,0%,0%);stroke-opacity:1;stroke-miterlimit:10;" d="M 1924.570312 438.554688 L 2136.835938 438.554688 L 2136.835938 650.859375 L 1924.570312 650.859375 Z M 1924.570312 438.554688 " transform="matrix(0.1,0,0,-0.1,0,300)"/>
<path style="fill-rule:nonzero;fill:rgb(100%,100%,100%);fill-opacity:1;stroke-width:10;stroke-linecap:butt;stroke-linejoin:miter;stroke:rgb(0%,0%,0%);stroke-opacity:1;stroke-miterlimit:10;" d="M 650.859375 650.859375 L 863.125 650.859375 L 863.125 863.125 L 650.859375 863.125 Z M 650.859375 650.859375 " transform="matrix(0.1,0,0,-0.1,0,300)"/>
<path style="fill-rule:nonzero;fill:rgb(59.959412%,59.959412%,59.959412%);fill-opacity:1;stroke-width:10;stroke-linecap:butt;stroke-linejoin:miter;stroke:rgb(0%,0%,0%);stroke-opacity:1;stroke-miterlimit:10;" d="M 863.164062 650.859375 L 1075.429688 650.859375 L 1075.429688 863.125 L 863.164062 863.125 Z M 863.164062 650.859375 " transform="matrix(0.1,0,0,-0.1,0,300)"/>
<path style="fill-rule:nonzero;fill:rgb(100%,100%,100%);fill-opacity:1;stroke-width:10;stroke-linecap:butt;stroke-linejoin:miter;stroke:rgb(0%,0%,0%);stroke-opacity:1;stroke-miterlimit:10;" d="M 1075.429688 650.859375 L 1287.734375 650.859375 L 1287.734375 863.125 L 1075.429688 863.125 Z M 1075.429688 650.859375 " transform="matrix(0.1,0,0,-0.1,0,300)"/>
<path style="fill-rule:nonzero;fill:rgb(59.959412%,59.959412%,59.959412%);fill-opacity:1;stroke-width:10;stroke-linecap:butt;stroke-linejoin:miter;stroke:rgb(0%,0%,0%);stroke-opacity:1;stroke-miterlimit:10;" d="M 1287.695312 650.859375 L 1500 650.859375 L 1500 863.125 L 1287.695312 863.125 Z M 1287.695312 650.859375 " transform="matrix(0.1,0,0,-0.1,0,300)"/>
<path style="fill-rule:nonzero;fill:rgb(100%,100%,100%);fill-opacity:1;stroke-width:10;stroke-linecap:butt;stroke-linejoin:miter;stroke:rgb(0%,0%,0%);stroke-opacity:1;stroke-miterlimit:10;" d="M 1500 650.859375 L 1712.265625 650.859375 L 1712.265625 863.125 L 1500 863.125 Z M 1500 650.859375 " transform="matrix(0.1,0,0,-0.1,0,300)"/>
<path style="fill-rule:nonzero;fill:rgb(59.959412%,59.959412%,59.959412%);fill-opacity:1;stroke-width:10;stroke-linecap:butt;stroke-linejoin:miter;stroke:rgb(0%,0%,0%);stroke-opacity:1;stroke-miterlimit:10;" d="M 1712.304688 650.859375 L 1924.570312 650.859375 L 1924.570312 863.125 L 1712.304688 863.125 Z M 1712.304688 650.859375 " transform="matrix(0.1,0,0,-0.1,0,300)"/>
<path style="fill-rule:nonzero;fill:rgb(100%,100%,100%);fill-opacity:1;stroke-width:10;stroke-linecap:butt;stroke-linejoin:miter;stroke:rgb(0%,0%,0%);stroke-opacity:1;stroke-miterlimit:10;" d="M 1924.570312 650.859375 L 2136.835938 650.859375 L 2136.835938 863.125 L 1924.570312 863.125 Z M 1924.570312 650.859375 " transform="matrix(0.1,0,0,-0.1,0,300)"/>
<path style="fill-rule:nonzero;fill:rgb(59.959412%,59.959412%,59.959412%);fill-opacity:1;stroke-width:10;stroke-linecap:butt;stroke-linejoin:miter;stroke:rgb(0%,0%,0%);stroke-opacity:1;stroke-miterlimit:10;" d="M 2136.875 650.859375 L 2349.140625 650.859375 L 2349.140625 863.125 L 2136.875 863.125 Z M 2136.875 650.859375 " transform="matrix(0.1,0,0,-0.1,0,300)"/>
<path style="fill-rule:nonzero;fill:rgb(100%,100%,100%);fill-opacity:1;stroke-width:10;stroke-linecap:butt;stroke-linejoin:miter;stroke:rgb(0%,0%,0%);stroke-opacity:1;stroke-miterlimit:10;" d="M 438.554688 863.164062 L 650.859375 863.164062 L 650.859375 1075.429688 L 438.554688 1075.429688 Z M 438.554688 863.164062 " transform="matrix(0.1,0,0,-0.1,0,300)"/>
<path style="fill-rule:nonzero;fill:rgb(59.959412%,59.959412%,59.959412%);fill-opacity:1;stroke-width:10;stroke-linecap:butt;stroke-linejoin:miter;stroke:rgb(0%,0%,0%);stroke-opacity:1;stroke-miterlimit:10;" d="M 650.859375 863.164062 L 863.125 863.164062 L 863.125 1075.429688 L 650.859375 1075.429688 Z M 650.859375 863.164062 " transform="matrix(0.1,0,0,-0.1,0,300)"/>
<path style="fill-rule:nonzero;fill:rgb(100%,100%,100%);fill-opacity:1;stroke-width:10;stroke-linecap:butt;stroke-linejoin:miter;stroke:rgb(0%,0%,0%);stroke-opacity:1;stroke-miterlimit:10;" d="M 863.164062 863.164062 L 1075.429688 863.164062 L 1075.429688 1075.429688 L 863.164062 1075.429688 Z M 863.164062 863.164062 " transform="matrix(0.1,0,0,-0.1,0,300)"/>
<path style="fill-rule:nonzero;fill:rgb(59.959412%,59.959412%,59.959412%);fill-opacity:1;stroke-width:10;stroke-linecap:butt;stroke-linejoin:miter;stroke:rgb(0%,0%,0%);stroke-opacity:1;stroke-miterlimit:10;" d="M 1075.429688 863.164062 L 1287.734375 863.164062 L 1287.734375 1075.429688 L 1075.429688 1075.429688 Z M 1075.429688 863.164062 " transform="matrix(0.1,0,0,-0.1,0,300)"/>
<path style="fill-rule:nonzero;fill:rgb(100%,100%,100%);fill-opacity:1;stroke-width:10;stroke-linecap:butt;stroke-linejoin:miter;stroke:rgb(0%,0%,0%);stroke-opacity:1;stroke-miterlimit:10;" d="M 1287.695312 863.164062 L 1500 863.164062 L 1500 1075.429688 L 1287.695312 1075.429688 Z M 1287.695312 863.164062 " transform="matrix(0.1,0,0,-0.1,0,300)"/>
<path style="fill-rule:nonzero;fill:rgb(59.959412%,59.959412%,59.959412%);fill-opacity:1;stroke-width:10;stroke-linecap:butt;stroke-linejoin:miter;stroke:rgb(0%,0%,0%);stroke-opacity:1;stroke-miterlimit:10;" d="M 1500 863.164062 L 1712.265625 863.164062 L 1712.265625 1075.429688 L 1500 1075.429688 Z M 1500 863.164062 " transform="matrix(0.1,0,0,-0.1,0,300)"/>
<path style="fill-rule:nonzero;fill:rgb(100%,100%,100%);fill-opacity:1;stroke-width:10;stroke-linecap:butt;stroke-linejoin:miter;stroke:rgb(0%,0%,0%);stroke-opacity:1;stroke-miterlimit:10;" d="M 1712.304688 863.164062 L 1924.570312 863.164062 L 1924.570312 1075.429688 L 1712.304688 1075.429688 Z M 1712.304688 863.164062 " transform="matrix(0.1,0,0,-0.1,0,300)"/>
<path style="fill-rule:nonzero;fill:rgb(59.959412%,59.959412%,59.959412%);fill-opacity:1;stroke-width:10;stroke-linecap:butt;stroke-linejoin:miter;stroke:rgb(0%,0%,0%);stroke-opacity:1;stroke-miterlimit:10;" d="M 1924.570312 863.164062 L 2136.835938 863.164062 L 2136.835938 1075.429688 L 1924.570312 1075.429688 Z M 1924.570312 863.164062 " transform="matrix(0.1,0,0,-0.1,0,300)"/>
<path style="fill-rule:nonzero;fill:rgb(100%,100%,100%);fill-opacity:1;stroke-width:10;stroke-linecap:butt;stroke-linejoin:miter;stroke:rgb(0%,0%,0%);stroke-opacity:1;stroke-miterlimit:10;" d="M 2136.875 863.164062 L 2349.140625 863.164062 L 2349.140625 1075.429688 L 2136.875 1075.429688 Z M 2136.875 863.164062 " transform="matrix(0.1,0,0,-0.1,0,300)"/>
<path style="fill-rule:nonzero;fill:rgb(59.959412%,59.959412%,59.959412%);fill-opacity:1;stroke-width:10;stroke-linecap:butt;stroke-linejoin:miter;stroke:rgb(0%,0%,0%);stroke-opacity:1;stroke-miterlimit:10;" d="M 2349.140625 863.164062 L 2561.40625 863.164062 L 2561.40625 1075.429688 L 2349.140625 1075.429688 Z M 2349.140625 863.164062 " transform="matrix(0.1,0,0,-0.1,0,300)"/>
<path style="fill-rule:nonzero;fill:rgb(100%,100%,100%);fill-opacity:1;stroke-width:10;stroke-linecap:butt;stroke-linejoin:miter;stroke:rgb(0%,0%,0%);stroke-opacity:1;stroke-miterlimit:10;" d="M 226.289062 1075.429688 L 438.554688 1075.429688 L 438.554688 1287.734375 L 226.289062 1287.734375 Z M 226.289062 1075.429688 " transform="matrix(0.1,0,0,-0.1,0,300)"/>
<path style="fill-rule:nonzero;fill:rgb(59.959412%,59.959412%,59.959412%);fill-opacity:1;stroke-width:10;stroke-linecap:butt;stroke-linejoin:miter;stroke:rgb(0%,0%,0%);stroke-opacity:1;stroke-miterlimit:10;" d="M 438.554688 1075.429688 L 650.859375 1075.429688 L 650.859375 1287.734375 L 438.554688 1287.734375 Z M 438.554688 1075.429688 " transform="matrix(0.1,0,0,-0.1,0,300)"/>
<path style="fill-rule:nonzero;fill:rgb(100%,100%,100%);fill-opacity:1;stroke-width:10;stroke-linecap:butt;stroke-linejoin:miter;stroke:rgb(0%,0%,0%);stroke-opacity:1;stroke-miterlimit:10;" d="M 650.859375 1075.429688 L 863.125 1075.429688 L 863.125 1287.734375 L 650.859375 1287.734375 Z M 650.859375 1075.429688 " transform="matrix(0.1,0,0,-0.1,0,300)"/>
<path style="fill-rule:nonzero;fill:rgb(59.959412%,59.959412%,59.959412%);fill-opacity:1;stroke-width:10;stroke-linecap:butt;stroke-linejoin:miter;stroke:rgb(0%,0%,0%);stroke-opacity:1;stroke-miterlimit:10;" d="M 863.164062 1075.429688 L 1075.429688 1075.429688 L 1075.429688 1287.734375 L 863.164062 1287.734375 Z M 863.164062 1075.429688 " transform="matrix(0.1,0,0,-0.1,0,300)"/>
<path style="fill-rule:nonzero;fill:rgb(100%,100%,100%);fill-opacity:1;stroke-width:10;stroke-linecap:butt;stroke-linejoin:miter;stroke:rgb(0%,0%,0%);stroke-opacity:1;stroke-miterlimit:10;" d="M 1075.429688 1075.429688 L 1287.734375 1075.429688 L 1287.734375 1287.734375 L 1075.429688 1287.734375 Z M 1075.429688 1075.429688 " transform="matrix(0.1,0,0,-0.1,0,300)"/>
<path style="fill-rule:nonzero;fill:rgb(59.959412%,59.959412%,59.959412%);fill-opacity:1;stroke-width:10;stroke-linecap:butt;stroke-linejoin:miter;stroke:rgb(0%,0%,0%);stroke-opacity:1;stroke-miterlimit:10;" d="M 1287.695312 1075.429688 L 1500 1075.429688 L 1500 1287.734375 L 1287.695312 1287.734375 Z M 1287.695312 1075.429688 " transform="matrix(0.1,0,0,-0.1,0,300)"/>
<path style="fill-rule:nonzero;fill:rgb(100%,100%,100%);fill-opacity:1;stroke-width:10;stroke-linecap:butt;stroke-linejoin:miter;stroke:rgb(0%,0%,0%);stroke-opacity:1;stroke-miterlimit:10;" d="M 1500 1075.429688 L 1712.265625 1075.429688 L 1712.265625 1287.734375 L 1500 1287.734375 Z M 1500 1075.429688 " transform="matrix(0.1,0,0,-0.1,0,300)"/>
<path style="fill-rule:nonzero;fill:rgb(59.959412%,59.959412%,59.959412%);fill-opacity:1;stroke-width:10;stroke-linecap:butt;stroke-linejoin:miter;stroke:rgb(0%,0%,0%);stroke-opacity:1;stroke-miterlimit:10;" d="M 1712.304688 1075.429688 L 1924.570312 1075.429688 L 1924.570312 1287.734375 L 1712.304688 1287.734375 Z M 1712.304688 1075.429688 " transform="matrix(0.1,0,0,-0.1,0,300)"/>
<path style="fill-rule:nonzero;fill:rgb(100%,100%,100%);fill-opacity:1;stroke-width:10;stroke-linecap:butt;stroke-linejoin:miter;stroke:rgb(0%,0%,0%);stroke-opacity:1;stroke-miterlimit:10;" d="M 1924.570312 1075.429688 L 2136.835938 1075.429688 L 2136.835938 1287.734375 L 1924.570312 1287.734375 Z M 1924.570312 1075.429688 " transform="matrix(0.1,0,0,-0.1,0,300)"/>
<path style="fill-rule:nonzero;fill:rgb(59.959412%,59.959412%,59.959412%);fill-opacity:1;stroke-width:10;stroke-linecap:butt;stroke-linejoin:miter;stroke:rgb(0%,0%,0%);stroke-opacity:1;stroke-miterlimit:10;" d="M 2136.875 1075.429688 L 2349.140625 1075.429688 L 2349.140625 1287.734375 L 2136.875 1287.734375 Z M 2136.875 1075.429688 " transform="matrix(0.1,0,0,-0.1,0,300)"/>
<path style="fill-rule:nonzero;fill:rgb(100%,100%,100%);fill-opacity:1;stroke-width:10;stroke-linecap:butt;stroke-linejoin:miter;stroke:rgb(0%,0%,0%);stroke-opacity:1;stroke-miterlimit:10;" d="M 2349.140625 1075.429688 L 2561.40625 1075.429688 L 2561.40625 1287.734375 L 2349.140625 1287.734375 Z M 2349.140625 1075.429688 " transform="matrix(0.1,0,0,-0.1,0,300)"/>
<path style="fill-rule:nonzero;fill:rgb(59.959412%,59.959412%,59.959412%);fill-opacity:1;stroke-width:10;stroke-linecap:butt;stroke-linejoin:miter;stroke:rgb(0%,0%,0%);stroke-opacity:1;stroke-miterlimit:10;" d="M 2561.445312 1075.429688 L 2773.710938 1075.429688 L 2773.710938 1287.734375 L 2561.445312 1287.734375 Z M 2561.445312 1075.429688 " transform="matrix(0.1,0,0,-0.1,0,300)"/>
<path style="fill-rule:nonzero;fill:rgb(100%,100%,100%);fill-opacity:1;stroke-width:10;stroke-linecap:butt;stroke-linejoin:miter;stroke:rgb(0%,0%,0%);stroke-opacity:1;stroke-miterlimit:10;" d="M 13.984375 1287.695312 L 226.289062 1287.695312 L 226.289062 1500 L 13.984375 1500 Z M 13.984375 1287.695312 " transform="matrix(0.1,0,0,-0.1,0,300)"/>
<path style="fill-rule:nonzero;fill:rgb(59.959412%,59.959412%,59.959412%);fill-opacity:1;stroke-width:10;stroke-linecap:butt;stroke-linejoin:miter;stroke:rgb(0%,0%,0%);stroke-opacity:1;stroke-miterlimit:10;" d="M 226.289062 1287.695312 L 438.554688 1287.695312 L 438.554688 1500 L 226.289062 1500 Z M 226.289062 1287.695312 " transform="matrix(0.1,0,0,-0.1,0,300)"/>
<path style="fill-rule:nonzero;fill:rgb(100%,100%,100%);fill-opacity:1;stroke-width:10;stroke-linecap:butt;stroke-linejoin:miter;stroke:rgb(0%,0%,0%);stroke-opacity:1;stroke-miterlimit:10;" d="M 438.554688 1287.695312 L 650.859375 1287.695312 L 650.859375 1500 L 438.554688 1500 Z M 438.554688 1287.695312 " transform="matrix(0.1,0,0,-0.1,0,300)"/>
<path style="fill-rule:nonzero;fill:rgb(59.959412%,59.959412%,59.959412%);fill-opacity:1;stroke-width:10;stroke-linecap:butt;stroke-linejoin:miter;stroke:rgb(0%,0%,0%);stroke-opacity:1;stroke-miterlimit:10;" d="M 650.859375 1287.695312 L 863.125 1287.695312 L 863.125 1500 L 650.859375 1500 Z M 650.859375 1287.695312 " transform="matrix(0.1,0,0,-0.1,0,300)"/>
<path style="fill-rule:nonzero;fill:rgb(100%,100%,100%);fill-opacity:1;stroke-width:10;stroke-linecap:butt;stroke-linejoin:miter;stroke:rgb(0%,0%,0%);stroke-opacity:1;stroke-miterlimit:10;" d="M 863.164062 1287.695312 L 1075.429688 1287.695312 L 1075.429688 1500 L 863.164062 1500 Z M 863.164062 1287.695312 " transform="matrix(0.1,0,0,-0.1,0,300)"/>
<path style="fill-rule:nonzero;fill:rgb(59.959412%,59.959412%,59.959412%);fill-opacity:1;stroke-width:10;stroke-linecap:butt;stroke-linejoin:miter;stroke:rgb(0%,0%,0%);stroke-opacity:1;stroke-miterlimit:10;" d="M 1075.429688 1287.695312 L 1287.734375 1287.695312 L 1287.734375 1500 L 1075.429688 1500 Z M 1075.429688 1287.695312 " transform="matrix(0.1,0,0,-0.1,0,300)"/>
<path style="fill-rule:nonzero;fill:rgb(100%,100%,100%);fill-opacity:1;stroke-width:10;stroke-linecap:butt;stroke-linejoin:miter;stroke:rgb(0%,0%,0%);stroke-opacity:1;stroke-miterlimit:10;" d="M 1287.695312 1287.695312 L 1500 1287.695312 L 1500 1500 L 1287.695312 1500 Z M 1287.695312 1287.695312 " transform="matrix(0.1,0,0,-0.1,0,300)"/>
<path style="fill-rule:nonzero;fill:rgb(59.959412%,59.959412%,59.959412%);fill-opacity:1;stroke-width:10;stroke-linecap:butt;stroke-linejoin:miter;stroke:rgb(0%,0%,0%);stroke-opacity:1;stroke-miterlimit:10;" d="M 1500 1287.695312 L 1712.265625 1287.695312 L 1712.265625 1500 L 1500 1500 Z M 1500 1287.695312 " transform="matrix(0.1,0,0,-0.1,0,300)"/>
<path style="fill-rule:nonzero;fill:rgb(100%,100%,100%);fill-opacity:1;stroke-width:10;stroke-linecap:butt;stroke-linejoin:miter;stroke:rgb(0%,0%,0%);stroke-opacity:1;stroke-miterlimit:10;" d="M 1712.304688 1287.695312 L 1924.570312 1287.695312 L 1924.570312 1500 L 1712.304688 1500 Z M 1712.304688 1287.695312 " transform="matrix(0.1,0,0,-0.1,0,300)"/>
<path style="fill-rule:nonzero;fill:rgb(59.959412%,59.959412%,59.959412%);fill-opacity:1;stroke-width:10;stroke-linecap:butt;stroke-linejoin:miter;stroke:rgb(0%,0%,0%);stroke-opacity:1;stroke-miterlimit:10;" d="M 1924.570312 1287.695312 L 2136.835938 1287.695312 L 2136.835938 1500 L 1924.570312 1500 Z M 1924.570312 1287.695312 " transform="matrix(0.1,0,0,-0.1,0,300)"/>
<path style="fill-rule:nonzero;fill:rgb(100%,100%,100%);fill-opacity:1;stroke-width:10;stroke-linecap:butt;stroke-linejoin:miter;stroke:rgb(0%,0%,0%);stroke-opacity:1;stroke-miterlimit:10;" d="M 2136.875 1287.695312 L 2349.140625 1287.695312 L 2349.140625 1500 L 2136.875 1500 Z M 2136.875 1287.695312 " transform="matrix(0.1,0,0,-0.1,0,300)"/>
<path style="fill-rule:nonzero;fill:rgb(59.959412%,59.959412%,59.959412%);fill-opacity:1;stroke-width:10;stroke-linecap:butt;stroke-linejoin:miter;stroke:rgb(0%,0%,0%);stroke-opacity:1;stroke-miterlimit:10;" d="M 2349.140625 1287.695312 L 2561.40625 1287.695312 L 2561.40625 1500 L 2349.140625 1500 Z M 2349.140625 1287.695312 " transform="matrix(0.1,0,0,-0.1,0,300)"/>
<path style="fill-rule:nonzero;fill:rgb(100%,100%,100%);fill-opacity:1;stroke-width:10;stroke-linecap:butt;stroke-linejoin:miter;stroke:rgb(0%,0%,0%);stroke-opacity:1;stroke-miterlimit:10;" d="M 2561.445312 1287.695312 L 2773.710938 1287.695312 L 2773.710938 1500 L 2561.445312 1500 Z M 2561.445312 1287.695312 " transform="matrix(0.1,0,0,-0.1,0,300)"/>
<path style="fill-rule:nonzero;fill:rgb(59.959412%,59.959412%,59.959412%);fill-opacity:1;stroke-width:10;stroke-linecap:butt;stroke-linejoin:miter;stroke:rgb(0%,0%,0%);stroke-opacity:1;stroke-miterlimit:10;" d="M 2773.710938 1287.695312 L 2985.976562 1287.695312 L 2985.976562 1500 L 2773.710938 1500 Z M 2773.710938 1287.695312 " transform="matrix(0.1,0,0,-0.1,0,300)"/>
<path style="fill-rule:nonzero;fill:rgb(59.959412%,59.959412%,59.959412%);fill-opacity:1;stroke-width:10;stroke-linecap:butt;stroke-linejoin:miter;stroke:rgb(0%,0%,0%);stroke-opacity:1;stroke-miterlimit:10;" d="M 13.984375 1500 L 226.289062 1500 L 226.289062 1712.265625 L 13.984375 1712.265625 Z M 13.984375 1500 " transform="matrix(0.1,0,0,-0.1,0,300)"/>
<path style="fill-rule:nonzero;fill:rgb(100%,100%,100%);fill-opacity:1;stroke-width:10;stroke-linecap:butt;stroke-linejoin:miter;stroke:rgb(0%,0%,0%);stroke-opacity:1;stroke-miterlimit:10;" d="M 226.289062 1500 L 438.554688 1500 L 438.554688 1712.265625 L 226.289062 1712.265625 Z M 226.289062 1500 " transform="matrix(0.1,0,0,-0.1,0,300)"/>
<path style="fill-rule:nonzero;fill:rgb(59.959412%,59.959412%,59.959412%);fill-opacity:1;stroke-width:10;stroke-linecap:butt;stroke-linejoin:miter;stroke:rgb(0%,0%,0%);stroke-opacity:1;stroke-miterlimit:10;" d="M 438.554688 1500 L 650.859375 1500 L 650.859375 1712.265625 L 438.554688 1712.265625 Z M 438.554688 1500 " transform="matrix(0.1,0,0,-0.1,0,300)"/>
<path style="fill-rule:nonzero;fill:rgb(100%,100%,100%);fill-opacity:1;stroke-width:10;stroke-linecap:butt;stroke-linejoin:miter;stroke:rgb(0%,0%,0%);stroke-opacity:1;stroke-miterlimit:10;" d="M 650.859375 1500 L 863.125 1500 L 863.125 1712.265625 L 650.859375 1712.265625 Z M 650.859375 1500 " transform="matrix(0.1,0,0,-0.1,0,300)"/>
<path style="fill-rule:nonzero;fill:rgb(59.959412%,59.959412%,59.959412%);fill-opacity:1;stroke-width:10;stroke-linecap:butt;stroke-linejoin:miter;stroke:rgb(0%,0%,0%);stroke-opacity:1;stroke-miterlimit:10;" d="M 863.164062 1500 L 1075.429688 1500 L 1075.429688 1712.265625 L 863.164062 1712.265625 Z M 863.164062 1500 " transform="matrix(0.1,0,0,-0.1,0,300)"/>
<path style="fill-rule:nonzero;fill:rgb(100%,100%,100%);fill-opacity:1;stroke-width:10;stroke-linecap:butt;stroke-linejoin:miter;stroke:rgb(0%,0%,0%);stroke-opacity:1;stroke-miterlimit:10;" d="M 1075.429688 1500 L 1287.734375 1500 L 1287.734375 1712.265625 L 1075.429688 1712.265625 Z M 1075.429688 1500 " transform="matrix(0.1,0,0,-0.1,0,300)"/>
<path style="fill-rule:nonzero;fill:rgb(59.959412%,59.959412%,59.959412%);fill-opacity:1;stroke-width:10;stroke-linecap:butt;stroke-linejoin:miter;stroke:rgb(0%,0%,0%);stroke-opacity:1;stroke-miterlimit:10;" d="M 1287.695312 1500 L 1500 1500 L 1500 1712.265625 L 1287.695312 1712.265625 Z M 1287.695312 1500 " transform="matrix(0.1,0,0,-0.1,0,300)"/>
<path style="fill-rule:nonzero;fill:rgb(100%,100%,100%);fill-opacity:1;stroke-width:10;stroke-linecap:butt;stroke-linejoin:miter;stroke:rgb(0%,0%,0%);stroke-opacity:1;stroke-miterlimit:10;" d="M 1500 1500 L 1712.265625 1500 L 1712.265625 1712.265625 L 1500 1712.265625 Z M 1500 1500 " transform="matrix(0.1,0,0,-0.1,0,300)"/>
<path style="fill-rule:nonzero;fill:rgb(59.959412%,59.959412%,59.959412%);fill-opacity:1;stroke-width:10;stroke-linecap:butt;stroke-linejoin:miter;stroke:rgb(0%,0%,0%);stroke-opacity:1;stroke-miterlimit:10;" d="M 1712.304688 1500 L 1924.570312 1500 L 1924.570312 1712.265625 L 1712.304688 1712.265625 Z M 1712.304688 1500 " transform="matrix(0.1,0,0,-0.1,0,300)"/>
<path style="fill-rule:nonzero;fill:rgb(100%,100%,100%);fill-opacity:1;stroke-width:10;stroke-linecap:butt;stroke-linejoin:miter;stroke:rgb(0%,0%,0%);stroke-opacity:1;stroke-miterlimit:10;" d="M 1924.570312 1500 L 2136.835938 1500 L 2136.835938 1712.265625 L 1924.570312 1712.265625 Z M 1924.570312 1500 " transform="matrix(0.1,0,0,-0.1,0,300)"/>
<path style="fill-rule:nonzero;fill:rgb(59.959412%,59.959412%,59.959412%);fill-opacity:1;stroke-width:10;stroke-linecap:butt;stroke-linejoin:miter;stroke:rgb(0%,0%,0%);stroke-opacity:1;stroke-miterlimit:10;" d="M 2136.875 1500 L 2349.140625 1500 L 2349.140625 1712.265625 L 2136.875 1712.265625 Z M 2136.875 1500 " transform="matrix(0.1,0,0,-0.1,0,300)"/>
<path style="fill-rule:nonzero;fill:rgb(100%,100%,100%);fill-opacity:1;stroke-width:10;stroke-linecap:butt;stroke-linejoin:miter;stroke:rgb(0%,0%,0%);stroke-opacity:1;stroke-miterlimit:10;" d="M 2349.140625 1500 L 2561.40625 1500 L 2561.40625 1712.265625 L 2349.140625 1712.265625 Z M 2349.140625 1500 " transform="matrix(0.1,0,0,-0.1,0,300)"/>
<path style="fill-rule:nonzero;fill:rgb(59.959412%,59.959412%,59.959412%);fill-opacity:1;stroke-width:10;stroke-linecap:butt;stroke-linejoin:miter;stroke:rgb(0%,0%,0%);stroke-opacity:1;stroke-miterlimit:10;" d="M 2561.445312 1500 L 2773.710938 1500 L 2773.710938 1712.265625 L 2561.445312 1712.265625 Z M 2561.445312 1500 " transform="matrix(0.1,0,0,-0.1,0,300)"/>
<path style="fill-rule:nonzero;fill:rgb(100%,100%,100%);fill-opacity:1;stroke-width:10;stroke-linecap:butt;stroke-linejoin:miter;stroke:rgb(0%,0%,0%);stroke-opacity:1;stroke-miterlimit:10;" d="M 2773.710938 1500 L 2985.976562 1500 L 2985.976562 1712.265625 L 2773.710938 1712.265625 Z M 2773.710938 1500 " transform="matrix(0.1,0,0,-0.1,0,300)"/>
<path style="fill-rule:nonzero;fill:rgb(59.959412%,59.959412%,59.959412%);fill-opacity:1;stroke-width:10;stroke-linecap:butt;stroke-linejoin:miter;stroke:rgb(0%,0%,0%);stroke-opacity:1;stroke-miterlimit:10;" d="M 226.289062 1712.304688 L 438.554688 1712.304688 L 438.554688 1924.570312 L 226.289062 1924.570312 Z M 226.289062 1712.304688 " transform="matrix(0.1,0,0,-0.1,0,300)"/>
<path style="fill-rule:nonzero;fill:rgb(100%,100%,100%);fill-opacity:1;stroke-width:10;stroke-linecap:butt;stroke-linejoin:miter;stroke:rgb(0%,0%,0%);stroke-opacity:1;stroke-miterlimit:10;" d="M 438.554688 1712.304688 L 650.859375 1712.304688 L 650.859375 1924.570312 L 438.554688 1924.570312 Z M 438.554688 1712.304688 " transform="matrix(0.1,0,0,-0.1,0,300)"/>
<path style="fill-rule:nonzero;fill:rgb(59.959412%,59.959412%,59.959412%);fill-opacity:1;stroke-width:10;stroke-linecap:butt;stroke-linejoin:miter;stroke:rgb(0%,0%,0%);stroke-opacity:1;stroke-miterlimit:10;" d="M 650.859375 1712.304688 L 863.125 1712.304688 L 863.125 1924.570312 L 650.859375 1924.570312 Z M 650.859375 1712.304688 " transform="matrix(0.1,0,0,-0.1,0,300)"/>
<path style="fill-rule:nonzero;fill:rgb(100%,100%,100%);fill-opacity:1;stroke-width:10;stroke-linecap:butt;stroke-linejoin:miter;stroke:rgb(0%,0%,0%);stroke-opacity:1;stroke-miterlimit:10;" d="M 863.164062 1712.304688 L 1075.429688 1712.304688 L 1075.429688 1924.570312 L 863.164062 1924.570312 Z M 863.164062 1712.304688 " transform="matrix(0.1,0,0,-0.1,0,300)"/>
<path style="fill-rule:nonzero;fill:rgb(59.959412%,59.959412%,59.959412%);fill-opacity:1;stroke-width:10;stroke-linecap:butt;stroke-linejoin:miter;stroke:rgb(0%,0%,0%);stroke-opacity:1;stroke-miterlimit:10;" d="M 1075.429688 1712.304688 L 1287.734375 1712.304688 L 1287.734375 1924.570312 L 1075.429688 1924.570312 Z M 1075.429688 1712.304688 " transform="matrix(0.1,0,0,-0.1,0,300)"/>
<path style="fill-rule:nonzero;fill:rgb(100%,100%,100%);fill-opacity:1;stroke-width:10;stroke-linecap:butt;stroke-linejoin:miter;stroke:rgb(0%,0%,0%);stroke-opacity:1;stroke-miterlimit:10;" d="M 1287.695312 1712.304688 L 1500 1712.304688 L 1500 1924.570312 L 1287.695312 1924.570312 Z M 1287.695312 1712.304688 " transform="matrix(0.1,0,0,-0.1,0,300)"/>
<path style="fill-rule:nonzero;fill:rgb(59.959412%,59.959412%,59.959412%);fill-opacity:1;stroke-width:10;stroke-linecap:butt;stroke-linejoin:miter;stroke:rgb(0%,0%,0%);stroke-opacity:1;stroke-miterlimit:10;" d="M 1500 1712.304688 L 1712.265625 1712.304688 L 1712.265625 1924.570312 L 1500 1924.570312 Z M 1500 1712.304688 " transform="matrix(0.1,0,0,-0.1,0,300)"/>
<path style="fill-rule:nonzero;fill:rgb(100%,100%,100%);fill-opacity:1;stroke-width:10;stroke-linecap:butt;stroke-linejoin:miter;stroke:rgb(0%,0%,0%);stroke-opacity:1;stroke-miterlimit:10;" d="M 1712.304688 1712.304688 L 1924.570312 1712.304688 L 1924.570312 1924.570312 L 1712.304688 1924.570312 Z M 1712.304688 1712.304688 " transform="matrix(0.1,0,0,-0.1,0,300)"/>
<path style="fill-rule:nonzero;fill:rgb(59.959412%,59.959412%,59.959412%);fill-opacity:1;stroke-width:10;stroke-linecap:butt;stroke-linejoin:miter;stroke:rgb(0%,0%,0%);stroke-opacity:1;stroke-miterlimit:10;" d="M 1924.570312 1712.304688 L 2136.835938 1712.304688 L 2136.835938 1924.570312 L 1924.570312 1924.570312 Z M 1924.570312 1712.304688 " transform="matrix(0.1,0,0,-0.1,0,300)"/>
<path style="fill-rule:nonzero;fill:rgb(100%,100%,100%);fill-opacity:1;stroke-width:10;stroke-linecap:butt;stroke-linejoin:miter;stroke:rgb(0%,0%,0%);stroke-opacity:1;stroke-miterlimit:10;" d="M 2136.875 1712.304688 L 2349.140625 1712.304688 L 2349.140625 1924.570312 L 2136.875 1924.570312 Z M 2136.875 1712.304688 " transform="matrix(0.1,0,0,-0.1,0,300)"/>
<path style="fill-rule:nonzero;fill:rgb(59.959412%,59.959412%,59.959412%);fill-opacity:1;stroke-width:10;stroke-linecap:butt;stroke-linejoin:miter;stroke:rgb(0%,0%,0%);stroke-opacity:1;stroke-miterlimit:10;" d="M 2349.140625 1712.304688 L 2561.40625 1712.304688 L 2561.40625 1924.570312 L 2349.140625 1924.570312 Z M 2349.140625 1712.304688 " transform="matrix(0.1,0,0,-0.1,0,300)"/>
<path style="fill-rule:nonzero;fill:rgb(100%,100%,100%);fill-opacity:1;stroke-width:10;stroke-linecap:butt;stroke-linejoin:miter;stroke:rgb(0%,0%,0%);stroke-opacity:1;stroke-miterlimit:10;" d="M 2561.445312 1712.304688 L 2773.710938 1712.304688 L 2773.710938 1924.570312 L 2561.445312 1924.570312 Z M 2561.445312 1712.304688 " transform="matrix(0.1,0,0,-0.1,0,300)"/>
<path style="fill-rule:nonzero;fill:rgb(59.959412%,59.959412%,59.959412%);fill-opacity:1;stroke-width:10;stroke-linecap:butt;stroke-linejoin:miter;stroke:rgb(0%,0%,0%);stroke-opacity:1;stroke-miterlimit:10;" d="M 438.554688 1924.570312 L 650.859375 1924.570312 L 650.859375 2136.835938 L 438.554688 2136.835938 Z M 438.554688 1924.570312 " transform="matrix(0.1,0,0,-0.1,0,300)"/>
<path style="fill-rule:nonzero;fill:rgb(100%,100%,100%);fill-opacity:1;stroke-width:10;stroke-linecap:butt;stroke-linejoin:miter;stroke:rgb(0%,0%,0%);stroke-opacity:1;stroke-miterlimit:10;" d="M 650.859375 1924.570312 L 863.125 1924.570312 L 863.125 2136.835938 L 650.859375 2136.835938 Z M 650.859375 1924.570312 " transform="matrix(0.1,0,0,-0.1,0,300)"/>
<path style="fill-rule:nonzero;fill:rgb(59.959412%,59.959412%,59.959412%);fill-opacity:1;stroke-width:10;stroke-linecap:butt;stroke-linejoin:miter;stroke:rgb(0%,0%,0%);stroke-opacity:1;stroke-miterlimit:10;" d="M 863.164062 1924.570312 L 1075.429688 1924.570312 L 1075.429688 2136.835938 L 863.164062 2136.835938 Z M 863.164062 1924.570312 " transform="matrix(0.1,0,0,-0.1,0,300)"/>
<path style="fill-rule:nonzero;fill:rgb(100%,100%,100%);fill-opacity:1;stroke-width:10;stroke-linecap:butt;stroke-linejoin:miter;stroke:rgb(0%,0%,0%);stroke-opacity:1;stroke-miterlimit:10;" d="M 1075.429688 1924.570312 L 1287.734375 1924.570312 L 1287.734375 2136.835938 L 1075.429688 2136.835938 Z M 1075.429688 1924.570312 " transform="matrix(0.1,0,0,-0.1,0,300)"/>
<path style="fill-rule:nonzero;fill:rgb(59.959412%,59.959412%,59.959412%);fill-opacity:1;stroke-width:10;stroke-linecap:butt;stroke-linejoin:miter;stroke:rgb(0%,0%,0%);stroke-opacity:1;stroke-miterlimit:10;" d="M 1287.695312 1924.570312 L 1500 1924.570312 L 1500 2136.835938 L 1287.695312 2136.835938 Z M 1287.695312 1924.570312 " transform="matrix(0.1,0,0,-0.1,0,300)"/>
<path style="fill-rule:nonzero;fill:rgb(100%,100%,100%);fill-opacity:1;stroke-width:10;stroke-linecap:butt;stroke-linejoin:miter;stroke:rgb(0%,0%,0%);stroke-opacity:1;stroke-miterlimit:10;" d="M 1500 1924.570312 L 1712.265625 1924.570312 L 1712.265625 2136.835938 L 1500 2136.835938 Z M 1500 1924.570312 " transform="matrix(0.1,0,0,-0.1,0,300)"/>
<path style="fill-rule:nonzero;fill:rgb(59.959412%,59.959412%,59.959412%);fill-opacity:1;stroke-width:10;stroke-linecap:butt;stroke-linejoin:miter;stroke:rgb(0%,0%,0%);stroke-opacity:1;stroke-miterlimit:10;" d="M 1712.304688 1924.570312 L 1924.570312 1924.570312 L 1924.570312 2136.835938 L 1712.304688 2136.835938 Z M 1712.304688 1924.570312 " transform="matrix(0.1,0,0,-0.1,0,300)"/>
<path style="fill-rule:nonzero;fill:rgb(100%,100%,100%);fill-opacity:1;stroke-width:10;stroke-linecap:butt;stroke-linejoin:miter;stroke:rgb(0%,0%,0%);stroke-opacity:1;stroke-miterlimit:10;" d="M 1924.570312 1924.570312 L 2136.835938 1924.570312 L 2136.835938 2136.835938 L 1924.570312 2136.835938 Z M 1924.570312 1924.570312 " transform="matrix(0.1,0,0,-0.1,0,300)"/>
<path style="fill-rule:nonzero;fill:rgb(59.959412%,59.959412%,59.959412%);fill-opacity:1;stroke-width:10;stroke-linecap:butt;stroke-linejoin:miter;stroke:rgb(0%,0%,0%);stroke-opacity:1;stroke-miterlimit:10;" d="M 2136.875 1924.570312 L 2349.140625 1924.570312 L 2349.140625 2136.835938 L 2136.875 2136.835938 Z M 2136.875 1924.570312 " transform="matrix(0.1,0,0,-0.1,0,300)"/>
<path style="fill-rule:nonzero;fill:rgb(100%,100%,100%);fill-opacity:1;stroke-width:10;stroke-linecap:butt;stroke-linejoin:miter;stroke:rgb(0%,0%,0%);stroke-opacity:1;stroke-miterlimit:10;" d="M 2349.140625 1924.570312 L 2561.40625 1924.570312 L 2561.40625 2136.835938 L 2349.140625 2136.835938 Z M 2349.140625 1924.570312 " transform="matrix(0.1,0,0,-0.1,0,300)"/>
<path style="fill-rule:nonzero;fill:rgb(59.959412%,59.959412%,59.959412%);fill-opacity:1;stroke-width:10;stroke-linecap:butt;stroke-linejoin:miter;stroke:rgb(0%,0%,0%);stroke-opacity:1;stroke-miterlimit:10;" d="M 650.859375 2136.875 L 863.125 2136.875 L 863.125 2349.140625 L 650.859375 2349.140625 Z M 650.859375 2136.875 " transform="matrix(0.1,0,0,-0.1,0,300)"/>
<path style="fill-rule:nonzero;fill:rgb(100%,100%,100%);fill-opacity:1;stroke-width:10;stroke-linecap:butt;stroke-linejoin:miter;stroke:rgb(0%,0%,0%);stroke-opacity:1;stroke-miterlimit:10;" d="M 863.164062 2136.875 L 1075.429688 2136.875 L 1075.429688 2349.140625 L 863.164062 2349.140625 Z M 863.164062 2136.875 " transform="matrix(0.1,0,0,-0.1,0,300)"/>
<path style="fill-rule:nonzero;fill:rgb(59.959412%,59.959412%,59.959412%);fill-opacity:1;stroke-width:10;stroke-linecap:butt;stroke-linejoin:miter;stroke:rgb(0%,0%,0%);stroke-opacity:1;stroke-miterlimit:10;" d="M 1075.429688 2136.875 L 1287.734375 2136.875 L 1287.734375 2349.140625 L 1075.429688 2349.140625 Z M 1075.429688 2136.875 " transform="matrix(0.1,0,0,-0.1,0,300)"/>
<path style="fill-rule:nonzero;fill:rgb(100%,100%,100%);fill-opacity:1;stroke-width:10;stroke-linecap:butt;stroke-linejoin:miter;stroke:rgb(0%,0%,0%);stroke-opacity:1;stroke-miterlimit:10;" d="M 1287.695312 2136.875 L 1500 2136.875 L 1500 2349.140625 L 1287.695312 2349.140625 Z M 1287.695312 2136.875 " transform="matrix(0.1,0,0,-0.1,0,300)"/>
<path style="fill-rule:nonzero;fill:rgb(59.959412%,59.959412%,59.959412%);fill-opacity:1;stroke-width:10;stroke-linecap:butt;stroke-linejoin:miter;stroke:rgb(0%,0%,0%);stroke-opacity:1;stroke-miterlimit:10;" d="M 1500 2136.875 L 1712.265625 2136.875 L 1712.265625 2349.140625 L 1500 2349.140625 Z M 1500 2136.875 " transform="matrix(0.1,0,0,-0.1,0,300)"/>
<path style="fill-rule:nonzero;fill:rgb(100%,100%,100%);fill-opacity:1;stroke-width:10;stroke-linecap:butt;stroke-linejoin:miter;stroke:rgb(0%,0%,0%);stroke-opacity:1;stroke-miterlimit:10;" d="M 1712.304688 2136.875 L 1924.570312 2136.875 L 1924.570312 2349.140625 L 1712.304688 2349.140625 Z M 1712.304688 2136.875 " transform="matrix(0.1,0,0,-0.1,0,300)"/>
<path style="fill-rule:nonzero;fill:rgb(59.959412%,59.959412%,59.959412%);fill-opacity:1;stroke-width:10;stroke-linecap:butt;stroke-linejoin:miter;stroke:rgb(0%,0%,0%);stroke-opacity:1;stroke-miterlimit:10;" d="M 1924.570312 2136.875 L 2136.835938 2136.875 L 2136.835938 2349.140625 L 1924.570312 2349.140625 Z M 1924.570312 2136.875 " transform="matrix(0.1,0,0,-0.1,0,300)"/>
<path style="fill-rule:nonzero;fill:rgb(100%,100%,100%);fill-opacity:1;stroke-width:10;stroke-linecap:butt;stroke-linejoin:miter;stroke:rgb(0%,0%,0%);stroke-opacity:1;stroke-miterlimit:10;" d="M 2136.875 2136.875 L 2349.140625 2136.875 L 2349.140625 2349.140625 L 2136.875 2349.140625 Z M 2136.875 2136.875 " transform="matrix(0.1,0,0,-0.1,0,300)"/>
<path style="fill-rule:nonzero;fill:rgb(59.959412%,59.959412%,59.959412%);fill-opacity:1;stroke-width:10;stroke-linecap:butt;stroke-linejoin:miter;stroke:rgb(0%,0%,0%);stroke-opacity:1;stroke-miterlimit:10;" d="M 863.164062 2349.140625 L 1075.429688 2349.140625 L 1075.429688 2561.40625 L 863.164062 2561.40625 Z M 863.164062 2349.140625 " transform="matrix(0.1,0,0,-0.1,0,300)"/>
<path style="fill-rule:nonzero;fill:rgb(100%,100%,100%);fill-opacity:1;stroke-width:10;stroke-linecap:butt;stroke-linejoin:miter;stroke:rgb(0%,0%,0%);stroke-opacity:1;stroke-miterlimit:10;" d="M 1075.429688 2349.140625 L 1287.734375 2349.140625 L 1287.734375 2561.40625 L 1075.429688 2561.40625 Z M 1075.429688 2349.140625 " transform="matrix(0.1,0,0,-0.1,0,300)"/>
<path style="fill-rule:nonzero;fill:rgb(59.959412%,59.959412%,59.959412%);fill-opacity:1;stroke-width:10;stroke-linecap:butt;stroke-linejoin:miter;stroke:rgb(0%,0%,0%);stroke-opacity:1;stroke-miterlimit:10;" d="M 1287.695312 2349.140625 L 1500 2349.140625 L 1500 2561.40625 L 1287.695312 2561.40625 Z M 1287.695312 2349.140625 " transform="matrix(0.1,0,0,-0.1,0,300)"/>
<path style="fill-rule:nonzero;fill:rgb(100%,100%,100%);fill-opacity:1;stroke-width:10;stroke-linecap:butt;stroke-linejoin:miter;stroke:rgb(0%,0%,0%);stroke-opacity:1;stroke-miterlimit:10;" d="M 1500 2349.140625 L 1712.265625 2349.140625 L 1712.265625 2561.40625 L 1500 2561.40625 Z M 1500 2349.140625 " transform="matrix(0.1,0,0,-0.1,0,300)"/>
<path style="fill-rule:nonzero;fill:rgb(59.959412%,59.959412%,59.959412%);fill-opacity:1;stroke-width:10;stroke-linecap:butt;stroke-linejoin:miter;stroke:rgb(0%,0%,0%);stroke-opacity:1;stroke-miterlimit:10;" d="M 1712.304688 2349.140625 L 1924.570312 2349.140625 L 1924.570312 2561.40625 L 1712.304688 2561.40625 Z M 1712.304688 2349.140625 " transform="matrix(0.1,0,0,-0.1,0,300)"/>
<path style="fill-rule:nonzero;fill:rgb(100%,100%,100%);fill-opacity:1;stroke-width:10;stroke-linecap:butt;stroke-linejoin:miter;stroke:rgb(0%,0%,0%);stroke-opacity:1;stroke-miterlimit:10;" d="M 1924.570312 2349.140625 L 2136.835938 2349.140625 L 2136.835938 2561.40625 L 1924.570312 2561.40625 Z M 1924.570312 2349.140625 " transform="matrix(0.1,0,0,-0.1,0,300)"/>
<path style="fill-rule:nonzero;fill:rgb(59.959412%,59.959412%,59.959412%);fill-opacity:1;stroke-width:10;stroke-linecap:butt;stroke-linejoin:miter;stroke:rgb(0%,0%,0%);stroke-opacity:1;stroke-miterlimit:10;" d="M 1075.429688 2561.445312 L 1287.734375 2561.445312 L 1287.734375 2773.710938 L 1075.429688 2773.710938 Z M 1075.429688 2561.445312 " transform="matrix(0.1,0,0,-0.1,0,300)"/>
<path style="fill-rule:nonzero;fill:rgb(100%,100%,100%);fill-opacity:1;stroke-width:10;stroke-linecap:butt;stroke-linejoin:miter;stroke:rgb(0%,0%,0%);stroke-opacity:1;stroke-miterlimit:10;" d="M 1287.695312 2561.445312 L 1500 2561.445312 L 1500 2773.710938 L 1287.695312 2773.710938 Z M 1287.695312 2561.445312 " transform="matrix(0.1,0,0,-0.1,0,300)"/>
<path style="fill-rule:nonzero;fill:rgb(59.959412%,59.959412%,59.959412%);fill-opacity:1;stroke-width:10;stroke-linecap:butt;stroke-linejoin:miter;stroke:rgb(0%,0%,0%);stroke-opacity:1;stroke-miterlimit:10;" d="M 1500 2561.445312 L 1712.265625 2561.445312 L 1712.265625 2773.710938 L 1500 2773.710938 Z M 1500 2561.445312 " transform="matrix(0.1,0,0,-0.1,0,300)"/>
<path style="fill-rule:nonzero;fill:rgb(100%,100%,100%);fill-opacity:1;stroke-width:10;stroke-linecap:butt;stroke-linejoin:miter;stroke:rgb(0%,0%,0%);stroke-opacity:1;stroke-miterlimit:10;" d="M 1712.304688 2561.445312 L 1924.570312 2561.445312 L 1924.570312 2773.710938 L 1712.304688 2773.710938 Z M 1712.304688 2561.445312 " transform="matrix(0.1,0,0,-0.1,0,300)"/>
<path style="fill-rule:nonzero;fill:rgb(59.959412%,59.959412%,59.959412%);fill-opacity:1;stroke-width:10;stroke-linecap:butt;stroke-linejoin:miter;stroke:rgb(0%,0%,0%);stroke-opacity:1;stroke-miterlimit:10;" d="M 1287.695312 2773.710938 L 1500 2773.710938 L 1500 2985.976562 L 1287.695312 2985.976562 Z M 1287.695312 2773.710938 " transform="matrix(0.1,0,0,-0.1,0,300)"/>
<path style="fill-rule:nonzero;fill:rgb(100%,100%,100%);fill-opacity:1;stroke-width:10;stroke-linecap:butt;stroke-linejoin:miter;stroke:rgb(0%,0%,0%);stroke-opacity:1;stroke-miterlimit:10;" d="M 1500 2773.710938 L 1712.265625 2773.710938 L 1712.265625 2985.976562 L 1500 2985.976562 Z M 1500 2773.710938 " transform="matrix(0.1,0,0,-0.1,0,300)"/>
<path style=" stroke:none;fill-rule:nonzero;fill:rgb(75%,75%,0%);fill-opacity:1;" d="M 133.015625 273.125 L 166.984375 273.125 L 166.984375 260.390625 L 133.015625 260.390625 Z M 133.015625 273.125 "/>
<path style=" stroke:none;fill-rule:nonzero;fill:rgb(75%,75%,0%);fill-opacity:1;" d="M 111.789062 251.898438 L 145.753906 251.898438 L 145.753906 239.160156 L 111.789062 239.160156 Z M 111.789062 251.898438 "/>
<path style=" stroke:none;fill-rule:nonzero;fill:rgb(75%,75%,0%);fill-opacity:1;" d="M 154.246094 251.898438 L 188.210938 251.898438 L 188.210938 239.160156 L 154.246094 239.160156 Z M 154.246094 251.898438 "/>
<path style=" stroke:none;fill-rule:nonzero;fill:rgb(75%,75%,0%);fill-opacity:1;" d="M 90.558594 230.667969 L 124.527344 230.667969 L 124.527344 217.929688 L 90.558594 217.929688 Z M 90.558594 230.667969 "/>
<path style=" stroke:none;fill-rule:nonzero;fill:rgb(75%,75%,0%);fill-opacity:1;" d="M 133.015625 230.667969 L 166.984375 230.667969 L 166.984375 217.929688 L 133.015625 217.929688 Z M 133.015625 230.667969 "/>
<path style=" stroke:none;fill-rule:nonzero;fill:rgb(0%,50%,0%);fill-opacity:1;" d="M 175.472656 230.667969 L 188.210938 230.667969 L 188.210938 196.703125 L 175.472656 196.703125 Z M 175.472656 230.667969 "/>
<path style=" stroke:none;fill-rule:nonzero;fill:rgb(0%,50%,0%);fill-opacity:1;" d="M 69.332031 209.441406 L 82.070312 209.441406 L 82.070312 175.472656 L 69.332031 175.472656 Z M 69.332031 209.441406 "/>
<path style=" stroke:none;fill-rule:nonzero;fill:rgb(100%,0%,0%);fill-opacity:1;" d="M 90.558594 209.441406 L 124.527344 209.441406 L 124.527344 196.703125 L 90.558594 196.703125 Z M 90.558594 209.441406 "/>
<path style=" stroke:none;fill-rule:nonzero;fill:rgb(100%,0%,0%);fill-opacity:1;" d="M 133.015625 209.441406 L 166.984375 209.441406 L 166.984375 196.703125 L 133.015625 196.703125 Z M 133.015625 209.441406 "/>
<path style=" stroke:none;fill-rule:nonzero;fill:rgb(0%,0%,100%);fill-opacity:1;" d="M 196.703125 230.667969 L 209.441406 230.667969 L 209.441406 196.703125 L 196.703125 196.703125 Z M 196.703125 230.667969 "/>
<path style=" stroke:none;fill-rule:nonzero;fill:rgb(0%,50%,0%);fill-opacity:1;" d="M 48.101562 188.210938 L 60.839844 188.210938 L 60.839844 154.246094 L 48.101562 154.246094 Z M 48.101562 188.210938 "/>
<path style=" stroke:none;fill-rule:nonzero;fill:rgb(75%,75%,0%);fill-opacity:1;" d="M 90.558594 188.210938 L 124.527344 188.210938 L 124.527344 175.472656 L 90.558594 175.472656 Z M 90.558594 188.210938 "/>
<path style=" stroke:none;fill-rule:nonzero;fill:rgb(75%,75%,0%);fill-opacity:1;" d="M 133.015625 188.210938 L 166.984375 188.210938 L 166.984375 175.472656 L 133.015625 175.472656 Z M 133.015625 188.210938 "/>
<path style=" stroke:none;fill-rule:nonzero;fill:rgb(75%,75%,0%);fill-opacity:1;" d="M 175.472656 188.210938 L 209.441406 188.210938 L 209.441406 175.472656 L 175.472656 175.472656 Z M 175.472656 188.210938 "/>
<path style=" stroke:none;fill-rule:nonzero;fill:rgb(0%,0%,100%);fill-opacity:1;" d="M 217.929688 209.441406 L 230.667969 209.441406 L 230.667969 175.472656 L 217.929688 175.472656 Z M 217.929688 209.441406 "/>
<path style=" stroke:none;fill-rule:nonzero;fill:rgb(0%,50%,0%);fill-opacity:1;" d="M 26.875 166.984375 L 39.609375 166.984375 L 39.609375 133.015625 L 26.875 133.015625 Z M 26.875 166.984375 "/>
<path style=" stroke:none;fill-rule:nonzero;fill:rgb(0%,50%,0%);fill-opacity:1;" d="M 69.332031 166.984375 L 82.070312 166.984375 L 82.070312 133.015625 L 69.332031 133.015625 Z M 69.332031 166.984375 "/>
<path style=" stroke:none;fill-rule:nonzero;fill:rgb(0%,50%,0%);fill-opacity:1;" d="M 111.789062 166.984375 L 124.527344 166.984375 L 124.527344 133.015625 L 111.789062 133.015625 Z M 111.789062 166.984375 "/>
<path style=" stroke:none;fill-rule:nonzero;fill:rgb(0%,50%,0%);fill-opacity:1;" d="M 154.246094 166.984375 L 166.984375 166.984375 L 166.984375 133.015625 L 154.246094 133.015625 Z M 154.246094 166.984375 "/>
<path style=" stroke:none;fill-rule:nonzero;fill:rgb(0%,50%,0%);fill-opacity:1;" d="M 196.703125 166.984375 L 209.441406 166.984375 L 209.441406 133.015625 L 196.703125 133.015625 Z M 196.703125 166.984375 "/>
<path style=" stroke:none;fill-rule:nonzero;fill:rgb(0%,0%,100%);fill-opacity:1;" d="M 239.160156 188.210938 L 251.898438 188.210938 L 251.898438 154.246094 L 239.160156 154.246094 Z M 239.160156 188.210938 "/>
<path style=" stroke:none;fill-rule:nonzero;fill:rgb(0%,50%,0%);fill-opacity:1;" d="M 48.101562 145.753906 L 60.839844 145.753906 L 60.839844 111.789062 L 48.101562 111.789062 Z M 48.101562 145.753906 "/>
<path style=" stroke:none;fill-rule:nonzero;fill:rgb(0%,0%,100%);fill-opacity:1;" d="M 90.558594 166.984375 L 103.296875 166.984375 L 103.296875 133.015625 L 90.558594 133.015625 Z M 90.558594 166.984375 "/>
<path style=" stroke:none;fill-rule:nonzero;fill:rgb(0%,0%,100%);fill-opacity:1;" d="M 133.015625 166.984375 L 145.753906 166.984375 L 145.753906 133.015625 L 133.015625 133.015625 Z M 133.015625 166.984375 "/>
<path style=" stroke:none;fill-rule:nonzero;fill:rgb(0%,0%,100%);fill-opacity:1;" d="M 175.472656 166.984375 L 188.210938 166.984375 L 188.210938 133.015625 L 175.472656 133.015625 Z M 175.472656 166.984375 "/>
<path style=" stroke:none;fill-rule:nonzero;fill:rgb(0%,0%,100%);fill-opacity:1;" d="M 217.929688 166.984375 L 230.667969 166.984375 L 230.667969 133.015625 L 217.929688 133.015625 Z M 217.929688 166.984375 "/>
<path style=" stroke:none;fill-rule:nonzero;fill:rgb(0%,0%,100%);fill-opacity:1;" d="M 260.390625 166.984375 L 273.125 166.984375 L 273.125 133.015625 L 260.390625 133.015625 Z M 260.390625 166.984375 "/>
<path style=" stroke:none;fill-rule:nonzero;fill:rgb(75%,75%,0%);fill-opacity:1;" d="M 69.332031 124.527344 L 103.296875 124.527344 L 103.296875 111.789062 L 69.332031 111.789062 Z M 69.332031 124.527344 "/>
<path style=" stroke:none;fill-rule:nonzero;fill:rgb(75%,75%,0%);fill-opacity:1;" d="M 111.789062 124.527344 L 145.753906 124.527344 L 145.753906 111.789062 L 111.789062 111.789062 Z M 111.789062 124.527344 "/>
<path style=" stroke:none;fill-rule:nonzero;fill:rgb(0%,50%,0%);fill-opacity:1;" d="M 154.246094 124.527344 L 166.984375 124.527344 L 166.984375 90.558594 L 154.246094 90.558594 Z M 154.246094 124.527344 "/>
<path style=" stroke:none;fill-rule:nonzero;fill:rgb(100%,0%,0%);fill-opacity:1;" d="M 175.472656 124.527344 L 209.441406 124.527344 L 209.441406 111.789062 L 175.472656 111.789062 Z M 175.472656 124.527344 "/>
<path style=" stroke:none;fill-rule:nonzero;fill:rgb(0%,0%,100%);fill-opacity:1;" d="M 239.160156 145.753906 L 251.898438 145.753906 L 251.898438 111.789062 L 239.160156 111.789062 Z M 239.160156 145.753906 "/>
<path style=" stroke:none;fill-rule:nonzero;fill:rgb(100%,0%,0%);fill-opacity:1;" d="M 69.332031 103.296875 L 103.296875 103.296875 L 103.296875 90.558594 L 69.332031 90.558594 Z M 69.332031 103.296875 "/>
<path style=" stroke:none;fill-rule:nonzero;fill:rgb(100%,0%,0%);fill-opacity:1;" d="M 111.789062 103.296875 L 145.753906 103.296875 L 145.753906 90.558594 L 111.789062 90.558594 Z M 111.789062 103.296875 "/>
<path style=" stroke:none;fill-rule:nonzero;fill:rgb(75%,75%,0%);fill-opacity:1;" d="M 175.472656 103.296875 L 209.441406 103.296875 L 209.441406 90.558594 L 175.472656 90.558594 Z M 175.472656 103.296875 "/>
<path style=" stroke:none;fill-rule:nonzero;fill:rgb(0%,0%,100%);fill-opacity:1;" d="M 217.929688 124.527344 L 230.667969 124.527344 L 230.667969 90.558594 L 217.929688 90.558594 Z M 217.929688 124.527344 "/>
<path style=" stroke:none;fill-rule:nonzero;fill:rgb(100%,0%,0%);fill-opacity:1;" d="M 90.558594 82.070312 L 124.527344 82.070312 L 124.527344 69.332031 L 90.558594 69.332031 Z M 90.558594 82.070312 "/>
<path style=" stroke:none;fill-rule:nonzero;fill:rgb(100%,0%,0%);fill-opacity:1;" d="M 133.015625 82.070312 L 166.984375 82.070312 L 166.984375 69.332031 L 133.015625 69.332031 Z M 133.015625 82.070312 "/>
<path style=" stroke:none;fill-rule:nonzero;fill:rgb(100%,0%,0%);fill-opacity:1;" d="M 175.472656 82.070312 L 209.441406 82.070312 L 209.441406 69.332031 L 175.472656 69.332031 Z M 175.472656 82.070312 "/>
<path style=" stroke:none;fill-rule:nonzero;fill:rgb(100%,0%,0%);fill-opacity:1;" d="M 111.789062 60.839844 L 145.753906 60.839844 L 145.753906 48.101562 L 111.789062 48.101562 Z M 111.789062 60.839844 "/>
<path style=" stroke:none;fill-rule:nonzero;fill:rgb(100%,0%,0%);fill-opacity:1;" d="M 154.246094 60.839844 L 188.210938 60.839844 L 188.210938 48.101562 L 154.246094 48.101562 Z M 154.246094 60.839844 "/>
<path style=" stroke:none;fill-rule:nonzero;fill:rgb(100%,0%,0%);fill-opacity:1;" d="M 133.015625 39.609375 L 166.984375 39.609375 L 166.984375 26.875 L 133.015625 26.875 Z M 133.015625 39.609375 "/>
</g>
</svg>
