<?xml version="1.0" encoding="UTF-8"?>
<svg xmlns="http://www.w3.org/2000/svg" xmlns:xlink="http://www.w3.org/1999/xlink" width="300pt" height="300pt" viewBox="0 0 300 300" version="1.2">
<g id="surface1">
<path style="fill-rule:nonzero;fill:rgb(100%,100%,100%);fill-opacity:1;stroke-width:10;stroke-linecap:butt;stroke-linejoin:miter;stroke:rgb(0%,0%,0%);stroke-opacity:1;stroke-miterlimit:10;" d="M 1287.695312 13.984375 L 1500 13.984375 L 1500 226.289062 L 1287.695312 226.289062 Z M 1287.695312 13.984375 " transform="matrix(0.1,0,0,-0.1,0,300)"/>
<path style="fill-rule:nonzero;fill:rgb(59.959412%,59.959412%,59.959412%);fill-opacity:1;stroke-width:10;stroke-linecap:butt;stroke-linejoin:miter;stroke:rgb(0%,0%,0%);stroke-opacity:1;stroke-miterlimit:10;" d="M 1500 13.984375 L 1712.265625 13.984375 L 1712.265625 226.289062 L 1500 226.289062 Z M 1500 13.984375 " transform="matrix(0.1,0,0,-0.1,0,300)"/>
<path style="fill-rule:nonzero;fill:rgb(100%,100%,100%);fill-opacity:1;stroke-width:10;stroke-linecap:butt;stroke-linejoin:miter;stroke:rgb(0%,0%,0%);stroke-opacity:1;stroke-miterlimit:10;" d="M 1075.429688 226.289062 L 1287.734375 226.289062 L 1287.734375 438.554688 L 1075.429688 438.554688 Z M 1075.429688 226.289062 " transform="matrix(0.1,0,0,-0.1,0,300)"/>
<path style="fill-rule:nonzero;fill:rgb(59.959412%,59.959412%,59.959412%);fill-opacity:1;stroke-width:10;stroke-linecap:butt;stroke-linejoin:miter;stroke:rgb(0%,0%,0%);stroke-opacity:1;stroke-miterlimit:10;" d="M 1287.695312 226.289062 L 1500 226.289062 L 1500 438.554688 L 1287.695312 438.554688 Z M 1287.695312 226.289062 " transform="matrix(0.1,0,0,-0.1,0,300)"/>
<path style="fill-rule:nonzero;fill:rgb(100%,100%,100%);fill-opacity:1;stroke-width:10;stroke-linecap:butt;stroke-linejoin:miter;stroke:rgb(0%,0%,0%);stroke-opacity:1;stroke-miterlimit:10;" d="M 1500 226.289062 L 1712.265625 226.289062 L 1712.265625 438.554688 L 1500 438.554688 Z M 1500 226.289062 " transform="matrix(0.1,0,0,-0.1,0,300)"/>
<path style="fill-rule:nonzero;fill:rgb(59.959412%,59.959412%,59.959412%);fill-opacity:1;stroke-width:10;stroke-linecap:butt;stroke-linejoin:miter;stroke:rgb(0%,0%,0%);stroke-opacity:1;stroke-miterlimit:10;" d="M 1712.304688 226.289062 L 1924.570312 226.289062 L 1924.570312 438.554688 L 1712.304688 438.554688 Z M 1712.304688 226.289062 " transform="matrix(0.1,0,0,-0.1,0,300)"/>
<path style="fill-rule:nonzero;fill:rgb(100%,100%,100%);fill-opacity:1;stroke-width:10;stroke-linecap:butt;stroke-linejoin:miter;stroke:rgb(0%,0%,0%);stroke-opacity:1;stroke-miterlimit:10;" d="M 863.164062 438.554688 L 1075.429688 438.554688 L 1075.429688 650.859375 L 863.164062 650.859375 Z M 863.164062 438.554688 " transform="matrix(0.1,0,0,-0.1,0,300)"/>
<path style="fill-rule:nonzero;fill:rgb(59.959412%,59.959412%,59.959412%);fill-opacity:1;stroke-width:10;stroke-linecap:butt;stroke-linejoin:miter;stroke:rgb(0%,0%,0%);stroke-opacity:1;stroke-miterlimit:10;" d="M 1075.429688 438.554688 L 1287.734375 438.554688 L 1287.734375 650.859375 L 1075.429688 650.859375 Z M 1075.429688 438.554688 " transform="matrix(0.1,0,0,-0.1,0,300)"/>
<path style="fill-rule:nonzero;fill:rgb(100%,100%,100%);fill-opacity:1;stroke-width:10;stroke-linecap:butt;stroke-linejoin:miter;stroke:rgb(0%,0%,0%);stroke-opacity:1;stroke-miterlimit:10;" d="M 1287.695312 438.554688 L 1500 438.554688 L 1500 650.859375 L 1287.695312 650.859375 Z M 1287.695312 438.554688 " transform="matrix(0.1,0,0,-0.1,0,300)"/>
<path style="fill-rule:nonzero;fill:rgb(59.959412%,59.959412%,59.959412%);fill-opacity:1;stroke-width:10;stroke-linecap:butt;stroke-linejoin:miter;stroke:rgb(0%,0%,0%);stroke-opacity:1;stroke-miterlimit:10;" d="M 1500 438.554688 L 1712.265625 438.554688 L 1712.265625 650.859375 L 1500 650.859375 Z M 1500 438.554688 " transform="matrix(0.1,0,0,-0.1,0,300)"/>
<path style="fill-rule:nonzero;fill:rgb(100%,100%,100%);fill-opacity:1;stroke-width:10;stroke-linecap:butt;stroke-linejoin:miter;stroke:rgb(0%,0%,0%);stroke-opacity:1;stroke-miterlimit:10;" d="M 1712.304688 438.554688 L 1924.570312 438.554688 L 1924.570312 650.859375 L 1712.304688 650.859375 Z M 1712.304688 438.554688 " transform="matrix(0.1,0,0,-0.1,0,300)"/>
<path style="fill-rule:nonzero;fill:rgb(59.959412%,59.959412%,59.959412%);fill-opacity:1;stroke-width:10;stroke-linecap:butt;stroke-linejoin:miter;stroke:rgb(0%,0%,0%);stroke-opacity:1;stroke-miterlimit:10;" d="M 1924.570312 438.554688 L 2136.835938 438.554688 L 2136.835938 650.859375 L 1924.570312 650.859375 Z M 1924.570312 438.554688 " transform="matrix(0.1,0,0,-0.1,0,300)"/>
<path style="fill-rule:nonzero;fill:rgb(100%,100%,100%);fill-opacity:1;stroke-width:10;stroke-linecap:butt;stroke-linejoin:miter;stroke:rgb(0%,0%,0%);stroke-opacity:1;stroke-miterlimit:10;" d="M 650.859375 650.859375 L 863.125 650.859375 L 863.125 863.125 L 650.859375 863.125 Z M 650.859375 650.859375 " transform="matrix(0.1,0,0,-0.1,0,300)"/>
<path style="fill-rule:nonzero;fill:rgb(59.959412%,59.959412%,59.959412%);fill-opacity:1;stroke-width:10;stroke-linecap:butt;stroke-linejoin:miter;stroke:rgb(0%,0%,0%);stroke-opacity:1;stroke-miterlimit:10;" d="M 863.164062 650.859375 L 1075.429688 650.859375 L 1075.429688 863.125 L 863.164062 863.125 Z M 863.164062 650.859375 " transform="matrix(0.1,0,0,-0.1,0,300)"/>
<path style="fill-rule:nonzero;fill:rgb(100%,100%,100%);fill-opacity:1;stroke-width:10;stroke-linecap:butt;stroke-linejoin:miter;stroke:rgb(0%,0%,0%);stroke-opacity:1;stroke-miterlimit:10;" d="M 1075.429688 650.859375 L 1287.734375 650.859375 L 1287.734375 863.125 L 1075.429688 863.125 Z M 1075.429688 650.859375 " transform="matrix(0.1,0,0,-0.1,0,300)"/>
<path style="fill-rule:nonzero;fill:rgb(59.959412%,59.959412%,59.959412%);fill-opacity:1;stroke-width:10;stroke-linecap:butt;stroke-linejoin:miter;stroke:rgb(0%,0%,0%);stroke-opacity:1;stroke-miterlimit:10;" d="M 1287.695312 650.859375 L 1500 650.859375 L 1500 863.125 L 1287.695312 863.125 Z M 1287.695312 650.859375 " transform="matrix(0.1,0,0,-0.1,0,300)"/>
<path style="fill-rule:nonzero;fill:rgb(100%,100%,100%);fill-opacity:1;stroke-width:10;stroke-linecap:butt;stroke-linejoin:miter;stroke:rgb(0%,0%,0%);stroke-opacity:1;stroke-miterlimit:10;" d="M 1500 650.859375 L 1712.265625 650.859375 L 1712.265625 863.125 L 1500 863.125 Z M 1500 650.859375 " transform="matrix(0.1,0,0,-0.1,0,300)"/>
<path style="fill-rule:nonzero;fill:rgb(59.959412%,59.959412%,59.959412%);fill-opacity:1;stroke-width:10;stroke-linecap:butt;stroke-linejoin:miter;stroke:rgb(0%,0%,0%);stroke-opacity:1;stroke-miterlimit:10;" d="M 1712.304688 650.859375 L 1924.570312 650.859375 L 1924.570312 863.125 L 1712.304688 863.125 Z M 1712.304688 650.859375 " transform="matrix(0.1,0,0,-0.1,0,300)"/>
<path style="fill-rule:nonzero;fill:rgb(100%,100%,100%);fill-opacity:1;stroke-width:10;stroke-linecap:butt;stroke-linejoin:miter;stroke:rgb(0%,0%,0%);stroke-opacity:1;stroke-miterlimit:10;" d="M 1924.570312 650.859375 L 2136.835938 650.859375 L 2136.835938 863.125 L 1924.570312 863.125 Z M 1924.570312 650.859375 " transform="matrix(0.1,0,0,-0.1,0,300)"/>
<path style="fill-rule:nonzero;fill:rgb(59.959412%,59.959412%,59.959412%);fill-opacity:1;stroke-width:10;stroke-linecap:butt;stroke-linejoin:miter;stroke:rgb(0%,0%,0%);stroke-opacity:1;stroke-miterlimit:10;" d="M 2136.875 650.859375 L 2349.140625 650.859375 L 2349.140625 863.125 L 2136.875 863.125 Z M 2136.875 650.859375 " transform="matrix(0.1,0,0,-0.1,0,300)"/>
<path style="fill-rule:nonzero;fill:rgb(100%,100%,100%);fill-opacity:1;stroke-width:10;stroke-linecap:butt;stroke-linejoin:miter;stroke:rgb(0%,0%,0%);stroke-opacity:1;stroke-miterlimit:10;" d="M 438.554688 863.164062 L 650.859375 863.164062 L 650.859375 1075.429688 L 438.554688 1075.429688 Z M 438.554688 863.164062 " transform="matrix(0.1,0,0,-0.1,0,300)"/>
<path style="fill-rule:nonzero;fill:rgb(59.959412%,59.959412%,59.959412%);fill-opacity:1;stroke-width:10;stroke-linecap:butt;stroke-linejoin:miter;stroke:rgb(0%,0%,0%);stroke-opacity:1;stroke-miterlimit:10;" d="M 650.859375 863.164062 L 863.125 863.164062 L 863.125 1075.429688 L 650.859375 1075.429688 Z M 650.859375 863.164062 " transform="matrix(0.1,0,0,-0.1,0,300)"/>
<path style="fill-rule:nonzero;fill:rgb(100%,100%,100%);fill-opacity:1;stroke-width:10;stroke-linecap:butt;stroke-linejoin:miter;stroke:rgb(0%,0%,0%);stroke-opacity:1;stroke-miterlimit:10;" d="M 863.164062 863.164062 L 1075.429688 863.164062 L 1075.429688 1075.429688 L 863.164062 1075.429688 Z M 863.164062 863.164062 " transform="matrix(0.1,0,0,-0.1,0,300)"/>
<path style="fill-rule:nonzero;fill:rgb(59.959412%,59.959412%,59.959412%);fill-opacity:1;stroke-width:10;stroke-linecap:butt;stroke-linejoin:miter;stroke:rgb(0%,0%,0%);stroke-opacity:1;stroke-miterlimit:10;" d="M 1075.429688 863.164062 L 1287.734375 863.164062 L 1287.734375 1075.429688 L 1075.429688 1075.429688 Z M 1075.429688 863.164062 " transform="matrix(0.1,0,0,-0.1,0,300)"/>
<path style="fill-rule:nonzero;fill:rgb(100%,100%,100%);fill-opacity:1;stroke-width:10;stroke-linecap:butt;stroke-linejoin:miter;stroke:rgb(0%,0%,0%);stroke-opacity:1;stroke-miterlimit:10;" d="M 1287.695312 863.164062 L 1500 863.164062 L 1500 1075.429688 L 1287.695312 1075.429688 Z M 1287.695312 863.164062 " transform="matrix(0.1,0,0,-0.1,0,300)"/>
<path style="fill-rule:nonzero;fill:rgb(59.959412%,59.959412%,59.959412%);fill-opacity:1;stroke-width:10;stroke-linecap:butt;stroke-linejoin:miter;stroke:rgb(0%,0%,0%);stroke-opacity:1;stroke-miterlimit:10;" d="M 1500 863.164062 L 1712.265625 863.164062 L 1712.265625 1075.429688 L 1500 1075.429688 Z M 1500 863.164062 " transform="matrix(0.1,0,0,-0.1,0,300)"/>
<path style="fill-rule:nonzero;fill:rgb(100%,100%,100%);fill-opacity:1;stroke-width:10;stroke-linecap:butt;stroke-linejoin:miter;stroke:rgb(0%,0%,0%);stroke-opacity:1;stroke-miterlimit:10;" d="M 1712.304688 863.164062 L 1924.570312 863.164062 L 1924.570312 1075.429688 L 1712.304688 1075.429688 Z M 1712.304688 863.164062 " transform="matrix(0.1,0,0,-0.1,0,300)"/>
<path style="fill-rule:nonzero;fill:rgb(59.959412%,59.959412%,59.959412%);fill-opacity:1;stroke-width:10;stroke-linecap:butt;stroke-linejoin:miter;stroke:rgb(0%,0%,0%);stroke-opacity:1;stroke-miterlimit:10;" d="M 1924.570312 863.164062 L 2136.835938 863.164062 L 2136.835938 1075.429688 L 1924.570312 1075.429688 Z M 1924.570312 863.164062 " transform="matrix(0.1,0,0,-0.1,0,300)"/>
<path style="fill-rule:nonzero;fill:rgb(100%,100%,100%);fill-opacity:1;stroke-width:10;stroke-linecap:butt;stroke-linejoin:miter;stroke:rgb(0%,0%,0%);stroke-opacity:1;stroke-miterlimit:10;" d="M 2136.875 863.164062 L 2349.140625 863.164062 L 2349.140625 1075.429688 L 2136.875 1075.429688 Z M 2136.875 863.164062 " transform="matrix(0.1,0,0,-0.1,0,300)"/>
<path style="fill-rule:nonzero;fill:rgb(59.959412%,59.959412%,59.959412%);fill-opacity:1;stroke-width:10;stroke-linecap:butt;stroke-linejoin:miter;stroke:rgb(0%,0%,0%);stroke-opacity:1;stroke-miterlimit:10;" d="M 2349.140625 863.164062 L 2561.40625 863.164062 L 2561.40625 1075.429688 L 2349.140625 1075.429688 Z M 2349.140625 863.164062 " transform="matrix(0.1,0,0,-0.1,0,300)"/>
<path style="fill-rule:nonzero;fill:rgb(100%,100%,100%);fill-opacity:1;stroke-width:10;stroke-linecap:butt;stroke-linejoin:miter;stroke:rgb(0%,0%,0%);stroke-opacity:1;stroke-miterlimit:10;" d="M 226.289062 1075.429688 L 438.554688 1075.429688 L 438.554688 1287.734375 L 226.289062 1287.734375 Z M 226.289062 1075.429688 " transform="matrix(0.1,0,0,-0.1,0,300)"/>
<path style="fill-rule:nonzero;fill:rgb(59.959412%,59.959412%,59.959412%);fill-opacity:1;stroke-width:10;stroke-linecap:butt;stroke-linejoin:miter;stroke:rgb(0%,0%,0%);stroke-opacity:1;stroke-miterlimit:10;" d="M 438.554688 1075.429688 L 650.859375 1075.429688 L 650.859375 1287.734375 L 438.554688 1287.734375 Z M 438.554688 1075.429688 " transform="matrix(0.1,0,0,-0.1,0,300)"/>
<path style="fill-rule:nonzero;fill:rgb(100%,100%,100%);fill-opacity:1;stroke-width:10;stroke-linecap:butt;stroke-linejoin:miter;stroke:rgb(0%,0%,0%);stroke-opacity:1;stroke-miterlimit:10;" d="M 650.859375 1075.429688 L 863.125 1075.429688 L 863.125 1287.734375 L 650.859375 1287.734375 Z M 650.859375 1075.429688 " transform="matrix(0.1,0,0,-0.1,0,300)"/>
<path style="fill-rule:nonzero;fill:rgb(59.959412%,59.959412%,59.959412%);fill-opacity:1;stroke-width:10;stroke-linecap:butt;stroke-linejoin:miter;stroke:rgb(0%,0%,0%);stroke-opacity:1;stroke-miterlimit:10;" d="M 863.164062 1075.429688 L 1075.429688 1075.429688 L 1075.429688 1287.734375 L 863.164062 1287.734375 Z M 863.164062 1075.429688 " transform="matrix(0.1,0,0,-0.1,0,300)"/>
<path style="fill-rule:nonzero;fill:rgb(100%,100%,100%);fill-opacity:1;stroke-width:10;stroke-linecap:butt;stroke-linejoin:miter;stroke:rgb(0%,0%,0%);stroke-opacity:1;stroke-miterlimit:10;" d="M 1075.429688 1075.429688 L 1287.734375 1075.429688 L 1287.734375 1287.734375 L 1075.429688 1287.734375 Z M 1075.429688 1075.429688 " transform="matrix(0.1,0,0,-0.1,0,300)"/>
<path style="fill-rule:nonzero;fill:rgb(59.959412%,59.959412%,59.959412%);fill-opacity:1;stroke-width:10;stroke-linecap:butt;stroke-linejoin:miter;stroke:rgb(0%,0%,0%);stroke-opacity:1;stroke-miterlimit:10;" d="M 1287.695312 1075.429688 L 1500 1075.429688 L 1500 1287.734375 L 1287.695312 1287.734375 Z M 1287.695312 1075.429688 " transform="matrix(0.1,0,0,-0.1,0,300)"/>
<path style="fill-rule:nonzero;fill:rgb(100%,100%,100%);fill-opacity:1;stroke-width:10;stroke-linecap:butt;stroke-linejoin:miter;stroke:rgb(0%,0%,0%);stroke-opacity:1;stroke-miterlimit:10;" d="M 1500 1075.429688 L 1712.265625 1075.429688 L 1712.265625 1287.734375 L 1500 1287.734375 Z M 1500 1075.429688 " transform="matrix(0.1,0,0,-0.1,0,300)"/>
<path style="fill-rule:nonzero;fill:rgb(59.959412%,59.959412%,59.959412%);fill-opacity:1;stroke-width:10;stroke-linecap:butt;stroke-linejoin:miter;stroke:rgb(0%,0%,0%);stroke-opacity:1;stroke-miterlimit:10;" d="M 1712.304688 1075.429688 L 1924.570312 1075.429688 L 1924.570312 1287.734375 L 1712.304688 1287.734375 Z M 1712.304688 1075.429688 " transform="matrix(0.1,0,0,-0.1,0,300)"/>
<path style="fill-rule:nonzero;fill:rgb(100%,100%,100%);fill-opacity:1;stroke-width:10;stroke-linecap:butt;stroke-linejoin:miter;stroke:rgb(0%,0%,0%);stroke-opacity:1;stroke-miterlimit:10;" d="M 1924.570312 1075.429688 L 2136.835938 1075.429688 L 2136.835938 1287.734375 L 1924.570312 1287.734375 Z M 1924.570312 1075.429688 " transform="matrix(0.1,0,0,-0.1,0,300)"/>
<path style="fill-rule:nonzero;fill:rgb(59.959412%,59.959412%,59.959412%);fill-opacity:1;stroke-width:10;stroke-linecap:butt;stroke-linejoin:miter;stroke:rgb(0%,0%,0%);stroke-opacity:1;stroke-miterlimit:10;" d="M 2136.875 1075.429688 L 2349.140625 1075.429688 L 2349.140625 1287.734375 L 2136.875 1287.734375 Z M 2136.875 1075.429688 " transform="matrix(0.1,0,0,-0.1,0,300)"/>
<path style="fill-rule:nonzero;fill:rgb(100%,100%,100%);fill-opacity:1;stroke-width:10;stroke-linecap:butt;stroke-linejoin:miter;stroke:rgb(0%,0%,0%);stroke-opacity:1;stroke-miterlimit:10;" d="M 2349.140625 1075.429688 L 2561.40625 1075.429688 L 2561.40625 1287.734375 L 2349.140625 1287.734375 Z M 2349.140625 1075.429688 " transform="matrix(0.1,0,0,-0.1,0,300)"/>
<path style="fill-rule:nonzero;fill:rgb(59.959412%,59.959412%,59.959412%);fill-opacity:1;stroke-width:10;stroke-linecap:butt;stroke-linejoin:miter;stroke:rgb(0%,0%,0%);stroke-opacity:1;stroke-miterlimit:10;" d="M 2561.445312 1075.429688 L 2773.710938 1075.429688 L 2773.710938 1287.734375 L 2561.445312 1287.734375 Z M 2561.445312 1075.429688 " transform="matrix(0.1,0,0,-0.1,0,300)"/>
<path style="fill-rule:nonzero;fill:rgb(100%,100%,100%);fill-opacity:1;stroke-width:10;stroke-linecap:butt;stroke-linejoin:miter;stroke:rgb(0%,0%,0%);stroke-opacity:1;stroke-miterlimit:10;" d="M 13.984375 1287.695312 L 226.289062 1287.695312 L 226.289062 1500 L 13.984375 1500 Z M 13.984375 1287.695312 " transform="matrix(0.1,0,0,-0.1,0,300)"/>
<path style="fill-rule:nonzero;fill:rgb(59.959412%,59.959412%,59.959412%);fill-opacity:1;stroke-width:10;stroke-linecap:butt;stroke-linejoin:miter;stroke:rgb(0%,0%,0%);stroke-opacity:1;stroke-miterlimit:10;" d="M 226.289062 1287.695312 L 438.554688 1287.695312 L 438.554688 1500 L 226.289062 1500 Z M 226.289062 1287.695312 " transform="matrix(0.1,0,0,-0.1,0,300)"/>
<path style="fill-rule:nonzero;fill:rgb(100%,100%,100%);fill-opacity:1;stroke-width:10;stroke-linecap:butt;stroke-linejoin:miter;stroke:rgb(0%,0%,0%);stroke-opacity:1;stroke-miterlimit:10;" d="M 438.554688 1287.695312 L 650.859375 1287.695312 L 650.859375 1500 L 438.554688 1500 Z M 438.554688 1287.695312 " transform="matrix(0.1,0,0,-0.1,0,300)"/>
<path style="fill-rule:nonzero;fill:rgb(59.959412%,59.959412%,59.959412%);fill-opacity:1;stroke-width:10;stroke-linecap:butt;stroke-linejoin:miter;stroke:rgb(0%,0%,0%);stroke-opacity:1;stroke-miterlimit:10;" d="M 650.859375 1287.695312 L 863.125 1287.695312 L 863.125 1500 L 650.859375 1500 Z M 650.859375 1287.695312 " transform="matrix(0.1,0,0,-0.1,0,300)"/>
<path style="fill-rule:nonzero;fill:rgb(100%,100%,100%);fill-opacity:1;stroke-width:10;stroke-linecap:butt;stroke-linejoin:miter;stroke:rgb(0%,0%,0%);stroke-opacity:1;stroke-miterlimit:10;" d="M 863.164062 1287.695312 L 1075.429688 1287.695312 L 1075.429688 1500 L 863.164062 1500 Z M 863.164062 1287.695312 " transform="matrix(0.1,0,0,-0.1,0,300)"/>
<path style="fill-rule:nonzero;fill:rgb(59.959412%,59.959412%,59.959412%);fill-opacity:1;stroke-width:10;stroke-linecap:butt;stroke-linejoin:miter;stroke:rgb(0%,0%,0%);stroke-opacity:1;stroke-miterlimit:10;" d="M 1075.429688 1287.695312 L 1287.734375 1287.695312 L 1287.734375 1500 L 1075.429688 1500 Z M 1075.429688 1287.695312 " transform="matrix(0.1,0,0,-0.1,0,300)"/>
<path style="fill-rule:nonzero;fill:rgb(100%,100%,100%);fill-opacity:1;stroke-width:10;stroke-linecap:butt;stroke-linejoin:miter;stroke:rgb(0%,0%,0%);stroke-opacity:1;stroke-miterlimit:10;" d="M 1287.695312 1287.695312 L 1500 1287.695312 L 1500 1500 L 1287.695312 1500 Z M 1287.695312 1287.695312 " transform="matrix(0.1,0,0,-0.1,0,300)"/>
<path style="fill-rule:nonzero;fill:rgb(59.959412%,59.959412%,59.959412%);fill-opacity:1;stroke-width:10;stroke-linecap:butt;stroke-linejoin:miter;stroke:rgb(0%,0%,0%);stroke-opacity:1;stroke-miterlimit:10;" d="M 1500 1287.695312 L 1712.265625 1287.695312 L 1712.265625 1500 L 1500 1500 Z M 1500 1287.695312 " transform="matrix(0.1,0,0,-0.1,0,300)"/>
<path style="fill-rule:nonzero;fill:rgb(100%,100%,100%);fill-opacity:1;stroke-width:10;stroke-linecap:butt;stroke-linejoin:miter;stroke:rgb(0%,0%,0%);stroke-opacity:1;stroke-miterlimit:10;" d="M 1712.304688 1287.695312 L 1924.570312 1287.695312 L 1924.570312 1500 L 1712.304688 1500 Z M 1712.304688 1287.695312 " transform="matrix(0.1,0,0,-0.1,0,300)"/>
<path style="fill-rule:nonzero;fill:rgb(59.959412%,59.959412%,59.959412%);fill-opacity:1;stroke-width:10;stroke-linecap:butt;stroke-linejoin:miter;stroke:rgb(0%,0%,0%);stroke-opacity:1;stroke-miterlimit:10;" d="M 1924.570312 1287.695312 L 2136.835938 1287.695312 L 2136.835938 1500 L 1924.570312 1500 Z M 1924.570312 1287.695312 " transform="matrix(0.1,0,0,-0.1,0,300)"/>
<path style="fill-rule:nonzero;fill:rgb(100%,100%,100%);fill-opacity:1;stroke-width:10;stroke-linecap:butt;stroke-linejoin:miter;stroke:rgb(0%,0%,0%);stroke-opacity:1;stroke-miterlimit:10;" d="M 2136.875 1287.695312 L 2349.140625 1287.695312 L 2349.140625 1500 L 2136.875 1500 Z M 2136.875 1287.695312 " transform="matrix(0.1,0,0,-0.1,0,300)"/>
<path style="fill-rule:nonzero;fill:rgb(59.959412%,59.959412%,59.959412%);fill-opacity:1;stroke-width:10;stroke-linecap:butt;stroke-linejoin:miter;stroke:rgb(0%,0%,0%);stroke-opacity:1;stroke-miterlimit:10;" d="M 2349.140625 1287.695312 L 2561.40625 1287.695312 L 2561.40625 1500 L 2349.140625 1500 Z M 2349.140625 1287.695312 " transform="matrix(0.1,0,0,-0.1,0,300)"/>
<path style="fill-rule:nonzero;fill:rgb(100%,100%,100%);fill-opacity:1;stroke-width:10;stroke-linecap:butt;stroke-linejoin:miter;stroke:rgb(0%,0%,0%);stroke-opacity:1;stroke-miterlimit:10;" d="M 2561.445312 1287.695312 L 2773.710938 1287.695312 L 2773.710938 1500 L 2561.445312 1500 Z M 2561.445312 1287.695312 " transform="matrix(0.1,0,0,-0.1,0,300)"/>
<path style="fill-rule:nonzero;fill:rgb(59.959412%,59.959412%,59.959412%);fill-opacity:1;stroke-width:10;stroke-linecap:butt;stroke-linejoin:miter;stroke:rgb(0%,0%,0%);stroke-opacity:1;stroke-miterlimit:10;" d="M 2773.710938 1287.695312 L 2985.976562 1287.695312 L 2985.976562 1500 L 2773.710938 1500 Z M 2773.710938 1287.695312 " transform="matrix(0.1,0,0,-0.1,0,300)"/>
<path style="fill-rule:nonzero;fill:rgb(59.959412%,59.959412%,59.959412%);fill-opacity:1;stroke-width:10;stroke-linecap:butt;stroke-linejoin:miter;stroke:rgb(0%,0%,0%);stroke-opacity:1;stroke-miterlimit:10;" d="M 13.984375 1500 L 226.289062 1500 L 226.289062 1712.265625 L 13.984375 1712.265625 Z M 13.984375 1500 " transform="matrix(0.1,0,0,-0.1,0,300)"/>
<path style="fill-rule:nonzero;fill:rgb(100%,100%,100%);fill-opacity:1;stroke-width:10;stroke-linecap:butt;stroke-linejoin:miter;stroke:rgb(0%,0%,0%);stroke-opacity:1;stroke-miterlimit:10;" d="M 226.289062 1500 L 438.554688 1500 L 438.554688 1712.265625 L 226.289062 1712.265625 Z M 226.289062 1500 " transform="matrix(0.1,0,0,-0.1,0,300)"/>
<path style="fill-rule:nonzero;fill:rgb(59.959412%,59.959412%,59.959412%);fill-opacity:1;stroke-width:10;stroke-linecap:butt;stroke-linejoin:miter;stroke:rgb(0%,0%,0%);stroke-opacity:1;stroke-miterlimit:10;" d="M 438.554688 1500 L 650.859375 1500 L 650.859375 1712.265625 L 438.554688 1712.265625 Z M 438.554688 1500 " transform="matrix(0.1,0,0,-0.1,0,300)"/>
<path style="fill-rule:nonzero;fill:rgb(100%,100%,100%);fill-opacity:1;stroke-width:10;stroke-linecap:butt;stroke-linejoin:miter;stroke:rgb(0%,0%,0%);stroke-opacity:1;stroke-miterlimit:10;" d="M 650.859375 1500 L 863.125 1500 L 863.125 1712.265625 L 650.859375 1712.265625 Z M 650.859375 1500 " transform="matrix(0.1,0,0,-0.1,0,300)"/>
<path style="fill-rule:nonzero;fill:rgb(59.959412%,59.959412%,59.959412%);fill-opacity:1;stroke-width:10;stroke-linecap:butt;stroke-linejoin:miter;stroke:rgb(0%,0%,0%);stroke-opacity:1;stroke-miterlimit:10;" d="M 863.164062 1500 L 1075.429688 1500 L 1075.429688 1712.265625 L 863.164062 1712.265625 Z M 863.164062 1500 " transform="matrix(0.1,0,0,-0.1,0,300)"/>
<path style="fill-rule:nonzero;fill:rgb(100%,100%,100%);fill-opacity:1;stroke-width:10;stroke-linecap:butt;stroke-linejoin:miter;stroke:rgb(0%,0%,0%);stroke-opacity:1;stroke-miterlimit:10;" d="M 1075.429688 1500 L 1287.734375 1500 L 1287.734375 1712.265625 L 1075.429688 1712.265625 Z M 1075.429688 1500 " transform="matrix(0.1,0,0,-0.1,0,300)"/>
<path style="fill-rule:nonzero;fill:rgb(59.959412%,59.959412%,59.959412%);fill-opacity:1;stroke-width:10;stroke-linecap:butt;stroke-linejoin:miter;stroke:rgb(0%,0%,0%);stroke-opacity:1;stroke-miterlimit:10;" d="M 1287.695312 1500 L 1500 1500 L 1500 1712.265625 L 1287.695312 1712.265625 Z M 1287.695312 1500 " transform="matrix(0.1,0,0,-0.1,0,300)"/>
<path style="fill-rule:nonzero;fill:rgb(100%,100%,100%);fill-opacity:1;stroke-width:10;stroke-linecap:butt;stroke-linejoin:miter;stroke:rgb(0%,0%,0%);stroke-opacity:1;stroke-miterlimit:10;" d="M 1500 1500 L 1712.265625 1500 L 1712.265625 1712.265625 L 1500 1712.265625 Z M 1500 1500 " transform="matrix(0.1,0,0,-0.1,0,300)"/>
<path style="fill-rule:nonzero;fill:rgb(59.959412%,59.959412%,59.959412%);fill-opacity:1;stroke-width:10;stroke-linecap:butt;stroke-linejoin:miter;stroke:rgb(0%,0%,0%);stroke-opacity:1;stroke-miterlimit:10;" d="M 1712.304688 1500 L 1924.570312 1500 L 1924.570312 1712.265625 L 1712.304688 1712.265625 Z M 1712.304688 1500 " transform="matrix(0.1,0,0,-0.1,0,300)"/>
<path style="fill-rule:nonzero;fill:rgb(100%,100%,100%);fill-opacity:1;stroke-width:10;stroke-linecap:butt;stroke-linejoin:miter;stroke:rgb(0%,0%,0%);stroke-opacity:1;stroke-miterlimit:10;" d="M 1924.570312 1500 L 2136.835938 1500 L 2136.835938 1712.265625 L 1924.570312 1712.265625 Z M 1924.570312 1500 " transform="matrix(0.1,0,0,-0.1,0,300)"/>
<path style="fill-rule:nonzero;fill:rgb(59.959412%,59.959412%,59.959412%);fill-opacity:1;stroke-width:10;stroke-linecap:butt;stroke-linejoin:miter;stroke:rgb(0%,0%,0%);stroke-opacity:1;stroke-miterlimit:10;" d="M 2136.875 1500 L 2349.140625 1500 L 2349.140625 1712.265625 L 2136.875 1712.265625 Z M 2136.875 1500 " transform="matrix(0.1,0,0,-0.1,0,300)"/>
<path style="fill-rule:nonzero;fill:rgb(100%,100%,100%);fill-opacity:1;stroke-width:10;stroke-linecap:butt;stroke-linejoin:miter;stroke:rgb(0%,0%,0%);stroke-opacity:1;stroke-miterlimit:10;" d="M 2349.140625 1500 L 2561.40625 1500 L 2561.40625 1712.265625 L 2349.140625 1712.265625 Z M 2349.140625 1500 " transform="matrix(0.1,0,0,-0.1,0,300)"/>
<path style="fill-rule:nonzero;fill:rgb(59.959412%,59.959412%,59.959412%);fill-opacity:1;stroke-width:10;stroke-linecap:butt;stroke-linejoin:miter;stroke:rgb(0%,0%,0%);stroke-opacity:1;stroke-miterlimit:10;" d="M 2561.445312 1500 L 2773.710938 1500 L 2773.710938 1712.265625 L 2561.445312 1712.265625 Z M 2561.445312 1500 " transform="matrix(0.1,0,0,-0.1,0,300)"/>
<path style="fill-rule:nonzero;fill:rgb(100%,100%,100%);fill-opacity:1;stroke-width:10;stroke-linecap:butt;stroke-linejoin:miter;stroke:rgb(0%,0%,0%);stroke-opacity:1;stroke-miterlimit:10;" d="M 2773.710938 1500 L 2985.976562 1500 L 2985.976562 1712.265625 L 2773.710938 1712.265625 Z M 2773.710938 1500 " transform="matrix(0.1,0,0,-0.1,0,300)"/>
<path style="fill-rule:nonzero;fill:rgb(59.959412%,59.959412%,59.959412%);fill-opacity:1;stroke-width:10;stroke-linecap:butt;stroke-linejoin:miter;stroke:rgb(0%,0%,0%);stroke-opacity:1;stroke-miterlimit:10;" d="M 226.289062 1712.304688 L 438.554688 1712.304688 L 438.554688 1924.570312 L 226.289062 1924.570312 Z M 226.289062 1712.304688 " transform="matrix(0.1,0,0,-0.1,0,300)"/>
<path style="fill-rule:nonzero;fill:rgb(100%,100%,100%);fill-opacity:1;stroke-width:10;stroke-linecap:butt;stroke-linejoin:miter;stroke:rgb(0%,0%,0%);stroke-opacity:1;stroke-miterlimit:10;" d="M 438.554688 1712.304688 L 650.859375 1712.304688 L 650.859375 1924.570312 L 438.554688 1924.570312 Z M 438.554688 1712.304688 " transform="matrix(0.1,0,0,-0.1,0,300)"/>
<path style="fill-rule:nonzero;fill:rgb(59.959412%,59.959412%,59.959412%);fill-opacity:1;stroke-width:10;stroke-linecap:butt;stroke-linejoin:miter;stroke:rgb(0%,0%,0%);stroke-opacity:1;stroke-miterlimit:10;" d="M 650.859375 1712.304688 L 863.125 1712.304688 L 863.125 1924.570312 L 650.859375 1924.570312 Z M 650.859375 1712.304688 " transform="matrix(0.1,0,0,-0.1,0,300)"/>
<path style="fill-rule:nonzero;fill:rgb(100%,100%,100%);fill-opacity:1;stroke-width:10;stroke-linecap:butt;stroke-linejoin:miter;stroke:rgb(0%,0%,0%);stroke-opacity:1;stroke-miterlimit:10;" d="M 863.164062 1712.304688 L 1075.429688 1712.304688 L 1075.429688 1924.570312 L 863.164062 1924.570312 Z M 863.164062 1712.304688 " transform="matrix(0.1,0,0,-0.1,0,300)"/>
<path style="fill-rule:nonzero;fill:rgb(59.959412%,59.959412%,59.959412%);fill-opacity:1;stroke-width:10;stroke-linecap:butt;stroke-linejoin:miter;stroke:rgb(0%,0%,0%);stroke-opacity:1;stroke-miterlimit:10;" d="M 1075.429688 1712.304688 L 1287.734375 1712.304688 L 1287.734375 1924.570312 L 1075.429688 1924.570312 Z M 1075.429688 1712.304688 " transform="matrix(0.1,0,0,-0.1,0,300)"/>
<path style="fill-rule:nonzero;fill:rgb(100%,100%,100%);fill-opacity:1;stroke-width:10;stroke-linecap:butt;stroke-linejoin:miter;stroke:rgb(0%,0%,0%);stroke-opacity:1;stroke-miterlimit:10;" d="M 1287.695312 1712.304688 L 1500 1712.304688 L 1500 1924.570312 L 1287.695312 1924.570312 Z M 1287.695312 1712.304688 " transform="matrix(0.1,0,0,-0.1,0,300)"/>
<path style="fill-rule:nonzero;fill:rgb(59.959412%,59.959412%,59.959412%);fill-opacity:1;stroke-width:10;stroke-linecap:butt;stroke-linejoin:miter;stroke:rgb(0%,0%,0%);stroke-opacity:1;stroke-miterlimit:10;" d="M 1500 1712.304688 L 1712.265625 1712.304688 L 1712.265625 1924.570312 L 1500 1924.570312 Z M 1500 1712.304688 " transform="matrix(0.1,0,0,-0.1,0,300)"/>
<path style="fill-rule:nonzero;fill:rgb(100%,100%,100%);fill-opacity:1;stroke-width:10;stroke-linecap:butt;stroke-linejoin:miter;stroke:rgb(0%,0%,0%);stroke-opacity:1;stroke-miterlimit:10;" d="M 1712.304688 1712.304688 L 1924.570312 1712.304688 L 1924.570312 1924.570312 L 1712.304688 1924.570312 Z M 1712.304688 1712.304688 " transform="matrix(0.1,0,0,-0.1,0,300)"/>
<path style="fill-rule:nonzero;fill:rgb(59.959412%,59.959412%,59.959412%);fill-opacity:1;stroke-width:10;stroke-linecap:butt;stroke-linejoin:miter;stroke:rgb(0%,0%,0%);stroke-opacity:1;stroke-miterlimit:10;" d="M 1924.570312 1712.304688 L 2136.835938 1712.304688 L 2136.835938 1924.570312 L 1924.570312 1924.570312 Z M 1924.570312 1712.304688 " transform="matrix(0.1,0,0,-0.1,0,300)"/>
<path style="fill-rule:nonzero;fill:rgb(100%,100%,100%);fill-opacity:1;stroke-width:10;stroke-linecap:butt;stroke-linejoin:miter;stroke:rgb(0%,0%,0%);stroke-opacity:1;stroke-miterlimit:10;" d="M 2136.875 1712.304688 L 2349.140625 1712.304688 L 2349.140625 1924.570312 L 2136.875 1924.570312 Z M 2136.875 1712.304688 " transform="matrix(0.1,0,0,-0.1,0,300)"/>
<path style="fill-rule:nonzero;fill:rgb(59.959412%,59.959412%,59.959412%);fill-opacity:1;stroke-width:10;stroke-linecap:butt;stroke-linejoin:miter;stroke:rgb(0%,0%,0%);stroke-opacity:1;stroke-miterlimit:10;" d="M 2349.140625 1712.304688 L 2561.40625 1712.304688 L 2561.40625 1924.570312 L 2349.140625 1924.570312 Z M 2349.140625 1712.304688 " transform="matrix(0.1,0,0,-0.1,0,300)"/>
<path style="fill-rule:nonzero;fill:rgb(100%,100%,100%);fill-opacity:1;stroke-width:10;stroke-linecap:butt;stroke-linejoin:miter;stroke:rgb(0%,0%,0%);stroke-opacity:1;stroke-miterlimit:10;" d="M 2561.445312 1712.304688 L 2773.710938 1712.304688 L 2773.710938 1924.570312 L 2561.445312 1924.570312 Z M 2561.445312 1712.304688 " transform="matrix(0.1,0,0,-0.1,0,300)"/>
<path style="fill-rule:nonzero;fill:rgb(59.959412%,59.959412%,59.959412%);fill-opacity:1;stroke-width:10;stroke-linecap:butt;stroke-linejoin:miter;stroke:rgb(0%,0%,0%);stroke-opacity:1;stroke-miterlimit:10;" d="M 438.554688 1924.570312 L 650.859375 1924.570312 L 650.859375 2136.835938 L 438.554688 2136.835938 Z M 438.554688 1924.570312 " transform="matrix(0.1,0,0,-0.1,0,300)"/>
<path style="fill-rule:nonzero;fill:rgb(100%,100%,100%);fill-opacity:1;stroke-width:10;stroke-linecap:butt;stroke-linejoin:miter;stroke:rgb(0%,0%,0%);stroke-opacity:1;stroke-miterlimit:10;" d="M 650.859375 1924.570312 L 863.125 1924.570312 L 863.125 2136.835938 L 650.859375 2136.835938 Z M 650.859375 1924.570312 " transform="matrix(0.1,0,0,-0.1,0,300)"/>
<path style="fill-rule:nonzero;fill:rgb(59.959412%,59.959412%,59.959412%);fill-opacity:1;stroke-width:10;stroke-linecap:butt;stroke-linejoin:miter;stroke:rgb(0%,0%,0%);stroke-opacity:1;stroke-miterlimit:10;" d="M 863.164062 1924.570312 L 1075.429688 1924.570312 L 1075.429688 2136.835938 L 863.164062 2136.835938 Z M 863.164062 1924.570312 " transform="matrix(0.1,0,0,-0.1,0,300)"/>
<path style="fill-rule:nonzero;fill:rgb(100%,100%,100%);fill-opacity:1;stroke-width:10;stroke-linecap:butt;stroke-linejoin:miter;stroke:rgb(0%,0%,0%);stroke-opacity:1;stroke-miterlimit:10;" d="M 1075.429688 1924.570312 L 1287.734375 1924.570312 L 1287.734375 2136.835938 L 1075.429688 2136.835938 Z M 1075.429688 1924.570312 " transform="matrix(0.1,0,0,-0.1,0,300)"/>
<path style="fill-rule:nonzero;fill:rgb(59.959412%,59.959412%,59.959412%);fill-opacity:1;stroke-width:10;stroke-linecap:butt;stroke-linejoin:miter;stroke:rgb(0%,0%,0%);stroke-opacity:1;stroke-miterlimit:10;" d="M 1287.695312 1924.570312 L 1500 1924.570312 L 1500 2136.835938 L 1287.695312 2136.835938 Z M 1287.695312 1924.570312 " transform="matrix(0.1,0,0,-0.1,0,300)"/>
<path style="fill-rule:nonzero;fill:rgb(100%,100%,100%);fill-opacity:1;stroke-width:10;stroke-linecap:butt;stroke-linejoin:miter;stroke:rgb(0%,0%,0%);stroke-opacity:1;stroke-miterlimit:10;" d="M 1500 1924.570312 L 1712.265625 1924.570312 L 1712.265625 2136.835938 L 1500 2136.835938 Z M 1500 1924.570312 " transform="matrix(0.1,0,0,-0.1,0,300)"/>
<path style="fill-rule:nonzero;fill:rgb(59.959412%,59.959412%,59.959412%);fill-opacity:1;stroke-width:10;stroke-linecap:butt;stroke-linejoin:miter;stroke:rgb(0%,0%,0%);stroke-opacity:1;stroke-miterlimit:10;" d="M 1712.304688 1924.570312 L 1924.570312 1924.570312 L 1924.570312 2136.835938 L 1712.304688 2136.835938 Z M 1712.304688 1924.570312 " transform="matrix(0.1,0,0,-0.1,0,300)"/>
<path style="fill-rule:nonzero;fill:rgb(100%,100%,100%);fill-opacity:1;stroke-width:10;stroke-linecap:butt;stroke-linejoin:miter;stroke:rgb(0%,0%,0%);stroke-opacity:1;stroke-miterlimit:10;" d="M 1924.570312 1924.570312 L 2136.835938 1924.570312 L 2136.835938 2136.835938 L 1924.570312 2136.835938 Z M 1924.570312 1924.570312 " transform="matrix(0.1,0,0,-0.1,0,300)"/>
<path style="fill-rule:nonzero;fill:rgb(59.959412%,59.959412%,59.959412%);fill-opacity:1;stroke-width:10;stroke-linecap:butt;stroke-linejoin:miter;stroke:rgb(0%,0%,0%);stroke-opacity:1;stroke-miterlimit:10;" d="M 2136.875 1924.570312 L 2349.140625 1924.570312 L 2349.140625 2136.835938 L 2136.875 2136.835938 Z M 2136.875 1924.570312 " transform="matrix(0.1,0,0,-0.1,0,300)"/>
<path style="fill-rule:nonzero;fill:rgb(100%,100%,100%);fill-opacity:1;stroke-width:10;stroke-linecap:butt;stroke-linejoin:miter;stroke:rgb(0%,0%,0%);stroke-opacity:1;stroke-miterlimit:10;" d="M 2349.140625 1924.570312 L 2561.40625 1924.570312 L 2561.40625 2136.835938 L 2349.140625 2136.835938 Z M 2349.140625 1924.570312 " transform="matrix(0.1,0,0,-0.1,0,300)"/>
<path style="fill-rule:nonzero;fill:rgb(59.959412%,59.959412%,59.959412%);fill-opacity:1;stroke-width:10;stroke-linecap:butt;stroke-linejoin:miter;stroke:rgb(0%,0%,0%);stroke-opacity:1;stroke-miterlimit:10;" d="M 650.859375 2136.875 L 863.125 2136.875 L 863.125 2349.140625 L 650.859375 2349.140625 Z M 650.859375 2136.875 " transform="matrix(0.1,0,0,-0.1,0,300)"/>
<path style="fill-rule:nonzero;fill:rgb(100%,100%,100%);fill-opacity:1;stroke-width:10;stroke-linecap:butt;stroke-linejoin:miter;stroke:rgb(0%,0%,0%);stroke-opacity:1;stroke-miterlimit:10;" d="M 863.164062 2136.875 L 1075.429688 2136.875 L 1075.429688 2349.140625 L 863.164062 2349.140625 Z M 863.164062 2136.875 " transform="matrix(0.1,0,0,-0.1,0,300)"/>
<path style="fill-rule:nonzero;fill:rgb(59.959412%,59.959412%,59.959412%);fill-opacity:1;stroke-width:10;stroke-linecap:butt;stroke-linejoin:miter;stroke:rgb(0%,0%,0%);stroke-opacity:1;stroke-miterlimit:10;" d="M 1075.429688 2136.875 L 1287.734375 2136.875 L 1287.734375 2349.140625 L 1075.429688 2349.140625 Z M 1075.429688 2136.875 " transform="matrix(0.1,0,0,-0.1,0,300)"/>
<path style="fill-rule:nonzero;fill:rgb(100%,100%,100%);fill-opacity:1;stroke-width:10;stroke-linecap:butt;stroke-linejoin:miter;stroke:rgb(0%,0%,0%);stroke-opacity:1;stroke-miterlimit:10;" d="M 1287.695312 2136.875 L 1500 2136.875 L 1500 2349.140625 L 1287.695312 2349.140625 Z M 1287.695312 2136.875 " transform="matrix(0.1,0,0,-0.1,0,300)"/>
<path style="fill-rule:nonzero;fill:rgb(59.959412%,59.959412%,59.959412%);fill-opacity:1;stroke-width:10;stroke-linecap:butt;stroke-linejoin:miter;stroke:rgb(0%,0%,0%);stroke-opacity:1;stroke-miterlimit:10;" d="M 1500 2136.875 L 1712.265625 2136.875 L 1712.265625 2349.140625 L 1500 2349.140625 Z M 1500 2136.875 " transform="matrix(0.1,0,0,-0.1,0,300)"/>
<path style="fill-rule:nonzero;fill:rgb(100%,100%,100%);fill-opacity:1;stroke-width:10;stroke-linecap:butt;stroke-linejoin:miter;stroke:rgb(0%,0%,0%);stroke-opacity:1;stroke-miterlimit:10;" d="M 1712.304688 2136.875 L 1924.570312 2136.875 L 1924.570312 2349.140625 L 1712.304688 2349.140625 Z M 1712.304688 2136.875 " transform="matrix(0.1,0,0,-0.1,0,300)"/>
<path style="fill-rule:nonzero;fill:rgb(59.959412%,59.959412%,59.959412%);fill-opacity:1;stroke-width:10;stroke-linecap:butt;stroke-linejoin:miter;stroke:rgb(0%,0%,0%);stroke-opacity:1;stroke-miterlimit:10;" d="M 1924.570312 2136.875 L 2136.835938 2136.875 L 2136.835938 2349.140625 L 1924.570312 2349.140625 Z M 1924.570312 2136.875 " transform="matrix(0.1,0,0,-0.1,0,300)"/>
<path style="fill-rule:nonzero;fill:rgb(100%,100%,100%);fill-opacity:1;stroke-width:10;stroke-linecap:butt;stroke-linejoin:miter;stroke:rgb(0%,0%,0%);stroke-opacity:1;stroke-miterlimit:10;" d="M 2136.875 2136.875 L 2349.140625 2136.875 L 2349.140625 2349.140625 L 2136.875 2349.140625 Z M 2136.875 2136.875 " transform="matrix(0.1,0,0,-0.1,0,300)"/>
<path style="fill-rule:nonzero;fill:rgb(59.959412%,59.959412%,59.959412%);fill-opacity:1;stroke-width:10;stroke-linecap:butt;stroke-linejoin:miter;stroke:rgb(0%,0%,0%);stroke-opacity:1;stroke-miterlimit:10;" d="M 863.164062 2349.140625 L 1075.429688 2349.140625 L 1075.429688 2561.40625 L 863.164062 2561.40625 Z M 863.164062 2349.140625 " transform="matrix(0.1,0,0,-0.1,0,300)"/>
<path style="fill-rule:nonzero;fill:rgb(100%,100%,100%);fill-opacity:1;stroke-width:10;stroke-linecap:butt;stroke-linejoin:miter;stroke:rgb(0%,0%,0%);stroke-opacity:1;stroke-miterlimit:10;" d="M 1075.429688 2349.140625 L 1287.734375 2349.140625 L 1287.734375 2561.40625 L 1075.429688 2561.40625 Z M 1075.429688 2349.140625 " transform="matrix(0.1,0,0,-0.1,0,300)"/>
<path style="fill-rule:nonzero;fill:rgb(59.959412%,59.959412%,59.959412%);fill-opacity:1;stroke-width:10;stroke-linecap:butt;stroke-linejoin:miter;stroke:rgb(0%,0%,0%);stroke-opacity:1;stroke-miterlimit:10;" d="M 1287.695312 2349.140625 L 1500 2349.140625 L 1500 2561.40625 L 1287.695312 2561.40625 Z M 1287.695312 2349.140625 " transform="matrix(0.1,0,0,-0.1,0,300)"/>
<path style="fill-rule:nonzero;fill:rgb(100%,100%,100%);fill-opacity:1;stroke-width:10;stroke-linecap:butt;stroke-linejoin:miter;stroke:rgb(0%,0%,0%);stroke-opacity:1;stroke-miterlimit:10;" d="M 1500 2349.140625 L 1712.265625 2349.140625 L 1712.265625 2561.40625 L 1500 2561.40625 Z M 1500 2349.140625 " transform="matrix(0.1,0,0,-0.1,0,300)"/>
<path style="fill-rule:nonzero;fill:rgb(59.959412%,59.959412%,59.959412%);fill-opacity:1;stroke-width:10;stroke-linecap:butt;stroke-linejoin:miter;stroke:rgb(0%,0%,0%);stroke-opacity:1;stroke-miterlimit:10;" d="M 1712.304688 2349.140625 L 1924.570312 2349.140625 L 1924.570312 2561.40625 L 1712.304688 2561.40625 Z M 1712.304688 2349.140625 " transform="matrix(0.1,0,0,-0.1,0,300)"/>
<path style="fill-rule:nonzero;fill:rgb(100%,100%,100%);fill-opacity:1;stroke-width:10;stroke-linecap:butt;stroke-linejoin:miter;stroke:rgb(0%,0%,0%);stroke-opacity:1;stroke-miterlimit:10;" d="M 1924.570312 2349.140625 L 2136.835938 2349.140625 L 2136.835938 2561.40625 L 1924.570312 2561.40625 Z M 1924.570312 2349.140625 " transform="matrix(0.1,0,0,-0.1,0,300)"/>
<path style="fill-rule:nonzero;fill:rgb(59.959412%,59.959412%,59.959412%);fill-opacity:1;stroke-width:10;stroke-linecap:butt;stroke-linejoin:miter;stroke:rgb(0%,0%,0%);stroke-opacity:1;stroke-miterlimit:10;" d="M 1075.429688 2561.445312 L 1287.734375 2561.445312 L 1287.734375 2773.710938 L 1075.429688 2773.710938 Z M 1075.429688 2561.445312 " transform="matrix(0.1,0,0,-0.1,0,300)"/>
<path style="fill-rule:nonzero;fill:rgb(100%,100%,100%);fill-opacity:1;stroke-width:10;stroke-linecap:butt;stroke-linejoin:miter;stroke:rgb(0%,0%,0%);stroke-opacity:1;stroke-miterlimit:10;" d="M 1287.695312 2561.445312 L 1500 2561.445312 L 1500 2773.710938 L 1287.695312 2773.710938 Z M 1287.695312 2561.445312 " transform="matrix(0.1,0,0,-0.1,0,300)"/>
<path style="fill-rule:nonzero;fill:rgb(59.959412%,59.959412%,59.959412%);fill-opacity:1;stroke-width:10;stroke-linecap:butt;stroke-linejoin:miter;stroke:rgb(0%,0%,0%);stroke-opacity:1;stroke-miterlimit:10;" d="M 1500 2561.445312 L 1712.265625 2561.445312 L 1712.265625 2773.710938 L 1500 2773.710938 Z M 1500 2561.445312 " transform="matrix(0.1,0,0,-0.1,0,300)"/>
<path style="fill-rule:nonzero;fill:rgb(100%,100%,100%);fill-opacity:1;stroke-width:10;stroke-linecap:butt;stroke-linejoin:miter;stroke:rgb(0%,0%,0%);stroke-opacity:1;stroke-miterlimit:10;" d="M 1712.304688 2561.445312 L 1924.570312 2561.445312 L 1924.570312 2773.710938 L 1712.304688 2773.710938 Z M 1712.304688 2561.445312 " transform="matrix(0.1,0,0,-0.1,0,300)"/>
<path style="fill-rule:nonzero;fill:rgb(59.959412%,59.959412%,59.959412%);fill-opacity:1;stroke-width:10;stroke-linecap:butt;stroke-linejoin:miter;stroke:rgb(0%,0%,0%);stroke-opacity:1;stroke-miterlimit:10;" d="M 1287.695312 2773.710938 L 1500 2773.710938 L 1500 2985.976562 L 1287.695312 2985.976562 Z M 1287.695312 2773.710938 " transform="matrix(0.1,0,0,-0.1,0,300)"/>
<path style="fill-rule:nonzero;fill:rgb(100%,100%,100%);fill-opacity:1;stroke-width:10;stroke-linecap:butt;stroke-linejoin:miter;stroke:rgb(0%,0%,0%);stroke-opacity:1;stroke-miterlimit:10;" d="M 1500 2773.710938 L 1712.265625 2773.710938 L 1712.265625 2985.976562 L 1500 2985.976562 Z M 1500 2773.710938 " transform="matrix(0.1,0,0,-0.1,0,300)"/>
<path style=" stroke:none;fill-rule:nonzero;fill:rgb(75%,75%,0%);fill-opacity:1;" d="M 133.015625 294.355469 L 166.984375 294.355469 L 166.984375 281.617188 L 133.015625 281.617188 Z M 133.015625 294.355469 "/>
<path style=" stroke:none;fill-rule:nonzero;fill:rgb(75%,75%,0%);fill-opacity:1;" d="M 111.789062 273.125 L 145.753906 273.125 L 145.753906 260.390625 L 111.789062 260.390625 Z M 111.789062 273.125 "/>
<path style=" stroke:none;fill-rule:nonzero;fill:rgb(75%,75%,0%);fill-opacity:1;" d="M 154.246094 273.125 L 188.210938 273.125 L 188.210938 260.390625 L 154.246094 260.390625 Z M 154.246094 273.125 "/>
<path style=" stroke:none;fill-rule:nonzero;fill:rgb(75%,75%,0%);fill-opacity:1;" d="M 90.558594 251.898438 L 124.527344 251.898438 L 124.527344 239.160156 L 90.558594 239.160156 Z M 90.558594 251.898438 "/>
<path style=" stroke:none;fill-rule:nonzero;fill:rgb(75%,75%,0%);fill-opacity:1;" d="M 133.015625 251.898438 L 166.984375 251.898438 L 166.984375 239.160156 L 133.015625 239.160156 Z M 133.015625 251.898438 "/>
<path style=" stroke:none;fill-rule:nonzero;fill:rgb(0%,50%,0%);fill-opacity:1;" d="M 154.246094 230.667969 L 166.984375 230.667969 L 166.984375 196.703125 L 154.246094 196.703125 Z M 154.246094 230.667969 "/>
<path style=" stroke:none;fill-rule:nonzero;fill:rgb(0%,50%,0%);fill-opacity:1;" d="M 48.101562 209.441406 L 60.839844 209.441406 L 60.839844 175.472656 L 48.101562 175.472656 Z M 48.101562 209.441406 "/>
<path style=" stroke:none;fill-rule:nonzero;fill:rgb(75%,75%,0%);fill-opacity:1;" d="M 175.472656 209.441406 L 209.441406 209.441406 L 209.441406 196.703125 L 175.472656 196.703125 Z M 175.472656 209.441406 "/>
<path style=" stroke:none;fill-rule:nonzero;fill:rgb(0%,0%,100%);fill-opacity:1;" d="M 217.929688 230.667969 L 230.667969 230.667969 L 230.667969 196.703125 L 217.929688 196.703125 Z M 217.929688 230.667969 "/>
<path style=" stroke:none;fill-rule:nonzero;fill:rgb(0%,50%,0%);fill-opacity:1;" d="M 26.875 188.210938 L 39.609375 188.210938 L 39.609375 154.246094 L 26.875 154.246094 Z M 26.875 188.210938 "/>
<path style=" stroke:none;fill-rule:nonzero;fill:rgb(0%,0%,100%);fill-opacity:1;" d="M 239.160156 209.441406 L 251.898438 209.441406 L 251.898438 175.472656 L 239.160156 175.472656 Z M 239.160156 209.441406 "/>
<path style=" stroke:none;fill-rule:nonzero;fill:rgb(0%,50%,0%);fill-opacity:1;" d="M 5.644531 166.984375 L 18.382812 166.984375 L 18.382812 133.015625 L 5.644531 133.015625 Z M 5.644531 166.984375 "/>
<path style=" stroke:none;fill-rule:nonzero;fill:rgb(0%,50%,0%);fill-opacity:1;" d="M 48.101562 166.984375 L 60.839844 166.984375 L 60.839844 133.015625 L 48.101562 133.015625 Z M 48.101562 166.984375 "/>
<path style=" stroke:none;fill-rule:nonzero;fill:rgb(0%,0%,100%);fill-opacity:1;" d="M 260.390625 188.210938 L 273.125 188.210938 L 273.125 154.246094 L 260.390625 154.246094 Z M 260.390625 188.210938 "/>
<path style=" stroke:none;fill-rule:nonzero;fill:rgb(0%,50%,0%);fill-opacity:1;" d="M 26.875 145.753906 L 39.609375 145.753906 L 39.609375 111.789062 L 26.875 111.789062 Z M 26.875 145.753906 "/>
<path style=" stroke:none;fill-rule:nonzero;fill:rgb(75%,75%,0%);fill-opacity:1;" d="M 69.332031 145.753906 L 103.296875 145.753906 L 103.296875 133.015625 L 69.332031 133.015625 Z M 69.332031 145.753906 "/>
<path style=" stroke:none;fill-rule:nonzero;fill:rgb(75%,75%,0%);fill-opacity:1;" d="M 111.789062 145.753906 L 145.753906 145.753906 L 145.753906 133.015625 L 111.789062 133.015625 Z M 111.789062 145.753906 "/>
<path style=" stroke:none;fill-rule:nonzero;fill:rgb(0%,0%,100%);fill-opacity:1;" d="M 239.160156 166.984375 L 251.898438 166.984375 L 251.898438 133.015625 L 239.160156 133.015625 Z M 239.160156 166.984375 "/>
<path style=" stroke:none;fill-rule:nonzero;fill:rgb(0%,0%,100%);fill-opacity:1;" d="M 281.617188 166.984375 L 294.355469 166.984375 L 294.355469 133.015625 L 281.617188 133.015625 Z M 281.617188 166.984375 "/>
<path style=" stroke:none;fill-rule:nonzero;fill:rgb(0%,50%,0%);fill-opacity:1;" d="M 133.015625 124.527344 L 145.753906 124.527344 L 145.753906 90.558594 L 133.015625 90.558594 Z M 133.015625 124.527344 "/>
<path style=" stroke:none;fill-rule:nonzero;fill:rgb(0%,0%,100%);fill-opacity:1;" d="M 260.390625 145.753906 L 273.125 145.753906 L 273.125 111.789062 L 260.390625 111.789062 Z M 260.390625 145.753906 "/>
<path style=" stroke:none;fill-rule:nonzero;fill:rgb(0%,0%,100%);fill-opacity:1;" d="M 239.160156 124.527344 L 251.898438 124.527344 L 251.898438 90.558594 L 239.160156 90.558594 Z M 239.160156 124.527344 "/>
<path style=" stroke:none;fill-rule:nonzero;fill:rgb(100%,0%,0%);fill-opacity:1;" d="M 69.332031 82.070312 L 103.296875 82.070312 L 103.296875 69.332031 L 69.332031 69.332031 Z M 69.332031 82.070312 "/>
<path style=" stroke:none;fill-rule:nonzero;fill:rgb(100%,0%,0%);fill-opacity:1;" d="M 111.789062 82.070312 L 145.753906 82.070312 L 145.753906 69.332031 L 111.789062 69.332031 Z M 111.789062 82.070312 "/>
<path style=" stroke:none;fill-rule:nonzero;fill:rgb(100%,0%,0%);fill-opacity:1;" d="M 90.558594 60.839844 L 124.527344 60.839844 L 124.527344 48.101562 L 90.558594 48.101562 Z M 90.558594 60.839844 "/>
<path style=" stroke:none;fill-rule:nonzero;fill:rgb(100%,0%,0%);fill-opacity:1;" d="M 133.015625 60.839844 L 166.984375 60.839844 L 166.984375 48.101562 L 133.015625 48.101562 Z M 133.015625 60.839844 "/>
<path style=" stroke:none;fill-rule:nonzero;fill:rgb(100%,0%,0%);fill-opacity:1;" d="M 175.472656 60.839844 L 209.441406 60.839844 L 209.441406 48.101562 L 175.472656 48.101562 Z M 175.472656 60.839844 "/>
<path style=" stroke:none;fill-rule:nonzero;fill:rgb(100%,0%,0%);fill-opacity:1;" d="M 111.789062 39.609375 L 145.753906 39.609375 L 145.753906 26.875 L 111.789062 26.875 Z M 111.789062 39.609375 "/>
<path style=" stroke:none;fill-rule:nonzero;fill:rgb(100%,0%,0%);fill-opacity:1;" d="M 154.246094 39.609375 L 188.210938 39.609375 L 188.210938 26.875 L 154.246094 26.875 Z M 154.246094 39.609375 "/>
<path style=" stroke:none;fill-rule:nonzero;fill:rgb(100%,0%,0%);fill-opacity:1;" d="M 133.015625 18.382812 L 166.984375 18.382812 L 166.984375 5.644531 L 133.015625 5.644531 Z M 133.015625 18.382812 "/>
</g>
</svg>
