<?xml version="1.0" encoding="UTF-8"?>
<svg xmlns="http://www.w3.org/2000/svg" xmlns:xlink="http://www.w3.org/1999/xlink" width="300pt" height="300pt" viewBox="0 0 300 300" version="1.1">
<g id="surface1">
<path style="fill:none;stroke-width:10;stroke-linecap:butt;stroke-linejoin:miter;stroke:rgb(0%,0%,0%);stroke-opacity:1;stroke-miterlimit:10;" d="M 300 -1300 L 300 3500 " transform="matrix(0.1,0,0,-0.1,0,300)"/>
<path style="fill:none;stroke-width:10;stroke-linecap:butt;stroke-linejoin:miter;stroke:rgb(0%,0%,0%);stroke-opacity:1;stroke-miterlimit:10;" d="M 1100 -1300 L 1100 3500 " transform="matrix(0.1,0,0,-0.1,0,300)"/>
<path style="fill:none;stroke-width:10;stroke-linecap:butt;stroke-linejoin:miter;stroke:rgb(0%,0%,0%);stroke-opacity:1;stroke-miterlimit:10;" d="M -500 300 L 4300 300 " transform="matrix(0.1,0,0,-0.1,0,300)"/>
<path style="fill:none;stroke-width:10;stroke-linecap:butt;stroke-linejoin:miter;stroke:rgb(0%,0%,0%);stroke-opacity:1;stroke-miterlimit:10;" d="M 1900 -1300 L 1900 3500 " transform="matrix(0.1,0,0,-0.1,0,300)"/>
<path style="fill:none;stroke-width:10;stroke-linecap:butt;stroke-linejoin:miter;stroke:rgb(0%,0%,0%);stroke-opacity:1;stroke-miterlimit:10;" d="M -500 1100 L 4300 1100 " transform="matrix(0.1,0,0,-0.1,0,300)"/>
<path style="fill:none;stroke-width:10;stroke-linecap:butt;stroke-linejoin:miter;stroke:rgb(0%,0%,0%);stroke-opacity:1;stroke-miterlimit:10;" d="M 2700 -1300 L 2700 3500 " transform="matrix(0.1,0,0,-0.1,0,300)"/>
<path style="fill:none;stroke-width:10;stroke-linecap:butt;stroke-linejoin:miter;stroke:rgb(0%,0%,0%);stroke-opacity:1;stroke-miterlimit:10;" d="M -500 1900 L 4300 1900 " transform="matrix(0.1,0,0,-0.1,0,300)"/>
<path style="fill:none;stroke-width:10;stroke-linecap:butt;stroke-linejoin:miter;stroke:rgb(0%,0%,0%);stroke-opacity:1;stroke-miterlimit:10;" d="M -500 2700 L 4300 2700 " transform="matrix(0.1,0,0,-0.1,0,300)"/>
<path style=" stroke:none;fill-rule:nonzero;fill:rgb(90.039062%,90.039062%,90.039062%);fill-opacity:1;" d="M -50 350 L 30 350 L 30 270 L -50 270 L -50 350 "/>
<path style=" stroke:none;fill-rule:nonzero;fill:rgb(90.039062%,90.039062%,90.039062%);fill-opacity:1;" d="M -50 190 L 30 190 L 30 110 L -50 110 L -50 190 "/>
<path style=" stroke:none;fill-rule:nonzero;fill:rgb(90.039062%,90.039062%,90.039062%);fill-opacity:1;" d="M -50 30 L 30 30 L 30 -50 L -50 -50 L -50 30 "/>
<path style=" stroke:none;fill-rule:nonzero;fill:rgb(90.039062%,90.039062%,90.039062%);fill-opacity:1;" d="M 30 270 L 110 270 L 110 190 L 30 190 L 30 270 "/>
<path style=" stroke:none;fill-rule:nonzero;fill:rgb(90.039062%,90.039062%,90.039062%);fill-opacity:1;" d="M 30 110 L 110 110 L 110 30 L 30 30 L 30 110 "/>
<path style=" stroke:none;fill-rule:nonzero;fill:rgb(90.039062%,90.039062%,90.039062%);fill-opacity:1;" d="M 110 350 L 190 350 L 190 270 L 110 270 L 110 350 "/>
<path style=" stroke:none;fill-rule:nonzero;fill:rgb(90.039062%,90.039062%,90.039062%);fill-opacity:1;" d="M 110 190 L 190 190 L 190 110 L 110 110 L 110 190 "/>
<path style=" stroke:none;fill-rule:nonzero;fill:rgb(90.039062%,90.039062%,90.039062%);fill-opacity:1;" d="M 110 30 L 190 30 L 190 -50 L 110 -50 L 110 30 "/>
<path style=" stroke:none;fill-rule:nonzero;fill:rgb(90.039062%,90.039062%,90.039062%);fill-opacity:1;" d="M 190 270 L 270 270 L 270 190 L 190 190 L 190 270 "/>
<path style=" stroke:none;fill-rule:nonzero;fill:rgb(90.039062%,90.039062%,90.039062%);fill-opacity:1;" d="M 190 110 L 270 110 L 270 30 L 190 30 L 190 110 "/>
<path style=" stroke:none;fill-rule:nonzero;fill:rgb(90.039062%,90.039062%,90.039062%);fill-opacity:1;" d="M 270 350 L 350 350 L 350 270 L 270 270 L 270 350 "/>
<path style=" stroke:none;fill-rule:nonzero;fill:rgb(90.039062%,90.039062%,90.039062%);fill-opacity:1;" d="M 270 190 L 350 190 L 350 110 L 270 110 L 270 190 "/>
<path style=" stroke:none;fill-rule:nonzero;fill:rgb(90.039062%,90.039062%,90.039062%);fill-opacity:1;" d="M 270 30 L 350 30 L 350 -50 L 270 -50 L 270 30 "/>
<path style="fill:none;stroke-width:10;stroke-linecap:butt;stroke-linejoin:miter;stroke:rgb(0%,0%,0%);stroke-opacity:1;stroke-dasharray:40,40;stroke-miterlimit:10;" d="M -300 -300 L 100 -300 L 100 100 L -300 100 Z M -300 -300 " transform="matrix(0.1,0,0,-0.1,0,300)"/>
<path style="fill:none;stroke-width:10;stroke-linecap:butt;stroke-linejoin:miter;stroke:rgb(0%,0%,0%);stroke-opacity:1;stroke-dasharray:40,40;stroke-miterlimit:10;" d="M 100 100 L 300 300 " transform="matrix(0.1,0,0,-0.1,0,300)"/>
<path style=" stroke:none;fill-rule:nonzero;fill:rgb(0%,0%,0%);fill-opacity:1;" d="M 13.199219 290 C 13.199219 288.234375 11.765625 286.800781 10 286.800781 C 8.234375 286.800781 6.800781 288.234375 6.800781 290 C 6.800781 291.765625 8.234375 293.199219 10 293.199219 C 11.765625 293.199219 13.199219 291.765625 13.199219 290 "/>
<path style="fill:none;stroke-width:10;stroke-linecap:butt;stroke-linejoin:miter;stroke:rgb(0%,0%,0%);stroke-opacity:1;stroke-miterlimit:10;" d="M 131.992188 100 C 131.992188 117.65625 117.65625 131.992188 100 131.992188 C 82.34375 131.992188 68.007812 117.65625 68.007812 100 C 68.007812 82.34375 82.34375 68.007812 100 68.007812 C 117.65625 68.007812 131.992188 82.34375 131.992188 100 Z M 131.992188 100 " transform="matrix(0.1,0,0,-0.1,0,300)"/>
<path style="fill:none;stroke-width:10;stroke-linecap:butt;stroke-linejoin:miter;stroke:rgb(0%,0%,0%);stroke-opacity:1;stroke-dasharray:40,40;stroke-miterlimit:10;" d="M -300 1300 L 100 1300 L 100 1700 L -300 1700 Z M -300 1300 " transform="matrix(0.1,0,0,-0.1,0,300)"/>
<path style="fill:none;stroke-width:10;stroke-linecap:butt;stroke-linejoin:miter;stroke:rgb(0%,0%,0%);stroke-opacity:1;stroke-dasharray:40,40;stroke-miterlimit:10;" d="M 100 1300 L 300 1100 " transform="matrix(0.1,0,0,-0.1,0,300)"/>
<path style="fill:none;stroke-width:10;stroke-linecap:butt;stroke-linejoin:miter;stroke:rgb(0%,0%,0%);stroke-opacity:1;stroke-dasharray:40,40;stroke-miterlimit:10;" d="M 100 1700 L 300 1900 " transform="matrix(0.1,0,0,-0.1,0,300)"/>
<path style=" stroke:none;fill-rule:nonzero;fill:rgb(0%,0%,0%);fill-opacity:1;" d="M 13.199219 130 C 13.199219 128.234375 11.765625 126.800781 10 126.800781 C 8.234375 126.800781 6.800781 128.234375 6.800781 130 C 6.800781 131.765625 8.234375 133.199219 10 133.199219 C 11.765625 133.199219 13.199219 131.765625 13.199219 130 "/>
<path style="fill:none;stroke-width:10;stroke-linecap:butt;stroke-linejoin:miter;stroke:rgb(0%,0%,0%);stroke-opacity:1;stroke-miterlimit:10;" d="M 131.992188 1700 C 131.992188 1717.65625 117.65625 1731.992188 100 1731.992188 C 82.34375 1731.992188 68.007812 1717.65625 68.007812 1700 C 68.007812 1682.34375 82.34375 1668.007812 100 1668.007812 C 117.65625 1668.007812 131.992188 1682.34375 131.992188 1700 Z M 131.992188 1700 " transform="matrix(0.1,0,0,-0.1,0,300)"/>
<path style=" stroke:none;fill-rule:nonzero;fill:rgb(100%,100%,100%);fill-opacity:1;" d="M 13.199219 170 C 13.199219 168.234375 11.765625 166.800781 10 166.800781 C 8.234375 166.800781 6.800781 168.234375 6.800781 170 C 6.800781 171.765625 8.234375 173.199219 10 173.199219 C 11.765625 173.199219 13.199219 171.765625 13.199219 170 "/>
<path style="fill:none;stroke-width:10;stroke-linecap:butt;stroke-linejoin:miter;stroke:rgb(0%,0%,0%);stroke-opacity:1;stroke-miterlimit:10;" d="M 131.992188 1300 C 131.992188 1317.65625 117.65625 1331.992188 100 1331.992188 C 82.34375 1331.992188 68.007812 1317.65625 68.007812 1300 C 68.007812 1282.34375 82.34375 1268.007812 100 1268.007812 C 117.65625 1268.007812 131.992188 1282.34375 131.992188 1300 Z M 131.992188 1300 " transform="matrix(0.1,0,0,-0.1,0,300)"/>
<path style="fill:none;stroke-width:10;stroke-linecap:butt;stroke-linejoin:miter;stroke:rgb(0%,0%,0%);stroke-opacity:1;stroke-dasharray:40,40;stroke-miterlimit:10;" d="M -300 2900 L 100 2900 L 100 3300 L -300 3300 Z M -300 2900 " transform="matrix(0.1,0,0,-0.1,0,300)"/>
<path style="fill:none;stroke-width:10;stroke-linecap:butt;stroke-linejoin:miter;stroke:rgb(0%,0%,0%);stroke-opacity:1;stroke-dasharray:40,40;stroke-miterlimit:10;" d="M 100 2900 L 300 2700 " transform="matrix(0.1,0,0,-0.1,0,300)"/>
<path style=" stroke:none;fill-rule:nonzero;fill:rgb(100%,100%,100%);fill-opacity:1;" d="M 13.199219 10 C 13.199219 8.234375 11.765625 6.800781 10 6.800781 C 8.234375 6.800781 6.800781 8.234375 6.800781 10 C 6.800781 11.765625 8.234375 13.199219 10 13.199219 C 11.765625 13.199219 13.199219 11.765625 13.199219 10 "/>
<path style="fill:none;stroke-width:10;stroke-linecap:butt;stroke-linejoin:miter;stroke:rgb(0%,0%,0%);stroke-opacity:1;stroke-miterlimit:10;" d="M 131.992188 2900 C 131.992188 2917.65625 117.65625 2931.992188 100 2931.992188 C 82.34375 2931.992188 68.007812 2917.65625 68.007812 2900 C 68.007812 2882.34375 82.34375 2868.007812 100 2868.007812 C 117.65625 2868.007812 131.992188 2882.34375 131.992188 2900 Z M 131.992188 2900 " transform="matrix(0.1,0,0,-0.1,0,300)"/>
<path style="fill:none;stroke-width:10;stroke-linecap:butt;stroke-linejoin:miter;stroke:rgb(0%,0%,0%);stroke-opacity:1;stroke-dasharray:40,40;stroke-miterlimit:10;" d="M 500 500 L 900 500 L 900 900 L 500 900 Z M 500 500 " transform="matrix(0.1,0,0,-0.1,0,300)"/>
<path style="fill:none;stroke-width:10;stroke-linecap:butt;stroke-linejoin:miter;stroke:rgb(0%,0%,0%);stroke-opacity:1;stroke-dasharray:40,40;stroke-miterlimit:10;" d="M 500 500 L 300 300 " transform="matrix(0.1,0,0,-0.1,0,300)"/>
<path style="fill:none;stroke-width:10;stroke-linecap:butt;stroke-linejoin:miter;stroke:rgb(0%,0%,0%);stroke-opacity:1;stroke-dasharray:40,40;stroke-miterlimit:10;" d="M 900 500 L 1100 300 " transform="matrix(0.1,0,0,-0.1,0,300)"/>
<path style="fill:none;stroke-width:10;stroke-linecap:butt;stroke-linejoin:miter;stroke:rgb(0%,0%,0%);stroke-opacity:1;stroke-dasharray:40,40;stroke-miterlimit:10;" d="M 900 900 L 1100 1100 " transform="matrix(0.1,0,0,-0.1,0,300)"/>
<path style="fill:none;stroke-width:10;stroke-linecap:butt;stroke-linejoin:miter;stroke:rgb(0%,0%,0%);stroke-opacity:1;stroke-dasharray:40,40;stroke-miterlimit:10;" d="M 500 900 L 300 1100 " transform="matrix(0.1,0,0,-0.1,0,300)"/>
<path style=" stroke:none;fill-rule:nonzero;fill:rgb(100%,100%,100%);fill-opacity:1;" d="M 53.199219 210 C 53.199219 208.234375 51.765625 206.800781 50 206.800781 C 48.234375 206.800781 46.800781 208.234375 46.800781 210 C 46.800781 211.765625 48.234375 213.199219 50 213.199219 C 51.765625 213.199219 53.199219 211.765625 53.199219 210 "/>
<path style="fill:none;stroke-width:10;stroke-linecap:butt;stroke-linejoin:miter;stroke:rgb(0%,0%,0%);stroke-opacity:1;stroke-miterlimit:10;" d="M 531.992188 900 C 531.992188 917.65625 517.65625 931.992188 500 931.992188 C 482.34375 931.992188 468.007812 917.65625 468.007812 900 C 468.007812 882.34375 482.34375 868.007812 500 868.007812 C 517.65625 868.007812 531.992188 882.34375 531.992188 900 Z M 531.992188 900 " transform="matrix(0.1,0,0,-0.1,0,300)"/>
<path style=" stroke:none;fill-rule:nonzero;fill:rgb(0%,0%,0%);fill-opacity:1;" d="M 93.199219 210 C 93.199219 208.234375 91.765625 206.800781 90 206.800781 C 88.234375 206.800781 86.800781 208.234375 86.800781 210 C 86.800781 211.765625 88.234375 213.199219 90 213.199219 C 91.765625 213.199219 93.199219 211.765625 93.199219 210 "/>
<path style="fill:none;stroke-width:10;stroke-linecap:butt;stroke-linejoin:miter;stroke:rgb(0%,0%,0%);stroke-opacity:1;stroke-miterlimit:10;" d="M 931.992188 900 C 931.992188 917.65625 917.65625 931.992188 900 931.992188 C 882.34375 931.992188 868.007812 917.65625 868.007812 900 C 868.007812 882.34375 882.34375 868.007812 900 868.007812 C 917.65625 868.007812 931.992188 882.34375 931.992188 900 Z M 931.992188 900 " transform="matrix(0.1,0,0,-0.1,0,300)"/>
<path style=" stroke:none;fill-rule:nonzero;fill:rgb(100%,100%,100%);fill-opacity:1;" d="M 93.199219 250 C 93.199219 248.234375 91.765625 246.800781 90 246.800781 C 88.234375 246.800781 86.800781 248.234375 86.800781 250 C 86.800781 251.765625 88.234375 253.199219 90 253.199219 C 91.765625 253.199219 93.199219 251.765625 93.199219 250 "/>
<path style="fill:none;stroke-width:10;stroke-linecap:butt;stroke-linejoin:miter;stroke:rgb(0%,0%,0%);stroke-opacity:1;stroke-miterlimit:10;" d="M 931.992188 500 C 931.992188 517.65625 917.65625 531.992188 900 531.992188 C 882.34375 531.992188 868.007812 517.65625 868.007812 500 C 868.007812 482.34375 882.34375 468.007812 900 468.007812 C 917.65625 468.007812 931.992188 482.34375 931.992188 500 Z M 931.992188 500 " transform="matrix(0.1,0,0,-0.1,0,300)"/>
<path style=" stroke:none;fill-rule:nonzero;fill:rgb(0%,0%,0%);fill-opacity:1;" d="M 53.199219 250 C 53.199219 248.234375 51.765625 246.800781 50 246.800781 C 48.234375 246.800781 46.800781 248.234375 46.800781 250 C 46.800781 251.765625 48.234375 253.199219 50 253.199219 C 51.765625 253.199219 53.199219 251.765625 53.199219 250 "/>
<path style="fill:none;stroke-width:10;stroke-linecap:butt;stroke-linejoin:miter;stroke:rgb(0%,0%,0%);stroke-opacity:1;stroke-miterlimit:10;" d="M 531.992188 500 C 531.992188 517.65625 517.65625 531.992188 500 531.992188 C 482.34375 531.992188 468.007812 517.65625 468.007812 500 C 468.007812 482.34375 482.34375 468.007812 500 468.007812 C 517.65625 468.007812 531.992188 482.34375 531.992188 500 Z M 531.992188 500 " transform="matrix(0.1,0,0,-0.1,0,300)"/>
<path style="fill:none;stroke-width:10;stroke-linecap:butt;stroke-linejoin:miter;stroke:rgb(0%,0%,0%);stroke-opacity:1;stroke-dasharray:40,40;stroke-miterlimit:10;" d="M 500 2100 L 900 2100 L 900 2500 L 500 2500 Z M 500 2100 " transform="matrix(0.1,0,0,-0.1,0,300)"/>
<path style="fill:none;stroke-width:10;stroke-linecap:butt;stroke-linejoin:miter;stroke:rgb(0%,0%,0%);stroke-opacity:1;stroke-dasharray:40,40;stroke-miterlimit:10;" d="M 500 2100 L 300 1900 " transform="matrix(0.1,0,0,-0.1,0,300)"/>
<path style="fill:none;stroke-width:10;stroke-linecap:butt;stroke-linejoin:miter;stroke:rgb(0%,0%,0%);stroke-opacity:1;stroke-dasharray:40,40;stroke-miterlimit:10;" d="M 900 2100 L 1100 1900 " transform="matrix(0.1,0,0,-0.1,0,300)"/>
<path style="fill:none;stroke-width:10;stroke-linecap:butt;stroke-linejoin:miter;stroke:rgb(0%,0%,0%);stroke-opacity:1;stroke-dasharray:40,40;stroke-miterlimit:10;" d="M 900 2500 L 1100 2700 " transform="matrix(0.1,0,0,-0.1,0,300)"/>
<path style="fill:none;stroke-width:10;stroke-linecap:butt;stroke-linejoin:miter;stroke:rgb(0%,0%,0%);stroke-opacity:1;stroke-dasharray:40,40;stroke-miterlimit:10;" d="M 500 2500 L 300 2700 " transform="matrix(0.1,0,0,-0.1,0,300)"/>
<path style="fill:none;stroke-width:20;stroke-linecap:butt;stroke-linejoin:miter;stroke:rgb(100%,0%,0%);stroke-opacity:1;stroke-miterlimit:10;" d="M 500 2100 L 300 1900 " transform="matrix(0.1,0,0,-0.1,0,300)"/>
<path style="fill:none;stroke-width:20;stroke-linecap:butt;stroke-linejoin:miter;stroke:rgb(100%,0%,0%);stroke-opacity:1;stroke-miterlimit:10;" d="M 900 2100 L 1100 1900 " transform="matrix(0.1,0,0,-0.1,0,300)"/>
<path style="fill:none;stroke-width:20;stroke-linecap:butt;stroke-linejoin:miter;stroke:rgb(100%,0%,0%);stroke-opacity:1;stroke-miterlimit:10;" d="M 900 2500 L 1100 2700 " transform="matrix(0.1,0,0,-0.1,0,300)"/>
<path style="fill:none;stroke-width:20;stroke-linecap:butt;stroke-linejoin:miter;stroke:rgb(100%,0%,0%);stroke-opacity:1;stroke-miterlimit:10;" d="M 500 2500 L 300 2700 " transform="matrix(0.1,0,0,-0.1,0,300)"/>
<path style="fill:none;stroke-width:20;stroke-linecap:butt;stroke-linejoin:miter;stroke:rgb(100%,0%,0%);stroke-opacity:1;stroke-miterlimit:10;" d="M 500 2100 L 300 1900 " transform="matrix(0.1,0,0,-0.1,0,300)"/>
<path style="fill:none;stroke-width:20;stroke-linecap:butt;stroke-linejoin:miter;stroke:rgb(100%,0%,0%);stroke-opacity:1;stroke-miterlimit:10;" d="M 900 2100 L 1100 1900 " transform="matrix(0.1,0,0,-0.1,0,300)"/>
<path style="fill:none;stroke-width:20;stroke-linecap:butt;stroke-linejoin:miter;stroke:rgb(100%,0%,0%);stroke-opacity:1;stroke-miterlimit:10;" d="M 900 2500 L 1100 2700 " transform="matrix(0.1,0,0,-0.1,0,300)"/>
<path style="fill:none;stroke-width:20;stroke-linecap:butt;stroke-linejoin:miter;stroke:rgb(100%,0%,0%);stroke-opacity:1;stroke-miterlimit:10;" d="M 500 2500 L 300 2700 " transform="matrix(0.1,0,0,-0.1,0,300)"/>
<path style="fill:none;stroke-width:20;stroke-linecap:butt;stroke-linejoin:miter;stroke:rgb(100%,0%,0%);stroke-opacity:1;stroke-miterlimit:10;" d="M 500 2100 L 300 1900 " transform="matrix(0.1,0,0,-0.1,0,300)"/>
<path style="fill:none;stroke-width:20;stroke-linecap:butt;stroke-linejoin:miter;stroke:rgb(100%,0%,0%);stroke-opacity:1;stroke-miterlimit:10;" d="M 900 2100 L 1100 1900 " transform="matrix(0.1,0,0,-0.1,0,300)"/>
<path style="fill:none;stroke-width:20;stroke-linecap:butt;stroke-linejoin:miter;stroke:rgb(100%,0%,0%);stroke-opacity:1;stroke-miterlimit:10;" d="M 900 2500 L 1100 2700 " transform="matrix(0.1,0,0,-0.1,0,300)"/>
<path style="fill:none;stroke-width:20;stroke-linecap:butt;stroke-linejoin:miter;stroke:rgb(100%,0%,0%);stroke-opacity:1;stroke-miterlimit:10;" d="M 500 2500 L 300 2700 " transform="matrix(0.1,0,0,-0.1,0,300)"/>
<path style="fill:none;stroke-width:20;stroke-linecap:butt;stroke-linejoin:miter;stroke:rgb(100%,0%,0%);stroke-opacity:1;stroke-miterlimit:10;" d="M 500 2100 L 300 1900 " transform="matrix(0.1,0,0,-0.1,0,300)"/>
<path style="fill:none;stroke-width:20;stroke-linecap:butt;stroke-linejoin:miter;stroke:rgb(100%,0%,0%);stroke-opacity:1;stroke-miterlimit:10;" d="M 900 2100 L 1100 1900 " transform="matrix(0.1,0,0,-0.1,0,300)"/>
<path style="fill:none;stroke-width:20;stroke-linecap:butt;stroke-linejoin:miter;stroke:rgb(100%,0%,0%);stroke-opacity:1;stroke-miterlimit:10;" d="M 900 2500 L 1100 2700 " transform="matrix(0.1,0,0,-0.1,0,300)"/>
<path style="fill:none;stroke-width:20;stroke-linecap:butt;stroke-linejoin:miter;stroke:rgb(100%,0%,0%);stroke-opacity:1;stroke-miterlimit:10;" d="M 500 2500 L 300 2700 " transform="matrix(0.1,0,0,-0.1,0,300)"/>
<path style=" stroke:none;fill-rule:nonzero;fill:rgb(100%,100%,100%);fill-opacity:1;" d="M 53.199219 50 C 53.199219 48.234375 51.765625 46.800781 50 46.800781 C 48.234375 46.800781 46.800781 48.234375 46.800781 50 C 46.800781 51.765625 48.234375 53.199219 50 53.199219 C 51.765625 53.199219 53.199219 51.765625 53.199219 50 "/>
<path style="fill:none;stroke-width:10;stroke-linecap:butt;stroke-linejoin:miter;stroke:rgb(0%,0%,0%);stroke-opacity:1;stroke-miterlimit:10;" d="M 531.992188 2500 C 531.992188 2517.65625 517.65625 2531.992188 500 2531.992188 C 482.34375 2531.992188 468.007812 2517.65625 468.007812 2500 C 468.007812 2482.34375 482.34375 2468.007812 500 2468.007812 C 517.65625 2468.007812 531.992188 2482.34375 531.992188 2500 Z M 531.992188 2500 " transform="matrix(0.1,0,0,-0.1,0,300)"/>
<path style=" stroke:none;fill-rule:nonzero;fill:rgb(0%,0%,0%);fill-opacity:1;" d="M 93.199219 50 C 93.199219 48.234375 91.765625 46.800781 90 46.800781 C 88.234375 46.800781 86.800781 48.234375 86.800781 50 C 86.800781 51.765625 88.234375 53.199219 90 53.199219 C 91.765625 53.199219 93.199219 51.765625 93.199219 50 "/>
<path style="fill:none;stroke-width:10;stroke-linecap:butt;stroke-linejoin:miter;stroke:rgb(0%,0%,0%);stroke-opacity:1;stroke-miterlimit:10;" d="M 931.992188 2500 C 931.992188 2517.65625 917.65625 2531.992188 900 2531.992188 C 882.34375 2531.992188 868.007812 2517.65625 868.007812 2500 C 868.007812 2482.34375 882.34375 2468.007812 900 2468.007812 C 917.65625 2468.007812 931.992188 2482.34375 931.992188 2500 Z M 931.992188 2500 " transform="matrix(0.1,0,0,-0.1,0,300)"/>
<path style=" stroke:none;fill-rule:nonzero;fill:rgb(100%,100%,100%);fill-opacity:1;" d="M 93.199219 90 C 93.199219 88.234375 91.765625 86.800781 90 86.800781 C 88.234375 86.800781 86.800781 88.234375 86.800781 90 C 86.800781 91.765625 88.234375 93.199219 90 93.199219 C 91.765625 93.199219 93.199219 91.765625 93.199219 90 "/>
<path style="fill:none;stroke-width:10;stroke-linecap:butt;stroke-linejoin:miter;stroke:rgb(0%,0%,0%);stroke-opacity:1;stroke-miterlimit:10;" d="M 931.992188 2100 C 931.992188 2117.65625 917.65625 2131.992188 900 2131.992188 C 882.34375 2131.992188 868.007812 2117.65625 868.007812 2100 C 868.007812 2082.34375 882.34375 2068.007812 900 2068.007812 C 917.65625 2068.007812 931.992188 2082.34375 931.992188 2100 Z M 931.992188 2100 " transform="matrix(0.1,0,0,-0.1,0,300)"/>
<path style=" stroke:none;fill-rule:nonzero;fill:rgb(0%,0%,0%);fill-opacity:1;" d="M 53.199219 90 C 53.199219 88.234375 51.765625 86.800781 50 86.800781 C 48.234375 86.800781 46.800781 88.234375 46.800781 90 C 46.800781 91.765625 48.234375 93.199219 50 93.199219 C 51.765625 93.199219 53.199219 91.765625 53.199219 90 "/>
<path style="fill:none;stroke-width:10;stroke-linecap:butt;stroke-linejoin:miter;stroke:rgb(0%,0%,0%);stroke-opacity:1;stroke-miterlimit:10;" d="M 531.992188 2100 C 531.992188 2117.65625 517.65625 2131.992188 500 2131.992188 C 482.34375 2131.992188 468.007812 2117.65625 468.007812 2100 C 468.007812 2082.34375 482.34375 2068.007812 500 2068.007812 C 517.65625 2068.007812 531.992188 2082.34375 531.992188 2100 Z M 531.992188 2100 " transform="matrix(0.1,0,0,-0.1,0,300)"/>
<path style="fill:none;stroke-width:10;stroke-linecap:butt;stroke-linejoin:miter;stroke:rgb(0%,0%,0%);stroke-opacity:1;stroke-dasharray:40,40;stroke-miterlimit:10;" d="M 1300 -300 L 1700 -300 L 1700 100 L 1300 100 Z M 1300 -300 " transform="matrix(0.1,0,0,-0.1,0,300)"/>
<path style="fill:none;stroke-width:10;stroke-linecap:butt;stroke-linejoin:miter;stroke:rgb(0%,0%,0%);stroke-opacity:1;stroke-dasharray:40,40;stroke-miterlimit:10;" d="M 1700 100 L 1900 300 " transform="matrix(0.1,0,0,-0.1,0,300)"/>
<path style="fill:none;stroke-width:10;stroke-linecap:butt;stroke-linejoin:miter;stroke:rgb(0%,0%,0%);stroke-opacity:1;stroke-dasharray:40,40;stroke-miterlimit:10;" d="M 1300 100 L 1100 300 " transform="matrix(0.1,0,0,-0.1,0,300)"/>
<path style=" stroke:none;fill-rule:nonzero;fill:rgb(100%,100%,100%);fill-opacity:1;" d="M 133.199219 290 C 133.199219 288.234375 131.765625 286.800781 130 286.800781 C 128.234375 286.800781 126.800781 288.234375 126.800781 290 C 126.800781 291.765625 128.234375 293.199219 130 293.199219 C 131.765625 293.199219 133.199219 291.765625 133.199219 290 "/>
<path style="fill:none;stroke-width:10;stroke-linecap:butt;stroke-linejoin:miter;stroke:rgb(0%,0%,0%);stroke-opacity:1;stroke-miterlimit:10;" d="M 1331.992188 100 C 1331.992188 117.65625 1317.65625 131.992188 1300 131.992188 C 1282.34375 131.992188 1268.007812 117.65625 1268.007812 100 C 1268.007812 82.34375 1282.34375 68.007812 1300 68.007812 C 1317.65625 68.007812 1331.992188 82.34375 1331.992188 100 Z M 1331.992188 100 " transform="matrix(0.1,0,0,-0.1,0,300)"/>
<path style=" stroke:none;fill-rule:nonzero;fill:rgb(0%,0%,0%);fill-opacity:1;" d="M 173.199219 290 C 173.199219 288.234375 171.765625 286.800781 170 286.800781 C 168.234375 286.800781 166.800781 288.234375 166.800781 290 C 166.800781 291.765625 168.234375 293.199219 170 293.199219 C 171.765625 293.199219 173.199219 291.765625 173.199219 290 "/>
<path style="fill:none;stroke-width:10;stroke-linecap:butt;stroke-linejoin:miter;stroke:rgb(0%,0%,0%);stroke-opacity:1;stroke-miterlimit:10;" d="M 1731.992188 100 C 1731.992188 117.65625 1717.65625 131.992188 1700 131.992188 C 1682.34375 131.992188 1668.007812 117.65625 1668.007812 100 C 1668.007812 82.34375 1682.34375 68.007812 1700 68.007812 C 1717.65625 68.007812 1731.992188 82.34375 1731.992188 100 Z M 1731.992188 100 " transform="matrix(0.1,0,0,-0.1,0,300)"/>
<path style="fill:none;stroke-width:10;stroke-linecap:butt;stroke-linejoin:miter;stroke:rgb(0%,0%,0%);stroke-opacity:1;stroke-dasharray:40,40;stroke-miterlimit:10;" d="M 1300 1300 L 1700 1300 L 1700 1700 L 1300 1700 Z M 1300 1300 " transform="matrix(0.1,0,0,-0.1,0,300)"/>
<path style="fill:none;stroke-width:10;stroke-linecap:butt;stroke-linejoin:miter;stroke:rgb(0%,0%,0%);stroke-opacity:1;stroke-dasharray:40,40;stroke-miterlimit:10;" d="M 1300 1300 L 1100 1100 " transform="matrix(0.1,0,0,-0.1,0,300)"/>
<path style="fill:none;stroke-width:10;stroke-linecap:butt;stroke-linejoin:miter;stroke:rgb(0%,0%,0%);stroke-opacity:1;stroke-dasharray:40,40;stroke-miterlimit:10;" d="M 1700 1300 L 1900 1100 " transform="matrix(0.1,0,0,-0.1,0,300)"/>
<path style="fill:none;stroke-width:10;stroke-linecap:butt;stroke-linejoin:miter;stroke:rgb(0%,0%,0%);stroke-opacity:1;stroke-dasharray:40,40;stroke-miterlimit:10;" d="M 1700 1700 L 1900 1900 " transform="matrix(0.1,0,0,-0.1,0,300)"/>
<path style="fill:none;stroke-width:10;stroke-linecap:butt;stroke-linejoin:miter;stroke:rgb(0%,0%,0%);stroke-opacity:1;stroke-dasharray:40,40;stroke-miterlimit:10;" d="M 1300 1700 L 1100 1900 " transform="matrix(0.1,0,0,-0.1,0,300)"/>
<path style="fill:none;stroke-width:20;stroke-linecap:butt;stroke-linejoin:miter;stroke:rgb(100%,0%,0%);stroke-opacity:1;stroke-miterlimit:10;" d="M 1300 1300 L 1700 1300 " transform="matrix(0.1,0,0,-0.1,0,300)"/>
<path style="fill:none;stroke-width:20;stroke-linecap:butt;stroke-linejoin:miter;stroke:rgb(100%,0%,0%);stroke-opacity:1;stroke-miterlimit:10;" d="M 1700 1700 L 1300 1700 " transform="matrix(0.1,0,0,-0.1,0,300)"/>
<path style="fill:none;stroke-width:20;stroke-linecap:butt;stroke-linejoin:miter;stroke:rgb(100%,0%,0%);stroke-opacity:1;stroke-miterlimit:10;" d="M 1300 1300 L 1700 1300 " transform="matrix(0.1,0,0,-0.1,0,300)"/>
<path style="fill:none;stroke-width:20;stroke-linecap:butt;stroke-linejoin:miter;stroke:rgb(100%,0%,0%);stroke-opacity:1;stroke-miterlimit:10;" d="M 1700 1700 L 1300 1700 " transform="matrix(0.1,0,0,-0.1,0,300)"/>
<path style=" stroke:none;fill-rule:nonzero;fill:rgb(100%,100%,100%);fill-opacity:1;" d="M 133.199219 130 C 133.199219 128.234375 131.765625 126.800781 130 126.800781 C 128.234375 126.800781 126.800781 128.234375 126.800781 130 C 126.800781 131.765625 128.234375 133.199219 130 133.199219 C 131.765625 133.199219 133.199219 131.765625 133.199219 130 "/>
<path style="fill:none;stroke-width:10;stroke-linecap:butt;stroke-linejoin:miter;stroke:rgb(0%,0%,0%);stroke-opacity:1;stroke-miterlimit:10;" d="M 1331.992188 1700 C 1331.992188 1717.65625 1317.65625 1731.992188 1300 1731.992188 C 1282.34375 1731.992188 1268.007812 1717.65625 1268.007812 1700 C 1268.007812 1682.34375 1282.34375 1668.007812 1300 1668.007812 C 1317.65625 1668.007812 1331.992188 1682.34375 1331.992188 1700 Z M 1331.992188 1700 " transform="matrix(0.1,0,0,-0.1,0,300)"/>
<path style=" stroke:none;fill-rule:nonzero;fill:rgb(0%,0%,0%);fill-opacity:1;" d="M 173.199219 130 C 173.199219 128.234375 171.765625 126.800781 170 126.800781 C 168.234375 126.800781 166.800781 128.234375 166.800781 130 C 166.800781 131.765625 168.234375 133.199219 170 133.199219 C 171.765625 133.199219 173.199219 131.765625 173.199219 130 "/>
<path style="fill:none;stroke-width:10;stroke-linecap:butt;stroke-linejoin:miter;stroke:rgb(0%,0%,0%);stroke-opacity:1;stroke-miterlimit:10;" d="M 1731.992188 1700 C 1731.992188 1717.65625 1717.65625 1731.992188 1700 1731.992188 C 1682.34375 1731.992188 1668.007812 1717.65625 1668.007812 1700 C 1668.007812 1682.34375 1682.34375 1668.007812 1700 1668.007812 C 1717.65625 1668.007812 1731.992188 1682.34375 1731.992188 1700 Z M 1731.992188 1700 " transform="matrix(0.1,0,0,-0.1,0,300)"/>
<path style=" stroke:none;fill-rule:nonzero;fill:rgb(100%,100%,100%);fill-opacity:1;" d="M 173.199219 170 C 173.199219 168.234375 171.765625 166.800781 170 166.800781 C 168.234375 166.800781 166.800781 168.234375 166.800781 170 C 166.800781 171.765625 168.234375 173.199219 170 173.199219 C 171.765625 173.199219 173.199219 171.765625 173.199219 170 "/>
<path style="fill:none;stroke-width:10;stroke-linecap:butt;stroke-linejoin:miter;stroke:rgb(0%,0%,0%);stroke-opacity:1;stroke-miterlimit:10;" d="M 1731.992188 1300 C 1731.992188 1317.65625 1717.65625 1331.992188 1700 1331.992188 C 1682.34375 1331.992188 1668.007812 1317.65625 1668.007812 1300 C 1668.007812 1282.34375 1682.34375 1268.007812 1700 1268.007812 C 1717.65625 1268.007812 1731.992188 1282.34375 1731.992188 1300 Z M 1731.992188 1300 " transform="matrix(0.1,0,0,-0.1,0,300)"/>
<path style=" stroke:none;fill-rule:nonzero;fill:rgb(0%,0%,0%);fill-opacity:1;" d="M 133.199219 170 C 133.199219 168.234375 131.765625 166.800781 130 166.800781 C 128.234375 166.800781 126.800781 168.234375 126.800781 170 C 126.800781 171.765625 128.234375 173.199219 130 173.199219 C 131.765625 173.199219 133.199219 171.765625 133.199219 170 "/>
<path style="fill:none;stroke-width:10;stroke-linecap:butt;stroke-linejoin:miter;stroke:rgb(0%,0%,0%);stroke-opacity:1;stroke-miterlimit:10;" d="M 1331.992188 1300 C 1331.992188 1317.65625 1317.65625 1331.992188 1300 1331.992188 C 1282.34375 1331.992188 1268.007812 1317.65625 1268.007812 1300 C 1268.007812 1282.34375 1282.34375 1268.007812 1300 1268.007812 C 1317.65625 1268.007812 1331.992188 1282.34375 1331.992188 1300 Z M 1331.992188 1300 " transform="matrix(0.1,0,0,-0.1,0,300)"/>
<path style="fill:none;stroke-width:10;stroke-linecap:butt;stroke-linejoin:miter;stroke:rgb(0%,0%,0%);stroke-opacity:1;stroke-dasharray:40,40;stroke-miterlimit:10;" d="M 1300 2900 L 1700 2900 L 1700 3300 L 1300 3300 Z M 1300 2900 " transform="matrix(0.1,0,0,-0.1,0,300)"/>
<path style="fill:none;stroke-width:10;stroke-linecap:butt;stroke-linejoin:miter;stroke:rgb(0%,0%,0%);stroke-opacity:1;stroke-dasharray:40,40;stroke-miterlimit:10;" d="M 1300 2900 L 1100 2700 " transform="matrix(0.1,0,0,-0.1,0,300)"/>
<path style="fill:none;stroke-width:10;stroke-linecap:butt;stroke-linejoin:miter;stroke:rgb(0%,0%,0%);stroke-opacity:1;stroke-dasharray:40,40;stroke-miterlimit:10;" d="M 1700 2900 L 1900 2700 " transform="matrix(0.1,0,0,-0.1,0,300)"/>
<path style=" stroke:none;fill-rule:nonzero;fill:rgb(100%,100%,100%);fill-opacity:1;" d="M 173.199219 10 C 173.199219 8.234375 171.765625 6.800781 170 6.800781 C 168.234375 6.800781 166.800781 8.234375 166.800781 10 C 166.800781 11.765625 168.234375 13.199219 170 13.199219 C 171.765625 13.199219 173.199219 11.765625 173.199219 10 "/>
<path style="fill:none;stroke-width:10;stroke-linecap:butt;stroke-linejoin:miter;stroke:rgb(0%,0%,0%);stroke-opacity:1;stroke-miterlimit:10;" d="M 1731.992188 2900 C 1731.992188 2917.65625 1717.65625 2931.992188 1700 2931.992188 C 1682.34375 2931.992188 1668.007812 2917.65625 1668.007812 2900 C 1668.007812 2882.34375 1682.34375 2868.007812 1700 2868.007812 C 1717.65625 2868.007812 1731.992188 2882.34375 1731.992188 2900 Z M 1731.992188 2900 " transform="matrix(0.1,0,0,-0.1,0,300)"/>
<path style=" stroke:none;fill-rule:nonzero;fill:rgb(0%,0%,0%);fill-opacity:1;" d="M 133.199219 10 C 133.199219 8.234375 131.765625 6.800781 130 6.800781 C 128.234375 6.800781 126.800781 8.234375 126.800781 10 C 126.800781 11.765625 128.234375 13.199219 130 13.199219 C 131.765625 13.199219 133.199219 11.765625 133.199219 10 "/>
<path style="fill:none;stroke-width:10;stroke-linecap:butt;stroke-linejoin:miter;stroke:rgb(0%,0%,0%);stroke-opacity:1;stroke-miterlimit:10;" d="M 1331.992188 2900 C 1331.992188 2917.65625 1317.65625 2931.992188 1300 2931.992188 C 1282.34375 2931.992188 1268.007812 2917.65625 1268.007812 2900 C 1268.007812 2882.34375 1282.34375 2868.007812 1300 2868.007812 C 1317.65625 2868.007812 1331.992188 2882.34375 1331.992188 2900 Z M 1331.992188 2900 " transform="matrix(0.1,0,0,-0.1,0,300)"/>
<path style="fill:none;stroke-width:10;stroke-linecap:butt;stroke-linejoin:miter;stroke:rgb(0%,0%,0%);stroke-opacity:1;stroke-dasharray:40,40;stroke-miterlimit:10;" d="M 2100 500 L 2500 500 L 2500 900 L 2100 900 Z M 2100 500 " transform="matrix(0.1,0,0,-0.1,0,300)"/>
<path style="fill:none;stroke-width:10;stroke-linecap:butt;stroke-linejoin:miter;stroke:rgb(0%,0%,0%);stroke-opacity:1;stroke-dasharray:40,40;stroke-miterlimit:10;" d="M 2100 500 L 1900 300 " transform="matrix(0.1,0,0,-0.1,0,300)"/>
<path style="fill:none;stroke-width:10;stroke-linecap:butt;stroke-linejoin:miter;stroke:rgb(0%,0%,0%);stroke-opacity:1;stroke-dasharray:40,40;stroke-miterlimit:10;" d="M 2500 500 L 2700 300 " transform="matrix(0.1,0,0,-0.1,0,300)"/>
<path style="fill:none;stroke-width:10;stroke-linecap:butt;stroke-linejoin:miter;stroke:rgb(0%,0%,0%);stroke-opacity:1;stroke-dasharray:40,40;stroke-miterlimit:10;" d="M 2500 900 L 2700 1100 " transform="matrix(0.1,0,0,-0.1,0,300)"/>
<path style="fill:none;stroke-width:10;stroke-linecap:butt;stroke-linejoin:miter;stroke:rgb(0%,0%,0%);stroke-opacity:1;stroke-dasharray:40,40;stroke-miterlimit:10;" d="M 2100 900 L 1900 1100 " transform="matrix(0.1,0,0,-0.1,0,300)"/>
<path style=" stroke:none;fill-rule:nonzero;fill:rgb(100%,100%,100%);fill-opacity:1;" d="M 213.199219 210 C 213.199219 208.234375 211.765625 206.800781 210 206.800781 C 208.234375 206.800781 206.800781 208.234375 206.800781 210 C 206.800781 211.765625 208.234375 213.199219 210 213.199219 C 211.765625 213.199219 213.199219 211.765625 213.199219 210 "/>
<path style="fill:none;stroke-width:10;stroke-linecap:butt;stroke-linejoin:miter;stroke:rgb(0%,0%,0%);stroke-opacity:1;stroke-miterlimit:10;" d="M 2131.992188 900 C 2131.992188 917.65625 2117.65625 931.992188 2100 931.992188 C 2082.34375 931.992188 2068.007812 917.65625 2068.007812 900 C 2068.007812 882.34375 2082.34375 868.007812 2100 868.007812 C 2117.65625 868.007812 2131.992188 882.34375 2131.992188 900 Z M 2131.992188 900 " transform="matrix(0.1,0,0,-0.1,0,300)"/>
<path style=" stroke:none;fill-rule:nonzero;fill:rgb(0%,0%,0%);fill-opacity:1;" d="M 253.199219 210 C 253.199219 208.234375 251.765625 206.800781 250 206.800781 C 248.234375 206.800781 246.800781 208.234375 246.800781 210 C 246.800781 211.765625 248.234375 213.199219 250 213.199219 C 251.765625 213.199219 253.199219 211.765625 253.199219 210 "/>
<path style="fill:none;stroke-width:10;stroke-linecap:butt;stroke-linejoin:miter;stroke:rgb(0%,0%,0%);stroke-opacity:1;stroke-miterlimit:10;" d="M 2531.992188 900 C 2531.992188 917.65625 2517.65625 931.992188 2500 931.992188 C 2482.34375 931.992188 2468.007812 917.65625 2468.007812 900 C 2468.007812 882.34375 2482.34375 868.007812 2500 868.007812 C 2517.65625 868.007812 2531.992188 882.34375 2531.992188 900 Z M 2531.992188 900 " transform="matrix(0.1,0,0,-0.1,0,300)"/>
<path style=" stroke:none;fill-rule:nonzero;fill:rgb(100%,100%,100%);fill-opacity:1;" d="M 253.199219 250 C 253.199219 248.234375 251.765625 246.800781 250 246.800781 C 248.234375 246.800781 246.800781 248.234375 246.800781 250 C 246.800781 251.765625 248.234375 253.199219 250 253.199219 C 251.765625 253.199219 253.199219 251.765625 253.199219 250 "/>
<path style="fill:none;stroke-width:10;stroke-linecap:butt;stroke-linejoin:miter;stroke:rgb(0%,0%,0%);stroke-opacity:1;stroke-miterlimit:10;" d="M 2531.992188 500 C 2531.992188 517.65625 2517.65625 531.992188 2500 531.992188 C 2482.34375 531.992188 2468.007812 517.65625 2468.007812 500 C 2468.007812 482.34375 2482.34375 468.007812 2500 468.007812 C 2517.65625 468.007812 2531.992188 482.34375 2531.992188 500 Z M 2531.992188 500 " transform="matrix(0.1,0,0,-0.1,0,300)"/>
<path style=" stroke:none;fill-rule:nonzero;fill:rgb(0%,0%,0%);fill-opacity:1;" d="M 213.199219 250 C 213.199219 248.234375 211.765625 246.800781 210 246.800781 C 208.234375 246.800781 206.800781 248.234375 206.800781 250 C 206.800781 251.765625 208.234375 253.199219 210 253.199219 C 211.765625 253.199219 213.199219 251.765625 213.199219 250 "/>
<path style="fill:none;stroke-width:10;stroke-linecap:butt;stroke-linejoin:miter;stroke:rgb(0%,0%,0%);stroke-opacity:1;stroke-miterlimit:10;" d="M 2131.992188 500 C 2131.992188 517.65625 2117.65625 531.992188 2100 531.992188 C 2082.34375 531.992188 2068.007812 517.65625 2068.007812 500 C 2068.007812 482.34375 2082.34375 468.007812 2100 468.007812 C 2117.65625 468.007812 2131.992188 482.34375 2131.992188 500 Z M 2131.992188 500 " transform="matrix(0.1,0,0,-0.1,0,300)"/>
<path style="fill:none;stroke-width:10;stroke-linecap:butt;stroke-linejoin:miter;stroke:rgb(0%,0%,0%);stroke-opacity:1;stroke-dasharray:40,40;stroke-miterlimit:10;" d="M 2100 2100 L 2500 2100 L 2500 2500 L 2100 2500 Z M 2100 2100 " transform="matrix(0.1,0,0,-0.1,0,300)"/>
<path style="fill:none;stroke-width:10;stroke-linecap:butt;stroke-linejoin:miter;stroke:rgb(0%,0%,0%);stroke-opacity:1;stroke-dasharray:40,40;stroke-miterlimit:10;" d="M 2100 2100 L 1900 1900 " transform="matrix(0.1,0,0,-0.1,0,300)"/>
<path style="fill:none;stroke-width:10;stroke-linecap:butt;stroke-linejoin:miter;stroke:rgb(0%,0%,0%);stroke-opacity:1;stroke-dasharray:40,40;stroke-miterlimit:10;" d="M 2500 2100 L 2700 1900 " transform="matrix(0.1,0,0,-0.1,0,300)"/>
<path style="fill:none;stroke-width:10;stroke-linecap:butt;stroke-linejoin:miter;stroke:rgb(0%,0%,0%);stroke-opacity:1;stroke-dasharray:40,40;stroke-miterlimit:10;" d="M 2500 2500 L 2700 2700 " transform="matrix(0.1,0,0,-0.1,0,300)"/>
<path style="fill:none;stroke-width:10;stroke-linecap:butt;stroke-linejoin:miter;stroke:rgb(0%,0%,0%);stroke-opacity:1;stroke-dasharray:40,40;stroke-miterlimit:10;" d="M 2100 2500 L 1900 2700 " transform="matrix(0.1,0,0,-0.1,0,300)"/>
<path style="fill:none;stroke-width:20;stroke-linecap:butt;stroke-linejoin:miter;stroke:rgb(100%,0%,0%);stroke-opacity:1;stroke-miterlimit:10;" d="M 2500 2500 L 2100 2500 " transform="matrix(0.1,0,0,-0.1,0,300)"/>
<path style="fill:none;stroke-width:20;stroke-linecap:butt;stroke-linejoin:miter;stroke:rgb(100%,0%,0%);stroke-opacity:1;stroke-miterlimit:10;" d="M 2100 2100 L 1900 1900 " transform="matrix(0.1,0,0,-0.1,0,300)"/>
<path style="fill:none;stroke-width:20;stroke-linecap:butt;stroke-linejoin:miter;stroke:rgb(100%,0%,0%);stroke-opacity:1;stroke-miterlimit:10;" d="M 2500 2100 L 2700 1900 " transform="matrix(0.1,0,0,-0.1,0,300)"/>
<path style="fill:none;stroke-width:20;stroke-linecap:butt;stroke-linejoin:miter;stroke:rgb(100%,0%,0%);stroke-opacity:1;stroke-miterlimit:10;" d="M 2500 2500 L 2100 2500 " transform="matrix(0.1,0,0,-0.1,0,300)"/>
<path style="fill:none;stroke-width:20;stroke-linecap:butt;stroke-linejoin:miter;stroke:rgb(100%,0%,0%);stroke-opacity:1;stroke-miterlimit:10;" d="M 2100 2100 L 1900 1900 " transform="matrix(0.1,0,0,-0.1,0,300)"/>
<path style="fill:none;stroke-width:20;stroke-linecap:butt;stroke-linejoin:miter;stroke:rgb(100%,0%,0%);stroke-opacity:1;stroke-miterlimit:10;" d="M 2500 2100 L 2700 1900 " transform="matrix(0.1,0,0,-0.1,0,300)"/>
<path style="fill:none;stroke-width:20;stroke-linecap:butt;stroke-linejoin:miter;stroke:rgb(100%,0%,0%);stroke-opacity:1;stroke-miterlimit:10;" d="M 2500 2500 L 2100 2500 " transform="matrix(0.1,0,0,-0.1,0,300)"/>
<path style="fill:none;stroke-width:20;stroke-linecap:butt;stroke-linejoin:miter;stroke:rgb(100%,0%,0%);stroke-opacity:1;stroke-miterlimit:10;" d="M 2100 2100 L 1900 1900 " transform="matrix(0.1,0,0,-0.1,0,300)"/>
<path style="fill:none;stroke-width:20;stroke-linecap:butt;stroke-linejoin:miter;stroke:rgb(100%,0%,0%);stroke-opacity:1;stroke-miterlimit:10;" d="M 2500 2100 L 2700 1900 " transform="matrix(0.1,0,0,-0.1,0,300)"/>
<path style=" stroke:none;fill-rule:nonzero;fill:rgb(100%,100%,100%);fill-opacity:1;" d="M 213.199219 50 C 213.199219 48.234375 211.765625 46.800781 210 46.800781 C 208.234375 46.800781 206.800781 48.234375 206.800781 50 C 206.800781 51.765625 208.234375 53.199219 210 53.199219 C 211.765625 53.199219 213.199219 51.765625 213.199219 50 "/>
<path style="fill:none;stroke-width:10;stroke-linecap:butt;stroke-linejoin:miter;stroke:rgb(0%,0%,0%);stroke-opacity:1;stroke-miterlimit:10;" d="M 2131.992188 2500 C 2131.992188 2517.65625 2117.65625 2531.992188 2100 2531.992188 C 2082.34375 2531.992188 2068.007812 2517.65625 2068.007812 2500 C 2068.007812 2482.34375 2082.34375 2468.007812 2100 2468.007812 C 2117.65625 2468.007812 2131.992188 2482.34375 2131.992188 2500 Z M 2131.992188 2500 " transform="matrix(0.1,0,0,-0.1,0,300)"/>
<path style=" stroke:none;fill-rule:nonzero;fill:rgb(0%,0%,0%);fill-opacity:1;" d="M 253.199219 50 C 253.199219 48.234375 251.765625 46.800781 250 46.800781 C 248.234375 46.800781 246.800781 48.234375 246.800781 50 C 246.800781 51.765625 248.234375 53.199219 250 53.199219 C 251.765625 53.199219 253.199219 51.765625 253.199219 50 "/>
<path style="fill:none;stroke-width:10;stroke-linecap:butt;stroke-linejoin:miter;stroke:rgb(0%,0%,0%);stroke-opacity:1;stroke-miterlimit:10;" d="M 2531.992188 2500 C 2531.992188 2517.65625 2517.65625 2531.992188 2500 2531.992188 C 2482.34375 2531.992188 2468.007812 2517.65625 2468.007812 2500 C 2468.007812 2482.34375 2482.34375 2468.007812 2500 2468.007812 C 2517.65625 2468.007812 2531.992188 2482.34375 2531.992188 2500 Z M 2531.992188 2500 " transform="matrix(0.1,0,0,-0.1,0,300)"/>
<path style=" stroke:none;fill-rule:nonzero;fill:rgb(100%,100%,100%);fill-opacity:1;" d="M 253.199219 90 C 253.199219 88.234375 251.765625 86.800781 250 86.800781 C 248.234375 86.800781 246.800781 88.234375 246.800781 90 C 246.800781 91.765625 248.234375 93.199219 250 93.199219 C 251.765625 93.199219 253.199219 91.765625 253.199219 90 "/>
<path style="fill:none;stroke-width:10;stroke-linecap:butt;stroke-linejoin:miter;stroke:rgb(0%,0%,0%);stroke-opacity:1;stroke-miterlimit:10;" d="M 2531.992188 2100 C 2531.992188 2117.65625 2517.65625 2131.992188 2500 2131.992188 C 2482.34375 2131.992188 2468.007812 2117.65625 2468.007812 2100 C 2468.007812 2082.34375 2482.34375 2068.007812 2500 2068.007812 C 2517.65625 2068.007812 2531.992188 2082.34375 2531.992188 2100 Z M 2531.992188 2100 " transform="matrix(0.1,0,0,-0.1,0,300)"/>
<path style=" stroke:none;fill-rule:nonzero;fill:rgb(0%,0%,0%);fill-opacity:1;" d="M 213.199219 90 C 213.199219 88.234375 211.765625 86.800781 210 86.800781 C 208.234375 86.800781 206.800781 88.234375 206.800781 90 C 206.800781 91.765625 208.234375 93.199219 210 93.199219 C 211.765625 93.199219 213.199219 91.765625 213.199219 90 "/>
<path style="fill:none;stroke-width:10;stroke-linecap:butt;stroke-linejoin:miter;stroke:rgb(0%,0%,0%);stroke-opacity:1;stroke-miterlimit:10;" d="M 2131.992188 2100 C 2131.992188 2117.65625 2117.65625 2131.992188 2100 2131.992188 C 2082.34375 2131.992188 2068.007812 2117.65625 2068.007812 2100 C 2068.007812 2082.34375 2082.34375 2068.007812 2100 2068.007812 C 2117.65625 2068.007812 2131.992188 2082.34375 2131.992188 2100 Z M 2131.992188 2100 " transform="matrix(0.1,0,0,-0.1,0,300)"/>
<path style="fill:none;stroke-width:10;stroke-linecap:butt;stroke-linejoin:miter;stroke:rgb(0%,0%,0%);stroke-opacity:1;stroke-dasharray:40,40;stroke-miterlimit:10;" d="M 2900 -300 L 3300 -300 L 3300 100 L 2900 100 Z M 2900 -300 " transform="matrix(0.1,0,0,-0.1,0,300)"/>
<path style="fill:none;stroke-width:10;stroke-linecap:butt;stroke-linejoin:miter;stroke:rgb(0%,0%,0%);stroke-opacity:1;stroke-dasharray:40,40;stroke-miterlimit:10;" d="M 2900 100 L 2700 300 " transform="matrix(0.1,0,0,-0.1,0,300)"/>
<path style=" stroke:none;fill-rule:nonzero;fill:rgb(100%,100%,100%);fill-opacity:1;" d="M 293.199219 290 C 293.199219 288.234375 291.765625 286.800781 290 286.800781 C 288.234375 286.800781 286.800781 288.234375 286.800781 290 C 286.800781 291.765625 288.234375 293.199219 290 293.199219 C 291.765625 293.199219 293.199219 291.765625 293.199219 290 "/>
<path style="fill:none;stroke-width:10;stroke-linecap:butt;stroke-linejoin:miter;stroke:rgb(0%,0%,0%);stroke-opacity:1;stroke-miterlimit:10;" d="M 2931.992188 100 C 2931.992188 117.65625 2917.65625 131.992188 2900 131.992188 C 2882.34375 131.992188 2868.007812 117.65625 2868.007812 100 C 2868.007812 82.34375 2882.34375 68.007812 2900 68.007812 C 2917.65625 68.007812 2931.992188 82.34375 2931.992188 100 Z M 2931.992188 100 " transform="matrix(0.1,0,0,-0.1,0,300)"/>
<path style="fill:none;stroke-width:10;stroke-linecap:butt;stroke-linejoin:miter;stroke:rgb(0%,0%,0%);stroke-opacity:1;stroke-dasharray:40,40;stroke-miterlimit:10;" d="M 2900 1300 L 3300 1300 L 3300 1700 L 2900 1700 Z M 2900 1300 " transform="matrix(0.1,0,0,-0.1,0,300)"/>
<path style="fill:none;stroke-width:10;stroke-linecap:butt;stroke-linejoin:miter;stroke:rgb(0%,0%,0%);stroke-opacity:1;stroke-dasharray:40,40;stroke-miterlimit:10;" d="M 2900 1300 L 2700 1100 " transform="matrix(0.1,0,0,-0.1,0,300)"/>
<path style="fill:none;stroke-width:10;stroke-linecap:butt;stroke-linejoin:miter;stroke:rgb(0%,0%,0%);stroke-opacity:1;stroke-dasharray:40,40;stroke-miterlimit:10;" d="M 2900 1700 L 2700 1900 " transform="matrix(0.1,0,0,-0.1,0,300)"/>
<path style=" stroke:none;fill-rule:nonzero;fill:rgb(100%,100%,100%);fill-opacity:1;" d="M 293.199219 130 C 293.199219 128.234375 291.765625 126.800781 290 126.800781 C 288.234375 126.800781 286.800781 128.234375 286.800781 130 C 286.800781 131.765625 288.234375 133.199219 290 133.199219 C 291.765625 133.199219 293.199219 131.765625 293.199219 130 "/>
<path style="fill:none;stroke-width:10;stroke-linecap:butt;stroke-linejoin:miter;stroke:rgb(0%,0%,0%);stroke-opacity:1;stroke-miterlimit:10;" d="M 2931.992188 1700 C 2931.992188 1717.65625 2917.65625 1731.992188 2900 1731.992188 C 2882.34375 1731.992188 2868.007812 1717.65625 2868.007812 1700 C 2868.007812 1682.34375 2882.34375 1668.007812 2900 1668.007812 C 2917.65625 1668.007812 2931.992188 1682.34375 2931.992188 1700 Z M 2931.992188 1700 " transform="matrix(0.1,0,0,-0.1,0,300)"/>
<path style=" stroke:none;fill-rule:nonzero;fill:rgb(0%,0%,0%);fill-opacity:1;" d="M 293.199219 170 C 293.199219 168.234375 291.765625 166.800781 290 166.800781 C 288.234375 166.800781 286.800781 168.234375 286.800781 170 C 286.800781 171.765625 288.234375 173.199219 290 173.199219 C 291.765625 173.199219 293.199219 171.765625 293.199219 170 "/>
<path style="fill:none;stroke-width:10;stroke-linecap:butt;stroke-linejoin:miter;stroke:rgb(0%,0%,0%);stroke-opacity:1;stroke-miterlimit:10;" d="M 2931.992188 1300 C 2931.992188 1317.65625 2917.65625 1331.992188 2900 1331.992188 C 2882.34375 1331.992188 2868.007812 1317.65625 2868.007812 1300 C 2868.007812 1282.34375 2882.34375 1268.007812 2900 1268.007812 C 2917.65625 1268.007812 2931.992188 1282.34375 2931.992188 1300 Z M 2931.992188 1300 " transform="matrix(0.1,0,0,-0.1,0,300)"/>
<path style="fill:none;stroke-width:10;stroke-linecap:butt;stroke-linejoin:miter;stroke:rgb(0%,0%,0%);stroke-opacity:1;stroke-dasharray:40,40;stroke-miterlimit:10;" d="M 2900 2900 L 3300 2900 L 3300 3300 L 2900 3300 Z M 2900 2900 " transform="matrix(0.1,0,0,-0.1,0,300)"/>
<path style="fill:none;stroke-width:10;stroke-linecap:butt;stroke-linejoin:miter;stroke:rgb(0%,0%,0%);stroke-opacity:1;stroke-dasharray:40,40;stroke-miterlimit:10;" d="M 2900 2900 L 2700 2700 " transform="matrix(0.1,0,0,-0.1,0,300)"/>
<path style=" stroke:none;fill-rule:nonzero;fill:rgb(0%,0%,0%);fill-opacity:1;" d="M 293.199219 10 C 293.199219 8.234375 291.765625 6.800781 290 6.800781 C 288.234375 6.800781 286.800781 8.234375 286.800781 10 C 286.800781 11.765625 288.234375 13.199219 290 13.199219 C 291.765625 13.199219 293.199219 11.765625 293.199219 10 "/>
<path style="fill:none;stroke-width:10;stroke-linecap:butt;stroke-linejoin:miter;stroke:rgb(0%,0%,0%);stroke-opacity:1;stroke-miterlimit:10;" d="M 2931.992188 2900 C 2931.992188 2917.65625 2917.65625 2931.992188 2900 2931.992188 C 2882.34375 2931.992188 2868.007812 2917.65625 2868.007812 2900 C 2868.007812 2882.34375 2882.34375 2868.007812 2900 2868.007812 C 2917.65625 2868.007812 2931.992188 2882.34375 2931.992188 2900 Z M 2931.992188 2900 " transform="matrix(0.1,0,0,-0.1,0,300)"/>
<path style=" stroke:none;fill-rule:nonzero;fill:rgb(100%,100%,100%);fill-opacity:1;" d="M 33.199219 270 C 33.199219 268.234375 31.765625 266.800781 30 266.800781 C 28.234375 266.800781 26.800781 268.234375 26.800781 270 C 26.800781 271.765625 28.234375 273.199219 30 273.199219 C 31.765625 273.199219 33.199219 271.765625 33.199219 270 "/>
<path style="fill:none;stroke-width:10;stroke-linecap:butt;stroke-linejoin:miter;stroke:rgb(0%,0%,0%);stroke-opacity:1;stroke-miterlimit:10;" d="M 331.992188 300 C 331.992188 317.65625 317.65625 331.992188 300 331.992188 C 282.34375 331.992188 268.007812 317.65625 268.007812 300 C 268.007812 282.34375 282.34375 268.007812 300 268.007812 C 317.65625 268.007812 331.992188 282.34375 331.992188 300 Z M 331.992188 300 " transform="matrix(0.1,0,0,-0.1,0,300)"/>
<path style=" stroke:none;fill-rule:nonzero;fill:rgb(0%,0%,0%);fill-opacity:1;" d="M 33.199219 190 C 33.199219 188.234375 31.765625 186.800781 30 186.800781 C 28.234375 186.800781 26.800781 188.234375 26.800781 190 C 26.800781 191.765625 28.234375 193.199219 30 193.199219 C 31.765625 193.199219 33.199219 191.765625 33.199219 190 "/>
<path style="fill:none;stroke-width:10;stroke-linecap:butt;stroke-linejoin:miter;stroke:rgb(0%,0%,0%);stroke-opacity:1;stroke-miterlimit:10;" d="M 331.992188 1100 C 331.992188 1117.65625 317.65625 1131.992188 300 1131.992188 C 282.34375 1131.992188 268.007812 1117.65625 268.007812 1100 C 268.007812 1082.34375 282.34375 1068.007812 300 1068.007812 C 317.65625 1068.007812 331.992188 1082.34375 331.992188 1100 Z M 331.992188 1100 " transform="matrix(0.1,0,0,-0.1,0,300)"/>
<path style=" stroke:none;fill-rule:nonzero;fill:rgb(100%,100%,100%);fill-opacity:1;" d="M 33.199219 110 C 33.199219 108.234375 31.765625 106.800781 30 106.800781 C 28.234375 106.800781 26.800781 108.234375 26.800781 110 C 26.800781 111.765625 28.234375 113.199219 30 113.199219 C 31.765625 113.199219 33.199219 111.765625 33.199219 110 "/>
<path style="fill:none;stroke-width:10;stroke-linecap:butt;stroke-linejoin:miter;stroke:rgb(0%,0%,0%);stroke-opacity:1;stroke-miterlimit:10;" d="M 331.992188 1900 C 331.992188 1917.65625 317.65625 1931.992188 300 1931.992188 C 282.34375 1931.992188 268.007812 1917.65625 268.007812 1900 C 268.007812 1882.34375 282.34375 1868.007812 300 1868.007812 C 317.65625 1868.007812 331.992188 1882.34375 331.992188 1900 Z M 331.992188 1900 " transform="matrix(0.1,0,0,-0.1,0,300)"/>
<path style=" stroke:none;fill-rule:nonzero;fill:rgb(0%,0%,0%);fill-opacity:1;" d="M 33.199219 30 C 33.199219 28.234375 31.765625 26.800781 30 26.800781 C 28.234375 26.800781 26.800781 28.234375 26.800781 30 C 26.800781 31.765625 28.234375 33.199219 30 33.199219 C 31.765625 33.199219 33.199219 31.765625 33.199219 30 "/>
<path style="fill:none;stroke-width:10;stroke-linecap:butt;stroke-linejoin:miter;stroke:rgb(0%,0%,0%);stroke-opacity:1;stroke-miterlimit:10;" d="M 331.992188 2700 C 331.992188 2717.65625 317.65625 2731.992188 300 2731.992188 C 282.34375 2731.992188 268.007812 2717.65625 268.007812 2700 C 268.007812 2682.34375 282.34375 2668.007812 300 2668.007812 C 317.65625 2668.007812 331.992188 2682.34375 331.992188 2700 Z M 331.992188 2700 " transform="matrix(0.1,0,0,-0.1,0,300)"/>
<path style=" stroke:none;fill-rule:nonzero;fill:rgb(0%,0%,0%);fill-opacity:1;" d="M 113.199219 270 C 113.199219 268.234375 111.765625 266.800781 110 266.800781 C 108.234375 266.800781 106.800781 268.234375 106.800781 270 C 106.800781 271.765625 108.234375 273.199219 110 273.199219 C 111.765625 273.199219 113.199219 271.765625 113.199219 270 "/>
<path style="fill:none;stroke-width:10;stroke-linecap:butt;stroke-linejoin:miter;stroke:rgb(0%,0%,0%);stroke-opacity:1;stroke-miterlimit:10;" d="M 1131.992188 300 C 1131.992188 317.65625 1117.65625 331.992188 1100 331.992188 C 1082.34375 331.992188 1068.007812 317.65625 1068.007812 300 C 1068.007812 282.34375 1082.34375 268.007812 1100 268.007812 C 1117.65625 268.007812 1131.992188 282.34375 1131.992188 300 Z M 1131.992188 300 " transform="matrix(0.1,0,0,-0.1,0,300)"/>
<path style=" stroke:none;fill-rule:nonzero;fill:rgb(100%,100%,100%);fill-opacity:1;" d="M 113.199219 190 C 113.199219 188.234375 111.765625 186.800781 110 186.800781 C 108.234375 186.800781 106.800781 188.234375 106.800781 190 C 106.800781 191.765625 108.234375 193.199219 110 193.199219 C 111.765625 193.199219 113.199219 191.765625 113.199219 190 "/>
<path style="fill:none;stroke-width:10;stroke-linecap:butt;stroke-linejoin:miter;stroke:rgb(0%,0%,0%);stroke-opacity:1;stroke-miterlimit:10;" d="M 1131.992188 1100 C 1131.992188 1117.65625 1117.65625 1131.992188 1100 1131.992188 C 1082.34375 1131.992188 1068.007812 1117.65625 1068.007812 1100 C 1068.007812 1082.34375 1082.34375 1068.007812 1100 1068.007812 C 1117.65625 1068.007812 1131.992188 1082.34375 1131.992188 1100 Z M 1131.992188 1100 " transform="matrix(0.1,0,0,-0.1,0,300)"/>
<path style=" stroke:none;fill-rule:nonzero;fill:rgb(0%,0%,0%);fill-opacity:1;" d="M 113.199219 110 C 113.199219 108.234375 111.765625 106.800781 110 106.800781 C 108.234375 106.800781 106.800781 108.234375 106.800781 110 C 106.800781 111.765625 108.234375 113.199219 110 113.199219 C 111.765625 113.199219 113.199219 111.765625 113.199219 110 "/>
<path style="fill:none;stroke-width:10;stroke-linecap:butt;stroke-linejoin:miter;stroke:rgb(0%,0%,0%);stroke-opacity:1;stroke-miterlimit:10;" d="M 1131.992188 1900 C 1131.992188 1917.65625 1117.65625 1931.992188 1100 1931.992188 C 1082.34375 1931.992188 1068.007812 1917.65625 1068.007812 1900 C 1068.007812 1882.34375 1082.34375 1868.007812 1100 1868.007812 C 1117.65625 1868.007812 1131.992188 1882.34375 1131.992188 1900 Z M 1131.992188 1900 " transform="matrix(0.1,0,0,-0.1,0,300)"/>
<path style=" stroke:none;fill-rule:nonzero;fill:rgb(100%,100%,100%);fill-opacity:1;" d="M 113.199219 30 C 113.199219 28.234375 111.765625 26.800781 110 26.800781 C 108.234375 26.800781 106.800781 28.234375 106.800781 30 C 106.800781 31.765625 108.234375 33.199219 110 33.199219 C 111.765625 33.199219 113.199219 31.765625 113.199219 30 "/>
<path style="fill:none;stroke-width:10;stroke-linecap:butt;stroke-linejoin:miter;stroke:rgb(0%,0%,0%);stroke-opacity:1;stroke-miterlimit:10;" d="M 1131.992188 2700 C 1131.992188 2717.65625 1117.65625 2731.992188 1100 2731.992188 C 1082.34375 2731.992188 1068.007812 2717.65625 1068.007812 2700 C 1068.007812 2682.34375 1082.34375 2668.007812 1100 2668.007812 C 1117.65625 2668.007812 1131.992188 2682.34375 1131.992188 2700 Z M 1131.992188 2700 " transform="matrix(0.1,0,0,-0.1,0,300)"/>
<path style=" stroke:none;fill-rule:nonzero;fill:rgb(100%,100%,100%);fill-opacity:1;" d="M 193.199219 270 C 193.199219 268.234375 191.765625 266.800781 190 266.800781 C 188.234375 266.800781 186.800781 268.234375 186.800781 270 C 186.800781 271.765625 188.234375 273.199219 190 273.199219 C 191.765625 273.199219 193.199219 271.765625 193.199219 270 "/>
<path style="fill:none;stroke-width:10;stroke-linecap:butt;stroke-linejoin:miter;stroke:rgb(0%,0%,0%);stroke-opacity:1;stroke-miterlimit:10;" d="M 1931.992188 300 C 1931.992188 317.65625 1917.65625 331.992188 1900 331.992188 C 1882.34375 331.992188 1868.007812 317.65625 1868.007812 300 C 1868.007812 282.34375 1882.34375 268.007812 1900 268.007812 C 1917.65625 268.007812 1931.992188 282.34375 1931.992188 300 Z M 1931.992188 300 " transform="matrix(0.1,0,0,-0.1,0,300)"/>
<path style=" stroke:none;fill-rule:nonzero;fill:rgb(0%,0%,0%);fill-opacity:1;" d="M 193.199219 190 C 193.199219 188.234375 191.765625 186.800781 190 186.800781 C 188.234375 186.800781 186.800781 188.234375 186.800781 190 C 186.800781 191.765625 188.234375 193.199219 190 193.199219 C 191.765625 193.199219 193.199219 191.765625 193.199219 190 "/>
<path style="fill:none;stroke-width:10;stroke-linecap:butt;stroke-linejoin:miter;stroke:rgb(0%,0%,0%);stroke-opacity:1;stroke-miterlimit:10;" d="M 1931.992188 1100 C 1931.992188 1117.65625 1917.65625 1131.992188 1900 1131.992188 C 1882.34375 1131.992188 1868.007812 1117.65625 1868.007812 1100 C 1868.007812 1082.34375 1882.34375 1068.007812 1900 1068.007812 C 1917.65625 1068.007812 1931.992188 1082.34375 1931.992188 1100 Z M 1931.992188 1100 " transform="matrix(0.1,0,0,-0.1,0,300)"/>
<path style=" stroke:none;fill-rule:nonzero;fill:rgb(100%,100%,100%);fill-opacity:1;" d="M 193.199219 110 C 193.199219 108.234375 191.765625 106.800781 190 106.800781 C 188.234375 106.800781 186.800781 108.234375 186.800781 110 C 186.800781 111.765625 188.234375 113.199219 190 113.199219 C 191.765625 113.199219 193.199219 111.765625 193.199219 110 "/>
<path style="fill:none;stroke-width:10;stroke-linecap:butt;stroke-linejoin:miter;stroke:rgb(0%,0%,0%);stroke-opacity:1;stroke-miterlimit:10;" d="M 1931.992188 1900 C 1931.992188 1917.65625 1917.65625 1931.992188 1900 1931.992188 C 1882.34375 1931.992188 1868.007812 1917.65625 1868.007812 1900 C 1868.007812 1882.34375 1882.34375 1868.007812 1900 1868.007812 C 1917.65625 1868.007812 1931.992188 1882.34375 1931.992188 1900 Z M 1931.992188 1900 " transform="matrix(0.1,0,0,-0.1,0,300)"/>
<path style=" stroke:none;fill-rule:nonzero;fill:rgb(0%,0%,0%);fill-opacity:1;" d="M 193.199219 30 C 193.199219 28.234375 191.765625 26.800781 190 26.800781 C 188.234375 26.800781 186.800781 28.234375 186.800781 30 C 186.800781 31.765625 188.234375 33.199219 190 33.199219 C 191.765625 33.199219 193.199219 31.765625 193.199219 30 "/>
<path style="fill:none;stroke-width:10;stroke-linecap:butt;stroke-linejoin:miter;stroke:rgb(0%,0%,0%);stroke-opacity:1;stroke-miterlimit:10;" d="M 1931.992188 2700 C 1931.992188 2717.65625 1917.65625 2731.992188 1900 2731.992188 C 1882.34375 2731.992188 1868.007812 2717.65625 1868.007812 2700 C 1868.007812 2682.34375 1882.34375 2668.007812 1900 2668.007812 C 1917.65625 2668.007812 1931.992188 2682.34375 1931.992188 2700 Z M 1931.992188 2700 " transform="matrix(0.1,0,0,-0.1,0,300)"/>
<path style=" stroke:none;fill-rule:nonzero;fill:rgb(0%,0%,0%);fill-opacity:1;" d="M 273.199219 270 C 273.199219 268.234375 271.765625 266.800781 270 266.800781 C 268.234375 266.800781 266.800781 268.234375 266.800781 270 C 266.800781 271.765625 268.234375 273.199219 270 273.199219 C 271.765625 273.199219 273.199219 271.765625 273.199219 270 "/>
<path style="fill:none;stroke-width:10;stroke-linecap:butt;stroke-linejoin:miter;stroke:rgb(0%,0%,0%);stroke-opacity:1;stroke-miterlimit:10;" d="M 2731.992188 300 C 2731.992188 317.65625 2717.65625 331.992188 2700 331.992188 C 2682.34375 331.992188 2668.007812 317.65625 2668.007812 300 C 2668.007812 282.34375 2682.34375 268.007812 2700 268.007812 C 2717.65625 268.007812 2731.992188 282.34375 2731.992188 300 Z M 2731.992188 300 " transform="matrix(0.1,0,0,-0.1,0,300)"/>
<path style=" stroke:none;fill-rule:nonzero;fill:rgb(100%,100%,100%);fill-opacity:1;" d="M 273.199219 190 C 273.199219 188.234375 271.765625 186.800781 270 186.800781 C 268.234375 186.800781 266.800781 188.234375 266.800781 190 C 266.800781 191.765625 268.234375 193.199219 270 193.199219 C 271.765625 193.199219 273.199219 191.765625 273.199219 190 "/>
<path style="fill:none;stroke-width:10;stroke-linecap:butt;stroke-linejoin:miter;stroke:rgb(0%,0%,0%);stroke-opacity:1;stroke-miterlimit:10;" d="M 2731.992188 1100 C 2731.992188 1117.65625 2717.65625 1131.992188 2700 1131.992188 C 2682.34375 1131.992188 2668.007812 1117.65625 2668.007812 1100 C 2668.007812 1082.34375 2682.34375 1068.007812 2700 1068.007812 C 2717.65625 1068.007812 2731.992188 1082.34375 2731.992188 1100 Z M 2731.992188 1100 " transform="matrix(0.1,0,0,-0.1,0,300)"/>
<path style=" stroke:none;fill-rule:nonzero;fill:rgb(0%,0%,0%);fill-opacity:1;" d="M 273.199219 110 C 273.199219 108.234375 271.765625 106.800781 270 106.800781 C 268.234375 106.800781 266.800781 108.234375 266.800781 110 C 266.800781 111.765625 268.234375 113.199219 270 113.199219 C 271.765625 113.199219 273.199219 111.765625 273.199219 110 "/>
<path style="fill:none;stroke-width:10;stroke-linecap:butt;stroke-linejoin:miter;stroke:rgb(0%,0%,0%);stroke-opacity:1;stroke-miterlimit:10;" d="M 2731.992188 1900 C 2731.992188 1917.65625 2717.65625 1931.992188 2700 1931.992188 C 2682.34375 1931.992188 2668.007812 1917.65625 2668.007812 1900 C 2668.007812 1882.34375 2682.34375 1868.007812 2700 1868.007812 C 2717.65625 1868.007812 2731.992188 1882.34375 2731.992188 1900 Z M 2731.992188 1900 " transform="matrix(0.1,0,0,-0.1,0,300)"/>
<path style=" stroke:none;fill-rule:nonzero;fill:rgb(100%,100%,100%);fill-opacity:1;" d="M 273.199219 30 C 273.199219 28.234375 271.765625 26.800781 270 26.800781 C 268.234375 26.800781 266.800781 28.234375 266.800781 30 C 266.800781 31.765625 268.234375 33.199219 270 33.199219 C 271.765625 33.199219 273.199219 31.765625 273.199219 30 "/>
<path style="fill:none;stroke-width:10;stroke-linecap:butt;stroke-linejoin:miter;stroke:rgb(0%,0%,0%);stroke-opacity:1;stroke-miterlimit:10;" d="M 2731.992188 2700 C 2731.992188 2717.65625 2717.65625 2731.992188 2700 2731.992188 C 2682.34375 2731.992188 2668.007812 2717.65625 2668.007812 2700 C 2668.007812 2682.34375 2682.34375 2668.007812 2700 2668.007812 C 2717.65625 2668.007812 2731.992188 2682.34375 2731.992188 2700 Z M 2731.992188 2700 " transform="matrix(0.1,0,0,-0.1,0,300)"/>
</g>
</svg>
