<?xml version="1.0" encoding="utf-8" standalone="no"?>
<!DOCTYPE svg PUBLIC "-//W3C//DTD SVG 1.1//EN"
  "http://www.w3.org/Graphics/SVG/1.1/DTD/svg11.dtd">
<svg xmlns:xlink="http://www.w3.org/1999/xlink" width="280.512pt" height="280.512pt" viewBox="0 0 280.512 280.512" xmlns="http://www.w3.org/2000/svg" version="1.1">
 <metadata>
  <rdf:RDF xmlns:dc="http://purl.org/dc/elements/1.1/" xmlns:cc="http://creativecommons.org/ns#" xmlns:rdf="http://www.w3.org/1999/02/22-rdf-syntax-ns#">
   <cc:Work>
    <dc:type rdf:resource="http://purl.org/dc/dcmitype/StillImage"/>
    <dc:date>2024-03-11T09:54:04.503177</dc:date>
    <dc:format>image/svg+xml</dc:format>
    <dc:creator>
     <cc:Agent>
      <dc:title>Matplotlib v3.7.1, https://matplotlib.org/</dc:title>
     </cc:Agent>
    </dc:creator>
   </cc:Work>
  </rdf:RDF>
 </metadata>
 <defs>
  <style type="text/css">*{stroke-linejoin: round; stroke-linecap: butt}</style>
 </defs>
 <g id="figure_1">
  <g id="patch_1">
   <path d="M 0 280.512 
L 280.512 280.512 
L 280.512 0 
L 0 0 
z
" style="fill: #ffffff"/>
  </g>
  <g id="axes_1">
   <g id="patch_2">
    <path d="M 83.232 74.410356 
L 45.216 140.256 
L 121.248 140.256 
z
" clip-path="url(#p3fd81cd672)" style="fill: #fbd2ff"/>
   </g>
   <g id="patch_3">
    <path d="M 83.232 74.410356 
L 121.248 140.256 
L 159.264 74.410356 
z
" clip-path="url(#p3fd81cd672)" style="fill: #b3b3ff"/>
   </g>
   <g id="patch_4">
    <path d="M 83.232 74.410356 
L 159.264 74.410356 
L 121.248 8.564713 
z
" clip-path="url(#p3fd81cd672)" style="fill: #a2fff0"/>
   </g>
   <g id="patch_5">
    <path d="M 83.232 74.410356 
L 121.248 8.564713 
L 45.216 8.564713 
z
" clip-path="url(#p3fd81cd672)" style="fill: #ffe0b1"/>
   </g>
   <g id="patch_6">
    <path d="M 83.232 74.410356 
L 45.216 8.564713 
L 7.2 74.410356 
z
" clip-path="url(#p3fd81cd672)" style="fill: #eafff0"/>
   </g>
   <g id="patch_7">
    <path d="M 83.232 74.410356 
L 7.2 74.410356 
L 45.216 140.256 
z
" clip-path="url(#p3fd81cd672)" style="fill: #ecc2b3"/>
   </g>
   <g id="patch_8">
    <path d="M 45.216 140.256 
L 121.248 140.256 
L 159.264 74.410356 
L 121.248 8.564713 
L 45.216 8.564713 
L 7.2 74.410356 
L 45.216 140.256 
z
" clip-path="url(#p3fd81cd672)" style="fill: none; stroke: #000000; stroke-linejoin: miter"/>
   </g>
   <g id="patch_9">
    <path d="M 197.28 140.256 
L 159.264 206.101644 
L 235.296 206.101644 
z
" clip-path="url(#p3fd81cd672)" style="fill: #fbd2ff"/>
   </g>
   <g id="patch_10">
    <path d="M 197.28 140.256 
L 235.296 206.101644 
L 273.312 140.256 
z
" clip-path="url(#p3fd81cd672)" style="fill: #b3b3ff"/>
   </g>
   <g id="patch_11">
    <path d="M 197.28 140.256 
L 273.312 140.256 
L 235.296 74.410356 
z
" clip-path="url(#p3fd81cd672)" style="fill: #a2fff0"/>
   </g>
   <g id="patch_12">
    <path d="M 197.28 140.256 
L 235.296 74.410356 
L 159.264 74.410356 
z
" clip-path="url(#p3fd81cd672)" style="fill: #ffe0b1"/>
   </g>
   <g id="patch_13">
    <path d="M 197.28 140.256 
L 159.264 74.410356 
L 121.248 140.256 
z
" clip-path="url(#p3fd81cd672)" style="fill: #eafff0"/>
   </g>
   <g id="patch_14">
    <path d="M 197.28 140.256 
L 121.248 140.256 
L 159.264 206.101644 
z
" clip-path="url(#p3fd81cd672)" style="fill: #ecc2b3"/>
   </g>
   <g id="patch_15">
    <path d="M 159.264 206.101644 
L 235.296 206.101644 
L 273.312 140.256 
L 235.296 74.410356 
L 159.264 74.410356 
L 121.248 140.256 
L 159.264 206.101644 
z
" clip-path="url(#p3fd81cd672)" style="fill: none; stroke: #000000; stroke-linejoin: miter"/>
   </g>
   <g id="patch_16">
    <path d="M 83.232 206.101644 
L 45.216 271.947287 
L 121.248 271.947287 
z
" clip-path="url(#p3fd81cd672)" style="fill: #fbd2ff"/>
   </g>
   <g id="patch_17">
    <path d="M 83.232 206.101644 
L 121.248 271.947287 
L 159.264 206.101644 
z
" clip-path="url(#p3fd81cd672)" style="fill: #b3b3ff"/>
   </g>
   <g id="patch_18">
    <path d="M 83.232 206.101644 
L 159.264 206.101644 
L 121.248 140.256 
z
" clip-path="url(#p3fd81cd672)" style="fill: #a2fff0"/>
   </g>
   <g id="patch_19">
    <path d="M 83.232 206.101644 
L 121.248 140.256 
L 45.216 140.256 
z
" clip-path="url(#p3fd81cd672)" style="fill: #ffe0b1"/>
   </g>
   <g id="patch_20">
    <path d="M 83.232 206.101644 
L 45.216 140.256 
L 7.2 206.101644 
z
" clip-path="url(#p3fd81cd672)" style="fill: #eafff0"/>
   </g>
   <g id="patch_21">
    <path d="M 83.232 206.101644 
L 7.2 206.101644 
L 45.216 271.947287 
z
" clip-path="url(#p3fd81cd672)" style="fill: #ecc2b3"/>
   </g>
   <g id="patch_22">
    <path d="M 45.216 271.947287 
L 121.248 271.947287 
L 159.264 206.101644 
L 121.248 140.256 
L 45.216 140.256 
L 7.2 206.101644 
L 45.216 271.947287 
z
" clip-path="url(#p3fd81cd672)" style="fill: none; stroke: #000000; stroke-linejoin: miter"/>
   </g>
   <g id="patch_23">
    <path d="M 89.80768 125.983257 
Q 89.80768 137.754147 89.80768 149.525038 
L 91.30768 149.525038 
Q 90.05768 152.02485 88.80768 154.524662 
Q 87.55768 152.02485 86.30768 149.525038 
L 87.80768 149.525038 
Q 87.80768 137.754147 87.80768 125.983257 
L 89.80768 125.983257 
z
" clip-path="url(#p3fd81cd672)" style="fill: #1f77b4; stroke: #000000; stroke-linecap: round"/>
   </g>
   <g id="patch_24">
    <path d="M 99.149376 155.858889 
Q 120.314181 143.639383 141.478986 131.419877 
L 140.728986 130.120839 
Q 143.519879 129.952892 146.310772 129.784945 
Q 144.769879 132.117955 143.228986 134.450966 
L 142.478986 133.151928 
Q 121.314181 145.371434 100.149376 157.59094 
L 99.149376 155.858889 
z
" clip-path="url(#p3fd81cd672)" style="fill: #1f77b4; stroke: #000000; stroke-linecap: round"/>
   </g>
   <g id="patch_25">
    <path d="M 153.130318 113.579692 
Q 142.936428 107.694246 132.742537 101.808801 
L 131.992537 103.107839 
Q 130.452637 100.775401 128.912736 98.442963 
Q 131.702637 98.610338 134.492537 98.777712 
L 133.742537 100.07675 
Q 143.936428 105.962195 154.130318 111.847641 
L 153.130318 113.579692 
z
" clip-path="url(#p3fd81cd672)" style="fill: #1f77b4; stroke: #000000; stroke-linecap: round"/>
   </g>
   <g id="line2d_1">
    <path d="M 77.14944 121.248 
L 77.14944 109.08288 
L 89.31456 109.08288 
" clip-path="url(#p3fd81cd672)" style="fill: none; stroke: #ff0000; stroke-linecap: square"/>
   </g>
   <g id="line2d_2">
    <path d="M 77.14944 159.264 
L 77.14944 171.42912 
L 89.31456 171.42912 
" clip-path="url(#p3fd81cd672)" style="fill: none; stroke: #008000; stroke-linecap: square"/>
   </g>
   <g id="line2d_3">
    <path d="M 159.758691 111.569527 
L 170.293994 117.652087 
L 164.211434 128.18739 
" clip-path="url(#p3fd81cd672)" style="fill: none; stroke: #bfbf00; stroke-linecap: square"/>
   </g>
   <g id="line2d_4">
    <path d="M 126.835869 92.561527 
L 116.300566 86.478967 
L 110.218006 97.01427 
" clip-path="url(#p3fd81cd672)" style="fill: none; stroke: #0000ff; stroke-linecap: square"/>
   </g>
  </g>
 </g>
 <defs>
  <clipPath id="p3fd81cd672">
   <rect x="7.2" y="7.2" width="266.112" height="266.112"/>
  </clipPath>
 </defs>
</svg>
