<?xml version="1.0" encoding="utf-8" standalone="no"?>
<!DOCTYPE svg PUBLIC "-//W3C//DTD SVG 1.1//EN"
  "http://www.w3.org/Graphics/SVG/1.1/DTD/svg11.dtd">
<svg xmlns:xlink="http://www.w3.org/1999/xlink" width="280.512pt" height="280.512pt" viewBox="0 0 280.512 280.512" xmlns="http://www.w3.org/2000/svg" version="1.1">
 <metadata>
  <rdf:RDF xmlns:dc="http://purl.org/dc/elements/1.1/" xmlns:cc="http://creativecommons.org/ns#" xmlns:rdf="http://www.w3.org/1999/02/22-rdf-syntax-ns#">
   <cc:Work>
    <dc:type rdf:resource="http://purl.org/dc/dcmitype/StillImage"/>
    <dc:date>2024-03-08T13:55:18.800704</dc:date>
    <dc:format>image/svg+xml</dc:format>
    <dc:creator>
     <cc:Agent>
      <dc:title>Matplotlib v3.7.1, https://matplotlib.org/</dc:title>
     </cc:Agent>
    </dc:creator>
   </cc:Work>
  </rdf:RDF>
 </metadata>
 <defs>
  <style type="text/css">*{stroke-linejoin: round; stroke-linecap: butt}</style>
 </defs>
 <g id="figure_1">
  <g id="patch_1">
   <path d="M 0 280.512 
L 280.512 280.512 
L 280.512 0 
L 0 0 
z
" style="fill: #ffffff"/>
  </g>
  <g id="axes_1">
   <g id="patch_2">
    <path d="M -285.5232 324.623802 
L -312.1344 370.715752 
L -258.912 370.715752 
z
" clip-path="url(#pa7007f73f3)" style="fill: #fbd2ff"/>
   </g>
   <g id="patch_3">
    <path d="M -285.5232 324.623802 
L -258.912 370.715752 
L -232.3008 324.623802 
z
" clip-path="url(#pa7007f73f3)" style="fill: #b3b3ff"/>
   </g>
   <g id="patch_4">
    <path d="M -285.5232 324.623802 
L -232.3008 324.623802 
L -258.912 278.531851 
z
" clip-path="url(#pa7007f73f3)" style="fill: #a2fff0"/>
   </g>
   <g id="patch_5">
    <path d="M -285.5232 324.623802 
L -258.912 278.531851 
L -312.1344 278.531851 
z
" clip-path="url(#pa7007f73f3)" style="fill: #ffe0b1"/>
   </g>
   <g id="patch_6">
    <path d="M -285.5232 324.623802 
L -312.1344 278.531851 
L -338.7456 324.623802 
z
" clip-path="url(#pa7007f73f3)" style="fill: #eafff0"/>
   </g>
   <g id="patch_7">
    <path d="M -285.5232 324.623802 
L -338.7456 324.623802 
L -312.1344 370.715752 
z
" clip-path="url(#pa7007f73f3)" style="fill: #ecc2b3"/>
   </g>
   <g id="patch_8">
    <path clip-path="url(#pa7007f73f3)" style="fill: none; stroke: #000000; stroke-linejoin: miter"/>
   </g>
   <g id="patch_9">
    <path d="M -205.6896 186.34795 
L -232.3008 232.439901 
L -179.0784 232.439901 
z
" clip-path="url(#pa7007f73f3)" style="fill: #fbd2ff"/>
   </g>
   <g id="patch_10">
    <path d="M -205.6896 186.34795 
L -179.0784 232.439901 
L -152.4672 186.34795 
z
" clip-path="url(#pa7007f73f3)" style="fill: #b3b3ff"/>
   </g>
   <g id="patch_11">
    <path d="M -205.6896 186.34795 
L -152.4672 186.34795 
L -179.0784 140.256 
z
" clip-path="url(#pa7007f73f3)" style="fill: #a2fff0"/>
   </g>
   <g id="patch_12">
    <path d="M -205.6896 186.34795 
L -179.0784 140.256 
L -232.3008 140.256 
z
" clip-path="url(#pa7007f73f3)" style="fill: #ffe0b1"/>
   </g>
   <g id="patch_13">
    <path d="M -205.6896 186.34795 
L -232.3008 140.256 
L -258.912 186.34795 
z
" clip-path="url(#pa7007f73f3)" style="fill: #eafff0"/>
   </g>
   <g id="patch_14">
    <path d="M -205.6896 186.34795 
L -258.912 186.34795 
L -232.3008 232.439901 
z
" clip-path="url(#pa7007f73f3)" style="fill: #ecc2b3"/>
   </g>
   <g id="patch_15">
    <path clip-path="url(#pa7007f73f3)" style="fill: none; stroke: #000000; stroke-linejoin: miter"/>
   </g>
   <g id="patch_16">
    <path d="M -125.856 48.072099 
L -152.4672 94.16405 
L -99.2448 94.16405 
z
" clip-path="url(#pa7007f73f3)" style="fill: #fbd2ff"/>
   </g>
   <g id="patch_17">
    <path d="M -125.856 48.072099 
L -99.2448 94.16405 
L -72.6336 48.072099 
z
" clip-path="url(#pa7007f73f3)" style="fill: #b3b3ff"/>
   </g>
   <g id="patch_18">
    <path d="M -125.856 48.072099 
L -72.6336 48.072099 
L -99.2448 1.980149 
z
" clip-path="url(#pa7007f73f3)" style="fill: #a2fff0"/>
   </g>
   <g id="patch_19">
    <path d="M -125.856 48.072099 
L -99.2448 1.980149 
L -152.4672 1.980149 
z
" clip-path="url(#pa7007f73f3)" style="fill: #ffe0b1"/>
   </g>
   <g id="patch_20">
    <path d="M -125.856 48.072099 
L -152.4672 1.980149 
L -179.0784 48.072099 
z
" clip-path="url(#pa7007f73f3)" style="fill: #eafff0"/>
   </g>
   <g id="patch_21">
    <path d="M -125.856 48.072099 
L -179.0784 48.072099 
L -152.4672 94.16405 
z
" clip-path="url(#pa7007f73f3)" style="fill: #ecc2b3"/>
   </g>
   <g id="patch_22">
    <path clip-path="url(#pa7007f73f3)" style="fill: none; stroke: #000000; stroke-linejoin: miter"/>
   </g>
   <g id="patch_23">
    <path d="M -46.0224 -90.203752 
L -72.6336 -44.111802 
L -19.4112 -44.111802 
z
" clip-path="url(#pa7007f73f3)" style="fill: #fbd2ff"/>
   </g>
   <g id="patch_24">
    <path d="M -46.0224 -90.203752 
L -19.4112 -44.111802 
L 7.2 -90.203752 
z
" clip-path="url(#pa7007f73f3)" style="fill: #b3b3ff"/>
   </g>
   <g id="patch_25">
    <path d="M -46.0224 -90.203752 
L 7.2 -90.203752 
L -19.4112 -136.295703 
z
" clip-path="url(#pa7007f73f3)" style="fill: #a2fff0"/>
   </g>
   <g id="patch_26">
    <path d="M -46.0224 -90.203752 
L -19.4112 -136.295703 
L -72.6336 -136.295703 
z
" clip-path="url(#pa7007f73f3)" style="fill: #ffe0b1"/>
   </g>
   <g id="patch_27">
    <path d="M -46.0224 -90.203752 
L -72.6336 -136.295703 
L -99.2448 -90.203752 
z
" clip-path="url(#pa7007f73f3)" style="fill: #eafff0"/>
   </g>
   <g id="patch_28">
    <path d="M -46.0224 -90.203752 
L -99.2448 -90.203752 
L -72.6336 -44.111802 
z
" clip-path="url(#pa7007f73f3)" style="fill: #ecc2b3"/>
   </g>
   <g id="patch_29">
    <path clip-path="url(#pa7007f73f3)" style="fill: none; stroke: #000000; stroke-linejoin: miter"/>
   </g>
   <g id="patch_30">
    <path d="M -205.6896 278.531851 
L -232.3008 324.623802 
L -179.0784 324.623802 
z
" clip-path="url(#pa7007f73f3)" style="fill: #fbd2ff"/>
   </g>
   <g id="patch_31">
    <path d="M -205.6896 278.531851 
L -179.0784 324.623802 
L -152.4672 278.531851 
z
" clip-path="url(#pa7007f73f3)" style="fill: #b3b3ff"/>
   </g>
   <g id="patch_32">
    <path d="M -205.6896 278.531851 
L -152.4672 278.531851 
L -179.0784 232.439901 
z
" clip-path="url(#pa7007f73f3)" style="fill: #a2fff0"/>
   </g>
   <g id="patch_33">
    <path d="M -205.6896 278.531851 
L -179.0784 232.439901 
L -232.3008 232.439901 
z
" clip-path="url(#pa7007f73f3)" style="fill: #ffe0b1"/>
   </g>
   <g id="patch_34">
    <path d="M -205.6896 278.531851 
L -232.3008 232.439901 
L -258.912 278.531851 
z
" clip-path="url(#pa7007f73f3)" style="fill: #eafff0"/>
   </g>
   <g id="patch_35">
    <path d="M -205.6896 278.531851 
L -258.912 278.531851 
L -232.3008 324.623802 
z
" clip-path="url(#pa7007f73f3)" style="fill: #ecc2b3"/>
   </g>
   <g id="patch_36">
    <path clip-path="url(#pa7007f73f3)" style="fill: none; stroke: #000000; stroke-linejoin: miter"/>
   </g>
   <g id="patch_37">
    <path d="M -125.856 140.256 
L -152.4672 186.34795 
L -99.2448 186.34795 
z
" clip-path="url(#pa7007f73f3)" style="fill: #fbd2ff"/>
   </g>
   <g id="patch_38">
    <path d="M -125.856 140.256 
L -99.2448 186.34795 
L -72.6336 140.256 
z
" clip-path="url(#pa7007f73f3)" style="fill: #b3b3ff"/>
   </g>
   <g id="patch_39">
    <path d="M -125.856 140.256 
L -72.6336 140.256 
L -99.2448 94.16405 
z
" clip-path="url(#pa7007f73f3)" style="fill: #a2fff0"/>
   </g>
   <g id="patch_40">
    <path d="M -125.856 140.256 
L -99.2448 94.16405 
L -152.4672 94.16405 
z
" clip-path="url(#pa7007f73f3)" style="fill: #ffe0b1"/>
   </g>
   <g id="patch_41">
    <path d="M -125.856 140.256 
L -152.4672 94.16405 
L -179.0784 140.256 
z
" clip-path="url(#pa7007f73f3)" style="fill: #eafff0"/>
   </g>
   <g id="patch_42">
    <path d="M -125.856 140.256 
L -179.0784 140.256 
L -152.4672 186.34795 
z
" clip-path="url(#pa7007f73f3)" style="fill: #ecc2b3"/>
   </g>
   <g id="patch_43">
    <path clip-path="url(#pa7007f73f3)" style="fill: none; stroke: #000000; stroke-linejoin: miter"/>
   </g>
   <g id="patch_44">
    <path d="M -46.0224 1.980149 
L -72.6336 48.072099 
L -19.4112 48.072099 
z
" clip-path="url(#pa7007f73f3)" style="fill: #fbd2ff"/>
   </g>
   <g id="patch_45">
    <path d="M -46.0224 1.980149 
L -19.4112 48.072099 
L 7.2 1.980149 
z
" clip-path="url(#pa7007f73f3)" style="fill: #b3b3ff"/>
   </g>
   <g id="patch_46">
    <path d="M -46.0224 1.980149 
L 7.2 1.980149 
L -19.4112 -44.111802 
z
" clip-path="url(#pa7007f73f3)" style="fill: #a2fff0"/>
   </g>
   <g id="patch_47">
    <path d="M -46.0224 1.980149 
L -19.4112 -44.111802 
L -72.6336 -44.111802 
z
" clip-path="url(#pa7007f73f3)" style="fill: #ffe0b1"/>
   </g>
   <g id="patch_48">
    <path d="M -46.0224 1.980149 
L -72.6336 -44.111802 
L -99.2448 1.980149 
z
" clip-path="url(#pa7007f73f3)" style="fill: #eafff0"/>
   </g>
   <g id="patch_49">
    <path d="M -46.0224 1.980149 
L -99.2448 1.980149 
L -72.6336 48.072099 
z
" clip-path="url(#pa7007f73f3)" style="fill: #ecc2b3"/>
   </g>
   <g id="patch_50">
    <path d="M -1 16.182965 
L 7.2 1.980149 
L 5.47941 -1 
" clip-path="url(#pa7007f73f3)" style="fill: none; stroke: #000000; stroke-linejoin: miter"/>
   </g>
   <g id="patch_51">
    <path d="M -125.856 232.439901 
L -152.4672 278.531851 
L -99.2448 278.531851 
z
" clip-path="url(#pa7007f73f3)" style="fill: #fbd2ff"/>
   </g>
   <g id="patch_52">
    <path d="M -125.856 232.439901 
L -99.2448 278.531851 
L -72.6336 232.439901 
z
" clip-path="url(#pa7007f73f3)" style="fill: #b3b3ff"/>
   </g>
   <g id="patch_53">
    <path d="M -125.856 232.439901 
L -72.6336 232.439901 
L -99.2448 186.34795 
z
" clip-path="url(#pa7007f73f3)" style="fill: #a2fff0"/>
   </g>
   <g id="patch_54">
    <path d="M -125.856 232.439901 
L -99.2448 186.34795 
L -152.4672 186.34795 
z
" clip-path="url(#pa7007f73f3)" style="fill: #ffe0b1"/>
   </g>
   <g id="patch_55">
    <path d="M -125.856 232.439901 
L -152.4672 186.34795 
L -179.0784 232.439901 
z
" clip-path="url(#pa7007f73f3)" style="fill: #eafff0"/>
   </g>
   <g id="patch_56">
    <path d="M -125.856 232.439901 
L -179.0784 232.439901 
L -152.4672 278.531851 
z
" clip-path="url(#pa7007f73f3)" style="fill: #ecc2b3"/>
   </g>
   <g id="patch_57">
    <path clip-path="url(#pa7007f73f3)" style="fill: none; stroke: #000000; stroke-linejoin: miter"/>
   </g>
   <g id="patch_58">
    <path d="M -46.0224 94.16405 
L -72.6336 140.256 
L -19.4112 140.256 
z
" clip-path="url(#pa7007f73f3)" style="fill: #fbd2ff"/>
   </g>
   <g id="patch_59">
    <path d="M -46.0224 94.16405 
L -19.4112 140.256 
L 7.2 94.16405 
z
" clip-path="url(#pa7007f73f3)" style="fill: #b3b3ff"/>
   </g>
   <g id="patch_60">
    <path d="M -46.0224 94.16405 
L 7.2 94.16405 
L -19.4112 48.072099 
z
" clip-path="url(#pa7007f73f3)" style="fill: #a2fff0"/>
   </g>
   <g id="patch_61">
    <path d="M -46.0224 94.16405 
L -19.4112 48.072099 
L -72.6336 48.072099 
z
" clip-path="url(#pa7007f73f3)" style="fill: #ffe0b1"/>
   </g>
   <g id="patch_62">
    <path d="M -46.0224 94.16405 
L -72.6336 48.072099 
L -99.2448 94.16405 
z
" clip-path="url(#pa7007f73f3)" style="fill: #eafff0"/>
   </g>
   <g id="patch_63">
    <path d="M -46.0224 94.16405 
L -99.2448 94.16405 
L -72.6336 140.256 
z
" clip-path="url(#pa7007f73f3)" style="fill: #ecc2b3"/>
   </g>
   <g id="patch_64">
    <path d="M -1 108.366866 
L 7.2 94.16405 
L -1 79.961233 
" clip-path="url(#pa7007f73f3)" style="fill: none; stroke: #000000; stroke-linejoin: miter"/>
   </g>
   <g id="patch_65">
    <path d="M 33.8112 -44.111802 
L 7.2 1.980149 
L 60.4224 1.980149 
z
" clip-path="url(#pa7007f73f3)" style="fill: #fbd2ff"/>
   </g>
   <g id="patch_66">
    <path d="M 33.8112 -44.111802 
L 60.4224 1.980149 
L 87.0336 -44.111802 
z
" clip-path="url(#pa7007f73f3)" style="fill: #b3b3ff"/>
   </g>
   <g id="patch_67">
    <path d="M 33.8112 -44.111802 
L 87.0336 -44.111802 
L 60.4224 -90.203752 
z
" clip-path="url(#pa7007f73f3)" style="fill: #a2fff0"/>
   </g>
   <g id="patch_68">
    <path d="M 33.8112 -44.111802 
L 60.4224 -90.203752 
L 7.2 -90.203752 
z
" clip-path="url(#pa7007f73f3)" style="fill: #ffe0b1"/>
   </g>
   <g id="patch_69">
    <path d="M 33.8112 -44.111802 
L 7.2 -90.203752 
L -19.4112 -44.111802 
z
" clip-path="url(#pa7007f73f3)" style="fill: #eafff0"/>
   </g>
   <g id="patch_70">
    <path d="M 33.8112 -44.111802 
L -19.4112 -44.111802 
L 7.2 1.980149 
z
" clip-path="url(#pa7007f73f3)" style="fill: #ecc2b3"/>
   </g>
   <g id="patch_71">
    <path d="M 7.2 1.980149 
L 60.4224 1.980149 
L 62.14299 -1 
M 5.47941 -1 
L 7.2 1.980149 
" clip-path="url(#pa7007f73f3)" style="fill: none; stroke: #000000; stroke-linejoin: miter"/>
   </g>
   <g id="patch_72">
    <path d="M -125.856 324.623802 
L -152.4672 370.715752 
L -99.2448 370.715752 
z
" clip-path="url(#pa7007f73f3)" style="fill: #fbd2ff"/>
   </g>
   <g id="patch_73">
    <path d="M -125.856 324.623802 
L -99.2448 370.715752 
L -72.6336 324.623802 
z
" clip-path="url(#pa7007f73f3)" style="fill: #b3b3ff"/>
   </g>
   <g id="patch_74">
    <path d="M -125.856 324.623802 
L -72.6336 324.623802 
L -99.2448 278.531851 
z
" clip-path="url(#pa7007f73f3)" style="fill: #a2fff0"/>
   </g>
   <g id="patch_75">
    <path d="M -125.856 324.623802 
L -99.2448 278.531851 
L -152.4672 278.531851 
z
" clip-path="url(#pa7007f73f3)" style="fill: #ffe0b1"/>
   </g>
   <g id="patch_76">
    <path d="M -125.856 324.623802 
L -152.4672 278.531851 
L -179.0784 324.623802 
z
" clip-path="url(#pa7007f73f3)" style="fill: #eafff0"/>
   </g>
   <g id="patch_77">
    <path d="M -125.856 324.623802 
L -179.0784 324.623802 
L -152.4672 370.715752 
z
" clip-path="url(#pa7007f73f3)" style="fill: #ecc2b3"/>
   </g>
   <g id="patch_78">
    <path clip-path="url(#pa7007f73f3)" style="fill: none; stroke: #000000; stroke-linejoin: miter"/>
   </g>
   <g id="patch_79">
    <path d="M -46.0224 186.34795 
L -72.6336 232.439901 
L -19.4112 232.439901 
z
" clip-path="url(#pa7007f73f3)" style="fill: #fbd2ff"/>
   </g>
   <g id="patch_80">
    <path d="M -46.0224 186.34795 
L -19.4112 232.439901 
L 7.2 186.34795 
z
" clip-path="url(#pa7007f73f3)" style="fill: #b3b3ff"/>
   </g>
   <g id="patch_81">
    <path d="M -46.0224 186.34795 
L 7.2 186.34795 
L -19.4112 140.256 
z
" clip-path="url(#pa7007f73f3)" style="fill: #a2fff0"/>
   </g>
   <g id="patch_82">
    <path d="M -46.0224 186.34795 
L -19.4112 140.256 
L -72.6336 140.256 
z
" clip-path="url(#pa7007f73f3)" style="fill: #ffe0b1"/>
   </g>
   <g id="patch_83">
    <path d="M -46.0224 186.34795 
L -72.6336 140.256 
L -99.2448 186.34795 
z
" clip-path="url(#pa7007f73f3)" style="fill: #eafff0"/>
   </g>
   <g id="patch_84">
    <path d="M -46.0224 186.34795 
L -99.2448 186.34795 
L -72.6336 232.439901 
z
" clip-path="url(#pa7007f73f3)" style="fill: #ecc2b3"/>
   </g>
   <g id="patch_85">
    <path d="M -1 200.550767 
L 7.2 186.34795 
L -1 172.145134 
" clip-path="url(#pa7007f73f3)" style="fill: none; stroke: #000000; stroke-linejoin: miter"/>
   </g>
   <g id="patch_86">
    <path d="M 33.8112 48.072099 
L 7.2 94.16405 
L 60.4224 94.16405 
z
" clip-path="url(#pa7007f73f3)" style="fill: #fbd2ff"/>
   </g>
   <g id="patch_87">
    <path d="M 33.8112 48.072099 
L 60.4224 94.16405 
L 87.0336 48.072099 
z
" clip-path="url(#pa7007f73f3)" style="fill: #b3b3ff"/>
   </g>
   <g id="patch_88">
    <path d="M 33.8112 48.072099 
L 87.0336 48.072099 
L 60.4224 1.980149 
z
" clip-path="url(#pa7007f73f3)" style="fill: #a2fff0"/>
   </g>
   <g id="patch_89">
    <path d="M 33.8112 48.072099 
L 60.4224 1.980149 
L 7.2 1.980149 
z
" clip-path="url(#pa7007f73f3)" style="fill: #ffe0b1"/>
   </g>
   <g id="patch_90">
    <path d="M 33.8112 48.072099 
L 7.2 1.980149 
L -19.4112 48.072099 
z
" clip-path="url(#pa7007f73f3)" style="fill: #eafff0"/>
   </g>
   <g id="patch_91">
    <path d="M 33.8112 48.072099 
L -19.4112 48.072099 
L 7.2 94.16405 
z
" clip-path="url(#pa7007f73f3)" style="fill: #ecc2b3"/>
   </g>
   <g id="patch_92">
    <path d="M 7.2 94.16405 
L 60.4224 94.16405 
L 87.0336 48.072099 
L 60.4224 1.980149 
L 7.2 1.980149 
L -1 16.182965 
M -1 79.961233 
L 7.2 94.16405 
" clip-path="url(#pa7007f73f3)" style="fill: none; stroke: #000000; stroke-linejoin: miter"/>
   </g>
   <g id="patch_93">
    <path d="M 113.6448 -90.203752 
L 87.0336 -44.111802 
L 140.256 -44.111802 
z
" clip-path="url(#pa7007f73f3)" style="fill: #fbd2ff"/>
   </g>
   <g id="patch_94">
    <path d="M 113.6448 -90.203752 
L 140.256 -44.111802 
L 166.8672 -90.203752 
z
" clip-path="url(#pa7007f73f3)" style="fill: #b3b3ff"/>
   </g>
   <g id="patch_95">
    <path d="M 113.6448 -90.203752 
L 166.8672 -90.203752 
L 140.256 -136.295703 
z
" clip-path="url(#pa7007f73f3)" style="fill: #a2fff0"/>
   </g>
   <g id="patch_96">
    <path d="M 113.6448 -90.203752 
L 140.256 -136.295703 
L 87.0336 -136.295703 
z
" clip-path="url(#pa7007f73f3)" style="fill: #ffe0b1"/>
   </g>
   <g id="patch_97">
    <path d="M 113.6448 -90.203752 
L 87.0336 -136.295703 
L 60.4224 -90.203752 
z
" clip-path="url(#pa7007f73f3)" style="fill: #eafff0"/>
   </g>
   <g id="patch_98">
    <path d="M 113.6448 -90.203752 
L 60.4224 -90.203752 
L 87.0336 -44.111802 
z
" clip-path="url(#pa7007f73f3)" style="fill: #ecc2b3"/>
   </g>
   <g id="patch_99">
    <path clip-path="url(#pa7007f73f3)" style="fill: none; stroke: #000000; stroke-linejoin: miter"/>
   </g>
   <g id="patch_100">
    <path d="M -46.0224 278.531851 
L -72.6336 324.623802 
L -19.4112 324.623802 
z
" clip-path="url(#pa7007f73f3)" style="fill: #fbd2ff"/>
   </g>
   <g id="patch_101">
    <path d="M -46.0224 278.531851 
L -19.4112 324.623802 
L 7.2 278.531851 
z
" clip-path="url(#pa7007f73f3)" style="fill: #b3b3ff"/>
   </g>
   <g id="patch_102">
    <path d="M -46.0224 278.531851 
L 7.2 278.531851 
L -19.4112 232.439901 
z
" clip-path="url(#pa7007f73f3)" style="fill: #a2fff0"/>
   </g>
   <g id="patch_103">
    <path d="M -46.0224 278.531851 
L -19.4112 232.439901 
L -72.6336 232.439901 
z
" clip-path="url(#pa7007f73f3)" style="fill: #ffe0b1"/>
   </g>
   <g id="patch_104">
    <path d="M -46.0224 278.531851 
L -72.6336 232.439901 
L -99.2448 278.531851 
z
" clip-path="url(#pa7007f73f3)" style="fill: #eafff0"/>
   </g>
   <g id="patch_105">
    <path d="M -46.0224 278.531851 
L -99.2448 278.531851 
L -72.6336 324.623802 
z
" clip-path="url(#pa7007f73f3)" style="fill: #ecc2b3"/>
   </g>
   <g id="patch_106">
    <path d="M 5.47941 281.512 
L 7.2 278.531851 
L -1 264.329035 
" clip-path="url(#pa7007f73f3)" style="fill: none; stroke: #000000; stroke-linejoin: miter"/>
   </g>
   <g id="patch_107">
    <path d="M 33.8112 140.256 
L 7.2 186.34795 
L 60.4224 186.34795 
z
" clip-path="url(#pa7007f73f3)" style="fill: #fbd2ff"/>
   </g>
   <g id="patch_108">
    <path d="M 33.8112 140.256 
L 60.4224 186.34795 
L 87.0336 140.256 
z
" clip-path="url(#pa7007f73f3)" style="fill: #b3b3ff"/>
   </g>
   <g id="patch_109">
    <path d="M 33.8112 140.256 
L 87.0336 140.256 
L 60.4224 94.16405 
z
" clip-path="url(#pa7007f73f3)" style="fill: #a2fff0"/>
   </g>
   <g id="patch_110">
    <path d="M 33.8112 140.256 
L 60.4224 94.16405 
L 7.2 94.16405 
z
" clip-path="url(#pa7007f73f3)" style="fill: #ffe0b1"/>
   </g>
   <g id="patch_111">
    <path d="M 33.8112 140.256 
L 7.2 94.16405 
L -19.4112 140.256 
z
" clip-path="url(#pa7007f73f3)" style="fill: #eafff0"/>
   </g>
   <g id="patch_112">
    <path d="M 33.8112 140.256 
L -19.4112 140.256 
L 7.2 186.34795 
z
" clip-path="url(#pa7007f73f3)" style="fill: #ecc2b3"/>
   </g>
   <g id="patch_113">
    <path d="M 7.2 186.34795 
L 60.4224 186.34795 
L 87.0336 140.256 
L 60.4224 94.16405 
L 7.2 94.16405 
L -1 108.366866 
M -1 172.145134 
L 7.2 186.34795 
" clip-path="url(#pa7007f73f3)" style="fill: none; stroke: #000000; stroke-linejoin: miter"/>
   </g>
   <g id="patch_114">
    <path d="M 113.6448 1.980149 
L 87.0336 48.072099 
L 140.256 48.072099 
z
" clip-path="url(#pa7007f73f3)" style="fill: #fbd2ff"/>
   </g>
   <g id="patch_115">
    <path d="M 113.6448 1.980149 
L 140.256 48.072099 
L 166.8672 1.980149 
z
" clip-path="url(#pa7007f73f3)" style="fill: #b3b3ff"/>
   </g>
   <g id="patch_116">
    <path d="M 113.6448 1.980149 
L 166.8672 1.980149 
L 140.256 -44.111802 
z
" clip-path="url(#pa7007f73f3)" style="fill: #a2fff0"/>
   </g>
   <g id="patch_117">
    <path d="M 113.6448 1.980149 
L 140.256 -44.111802 
L 87.0336 -44.111802 
z
" clip-path="url(#pa7007f73f3)" style="fill: #ffe0b1"/>
   </g>
   <g id="patch_118">
    <path d="M 113.6448 1.980149 
L 87.0336 -44.111802 
L 60.4224 1.980149 
z
" clip-path="url(#pa7007f73f3)" style="fill: #eafff0"/>
   </g>
   <g id="patch_119">
    <path d="M 113.6448 1.980149 
L 60.4224 1.980149 
L 87.0336 48.072099 
z
" clip-path="url(#pa7007f73f3)" style="fill: #ecc2b3"/>
   </g>
   <g id="patch_120">
    <path d="M 87.0336 48.072099 
L 140.256 48.072099 
L 166.8672 1.980149 
L 165.14661 -1 
M 62.14299 -1 
L 60.4224 1.980149 
L 87.0336 48.072099 
" clip-path="url(#pa7007f73f3)" style="fill: none; stroke: #000000; stroke-linejoin: miter"/>
   </g>
   <g id="patch_121">
    <path d="M 33.8112 232.439901 
L 7.2 278.531851 
L 60.4224 278.531851 
z
" clip-path="url(#pa7007f73f3)" style="fill: #fbd2ff"/>
   </g>
   <g id="patch_122">
    <path d="M 33.8112 232.439901 
L 60.4224 278.531851 
L 87.0336 232.439901 
z
" clip-path="url(#pa7007f73f3)" style="fill: #b3b3ff"/>
   </g>
   <g id="patch_123">
    <path d="M 33.8112 232.439901 
L 87.0336 232.439901 
L 60.4224 186.34795 
z
" clip-path="url(#pa7007f73f3)" style="fill: #a2fff0"/>
   </g>
   <g id="patch_124">
    <path d="M 33.8112 232.439901 
L 60.4224 186.34795 
L 7.2 186.34795 
z
" clip-path="url(#pa7007f73f3)" style="fill: #ffe0b1"/>
   </g>
   <g id="patch_125">
    <path d="M 33.8112 232.439901 
L 7.2 186.34795 
L -19.4112 232.439901 
z
" clip-path="url(#pa7007f73f3)" style="fill: #eafff0"/>
   </g>
   <g id="patch_126">
    <path d="M 33.8112 232.439901 
L -19.4112 232.439901 
L 7.2 278.531851 
z
" clip-path="url(#pa7007f73f3)" style="fill: #ecc2b3"/>
   </g>
   <g id="patch_127">
    <path d="M 7.2 278.531851 
L 60.4224 278.531851 
L 87.0336 232.439901 
L 60.4224 186.34795 
L 7.2 186.34795 
L -1 200.550767 
M -1 264.329035 
L 7.2 278.531851 
" clip-path="url(#pa7007f73f3)" style="fill: none; stroke: #000000; stroke-linejoin: miter"/>
   </g>
   <g id="patch_128">
    <path d="M 113.6448 94.16405 
L 87.0336 140.256 
L 140.256 140.256 
z
" clip-path="url(#pa7007f73f3)" style="fill: #fbd2ff"/>
   </g>
   <g id="patch_129">
    <path d="M 113.6448 94.16405 
L 140.256 140.256 
L 166.8672 94.16405 
z
" clip-path="url(#pa7007f73f3)" style="fill: #b3b3ff"/>
   </g>
   <g id="patch_130">
    <path d="M 113.6448 94.16405 
L 166.8672 94.16405 
L 140.256 48.072099 
z
" clip-path="url(#pa7007f73f3)" style="fill: #a2fff0"/>
   </g>
   <g id="patch_131">
    <path d="M 113.6448 94.16405 
L 140.256 48.072099 
L 87.0336 48.072099 
z
" clip-path="url(#pa7007f73f3)" style="fill: #ffe0b1"/>
   </g>
   <g id="patch_132">
    <path d="M 113.6448 94.16405 
L 87.0336 48.072099 
L 60.4224 94.16405 
z
" clip-path="url(#pa7007f73f3)" style="fill: #eafff0"/>
   </g>
   <g id="patch_133">
    <path d="M 113.6448 94.16405 
L 60.4224 94.16405 
L 87.0336 140.256 
z
" clip-path="url(#pa7007f73f3)" style="fill: #ecc2b3"/>
   </g>
   <g id="patch_134">
    <path d="M 87.0336 140.256 
L 140.256 140.256 
L 166.8672 94.16405 
L 140.256 48.072099 
L 87.0336 48.072099 
L 60.4224 94.16405 
L 87.0336 140.256 
z
" clip-path="url(#pa7007f73f3)" style="fill: none; stroke: #000000; stroke-linejoin: miter"/>
   </g>
   <g id="patch_135">
    <path d="M 193.4784 -44.111802 
L 166.8672 1.980149 
L 220.0896 1.980149 
z
" clip-path="url(#pa7007f73f3)" style="fill: #fbd2ff"/>
   </g>
   <g id="patch_136">
    <path d="M 193.4784 -44.111802 
L 220.0896 1.980149 
L 246.7008 -44.111802 
z
" clip-path="url(#pa7007f73f3)" style="fill: #b3b3ff"/>
   </g>
   <g id="patch_137">
    <path d="M 193.4784 -44.111802 
L 246.7008 -44.111802 
L 220.0896 -90.203752 
z
" clip-path="url(#pa7007f73f3)" style="fill: #a2fff0"/>
   </g>
   <g id="patch_138">
    <path d="M 193.4784 -44.111802 
L 220.0896 -90.203752 
L 166.8672 -90.203752 
z
" clip-path="url(#pa7007f73f3)" style="fill: #ffe0b1"/>
   </g>
   <g id="patch_139">
    <path d="M 193.4784 -44.111802 
L 166.8672 -90.203752 
L 140.256 -44.111802 
z
" clip-path="url(#pa7007f73f3)" style="fill: #eafff0"/>
   </g>
   <g id="patch_140">
    <path d="M 193.4784 -44.111802 
L 140.256 -44.111802 
L 166.8672 1.980149 
z
" clip-path="url(#pa7007f73f3)" style="fill: #ecc2b3"/>
   </g>
   <g id="patch_141">
    <path d="M 166.8672 1.980149 
L 220.0896 1.980149 
L 221.81019 -1 
M 165.14661 -1 
L 166.8672 1.980149 
" clip-path="url(#pa7007f73f3)" style="fill: none; stroke: #000000; stroke-linejoin: miter"/>
   </g>
   <g id="patch_142">
    <path d="M 33.8112 324.623802 
L 7.2 370.715752 
L 60.4224 370.715752 
z
" clip-path="url(#pa7007f73f3)" style="fill: #fbd2ff"/>
   </g>
   <g id="patch_143">
    <path d="M 33.8112 324.623802 
L 60.4224 370.715752 
L 87.0336 324.623802 
z
" clip-path="url(#pa7007f73f3)" style="fill: #b3b3ff"/>
   </g>
   <g id="patch_144">
    <path d="M 33.8112 324.623802 
L 87.0336 324.623802 
L 60.4224 278.531851 
z
" clip-path="url(#pa7007f73f3)" style="fill: #a2fff0"/>
   </g>
   <g id="patch_145">
    <path d="M 33.8112 324.623802 
L 60.4224 278.531851 
L 7.2 278.531851 
z
" clip-path="url(#pa7007f73f3)" style="fill: #ffe0b1"/>
   </g>
   <g id="patch_146">
    <path d="M 33.8112 324.623802 
L 7.2 278.531851 
L -19.4112 324.623802 
z
" clip-path="url(#pa7007f73f3)" style="fill: #eafff0"/>
   </g>
   <g id="patch_147">
    <path d="M 33.8112 324.623802 
L -19.4112 324.623802 
L 7.2 370.715752 
z
" clip-path="url(#pa7007f73f3)" style="fill: #ecc2b3"/>
   </g>
   <g id="patch_148">
    <path d="M 62.14299 281.512 
L 60.4224 278.531851 
L 7.2 278.531851 
L 5.47941 281.512 
" clip-path="url(#pa7007f73f3)" style="fill: none; stroke: #000000; stroke-linejoin: miter"/>
   </g>
   <g id="patch_149">
    <path d="M 113.6448 186.34795 
L 87.0336 232.439901 
L 140.256 232.439901 
z
" clip-path="url(#pa7007f73f3)" style="fill: #fbd2ff"/>
   </g>
   <g id="patch_150">
    <path d="M 113.6448 186.34795 
L 140.256 232.439901 
L 166.8672 186.34795 
z
" clip-path="url(#pa7007f73f3)" style="fill: #b3b3ff"/>
   </g>
   <g id="patch_151">
    <path d="M 113.6448 186.34795 
L 166.8672 186.34795 
L 140.256 140.256 
z
" clip-path="url(#pa7007f73f3)" style="fill: #a2fff0"/>
   </g>
   <g id="patch_152">
    <path d="M 113.6448 186.34795 
L 140.256 140.256 
L 87.0336 140.256 
z
" clip-path="url(#pa7007f73f3)" style="fill: #ffe0b1"/>
   </g>
   <g id="patch_153">
    <path d="M 113.6448 186.34795 
L 87.0336 140.256 
L 60.4224 186.34795 
z
" clip-path="url(#pa7007f73f3)" style="fill: #eafff0"/>
   </g>
   <g id="patch_154">
    <path d="M 113.6448 186.34795 
L 60.4224 186.34795 
L 87.0336 232.439901 
z
" clip-path="url(#pa7007f73f3)" style="fill: #ecc2b3"/>
   </g>
   <g id="patch_155">
    <path d="M 87.0336 232.439901 
L 140.256 232.439901 
L 166.8672 186.34795 
L 140.256 140.256 
L 87.0336 140.256 
L 60.4224 186.34795 
L 87.0336 232.439901 
z
" clip-path="url(#pa7007f73f3)" style="fill: none; stroke: #000000; stroke-linejoin: miter"/>
   </g>
   <g id="patch_156">
    <path d="M 193.4784 48.072099 
L 166.8672 94.16405 
L 220.0896 94.16405 
z
" clip-path="url(#pa7007f73f3)" style="fill: #fbd2ff"/>
   </g>
   <g id="patch_157">
    <path d="M 193.4784 48.072099 
L 220.0896 94.16405 
L 246.7008 48.072099 
z
" clip-path="url(#pa7007f73f3)" style="fill: #b3b3ff"/>
   </g>
   <g id="patch_158">
    <path d="M 193.4784 48.072099 
L 246.7008 48.072099 
L 220.0896 1.980149 
z
" clip-path="url(#pa7007f73f3)" style="fill: #a2fff0"/>
   </g>
   <g id="patch_159">
    <path d="M 193.4784 48.072099 
L 220.0896 1.980149 
L 166.8672 1.980149 
z
" clip-path="url(#pa7007f73f3)" style="fill: #ffe0b1"/>
   </g>
   <g id="patch_160">
    <path d="M 193.4784 48.072099 
L 166.8672 1.980149 
L 140.256 48.072099 
z
" clip-path="url(#pa7007f73f3)" style="fill: #eafff0"/>
   </g>
   <g id="patch_161">
    <path d="M 193.4784 48.072099 
L 140.256 48.072099 
L 166.8672 94.16405 
z
" clip-path="url(#pa7007f73f3)" style="fill: #ecc2b3"/>
   </g>
   <g id="patch_162">
    <path d="M 166.8672 94.16405 
L 220.0896 94.16405 
L 246.7008 48.072099 
L 220.0896 1.980149 
L 166.8672 1.980149 
L 140.256 48.072099 
L 166.8672 94.16405 
z
" clip-path="url(#pa7007f73f3)" style="fill: none; stroke: #000000; stroke-linejoin: miter"/>
   </g>
   <g id="patch_163">
    <path d="M 273.312 -90.203752 
L 246.7008 -44.111802 
L 299.9232 -44.111802 
z
" clip-path="url(#pa7007f73f3)" style="fill: #fbd2ff"/>
   </g>
   <g id="patch_164">
    <path d="M 273.312 -90.203752 
L 299.9232 -44.111802 
L 326.5344 -90.203752 
z
" clip-path="url(#pa7007f73f3)" style="fill: #b3b3ff"/>
   </g>
   <g id="patch_165">
    <path d="M 273.312 -90.203752 
L 326.5344 -90.203752 
L 299.9232 -136.295703 
z
" clip-path="url(#pa7007f73f3)" style="fill: #a2fff0"/>
   </g>
   <g id="patch_166">
    <path d="M 273.312 -90.203752 
L 299.9232 -136.295703 
L 246.7008 -136.295703 
z
" clip-path="url(#pa7007f73f3)" style="fill: #ffe0b1"/>
   </g>
   <g id="patch_167">
    <path d="M 273.312 -90.203752 
L 246.7008 -136.295703 
L 220.0896 -90.203752 
z
" clip-path="url(#pa7007f73f3)" style="fill: #eafff0"/>
   </g>
   <g id="patch_168">
    <path d="M 273.312 -90.203752 
L 220.0896 -90.203752 
L 246.7008 -44.111802 
z
" clip-path="url(#pa7007f73f3)" style="fill: #ecc2b3"/>
   </g>
   <g id="patch_169">
    <path clip-path="url(#pa7007f73f3)" style="fill: none; stroke: #000000; stroke-linejoin: miter"/>
   </g>
   <g id="patch_170">
    <path d="M 113.6448 278.531851 
L 87.0336 324.623802 
L 140.256 324.623802 
z
" clip-path="url(#pa7007f73f3)" style="fill: #fbd2ff"/>
   </g>
   <g id="patch_171">
    <path d="M 113.6448 278.531851 
L 140.256 324.623802 
L 166.8672 278.531851 
z
" clip-path="url(#pa7007f73f3)" style="fill: #b3b3ff"/>
   </g>
   <g id="patch_172">
    <path d="M 113.6448 278.531851 
L 166.8672 278.531851 
L 140.256 232.439901 
z
" clip-path="url(#pa7007f73f3)" style="fill: #a2fff0"/>
   </g>
   <g id="patch_173">
    <path d="M 113.6448 278.531851 
L 140.256 232.439901 
L 87.0336 232.439901 
z
" clip-path="url(#pa7007f73f3)" style="fill: #ffe0b1"/>
   </g>
   <g id="patch_174">
    <path d="M 113.6448 278.531851 
L 87.0336 232.439901 
L 60.4224 278.531851 
z
" clip-path="url(#pa7007f73f3)" style="fill: #eafff0"/>
   </g>
   <g id="patch_175">
    <path d="M 113.6448 278.531851 
L 60.4224 278.531851 
L 87.0336 324.623802 
z
" clip-path="url(#pa7007f73f3)" style="fill: #ecc2b3"/>
   </g>
   <g id="patch_176">
    <path d="M 165.14661 281.512 
L 166.8672 278.531851 
L 140.256 232.439901 
L 87.0336 232.439901 
L 60.4224 278.531851 
L 62.14299 281.512 
" clip-path="url(#pa7007f73f3)" style="fill: none; stroke: #000000; stroke-linejoin: miter"/>
   </g>
   <g id="patch_177">
    <path d="M 193.4784 140.256 
L 166.8672 186.34795 
L 220.0896 186.34795 
z
" clip-path="url(#pa7007f73f3)" style="fill: #fbd2ff"/>
   </g>
   <g id="patch_178">
    <path d="M 193.4784 140.256 
L 220.0896 186.34795 
L 246.7008 140.256 
z
" clip-path="url(#pa7007f73f3)" style="fill: #b3b3ff"/>
   </g>
   <g id="patch_179">
    <path d="M 193.4784 140.256 
L 246.7008 140.256 
L 220.0896 94.16405 
z
" clip-path="url(#pa7007f73f3)" style="fill: #a2fff0"/>
   </g>
   <g id="patch_180">
    <path d="M 193.4784 140.256 
L 220.0896 94.16405 
L 166.8672 94.16405 
z
" clip-path="url(#pa7007f73f3)" style="fill: #ffe0b1"/>
   </g>
   <g id="patch_181">
    <path d="M 193.4784 140.256 
L 166.8672 94.16405 
L 140.256 140.256 
z
" clip-path="url(#pa7007f73f3)" style="fill: #eafff0"/>
   </g>
   <g id="patch_182">
    <path d="M 193.4784 140.256 
L 140.256 140.256 
L 166.8672 186.34795 
z
" clip-path="url(#pa7007f73f3)" style="fill: #ecc2b3"/>
   </g>
   <g id="patch_183">
    <path d="M 166.8672 186.34795 
L 220.0896 186.34795 
L 246.7008 140.256 
L 220.0896 94.16405 
L 166.8672 94.16405 
L 140.256 140.256 
L 166.8672 186.34795 
z
" clip-path="url(#pa7007f73f3)" style="fill: none; stroke: #000000; stroke-linejoin: miter"/>
   </g>
   <g id="patch_184">
    <path d="M 273.312 1.980149 
L 246.7008 48.072099 
L 299.9232 48.072099 
z
" clip-path="url(#pa7007f73f3)" style="fill: #fbd2ff"/>
   </g>
   <g id="patch_185">
    <path d="M 273.312 1.980149 
L 299.9232 48.072099 
L 326.5344 1.980149 
z
" clip-path="url(#pa7007f73f3)" style="fill: #b3b3ff"/>
   </g>
   <g id="patch_186">
    <path d="M 273.312 1.980149 
L 326.5344 1.980149 
L 299.9232 -44.111802 
z
" clip-path="url(#pa7007f73f3)" style="fill: #a2fff0"/>
   </g>
   <g id="patch_187">
    <path d="M 273.312 1.980149 
L 299.9232 -44.111802 
L 246.7008 -44.111802 
z
" clip-path="url(#pa7007f73f3)" style="fill: #ffe0b1"/>
   </g>
   <g id="patch_188">
    <path d="M 273.312 1.980149 
L 246.7008 -44.111802 
L 220.0896 1.980149 
z
" clip-path="url(#pa7007f73f3)" style="fill: #eafff0"/>
   </g>
   <g id="patch_189">
    <path d="M 273.312 1.980149 
L 220.0896 1.980149 
L 246.7008 48.072099 
z
" clip-path="url(#pa7007f73f3)" style="fill: #ecc2b3"/>
   </g>
   <g id="patch_190">
    <path d="M 246.7008 48.072099 
L 281.512 48.072099 
M 221.81019 -1 
L 220.0896 1.980149 
L 246.7008 48.072099 
" clip-path="url(#pa7007f73f3)" style="fill: none; stroke: #000000; stroke-linejoin: miter"/>
   </g>
   <g id="patch_191">
    <path d="M 193.4784 232.439901 
L 166.8672 278.531851 
L 220.0896 278.531851 
z
" clip-path="url(#pa7007f73f3)" style="fill: #fbd2ff"/>
   </g>
   <g id="patch_192">
    <path d="M 193.4784 232.439901 
L 220.0896 278.531851 
L 246.7008 232.439901 
z
" clip-path="url(#pa7007f73f3)" style="fill: #b3b3ff"/>
   </g>
   <g id="patch_193">
    <path d="M 193.4784 232.439901 
L 246.7008 232.439901 
L 220.0896 186.34795 
z
" clip-path="url(#pa7007f73f3)" style="fill: #a2fff0"/>
   </g>
   <g id="patch_194">
    <path d="M 193.4784 232.439901 
L 220.0896 186.34795 
L 166.8672 186.34795 
z
" clip-path="url(#pa7007f73f3)" style="fill: #ffe0b1"/>
   </g>
   <g id="patch_195">
    <path d="M 193.4784 232.439901 
L 166.8672 186.34795 
L 140.256 232.439901 
z
" clip-path="url(#pa7007f73f3)" style="fill: #eafff0"/>
   </g>
   <g id="patch_196">
    <path d="M 193.4784 232.439901 
L 140.256 232.439901 
L 166.8672 278.531851 
z
" clip-path="url(#pa7007f73f3)" style="fill: #ecc2b3"/>
   </g>
   <g id="patch_197">
    <path d="M 166.8672 278.531851 
L 220.0896 278.531851 
L 246.7008 232.439901 
L 220.0896 186.34795 
L 166.8672 186.34795 
L 140.256 232.439901 
L 166.8672 278.531851 
z
" clip-path="url(#pa7007f73f3)" style="fill: none; stroke: #000000; stroke-linejoin: miter"/>
   </g>
   <g id="patch_198">
    <path d="M 273.312 94.16405 
L 246.7008 140.256 
L 299.9232 140.256 
z
" clip-path="url(#pa7007f73f3)" style="fill: #fbd2ff"/>
   </g>
   <g id="patch_199">
    <path d="M 273.312 94.16405 
L 299.9232 140.256 
L 326.5344 94.16405 
z
" clip-path="url(#pa7007f73f3)" style="fill: #b3b3ff"/>
   </g>
   <g id="patch_200">
    <path d="M 273.312 94.16405 
L 326.5344 94.16405 
L 299.9232 48.072099 
z
" clip-path="url(#pa7007f73f3)" style="fill: #a2fff0"/>
   </g>
   <g id="patch_201">
    <path d="M 273.312 94.16405 
L 299.9232 48.072099 
L 246.7008 48.072099 
z
" clip-path="url(#pa7007f73f3)" style="fill: #ffe0b1"/>
   </g>
   <g id="patch_202">
    <path d="M 273.312 94.16405 
L 246.7008 48.072099 
L 220.0896 94.16405 
z
" clip-path="url(#pa7007f73f3)" style="fill: #eafff0"/>
   </g>
   <g id="patch_203">
    <path d="M 273.312 94.16405 
L 220.0896 94.16405 
L 246.7008 140.256 
z
" clip-path="url(#pa7007f73f3)" style="fill: #ecc2b3"/>
   </g>
   <g id="patch_204">
    <path d="M 246.7008 140.256 
L 281.512 140.256 
M 281.512 48.072099 
L 246.7008 48.072099 
L 220.0896 94.16405 
L 246.7008 140.256 
" clip-path="url(#pa7007f73f3)" style="fill: none; stroke: #000000; stroke-linejoin: miter"/>
   </g>
   <g id="patch_205">
    <path d="M 353.1456 -44.111802 
L 326.5344 1.980149 
L 379.7568 1.980149 
z
" clip-path="url(#pa7007f73f3)" style="fill: #fbd2ff"/>
   </g>
   <g id="patch_206">
    <path d="M 353.1456 -44.111802 
L 379.7568 1.980149 
L 406.368 -44.111802 
z
" clip-path="url(#pa7007f73f3)" style="fill: #b3b3ff"/>
   </g>
   <g id="patch_207">
    <path d="M 353.1456 -44.111802 
L 406.368 -44.111802 
L 379.7568 -90.203752 
z
" clip-path="url(#pa7007f73f3)" style="fill: #a2fff0"/>
   </g>
   <g id="patch_208">
    <path d="M 353.1456 -44.111802 
L 379.7568 -90.203752 
L 326.5344 -90.203752 
z
" clip-path="url(#pa7007f73f3)" style="fill: #ffe0b1"/>
   </g>
   <g id="patch_209">
    <path d="M 353.1456 -44.111802 
L 326.5344 -90.203752 
L 299.9232 -44.111802 
z
" clip-path="url(#pa7007f73f3)" style="fill: #eafff0"/>
   </g>
   <g id="patch_210">
    <path d="M 353.1456 -44.111802 
L 299.9232 -44.111802 
L 326.5344 1.980149 
z
" clip-path="url(#pa7007f73f3)" style="fill: #ecc2b3"/>
   </g>
   <g id="patch_211">
    <path clip-path="url(#pa7007f73f3)" style="fill: none; stroke: #000000; stroke-linejoin: miter"/>
   </g>
   <g id="patch_212">
    <path d="M 193.4784 324.623802 
L 166.8672 370.715752 
L 220.0896 370.715752 
z
" clip-path="url(#pa7007f73f3)" style="fill: #fbd2ff"/>
   </g>
   <g id="patch_213">
    <path d="M 193.4784 324.623802 
L 220.0896 370.715752 
L 246.7008 324.623802 
z
" clip-path="url(#pa7007f73f3)" style="fill: #b3b3ff"/>
   </g>
   <g id="patch_214">
    <path d="M 193.4784 324.623802 
L 246.7008 324.623802 
L 220.0896 278.531851 
z
" clip-path="url(#pa7007f73f3)" style="fill: #a2fff0"/>
   </g>
   <g id="patch_215">
    <path d="M 193.4784 324.623802 
L 220.0896 278.531851 
L 166.8672 278.531851 
z
" clip-path="url(#pa7007f73f3)" style="fill: #ffe0b1"/>
   </g>
   <g id="patch_216">
    <path d="M 193.4784 324.623802 
L 166.8672 278.531851 
L 140.256 324.623802 
z
" clip-path="url(#pa7007f73f3)" style="fill: #eafff0"/>
   </g>
   <g id="patch_217">
    <path d="M 193.4784 324.623802 
L 140.256 324.623802 
L 166.8672 370.715752 
z
" clip-path="url(#pa7007f73f3)" style="fill: #ecc2b3"/>
   </g>
   <g id="patch_218">
    <path d="M 221.81019 281.512 
L 220.0896 278.531851 
L 166.8672 278.531851 
L 165.14661 281.512 
" clip-path="url(#pa7007f73f3)" style="fill: none; stroke: #000000; stroke-linejoin: miter"/>
   </g>
   <g id="patch_219">
    <path d="M 273.312 186.34795 
L 246.7008 232.439901 
L 299.9232 232.439901 
z
" clip-path="url(#pa7007f73f3)" style="fill: #fbd2ff"/>
   </g>
   <g id="patch_220">
    <path d="M 273.312 186.34795 
L 299.9232 232.439901 
L 326.5344 186.34795 
z
" clip-path="url(#pa7007f73f3)" style="fill: #b3b3ff"/>
   </g>
   <g id="patch_221">
    <path d="M 273.312 186.34795 
L 326.5344 186.34795 
L 299.9232 140.256 
z
" clip-path="url(#pa7007f73f3)" style="fill: #a2fff0"/>
   </g>
   <g id="patch_222">
    <path d="M 273.312 186.34795 
L 299.9232 140.256 
L 246.7008 140.256 
z
" clip-path="url(#pa7007f73f3)" style="fill: #ffe0b1"/>
   </g>
   <g id="patch_223">
    <path d="M 273.312 186.34795 
L 246.7008 140.256 
L 220.0896 186.34795 
z
" clip-path="url(#pa7007f73f3)" style="fill: #eafff0"/>
   </g>
   <g id="patch_224">
    <path d="M 273.312 186.34795 
L 220.0896 186.34795 
L 246.7008 232.439901 
z
" clip-path="url(#pa7007f73f3)" style="fill: #ecc2b3"/>
   </g>
   <g id="patch_225">
    <path d="M 246.7008 232.439901 
L 281.512 232.439901 
M 281.512 140.256 
L 246.7008 140.256 
L 220.0896 186.34795 
L 246.7008 232.439901 
" clip-path="url(#pa7007f73f3)" style="fill: none; stroke: #000000; stroke-linejoin: miter"/>
   </g>
   <g id="patch_226">
    <path d="M 353.1456 48.072099 
L 326.5344 94.16405 
L 379.7568 94.16405 
z
" clip-path="url(#pa7007f73f3)" style="fill: #fbd2ff"/>
   </g>
   <g id="patch_227">
    <path d="M 353.1456 48.072099 
L 379.7568 94.16405 
L 406.368 48.072099 
z
" clip-path="url(#pa7007f73f3)" style="fill: #b3b3ff"/>
   </g>
   <g id="patch_228">
    <path d="M 353.1456 48.072099 
L 406.368 48.072099 
L 379.7568 1.980149 
z
" clip-path="url(#pa7007f73f3)" style="fill: #a2fff0"/>
   </g>
   <g id="patch_229">
    <path d="M 353.1456 48.072099 
L 379.7568 1.980149 
L 326.5344 1.980149 
z
" clip-path="url(#pa7007f73f3)" style="fill: #ffe0b1"/>
   </g>
   <g id="patch_230">
    <path d="M 353.1456 48.072099 
L 326.5344 1.980149 
L 299.9232 48.072099 
z
" clip-path="url(#pa7007f73f3)" style="fill: #eafff0"/>
   </g>
   <g id="patch_231">
    <path d="M 353.1456 48.072099 
L 299.9232 48.072099 
L 326.5344 94.16405 
z
" clip-path="url(#pa7007f73f3)" style="fill: #ecc2b3"/>
   </g>
   <g id="patch_232">
    <path clip-path="url(#pa7007f73f3)" style="fill: none; stroke: #000000; stroke-linejoin: miter"/>
   </g>
   <g id="patch_233">
    <path d="M 432.9792 -90.203752 
L 406.368 -44.111802 
L 459.5904 -44.111802 
z
" clip-path="url(#pa7007f73f3)" style="fill: #fbd2ff"/>
   </g>
   <g id="patch_234">
    <path d="M 432.9792 -90.203752 
L 459.5904 -44.111802 
L 486.2016 -90.203752 
z
" clip-path="url(#pa7007f73f3)" style="fill: #b3b3ff"/>
   </g>
   <g id="patch_235">
    <path d="M 432.9792 -90.203752 
L 486.2016 -90.203752 
L 459.5904 -136.295703 
z
" clip-path="url(#pa7007f73f3)" style="fill: #a2fff0"/>
   </g>
   <g id="patch_236">
    <path d="M 432.9792 -90.203752 
L 459.5904 -136.295703 
L 406.368 -136.295703 
z
" clip-path="url(#pa7007f73f3)" style="fill: #ffe0b1"/>
   </g>
   <g id="patch_237">
    <path d="M 432.9792 -90.203752 
L 406.368 -136.295703 
L 379.7568 -90.203752 
z
" clip-path="url(#pa7007f73f3)" style="fill: #eafff0"/>
   </g>
   <g id="patch_238">
    <path d="M 432.9792 -90.203752 
L 379.7568 -90.203752 
L 406.368 -44.111802 
z
" clip-path="url(#pa7007f73f3)" style="fill: #ecc2b3"/>
   </g>
   <g id="patch_239">
    <path clip-path="url(#pa7007f73f3)" style="fill: none; stroke: #000000; stroke-linejoin: miter"/>
   </g>
   <g id="patch_240">
    <path d="M 118.547776 130.865703 
Q 118.547776 137.754059 118.547776 144.642415 
L 120.047776 144.642415 
Q 118.797776 147.143313 117.547776 149.64421 
Q 116.297776 147.143313 115.047776 144.642415 
L 116.547776 144.642415 
Q 116.547776 137.754059 116.547776 130.865703 
L 118.547776 130.865703 
z
" clip-path="url(#pa7007f73f3)" style="fill: #1f77b4; stroke: #000000; stroke-linecap: round"/>
   </g>
   <g id="patch_241">
    <path d="M 125.157418 150.61773 
Q 138.806436 142.737466 152.455454 134.857201 
L 151.705454 133.558163 
Q 154.494299 133.391398 157.283145 133.224634 
Q 155.744299 135.556462 154.205454 137.88829 
L 153.455454 136.589252 
Q 139.806436 144.469516 126.157418 152.349781 
L 125.157418 150.61773 
z
" clip-path="url(#pa7007f73f3)" style="fill: #1f77b4; stroke: #000000; stroke-linecap: round"/>
   </g>
   <g id="patch_242">
    <path d="M 169.710694 110.944808 
Q 169.710694 96.664031 169.710694 82.383253 
L 168.210694 82.383253 
Q 169.460694 79.881914 170.710694 77.380576 
Q 171.960694 79.881914 173.210694 82.383253 
L 171.710694 82.383253 
Q 171.710694 96.664031 171.710694 110.944808 
L 169.710694 110.944808 
z
" clip-path="url(#pa7007f73f3)" style="fill: #1f77b4; stroke: #000000; stroke-linecap: round"/>
   </g>
   <g id="patch_243">
    <path d="M 162.903468 68.51807 
Q 156.937976 71.962248 150.972485 75.406426 
L 151.722485 76.705464 
Q 148.931644 76.873381 146.140804 77.041298 
Q 147.681644 74.708318 149.222485 72.375337 
L 149.972485 73.674375 
Q 155.937976 70.230197 161.903468 66.786019 
L 162.903468 68.51807 
z
" clip-path="url(#pa7007f73f3)" style="fill: #1f77b4; stroke: #000000; stroke-linecap: round"/>
   </g>
   <g id="line2d_1">
    <path d="M 109.387008 126.9504 
L 109.387008 118.434816 
L 117.902592 118.434816 
" clip-path="url(#pa7007f73f3)" style="fill: none; stroke: #ff0000; stroke-linecap: square"/>
   </g>
   <g id="line2d_2">
    <path d="M 109.387008 153.5616 
L 109.387008 162.077184 
L 117.902592 162.077184 
" clip-path="url(#pa7007f73f3)" style="fill: none; stroke: #008000; stroke-linecap: square"/>
   </g>
   <g id="line2d_3">
    <path d="M 167.213484 120.175469 
L 174.588196 124.433261 
L 170.330404 131.807973 
" clip-path="url(#pa7007f73f3)" style="fill: none; stroke: #bfbf00; stroke-linecap: square"/>
   </g>
   <g id="line2d_4">
    <path d="M 167.213484 68.15263 
L 174.588196 63.894838 
L 170.330404 56.520126 
" clip-path="url(#pa7007f73f3)" style="fill: none; stroke: #0000ff; stroke-linecap: square"/>
   </g>
   <g id="line2d_5">
    <path d="M 144.167508 81.45823 
L 136.792796 85.716022 
L 132.535004 78.34131 
" clip-path="url(#pa7007f73f3)" style="fill: none; stroke: #00bfbf; stroke-linecap: square"/>
   </g>
  </g>
 </g>
 <defs>
  <clipPath id="pa7007f73f3">
   <rect x="7.2" y="7.2" width="266.112" height="266.112"/>
  </clipPath>
 </defs>
</svg>
