<?xml version="1.0" encoding="utf-8" standalone="no"?>
<!DOCTYPE svg PUBLIC "-//W3C//DTD SVG 1.1//EN"
  "http://www.w3.org/Graphics/SVG/1.1/DTD/svg11.dtd">
<svg xmlns:xlink="http://www.w3.org/1999/xlink" width="460.8pt" height="345.6pt" viewBox="0 0 460.8 345.6" xmlns="http://www.w3.org/2000/svg" version="1.1">
 <metadata>
  <rdf:RDF xmlns:dc="http://purl.org/dc/elements/1.1/" xmlns:cc="http://creativecommons.org/ns#" xmlns:rdf="http://www.w3.org/1999/02/22-rdf-syntax-ns#">
   <cc:Work>
    <dc:type rdf:resource="http://purl.org/dc/dcmitype/StillImage"/>
    <dc:date>2024-03-13T22:11:44.065716</dc:date>
    <dc:format>image/svg+xml</dc:format>
    <dc:creator>
     <cc:Agent>
      <dc:title>Matplotlib v3.7.1, https://matplotlib.org/</dc:title>
     </cc:Agent>
    </dc:creator>
   </cc:Work>
  </rdf:RDF>
 </metadata>
 <defs>
  <style type="text/css">*{stroke-linejoin: round; stroke-linecap: butt}</style>
 </defs>
 <g id="figure_1">
  <g id="patch_1">
   <path d="M 0 345.6 
L 460.8 345.6 
L 460.8 0 
L 0 0 
z
" style="fill: #ffffff"/>
  </g>
  <g id="axes_1">
   <g id="patch_2">
    <path d="M 230.4 172.8 
L 138.980499 331.14322 
L 321.819501 331.14322 
z
" clip-path="url(#p7b243f5f57)" style="fill: #fbd2ff"/>
   </g>
   <g id="patch_3">
    <path d="M 230.4 172.8 
L 321.819501 331.14322 
L 413.239001 172.8 
z
" clip-path="url(#p7b243f5f57)" style="fill: #b3b3ff"/>
   </g>
   <g id="patch_4">
    <path d="M 230.4 172.8 
L 413.239001 172.8 
L 321.819501 14.45678 
z
" clip-path="url(#p7b243f5f57)" style="fill: #a2fff0"/>
   </g>
   <g id="patch_5">
    <path d="M 230.4 172.8 
L 321.819501 14.45678 
L 138.980499 14.45678 
z
" clip-path="url(#p7b243f5f57)" style="fill: #ffe0b1"/>
   </g>
   <g id="patch_6">
    <path d="M 230.4 172.8 
L 138.980499 14.45678 
L 47.560999 172.8 
z
" clip-path="url(#p7b243f5f57)" style="fill: #eafff0"/>
   </g>
   <g id="patch_7">
    <path d="M 230.4 172.8 
L 47.560999 172.8 
L 138.980499 331.14322 
z
" clip-path="url(#p7b243f5f57)" style="fill: #ecc2b3"/>
   </g>
   <g id="patch_8">
    <path d="M 138.980499 331.14322 
L 321.819501 331.14322 
L 413.239001 172.8 
L 321.819501 14.45678 
L 138.980499 14.45678 
L 47.560999 172.8 
L 138.980499 331.14322 
z
" clip-path="url(#p7b243f5f57)" style="fill: none; stroke: #000000; stroke-linejoin: miter"/>
   </g>
   <g id="line2d_1">
    <path d="M 178.379511 100.086645 
L 337.236659 304.439919 
L 283.13853 297.119363 
L 105.057297 272.38651 
L 210.000175 14.45678 
L 212.637357 21.136794 
L 331.809259 313.840451 
L 206.476385 331.14322 
L 133.134744 321.018075 
L 257.864161 14.45678 
L 359.886706 265.208885 
L 120.031173 298.322025 
L 212.637357 179.480014 
L 329.865178 28.392302 
L 113.705652 58.2341 
L 220.166917 320.116012 
L 224.743137 331.14322 
L 296.467873 155.166229 
L 340.457614 46.738939 
L 296.467873 40.784938 
L 136.591685 18.594328 
L 283.13853 206.823857 
L 346.42569 288.524051 
L 94.27656 253.713725 
L 191.622113 14.45678 
L 220.166917 84.837315 
L 320.471109 331.14322 
L 357.296168 240.944402 
L 396.612509 144.002071 
L 159.338622 111.262161 
" clip-path="url(#p7b243f5f57)" style="fill: none; stroke: #808080; stroke-width: 0.5; stroke-linecap: square"/>
   </g>
   <g id="line2d_2">
    <path d="M 159.338622 111.262161 
L 88.727699 101.497183 
L 267.246564 331.14322 
L 403.478706 155.894673 
L 170.75091 188.191399 
" clip-path="url(#p7b243f5f57)" style="fill: none; stroke-dasharray: 1.85,0.8; stroke-dashoffset: 0; stroke: #808080; stroke-width: 0.5"/>
   </g>
   <g id="line2d_3">
    <defs>
     <path id="m376d8542e2" d="M 0 4 
C 1.060812 4 2.078319 3.578535 2.828427 2.828427 
C 3.578535 2.078319 4 1.060812 4 0 
C 4 -1.060812 3.578535 -2.078319 2.828427 -2.828427 
C 2.078319 -3.578535 1.060812 -4 0 -4 
C -1.060812 -4 -2.078319 -3.578535 -2.828427 -2.828427 
C -3.578535 -2.078319 -4 -1.060812 -4 0 
C -4 1.060812 -3.578535 2.078319 -2.828427 2.828427 
C -2.078319 3.578535 -1.060812 4 0 4 
z
" style="stroke: #000000"/>
    </defs>
    <g clip-path="url(#p7b243f5f57)">
     <use xlink:href="#m376d8542e2" x="178.379511" y="100.086645" style="fill: #ff0000; stroke: #000000"/>
    </g>
   </g>
   <g id="line2d_4">
    <defs>
     <path id="m9304a7b1d9" d="M 0 2.5 
C 0.663008 2.5 1.29895 2.236584 1.767767 1.767767 
C 2.236584 1.29895 2.5 0.663008 2.5 0 
C 2.5 -0.663008 2.236584 -1.29895 1.767767 -1.767767 
C 1.29895 -2.236584 0.663008 -2.5 0 -2.5 
C -0.663008 -2.5 -1.29895 -2.236584 -1.767767 -1.767767 
C -2.236584 -1.29895 -2.5 -0.663008 -2.5 0 
C -2.5 0.663008 -2.236584 1.29895 -1.767767 1.767767 
C -1.29895 2.236584 -0.663008 2.5 0 2.5 
z
" style="stroke: #000000"/>
    </defs>
    <g clip-path="url(#p7b243f5f57)">
     <use xlink:href="#m9304a7b1d9" x="174.56521" y="144.139022" style="fill: #00bfbf; stroke: #000000"/>
     <use xlink:href="#m9304a7b1d9" x="283.13853" y="206.823857" style="fill: #00bfbf; stroke: #000000"/>
     <use xlink:href="#m9304a7b1d9" x="233.49626" y="235.484835" style="fill: #00bfbf; stroke: #000000"/>
     <use xlink:href="#m9304a7b1d9" x="233.49626" y="110.115165" style="fill: #00bfbf; stroke: #000000"/>
     <use xlink:href="#m9304a7b1d9" x="283.13853" y="138.776143" style="fill: #00bfbf; stroke: #000000"/>
     <use xlink:href="#m9304a7b1d9" x="174.56521" y="201.460978" style="fill: #00bfbf; stroke: #000000"/>
     <use xlink:href="#m9304a7b1d9" x="146.009279" y="127.652247" style="fill: #00bfbf; stroke: #000000"/>
     <use xlink:href="#m9304a7b1d9" x="311.694461" y="223.310632" style="fill: #00bfbf; stroke: #000000"/>
     <use xlink:href="#m9304a7b1d9" x="233.49626" y="268.458385" style="fill: #00bfbf; stroke: #000000"/>
     <use xlink:href="#m9304a7b1d9" x="233.49626" y="77.141615" style="fill: #00bfbf; stroke: #000000"/>
     <use xlink:href="#m9304a7b1d9" x="311.694461" y="122.289368" style="fill: #00bfbf; stroke: #000000"/>
     <use xlink:href="#m9304a7b1d9" x="146.009279" y="217.947753" style="fill: #00bfbf; stroke: #000000"/>
     <use xlink:href="#m9304a7b1d9" x="174.56521" y="43.117758" style="fill: #00bfbf; stroke: #000000"/>
     <use xlink:href="#m9304a7b1d9" x="370.625511" y="156.313225" style="fill: #00bfbf; stroke: #000000"/>
     <use xlink:href="#m9304a7b1d9" x="146.009279" y="285.995467" style="fill: #00bfbf; stroke: #000000"/>
     <use xlink:href="#m9304a7b1d9" x="146.009279" y="59.604533" style="fill: #00bfbf; stroke: #000000"/>
     <use xlink:href="#m9304a7b1d9" x="370.625511" y="189.286775" style="fill: #00bfbf; stroke: #000000"/>
     <use xlink:href="#m9304a7b1d9" x="174.56521" y="302.482242" style="fill: #00bfbf; stroke: #000000"/>
     <use xlink:href="#m9304a7b1d9" x="311.694461" y="64.967412" style="fill: #00bfbf; stroke: #000000"/>
     <use xlink:href="#m9304a7b1d9" x="283.13853" y="48.480637" style="fill: #00bfbf; stroke: #000000"/>
     <use xlink:href="#m9304a7b1d9" x="96.367009" y="156.313225" style="fill: #00bfbf; stroke: #000000"/>
     <use xlink:href="#m9304a7b1d9" x="96.367009" y="189.286775" style="fill: #00bfbf; stroke: #000000"/>
     <use xlink:href="#m9304a7b1d9" x="283.13853" y="297.119363" style="fill: #00bfbf; stroke: #000000"/>
     <use xlink:href="#m9304a7b1d9" x="311.694461" y="280.632588" style="fill: #00bfbf; stroke: #000000"/>
     <use xlink:href="#m9304a7b1d9" x="212.637357" y="166.119986" style="fill: #00bfbf; stroke: #000000"/>
     <use xlink:href="#m9304a7b1d9" x="245.066383" y="184.842893" style="fill: #00bfbf; stroke: #000000"/>
     <use xlink:href="#m9304a7b1d9" x="233.49626" y="191.522907" style="fill: #00bfbf; stroke: #000000"/>
     <use xlink:href="#m9304a7b1d9" x="233.49626" y="154.077093" style="fill: #00bfbf; stroke: #000000"/>
     <use xlink:href="#m9304a7b1d9" x="245.066383" y="160.757107" style="fill: #00bfbf; stroke: #000000"/>
     <use xlink:href="#m9304a7b1d9" x="212.637357" y="179.480014" style="fill: #00bfbf; stroke: #000000"/>
     <use xlink:href="#m9304a7b1d9" x="107.937132" y="105.671283" style="fill: #00bfbf; stroke: #000000"/>
     <use xlink:href="#m9304a7b1d9" x="349.766608" y="245.291596" style="fill: #00bfbf; stroke: #000000"/>
     <use xlink:href="#m9304a7b1d9" x="233.49626" y="312.420313" style="fill: #00bfbf; stroke: #000000"/>
     <use xlink:href="#m9304a7b1d9" x="233.49626" y="33.179687" style="fill: #00bfbf; stroke: #000000"/>
     <use xlink:href="#m9304a7b1d9" x="349.766608" y="100.308404" style="fill: #00bfbf; stroke: #000000"/>
     <use xlink:href="#m9304a7b1d9" x="107.937132" y="239.928717" style="fill: #00bfbf; stroke: #000000"/>
     <use xlink:href="#m9304a7b1d9" x="212.637357" y="21.136794" style="fill: #00bfbf; stroke: #000000"/>
     <use xlink:href="#m9304a7b1d9" x="370.625511" y="112.351297" style="fill: #00bfbf; stroke: #000000"/>
     <use xlink:href="#m9304a7b1d9" x="107.937132" y="264.014503" style="fill: #00bfbf; stroke: #000000"/>
     <use xlink:href="#m9304a7b1d9" x="107.937132" y="81.585497" style="fill: #00bfbf; stroke: #000000"/>
     <use xlink:href="#m9304a7b1d9" x="370.625511" y="233.248703" style="fill: #00bfbf; stroke: #000000"/>
     <use xlink:href="#m9304a7b1d9" x="212.637357" y="324.463206" style="fill: #00bfbf; stroke: #000000"/>
     <use xlink:href="#m9304a7b1d9" x="349.766608" y="86.948376" style="fill: #00bfbf; stroke: #000000"/>
     <use xlink:href="#m9304a7b1d9" x="245.066383" y="26.499673" style="fill: #00bfbf; stroke: #000000"/>
     <use xlink:href="#m9304a7b1d9" x="96.367009" y="112.351297" style="fill: #00bfbf; stroke: #000000"/>
     <use xlink:href="#m9304a7b1d9" x="96.367009" y="233.248703" style="fill: #00bfbf; stroke: #000000"/>
     <use xlink:href="#m9304a7b1d9" x="245.066383" y="319.100327" style="fill: #00bfbf; stroke: #000000"/>
     <use xlink:href="#m9304a7b1d9" x="349.766608" y="258.651624" style="fill: #00bfbf; stroke: #000000"/>
     <use xlink:href="#m9304a7b1d9" x="88.837448" y="237.595896" style="fill: #00bfbf; stroke: #000000"/>
     <use xlink:href="#m9304a7b1d9" x="245.066383" y="327.794714" style="fill: #00bfbf; stroke: #000000"/>
     <use xlink:href="#m9304a7b1d9" x="357.296168" y="262.998818" style="fill: #00bfbf; stroke: #000000"/>
     <use xlink:href="#m9304a7b1d9" x="357.296168" y="82.601182" style="fill: #00bfbf; stroke: #000000"/>
     <use xlink:href="#m9304a7b1d9" x="245.066383" y="17.805286" style="fill: #00bfbf; stroke: #000000"/>
     <use xlink:href="#m9304a7b1d9" x="88.837448" y="108.004104" style="fill: #00bfbf; stroke: #000000"/>
     <use xlink:href="#m9304a7b1d9" x="107.937132" y="248.623104" style="fill: #00bfbf; stroke: #000000"/>
     <use xlink:href="#m9304a7b1d9" x="225.966699" y="316.767506" style="fill: #00bfbf; stroke: #000000"/>
     <use xlink:href="#m9304a7b1d9" x="357.296168" y="240.944402" style="fill: #00bfbf; stroke: #000000"/>
     <use xlink:href="#m9304a7b1d9" x="357.296168" y="104.655598" style="fill: #00bfbf; stroke: #000000"/>
     <use xlink:href="#m9304a7b1d9" x="225.966699" y="28.832494" style="fill: #00bfbf; stroke: #000000"/>
     <use xlink:href="#m9304a7b1d9" x="107.937132" y="96.976896" style="fill: #00bfbf; stroke: #000000"/>
     <use xlink:href="#m9304a7b1d9" x="107.937132" y="90.279884" style="fill: #00bfbf; stroke: #000000"/>
     <use xlink:href="#m9304a7b1d9" x="363.095951" y="237.595896" style="fill: #00bfbf; stroke: #000000"/>
     <use xlink:href="#m9304a7b1d9" x="220.166917" y="320.116012" style="fill: #00bfbf; stroke: #000000"/>
     <use xlink:href="#m9304a7b1d9" x="220.166917" y="25.483988" style="fill: #00bfbf; stroke: #000000"/>
     <use xlink:href="#m9304a7b1d9" x="363.095951" y="108.004104" style="fill: #00bfbf; stroke: #000000"/>
     <use xlink:href="#m9304a7b1d9" x="107.937132" y="255.320116" style="fill: #00bfbf; stroke: #000000"/>
     <use xlink:href="#m9304a7b1d9" x="225.966699" y="158.424286" style="fill: #00bfbf; stroke: #000000"/>
     <use xlink:href="#m9304a7b1d9" x="245.066383" y="169.451494" style="fill: #00bfbf; stroke: #000000"/>
     <use xlink:href="#m9304a7b1d9" x="220.166917" y="183.827208" style="fill: #00bfbf; stroke: #000000"/>
     <use xlink:href="#m9304a7b1d9" x="220.166917" y="161.772792" style="fill: #00bfbf; stroke: #000000"/>
     <use xlink:href="#m9304a7b1d9" x="245.066383" y="176.148506" style="fill: #00bfbf; stroke: #000000"/>
     <use xlink:href="#m9304a7b1d9" x="225.966699" y="187.175714" style="fill: #00bfbf; stroke: #000000"/>
     <use xlink:href="#m9304a7b1d9" x="88.837448" y="193.633968" style="fill: #00bfbf; stroke: #000000"/>
     <use xlink:href="#m9304a7b1d9" x="283.13853" y="305.81375" style="fill: #00bfbf; stroke: #000000"/>
     <use xlink:href="#m9304a7b1d9" x="319.224022" y="284.979782" style="fill: #00bfbf; stroke: #000000"/>
     <use xlink:href="#m9304a7b1d9" x="319.224022" y="60.620218" style="fill: #00bfbf; stroke: #000000"/>
     <use xlink:href="#m9304a7b1d9" x="283.13853" y="39.78625" style="fill: #00bfbf; stroke: #000000"/>
     <use xlink:href="#m9304a7b1d9" x="88.837448" y="151.966032" style="fill: #00bfbf; stroke: #000000"/>
     <use xlink:href="#m9304a7b1d9" x="146.009279" y="226.64214" style="fill: #00bfbf; stroke: #000000"/>
     <use xlink:href="#m9304a7b1d9" x="225.966699" y="272.805578" style="fill: #00bfbf; stroke: #000000"/>
     <use xlink:href="#m9304a7b1d9" x="319.224022" y="218.963438" style="fill: #00bfbf; stroke: #000000"/>
     <use xlink:href="#m9304a7b1d9" x="319.224022" y="126.636562" style="fill: #00bfbf; stroke: #000000"/>
     <use xlink:href="#m9304a7b1d9" x="225.966699" y="72.794422" style="fill: #00bfbf; stroke: #000000"/>
     <use xlink:href="#m9304a7b1d9" x="146.009279" y="118.95786" style="fill: #00bfbf; stroke: #000000"/>
     <use xlink:href="#m9304a7b1d9" x="146.009279" y="68.29892" style="fill: #00bfbf; stroke: #000000"/>
     <use xlink:href="#m9304a7b1d9" x="363.095951" y="193.633968" style="fill: #00bfbf; stroke: #000000"/>
     <use xlink:href="#m9304a7b1d9" x="182.094771" y="298.135048" style="fill: #00bfbf; stroke: #000000"/>
     <use xlink:href="#m9304a7b1d9" x="182.094771" y="47.464952" style="fill: #00bfbf; stroke: #000000"/>
     <use xlink:href="#m9304a7b1d9" x="363.095951" y="151.966032" style="fill: #00bfbf; stroke: #000000"/>
     <use xlink:href="#m9304a7b1d9" x="146.009279" y="277.30108" style="fill: #00bfbf; stroke: #000000"/>
     <use xlink:href="#m9304a7b1d9" x="225.966699" y="114.462358" style="fill: #00bfbf; stroke: #000000"/>
     <use xlink:href="#m9304a7b1d9" x="283.13853" y="147.47053" style="fill: #00bfbf; stroke: #000000"/>
     <use xlink:href="#m9304a7b1d9" x="182.094771" y="205.808172" style="fill: #00bfbf; stroke: #000000"/>
     <use xlink:href="#m9304a7b1d9" x="182.094771" y="139.791828" style="fill: #00bfbf; stroke: #000000"/>
     <use xlink:href="#m9304a7b1d9" x="283.13853" y="198.12947" style="fill: #00bfbf; stroke: #000000"/>
     <use xlink:href="#m9304a7b1d9" x="225.966699" y="231.137642" style="fill: #00bfbf; stroke: #000000"/>
     <use xlink:href="#m9304a7b1d9" x="212.637357" y="265.109879" style="fill: #00bfbf; stroke: #000000"/>
     <use xlink:href="#m9304a7b1d9" x="159.338622" y="234.337839" style="fill: #00bfbf; stroke: #000000"/>
     <use xlink:href="#m9304a7b1d9" x="319.224022" y="142.027961" style="fill: #00bfbf; stroke: #000000"/>
     <use xlink:href="#m9304a7b1d9" x="319.224022" y="203.572039" style="fill: #00bfbf; stroke: #000000"/>
     <use xlink:href="#m9304a7b1d9" x="159.338622" y="111.262161" style="fill: #00bfbf; stroke: #000000"/>
     <use xlink:href="#m9304a7b1d9" x="212.637357" y="80.490121" style="fill: #00bfbf; stroke: #000000"/>
     <use xlink:href="#m9304a7b1d9" x="75.508106" y="185.938269" style="fill: #00bfbf; stroke: #000000"/>
     <use xlink:href="#m9304a7b1d9" x="296.467873" y="313.509449" style="fill: #00bfbf; stroke: #000000"/>
     <use xlink:href="#m9304a7b1d9" x="319.224022" y="300.371181" style="fill: #00bfbf; stroke: #000000"/>
     <use xlink:href="#m9304a7b1d9" x="319.224022" y="45.228819" style="fill: #00bfbf; stroke: #000000"/>
     <use xlink:href="#m9304a7b1d9" x="296.467873" y="32.090551" style="fill: #00bfbf; stroke: #000000"/>
     <use xlink:href="#m9304a7b1d9" x="75.508106" y="159.661731" style="fill: #00bfbf; stroke: #000000"/>
     <use xlink:href="#m9304a7b1d9" x="212.637357" y="106.766659" style="fill: #00bfbf; stroke: #000000"/>
     <use xlink:href="#m9304a7b1d9" x="296.467873" y="155.166229" style="fill: #00bfbf; stroke: #000000"/>
     <use xlink:href="#m9304a7b1d9" x="182.094771" y="221.199571" style="fill: #00bfbf; stroke: #000000"/>
     <use xlink:href="#m9304a7b1d9" x="182.094771" y="124.400429" style="fill: #00bfbf; stroke: #000000"/>
     <use xlink:href="#m9304a7b1d9" x="296.467873" y="190.433771" style="fill: #00bfbf; stroke: #000000"/>
     <use xlink:href="#m9304a7b1d9" x="212.637357" y="238.833341" style="fill: #00bfbf; stroke: #000000"/>
     <use xlink:href="#m9304a7b1d9" x="349.766608" y="185.938269" style="fill: #00bfbf; stroke: #000000"/>
     <use xlink:href="#m9304a7b1d9" x="159.338622" y="75.99462" style="fill: #00bfbf; stroke: #000000"/>
     <use xlink:href="#m9304a7b1d9" x="182.094771" y="62.856351" style="fill: #00bfbf; stroke: #000000"/>
     <use xlink:href="#m9304a7b1d9" x="182.094771" y="282.743649" style="fill: #00bfbf; stroke: #000000"/>
     <use xlink:href="#m9304a7b1d9" x="159.338622" y="269.60538" style="fill: #00bfbf; stroke: #000000"/>
     <use xlink:href="#m9304a7b1d9" x="349.766608" y="159.661731" style="fill: #00bfbf; stroke: #000000"/>
     <use xlink:href="#m9304a7b1d9" x="174.56521" y="287.090843" style="fill: #00bfbf; stroke: #000000"/>
     <use xlink:href="#m9304a7b1d9" x="159.338622" y="278.299768" style="fill: #00bfbf; stroke: #000000"/>
     <use xlink:href="#m9304a7b1d9" x="357.296168" y="164.008925" style="fill: #00bfbf; stroke: #000000"/>
     <use xlink:href="#m9304a7b1d9" x="357.296168" y="181.591075" style="fill: #00bfbf; stroke: #000000"/>
     <use xlink:href="#m9304a7b1d9" x="159.338622" y="67.300232" style="fill: #00bfbf; stroke: #000000"/>
     <use xlink:href="#m9304a7b1d9" x="174.56521" y="58.509157" style="fill: #00bfbf; stroke: #000000"/>
     <use xlink:href="#m9304a7b1d9" x="83.037666" y="181.591075" style="fill: #00bfbf; stroke: #000000"/>
     <use xlink:href="#m9304a7b1d9" x="296.467873" y="304.815062" style="fill: #00bfbf; stroke: #000000"/>
     <use xlink:href="#m9304a7b1d9" x="311.694461" y="296.023987" style="fill: #00bfbf; stroke: #000000"/>
     <use xlink:href="#m9304a7b1d9" x="311.694461" y="49.576013" style="fill: #00bfbf; stroke: #000000"/>
     <use xlink:href="#m9304a7b1d9" x="296.467873" y="40.784938" style="fill: #00bfbf; stroke: #000000"/>
     <use xlink:href="#m9304a7b1d9" x="83.037666" y="164.008925" style="fill: #00bfbf; stroke: #000000"/>
     <use xlink:href="#m9304a7b1d9" x="174.56521" y="128.747623" style="fill: #00bfbf; stroke: #000000"/>
     <use xlink:href="#m9304a7b1d9" x="296.467873" y="199.128158" style="fill: #00bfbf; stroke: #000000"/>
     <use xlink:href="#m9304a7b1d9" x="220.166917" y="243.180535" style="fill: #00bfbf; stroke: #000000"/>
     <use xlink:href="#m9304a7b1d9" x="220.166917" y="102.419465" style="fill: #00bfbf; stroke: #000000"/>
     <use xlink:href="#m9304a7b1d9" x="296.467873" y="146.471842" style="fill: #00bfbf; stroke: #000000"/>
     <use xlink:href="#m9304a7b1d9" x="174.56521" y="216.852377" style="fill: #00bfbf; stroke: #000000"/>
     <use xlink:href="#m9304a7b1d9" x="311.694461" y="207.919233" style="fill: #00bfbf; stroke: #000000"/>
     <use xlink:href="#m9304a7b1d9" x="159.338622" y="119.956548" style="fill: #00bfbf; stroke: #000000"/>
     <use xlink:href="#m9304a7b1d9" x="220.166917" y="84.837315" style="fill: #00bfbf; stroke: #000000"/>
     <use xlink:href="#m9304a7b1d9" x="220.166917" y="260.762685" style="fill: #00bfbf; stroke: #000000"/>
     <use xlink:href="#m9304a7b1d9" x="159.338622" y="225.643452" style="fill: #00bfbf; stroke: #000000"/>
     <use xlink:href="#m9304a7b1d9" x="311.694461" y="137.680767" style="fill: #00bfbf; stroke: #000000"/>
    </g>
   </g>
   <g id="line2d_5">
    <defs>
     <path id="m5c7efef295" d="M 0 4 
C 1.060812 4 2.078319 3.578535 2.828427 2.828427 
C 3.578535 2.078319 4 1.060812 4 0 
C 4 -1.060812 3.578535 -2.078319 2.828427 -2.828427 
C 2.078319 -3.578535 1.060812 -4 0 -4 
C -1.060812 -4 -2.078319 -3.578535 -2.828427 -2.828427 
C -3.578535 -2.078319 -4 -1.060812 -4 0 
C -4 1.060812 -3.578535 2.078319 -2.828427 2.828427 
C -2.078319 3.578535 -1.060812 4 0 4 
z
" style="stroke: #000000"/>
    </defs>
    <g clip-path="url(#p7b243f5f57)">
     <use xlink:href="#m5c7efef295" x="170.75091" y="188.191399" style="fill: #0000ff; stroke: #000000"/>
    </g>
   </g>
  </g>
 </g>
 <defs>
  <clipPath id="p7b243f5f57">
   <rect x="43.904219" y="10.8" width="372.991563" height="324"/>
  </clipPath>
 </defs>
</svg>
