<?xml version="1.0" encoding="utf-8" standalone="no"?>
<!DOCTYPE svg PUBLIC "-//W3C//DTD SVG 1.1//EN"
  "http://www.w3.org/Graphics/SVG/1.1/DTD/svg11.dtd">
<svg xmlns:xlink="http://www.w3.org/1999/xlink" width="460.8pt" height="345.6pt" viewBox="0 0 460.8 345.6" xmlns="http://www.w3.org/2000/svg" version="1.1">
 <metadata>
  <rdf:RDF xmlns:dc="http://purl.org/dc/elements/1.1/" xmlns:cc="http://creativecommons.org/ns#" xmlns:rdf="http://www.w3.org/1999/02/22-rdf-syntax-ns#">
   <cc:Work>
    <dc:type rdf:resource="http://purl.org/dc/dcmitype/StillImage"/>
    <dc:date>2024-03-08T10:03:12.901868</dc:date>
    <dc:format>image/svg+xml</dc:format>
    <dc:creator>
     <cc:Agent>
      <dc:title>Matplotlib v3.7.1, https://matplotlib.org/</dc:title>
     </cc:Agent>
    </dc:creator>
   </cc:Work>
  </rdf:RDF>
 </metadata>
 <defs>
  <style type="text/css">*{stroke-linejoin: round; stroke-linecap: butt}</style>
 </defs>
 <g id="figure_1">
  <g id="patch_1">
   <path d="M 0 345.6 
L 460.8 345.6 
L 460.8 0 
L 0 0 
z
" style="fill: #ffffff"/>
  </g>
  <g id="axes_1">
   <g id="line2d_1">
    <path d="M 225.52 300.9 
L 206 290.701463 
L 254.8 265.20512 
L 206 239.708777 
L 254.8 214.212435 
L 206 188.716092 
L 254.8 163.219749 
L 206 137.723406 
L 254.8 112.227064 
L 206 86.730721 
L 254.8 61.234378 
L 246.504 56.9 
" clip-path="url(#pd67e9b9194)" style="fill: none; stroke: #808080; stroke-width: 0.5; stroke-linecap: square"/>
   </g>
   <g id="line2d_2">
    <path d="M 230.4 300.9 
" clip-path="url(#pd67e9b9194)" style="fill: none; stroke: #1f77b4; stroke-width: 0.5; stroke-linecap: square"/>
   </g>
   <g id="line2d_3">
    <path d="M 206 290.701463 
L -1 182.550993 
" clip-path="url(#pd67e9b9194)" style="fill: none; stroke-dasharray: 1.85,0.8; stroke-dashoffset: 0; stroke: #808080; stroke-width: 0.5"/>
   </g>
   <g id="line2d_4">
    <path d="M 225.52 300.9 
L 206 288.007001 
L 254.8 255.774505 
L 206 223.542008 
L 254.8 191.309511 
L 206 159.077015 
L 254.8 126.844518 
L 206 94.612021 
L 254.8 62.379524 
L 246.504 56.9 
" clip-path="url(#pd67e9b9194)" style="fill: none; stroke: #808080; stroke-width: 0.5; stroke-linecap: square"/>
   </g>
   <g id="line2d_5">
    <path d="M 230.4 300.9 
" clip-path="url(#pd67e9b9194)" style="fill: none; stroke: #ff7f0e; stroke-width: 0.5; stroke-linecap: square"/>
   </g>
   <g id="line2d_6">
    <path d="M 206 288.007001 
L -1 151.283091 
" clip-path="url(#pd67e9b9194)" style="fill: none; stroke-dasharray: 1.85,0.8; stroke-dashoffset: 0; stroke: #808080; stroke-width: 0.5"/>
   </g>
   <g id="line2d_7">
    <path d="M 225.52 300.9 
L 206 283.377558 
L 254.8 239.571454 
L 206 195.76535 
L 254.8 151.959246 
L 206 108.153142 
L 254.8 64.347038 
L 246.504 56.9 
" clip-path="url(#pd67e9b9194)" style="fill: none; stroke: #808080; stroke-width: 0.5; stroke-linecap: square"/>
   </g>
   <g id="line2d_8">
    <path d="M 230.4 300.9 
" clip-path="url(#pd67e9b9194)" style="fill: none; stroke: #2ca02c; stroke-width: 0.5; stroke-linecap: square"/>
   </g>
   <g id="line2d_9">
    <path d="M 206 283.377558 
L -1 97.560682 
" clip-path="url(#pd67e9b9194)" style="fill: none; stroke-dasharray: 1.85,0.8; stroke-dashoffset: 0; stroke: #808080; stroke-width: 0.5"/>
   </g>
   <g id="line2d_10">
    <path d="M 225.52 300.9 
L 206 273.561064 
L 254.8 205.213725 
L 206 136.866387 
L 254.8 68.519048 
L 246.504 56.9 
" clip-path="url(#pd67e9b9194)" style="fill: none; stroke: #808080; stroke-width: 0.5; stroke-linecap: square"/>
   </g>
   <g id="line2d_11">
    <path d="M 230.4 300.9 
" clip-path="url(#pd67e9b9194)" style="fill: none; stroke: #d62728; stroke-width: 0.5; stroke-linecap: square"/>
   </g>
   <g id="line2d_12">
    <path d="M 206 273.561064 
L 51.304 56.9 
" clip-path="url(#pd67e9b9194)" style="fill: none; stroke-dasharray: 1.85,0.8; stroke-dashoffset: 0; stroke: #808080; stroke-width: 0.5"/>
   </g>
   <g id="line2d_13">
    <path d="M 225.52 300.9 
L 206 238.734395 
L 254.8 83.320382 
L 246.504 56.9 
" clip-path="url(#pd67e9b9194)" style="fill: none; stroke: #808080; stroke-width: 0.5; stroke-linecap: square"/>
   </g>
   <g id="line2d_14">
    <path d="M 230.4 300.9 
" clip-path="url(#pd67e9b9194)" style="fill: none; stroke: #9467bd; stroke-width: 0.5; stroke-linecap: square"/>
   </g>
   <g id="line2d_15">
    <path d="M 206 238.734395 
L 148.904 56.9 
" clip-path="url(#pd67e9b9194)" style="fill: none; stroke-dasharray: 1.85,0.8; stroke-dashoffset: 0; stroke: #808080; stroke-width: 0.5"/>
   </g>
   <g id="line2d_16">
    <path d="M 225.52 300.9 
L 246.504 56.9 
" clip-path="url(#pd67e9b9194)" style="fill: none; stroke: #808080; stroke-width: 0.5; stroke-linecap: square"/>
   </g>
   <g id="line2d_17">
    <path d="M 230.4 300.9 
" clip-path="url(#pd67e9b9194)" style="fill: none; stroke: #8c564b; stroke-width: 0.5; stroke-linecap: square"/>
   </g>
   <g id="line2d_18">
    <path d="M 225.52 300.9 
L 254.8 240.653086 
L 206 140.241564 
L 246.504 56.9 
" clip-path="url(#pd67e9b9194)" style="fill: none; stroke: #808080; stroke-width: 0.5; stroke-linecap: square"/>
   </g>
   <g id="line2d_19">
    <path d="M 230.4 300.9 
" clip-path="url(#pd67e9b9194)" style="fill: none; stroke: #e377c2; stroke-width: 0.5; stroke-linecap: square"/>
   </g>
   <g id="line2d_20">
    <path d="M 254.8 240.653086 
L 344.104 56.9 
" clip-path="url(#pd67e9b9194)" style="fill: none; stroke-dasharray: 1.85,0.8; stroke-dashoffset: 0; stroke: #808080; stroke-width: 0.5"/>
   </g>
   <g id="line2d_21">
    <path d="M 225.52 300.9 
L 254.8 267.852596 
L 206 212.773589 
L 254.8 157.694582 
L 206 102.615576 
L 246.504 56.9 
" clip-path="url(#pd67e9b9194)" style="fill: none; stroke: #808080; stroke-width: 0.5; stroke-linecap: square"/>
   </g>
   <g id="line2d_22">
    <path d="M 230.4 300.9 
" clip-path="url(#pd67e9b9194)" style="fill: none; stroke: #7f7f7f; stroke-width: 0.5; stroke-linecap: square"/>
   </g>
   <g id="line2d_23">
    <path d="M 254.8 267.852596 
L 441.704 56.9 
" clip-path="url(#pd67e9b9194)" style="fill: none; stroke-dasharray: 1.85,0.8; stroke-dashoffset: 0; stroke: #808080; stroke-width: 0.5"/>
   </g>
   <g id="line2d_24">
    <path d="M 225.52 300.9 
L 254.8 278.131726 
L 206 240.184603 
L 254.8 202.237481 
L 206 164.290358 
L 254.8 126.343235 
L 206 88.396112 
L 246.504 56.9 
" clip-path="url(#pd67e9b9194)" style="fill: none; stroke: #808080; stroke-width: 0.5; stroke-linecap: square"/>
   </g>
   <g id="line2d_25">
    <path d="M 230.4 300.9 
" clip-path="url(#pd67e9b9194)" style="fill: none; stroke: #bcbd22; stroke-width: 0.5; stroke-linecap: square"/>
   </g>
   <g id="line2d_26">
    <path d="M 254.8 278.131726 
L 461.8 117.167496 
" clip-path="url(#pd67e9b9194)" style="fill: none; stroke-dasharray: 1.85,0.8; stroke-dashoffset: 0; stroke: #808080; stroke-width: 0.5"/>
   </g>
   <g id="line2d_27">
    <path d="M 225.52 300.9 
L 254.8 283.533452 
L 206 254.589205 
L 254.8 225.644958 
L 206 196.700712 
L 254.8 167.756465 
L 206 138.812218 
L 254.8 109.867972 
L 206 80.923725 
L 246.504 56.9 
" clip-path="url(#pd67e9b9194)" style="fill: none; stroke: #808080; stroke-width: 0.5; stroke-linecap: square"/>
   </g>
   <g id="line2d_28">
    <path d="M 230.4 300.9 
" clip-path="url(#pd67e9b9194)" style="fill: none; stroke: #17becf; stroke-width: 0.5; stroke-linecap: square"/>
   </g>
   <g id="line2d_29">
    <path d="M 254.8 283.533452 
L 461.8 160.757651 
" clip-path="url(#pd67e9b9194)" style="fill: none; stroke-dasharray: 1.85,0.8; stroke-dashoffset: 0; stroke: #808080; stroke-width: 0.5"/>
   </g>
   <g id="line2d_30">
    <path d="M 225.52 300.9 
L 254.8 286.863567 
L 206 263.469511 
L 254.8 240.075455 
L 206 216.6814 
L 254.8 193.287344 
L 206 169.893289 
L 254.8 146.499233 
L 206 123.105177 
L 254.8 99.711122 
L 206 76.317066 
L 246.504 56.9 
" clip-path="url(#pd67e9b9194)" style="fill: none; stroke: #808080; stroke-width: 0.5; stroke-linecap: square"/>
   </g>
   <g id="line2d_31">
    <path d="M 230.4 300.9 
" clip-path="url(#pd67e9b9194)" style="fill: none; stroke: #1f77b4; stroke-width: 0.5; stroke-linecap: square"/>
   </g>
   <g id="line2d_32">
    <path d="M 254.8 286.863567 
L 461.8 187.630585 
" clip-path="url(#pd67e9b9194)" style="fill: none; stroke-dasharray: 1.85,0.8; stroke-dashoffset: 0; stroke: #808080; stroke-width: 0.5"/>
   </g>
   <g id="line2d_33">
    <path d="M 225.52 300.9 
L 206 292.208994 
L 254.8 270.481478 
L 206 248.753963 
L 254.8 227.026447 
L 206 205.298931 
L 254.8 183.571416 
L 206 161.8439 
L 254.8 140.116385 
L 206 118.388869 
L 254.8 96.661354 
L 206 74.933838 
L 246.504 56.9 
" clip-path="url(#pd67e9b9194)" style="fill: none; stroke: #808080; stroke-width: 0.5; stroke-linecap: square"/>
   </g>
   <g id="line2d_34">
    <path d="M 230.4 300.9 
" clip-path="url(#pd67e9b9194)" style="fill: none; stroke: #ff7f0e; stroke-width: 0.5; stroke-linecap: square"/>
   </g>
   <g id="line2d_35">
    <path d="M 206 292.208994 
L -1 200.045147 
" clip-path="url(#pd67e9b9194)" style="fill: none; stroke-dasharray: 1.85,0.8; stroke-dashoffset: 0; stroke: #808080; stroke-width: 0.5"/>
   </g>
   <g id="line2d_36">
    <path d="M 225.52 300.9 
L 206 290.325785 
L 254.8 263.890249 
L 206 237.454713 
L 254.8 211.019177 
L 206 184.58364 
L 254.8 158.148104 
L 206 131.712568 
L 254.8 105.277031 
L 206 78.841495 
L 246.504 56.9 
" clip-path="url(#pd67e9b9194)" style="fill: none; stroke: #808080; stroke-width: 0.5; stroke-linecap: square"/>
   </g>
   <g id="line2d_37">
    <path d="M 230.4 300.9 
" clip-path="url(#pd67e9b9194)" style="fill: none; stroke: #2ca02c; stroke-width: 0.5; stroke-linecap: square"/>
   </g>
   <g id="line2d_38">
    <path d="M 206 290.325785 
L -1 178.191441 
" clip-path="url(#pd67e9b9194)" style="fill: none; stroke-dasharray: 1.85,0.8; stroke-dashoffset: 0; stroke: #808080; stroke-width: 0.5"/>
   </g>
   <g id="line2d_39">
    <path d="M 225.52 300.9 
L 206 287.400692 
L 254.8 253.65242 
L 206 219.904149 
L 254.8 186.155878 
L 206 152.407607 
L 254.8 118.659336 
L 206 84.911065 
L 246.504 56.9 
" clip-path="url(#pd67e9b9194)" style="fill: none; stroke: #808080; stroke-width: 0.5; stroke-linecap: square"/>
   </g>
   <g id="line2d_40">
    <path d="M 230.4 300.9 
" clip-path="url(#pd67e9b9194)" style="fill: none; stroke: #d62728; stroke-width: 0.5; stroke-linecap: square"/>
   </g>
   <g id="line2d_41">
    <path d="M 206 287.400692 
L -1 144.247165 
" clip-path="url(#pd67e9b9194)" style="fill: none; stroke-dasharray: 1.85,0.8; stroke-dashoffset: 0; stroke: #808080; stroke-width: 0.5"/>
   </g>
   <g id="line2d_42">
    <path d="M 225.52 300.9 
L 206 282.238432 
L 254.8 235.584512 
L 206 188.930593 
L 254.8 142.276673 
L 206 95.622753 
L 246.504 56.9 
" clip-path="url(#pd67e9b9194)" style="fill: none; stroke: #808080; stroke-width: 0.5; stroke-linecap: square"/>
   </g>
   <g id="line2d_43">
    <path d="M 230.4 300.9 
" clip-path="url(#pd67e9b9194)" style="fill: none; stroke: #9467bd; stroke-width: 0.5; stroke-linecap: square"/>
   </g>
   <g id="line2d_44">
    <path d="M 206 282.238432 
L -1 84.341683 
" clip-path="url(#pd67e9b9194)" style="fill: none; stroke-dasharray: 1.85,0.8; stroke-dashoffset: 0; stroke: #808080; stroke-width: 0.5"/>
   </g>
   <g id="line2d_45">
    <path d="M 225.52 300.9 
L 206 270.683282 
L 254.8 195.141486 
L 206 119.59969 
L 246.504 56.9 
" clip-path="url(#pd67e9b9194)" style="fill: none; stroke: #808080; stroke-width: 0.5; stroke-linecap: square"/>
   </g>
   <g id="line2d_46">
    <path d="M 230.4 300.9 
" clip-path="url(#pd67e9b9194)" style="fill: none; stroke: #8c564b; stroke-width: 0.5; stroke-linecap: square"/>
   </g>
   <g id="line2d_47">
    <path d="M 206 270.683282 
L 67.896 56.9 
" clip-path="url(#pd67e9b9194)" style="fill: none; stroke-dasharray: 1.85,0.8; stroke-dashoffset: 0; stroke: #808080; stroke-width: 0.5"/>
   </g>
   <g id="line2d_48">
    <path d="M 225.52 300.9 
L 206 221.550407 
L 246.504 56.9 
" clip-path="url(#pd67e9b9194)" style="fill: none; stroke: #808080; stroke-width: 0.5; stroke-linecap: square"/>
   </g>
   <g id="line2d_49">
    <path d="M 230.4 300.9 
" clip-path="url(#pd67e9b9194)" style="fill: none; stroke: #e377c2; stroke-width: 0.5; stroke-linecap: square"/>
   </g>
   <g id="line2d_50">
    <path d="M 206 221.550407 
L 165.496 56.9 
" clip-path="url(#pd67e9b9194)" style="fill: none; stroke-dasharray: 1.85,0.8; stroke-dashoffset: 0; stroke: #808080; stroke-width: 0.5"/>
   </g>
   <g id="line2d_51">
    <path d="M 225.52 300.9 
L 254.8 110.77013 
L 246.504 56.9 
" clip-path="url(#pd67e9b9194)" style="fill: none; stroke: #808080; stroke-width: 0.5; stroke-linecap: square"/>
   </g>
   <g id="line2d_52">
    <path d="M 230.4 300.9 
" clip-path="url(#pd67e9b9194)" style="fill: none; stroke: #7f7f7f; stroke-width: 0.5; stroke-linecap: square"/>
   </g>
   <g id="line2d_53">
    <path d="M 254.8 110.77013 
L 263.096 56.9 
" clip-path="url(#pd67e9b9194)" style="fill: none; stroke-dasharray: 1.85,0.8; stroke-dashoffset: 0; stroke: #808080; stroke-width: 0.5"/>
   </g>
   <g id="line2d_54">
    <path d="M 225.52 300.9 
L 254.8 248.048014 
L 206 159.961372 
L 254.8 71.874729 
L 246.504 56.9 
" clip-path="url(#pd67e9b9194)" style="fill: none; stroke: #808080; stroke-width: 0.5; stroke-linecap: square"/>
   </g>
   <g id="line2d_55">
    <path d="M 230.4 300.9 
" clip-path="url(#pd67e9b9194)" style="fill: none; stroke: #bcbd22; stroke-width: 0.5; stroke-linecap: square"/>
   </g>
   <g id="line2d_56">
    <path d="M 254.8 248.048014 
L 360.696 56.9 
" clip-path="url(#pd67e9b9194)" style="fill: none; stroke-dasharray: 1.85,0.8; stroke-dashoffset: 0; stroke: #808080; stroke-width: 0.5"/>
   </g>
   <g id="line2d_57">
    <path d="M 225.52 300.9 
L 254.8 270.208176 
L 206 219.055136 
L 254.8 167.902096 
L 206 116.749057 
L 254.8 65.596017 
L 246.504 56.9 
" clip-path="url(#pd67e9b9194)" style="fill: none; stroke: #808080; stroke-width: 0.5; stroke-linecap: square"/>
   </g>
   <g id="line2d_58">
    <path d="M 230.4 300.9 
" clip-path="url(#pd67e9b9194)" style="fill: none; stroke: #17becf; stroke-width: 0.5; stroke-linecap: square"/>
   </g>
   <g id="line2d_59">
    <path d="M 254.8 270.208176 
L 458.296 56.9 
" clip-path="url(#pd67e9b9194)" style="fill: none; stroke-dasharray: 1.85,0.8; stroke-dashoffset: 0; stroke: #808080; stroke-width: 0.5"/>
   </g>
   <g id="line2d_60">
    <path d="M 225.52 300.9 
L 254.8 279.275185 
L 206 243.233826 
L 254.8 207.192467 
L 206 171.151108 
L 254.8 135.109749 
L 206 99.06839 
L 254.8 63.027031 
L 246.504 56.9 
" clip-path="url(#pd67e9b9194)" style="fill: none; stroke: #808080; stroke-width: 0.5; stroke-linecap: square"/>
   </g>
   <g id="line2d_61">
    <path d="M 230.4 300.9 
" clip-path="url(#pd67e9b9194)" style="fill: none; stroke: #1f77b4; stroke-width: 0.5; stroke-linecap: square"/>
   </g>
   <g id="line2d_62">
    <path d="M 254.8 279.275185 
L 461.8 126.39483 
" clip-path="url(#pd67e9b9194)" style="fill: none; stroke-dasharray: 1.85,0.8; stroke-dashoffset: 0; stroke: #808080; stroke-width: 0.5"/>
   </g>
   <g id="line2d_63">
    <path d="M 225.52 300.9 
L 254.8 284.206727 
L 206 256.384607 
L 254.8 228.562486 
L 206 200.740365 
L 254.8 172.918244 
L 206 145.096123 
L 254.8 117.274002 
L 206 89.451881 
L 254.8 61.629761 
L 246.504 56.9 
" clip-path="url(#pd67e9b9194)" style="fill: none; stroke: #808080; stroke-width: 0.5; stroke-linecap: square"/>
   </g>
   <g id="line2d_64">
    <path d="M 230.4 300.9 
" clip-path="url(#pd67e9b9194)" style="fill: none; stroke: #ff7f0e; stroke-width: 0.5; stroke-linecap: square"/>
   </g>
   <g id="line2d_65">
    <path d="M 254.8 284.206727 
L 461.8 166.190764 
" clip-path="url(#pd67e9b9194)" style="fill: none; stroke-dasharray: 1.85,0.8; stroke-dashoffset: 0; stroke: #808080; stroke-width: 0.5"/>
   </g>
   <g id="line2d_66">
    <defs>
     <path id="md7eaee70b4" d="M 0 3.5 
C 0.928211 3.5 1.81853 3.131218 2.474874 2.474874 
C 3.131218 1.81853 3.5 0.928211 3.5 0 
C 3.5 -0.928211 3.131218 -1.81853 2.474874 -2.474874 
C 1.81853 -3.131218 0.928211 -3.5 0 -3.5 
C -0.928211 -3.5 -1.81853 -3.131218 -2.474874 -2.474874 
C -3.131218 -1.81853 -3.5 -0.928211 -3.5 0 
C -3.5 0.928211 -3.131218 1.81853 -2.474874 2.474874 
C -1.81853 3.131218 -0.928211 3.5 0 3.5 
z
" style="stroke: #000000"/>
    </defs>
    <g clip-path="url(#pd67e9b9194)">
     <use xlink:href="#md7eaee70b4" x="-1" y="56.9" style="fill: #fbd2ff; stroke: #000000"/>
     <use xlink:href="#md7eaee70b4" x="51.304" y="56.9" style="fill: #fbd2ff; stroke: #000000"/>
     <use xlink:href="#md7eaee70b4" x="148.904" y="56.9" style="fill: #fbd2ff; stroke: #000000"/>
     <use xlink:href="#md7eaee70b4" x="246.504" y="56.9" style="fill: #fbd2ff; stroke: #000000"/>
     <use xlink:href="#md7eaee70b4" x="344.104" y="56.9" style="fill: #fbd2ff; stroke: #000000"/>
     <use xlink:href="#md7eaee70b4" x="441.704" y="56.9" style="fill: #fbd2ff; stroke: #000000"/>
     <use xlink:href="#md7eaee70b4" x="539.304" y="56.9" style="fill: #fbd2ff; stroke: #000000"/>
     <use xlink:href="#md7eaee70b4" x="636.904" y="56.9" style="fill: #fbd2ff; stroke: #000000"/>
     <use xlink:href="#md7eaee70b4" x="734.504" y="56.9" style="fill: #fbd2ff; stroke: #000000"/>
    </g>
   </g>
   <g id="line2d_67">
    <defs>
     <path id="mb20958a4f5" d="M 0 3.5 
C 0.928211 3.5 1.81853 3.131218 2.474874 2.474874 
C 3.131218 1.81853 3.5 0.928211 3.5 0 
C 3.5 -0.928211 3.131218 -1.81853 2.474874 -2.474874 
C 1.81853 -3.131218 0.928211 -3.5 0 -3.5 
C -0.928211 -3.5 -1.81853 -3.131218 -2.474874 -2.474874 
C -3.131218 -1.81853 -3.5 -0.928211 -3.5 0 
C -3.5 0.928211 -3.131218 1.81853 -2.474874 2.474874 
C -1.81853 3.131218 -0.928211 3.5 0 3.5 
z
" style="stroke: #000000"/>
    </defs>
    <g clip-path="url(#pd67e9b9194)">
     <use xlink:href="#mb20958a4f5" x="-1" y="56.9" style="fill: #b3b3ff; stroke: #000000"/>
     <use xlink:href="#mb20958a4f5" x="67.896" y="56.9" style="fill: #b3b3ff; stroke: #000000"/>
     <use xlink:href="#mb20958a4f5" x="165.496" y="56.9" style="fill: #b3b3ff; stroke: #000000"/>
     <use xlink:href="#mb20958a4f5" x="263.096" y="56.9" style="fill: #b3b3ff; stroke: #000000"/>
     <use xlink:href="#mb20958a4f5" x="360.696" y="56.9" style="fill: #b3b3ff; stroke: #000000"/>
     <use xlink:href="#mb20958a4f5" x="458.296" y="56.9" style="fill: #b3b3ff; stroke: #000000"/>
     <use xlink:href="#mb20958a4f5" x="555.896" y="56.9" style="fill: #b3b3ff; stroke: #000000"/>
     <use xlink:href="#mb20958a4f5" x="653.496" y="56.9" style="fill: #b3b3ff; stroke: #000000"/>
    </g>
   </g>
   <g id="line2d_68">
    <defs>
     <path id="m88c994c41d" d="M 0 3.5 
C 0.928211 3.5 1.81853 3.131218 2.474874 2.474874 
C 3.131218 1.81853 3.5 0.928211 3.5 0 
C 3.5 -0.928211 3.131218 -1.81853 2.474874 -2.474874 
C 1.81853 -3.131218 0.928211 -3.5 0 -3.5 
C -0.928211 -3.5 -1.81853 -3.131218 -2.474874 -2.474874 
C -3.131218 -1.81853 -3.5 -0.928211 -3.5 0 
C -3.5 0.928211 -3.131218 1.81853 -2.474874 2.474874 
C -1.81853 3.131218 -0.928211 3.5 0 3.5 
z
" style="stroke: #000000"/>
    </defs>
    <g clip-path="url(#pd67e9b9194)">
     <use xlink:href="#m88c994c41d" x="225.52" y="300.9" style="fill: #ff0000; stroke: #000000"/>
    </g>
   </g>
   <g id="line2d_69">
    <defs>
     <path id="m343169663a" d="M 0 3.5 
C 0.928211 3.5 1.81853 3.131218 2.474874 2.474874 
C 3.131218 1.81853 3.5 0.928211 3.5 0 
C 3.5 -0.928211 3.131218 -1.81853 2.474874 -2.474874 
C 1.81853 -3.131218 0.928211 -3.5 0 -3.5 
C -0.928211 -3.5 -1.81853 -3.131218 -2.474874 -2.474874 
C -3.131218 -1.81853 -3.5 -0.928211 -3.5 0 
C -3.5 0.928211 -3.131218 1.81853 -2.474874 2.474874 
C -1.81853 3.131218 -0.928211 3.5 0 3.5 
z
" style="stroke: #000000"/>
    </defs>
    <g clip-path="url(#pd67e9b9194)">
     <use xlink:href="#m343169663a" x="246.504" y="56.9" style="fill: #00bfbf; stroke: #000000"/>
    </g>
   </g>
   <g id="line2d_70">
    <defs>
     <path id="m5607154e1d" d="M 0 2.5 
C 0.663008 2.5 1.29895 2.236584 1.767767 1.767767 
C 2.236584 1.29895 2.5 0.663008 2.5 0 
C 2.5 -0.663008 2.236584 -1.29895 1.767767 -1.767767 
C 1.29895 -2.236584 0.663008 -2.5 0 -2.5 
C -0.663008 -2.5 -1.29895 -2.236584 -1.767767 -1.767767 
C -2.236584 -1.29895 -2.5 -0.663008 -2.5 0 
C -2.5 0.663008 -2.236584 1.29895 -1.767767 1.767767 
C -1.29895 2.236584 -0.663008 2.5 0 2.5 
z
" style="stroke: #000000"/>
    </defs>
    <g clip-path="url(#pd67e9b9194)">
     <use xlink:href="#m5607154e1d" x="-1" y="178.9" style="fill: #fbd2ff; stroke: #000000"/>
     <use xlink:href="#m5607154e1d" x="40.812" y="178.9" style="fill: #fbd2ff; stroke: #000000"/>
     <use xlink:href="#m5607154e1d" x="89.612" y="178.9" style="fill: #fbd2ff; stroke: #000000"/>
     <use xlink:href="#m5607154e1d" x="138.412" y="178.9" style="fill: #fbd2ff; stroke: #000000"/>
     <use xlink:href="#m5607154e1d" x="187.212" y="178.9" style="fill: #fbd2ff; stroke: #000000"/>
     <use xlink:href="#m5607154e1d" x="236.012" y="178.9" style="fill: #fbd2ff; stroke: #000000"/>
     <use xlink:href="#m5607154e1d" x="284.812" y="178.9" style="fill: #fbd2ff; stroke: #000000"/>
     <use xlink:href="#m5607154e1d" x="333.612" y="178.9" style="fill: #fbd2ff; stroke: #000000"/>
     <use xlink:href="#m5607154e1d" x="382.412" y="178.9" style="fill: #fbd2ff; stroke: #000000"/>
     <use xlink:href="#m5607154e1d" x="431.212" y="178.9" style="fill: #fbd2ff; stroke: #000000"/>
     <use xlink:href="#m5607154e1d" x="480.012" y="178.9" style="fill: #fbd2ff; stroke: #000000"/>
     <use xlink:href="#m5607154e1d" x="224.788" y="178.9" style="fill: #fbd2ff; stroke: #000000"/>
     <use xlink:href="#m5607154e1d" x="236.012" y="178.9" style="fill: #fbd2ff; stroke: #000000"/>
     <use xlink:href="#m5607154e1d" x="224.788" y="178.9" style="fill: #fbd2ff; stroke: #000000"/>
     <use xlink:href="#m5607154e1d" x="236.012" y="178.9" style="fill: #fbd2ff; stroke: #000000"/>
     <use xlink:href="#m5607154e1d" x="224.788" y="178.9" style="fill: #fbd2ff; stroke: #000000"/>
     <use xlink:href="#m5607154e1d" x="236.012" y="178.9" style="fill: #fbd2ff; stroke: #000000"/>
     <use xlink:href="#m5607154e1d" x="224.788" y="178.9" style="fill: #fbd2ff; stroke: #000000"/>
     <use xlink:href="#m5607154e1d" x="236.012" y="178.9" style="fill: #fbd2ff; stroke: #000000"/>
     <use xlink:href="#m5607154e1d" x="224.788" y="178.9" style="fill: #fbd2ff; stroke: #000000"/>
     <use xlink:href="#m5607154e1d" x="236.012" y="178.9" style="fill: #fbd2ff; stroke: #000000"/>
     <use xlink:href="#m5607154e1d" x="224.788" y="178.9" style="fill: #fbd2ff; stroke: #000000"/>
    </g>
   </g>
   <g id="line2d_71">
    <defs>
     <path id="mf8cd25c7b0" d="M 0 2.5 
C 0.663008 2.5 1.29895 2.236584 1.767767 1.767767 
C 2.236584 1.29895 2.5 0.663008 2.5 0 
C 2.5 -0.663008 2.236584 -1.29895 1.767767 -1.767767 
C 1.29895 -2.236584 0.663008 -2.5 0 -2.5 
C -0.663008 -2.5 -1.29895 -2.236584 -1.767767 -1.767767 
C -2.236584 -1.29895 -2.5 -0.663008 -2.5 0 
C -2.5 0.663008 -2.236584 1.29895 -1.767767 1.767767 
C -1.29895 2.236584 -0.663008 2.5 0 2.5 
z
" style="stroke: #000000"/>
    </defs>
    <g clip-path="url(#pd67e9b9194)">
     <use xlink:href="#mf8cd25c7b0" x="-1" y="178.9" style="fill: #b3b3ff; stroke: #000000"/>
     <use xlink:href="#mf8cd25c7b0" x="0.308" y="178.9" style="fill: #b3b3ff; stroke: #000000"/>
     <use xlink:href="#mf8cd25c7b0" x="49.108" y="178.9" style="fill: #b3b3ff; stroke: #000000"/>
     <use xlink:href="#mf8cd25c7b0" x="97.908" y="178.9" style="fill: #b3b3ff; stroke: #000000"/>
     <use xlink:href="#mf8cd25c7b0" x="146.708" y="178.9" style="fill: #b3b3ff; stroke: #000000"/>
     <use xlink:href="#mf8cd25c7b0" x="195.508" y="178.9" style="fill: #b3b3ff; stroke: #000000"/>
     <use xlink:href="#mf8cd25c7b0" x="244.308" y="178.9" style="fill: #b3b3ff; stroke: #000000"/>
     <use xlink:href="#mf8cd25c7b0" x="293.108" y="178.9" style="fill: #b3b3ff; stroke: #000000"/>
     <use xlink:href="#mf8cd25c7b0" x="341.908" y="178.9" style="fill: #b3b3ff; stroke: #000000"/>
     <use xlink:href="#mf8cd25c7b0" x="390.708" y="178.9" style="fill: #b3b3ff; stroke: #000000"/>
     <use xlink:href="#mf8cd25c7b0" x="439.508" y="178.9" style="fill: #b3b3ff; stroke: #000000"/>
     <use xlink:href="#mf8cd25c7b0" x="244.308" y="178.9" style="fill: #b3b3ff; stroke: #000000"/>
     <use xlink:href="#mf8cd25c7b0" x="216.492" y="178.9" style="fill: #b3b3ff; stroke: #000000"/>
     <use xlink:href="#mf8cd25c7b0" x="244.308" y="178.9" style="fill: #b3b3ff; stroke: #000000"/>
     <use xlink:href="#mf8cd25c7b0" x="216.492" y="178.9" style="fill: #b3b3ff; stroke: #000000"/>
     <use xlink:href="#mf8cd25c7b0" x="244.308" y="178.9" style="fill: #b3b3ff; stroke: #000000"/>
     <use xlink:href="#mf8cd25c7b0" x="216.492" y="178.9" style="fill: #b3b3ff; stroke: #000000"/>
     <use xlink:href="#mf8cd25c7b0" x="244.308" y="178.9" style="fill: #b3b3ff; stroke: #000000"/>
     <use xlink:href="#mf8cd25c7b0" x="216.492" y="178.9" style="fill: #b3b3ff; stroke: #000000"/>
     <use xlink:href="#mf8cd25c7b0" x="244.308" y="178.9" style="fill: #b3b3ff; stroke: #000000"/>
     <use xlink:href="#mf8cd25c7b0" x="216.492" y="178.9" style="fill: #b3b3ff; stroke: #000000"/>
     <use xlink:href="#mf8cd25c7b0" x="244.308" y="178.9" style="fill: #b3b3ff; stroke: #000000"/>
    </g>
   </g>
   <g id="line2d_72">
    <path d="M 206 32.5 
L 206 313.1 
" clip-path="url(#pd67e9b9194)" style="fill: none; stroke: #000000; stroke-linecap: square"/>
   </g>
   <g id="line2d_73">
    <path d="M 254.8 313.1 
L 254.8 32.5 
" clip-path="url(#pd67e9b9194)" style="fill: none; stroke: #000000; stroke-linecap: square"/>
   </g>
  </g>
 </g>
 <defs>
  <clipPath id="pd67e9b9194">
   <rect x="10.8" y="32.5" width="439.2" height="280.6"/>
  </clipPath>
 </defs>
</svg>
