<?xml version="1.0" encoding="utf-8" standalone="no"?>
<!DOCTYPE svg PUBLIC "-//W3C//DTD SVG 1.1//EN"
  "http://www.w3.org/Graphics/SVG/1.1/DTD/svg11.dtd">
<svg xmlns:xlink="http://www.w3.org/1999/xlink" width="460.8pt" height="345.6pt" viewBox="0 0 460.8 345.6" xmlns="http://www.w3.org/2000/svg" version="1.1">
 <metadata>
  <rdf:RDF xmlns:dc="http://purl.org/dc/elements/1.1/" xmlns:cc="http://creativecommons.org/ns#" xmlns:rdf="http://www.w3.org/1999/02/22-rdf-syntax-ns#">
   <cc:Work>
    <dc:type rdf:resource="http://purl.org/dc/dcmitype/StillImage"/>
    <dc:date>2024-10-26T10:55:46.586439</dc:date>
    <dc:format>image/svg+xml</dc:format>
    <dc:creator>
     <cc:Agent>
      <dc:title>Matplotlib v3.7.1, https://matplotlib.org/</dc:title>
     </cc:Agent>
    </dc:creator>
   </cc:Work>
  </rdf:RDF>
 </metadata>
 <defs>
  <style type="text/css">*{stroke-linejoin: round; stroke-linecap: butt}</style>
 </defs>
 <g id="figure_1">
  <g id="patch_1">
   <path d="M 0 345.6 
L 460.8 345.6 
L 460.8 0 
L 0 0 
z
" style="fill: #ffffff"/>
  </g>
  <g id="axes_1">
   <g id="line2d_1">
    <path d="M 225.52 319.371429 
L -1 149.081457 
" clip-path="url(#p0a5baa62bb)" style="fill: none; stroke-dasharray: 2.775,1.2; stroke-dashoffset: 0; stroke: #000000; stroke-width: 0.75"/>
   </g>
   <g id="line2d_2">
    <path d="M 225.52 319.371429 
L 51.304 41.657143 
" clip-path="url(#p0a5baa62bb)" style="fill: none; stroke-dasharray: 2.775,1.2; stroke-dashoffset: 0; stroke: #000000; stroke-width: 0.75"/>
   </g>
   <g id="line2d_3">
    <path d="M 225.52 319.371429 
L 246.504 41.657143 
" clip-path="url(#p0a5baa62bb)" style="fill: none; stroke-dasharray: 2.775,1.2; stroke-dashoffset: 0; stroke: #000000; stroke-width: 0.75"/>
   </g>
   <g id="line2d_4">
    <path d="M 225.52 319.371429 
L 441.704 41.657143 
" clip-path="url(#p0a5baa62bb)" style="fill: none; stroke-dasharray: 2.775,1.2; stroke-dashoffset: 0; stroke: #000000; stroke-width: 0.75"/>
   </g>
   <g id="line2d_5">
    <path d="M 225.52 319.371429 
L 461.8 159.865149 
" clip-path="url(#p0a5baa62bb)" style="fill: none; stroke-dasharray: 2.775,1.2; stroke-dashoffset: 0; stroke: #000000; stroke-width: 0.75"/>
   </g>
   <g id="line2d_6">
    <defs>
     <path id="ma7bb035068" d="M 0 3.5 
C 0.928211 3.5 1.81853 3.131218 2.474874 2.474874 
C 3.131218 1.81853 3.5 0.928211 3.5 0 
C 3.5 -0.928211 3.131218 -1.81853 2.474874 -2.474874 
C 1.81853 -3.131218 0.928211 -3.5 0 -3.5 
C -0.928211 -3.5 -1.81853 -3.131218 -2.474874 -2.474874 
C -3.131218 -1.81853 -3.5 -0.928211 -3.5 0 
C -3.5 0.928211 -3.131218 1.81853 -2.474874 2.474874 
C -1.81853 3.131218 -0.928211 3.5 0 3.5 
z
" style="stroke: #000000"/>
    </defs>
    <g clip-path="url(#p0a5baa62bb)">
     <use xlink:href="#ma7bb035068" x="-1" y="41.657143" style="fill: #fbd2ff; stroke: #000000"/>
     <use xlink:href="#ma7bb035068" x="51.304" y="41.657143" style="fill: #fbd2ff; stroke: #000000"/>
     <use xlink:href="#ma7bb035068" x="148.904" y="41.657143" style="fill: #fbd2ff; stroke: #000000"/>
     <use xlink:href="#ma7bb035068" x="246.504" y="41.657143" style="fill: #fbd2ff; stroke: #000000"/>
     <use xlink:href="#ma7bb035068" x="344.104" y="41.657143" style="fill: #fbd2ff; stroke: #000000"/>
     <use xlink:href="#ma7bb035068" x="441.704" y="41.657143" style="fill: #fbd2ff; stroke: #000000"/>
     <use xlink:href="#ma7bb035068" x="539.304" y="41.657143" style="fill: #fbd2ff; stroke: #000000"/>
     <use xlink:href="#ma7bb035068" x="636.904" y="41.657143" style="fill: #fbd2ff; stroke: #000000"/>
     <use xlink:href="#ma7bb035068" x="734.504" y="41.657143" style="fill: #fbd2ff; stroke: #000000"/>
    </g>
   </g>
   <g id="line2d_7">
    <defs>
     <path id="mc58f891ad8" d="M 0 3.5 
C 0.928211 3.5 1.81853 3.131218 2.474874 2.474874 
C 3.131218 1.81853 3.5 0.928211 3.5 0 
C 3.5 -0.928211 3.131218 -1.81853 2.474874 -2.474874 
C 1.81853 -3.131218 0.928211 -3.5 0 -3.5 
C -0.928211 -3.5 -1.81853 -3.131218 -2.474874 -2.474874 
C -3.131218 -1.81853 -3.5 -0.928211 -3.5 0 
C -3.5 0.928211 -3.131218 1.81853 -2.474874 2.474874 
C -1.81853 3.131218 -0.928211 3.5 0 3.5 
z
" style="stroke: #000000"/>
    </defs>
    <g clip-path="url(#p0a5baa62bb)">
     <use xlink:href="#mc58f891ad8" x="-1" y="41.657143" style="fill: #b3b3ff; stroke: #000000"/>
     <use xlink:href="#mc58f891ad8" x="67.896" y="41.657143" style="fill: #b3b3ff; stroke: #000000"/>
     <use xlink:href="#mc58f891ad8" x="165.496" y="41.657143" style="fill: #b3b3ff; stroke: #000000"/>
     <use xlink:href="#mc58f891ad8" x="263.096" y="41.657143" style="fill: #b3b3ff; stroke: #000000"/>
     <use xlink:href="#mc58f891ad8" x="360.696" y="41.657143" style="fill: #b3b3ff; stroke: #000000"/>
     <use xlink:href="#mc58f891ad8" x="458.296" y="41.657143" style="fill: #b3b3ff; stroke: #000000"/>
     <use xlink:href="#mc58f891ad8" x="555.896" y="41.657143" style="fill: #b3b3ff; stroke: #000000"/>
     <use xlink:href="#mc58f891ad8" x="653.496" y="41.657143" style="fill: #b3b3ff; stroke: #000000"/>
    </g>
   </g>
   <g id="line2d_8">
    <defs>
     <path id="m6f913c7438" d="M 0 3.5 
C 0.928211 3.5 1.81853 3.131218 2.474874 2.474874 
C 3.131218 1.81853 3.5 0.928211 3.5 0 
C 3.5 -0.928211 3.131218 -1.81853 2.474874 -2.474874 
C 1.81853 -3.131218 0.928211 -3.5 0 -3.5 
C -0.928211 -3.5 -1.81853 -3.131218 -2.474874 -2.474874 
C -3.131218 -1.81853 -3.5 -0.928211 -3.5 0 
C -3.5 0.928211 -3.131218 1.81853 -2.474874 2.474874 
C -1.81853 3.131218 -0.928211 3.5 0 3.5 
z
" style="stroke: #000000"/>
    </defs>
    <g clip-path="url(#p0a5baa62bb)">
     <use xlink:href="#m6f913c7438" x="225.52" y="319.371429" style="fill: #ff0000; stroke: #000000"/>
    </g>
   </g>
   <g id="line2d_9">
    <defs>
     <path id="m91ad73948e" d="M 0 2.5 
C 0.663008 2.5 1.29895 2.236584 1.767767 1.767767 
C 2.236584 1.29895 2.5 0.663008 2.5 0 
C 2.5 -0.663008 2.236584 -1.29895 1.767767 -1.767767 
C 1.29895 -2.236584 0.663008 -2.5 0 -2.5 
C -0.663008 -2.5 -1.29895 -2.236584 -1.767767 -1.767767 
C -2.236584 -1.29895 -2.5 -0.663008 -2.5 0 
C -2.5 0.663008 -2.236584 1.29895 -1.767767 1.767767 
C -1.29895 2.236584 -0.663008 2.5 0 2.5 
z
" style="stroke: #000000"/>
    </defs>
    <g clip-path="url(#p0a5baa62bb)">
     <use xlink:href="#m91ad73948e" x="-1" y="180.514286" style="fill: #fbd2ff; stroke: #000000"/>
     <use xlink:href="#m91ad73948e" x="40.812" y="180.514286" style="fill: #fbd2ff; stroke: #000000"/>
     <use xlink:href="#m91ad73948e" x="138.412" y="180.514286" style="fill: #fbd2ff; stroke: #000000"/>
     <use xlink:href="#m91ad73948e" x="236.012" y="180.514286" style="fill: #fbd2ff; stroke: #000000"/>
     <use xlink:href="#m91ad73948e" x="333.612" y="180.514286" style="fill: #fbd2ff; stroke: #000000"/>
     <use xlink:href="#m91ad73948e" x="431.212" y="180.514286" style="fill: #fbd2ff; stroke: #000000"/>
     <use xlink:href="#m91ad73948e" x="528.812" y="180.514286" style="fill: #fbd2ff; stroke: #000000"/>
     <use xlink:href="#m91ad73948e" x="626.412" y="180.514286" style="fill: #fbd2ff; stroke: #000000"/>
     <use xlink:href="#m91ad73948e" x="724.012" y="180.514286" style="fill: #fbd2ff; stroke: #000000"/>
    </g>
   </g>
   <g id="line2d_10">
    <defs>
     <path id="m4ee880a581" d="M 0 2.5 
C 0.663008 2.5 1.29895 2.236584 1.767767 1.767767 
C 2.236584 1.29895 2.5 0.663008 2.5 0 
C 2.5 -0.663008 2.236584 -1.29895 1.767767 -1.767767 
C 1.29895 -2.236584 0.663008 -2.5 0 -2.5 
C -0.663008 -2.5 -1.29895 -2.236584 -1.767767 -1.767767 
C -2.236584 -1.29895 -2.5 -0.663008 -2.5 0 
C -2.5 0.663008 -2.236584 1.29895 -1.767767 1.767767 
C -1.29895 2.236584 -0.663008 2.5 0 2.5 
z
" style="stroke: #000000"/>
    </defs>
    <g clip-path="url(#p0a5baa62bb)">
     <use xlink:href="#m4ee880a581" x="-1" y="180.514286" style="fill: #b3b3ff; stroke: #000000"/>
     <use xlink:href="#m4ee880a581" x="78.388" y="180.514286" style="fill: #b3b3ff; stroke: #000000"/>
     <use xlink:href="#m4ee880a581" x="175.988" y="180.514286" style="fill: #b3b3ff; stroke: #000000"/>
     <use xlink:href="#m4ee880a581" x="273.588" y="180.514286" style="fill: #b3b3ff; stroke: #000000"/>
     <use xlink:href="#m4ee880a581" x="371.188" y="180.514286" style="fill: #b3b3ff; stroke: #000000"/>
     <use xlink:href="#m4ee880a581" x="468.788" y="180.514286" style="fill: #b3b3ff; stroke: #000000"/>
     <use xlink:href="#m4ee880a581" x="566.388" y="180.514286" style="fill: #b3b3ff; stroke: #000000"/>
     <use xlink:href="#m4ee880a581" x="663.988" y="180.514286" style="fill: #b3b3ff; stroke: #000000"/>
    </g>
   </g>
   <g id="line2d_11">
    <path d="M 206 10.8 
L 206 346.6 
" clip-path="url(#p0a5baa62bb)" style="fill: none; stroke: #000000; stroke-linecap: square"/>
   </g>
   <g id="line2d_12">
    <path d="M 254.8 346.6 
L 254.8 10.8 
" clip-path="url(#p0a5baa62bb)" style="fill: none; stroke: #000000; stroke-linecap: square"/>
   </g>
   <g id="legend_1">
    <g id="patch_2">
     <path d="M 17.8 329.8 
L 137.9 329.8 
Q 139.9 329.8 139.9 327.8 
L 139.9 255.321875 
Q 139.9 253.321875 137.9 253.321875 
L 17.8 253.321875 
Q 15.8 253.321875 15.8 255.321875 
L 15.8 327.8 
Q 15.8 329.8 17.8 329.8 
z
" style="fill: #ffffff; opacity: 0.8; stroke: #cccccc; stroke-linejoin: miter"/>
    </g>
    <g id="line2d_13">
     <g>
      <use xlink:href="#ma7bb035068" x="29.8" y="261.421875" style="fill: #fbd2ff; stroke: #000000"/>
     </g>
    </g>
    <g id="text_1">
     <!-- Even images of $T$ -->
     <g transform="translate(47.8 264.921875) scale(0.1 -0.1)">
      <defs>
       <path id="DejaVuSans-45" d="M 628 4666 
L 3578 4666 
L 3578 4134 
L 1259 4134 
L 1259 2753 
L 3481 2753 
L 3481 2222 
L 1259 2222 
L 1259 531 
L 3634 531 
L 3634 0 
L 628 0 
L 628 4666 
z
" transform="scale(0.015625)"/>
       <path id="DejaVuSans-76" d="M 191 3500 
L 800 3500 
L 1894 563 
L 2988 3500 
L 3597 3500 
L 2284 0 
L 1503 0 
L 191 3500 
z
" transform="scale(0.015625)"/>
       <path id="DejaVuSans-65" d="M 3597 1894 
L 3597 1613 
L 953 1613 
Q 991 1019 1311 708 
Q 1631 397 2203 397 
Q 2534 397 2845 478 
Q 3156 559 3463 722 
L 3463 178 
Q 3153 47 2828 -22 
Q 2503 -91 2169 -91 
Q 1331 -91 842 396 
Q 353 884 353 1716 
Q 353 2575 817 3079 
Q 1281 3584 2069 3584 
Q 2775 3584 3186 3129 
Q 3597 2675 3597 1894 
z
M 3022 2063 
Q 3016 2534 2758 2815 
Q 2500 3097 2075 3097 
Q 1594 3097 1305 2825 
Q 1016 2553 972 2059 
L 3022 2063 
z
" transform="scale(0.015625)"/>
       <path id="DejaVuSans-6e" d="M 3513 2113 
L 3513 0 
L 2938 0 
L 2938 2094 
Q 2938 2591 2744 2837 
Q 2550 3084 2163 3084 
Q 1697 3084 1428 2787 
Q 1159 2491 1159 1978 
L 1159 0 
L 581 0 
L 581 3500 
L 1159 3500 
L 1159 2956 
Q 1366 3272 1645 3428 
Q 1925 3584 2291 3584 
Q 2894 3584 3203 3211 
Q 3513 2838 3513 2113 
z
" transform="scale(0.015625)"/>
       <path id="DejaVuSans-20" transform="scale(0.015625)"/>
       <path id="DejaVuSans-69" d="M 603 3500 
L 1178 3500 
L 1178 0 
L 603 0 
L 603 3500 
z
M 603 4863 
L 1178 4863 
L 1178 4134 
L 603 4134 
L 603 4863 
z
" transform="scale(0.015625)"/>
       <path id="DejaVuSans-6d" d="M 3328 2828 
Q 3544 3216 3844 3400 
Q 4144 3584 4550 3584 
Q 5097 3584 5394 3201 
Q 5691 2819 5691 2113 
L 5691 0 
L 5113 0 
L 5113 2094 
Q 5113 2597 4934 2840 
Q 4756 3084 4391 3084 
Q 3944 3084 3684 2787 
Q 3425 2491 3425 1978 
L 3425 0 
L 2847 0 
L 2847 2094 
Q 2847 2600 2669 2842 
Q 2491 3084 2119 3084 
Q 1678 3084 1418 2786 
Q 1159 2488 1159 1978 
L 1159 0 
L 581 0 
L 581 3500 
L 1159 3500 
L 1159 2956 
Q 1356 3278 1631 3431 
Q 1906 3584 2284 3584 
Q 2666 3584 2933 3390 
Q 3200 3197 3328 2828 
z
" transform="scale(0.015625)"/>
       <path id="DejaVuSans-61" d="M 2194 1759 
Q 1497 1759 1228 1600 
Q 959 1441 959 1056 
Q 959 750 1161 570 
Q 1363 391 1709 391 
Q 2188 391 2477 730 
Q 2766 1069 2766 1631 
L 2766 1759 
L 2194 1759 
z
M 3341 1997 
L 3341 0 
L 2766 0 
L 2766 531 
Q 2569 213 2275 61 
Q 1981 -91 1556 -91 
Q 1019 -91 701 211 
Q 384 513 384 1019 
Q 384 1609 779 1909 
Q 1175 2209 1959 2209 
L 2766 2209 
L 2766 2266 
Q 2766 2663 2505 2880 
Q 2244 3097 1772 3097 
Q 1472 3097 1187 3025 
Q 903 2953 641 2809 
L 641 3341 
Q 956 3463 1253 3523 
Q 1550 3584 1831 3584 
Q 2591 3584 2966 3190 
Q 3341 2797 3341 1997 
z
" transform="scale(0.015625)"/>
       <path id="DejaVuSans-67" d="M 2906 1791 
Q 2906 2416 2648 2759 
Q 2391 3103 1925 3103 
Q 1463 3103 1205 2759 
Q 947 2416 947 1791 
Q 947 1169 1205 825 
Q 1463 481 1925 481 
Q 2391 481 2648 825 
Q 2906 1169 2906 1791 
z
M 3481 434 
Q 3481 -459 3084 -895 
Q 2688 -1331 1869 -1331 
Q 1566 -1331 1297 -1286 
Q 1028 -1241 775 -1147 
L 775 -588 
Q 1028 -725 1275 -790 
Q 1522 -856 1778 -856 
Q 2344 -856 2625 -561 
Q 2906 -266 2906 331 
L 2906 616 
Q 2728 306 2450 153 
Q 2172 0 1784 0 
Q 1141 0 747 490 
Q 353 981 353 1791 
Q 353 2603 747 3093 
Q 1141 3584 1784 3584 
Q 2172 3584 2450 3431 
Q 2728 3278 2906 2969 
L 2906 3500 
L 3481 3500 
L 3481 434 
z
" transform="scale(0.015625)"/>
       <path id="DejaVuSans-73" d="M 2834 3397 
L 2834 2853 
Q 2591 2978 2328 3040 
Q 2066 3103 1784 3103 
Q 1356 3103 1142 2972 
Q 928 2841 928 2578 
Q 928 2378 1081 2264 
Q 1234 2150 1697 2047 
L 1894 2003 
Q 2506 1872 2764 1633 
Q 3022 1394 3022 966 
Q 3022 478 2636 193 
Q 2250 -91 1575 -91 
Q 1294 -91 989 -36 
Q 684 19 347 128 
L 347 722 
Q 666 556 975 473 
Q 1284 391 1588 391 
Q 1994 391 2212 530 
Q 2431 669 2431 922 
Q 2431 1156 2273 1281 
Q 2116 1406 1581 1522 
L 1381 1569 
Q 847 1681 609 1914 
Q 372 2147 372 2553 
Q 372 3047 722 3315 
Q 1072 3584 1716 3584 
Q 2034 3584 2315 3537 
Q 2597 3491 2834 3397 
z
" transform="scale(0.015625)"/>
       <path id="DejaVuSans-6f" d="M 1959 3097 
Q 1497 3097 1228 2736 
Q 959 2375 959 1747 
Q 959 1119 1226 758 
Q 1494 397 1959 397 
Q 2419 397 2687 759 
Q 2956 1122 2956 1747 
Q 2956 2369 2687 2733 
Q 2419 3097 1959 3097 
z
M 1959 3584 
Q 2709 3584 3137 3096 
Q 3566 2609 3566 1747 
Q 3566 888 3137 398 
Q 2709 -91 1959 -91 
Q 1206 -91 779 398 
Q 353 888 353 1747 
Q 353 2609 779 3096 
Q 1206 3584 1959 3584 
z
" transform="scale(0.015625)"/>
       <path id="DejaVuSans-66" d="M 2375 4863 
L 2375 4384 
L 1825 4384 
Q 1516 4384 1395 4259 
Q 1275 4134 1275 3809 
L 1275 3500 
L 2222 3500 
L 2222 3053 
L 1275 3053 
L 1275 0 
L 697 0 
L 697 3053 
L 147 3053 
L 147 3500 
L 697 3500 
L 697 3744 
Q 697 4328 969 4595 
Q 1241 4863 1831 4863 
L 2375 4863 
z
" transform="scale(0.015625)"/>
       <path id="DejaVuSans-Oblique-54" d="M 378 4666 
L 4325 4666 
L 4225 4134 
L 2559 4134 
L 1759 0 
L 1125 0 
L 1925 4134 
L 275 4134 
L 378 4666 
z
" transform="scale(0.015625)"/>
      </defs>
      <use xlink:href="#DejaVuSans-45" transform="translate(0 0.015625)"/>
      <use xlink:href="#DejaVuSans-76" transform="translate(63.183594 0.015625)"/>
      <use xlink:href="#DejaVuSans-65" transform="translate(122.363281 0.015625)"/>
      <use xlink:href="#DejaVuSans-6e" transform="translate(183.886719 0.015625)"/>
      <use xlink:href="#DejaVuSans-20" transform="translate(247.265625 0.015625)"/>
      <use xlink:href="#DejaVuSans-69" transform="translate(279.052734 0.015625)"/>
      <use xlink:href="#DejaVuSans-6d" transform="translate(306.835938 0.015625)"/>
      <use xlink:href="#DejaVuSans-61" transform="translate(404.248047 0.015625)"/>
      <use xlink:href="#DejaVuSans-67" transform="translate(465.527344 0.015625)"/>
      <use xlink:href="#DejaVuSans-65" transform="translate(529.003906 0.015625)"/>
      <use xlink:href="#DejaVuSans-73" transform="translate(590.527344 0.015625)"/>
      <use xlink:href="#DejaVuSans-20" transform="translate(642.626953 0.015625)"/>
      <use xlink:href="#DejaVuSans-6f" transform="translate(674.414062 0.015625)"/>
      <use xlink:href="#DejaVuSans-66" transform="translate(735.595703 0.015625)"/>
      <use xlink:href="#DejaVuSans-20" transform="translate(770.800781 0.015625)"/>
      <use xlink:href="#DejaVuSans-Oblique-54" transform="translate(802.587891 0.015625)"/>
     </g>
    </g>
    <g id="line2d_14">
     <g>
      <use xlink:href="#mc58f891ad8" x="29.8" y="276.121875" style="fill: #b3b3ff; stroke: #000000"/>
     </g>
    </g>
    <g id="text_2">
     <!-- Odd images of $T$ -->
     <g transform="translate(47.8 279.621875) scale(0.1 -0.1)">
      <defs>
       <path id="DejaVuSans-4f" d="M 2522 4238 
Q 1834 4238 1429 3725 
Q 1025 3213 1025 2328 
Q 1025 1447 1429 934 
Q 1834 422 2522 422 
Q 3209 422 3611 934 
Q 4013 1447 4013 2328 
Q 4013 3213 3611 3725 
Q 3209 4238 2522 4238 
z
M 2522 4750 
Q 3503 4750 4090 4092 
Q 4678 3434 4678 2328 
Q 4678 1225 4090 567 
Q 3503 -91 2522 -91 
Q 1538 -91 948 565 
Q 359 1222 359 2328 
Q 359 3434 948 4092 
Q 1538 4750 2522 4750 
z
" transform="scale(0.015625)"/>
       <path id="DejaVuSans-64" d="M 2906 2969 
L 2906 4863 
L 3481 4863 
L 3481 0 
L 2906 0 
L 2906 525 
Q 2725 213 2448 61 
Q 2172 -91 1784 -91 
Q 1150 -91 751 415 
Q 353 922 353 1747 
Q 353 2572 751 3078 
Q 1150 3584 1784 3584 
Q 2172 3584 2448 3432 
Q 2725 3281 2906 2969 
z
M 947 1747 
Q 947 1113 1208 752 
Q 1469 391 1925 391 
Q 2381 391 2643 752 
Q 2906 1113 2906 1747 
Q 2906 2381 2643 2742 
Q 2381 3103 1925 3103 
Q 1469 3103 1208 2742 
Q 947 2381 947 1747 
z
" transform="scale(0.015625)"/>
      </defs>
      <use xlink:href="#DejaVuSans-4f" transform="translate(0 0.015625)"/>
      <use xlink:href="#DejaVuSans-64" transform="translate(78.710938 0.015625)"/>
      <use xlink:href="#DejaVuSans-64" transform="translate(142.1875 0.015625)"/>
      <use xlink:href="#DejaVuSans-20" transform="translate(205.664062 0.015625)"/>
      <use xlink:href="#DejaVuSans-69" transform="translate(237.451172 0.015625)"/>
      <use xlink:href="#DejaVuSans-6d" transform="translate(265.234375 0.015625)"/>
      <use xlink:href="#DejaVuSans-61" transform="translate(362.646484 0.015625)"/>
      <use xlink:href="#DejaVuSans-67" transform="translate(423.925781 0.015625)"/>
      <use xlink:href="#DejaVuSans-65" transform="translate(487.402344 0.015625)"/>
      <use xlink:href="#DejaVuSans-73" transform="translate(548.925781 0.015625)"/>
      <use xlink:href="#DejaVuSans-20" transform="translate(601.025391 0.015625)"/>
      <use xlink:href="#DejaVuSans-6f" transform="translate(632.8125 0.015625)"/>
      <use xlink:href="#DejaVuSans-66" transform="translate(693.994141 0.015625)"/>
      <use xlink:href="#DejaVuSans-20" transform="translate(729.199219 0.015625)"/>
      <use xlink:href="#DejaVuSans-Oblique-54" transform="translate(760.986328 0.015625)"/>
     </g>
    </g>
    <g id="line2d_15">
     <g>
      <use xlink:href="#m6f913c7438" x="29.8" y="290.820312" style="fill: #ff0000; stroke: #000000"/>
     </g>
    </g>
    <g id="text_3">
     <!-- Assassin -->
     <g transform="translate(47.8 294.320312) scale(0.1 -0.1)">
      <defs>
       <path id="DejaVuSans-41" d="M 2188 4044 
L 1331 1722 
L 3047 1722 
L 2188 4044 
z
M 1831 4666 
L 2547 4666 
L 4325 0 
L 3669 0 
L 3244 1197 
L 1141 1197 
L 716 0 
L 50 0 
L 1831 4666 
z
" transform="scale(0.015625)"/>
      </defs>
      <use xlink:href="#DejaVuSans-41"/>
      <use xlink:href="#DejaVuSans-73" x="68.408203"/>
      <use xlink:href="#DejaVuSans-73" x="120.507812"/>
      <use xlink:href="#DejaVuSans-61" x="172.607422"/>
      <use xlink:href="#DejaVuSans-73" x="233.886719"/>
      <use xlink:href="#DejaVuSans-73" x="285.986328"/>
      <use xlink:href="#DejaVuSans-69" x="338.085938"/>
      <use xlink:href="#DejaVuSans-6e" x="365.869141"/>
     </g>
    </g>
    <g id="line2d_16">
     <g>
      <use xlink:href="#m91ad73948e" x="29.8" y="305.5" style="fill: #fbd2ff; stroke: #000000"/>
     </g>
    </g>
    <g id="text_4">
     <!-- Even images of $G$ -->
     <g transform="translate(47.8 309) scale(0.1 -0.1)">
      <defs>
       <path id="DejaVuSans-Oblique-47" d="M 3494 697 
L 3738 1919 
L 2700 1919 
L 2797 2438 
L 4453 2438 
L 4050 384 
Q 3634 156 3143 32 
Q 2653 -91 2156 -91 
Q 1278 -91 783 396 
Q 288 884 288 1753 
Q 288 2475 589 3126 
Q 891 3778 1422 4213 
Q 1756 4484 2153 4617 
Q 2550 4750 3034 4750 
Q 3472 4750 3873 4639 
Q 4275 4528 4641 4306 
L 4513 3634 
Q 4231 3928 3853 4083 
Q 3475 4238 3047 4238 
Q 2550 4238 2172 4048 
Q 1794 3859 1497 3463 
Q 1244 3125 1098 2667 
Q 953 2209 953 1734 
Q 953 1081 1287 751 
Q 1622 422 2284 422 
Q 2616 422 2925 492 
Q 3234 563 3494 697 
z
" transform="scale(0.015625)"/>
      </defs>
      <use xlink:href="#DejaVuSans-45" transform="translate(0 0.015625)"/>
      <use xlink:href="#DejaVuSans-76" transform="translate(63.183594 0.015625)"/>
      <use xlink:href="#DejaVuSans-65" transform="translate(122.363281 0.015625)"/>
      <use xlink:href="#DejaVuSans-6e" transform="translate(183.886719 0.015625)"/>
      <use xlink:href="#DejaVuSans-20" transform="translate(247.265625 0.015625)"/>
      <use xlink:href="#DejaVuSans-69" transform="translate(279.052734 0.015625)"/>
      <use xlink:href="#DejaVuSans-6d" transform="translate(306.835938 0.015625)"/>
      <use xlink:href="#DejaVuSans-61" transform="translate(404.248047 0.015625)"/>
      <use xlink:href="#DejaVuSans-67" transform="translate(465.527344 0.015625)"/>
      <use xlink:href="#DejaVuSans-65" transform="translate(529.003906 0.015625)"/>
      <use xlink:href="#DejaVuSans-73" transform="translate(590.527344 0.015625)"/>
      <use xlink:href="#DejaVuSans-20" transform="translate(642.626953 0.015625)"/>
      <use xlink:href="#DejaVuSans-6f" transform="translate(674.414062 0.015625)"/>
      <use xlink:href="#DejaVuSans-66" transform="translate(735.595703 0.015625)"/>
      <use xlink:href="#DejaVuSans-20" transform="translate(770.800781 0.015625)"/>
      <use xlink:href="#DejaVuSans-Oblique-47" transform="translate(802.587891 0.015625)"/>
     </g>
    </g>
    <g id="line2d_17">
     <g>
      <use xlink:href="#m4ee880a581" x="29.8" y="320.2" style="fill: #b3b3ff; stroke: #000000"/>
     </g>
    </g>
    <g id="text_5">
     <!-- Odd images of $G$ -->
     <g transform="translate(47.8 323.7) scale(0.1 -0.1)">
      <use xlink:href="#DejaVuSans-4f" transform="translate(0 0.015625)"/>
      <use xlink:href="#DejaVuSans-64" transform="translate(78.710938 0.015625)"/>
      <use xlink:href="#DejaVuSans-64" transform="translate(142.1875 0.015625)"/>
      <use xlink:href="#DejaVuSans-20" transform="translate(205.664062 0.015625)"/>
      <use xlink:href="#DejaVuSans-69" transform="translate(237.451172 0.015625)"/>
      <use xlink:href="#DejaVuSans-6d" transform="translate(265.234375 0.015625)"/>
      <use xlink:href="#DejaVuSans-61" transform="translate(362.646484 0.015625)"/>
      <use xlink:href="#DejaVuSans-67" transform="translate(423.925781 0.015625)"/>
      <use xlink:href="#DejaVuSans-65" transform="translate(487.402344 0.015625)"/>
      <use xlink:href="#DejaVuSans-73" transform="translate(548.925781 0.015625)"/>
      <use xlink:href="#DejaVuSans-20" transform="translate(601.025391 0.015625)"/>
      <use xlink:href="#DejaVuSans-6f" transform="translate(632.8125 0.015625)"/>
      <use xlink:href="#DejaVuSans-66" transform="translate(693.994141 0.015625)"/>
      <use xlink:href="#DejaVuSans-20" transform="translate(729.199219 0.015625)"/>
      <use xlink:href="#DejaVuSans-Oblique-47" transform="translate(760.986328 0.015625)"/>
     </g>
    </g>
   </g>
  </g>
 </g>
 <defs>
  <clipPath id="p0a5baa62bb">
   <rect x="10.8" y="10.8" width="439.2" height="324"/>
  </clipPath>
 </defs>
</svg>
