<?xml version="1.0" encoding="utf-8" standalone="no"?>
<!DOCTYPE svg PUBLIC "-//W3C//DTD SVG 1.1//EN"
  "http://www.w3.org/Graphics/SVG/1.1/DTD/svg11.dtd">
<svg xmlns:xlink="http://www.w3.org/1999/xlink" width="460.8pt" height="345.6pt" viewBox="0 0 460.8 345.6" xmlns="http://www.w3.org/2000/svg" version="1.1">
 <metadata>
  <rdf:RDF xmlns:dc="http://purl.org/dc/elements/1.1/" xmlns:cc="http://creativecommons.org/ns#" xmlns:rdf="http://www.w3.org/1999/02/22-rdf-syntax-ns#">
   <cc:Work>
    <dc:type rdf:resource="http://purl.org/dc/dcmitype/StillImage"/>
    <dc:date>2024-03-13T22:16:38.936008</dc:date>
    <dc:format>image/svg+xml</dc:format>
    <dc:creator>
     <cc:Agent>
      <dc:title>Matplotlib v3.7.1, https://matplotlib.org/</dc:title>
     </cc:Agent>
    </dc:creator>
   </cc:Work>
  </rdf:RDF>
 </metadata>
 <defs>
  <style type="text/css">*{stroke-linejoin: round; stroke-linecap: butt}</style>
 </defs>
 <g id="figure_1">
  <g id="patch_1">
   <path d="M 0 345.6 
L 460.8 345.6 
L 460.8 0 
L 0 0 
z
" style="fill: #ffffff"/>
  </g>
  <g id="axes_1">
   <g id="patch_2">
    <path d="M 74.630769 328.569231 
L 386.169231 328.569231 
L 386.169231 17.030769 
L 74.630769 17.030769 
z
" clip-path="url(#p7920921e9a)" style="fill: #fbd2ff; stroke: #000000; stroke-linejoin: miter"/>
   </g>
   <g id="line2d_1">
    <path d="M 159.282503 128.079558 
L 386.169231 89.299715 
L 74.630769 36.051061 
L 185.911562 17.030769 
L 386.169231 51.259131 
L 165.220101 89.070986 
" clip-path="url(#p7920921e9a)" style="fill: none; stroke: #808080; stroke-width: 0.5; stroke-linecap: square"/>
   </g>
   <g id="line2d_2">
    <path d="M 165.220101 89.070986 
L 74.630769 104.507785 
L 386.169231 157.756439 
L 74.630769 211.005093 
L 386.169231 264.253747 
L 340.461166 272.159992 
" clip-path="url(#p7920921e9a)" style="fill: none; stroke-dasharray: 1.85,0.8; stroke-dashoffset: 0; stroke: #808080; stroke-width: 0.5"/>
   </g>
   <g id="line2d_3">
    <defs>
     <path id="m1dfae3d7da" d="M 0 4 
C 1.060812 4 2.078319 3.578535 2.828427 2.828427 
C 3.578535 2.078319 4 1.060812 4 0 
C 4 -1.060812 3.578535 -2.078319 2.828427 -2.828427 
C 2.078319 -3.578535 1.060812 -4 0 -4 
C -1.060812 -4 -2.078319 -3.578535 -2.828427 -2.828427 
C -3.578535 -2.078319 -4 -1.060812 -4 0 
C -4 1.060812 -3.578535 2.078319 -2.828427 2.828427 
C -2.078319 3.578535 -1.060812 4 0 4 
z
" style="stroke: #000000"/>
    </defs>
    <g clip-path="url(#p7920921e9a)">
     <use xlink:href="#m1dfae3d7da" x="159.282503" y="128.079558" style="fill: #ff0000; stroke: #000000"/>
    </g>
   </g>
   <g id="line2d_4">
    <defs>
     <path id="m087d64e4f6" d="M 0 2.5 
C 0.663008 2.5 1.29895 2.236584 1.767767 1.767767 
C 2.236584 1.29895 2.5 0.663008 2.5 0 
C 2.5 -0.663008 2.236584 -1.29895 1.767767 -1.767767 
C 1.29895 -2.236584 0.663008 -2.5 0 -2.5 
C -0.663008 -2.5 -1.29895 -2.236584 -1.767767 -1.767767 
C -2.236584 -1.29895 -2.5 -0.663008 -2.5 0 
C -2.5 0.663008 -2.236584 1.29895 -1.767767 1.767767 
C -1.29895 2.236584 -0.663008 2.5 0 2.5 
z
" style="stroke: #000000"/>
    </defs>
    <g clip-path="url(#p7920921e9a)">
     <use xlink:href="#m087d64e4f6" x="249.871835" y="200.119775" style="fill: #00bfbf; stroke: #000000"/>
     <use xlink:href="#m087d64e4f6" x="249.871835" y="145.480225" style="fill: #00bfbf; stroke: #000000"/>
     <use xlink:href="#m087d64e4f6" x="210.928165" y="200.119775" style="fill: #00bfbf; stroke: #000000"/>
     <use xlink:href="#m087d64e4f6" x="210.928165" y="145.480225" style="fill: #00bfbf; stroke: #000000"/>
     <use xlink:href="#m087d64e4f6" x="165.220101" y="200.119775" style="fill: #00bfbf; stroke: #000000"/>
     <use xlink:href="#m087d64e4f6" x="165.220101" y="145.480225" style="fill: #00bfbf; stroke: #000000"/>
     <use xlink:href="#m087d64e4f6" x="295.579899" y="200.119775" style="fill: #00bfbf; stroke: #000000"/>
     <use xlink:href="#m087d64e4f6" x="295.579899" y="145.480225" style="fill: #00bfbf; stroke: #000000"/>
     <use xlink:href="#m087d64e4f6" x="165.220101" y="256.529014" style="fill: #00bfbf; stroke: #000000"/>
     <use xlink:href="#m087d64e4f6" x="165.220101" y="89.070986" style="fill: #00bfbf; stroke: #000000"/>
     <use xlink:href="#m087d64e4f6" x="295.579899" y="256.529014" style="fill: #00bfbf; stroke: #000000"/>
     <use xlink:href="#m087d64e4f6" x="295.579899" y="89.070986" style="fill: #00bfbf; stroke: #000000"/>
     <use xlink:href="#m087d64e4f6" x="249.871835" y="256.529014" style="fill: #00bfbf; stroke: #000000"/>
     <use xlink:href="#m087d64e4f6" x="249.871835" y="89.070986" style="fill: #00bfbf; stroke: #000000"/>
     <use xlink:href="#m087d64e4f6" x="210.928165" y="256.529014" style="fill: #00bfbf; stroke: #000000"/>
     <use xlink:href="#m087d64e4f6" x="210.928165" y="89.070986" style="fill: #00bfbf; stroke: #000000"/>
    </g>
   </g>
   <g id="line2d_5">
    <defs>
     <path id="m7b6178cde0" d="M 0 4 
C 1.060812 4 2.078319 3.578535 2.828427 2.828427 
C 3.578535 2.078319 4 1.060812 4 0 
C 4 -1.060812 3.578535 -2.078319 2.828427 -2.828427 
C 2.078319 -3.578535 1.060812 -4 0 -4 
C -1.060812 -4 -2.078319 -3.578535 -2.828427 -2.828427 
C -3.578535 -2.078319 -4 -1.060812 -4 0 
C -4 1.060812 -3.578535 2.078319 -2.828427 2.828427 
C -2.078319 3.578535 -1.060812 4 0 4 
z
" style="stroke: #000000"/>
    </defs>
    <g clip-path="url(#p7920921e9a)">
     <use xlink:href="#m7b6178cde0" x="340.461166" y="272.159992" style="fill: #0000ff; stroke: #000000"/>
    </g>
   </g>
  </g>
 </g>
 <defs>
  <clipPath id="p7920921e9a">
   <rect x="68.4" y="10.8" width="324" height="324"/>
  </clipPath>
 </defs>
</svg>
