<?xml version="1.0" encoding="utf-8" standalone="no"?>
<!DOCTYPE svg PUBLIC "-//W3C//DTD SVG 1.1//EN"
  "http://www.w3.org/Graphics/SVG/1.1/DTD/svg11.dtd">
<svg xmlns:xlink="http://www.w3.org/1999/xlink" width="280.512pt" height="280.512pt" viewBox="0 0 280.512 280.512" xmlns="http://www.w3.org/2000/svg" version="1.1">
 <metadata>
  <rdf:RDF xmlns:dc="http://purl.org/dc/elements/1.1/" xmlns:cc="http://creativecommons.org/ns#" xmlns:rdf="http://www.w3.org/1999/02/22-rdf-syntax-ns#">
   <cc:Work>
    <dc:type rdf:resource="http://purl.org/dc/dcmitype/StillImage"/>
    <dc:date>2024-03-08T10:19:15.262710</dc:date>
    <dc:format>image/svg+xml</dc:format>
    <dc:creator>
     <cc:Agent>
      <dc:title>Matplotlib v3.7.1, https://matplotlib.org/</dc:title>
     </cc:Agent>
    </dc:creator>
   </cc:Work>
  </rdf:RDF>
 </metadata>
 <defs>
  <style type="text/css">*{stroke-linejoin: round; stroke-linecap: butt}</style>
 </defs>
 <g id="figure_1">
  <g id="patch_1">
   <path d="M 0 280.512 
L 280.512 280.512 
L 280.512 0 
L 0 0 
z
" style="fill: #ffffff"/>
  </g>
  <g id="axes_1">
   <g id="patch_2">
    <path d="M 8.842667 271.669333 
L 41.696 271.669333 
L 41.696 238.816 
L 8.842667 238.816 
z
" clip-path="url(#pb4e23e2670)" style="fill: #fbd2ff; stroke: #fbd2ff; stroke-linejoin: miter"/>
   </g>
   <g id="patch_3">
    <path d="M 8.842667 238.816 
L 41.696 238.816 
L 41.696 205.962667 
L 8.842667 205.962667 
z
" clip-path="url(#pb4e23e2670)" style="fill: #ffe0b1; stroke: #ffe0b1; stroke-linejoin: miter"/>
   </g>
   <g id="patch_4">
    <path d="M 8.842667 205.962667 
L 41.696 205.962667 
L 41.696 173.109333 
L 8.842667 173.109333 
z
" clip-path="url(#pb4e23e2670)" style="fill: #fbd2ff; stroke: #fbd2ff; stroke-linejoin: miter"/>
   </g>
   <g id="patch_5">
    <path d="M 8.842667 173.109333 
L 41.696 173.109333 
L 41.696 140.256 
L 8.842667 140.256 
z
" clip-path="url(#pb4e23e2670)" style="fill: #ffe0b1; stroke: #ffe0b1; stroke-linejoin: miter"/>
   </g>
   <g id="patch_6">
    <path d="M 8.842667 140.256 
L 41.696 140.256 
L 41.696 107.402667 
L 8.842667 107.402667 
z
" clip-path="url(#pb4e23e2670)" style="fill: #fbd2ff; stroke: #fbd2ff; stroke-linejoin: miter"/>
   </g>
   <g id="patch_7">
    <path d="M 8.842667 107.402667 
L 41.696 107.402667 
L 41.696 74.549333 
L 8.842667 74.549333 
z
" clip-path="url(#pb4e23e2670)" style="fill: #ffe0b1; stroke: #ffe0b1; stroke-linejoin: miter"/>
   </g>
   <g id="patch_8">
    <path d="M 8.842667 74.549333 
L 41.696 74.549333 
L 41.696 41.696 
L 8.842667 41.696 
z
" clip-path="url(#pb4e23e2670)" style="fill: #fbd2ff; stroke: #fbd2ff; stroke-linejoin: miter"/>
   </g>
   <g id="patch_9">
    <path d="M 8.842667 41.696 
L 41.696 41.696 
L 41.696 8.842667 
L 8.842667 8.842667 
z
" clip-path="url(#pb4e23e2670)" style="fill: #ffe0b1; stroke: #ffe0b1; stroke-linejoin: miter"/>
   </g>
   <g id="patch_10">
    <path d="M 41.696 271.669333 
L 74.549333 271.669333 
L 74.549333 238.816 
L 41.696 238.816 
z
" clip-path="url(#pb4e23e2670)" style="fill: #b3b3ff; stroke: #b3b3ff; stroke-linejoin: miter"/>
   </g>
   <g id="patch_11">
    <path d="M 41.696 238.816 
L 74.549333 238.816 
L 74.549333 205.962667 
L 41.696 205.962667 
z
" clip-path="url(#pb4e23e2670)" style="fill: #a2fff0; stroke: #a2fff0; stroke-linejoin: miter"/>
   </g>
   <g id="patch_12">
    <path d="M 41.696 205.962667 
L 74.549333 205.962667 
L 74.549333 173.109333 
L 41.696 173.109333 
z
" clip-path="url(#pb4e23e2670)" style="fill: #b3b3ff; stroke: #b3b3ff; stroke-linejoin: miter"/>
   </g>
   <g id="patch_13">
    <path d="M 41.696 173.109333 
L 74.549333 173.109333 
L 74.549333 140.256 
L 41.696 140.256 
z
" clip-path="url(#pb4e23e2670)" style="fill: #a2fff0; stroke: #a2fff0; stroke-linejoin: miter"/>
   </g>
   <g id="patch_14">
    <path d="M 41.696 140.256 
L 74.549333 140.256 
L 74.549333 107.402667 
L 41.696 107.402667 
z
" clip-path="url(#pb4e23e2670)" style="fill: #b3b3ff; stroke: #b3b3ff; stroke-linejoin: miter"/>
   </g>
   <g id="patch_15">
    <path d="M 41.696 107.402667 
L 74.549333 107.402667 
L 74.549333 74.549333 
L 41.696 74.549333 
z
" clip-path="url(#pb4e23e2670)" style="fill: #a2fff0; stroke: #a2fff0; stroke-linejoin: miter"/>
   </g>
   <g id="patch_16">
    <path d="M 41.696 74.549333 
L 74.549333 74.549333 
L 74.549333 41.696 
L 41.696 41.696 
z
" clip-path="url(#pb4e23e2670)" style="fill: #b3b3ff; stroke: #b3b3ff; stroke-linejoin: miter"/>
   </g>
   <g id="patch_17">
    <path d="M 41.696 41.696 
L 74.549333 41.696 
L 74.549333 8.842667 
L 41.696 8.842667 
z
" clip-path="url(#pb4e23e2670)" style="fill: #a2fff0; stroke: #a2fff0; stroke-linejoin: miter"/>
   </g>
   <g id="patch_18">
    <path d="M 74.549333 271.669333 
L 107.402667 271.669333 
L 107.402667 238.816 
L 74.549333 238.816 
z
" clip-path="url(#pb4e23e2670)" style="fill: #fbd2ff; stroke: #fbd2ff; stroke-linejoin: miter"/>
   </g>
   <g id="patch_19">
    <path d="M 74.549333 238.816 
L 107.402667 238.816 
L 107.402667 205.962667 
L 74.549333 205.962667 
z
" clip-path="url(#pb4e23e2670)" style="fill: #ffe0b1; stroke: #ffe0b1; stroke-linejoin: miter"/>
   </g>
   <g id="patch_20">
    <path d="M 74.549333 205.962667 
L 107.402667 205.962667 
L 107.402667 173.109333 
L 74.549333 173.109333 
z
" clip-path="url(#pb4e23e2670)" style="fill: #fbd2ff; stroke: #fbd2ff; stroke-linejoin: miter"/>
   </g>
   <g id="patch_21">
    <path d="M 74.549333 173.109333 
L 107.402667 173.109333 
L 107.402667 140.256 
L 74.549333 140.256 
z
" clip-path="url(#pb4e23e2670)" style="fill: #ffe0b1; stroke: #ffe0b1; stroke-linejoin: miter"/>
   </g>
   <g id="patch_22">
    <path d="M 74.549333 140.256 
L 107.402667 140.256 
L 107.402667 107.402667 
L 74.549333 107.402667 
z
" clip-path="url(#pb4e23e2670)" style="fill: #fbd2ff; stroke: #fbd2ff; stroke-linejoin: miter"/>
   </g>
   <g id="patch_23">
    <path d="M 74.549333 107.402667 
L 107.402667 107.402667 
L 107.402667 74.549333 
L 74.549333 74.549333 
z
" clip-path="url(#pb4e23e2670)" style="fill: #ffe0b1; stroke: #ffe0b1; stroke-linejoin: miter"/>
   </g>
   <g id="patch_24">
    <path d="M 74.549333 74.549333 
L 107.402667 74.549333 
L 107.402667 41.696 
L 74.549333 41.696 
z
" clip-path="url(#pb4e23e2670)" style="fill: #fbd2ff; stroke: #fbd2ff; stroke-linejoin: miter"/>
   </g>
   <g id="patch_25">
    <path d="M 74.549333 41.696 
L 107.402667 41.696 
L 107.402667 8.842667 
L 74.549333 8.842667 
z
" clip-path="url(#pb4e23e2670)" style="fill: #ffe0b1; stroke: #ffe0b1; stroke-linejoin: miter"/>
   </g>
   <g id="patch_26">
    <path d="M 107.402667 271.669333 
L 140.256 271.669333 
L 140.256 238.816 
L 107.402667 238.816 
z
" clip-path="url(#pb4e23e2670)" style="fill: #b3b3ff; stroke: #b3b3ff; stroke-linejoin: miter"/>
   </g>
   <g id="patch_27">
    <path d="M 107.402667 238.816 
L 140.256 238.816 
L 140.256 205.962667 
L 107.402667 205.962667 
z
" clip-path="url(#pb4e23e2670)" style="fill: #a2fff0; stroke: #a2fff0; stroke-linejoin: miter"/>
   </g>
   <g id="patch_28">
    <path d="M 107.402667 205.962667 
L 140.256 205.962667 
L 140.256 173.109333 
L 107.402667 173.109333 
z
" clip-path="url(#pb4e23e2670)" style="fill: #b3b3ff; stroke: #b3b3ff; stroke-linejoin: miter"/>
   </g>
   <g id="patch_29">
    <path d="M 107.402667 173.109333 
L 140.256 173.109333 
L 140.256 140.256 
L 107.402667 140.256 
z
" clip-path="url(#pb4e23e2670)" style="fill: #a2fff0; stroke: #a2fff0; stroke-linejoin: miter"/>
   </g>
   <g id="patch_30">
    <path d="M 107.402667 140.256 
L 140.256 140.256 
L 140.256 107.402667 
L 107.402667 107.402667 
z
" clip-path="url(#pb4e23e2670)" style="fill: #b3b3ff; stroke: #b3b3ff; stroke-linejoin: miter"/>
   </g>
   <g id="patch_31">
    <path d="M 107.402667 107.402667 
L 140.256 107.402667 
L 140.256 74.549333 
L 107.402667 74.549333 
z
" clip-path="url(#pb4e23e2670)" style="fill: #a2fff0; stroke: #a2fff0; stroke-linejoin: miter"/>
   </g>
   <g id="patch_32">
    <path d="M 107.402667 74.549333 
L 140.256 74.549333 
L 140.256 41.696 
L 107.402667 41.696 
z
" clip-path="url(#pb4e23e2670)" style="fill: #b3b3ff; stroke: #b3b3ff; stroke-linejoin: miter"/>
   </g>
   <g id="patch_33">
    <path d="M 107.402667 41.696 
L 140.256 41.696 
L 140.256 8.842667 
L 107.402667 8.842667 
z
" clip-path="url(#pb4e23e2670)" style="fill: #a2fff0; stroke: #a2fff0; stroke-linejoin: miter"/>
   </g>
   <g id="patch_34">
    <path d="M 140.256 271.669333 
L 173.109333 271.669333 
L 173.109333 238.816 
L 140.256 238.816 
z
" clip-path="url(#pb4e23e2670)" style="fill: #fbd2ff; stroke: #fbd2ff; stroke-linejoin: miter"/>
   </g>
   <g id="patch_35">
    <path d="M 140.256 238.816 
L 173.109333 238.816 
L 173.109333 205.962667 
L 140.256 205.962667 
z
" clip-path="url(#pb4e23e2670)" style="fill: #ffe0b1; stroke: #ffe0b1; stroke-linejoin: miter"/>
   </g>
   <g id="patch_36">
    <path d="M 140.256 205.962667 
L 173.109333 205.962667 
L 173.109333 173.109333 
L 140.256 173.109333 
z
" clip-path="url(#pb4e23e2670)" style="fill: #fbd2ff; stroke: #fbd2ff; stroke-linejoin: miter"/>
   </g>
   <g id="patch_37">
    <path d="M 140.256 173.109333 
L 173.109333 173.109333 
L 173.109333 140.256 
L 140.256 140.256 
z
" clip-path="url(#pb4e23e2670)" style="fill: #ffe0b1; stroke: #ffe0b1; stroke-linejoin: miter"/>
   </g>
   <g id="patch_38">
    <path d="M 140.256 140.256 
L 173.109333 140.256 
L 173.109333 107.402667 
L 140.256 107.402667 
z
" clip-path="url(#pb4e23e2670)" style="fill: #fbd2ff; stroke: #fbd2ff; stroke-linejoin: miter"/>
   </g>
   <g id="patch_39">
    <path d="M 140.256 107.402667 
L 173.109333 107.402667 
L 173.109333 74.549333 
L 140.256 74.549333 
z
" clip-path="url(#pb4e23e2670)" style="fill: #ffe0b1; stroke: #ffe0b1; stroke-linejoin: miter"/>
   </g>
   <g id="patch_40">
    <path d="M 140.256 74.549333 
L 173.109333 74.549333 
L 173.109333 41.696 
L 140.256 41.696 
z
" clip-path="url(#pb4e23e2670)" style="fill: #fbd2ff; stroke: #fbd2ff; stroke-linejoin: miter"/>
   </g>
   <g id="patch_41">
    <path d="M 140.256 41.696 
L 173.109333 41.696 
L 173.109333 8.842667 
L 140.256 8.842667 
z
" clip-path="url(#pb4e23e2670)" style="fill: #ffe0b1; stroke: #ffe0b1; stroke-linejoin: miter"/>
   </g>
   <g id="patch_42">
    <path d="M 173.109333 271.669333 
L 205.962667 271.669333 
L 205.962667 238.816 
L 173.109333 238.816 
z
" clip-path="url(#pb4e23e2670)" style="fill: #b3b3ff; stroke: #b3b3ff; stroke-linejoin: miter"/>
   </g>
   <g id="patch_43">
    <path d="M 173.109333 238.816 
L 205.962667 238.816 
L 205.962667 205.962667 
L 173.109333 205.962667 
z
" clip-path="url(#pb4e23e2670)" style="fill: #a2fff0; stroke: #a2fff0; stroke-linejoin: miter"/>
   </g>
   <g id="patch_44">
    <path d="M 173.109333 205.962667 
L 205.962667 205.962667 
L 205.962667 173.109333 
L 173.109333 173.109333 
z
" clip-path="url(#pb4e23e2670)" style="fill: #b3b3ff; stroke: #b3b3ff; stroke-linejoin: miter"/>
   </g>
   <g id="patch_45">
    <path d="M 173.109333 173.109333 
L 205.962667 173.109333 
L 205.962667 140.256 
L 173.109333 140.256 
z
" clip-path="url(#pb4e23e2670)" style="fill: #a2fff0; stroke: #a2fff0; stroke-linejoin: miter"/>
   </g>
   <g id="patch_46">
    <path d="M 173.109333 140.256 
L 205.962667 140.256 
L 205.962667 107.402667 
L 173.109333 107.402667 
z
" clip-path="url(#pb4e23e2670)" style="fill: #b3b3ff; stroke: #b3b3ff; stroke-linejoin: miter"/>
   </g>
   <g id="patch_47">
    <path d="M 173.109333 107.402667 
L 205.962667 107.402667 
L 205.962667 74.549333 
L 173.109333 74.549333 
z
" clip-path="url(#pb4e23e2670)" style="fill: #a2fff0; stroke: #a2fff0; stroke-linejoin: miter"/>
   </g>
   <g id="patch_48">
    <path d="M 173.109333 74.549333 
L 205.962667 74.549333 
L 205.962667 41.696 
L 173.109333 41.696 
z
" clip-path="url(#pb4e23e2670)" style="fill: #b3b3ff; stroke: #b3b3ff; stroke-linejoin: miter"/>
   </g>
   <g id="patch_49">
    <path d="M 173.109333 41.696 
L 205.962667 41.696 
L 205.962667 8.842667 
L 173.109333 8.842667 
z
" clip-path="url(#pb4e23e2670)" style="fill: #a2fff0; stroke: #a2fff0; stroke-linejoin: miter"/>
   </g>
   <g id="patch_50">
    <path d="M 205.962667 271.669333 
L 238.816 271.669333 
L 238.816 238.816 
L 205.962667 238.816 
z
" clip-path="url(#pb4e23e2670)" style="fill: #fbd2ff; stroke: #fbd2ff; stroke-linejoin: miter"/>
   </g>
   <g id="patch_51">
    <path d="M 205.962667 238.816 
L 238.816 238.816 
L 238.816 205.962667 
L 205.962667 205.962667 
z
" clip-path="url(#pb4e23e2670)" style="fill: #ffe0b1; stroke: #ffe0b1; stroke-linejoin: miter"/>
   </g>
   <g id="patch_52">
    <path d="M 205.962667 205.962667 
L 238.816 205.962667 
L 238.816 173.109333 
L 205.962667 173.109333 
z
" clip-path="url(#pb4e23e2670)" style="fill: #fbd2ff; stroke: #fbd2ff; stroke-linejoin: miter"/>
   </g>
   <g id="patch_53">
    <path d="M 205.962667 173.109333 
L 238.816 173.109333 
L 238.816 140.256 
L 205.962667 140.256 
z
" clip-path="url(#pb4e23e2670)" style="fill: #ffe0b1; stroke: #ffe0b1; stroke-linejoin: miter"/>
   </g>
   <g id="patch_54">
    <path d="M 205.962667 140.256 
L 238.816 140.256 
L 238.816 107.402667 
L 205.962667 107.402667 
z
" clip-path="url(#pb4e23e2670)" style="fill: #fbd2ff; stroke: #fbd2ff; stroke-linejoin: miter"/>
   </g>
   <g id="patch_55">
    <path d="M 205.962667 107.402667 
L 238.816 107.402667 
L 238.816 74.549333 
L 205.962667 74.549333 
z
" clip-path="url(#pb4e23e2670)" style="fill: #ffe0b1; stroke: #ffe0b1; stroke-linejoin: miter"/>
   </g>
   <g id="patch_56">
    <path d="M 205.962667 74.549333 
L 238.816 74.549333 
L 238.816 41.696 
L 205.962667 41.696 
z
" clip-path="url(#pb4e23e2670)" style="fill: #fbd2ff; stroke: #fbd2ff; stroke-linejoin: miter"/>
   </g>
   <g id="patch_57">
    <path d="M 205.962667 41.696 
L 238.816 41.696 
L 238.816 8.842667 
L 205.962667 8.842667 
z
" clip-path="url(#pb4e23e2670)" style="fill: #ffe0b1; stroke: #ffe0b1; stroke-linejoin: miter"/>
   </g>
   <g id="patch_58">
    <path d="M 238.816 271.669333 
L 271.669333 271.669333 
L 271.669333 238.816 
L 238.816 238.816 
z
" clip-path="url(#pb4e23e2670)" style="fill: #b3b3ff; stroke: #b3b3ff; stroke-linejoin: miter"/>
   </g>
   <g id="patch_59">
    <path d="M 238.816 238.816 
L 271.669333 238.816 
L 271.669333 205.962667 
L 238.816 205.962667 
z
" clip-path="url(#pb4e23e2670)" style="fill: #a2fff0; stroke: #a2fff0; stroke-linejoin: miter"/>
   </g>
   <g id="patch_60">
    <path d="M 238.816 205.962667 
L 271.669333 205.962667 
L 271.669333 173.109333 
L 238.816 173.109333 
z
" clip-path="url(#pb4e23e2670)" style="fill: #b3b3ff; stroke: #b3b3ff; stroke-linejoin: miter"/>
   </g>
   <g id="patch_61">
    <path d="M 238.816 173.109333 
L 271.669333 173.109333 
L 271.669333 140.256 
L 238.816 140.256 
z
" clip-path="url(#pb4e23e2670)" style="fill: #a2fff0; stroke: #a2fff0; stroke-linejoin: miter"/>
   </g>
   <g id="patch_62">
    <path d="M 238.816 140.256 
L 271.669333 140.256 
L 271.669333 107.402667 
L 238.816 107.402667 
z
" clip-path="url(#pb4e23e2670)" style="fill: #b3b3ff; stroke: #b3b3ff; stroke-linejoin: miter"/>
   </g>
   <g id="patch_63">
    <path d="M 238.816 107.402667 
L 271.669333 107.402667 
L 271.669333 74.549333 
L 238.816 74.549333 
z
" clip-path="url(#pb4e23e2670)" style="fill: #a2fff0; stroke: #a2fff0; stroke-linejoin: miter"/>
   </g>
   <g id="patch_64">
    <path d="M 238.816 74.549333 
L 271.669333 74.549333 
L 271.669333 41.696 
L 238.816 41.696 
z
" clip-path="url(#pb4e23e2670)" style="fill: #b3b3ff; stroke: #b3b3ff; stroke-linejoin: miter"/>
   </g>
   <g id="patch_65">
    <path d="M 238.816 41.696 
L 271.669333 41.696 
L 271.669333 8.842667 
L 238.816 8.842667 
z
" clip-path="url(#pb4e23e2670)" style="fill: #a2fff0; stroke: #a2fff0; stroke-linejoin: miter"/>
   </g>
   <g id="line2d_1">
    <path d="M 21.984 258.528 
L 21.984 251.957333 
L 28.554667 251.957333 
" clip-path="url(#pb4e23e2670)" style="fill: none; stroke: #000000; stroke-width: 0.8; stroke-linecap: square"/>
   </g>
   <g id="line2d_2">
    <path d="M 21.984 219.104 
L 21.984 225.674667 
L 28.554667 225.674667 
" clip-path="url(#pb4e23e2670)" style="fill: none; stroke: #000000; stroke-width: 0.8; stroke-linecap: square"/>
   </g>
   <g id="line2d_3">
    <path d="M 21.984 192.821333 
L 21.984 186.250667 
L 28.554667 186.250667 
" clip-path="url(#pb4e23e2670)" style="fill: none; stroke: #000000; stroke-width: 0.8; stroke-linecap: square"/>
   </g>
   <g id="line2d_4">
    <path d="M 21.984 153.397333 
L 21.984 159.968 
L 28.554667 159.968 
" clip-path="url(#pb4e23e2670)" style="fill: none; stroke: #000000; stroke-width: 0.8; stroke-linecap: square"/>
   </g>
   <g id="line2d_5">
    <path d="M 21.984 127.114667 
L 21.984 120.544 
L 28.554667 120.544 
" clip-path="url(#pb4e23e2670)" style="fill: none; stroke: #000000; stroke-width: 0.8; stroke-linecap: square"/>
   </g>
   <g id="line2d_6">
    <path d="M 21.984 87.690667 
L 21.984 94.261333 
L 28.554667 94.261333 
" clip-path="url(#pb4e23e2670)" style="fill: none; stroke: #000000; stroke-width: 0.8; stroke-linecap: square"/>
   </g>
   <g id="line2d_7">
    <path d="M 21.984 61.408 
L 21.984 54.837333 
L 28.554667 54.837333 
" clip-path="url(#pb4e23e2670)" style="fill: none; stroke: #000000; stroke-width: 0.8; stroke-linecap: square"/>
   </g>
   <g id="line2d_8">
    <path d="M 21.984 21.984 
L 21.984 28.554667 
L 28.554667 28.554667 
" clip-path="url(#pb4e23e2670)" style="fill: none; stroke: #000000; stroke-width: 0.8; stroke-linecap: square"/>
   </g>
   <g id="line2d_9">
    <path d="M 61.408 258.528 
L 61.408 251.957333 
L 54.837333 251.957333 
" clip-path="url(#pb4e23e2670)" style="fill: none; stroke: #000000; stroke-width: 0.8; stroke-linecap: square"/>
   </g>
   <g id="line2d_10">
    <path d="M 61.408 219.104 
L 61.408 225.674667 
L 54.837333 225.674667 
" clip-path="url(#pb4e23e2670)" style="fill: none; stroke: #000000; stroke-width: 0.8; stroke-linecap: square"/>
   </g>
   <g id="line2d_11">
    <path d="M 61.408 192.821333 
L 61.408 186.250667 
L 54.837333 186.250667 
" clip-path="url(#pb4e23e2670)" style="fill: none; stroke: #000000; stroke-width: 0.8; stroke-linecap: square"/>
   </g>
   <g id="line2d_12">
    <path d="M 61.408 153.397333 
L 61.408 159.968 
L 54.837333 159.968 
" clip-path="url(#pb4e23e2670)" style="fill: none; stroke: #000000; stroke-width: 0.8; stroke-linecap: square"/>
   </g>
   <g id="line2d_13">
    <path d="M 61.408 127.114667 
L 61.408 120.544 
L 54.837333 120.544 
" clip-path="url(#pb4e23e2670)" style="fill: none; stroke: #000000; stroke-width: 0.8; stroke-linecap: square"/>
   </g>
   <g id="line2d_14">
    <path d="M 61.408 87.690667 
L 61.408 94.261333 
L 54.837333 94.261333 
" clip-path="url(#pb4e23e2670)" style="fill: none; stroke: #000000; stroke-width: 0.8; stroke-linecap: square"/>
   </g>
   <g id="line2d_15">
    <path d="M 61.408 61.408 
L 61.408 54.837333 
L 54.837333 54.837333 
" clip-path="url(#pb4e23e2670)" style="fill: none; stroke: #000000; stroke-width: 0.8; stroke-linecap: square"/>
   </g>
   <g id="line2d_16">
    <path d="M 61.408 21.984 
L 61.408 28.554667 
L 54.837333 28.554667 
" clip-path="url(#pb4e23e2670)" style="fill: none; stroke: #000000; stroke-width: 0.8; stroke-linecap: square"/>
   </g>
   <g id="line2d_17">
    <path d="M 87.690667 258.528 
L 87.690667 251.957333 
L 94.261333 251.957333 
" clip-path="url(#pb4e23e2670)" style="fill: none; stroke: #000000; stroke-width: 0.8; stroke-linecap: square"/>
   </g>
   <g id="line2d_18">
    <path d="M 87.690667 219.104 
L 87.690667 225.674667 
L 94.261333 225.674667 
" clip-path="url(#pb4e23e2670)" style="fill: none; stroke: #000000; stroke-width: 0.8; stroke-linecap: square"/>
   </g>
   <g id="line2d_19">
    <path d="M 87.690667 192.821333 
L 87.690667 186.250667 
L 94.261333 186.250667 
" clip-path="url(#pb4e23e2670)" style="fill: none; stroke: #000000; stroke-width: 0.8; stroke-linecap: square"/>
   </g>
   <g id="line2d_20">
    <path d="M 87.690667 153.397333 
L 87.690667 159.968 
L 94.261333 159.968 
" clip-path="url(#pb4e23e2670)" style="fill: none; stroke: #000000; stroke-width: 0.8; stroke-linecap: square"/>
   </g>
   <g id="line2d_21">
    <path d="M 87.690667 127.114667 
L 87.690667 120.544 
L 94.261333 120.544 
" clip-path="url(#pb4e23e2670)" style="fill: none; stroke: #000000; stroke-width: 0.8; stroke-linecap: square"/>
   </g>
   <g id="line2d_22">
    <path d="M 87.690667 87.690667 
L 87.690667 94.261333 
L 94.261333 94.261333 
" clip-path="url(#pb4e23e2670)" style="fill: none; stroke: #000000; stroke-width: 0.8; stroke-linecap: square"/>
   </g>
   <g id="line2d_23">
    <path d="M 87.690667 61.408 
L 87.690667 54.837333 
L 94.261333 54.837333 
" clip-path="url(#pb4e23e2670)" style="fill: none; stroke: #000000; stroke-width: 0.8; stroke-linecap: square"/>
   </g>
   <g id="line2d_24">
    <path d="M 87.690667 21.984 
L 87.690667 28.554667 
L 94.261333 28.554667 
" clip-path="url(#pb4e23e2670)" style="fill: none; stroke: #000000; stroke-width: 0.8; stroke-linecap: square"/>
   </g>
   <g id="line2d_25">
    <path d="M 127.114667 258.528 
L 127.114667 251.957333 
L 120.544 251.957333 
" clip-path="url(#pb4e23e2670)" style="fill: none; stroke: #000000; stroke-width: 0.8; stroke-linecap: square"/>
   </g>
   <g id="line2d_26">
    <path d="M 127.114667 219.104 
L 127.114667 225.674667 
L 120.544 225.674667 
" clip-path="url(#pb4e23e2670)" style="fill: none; stroke: #000000; stroke-width: 0.8; stroke-linecap: square"/>
   </g>
   <g id="line2d_27">
    <path d="M 127.114667 192.821333 
L 127.114667 186.250667 
L 120.544 186.250667 
" clip-path="url(#pb4e23e2670)" style="fill: none; stroke: #000000; stroke-width: 0.8; stroke-linecap: square"/>
   </g>
   <g id="line2d_28">
    <path d="M 127.114667 153.397333 
L 127.114667 159.968 
L 120.544 159.968 
" clip-path="url(#pb4e23e2670)" style="fill: none; stroke: #000000; stroke-width: 0.8; stroke-linecap: square"/>
   </g>
   <g id="line2d_29">
    <path d="M 127.114667 127.114667 
L 127.114667 120.544 
L 120.544 120.544 
" clip-path="url(#pb4e23e2670)" style="fill: none; stroke: #000000; stroke-width: 0.8; stroke-linecap: square"/>
   </g>
   <g id="line2d_30">
    <path d="M 127.114667 87.690667 
L 127.114667 94.261333 
L 120.544 94.261333 
" clip-path="url(#pb4e23e2670)" style="fill: none; stroke: #000000; stroke-width: 0.8; stroke-linecap: square"/>
   </g>
   <g id="line2d_31">
    <path d="M 127.114667 61.408 
L 127.114667 54.837333 
L 120.544 54.837333 
" clip-path="url(#pb4e23e2670)" style="fill: none; stroke: #000000; stroke-width: 0.8; stroke-linecap: square"/>
   </g>
   <g id="line2d_32">
    <path d="M 127.114667 21.984 
L 127.114667 28.554667 
L 120.544 28.554667 
" clip-path="url(#pb4e23e2670)" style="fill: none; stroke: #000000; stroke-width: 0.8; stroke-linecap: square"/>
   </g>
   <g id="line2d_33">
    <path d="M 153.397333 258.528 
L 153.397333 251.957333 
L 159.968 251.957333 
" clip-path="url(#pb4e23e2670)" style="fill: none; stroke: #000000; stroke-width: 0.8; stroke-linecap: square"/>
   </g>
   <g id="line2d_34">
    <path d="M 153.397333 219.104 
L 153.397333 225.674667 
L 159.968 225.674667 
" clip-path="url(#pb4e23e2670)" style="fill: none; stroke: #000000; stroke-width: 0.8; stroke-linecap: square"/>
   </g>
   <g id="line2d_35">
    <path d="M 153.397333 192.821333 
L 153.397333 186.250667 
L 159.968 186.250667 
" clip-path="url(#pb4e23e2670)" style="fill: none; stroke: #000000; stroke-width: 0.8; stroke-linecap: square"/>
   </g>
   <g id="line2d_36">
    <path d="M 153.397333 153.397333 
L 153.397333 159.968 
L 159.968 159.968 
" clip-path="url(#pb4e23e2670)" style="fill: none; stroke: #000000; stroke-width: 0.8; stroke-linecap: square"/>
   </g>
   <g id="line2d_37">
    <path d="M 153.397333 127.114667 
L 153.397333 120.544 
L 159.968 120.544 
" clip-path="url(#pb4e23e2670)" style="fill: none; stroke: #000000; stroke-width: 0.8; stroke-linecap: square"/>
   </g>
   <g id="line2d_38">
    <path d="M 153.397333 87.690667 
L 153.397333 94.261333 
L 159.968 94.261333 
" clip-path="url(#pb4e23e2670)" style="fill: none; stroke: #000000; stroke-width: 0.8; stroke-linecap: square"/>
   </g>
   <g id="line2d_39">
    <path d="M 153.397333 61.408 
L 153.397333 54.837333 
L 159.968 54.837333 
" clip-path="url(#pb4e23e2670)" style="fill: none; stroke: #000000; stroke-width: 0.8; stroke-linecap: square"/>
   </g>
   <g id="line2d_40">
    <path d="M 153.397333 21.984 
L 153.397333 28.554667 
L 159.968 28.554667 
" clip-path="url(#pb4e23e2670)" style="fill: none; stroke: #000000; stroke-width: 0.8; stroke-linecap: square"/>
   </g>
   <g id="line2d_41">
    <path d="M 192.821333 258.528 
L 192.821333 251.957333 
L 186.250667 251.957333 
" clip-path="url(#pb4e23e2670)" style="fill: none; stroke: #000000; stroke-width: 0.8; stroke-linecap: square"/>
   </g>
   <g id="line2d_42">
    <path d="M 192.821333 219.104 
L 192.821333 225.674667 
L 186.250667 225.674667 
" clip-path="url(#pb4e23e2670)" style="fill: none; stroke: #000000; stroke-width: 0.8; stroke-linecap: square"/>
   </g>
   <g id="line2d_43">
    <path d="M 192.821333 192.821333 
L 192.821333 186.250667 
L 186.250667 186.250667 
" clip-path="url(#pb4e23e2670)" style="fill: none; stroke: #000000; stroke-width: 0.8; stroke-linecap: square"/>
   </g>
   <g id="line2d_44">
    <path d="M 192.821333 153.397333 
L 192.821333 159.968 
L 186.250667 159.968 
" clip-path="url(#pb4e23e2670)" style="fill: none; stroke: #000000; stroke-width: 0.8; stroke-linecap: square"/>
   </g>
   <g id="line2d_45">
    <path d="M 192.821333 127.114667 
L 192.821333 120.544 
L 186.250667 120.544 
" clip-path="url(#pb4e23e2670)" style="fill: none; stroke: #000000; stroke-width: 0.8; stroke-linecap: square"/>
   </g>
   <g id="line2d_46">
    <path d="M 192.821333 87.690667 
L 192.821333 94.261333 
L 186.250667 94.261333 
" clip-path="url(#pb4e23e2670)" style="fill: none; stroke: #000000; stroke-width: 0.8; stroke-linecap: square"/>
   </g>
   <g id="line2d_47">
    <path d="M 192.821333 61.408 
L 192.821333 54.837333 
L 186.250667 54.837333 
" clip-path="url(#pb4e23e2670)" style="fill: none; stroke: #000000; stroke-width: 0.8; stroke-linecap: square"/>
   </g>
   <g id="line2d_48">
    <path d="M 192.821333 21.984 
L 192.821333 28.554667 
L 186.250667 28.554667 
" clip-path="url(#pb4e23e2670)" style="fill: none; stroke: #000000; stroke-width: 0.8; stroke-linecap: square"/>
   </g>
   <g id="line2d_49">
    <path d="M 219.104 258.528 
L 219.104 251.957333 
L 225.674667 251.957333 
" clip-path="url(#pb4e23e2670)" style="fill: none; stroke: #000000; stroke-width: 0.8; stroke-linecap: square"/>
   </g>
   <g id="line2d_50">
    <path d="M 219.104 219.104 
L 219.104 225.674667 
L 225.674667 225.674667 
" clip-path="url(#pb4e23e2670)" style="fill: none; stroke: #000000; stroke-width: 0.8; stroke-linecap: square"/>
   </g>
   <g id="line2d_51">
    <path d="M 219.104 192.821333 
L 219.104 186.250667 
L 225.674667 186.250667 
" clip-path="url(#pb4e23e2670)" style="fill: none; stroke: #000000; stroke-width: 0.8; stroke-linecap: square"/>
   </g>
   <g id="line2d_52">
    <path d="M 219.104 153.397333 
L 219.104 159.968 
L 225.674667 159.968 
" clip-path="url(#pb4e23e2670)" style="fill: none; stroke: #000000; stroke-width: 0.8; stroke-linecap: square"/>
   </g>
   <g id="line2d_53">
    <path d="M 219.104 127.114667 
L 219.104 120.544 
L 225.674667 120.544 
" clip-path="url(#pb4e23e2670)" style="fill: none; stroke: #000000; stroke-width: 0.8; stroke-linecap: square"/>
   </g>
   <g id="line2d_54">
    <path d="M 219.104 87.690667 
L 219.104 94.261333 
L 225.674667 94.261333 
" clip-path="url(#pb4e23e2670)" style="fill: none; stroke: #000000; stroke-width: 0.8; stroke-linecap: square"/>
   </g>
   <g id="line2d_55">
    <path d="M 219.104 61.408 
L 219.104 54.837333 
L 225.674667 54.837333 
" clip-path="url(#pb4e23e2670)" style="fill: none; stroke: #000000; stroke-width: 0.8; stroke-linecap: square"/>
   </g>
   <g id="line2d_56">
    <path d="M 219.104 21.984 
L 219.104 28.554667 
L 225.674667 28.554667 
" clip-path="url(#pb4e23e2670)" style="fill: none; stroke: #000000; stroke-width: 0.8; stroke-linecap: square"/>
   </g>
   <g id="line2d_57">
    <path d="M 258.528 258.528 
L 258.528 251.957333 
L 251.957333 251.957333 
" clip-path="url(#pb4e23e2670)" style="fill: none; stroke: #000000; stroke-width: 0.8; stroke-linecap: square"/>
   </g>
   <g id="line2d_58">
    <path d="M 258.528 219.104 
L 258.528 225.674667 
L 251.957333 225.674667 
" clip-path="url(#pb4e23e2670)" style="fill: none; stroke: #000000; stroke-width: 0.8; stroke-linecap: square"/>
   </g>
   <g id="line2d_59">
    <path d="M 258.528 192.821333 
L 258.528 186.250667 
L 251.957333 186.250667 
" clip-path="url(#pb4e23e2670)" style="fill: none; stroke: #000000; stroke-width: 0.8; stroke-linecap: square"/>
   </g>
   <g id="line2d_60">
    <path d="M 258.528 153.397333 
L 258.528 159.968 
L 251.957333 159.968 
" clip-path="url(#pb4e23e2670)" style="fill: none; stroke: #000000; stroke-width: 0.8; stroke-linecap: square"/>
   </g>
   <g id="line2d_61">
    <path d="M 258.528 127.114667 
L 258.528 120.544 
L 251.957333 120.544 
" clip-path="url(#pb4e23e2670)" style="fill: none; stroke: #000000; stroke-width: 0.8; stroke-linecap: square"/>
   </g>
   <g id="line2d_62">
    <path d="M 258.528 87.690667 
L 258.528 94.261333 
L 251.957333 94.261333 
" clip-path="url(#pb4e23e2670)" style="fill: none; stroke: #000000; stroke-width: 0.8; stroke-linecap: square"/>
   </g>
   <g id="line2d_63">
    <path d="M 258.528 61.408 
L 258.528 54.837333 
L 251.957333 54.837333 
" clip-path="url(#pb4e23e2670)" style="fill: none; stroke: #000000; stroke-width: 0.8; stroke-linecap: square"/>
   </g>
   <g id="line2d_64">
    <path d="M 258.528 21.984 
L 258.528 28.554667 
L 251.957333 28.554667 
" clip-path="url(#pb4e23e2670)" style="fill: none; stroke: #000000; stroke-width: 0.8; stroke-linecap: square"/>
   </g>
   <g id="line2d_65">
    <path d="M 8.842667 271.669333 
L 8.842667 8.842667 
" clip-path="url(#pb4e23e2670)" style="fill: none; stroke: #000000; stroke-linecap: square"/>
   </g>
   <g id="line2d_66">
    <path d="M 8.842667 271.669333 
L 271.669333 271.669333 
" clip-path="url(#pb4e23e2670)" style="fill: none; stroke: #000000; stroke-linecap: square"/>
   </g>
   <g id="line2d_67">
    <path d="M 41.696 271.669333 
L 41.696 8.842667 
" clip-path="url(#pb4e23e2670)" style="fill: none; stroke: #000000; stroke-linecap: square"/>
   </g>
   <g id="line2d_68">
    <path d="M 8.842667 238.816 
L 271.669333 238.816 
" clip-path="url(#pb4e23e2670)" style="fill: none; stroke: #000000; stroke-linecap: square"/>
   </g>
   <g id="line2d_69">
    <path d="M 74.549333 271.669333 
L 74.549333 8.842667 
" clip-path="url(#pb4e23e2670)" style="fill: none; stroke: #000000; stroke-linecap: square"/>
   </g>
   <g id="line2d_70">
    <path d="M 8.842667 205.962667 
L 271.669333 205.962667 
" clip-path="url(#pb4e23e2670)" style="fill: none; stroke: #000000; stroke-linecap: square"/>
   </g>
   <g id="line2d_71">
    <path d="M 107.402667 271.669333 
L 107.402667 8.842667 
" clip-path="url(#pb4e23e2670)" style="fill: none; stroke: #000000; stroke-linecap: square"/>
   </g>
   <g id="line2d_72">
    <path d="M 8.842667 173.109333 
L 271.669333 173.109333 
" clip-path="url(#pb4e23e2670)" style="fill: none; stroke: #000000; stroke-linecap: square"/>
   </g>
   <g id="line2d_73">
    <path d="M 140.256 271.669333 
L 140.256 8.842667 
" clip-path="url(#pb4e23e2670)" style="fill: none; stroke: #000000; stroke-linecap: square"/>
   </g>
   <g id="line2d_74">
    <path d="M 8.842667 140.256 
L 271.669333 140.256 
" clip-path="url(#pb4e23e2670)" style="fill: none; stroke: #000000; stroke-linecap: square"/>
   </g>
   <g id="line2d_75">
    <path d="M 173.109333 271.669333 
L 173.109333 8.842667 
" clip-path="url(#pb4e23e2670)" style="fill: none; stroke: #000000; stroke-linecap: square"/>
   </g>
   <g id="line2d_76">
    <path d="M 8.842667 107.402667 
L 271.669333 107.402667 
" clip-path="url(#pb4e23e2670)" style="fill: none; stroke: #000000; stroke-linecap: square"/>
   </g>
   <g id="line2d_77">
    <path d="M 205.962667 271.669333 
L 205.962667 8.842667 
" clip-path="url(#pb4e23e2670)" style="fill: none; stroke: #000000; stroke-linecap: square"/>
   </g>
   <g id="line2d_78">
    <path d="M 8.842667 74.549333 
L 271.669333 74.549333 
" clip-path="url(#pb4e23e2670)" style="fill: none; stroke: #000000; stroke-linecap: square"/>
   </g>
   <g id="line2d_79">
    <path d="M 238.816 271.669333 
L 238.816 8.842667 
" clip-path="url(#pb4e23e2670)" style="fill: none; stroke: #000000; stroke-linecap: square"/>
   </g>
   <g id="line2d_80">
    <path d="M 8.842667 41.696 
L 271.669333 41.696 
" clip-path="url(#pb4e23e2670)" style="fill: none; stroke: #000000; stroke-linecap: square"/>
   </g>
   <g id="line2d_81">
    <path d="M 271.669333 271.669333 
L 271.669333 8.842667 
" clip-path="url(#pb4e23e2670)" style="fill: none; stroke: #000000; stroke-linecap: square"/>
   </g>
   <g id="line2d_82">
    <path d="M 8.842667 8.842667 
L 271.669333 8.842667 
" clip-path="url(#pb4e23e2670)" style="fill: none; stroke: #000000; stroke-linecap: square"/>
   </g>
  </g>
 </g>
 <defs>
  <clipPath id="pb4e23e2670">
   <rect x="7.2" y="7.2" width="266.112" height="266.112"/>
  </clipPath>
 </defs>
</svg>
