<?xml version="1.0" encoding="utf-8" standalone="no"?>
<!DOCTYPE svg PUBLIC "-//W3C//DTD SVG 1.1//EN"
  "http://www.w3.org/Graphics/SVG/1.1/DTD/svg11.dtd">
<svg xmlns:xlink="http://www.w3.org/1999/xlink" width="460.8pt" height="345.6pt" viewBox="0 0 460.8 345.6" xmlns="http://www.w3.org/2000/svg" version="1.1">
 <metadata>
  <rdf:RDF xmlns:dc="http://purl.org/dc/elements/1.1/" xmlns:cc="http://creativecommons.org/ns#" xmlns:rdf="http://www.w3.org/1999/02/22-rdf-syntax-ns#">
   <cc:Work>
    <dc:type rdf:resource="http://purl.org/dc/dcmitype/StillImage"/>
    <dc:date>2024-03-13T22:14:18.622601</dc:date>
    <dc:format>image/svg+xml</dc:format>
    <dc:creator>
     <cc:Agent>
      <dc:title>Matplotlib v3.7.1, https://matplotlib.org/</dc:title>
     </cc:Agent>
    </dc:creator>
   </cc:Work>
  </rdf:RDF>
 </metadata>
 <defs>
  <style type="text/css">*{stroke-linejoin: round; stroke-linecap: butt}</style>
 </defs>
 <g id="figure_1">
  <g id="patch_1">
   <path d="M 0 345.6 
L 460.8 345.6 
L 460.8 0 
L 0 0 
z
" style="fill: #ffffff"/>
  </g>
  <g id="axes_1">
   <g id="patch_2">
    <path d="M 51.597067 327.647883 
L 409.202933 327.647883 
L 230.4 17.952117 
z
" clip-path="url(#p7dec7bbd5b)" style="fill: #fbd2ff; stroke: #000000; stroke-linejoin: miter"/>
   </g>
   <g id="line2d_1">
    <path d="M 286.130137 172.128066 
L 397.561802 327.647883 
L 404.008397 318.650681 
L 312.609468 327.647883 
L 65.633612 303.335873 
L 83.053435 327.647883 
L 263.667627 75.573338 
L 193.123066 82.517661 
L 304.205515 327.647883 
L 350.37725 225.75881 
L 123.326858 203.40824 
L 212.345933 327.647883 
L 248.888044 276.401654 
" clip-path="url(#p7dec7bbd5b)" style="fill: none; stroke: #808080; stroke-width: 0.5; stroke-linecap: square"/>
   </g>
   <g id="line2d_2">
    <path d="M 248.888044 276.401654 
L 321.360873 175.500972 
L 128.476817 194.488249 
L 188.819022 327.647883 
L 285.731001 113.788222 
L 181.020104 103.480606 
L 341.638431 327.647883 
L 379.05412 275.428605 
L 63.830568 306.458837 
L 73.43253 327.647883 
L 153.105783 151.829628 
L 211.645951 69.635609 
" clip-path="url(#p7dec7bbd5b)" style="fill: none; stroke-dasharray: 1.85,0.8; stroke-dashoffset: 0; stroke: #808080; stroke-width: 0.5"/>
   </g>
   <g id="line2d_3">
    <defs>
     <path id="m6401130361" d="M 0 4 
C 1.060812 4 2.078319 3.578535 2.828427 2.828427 
C 3.578535 2.078319 4 1.060812 4 0 
C 4 -1.060812 3.578535 -2.078319 2.828427 -2.828427 
C 2.078319 -3.578535 1.060812 -4 0 -4 
C -1.060812 -4 -2.078319 -3.578535 -2.828427 -2.828427 
C -3.578535 -2.078319 -4 -1.060812 -4 0 
C -4 1.060812 -3.578535 2.078319 -2.828427 2.828427 
C -2.078319 3.578535 -1.060812 4 0 4 
z
" style="stroke: #000000"/>
    </defs>
    <g clip-path="url(#p7dec7bbd5b)">
     <use xlink:href="#m6401130361" x="286.130137" y="172.128066" style="fill: #ff0000; stroke: #000000"/>
    </g>
   </g>
   <g id="line2d_4">
    <defs>
     <path id="m1fb863ccc2" d="M 0 2.5 
C 0.663008 2.5 1.29895 2.236584 1.767767 1.767767 
C 2.236584 1.29895 2.5 0.663008 2.5 0 
C 2.5 -0.663008 2.236584 -1.29895 1.767767 -1.767767 
C 1.29895 -2.236584 0.663008 -2.5 0 -2.5 
C -0.663008 -2.5 -1.29895 -2.236584 -1.767767 -1.767767 
C -2.236584 -1.29895 -2.5 -0.663008 -2.5 0 
C -2.5 0.663008 -2.236584 1.29895 -1.767767 1.767767 
C -1.29895 2.236584 -0.663008 2.5 0 2.5 
z
" style="stroke: #000000"/>
    </defs>
    <g clip-path="url(#p7dec7bbd5b)">
     <use xlink:href="#m1fb863ccc2" x="248.888044" y="120.881837" style="fill: #00bfbf; stroke: #000000"/>
     <use xlink:href="#m1fb863ccc2" x="310.29573" y="260.171907" style="fill: #00bfbf; stroke: #000000"/>
     <use xlink:href="#m1fb863ccc2" x="248.888044" y="224.718163" style="fill: #00bfbf; stroke: #000000"/>
     <use xlink:href="#m1fb863ccc2" x="132.016226" y="292.194139" style="fill: #00bfbf; stroke: #000000"/>
     <use xlink:href="#m1fb863ccc2" x="240.573973" y="116.081706" style="fill: #00bfbf; stroke: #000000"/>
     <use xlink:href="#m1fb863ccc2" x="310.29573" y="269.77217" style="fill: #00bfbf; stroke: #000000"/>
     <use xlink:href="#m1fb863ccc2" x="240.573973" y="229.518294" style="fill: #00bfbf; stroke: #000000"/>
     <use xlink:href="#m1fb863ccc2" x="140.330297" y="287.394007" style="fill: #00bfbf; stroke: #000000"/>
     <use xlink:href="#m1fb863ccc2" x="140.330297" y="316.218267" style="fill: #00bfbf; stroke: #000000"/>
     <use xlink:href="#m1fb863ccc2" x="285.333189" y="255.36004" style="fill: #00bfbf; stroke: #000000"/>
     <use xlink:href="#m1fb863ccc2" x="265.536514" y="243.930424" style="fill: #00bfbf; stroke: #000000"/>
     <use xlink:href="#m1fb863ccc2" x="265.536514" y="101.669576" style="fill: #00bfbf; stroke: #000000"/>
     <use xlink:href="#m1fb863ccc2" x="132.016226" y="321.018398" style="fill: #00bfbf; stroke: #000000"/>
     <use xlink:href="#m1fb863ccc2" x="285.333189" y="245.759777" style="fill: #00bfbf; stroke: #000000"/>
     <use xlink:href="#m1fb863ccc2" x="273.850585" y="239.130293" style="fill: #00bfbf; stroke: #000000"/>
     <use xlink:href="#m1fb863ccc2" x="273.850585" y="106.469707" style="fill: #00bfbf; stroke: #000000"/>
     <use xlink:href="#m1fb863ccc2" x="240.573973" y="271.601523" style="fill: #00bfbf; stroke: #000000"/>
     <use xlink:href="#m1fb863ccc2" x="176.775442" y="308.435622" style="fill: #00bfbf; stroke: #000000"/>
     <use xlink:href="#m1fb863ccc2" x="240.573973" y="73.998477" style="fill: #00bfbf; stroke: #000000"/>
     <use xlink:href="#m1fb863ccc2" x="273.850585" y="290.813784" style="fill: #00bfbf; stroke: #000000"/>
     <use xlink:href="#m1fb863ccc2" x="248.888044" y="276.401654" style="fill: #00bfbf; stroke: #000000"/>
     <use xlink:href="#m1fb863ccc2" x="176.775442" y="318.035884" style="fill: #00bfbf; stroke: #000000"/>
     <use xlink:href="#m1fb863ccc2" x="248.888044" y="69.198346" style="fill: #00bfbf; stroke: #000000"/>
     <use xlink:href="#m1fb863ccc2" x="265.536514" y="286.013653" style="fill: #00bfbf; stroke: #000000"/>
    </g>
   </g>
   <g id="line2d_5">
    <defs>
     <path id="m313d90e394" d="M 0 4 
C 1.060812 4 2.078319 3.578535 2.828427 2.828427 
C 3.578535 2.078319 4 1.060812 4 0 
C 4 -1.060812 3.578535 -2.078319 2.828427 -2.828427 
C 2.078319 -3.578535 1.060812 -4 0 -4 
C -1.060812 -4 -2.078319 -3.578535 -2.828427 -2.828427 
C -3.578535 -2.078319 -4 -1.060812 -4 0 
C -4 1.060812 -3.578535 2.078319 -2.828427 2.828427 
C -2.078319 3.578535 -1.060812 4 0 4 
z
" style="stroke: #000000"/>
    </defs>
    <g clip-path="url(#p7dec7bbd5b)">
     <use xlink:href="#m313d90e394" x="211.645951" y="69.635609" style="fill: #0000ff; stroke: #000000"/>
    </g>
   </g>
  </g>
 </g>
 <defs>
  <clipPath id="p7dec7bbd5b">
   <rect x="44.444949" y="10.8" width="371.910102" height="324"/>
  </clipPath>
 </defs>
</svg>
