<?xml version="1.0" encoding="utf-8" standalone="no"?>
<!DOCTYPE svg PUBLIC "-//W3C//DTD SVG 1.1//EN"
  "http://www.w3.org/Graphics/SVG/1.1/DTD/svg11.dtd">
<svg xmlns:xlink="http://www.w3.org/1999/xlink" width="331.235294pt" height="302.4pt" viewBox="0 0 331.235294 302.4" xmlns="http://www.w3.org/2000/svg" version="1.1">
 <metadata>
  <rdf:RDF xmlns:dc="http://purl.org/dc/elements/1.1/" xmlns:cc="http://creativecommons.org/ns#" xmlns:rdf="http://www.w3.org/1999/02/22-rdf-syntax-ns#">
   <cc:Work>
    <dc:type rdf:resource="http://purl.org/dc/dcmitype/StillImage"/>
    <dc:date>2023-12-25T11:04:42.013499</dc:date>
    <dc:format>image/svg+xml</dc:format>
    <dc:creator>
     <cc:Agent>
      <dc:title>Matplotlib v3.7.1, https://matplotlib.org/</dc:title>
     </cc:Agent>
    </dc:creator>
   </cc:Work>
  </rdf:RDF>
 </metadata>
 <defs>
  <style type="text/css">*{stroke-linejoin: round; stroke-linecap: butt}</style>
 </defs>
 <g id="figure_1">
  <g id="patch_1">
   <path d="M 0 302.4 
L 331.235294 302.4 
L 331.235294 0 
L 0 0 
z
" style="fill: #ffffff"/>
  </g>
  <g id="axes_1">
   <g id="patch_2">
    <path d="M 26.826471 279.2 
L 60.708824 279.2 
L 60.708824 247.2 
L 26.826471 247.2 
L 26.826471 279.2 
z
" clip-path="url(#pad3d1fb585)" style="fill: none; stroke: #000000; stroke-width: 0.5; stroke-linejoin: miter"/>
   </g>
   <g id="patch_3">
    <path d="M 26.826471 247.2 
L 60.708824 247.2 
L 60.708824 215.2 
L 26.826471 215.2 
L 26.826471 247.2 
z
" clip-path="url(#pad3d1fb585)" style="fill: none; stroke: #000000; stroke-width: 0.5; stroke-linejoin: miter"/>
   </g>
   <g id="patch_4">
    <path d="M 60.708824 247.2 
L 94.591176 247.2 
L 94.591176 215.2 
L 60.708824 215.2 
L 60.708824 247.2 
z
" clip-path="url(#pad3d1fb585)" style="fill: none; stroke: #000000; stroke-width: 0.5; stroke-linejoin: miter"/>
   </g>
   <g id="patch_5">
    <path d="M 26.826471 215.2 
L 60.708824 215.2 
L 60.708824 183.2 
L 26.826471 183.2 
L 26.826471 215.2 
z
" clip-path="url(#pad3d1fb585)" style="fill: none; stroke: #000000; stroke-width: 0.5; stroke-linejoin: miter"/>
   </g>
   <g id="patch_6">
    <path d="M 60.708824 215.2 
L 94.591176 215.2 
L 94.591176 183.2 
L 60.708824 183.2 
L 60.708824 215.2 
z
" clip-path="url(#pad3d1fb585)" style="fill: none; stroke: #000000; stroke-width: 0.5; stroke-linejoin: miter"/>
   </g>
   <g id="patch_7">
    <path d="M 94.591176 215.2 
L 128.473529 215.2 
L 128.473529 183.2 
L 94.591176 183.2 
L 94.591176 215.2 
z
" clip-path="url(#pad3d1fb585)" style="fill: none; stroke: #000000; stroke-width: 0.5; stroke-linejoin: miter"/>
   </g>
   <g id="patch_8">
    <path d="M 26.826471 183.2 
L 60.708824 183.2 
L 60.708824 151.2 
L 26.826471 151.2 
L 26.826471 183.2 
z
" clip-path="url(#pad3d1fb585)" style="fill: none; stroke: #000000; stroke-width: 0.5; stroke-linejoin: miter"/>
   </g>
   <g id="patch_9">
    <path d="M 60.708824 183.2 
L 94.591176 183.2 
L 94.591176 151.2 
L 60.708824 151.2 
L 60.708824 183.2 
z
" clip-path="url(#pad3d1fb585)" style="fill: none; stroke: #000000; stroke-width: 0.5; stroke-linejoin: miter"/>
   </g>
   <g id="patch_10">
    <path d="M 94.591176 183.2 
L 128.473529 183.2 
L 128.473529 151.2 
L 94.591176 151.2 
L 94.591176 183.2 
z
" clip-path="url(#pad3d1fb585)" style="fill: none; stroke: #000000; stroke-width: 0.5; stroke-linejoin: miter"/>
   </g>
   <g id="patch_11">
    <path d="M 26.826471 151.2 
L 60.708824 151.2 
L 60.708824 119.2 
L 26.826471 119.2 
L 26.826471 151.2 
z
" clip-path="url(#pad3d1fb585)" style="fill: none; stroke: #000000; stroke-width: 0.5; stroke-linejoin: miter"/>
   </g>
   <g id="patch_12">
    <path d="M 60.708824 151.2 
L 94.591176 151.2 
L 94.591176 119.2 
L 60.708824 119.2 
L 60.708824 151.2 
z
" clip-path="url(#pad3d1fb585)" style="fill: none; stroke: #000000; stroke-width: 0.5; stroke-linejoin: miter"/>
   </g>
   <g id="patch_13">
    <path d="M 94.591176 151.2 
L 128.473529 151.2 
L 128.473529 119.2 
L 94.591176 119.2 
L 94.591176 151.2 
z
" clip-path="url(#pad3d1fb585)" style="fill: none; stroke: #000000; stroke-width: 0.5; stroke-linejoin: miter"/>
   </g>
   <g id="patch_14">
    <path d="M 128.473529 151.2 
L 162.355882 151.2 
L 162.355882 119.2 
L 128.473529 119.2 
L 128.473529 151.2 
z
" clip-path="url(#pad3d1fb585)" style="fill: none; stroke: #000000; stroke-width: 0.5; stroke-linejoin: miter"/>
   </g>
   <g id="patch_15">
    <path d="M 162.355882 151.2 
L 196.238235 151.2 
L 196.238235 119.2 
L 162.355882 119.2 
L 162.355882 151.2 
z
" clip-path="url(#pad3d1fb585)" style="fill: none; stroke: #000000; stroke-width: 0.5; stroke-linejoin: miter"/>
   </g>
   <g id="patch_16">
    <path d="M 26.826471 119.2 
L 60.708824 119.2 
L 60.708824 87.2 
L 26.826471 87.2 
L 26.826471 119.2 
z
" clip-path="url(#pad3d1fb585)" style="fill: none; stroke: #000000; stroke-width: 0.5; stroke-linejoin: miter"/>
   </g>
   <g id="patch_17">
    <path d="M 60.708824 119.2 
L 94.591176 119.2 
L 94.591176 87.2 
L 60.708824 87.2 
L 60.708824 119.2 
z
" clip-path="url(#pad3d1fb585)" style="fill: none; stroke: #000000; stroke-width: 0.5; stroke-linejoin: miter"/>
   </g>
   <g id="patch_18">
    <path d="M 94.591176 119.2 
L 128.473529 119.2 
L 128.473529 87.2 
L 94.591176 87.2 
L 94.591176 119.2 
z
" clip-path="url(#pad3d1fb585)" style="fill: none; stroke: #000000; stroke-width: 0.5; stroke-linejoin: miter"/>
   </g>
   <g id="patch_19">
    <path d="M 128.473529 119.2 
L 162.355882 119.2 
L 162.355882 87.2 
L 128.473529 87.2 
L 128.473529 119.2 
z
" clip-path="url(#pad3d1fb585)" style="fill: none; stroke: #000000; stroke-width: 0.5; stroke-linejoin: miter"/>
   </g>
   <g id="patch_20">
    <path d="M 162.355882 119.2 
L 196.238235 119.2 
L 196.238235 87.2 
L 162.355882 87.2 
L 162.355882 119.2 
z
" clip-path="url(#pad3d1fb585)" style="fill: none; stroke: #000000; stroke-width: 0.5; stroke-linejoin: miter"/>
   </g>
   <g id="patch_21">
    <path d="M 26.826471 87.2 
L 60.708824 87.2 
L 60.708824 55.2 
L 26.826471 55.2 
L 26.826471 87.2 
z
" clip-path="url(#pad3d1fb585)" style="fill: none; stroke: #000000; stroke-width: 0.5; stroke-linejoin: miter"/>
   </g>
   <g id="patch_22">
    <path d="M 60.708824 87.2 
L 94.591176 87.2 
L 94.591176 55.2 
L 60.708824 55.2 
L 60.708824 87.2 
z
" clip-path="url(#pad3d1fb585)" style="fill: none; stroke: #000000; stroke-width: 0.5; stroke-linejoin: miter"/>
   </g>
   <g id="patch_23">
    <path d="M 94.591176 87.2 
L 128.473529 87.2 
L 128.473529 55.2 
L 94.591176 55.2 
L 94.591176 87.2 
z
" clip-path="url(#pad3d1fb585)" style="fill: none; stroke: #000000; stroke-width: 0.5; stroke-linejoin: miter"/>
   </g>
   <g id="patch_24">
    <path d="M 128.473529 87.2 
L 162.355882 87.2 
L 162.355882 55.2 
L 128.473529 55.2 
L 128.473529 87.2 
z
" clip-path="url(#pad3d1fb585)" style="fill: none; stroke: #000000; stroke-width: 0.5; stroke-linejoin: miter"/>
   </g>
   <g id="patch_25">
    <path d="M 162.355882 87.2 
L 196.238235 87.2 
L 196.238235 55.2 
L 162.355882 55.2 
L 162.355882 87.2 
z
" clip-path="url(#pad3d1fb585)" style="fill: none; stroke: #000000; stroke-width: 0.5; stroke-linejoin: miter"/>
   </g>
   <g id="patch_26">
    <path d="M 196.238235 87.2 
L 230.120588 87.2 
L 230.120588 55.2 
L 196.238235 55.2 
L 196.238235 87.2 
z
" clip-path="url(#pad3d1fb585)" style="fill: none; stroke: #000000; stroke-width: 0.5; stroke-linejoin: miter"/>
   </g>
   <g id="patch_27">
    <path d="M 26.826471 55.2 
L 60.708824 55.2 
L 60.708824 23.2 
L 26.826471 23.2 
L 26.826471 55.2 
z
" clip-path="url(#pad3d1fb585)" style="fill: none; stroke: #000000; stroke-width: 0.5; stroke-linejoin: miter"/>
   </g>
   <g id="patch_28">
    <path d="M 60.708824 55.2 
L 94.591176 55.2 
L 94.591176 23.2 
L 60.708824 23.2 
L 60.708824 55.2 
z
" clip-path="url(#pad3d1fb585)" style="fill: none; stroke: #000000; stroke-width: 0.5; stroke-linejoin: miter"/>
   </g>
   <g id="patch_29">
    <path d="M 94.591176 55.2 
L 128.473529 55.2 
L 128.473529 23.2 
L 94.591176 23.2 
L 94.591176 55.2 
z
" clip-path="url(#pad3d1fb585)" style="fill: none; stroke: #000000; stroke-width: 0.5; stroke-linejoin: miter"/>
   </g>
   <g id="patch_30">
    <path d="M 128.473529 55.2 
L 162.355882 55.2 
L 162.355882 23.2 
L 128.473529 23.2 
L 128.473529 55.2 
z
" clip-path="url(#pad3d1fb585)" style="fill: none; stroke: #000000; stroke-width: 0.5; stroke-linejoin: miter"/>
   </g>
   <g id="patch_31">
    <path d="M 162.355882 55.2 
L 196.238235 55.2 
L 196.238235 23.2 
L 162.355882 23.2 
L 162.355882 55.2 
z
" clip-path="url(#pad3d1fb585)" style="fill: none; stroke: #000000; stroke-width: 0.5; stroke-linejoin: miter"/>
   </g>
   <g id="patch_32">
    <path d="M 196.238235 55.2 
L 230.120588 55.2 
L 230.120588 23.2 
L 196.238235 23.2 
L 196.238235 55.2 
z
" clip-path="url(#pad3d1fb585)" style="fill: none; stroke: #000000; stroke-width: 0.5; stroke-linejoin: miter"/>
   </g>
   <g id="patch_33">
    <path d="M 230.120588 55.2 
L 264.002941 55.2 
L 264.002941 23.2 
L 230.120588 23.2 
L 230.120588 55.2 
z
" clip-path="url(#pad3d1fb585)" style="fill: none; stroke: #000000; stroke-width: 0.5; stroke-linejoin: miter"/>
   </g>
   <g id="patch_34">
    <path d="M 26.826471 280.8 
C 27.275756 280.8 27.7067 280.631414 28.024393 280.331371 
C 28.342085 280.031328 28.520588 279.624325 28.520588 279.2 
C 28.520588 278.775675 28.342085 278.368672 28.024393 278.068629 
C 27.7067 277.768586 27.275756 277.6 26.826471 277.6 
C 26.377185 277.6 25.946241 277.768586 25.628549 278.068629 
C 25.310856 278.368672 25.132353 278.775675 25.132353 279.2 
C 25.132353 279.624325 25.310856 280.031328 25.628549 280.331371 
C 25.946241 280.631414 26.377185 280.8 26.826471 280.8 
z
" clip-path="url(#pad3d1fb585)" style="fill: #ffffff; stroke: #000000; stroke-linejoin: miter"/>
   </g>
   <g id="patch_35">
    <path d="M 264.002941 24.8 
C 264.452226 24.8 264.883171 24.631414 265.200863 24.331371 
C 265.518556 24.031328 265.697059 23.624325 265.697059 23.2 
C 265.697059 22.775675 265.518556 22.368672 265.200863 22.068629 
C 264.883171 21.768586 264.452226 21.6 264.002941 21.6 
C 263.553656 21.6 263.122712 21.768586 262.805019 22.068629 
C 262.487326 22.368672 262.308824 22.775675 262.308824 23.2 
C 262.308824 23.624325 262.487326 24.031328 262.805019 24.331371 
C 263.122712 24.631414 263.553656 24.8 264.002941 24.8 
z
" clip-path="url(#pad3d1fb585)" style="fill: #ffffff; stroke: #000000; stroke-linejoin: miter"/>
   </g>
   <g id="patch_36">
    <path d="M 26.826471 215.2 
L 60.708824 215.2 
L 60.708824 183.2 
L 26.826471 183.2 
z
" clip-path="url(#pad3d1fb585)" style="fill: #0033cc"/>
   </g>
   <g id="patch_37">
    <path d="M 162.355882 55.2 
L 196.238235 55.2 
L 196.238235 23.2 
L 162.355882 23.2 
z
" clip-path="url(#pad3d1fb585)" style="fill: #cc3300"/>
   </g>
   <g id="text_1">
    <!-- $(0,0)$ -->
    <g transform="translate(7.2 291.559375) scale(0.1 -0.1)">
     <defs>
      <path id="DejaVuSans-28" d="M 1984 4856 
Q 1566 4138 1362 3434 
Q 1159 2731 1159 2009 
Q 1159 1288 1364 580 
Q 1569 -128 1984 -844 
L 1484 -844 
Q 1016 -109 783 600 
Q 550 1309 550 2009 
Q 550 2706 781 3412 
Q 1013 4119 1484 4856 
L 1984 4856 
z
" transform="scale(0.015625)"/>
      <path id="DejaVuSans-30" d="M 2034 4250 
Q 1547 4250 1301 3770 
Q 1056 3291 1056 2328 
Q 1056 1369 1301 889 
Q 1547 409 2034 409 
Q 2525 409 2770 889 
Q 3016 1369 3016 2328 
Q 3016 3291 2770 3770 
Q 2525 4250 2034 4250 
z
M 2034 4750 
Q 2819 4750 3233 4129 
Q 3647 3509 3647 2328 
Q 3647 1150 3233 529 
Q 2819 -91 2034 -91 
Q 1250 -91 836 529 
Q 422 1150 422 2328 
Q 422 3509 836 4129 
Q 1250 4750 2034 4750 
z
" transform="scale(0.015625)"/>
      <path id="DejaVuSans-2c" d="M 750 794 
L 1409 794 
L 1409 256 
L 897 -744 
L 494 -744 
L 750 256 
L 750 794 
z
" transform="scale(0.015625)"/>
      <path id="DejaVuSans-29" d="M 513 4856 
L 1013 4856 
Q 1481 4119 1714 3412 
Q 1947 2706 1947 2009 
Q 1947 1309 1714 600 
Q 1481 -109 1013 -844 
L 513 -844 
Q 928 -128 1133 580 
Q 1338 1288 1338 2009 
Q 1338 2731 1133 3434 
Q 928 4138 513 4856 
z
" transform="scale(0.015625)"/>
     </defs>
     <use xlink:href="#DejaVuSans-28" transform="translate(0 0.125)"/>
     <use xlink:href="#DejaVuSans-30" transform="translate(39.013672 0.125)"/>
     <use xlink:href="#DejaVuSans-2c" transform="translate(102.636719 0.125)"/>
     <use xlink:href="#DejaVuSans-30" transform="translate(153.90625 0.125)"/>
     <use xlink:href="#DejaVuSans-29" transform="translate(217.529297 0.125)"/>
    </g>
   </g>
   <g id="text_2">
    <!-- $0$ -->
    <g transform="translate(40.567647 288.359375) scale(0.1 -0.1)">
     <use xlink:href="#DejaVuSans-30" transform="translate(0 0.78125)"/>
    </g>
   </g>
   <g id="text_3">
    <!-- $1$ -->
    <g transform="translate(64.285294 265.959375) scale(0.1 -0.1)">
     <defs>
      <path id="DejaVuSans-31" d="M 794 531 
L 1825 531 
L 1825 4091 
L 703 3866 
L 703 4441 
L 1819 4666 
L 2450 4666 
L 2450 531 
L 3481 531 
L 3481 0 
L 794 0 
L 794 531 
z
" transform="scale(0.015625)"/>
     </defs>
     <use xlink:href="#DejaVuSans-31" transform="translate(0 0.09375)"/>
    </g>
   </g>
   <g id="text_4">
    <!-- $2$ -->
    <g transform="translate(74.45 256.359375) scale(0.1 -0.1)">
     <defs>
      <path id="DejaVuSans-32" d="M 1228 531 
L 3431 531 
L 3431 0 
L 469 0 
L 469 531 
Q 828 903 1448 1529 
Q 2069 2156 2228 2338 
Q 2531 2678 2651 2914 
Q 2772 3150 2772 3378 
Q 2772 3750 2511 3984 
Q 2250 4219 1831 4219 
Q 1534 4219 1204 4116 
Q 875 4013 500 3803 
L 500 4441 
Q 881 4594 1212 4672 
Q 1544 4750 1819 4750 
Q 2544 4750 2975 4387 
Q 3406 4025 3406 3419 
Q 3406 3131 3298 2873 
Q 3191 2616 2906 2266 
Q 2828 2175 2409 1742 
Q 1991 1309 1228 531 
z
" transform="scale(0.015625)"/>
     </defs>
     <use xlink:href="#DejaVuSans-32" transform="translate(0 0.78125)"/>
    </g>
   </g>
   <g id="text_5">
    <!-- $3$ -->
    <g transform="translate(98.167647 233.959375) scale(0.1 -0.1)">
     <defs>
      <path id="DejaVuSans-33" d="M 2597 2516 
Q 3050 2419 3304 2112 
Q 3559 1806 3559 1356 
Q 3559 666 3084 287 
Q 2609 -91 1734 -91 
Q 1441 -91 1130 -33 
Q 819 25 488 141 
L 488 750 
Q 750 597 1062 519 
Q 1375 441 1716 441 
Q 2309 441 2620 675 
Q 2931 909 2931 1356 
Q 2931 1769 2642 2001 
Q 2353 2234 1838 2234 
L 1294 2234 
L 1294 2753 
L 1863 2753 
Q 2328 2753 2575 2939 
Q 2822 3125 2822 3475 
Q 2822 3834 2567 4026 
Q 2313 4219 1838 4219 
Q 1578 4219 1281 4162 
Q 984 4106 628 3988 
L 628 4550 
Q 988 4650 1302 4700 
Q 1616 4750 1894 4750 
Q 2613 4750 3031 4423 
Q 3450 4097 3450 3541 
Q 3450 3153 3228 2886 
Q 3006 2619 2597 2516 
z
" transform="scale(0.015625)"/>
     </defs>
     <use xlink:href="#DejaVuSans-33" transform="translate(0 0.78125)"/>
    </g>
   </g>
   <g id="text_6">
    <!-- $\lambda_1+\lambda_1'-1$ -->
    <g transform="translate(271.735294 41.7) scale(0.1 -0.1)">
     <defs>
      <path id="DejaVuSans-Oblique-3bb" d="M 2350 4316 
L 3125 0 
L 2516 0 
L 2038 2588 
L 328 0 
L -281 0 
L 1903 3356 
L 1794 3975 
Q 1725 4369 1391 4369 
L 1091 4369 
L 1184 4863 
L 1550 4856 
Q 2253 4847 2350 4316 
z
" transform="scale(0.015625)"/>
      <path id="DejaVuSans-2b" d="M 2944 4013 
L 2944 2272 
L 4684 2272 
L 4684 1741 
L 2944 1741 
L 2944 0 
L 2419 0 
L 2419 1741 
L 678 1741 
L 678 2272 
L 2419 2272 
L 2419 4013 
L 2944 4013 
z
" transform="scale(0.015625)"/>
      <path id="Cmsy10-30" d="M 225 347 
Q 184 359 184 409 
L 966 3316 
Q 1003 3434 1093 3506 
Q 1184 3578 1300 3578 
Q 1450 3578 1564 3479 
Q 1678 3381 1678 3231 
Q 1678 3166 1644 3084 
L 488 319 
Q 466 275 428 275 
Q 394 275 320 306 
Q 247 338 225 347 
z
" transform="scale(0.015625)"/>
      <path id="DejaVuSans-2212" d="M 678 2272 
L 4684 2272 
L 4684 1741 
L 678 1741 
L 678 2272 
z
" transform="scale(0.015625)"/>
     </defs>
     <use xlink:href="#DejaVuSans-Oblique-3bb" transform="translate(0 0.584375)"/>
     <use xlink:href="#DejaVuSans-31" transform="translate(59.179688 -15.821875) scale(0.7)"/>
     <use xlink:href="#DejaVuSans-2b" transform="translate(125.932617 0.584375)"/>
     <use xlink:href="#DejaVuSans-Oblique-3bb" transform="translate(229.204102 0.584375)"/>
     <use xlink:href="#Cmsy10-30" transform="translate(295.831497 38.865625) scale(0.7)"/>
     <use xlink:href="#DejaVuSans-31" transform="translate(288.383789 -26.759375) scale(0.7)"/>
     <use xlink:href="#DejaVuSans-2212" transform="translate(355.136719 0.584375)"/>
     <use xlink:href="#DejaVuSans-31" transform="translate(458.408203 0.584375)"/>
    </g>
   </g>
   <g id="text_7">
    <!-- $\lambda_1+\lambda_1'$ -->
    <g transform="translate(253.979412 16.1) scale(0.1 -0.1)">
     <use xlink:href="#DejaVuSans-Oblique-3bb" transform="translate(0 0.584375)"/>
     <use xlink:href="#DejaVuSans-31" transform="translate(59.179688 -15.821875) scale(0.7)"/>
     <use xlink:href="#DejaVuSans-2b" transform="translate(125.932617 0.584375)"/>
     <use xlink:href="#DejaVuSans-Oblique-3bb" transform="translate(229.204102 0.584375)"/>
     <use xlink:href="#Cmsy10-30" transform="translate(295.831497 38.865625) scale(0.7)"/>
     <use xlink:href="#DejaVuSans-31" transform="translate(288.383789 -26.759375) scale(0.7)"/>
    </g>
   </g>
   <g id="text_8">
    <!-- $v$ -->
    <g style="fill: #ffffff" transform="translate(40.767647 201.959375) scale(0.1 -0.1)">
     <defs>
      <path id="DejaVuSans-Oblique-76" d="M 459 3500 
L 1069 3500 
L 1581 525 
L 3256 3500 
L 3866 3500 
L 1875 0 
L 1100 0 
L 459 3500 
z
" transform="scale(0.015625)"/>
     </defs>
     <use xlink:href="#DejaVuSans-Oblique-76" transform="translate(0 0.3125)"/>
    </g>
   </g>
   <g id="text_9">
    <!-- $u$ -->
    <g style="fill: #ffffff" transform="translate(176.097059 41.959375) scale(0.1 -0.1)">
     <defs>
      <path id="DejaVuSans-Oblique-75" d="M 428 1388 
L 838 3500 
L 1416 3500 
L 1006 1409 
Q 975 1256 961 1147 
Q 947 1038 947 966 
Q 947 700 1109 554 
Q 1272 409 1569 409 
Q 2031 409 2368 721 
Q 2706 1034 2809 1563 
L 3194 3500 
L 3769 3500 
L 3091 0 
L 2516 0 
L 2631 550 
Q 2388 244 2052 76 
Q 1716 -91 1338 -91 
Q 878 -91 622 161 
Q 366 413 366 863 
Q 366 956 381 1097 
Q 397 1238 428 1388 
z
" transform="scale(0.015625)"/>
     </defs>
     <use xlink:href="#DejaVuSans-Oblique-75" transform="translate(0 0.3125)"/>
    </g>
   </g>
   <g id="text_10">
    <!-- $h_v$ -->
    <g style="fill: #0033cc" transform="translate(132.698235 202.235312) scale(0.11 -0.11)">
     <defs>
      <path id="DejaVuSans-Oblique-68" d="M 3566 2113 
L 3156 0 
L 2578 0 
L 2988 2091 
Q 3016 2238 3031 2350 
Q 3047 2463 3047 2528 
Q 3047 2791 2881 2937 
Q 2716 3084 2419 3084 
Q 1956 3084 1617 2771 
Q 1278 2459 1178 1941 
L 800 0 
L 225 0 
L 1172 4863 
L 1747 4863 
L 1375 2950 
Q 1594 3244 1934 3414 
Q 2275 3584 2650 3584 
Q 3113 3584 3367 3334 
Q 3622 3084 3622 2631 
Q 3622 2519 3608 2391 
Q 3594 2263 3566 2113 
z
" transform="scale(0.015625)"/>
     </defs>
     <use xlink:href="#DejaVuSans-Oblique-68" transform="translate(0 0.015625)"/>
     <use xlink:href="#DejaVuSans-Oblique-76" transform="translate(63.378906 -16.390625) scale(0.7)"/>
    </g>
   </g>
   <g id="text_11">
    <!-- $\lambda_1+\lambda_1'-1 - h_u$ -->
    <g style="fill: #cc3300" transform="translate(137.717059 163.55) scale(0.11 -0.11)">
     <use xlink:href="#DejaVuSans-Oblique-3bb" transform="translate(0 0.584375)"/>
     <use xlink:href="#DejaVuSans-31" transform="translate(59.179688 -15.821875) scale(0.7)"/>
     <use xlink:href="#DejaVuSans-2b" transform="translate(125.932617 0.584375)"/>
     <use xlink:href="#DejaVuSans-Oblique-3bb" transform="translate(229.204102 0.584375)"/>
     <use xlink:href="#Cmsy10-30" transform="translate(295.831497 38.865625) scale(0.7)"/>
     <use xlink:href="#DejaVuSans-31" transform="translate(288.383789 -26.759375) scale(0.7)"/>
     <use xlink:href="#DejaVuSans-2212" transform="translate(355.136719 0.584375)"/>
     <use xlink:href="#DejaVuSans-31" transform="translate(458.408203 0.584375)"/>
     <use xlink:href="#DejaVuSans-2212" transform="translate(541.513672 0.584375)"/>
     <use xlink:href="#DejaVuSans-Oblique-68" transform="translate(644.785156 0.584375)"/>
     <use xlink:href="#DejaVuSans-Oblique-75" transform="translate(708.164062 -15.821875) scale(0.7)"/>
    </g>
   </g>
  </g>
 </g>
 <defs>
  <clipPath id="pad3d1fb585">
   <rect x="9.885294" y="7.2" width="288" height="288"/>
  </clipPath>
 </defs>
</svg>
