<?xml version="1.0" encoding="utf-8" standalone="no"?>
<!DOCTYPE svg PUBLIC "-//W3C//DTD SVG 1.1//EN"
  "http://www.w3.org/Graphics/SVG/1.1/DTD/svg11.dtd">
<svg xmlns:xlink="http://www.w3.org/1999/xlink" width="322.876471pt" height="302.4pt" viewBox="0 0 322.876471 302.4" xmlns="http://www.w3.org/2000/svg" version="1.1">
 <metadata>
  <rdf:RDF xmlns:dc="http://purl.org/dc/elements/1.1/" xmlns:cc="http://creativecommons.org/ns#" xmlns:rdf="http://www.w3.org/1999/02/22-rdf-syntax-ns#">
   <cc:Work>
    <dc:type rdf:resource="http://purl.org/dc/dcmitype/StillImage"/>
    <dc:date>2025-03-31T16:37:24.259152</dc:date>
    <dc:format>image/svg+xml</dc:format>
    <dc:creator>
     <cc:Agent>
      <dc:title>Matplotlib v3.10.0, https://matplotlib.org/</dc:title>
     </cc:Agent>
    </dc:creator>
   </cc:Work>
  </rdf:RDF>
 </metadata>
 <defs>
  <style type="text/css">*{stroke-linejoin: round; stroke-linecap: butt}</style>
 </defs>
 <g id="figure_1">
  <g id="patch_1">
   <path d="M 0 302.4 
L 322.876471 302.4 
L 322.876471 0 
L 0 0 
z
" style="fill: #ffffff"/>
  </g>
  <g id="axes_1">
   <g id="patch_2">
    <path d="M 44.617647 279.2 
L 78.5 279.2 
L 78.5 247.2 
L 44.617647 247.2 
L 44.617647 279.2 
z
" clip-path="url(#pecdef12cb9)" style="fill: none; stroke: #000000; stroke-width: 0.5; stroke-linejoin: miter"/>
   </g>
   <g id="patch_3">
    <path d="M 44.617647 247.2 
L 78.5 247.2 
L 78.5 215.2 
L 44.617647 215.2 
L 44.617647 247.2 
z
" clip-path="url(#pecdef12cb9)" style="fill: none; stroke: #000000; stroke-width: 0.5; stroke-linejoin: miter"/>
   </g>
   <g id="patch_4">
    <path d="M 78.5 247.2 
L 112.382353 247.2 
L 112.382353 215.2 
L 78.5 215.2 
L 78.5 247.2 
z
" clip-path="url(#pecdef12cb9)" style="fill: none; stroke: #000000; stroke-width: 0.5; stroke-linejoin: miter"/>
   </g>
   <g id="patch_5">
    <path d="M 44.617647 215.2 
L 78.5 215.2 
L 78.5 183.2 
L 44.617647 183.2 
L 44.617647 215.2 
z
" clip-path="url(#pecdef12cb9)" style="fill: none; stroke: #000000; stroke-width: 0.5; stroke-linejoin: miter"/>
   </g>
   <g id="patch_6">
    <path d="M 78.5 215.2 
L 112.382353 215.2 
L 112.382353 183.2 
L 78.5 183.2 
L 78.5 215.2 
z
" clip-path="url(#pecdef12cb9)" style="fill: none; stroke: #000000; stroke-width: 0.5; stroke-linejoin: miter"/>
   </g>
   <g id="patch_7">
    <path d="M 112.382353 215.2 
L 146.264706 215.2 
L 146.264706 183.2 
L 112.382353 183.2 
L 112.382353 215.2 
z
" clip-path="url(#pecdef12cb9)" style="fill: none; stroke: #000000; stroke-width: 0.5; stroke-linejoin: miter"/>
   </g>
   <g id="patch_8">
    <path d="M 44.617647 183.2 
L 78.5 183.2 
L 78.5 151.2 
L 44.617647 151.2 
L 44.617647 183.2 
z
" clip-path="url(#pecdef12cb9)" style="fill: none; stroke: #000000; stroke-width: 0.5; stroke-linejoin: miter"/>
   </g>
   <g id="patch_9">
    <path d="M 78.5 183.2 
L 112.382353 183.2 
L 112.382353 151.2 
L 78.5 151.2 
L 78.5 183.2 
z
" clip-path="url(#pecdef12cb9)" style="fill: none; stroke: #000000; stroke-width: 0.5; stroke-linejoin: miter"/>
   </g>
   <g id="patch_10">
    <path d="M 112.382353 183.2 
L 146.264706 183.2 
L 146.264706 151.2 
L 112.382353 151.2 
L 112.382353 183.2 
z
" clip-path="url(#pecdef12cb9)" style="fill: none; stroke: #000000; stroke-width: 0.5; stroke-linejoin: miter"/>
   </g>
   <g id="patch_11">
    <path d="M 44.617647 151.2 
L 78.5 151.2 
L 78.5 119.2 
L 44.617647 119.2 
L 44.617647 151.2 
z
" clip-path="url(#pecdef12cb9)" style="fill: none; stroke: #000000; stroke-width: 0.5; stroke-linejoin: miter"/>
   </g>
   <g id="patch_12">
    <path d="M 78.5 151.2 
L 112.382353 151.2 
L 112.382353 119.2 
L 78.5 119.2 
L 78.5 151.2 
z
" clip-path="url(#pecdef12cb9)" style="fill: none; stroke: #000000; stroke-width: 0.5; stroke-linejoin: miter"/>
   </g>
   <g id="patch_13">
    <path d="M 112.382353 151.2 
L 146.264706 151.2 
L 146.264706 119.2 
L 112.382353 119.2 
L 112.382353 151.2 
z
" clip-path="url(#pecdef12cb9)" style="fill: none; stroke: #000000; stroke-width: 0.5; stroke-linejoin: miter"/>
   </g>
   <g id="patch_14">
    <path d="M 146.264706 151.2 
L 180.147059 151.2 
L 180.147059 119.2 
L 146.264706 119.2 
L 146.264706 151.2 
z
" clip-path="url(#pecdef12cb9)" style="fill: none; stroke: #000000; stroke-width: 0.5; stroke-linejoin: miter"/>
   </g>
   <g id="patch_15">
    <path d="M 180.147059 151.2 
L 214.029412 151.2 
L 214.029412 119.2 
L 180.147059 119.2 
L 180.147059 151.2 
z
" clip-path="url(#pecdef12cb9)" style="fill: none; stroke: #000000; stroke-width: 0.5; stroke-linejoin: miter"/>
   </g>
   <g id="patch_16">
    <path d="M 44.617647 119.2 
L 78.5 119.2 
L 78.5 87.2 
L 44.617647 87.2 
L 44.617647 119.2 
z
" clip-path="url(#pecdef12cb9)" style="fill: none; stroke: #000000; stroke-width: 0.5; stroke-linejoin: miter"/>
   </g>
   <g id="patch_17">
    <path d="M 78.5 119.2 
L 112.382353 119.2 
L 112.382353 87.2 
L 78.5 87.2 
L 78.5 119.2 
z
" clip-path="url(#pecdef12cb9)" style="fill: none; stroke: #000000; stroke-width: 0.5; stroke-linejoin: miter"/>
   </g>
   <g id="patch_18">
    <path d="M 112.382353 119.2 
L 146.264706 119.2 
L 146.264706 87.2 
L 112.382353 87.2 
L 112.382353 119.2 
z
" clip-path="url(#pecdef12cb9)" style="fill: none; stroke: #000000; stroke-width: 0.5; stroke-linejoin: miter"/>
   </g>
   <g id="patch_19">
    <path d="M 146.264706 119.2 
L 180.147059 119.2 
L 180.147059 87.2 
L 146.264706 87.2 
L 146.264706 119.2 
z
" clip-path="url(#pecdef12cb9)" style="fill: none; stroke: #000000; stroke-width: 0.5; stroke-linejoin: miter"/>
   </g>
   <g id="patch_20">
    <path d="M 180.147059 119.2 
L 214.029412 119.2 
L 214.029412 87.2 
L 180.147059 87.2 
L 180.147059 119.2 
z
" clip-path="url(#pecdef12cb9)" style="fill: none; stroke: #000000; stroke-width: 0.5; stroke-linejoin: miter"/>
   </g>
   <g id="patch_21">
    <path d="M 44.617647 87.2 
L 78.5 87.2 
L 78.5 55.2 
L 44.617647 55.2 
L 44.617647 87.2 
z
" clip-path="url(#pecdef12cb9)" style="fill: none; stroke: #000000; stroke-width: 0.5; stroke-linejoin: miter"/>
   </g>
   <g id="patch_22">
    <path d="M 78.5 87.2 
L 112.382353 87.2 
L 112.382353 55.2 
L 78.5 55.2 
L 78.5 87.2 
z
" clip-path="url(#pecdef12cb9)" style="fill: none; stroke: #000000; stroke-width: 0.5; stroke-linejoin: miter"/>
   </g>
   <g id="patch_23">
    <path d="M 112.382353 87.2 
L 146.264706 87.2 
L 146.264706 55.2 
L 112.382353 55.2 
L 112.382353 87.2 
z
" clip-path="url(#pecdef12cb9)" style="fill: none; stroke: #000000; stroke-width: 0.5; stroke-linejoin: miter"/>
   </g>
   <g id="patch_24">
    <path d="M 146.264706 87.2 
L 180.147059 87.2 
L 180.147059 55.2 
L 146.264706 55.2 
L 146.264706 87.2 
z
" clip-path="url(#pecdef12cb9)" style="fill: none; stroke: #000000; stroke-width: 0.5; stroke-linejoin: miter"/>
   </g>
   <g id="patch_25">
    <path d="M 180.147059 87.2 
L 214.029412 87.2 
L 214.029412 55.2 
L 180.147059 55.2 
L 180.147059 87.2 
z
" clip-path="url(#pecdef12cb9)" style="fill: none; stroke: #000000; stroke-width: 0.5; stroke-linejoin: miter"/>
   </g>
   <g id="patch_26">
    <path d="M 214.029412 87.2 
L 247.911765 87.2 
L 247.911765 55.2 
L 214.029412 55.2 
L 214.029412 87.2 
z
" clip-path="url(#pecdef12cb9)" style="fill: none; stroke: #000000; stroke-width: 0.5; stroke-linejoin: miter"/>
   </g>
   <g id="patch_27">
    <path d="M 44.617647 55.2 
L 78.5 55.2 
L 78.5 23.2 
L 44.617647 23.2 
L 44.617647 55.2 
z
" clip-path="url(#pecdef12cb9)" style="fill: none; stroke: #000000; stroke-width: 0.5; stroke-linejoin: miter"/>
   </g>
   <g id="patch_28">
    <path d="M 78.5 55.2 
L 112.382353 55.2 
L 112.382353 23.2 
L 78.5 23.2 
L 78.5 55.2 
z
" clip-path="url(#pecdef12cb9)" style="fill: none; stroke: #000000; stroke-width: 0.5; stroke-linejoin: miter"/>
   </g>
   <g id="patch_29">
    <path d="M 112.382353 55.2 
L 146.264706 55.2 
L 146.264706 23.2 
L 112.382353 23.2 
L 112.382353 55.2 
z
" clip-path="url(#pecdef12cb9)" style="fill: none; stroke: #000000; stroke-width: 0.5; stroke-linejoin: miter"/>
   </g>
   <g id="patch_30">
    <path d="M 146.264706 55.2 
L 180.147059 55.2 
L 180.147059 23.2 
L 146.264706 23.2 
L 146.264706 55.2 
z
" clip-path="url(#pecdef12cb9)" style="fill: none; stroke: #000000; stroke-width: 0.5; stroke-linejoin: miter"/>
   </g>
   <g id="patch_31">
    <path d="M 180.147059 55.2 
L 214.029412 55.2 
L 214.029412 23.2 
L 180.147059 23.2 
L 180.147059 55.2 
z
" clip-path="url(#pecdef12cb9)" style="fill: none; stroke: #000000; stroke-width: 0.5; stroke-linejoin: miter"/>
   </g>
   <g id="patch_32">
    <path d="M 214.029412 55.2 
L 247.911765 55.2 
L 247.911765 23.2 
L 214.029412 23.2 
L 214.029412 55.2 
z
" clip-path="url(#pecdef12cb9)" style="fill: none; stroke: #000000; stroke-width: 0.5; stroke-linejoin: miter"/>
   </g>
   <g id="patch_33">
    <path d="M 247.911765 55.2 
L 281.794118 55.2 
L 281.794118 23.2 
L 247.911765 23.2 
L 247.911765 55.2 
z
" clip-path="url(#pecdef12cb9)" style="fill: none; stroke: #000000; stroke-width: 0.5; stroke-linejoin: miter"/>
   </g>
   <g id="patch_34">
    <path d="M 44.617647 280.8 
C 45.066932 280.8 45.497876 280.631414 45.815569 280.331371 
C 46.133262 280.031328 46.311765 279.624325 46.311765 279.2 
C 46.311765 278.775675 46.133262 278.368672 45.815569 278.068629 
C 45.497876 277.768586 45.066932 277.6 44.617647 277.6 
C 44.168362 277.6 43.737418 277.768586 43.419725 278.068629 
C 43.102032 278.368672 42.923529 278.775675 42.923529 279.2 
C 42.923529 279.624325 43.102032 280.031328 43.419725 280.331371 
C 43.737418 280.631414 44.168362 280.8 44.617647 280.8 
z
" clip-path="url(#pecdef12cb9)" style="fill: #ffffff; stroke: #000000; stroke-linejoin: miter"/>
   </g>
   <g id="patch_35">
    <path d="M 281.794118 24.8 
C 282.243403 24.8 282.674347 24.631414 282.99204 24.331371 
C 283.309732 24.031328 283.488235 23.624325 283.488235 23.2 
C 283.488235 22.775675 283.309732 22.368672 282.99204 22.068629 
C 282.674347 21.768586 282.243403 21.6 281.794118 21.6 
C 281.344832 21.6 280.913888 21.768586 280.596196 22.068629 
C 280.278503 22.368672 280.1 22.775675 280.1 23.2 
C 280.1 23.624325 280.278503 24.031328 280.596196 24.331371 
C 280.913888 24.631414 281.344832 24.8 281.794118 24.8 
z
" clip-path="url(#pecdef12cb9)" style="fill: #ffffff; stroke: #000000; stroke-linejoin: miter"/>
   </g>
   <g id="patch_36">
    <path d="M 44.617647 151.2 
L 78.5 151.2 
L 78.5 119.2 
L 44.617647 119.2 
z
" clip-path="url(#pecdef12cb9)" style="fill: #0033cc"/>
   </g>
   <g id="patch_37">
    <path d="M 180.147059 55.2 
L 214.029412 55.2 
L 214.029412 23.2 
L 180.147059 23.2 
z
" clip-path="url(#pecdef12cb9)" style="fill: #cc3300"/>
   </g>
   <g id="text_1">
    <!-- row $k$ -->
    <g transform="translate(7.2 41.959375) scale(0.1 -0.1)">
     <defs>
      <path id="DejaVuSans-72" d="M 2631 2963 
Q 2534 3019 2420 3045 
Q 2306 3072 2169 3072 
Q 1681 3072 1420 2755 
Q 1159 2438 1159 1844 
L 1159 0 
L 581 0 
L 581 3500 
L 1159 3500 
L 1159 2956 
Q 1341 3275 1631 3429 
Q 1922 3584 2338 3584 
Q 2397 3584 2469 3576 
Q 2541 3569 2628 3553 
L 2631 2963 
z
" transform="scale(0.015625)"/>
      <path id="DejaVuSans-6f" d="M 1959 3097 
Q 1497 3097 1228 2736 
Q 959 2375 959 1747 
Q 959 1119 1226 758 
Q 1494 397 1959 397 
Q 2419 397 2687 759 
Q 2956 1122 2956 1747 
Q 2956 2369 2687 2733 
Q 2419 3097 1959 3097 
z
M 1959 3584 
Q 2709 3584 3137 3096 
Q 3566 2609 3566 1747 
Q 3566 888 3137 398 
Q 2709 -91 1959 -91 
Q 1206 -91 779 398 
Q 353 888 353 1747 
Q 353 2609 779 3096 
Q 1206 3584 1959 3584 
z
" transform="scale(0.015625)"/>
      <path id="DejaVuSans-77" d="M 269 3500 
L 844 3500 
L 1563 769 
L 2278 3500 
L 2956 3500 
L 3675 769 
L 4391 3500 
L 4966 3500 
L 4050 0 
L 3372 0 
L 2619 2869 
L 1863 0 
L 1184 0 
L 269 3500 
z
" transform="scale(0.015625)"/>
      <path id="DejaVuSans-20" transform="scale(0.015625)"/>
      <path id="DejaVuSans-Oblique-6b" d="M 1172 4863 
L 1747 4863 
L 1197 2028 
L 3169 3500 
L 3916 3500 
L 1716 1825 
L 3322 0 
L 2625 0 
L 1131 1709 
L 800 0 
L 225 0 
L 1172 4863 
z
" transform="scale(0.015625)"/>
     </defs>
     <use xlink:href="#DejaVuSans-72" transform="translate(0 0.015625)"/>
     <use xlink:href="#DejaVuSans-6f" transform="translate(41.113281 0.015625)"/>
     <use xlink:href="#DejaVuSans-77" transform="translate(102.294922 0.015625)"/>
     <use xlink:href="#DejaVuSans-20" transform="translate(184.082031 0.015625)"/>
     <use xlink:href="#DejaVuSans-Oblique-6b" transform="translate(215.869141 0.015625)"/>
    </g>
   </g>
   <g id="text_2">
    <!-- $0$ -->
    <g transform="translate(58.358824 288.359375) scale(0.1 -0.1)">
     <defs>
      <path id="DejaVuSans-30" d="M 2034 4250 
Q 1547 4250 1301 3770 
Q 1056 3291 1056 2328 
Q 1056 1369 1301 889 
Q 1547 409 2034 409 
Q 2525 409 2770 889 
Q 3016 1369 3016 2328 
Q 3016 3291 2770 3770 
Q 2525 4250 2034 4250 
z
M 2034 4750 
Q 2819 4750 3233 4129 
Q 3647 3509 3647 2328 
Q 3647 1150 3233 529 
Q 2819 -91 2034 -91 
Q 1250 -91 836 529 
Q 422 1150 422 2328 
Q 422 3509 836 4129 
Q 1250 4750 2034 4750 
z
" transform="scale(0.015625)"/>
     </defs>
     <use xlink:href="#DejaVuSans-30" transform="translate(0 0.78125)"/>
    </g>
   </g>
   <g id="text_3">
    <!-- $1$ -->
    <g transform="translate(82.076471 265.959375) scale(0.1 -0.1)">
     <defs>
      <path id="DejaVuSans-31" d="M 794 531 
L 1825 531 
L 1825 4091 
L 703 3866 
L 703 4441 
L 1819 4666 
L 2450 4666 
L 2450 531 
L 3481 531 
L 3481 0 
L 794 0 
L 794 531 
z
" transform="scale(0.015625)"/>
     </defs>
     <use xlink:href="#DejaVuSans-31" transform="translate(0 0.09375)"/>
    </g>
   </g>
   <g id="text_4">
    <!-- $2$ -->
    <g transform="translate(92.241176 256.359375) scale(0.1 -0.1)">
     <defs>
      <path id="DejaVuSans-32" d="M 1228 531 
L 3431 531 
L 3431 0 
L 469 0 
L 469 531 
Q 828 903 1448 1529 
Q 2069 2156 2228 2338 
Q 2531 2678 2651 2914 
Q 2772 3150 2772 3378 
Q 2772 3750 2511 3984 
Q 2250 4219 1831 4219 
Q 1534 4219 1204 4116 
Q 875 4013 500 3803 
L 500 4441 
Q 881 4594 1212 4672 
Q 1544 4750 1819 4750 
Q 2544 4750 2975 4387 
Q 3406 4025 3406 3419 
Q 3406 3131 3298 2873 
Q 3191 2616 2906 2266 
Q 2828 2175 2409 1742 
Q 1991 1309 1228 531 
z
" transform="scale(0.015625)"/>
     </defs>
     <use xlink:href="#DejaVuSans-32" transform="translate(0 0.78125)"/>
    </g>
   </g>
   <g id="text_5">
    <!-- $3$ -->
    <g transform="translate(115.958824 233.959375) scale(0.1 -0.1)">
     <defs>
      <path id="DejaVuSans-33" d="M 2597 2516 
Q 3050 2419 3304 2112 
Q 3559 1806 3559 1356 
Q 3559 666 3084 287 
Q 2609 -91 1734 -91 
Q 1441 -91 1130 -33 
Q 819 25 488 141 
L 488 750 
Q 750 597 1062 519 
Q 1375 441 1716 441 
Q 2309 441 2620 675 
Q 2931 909 2931 1356 
Q 2931 1769 2642 2001 
Q 2353 2234 1838 2234 
L 1294 2234 
L 1294 2753 
L 1863 2753 
Q 2328 2753 2575 2939 
Q 2822 3125 2822 3475 
Q 2822 3834 2567 4026 
Q 2313 4219 1838 4219 
Q 1578 4219 1281 4162 
Q 984 4106 628 3988 
L 628 4550 
Q 988 4650 1302 4700 
Q 1616 4750 1894 4750 
Q 2613 4750 3031 4423 
Q 3450 4097 3450 3541 
Q 3450 3153 3228 2886 
Q 3006 2619 2597 2516 
z
" transform="scale(0.015625)"/>
     </defs>
     <use xlink:href="#DejaVuSans-33" transform="translate(0 0.78125)"/>
    </g>
   </g>
   <g id="text_6">
    <!-- $h_{k1}$ -->
    <g transform="translate(284.358824 41.959375) scale(0.1 -0.1)">
     <defs>
      <path id="DejaVuSans-Oblique-68" d="M 3566 2113 
L 3156 0 
L 2578 0 
L 2988 2091 
Q 3016 2238 3031 2350 
Q 3047 2463 3047 2528 
Q 3047 2791 2881 2937 
Q 2716 3084 2419 3084 
Q 1956 3084 1617 2771 
Q 1278 2459 1178 1941 
L 800 0 
L 225 0 
L 1172 4863 
L 1747 4863 
L 1375 2950 
Q 1594 3244 1934 3414 
Q 2275 3584 2650 3584 
Q 3113 3584 3367 3334 
Q 3622 3084 3622 2631 
Q 3622 2519 3608 2391 
Q 3594 2263 3566 2113 
z
" transform="scale(0.015625)"/>
     </defs>
     <use xlink:href="#DejaVuSans-Oblique-68" transform="translate(0 0.015625)"/>
     <use xlink:href="#DejaVuSans-Oblique-6b" transform="translate(63.378906 -16.390625) scale(0.7)"/>
     <use xlink:href="#DejaVuSans-31" transform="translate(103.916016 -16.390625) scale(0.7)"/>
    </g>
   </g>
   <g id="text_7">
    <!-- $v$ -->
    <g style="fill: #ffffff" transform="translate(58.558824 137.959375) scale(0.1 -0.1)">
     <defs>
      <path id="DejaVuSans-Oblique-76" d="M 459 3500 
L 1069 3500 
L 1581 525 
L 3256 3500 
L 3866 3500 
L 1875 0 
L 1100 0 
L 459 3500 
z
" transform="scale(0.015625)"/>
     </defs>
     <use xlink:href="#DejaVuSans-Oblique-76" transform="translate(0 0.3125)"/>
    </g>
   </g>
   <g id="text_8">
    <!-- $u$ -->
    <g style="fill: #ffffff" transform="translate(193.888235 41.959375) scale(0.1 -0.1)">
     <defs>
      <path id="DejaVuSans-Oblique-75" d="M 428 1388 
L 838 3500 
L 1416 3500 
L 1006 1409 
Q 975 1256 961 1147 
Q 947 1038 947 966 
Q 947 700 1109 554 
Q 1272 409 1569 409 
Q 2031 409 2368 721 
Q 2706 1034 2809 1563 
L 3194 3500 
L 3769 3500 
L 3091 0 
L 2516 0 
L 2631 550 
Q 2388 244 2052 76 
Q 1716 -91 1338 -91 
Q 878 -91 622 161 
Q 366 413 366 863 
Q 366 956 381 1097 
Q 397 1238 428 1388 
z
" transform="scale(0.015625)"/>
     </defs>
     <use xlink:href="#DejaVuSans-Oblique-75" transform="translate(0 0.3125)"/>
    </g>
   </g>
   <g id="text_9">
    <!-- $h_v$ -->
    <g style="fill: #0033cc" transform="translate(218.254118 138.235312) scale(0.11 -0.11)">
     <use xlink:href="#DejaVuSans-Oblique-68" transform="translate(0 0.015625)"/>
     <use xlink:href="#DejaVuSans-Oblique-76" transform="translate(63.378906 -16.390625) scale(0.7)"/>
    </g>
   </g>
   <g id="text_10">
    <!-- $h_{k1} - h_u$ -->
    <g style="fill: #cc3300" transform="translate(175.913235 163.835312) scale(0.11 -0.11)">
     <defs>
      <path id="DejaVuSans-2212" d="M 678 2272 
L 4684 2272 
L 4684 1741 
L 678 1741 
L 678 2272 
z
" transform="scale(0.015625)"/>
     </defs>
     <use xlink:href="#DejaVuSans-Oblique-68" transform="translate(0 0.015625)"/>
     <use xlink:href="#DejaVuSans-Oblique-6b" transform="translate(63.378906 -16.390625) scale(0.7)"/>
     <use xlink:href="#DejaVuSans-31" transform="translate(103.916016 -16.390625) scale(0.7)"/>
     <use xlink:href="#DejaVuSans-2212" transform="translate(170.668945 0.015625)"/>
     <use xlink:href="#DejaVuSans-Oblique-68" transform="translate(273.94043 0.015625)"/>
     <use xlink:href="#DejaVuSans-Oblique-75" transform="translate(337.319336 -16.390625) scale(0.7)"/>
    </g>
   </g>
  </g>
 </g>
 <defs>
  <clipPath id="pecdef12cb9">
   <rect x="27.676471" y="7.2" width="288" height="288"/>
  </clipPath>
 </defs>
</svg>
