<?xml version="1.0" encoding="UTF-8"?>
<svg xmlns="http://www.w3.org/2000/svg" xmlns:xlink="http://www.w3.org/1999/xlink" width="400pt" height="400pt" viewBox="0 0 400 400" version="1.1">
<g id="surface1">
<path style=" stroke:none;fill-rule:nonzero;fill:rgb(39.988708%,100%,10.009766%);fill-opacity:1;" d="M 52.171875 295.652344 L 22.050781 313.042969 L 22.050781 347.828125 L 52.171875 365.21875 L 82.296875 347.828125 L 82.296875 313.042969 "/>
<path style="fill:none;stroke-width:10;stroke-linecap:butt;stroke-linejoin:miter;stroke:rgb(0%,0%,0%);stroke-opacity:1;stroke-miterlimit:10;" d="M 521.71875 1043.476562 L 220.507812 869.570312 L 220.507812 521.71875 L 521.71875 347.8125 L 822.96875 521.71875 L 822.96875 869.570312 Z M 521.71875 1043.476562 " transform="matrix(0.1,0,0,-0.1,0,400)"/>
<path style=" stroke:none;fill-rule:nonzero;fill:rgb(39.988708%,100%,10.009766%);fill-opacity:1;" d="M 112.417969 295.652344 L 82.296875 313.042969 L 82.296875 347.828125 L 112.417969 365.21875 L 142.542969 347.828125 L 142.542969 313.042969 "/>
<path style="fill:none;stroke-width:10;stroke-linecap:butt;stroke-linejoin:miter;stroke:rgb(0%,0%,0%);stroke-opacity:1;stroke-miterlimit:10;" d="M 1124.179688 1043.476562 L 822.96875 869.570312 L 822.96875 521.71875 L 1124.179688 347.8125 L 1425.429688 521.71875 L 1425.429688 869.570312 Z M 1124.179688 1043.476562 " transform="matrix(0.1,0,0,-0.1,0,400)"/>
<path style=" stroke:none;fill-rule:nonzero;fill:rgb(39.988708%,100%,10.009766%);fill-opacity:1;" d="M 172.664062 295.652344 L 142.542969 313.042969 L 142.542969 347.828125 L 172.664062 365.21875 L 202.785156 347.828125 L 202.785156 313.042969 "/>
<path style="fill:none;stroke-width:10;stroke-linecap:butt;stroke-linejoin:miter;stroke:rgb(0%,0%,0%);stroke-opacity:1;stroke-miterlimit:10;" d="M 1726.640625 1043.476562 L 1425.429688 869.570312 L 1425.429688 521.71875 L 1726.640625 347.8125 L 2027.851562 521.71875 L 2027.851562 869.570312 Z M 1726.640625 1043.476562 " transform="matrix(0.1,0,0,-0.1,0,400)"/>
<path style=" stroke:none;fill-rule:nonzero;fill:rgb(39.988708%,100%,10.009766%);fill-opacity:1;" d="M 232.910156 295.652344 L 202.785156 313.042969 L 202.785156 347.828125 L 232.910156 365.21875 L 263.03125 347.828125 L 263.03125 313.042969 "/>
<path style="fill:none;stroke-width:10;stroke-linecap:butt;stroke-linejoin:miter;stroke:rgb(0%,0%,0%);stroke-opacity:1;stroke-miterlimit:10;" d="M 2329.101562 1043.476562 L 2027.851562 869.570312 L 2027.851562 521.71875 L 2329.101562 347.8125 L 2630.3125 521.71875 L 2630.3125 869.570312 Z M 2329.101562 1043.476562 " transform="matrix(0.1,0,0,-0.1,0,400)"/>
<path style=" stroke:none;fill-rule:nonzero;fill:rgb(39.988708%,100%,10.009766%);fill-opacity:1;" d="M 293.15625 295.652344 L 263.03125 313.042969 L 263.03125 347.828125 L 293.15625 365.21875 L 323.277344 347.828125 L 323.277344 313.042969 "/>
<path style="fill:none;stroke-width:10;stroke-linecap:butt;stroke-linejoin:miter;stroke:rgb(0%,0%,0%);stroke-opacity:1;stroke-miterlimit:10;" d="M 2931.5625 1043.476562 L 2630.3125 869.570312 L 2630.3125 521.71875 L 2931.5625 347.8125 L 3232.773438 521.71875 L 3232.773438 869.570312 Z M 2931.5625 1043.476562 " transform="matrix(0.1,0,0,-0.1,0,400)"/>
<path style=" stroke:none;fill-rule:nonzero;fill:rgb(39.988708%,100%,10.009766%);fill-opacity:1;" d="M 353.398438 295.652344 L 323.277344 313.042969 L 323.277344 347.828125 L 353.398438 365.21875 L 383.523438 347.828125 L 383.523438 313.042969 "/>
<path style="fill:none;stroke-width:10;stroke-linecap:butt;stroke-linejoin:miter;stroke:rgb(0%,0%,0%);stroke-opacity:1;stroke-miterlimit:10;" d="M 3533.984375 1043.476562 L 3232.773438 869.570312 L 3232.773438 521.71875 L 3533.984375 347.8125 L 3835.234375 521.71875 L 3835.234375 869.570312 Z M 3533.984375 1043.476562 " transform="matrix(0.1,0,0,-0.1,0,400)"/>
<path style="fill:none;stroke-width:10;stroke-linecap:butt;stroke-linejoin:miter;stroke:rgb(0%,0%,0%);stroke-opacity:1;stroke-miterlimit:10;" d="M 822.96875 1565.234375 L 521.71875 1391.289062 L 521.71875 1043.476562 L 822.96875 869.570312 L 1124.179688 1043.476562 L 1124.179688 1391.289062 Z M 822.96875 1565.234375 " transform="matrix(0.1,0,0,-0.1,0,400)"/>
<path style="fill:none;stroke-width:10;stroke-linecap:butt;stroke-linejoin:miter;stroke:rgb(0%,0%,0%);stroke-opacity:1;stroke-miterlimit:10;" d="M 1425.429688 1565.234375 L 1124.179688 1391.289062 L 1124.179688 1043.476562 L 1425.429688 869.570312 L 1726.640625 1043.476562 L 1726.640625 1391.289062 Z M 1425.429688 1565.234375 " transform="matrix(0.1,0,0,-0.1,0,400)"/>
<path style="fill:none;stroke-width:10;stroke-linecap:butt;stroke-linejoin:miter;stroke:rgb(0%,0%,0%);stroke-opacity:1;stroke-miterlimit:10;" d="M 2027.851562 1565.234375 L 1726.640625 1391.289062 L 1726.640625 1043.476562 L 2027.851562 869.570312 L 2329.101562 1043.476562 L 2329.101562 1391.289062 Z M 2027.851562 1565.234375 " transform="matrix(0.1,0,0,-0.1,0,400)"/>
<path style="fill:none;stroke-width:10;stroke-linecap:butt;stroke-linejoin:miter;stroke:rgb(0%,0%,0%);stroke-opacity:1;stroke-miterlimit:10;" d="M 2630.3125 1565.234375 L 2329.101562 1391.289062 L 2329.101562 1043.476562 L 2630.3125 869.570312 L 2931.5625 1043.476562 L 2931.5625 1391.289062 Z M 2630.3125 1565.234375 " transform="matrix(0.1,0,0,-0.1,0,400)"/>
<path style="fill:none;stroke-width:10;stroke-linecap:butt;stroke-linejoin:miter;stroke:rgb(0%,0%,0%);stroke-opacity:1;stroke-miterlimit:10;" d="M 3232.773438 1565.234375 L 2931.5625 1391.289062 L 2931.5625 1043.476562 L 3232.773438 869.570312 L 3533.984375 1043.476562 L 3533.984375 1391.289062 Z M 3232.773438 1565.234375 " transform="matrix(0.1,0,0,-0.1,0,400)"/>
<path style="fill:none;stroke-width:10;stroke-linecap:butt;stroke-linejoin:miter;stroke:rgb(0%,0%,0%);stroke-opacity:1;stroke-miterlimit:10;" d="M 1124.179688 2086.953125 L 822.96875 1913.046875 L 822.96875 1565.234375 L 1124.179688 1391.289062 L 1425.429688 1565.234375 L 1425.429688 1913.046875 Z M 1124.179688 2086.953125 " transform="matrix(0.1,0,0,-0.1,0,400)"/>
<path style="fill:none;stroke-width:10;stroke-linecap:butt;stroke-linejoin:miter;stroke:rgb(0%,0%,0%);stroke-opacity:1;stroke-miterlimit:10;" d="M 1726.640625 2086.953125 L 1425.429688 1913.046875 L 1425.429688 1565.234375 L 1726.640625 1391.289062 L 2027.851562 1565.234375 L 2027.851562 1913.046875 Z M 1726.640625 2086.953125 " transform="matrix(0.1,0,0,-0.1,0,400)"/>
<path style="fill:none;stroke-width:10;stroke-linecap:butt;stroke-linejoin:miter;stroke:rgb(0%,0%,0%);stroke-opacity:1;stroke-miterlimit:10;" d="M 2329.101562 2086.953125 L 2027.851562 1913.046875 L 2027.851562 1565.234375 L 2329.101562 1391.289062 L 2630.3125 1565.234375 L 2630.3125 1913.046875 Z M 2329.101562 2086.953125 " transform="matrix(0.1,0,0,-0.1,0,400)"/>
<path style="fill:none;stroke-width:10;stroke-linecap:butt;stroke-linejoin:miter;stroke:rgb(0%,0%,0%);stroke-opacity:1;stroke-miterlimit:10;" d="M 2931.5625 2086.953125 L 2630.3125 1913.046875 L 2630.3125 1565.234375 L 2931.5625 1391.289062 L 3232.773438 1565.234375 L 3232.773438 1913.046875 Z M 2931.5625 2086.953125 " transform="matrix(0.1,0,0,-0.1,0,400)"/>
<path style="fill:none;stroke-width:10;stroke-linecap:butt;stroke-linejoin:miter;stroke:rgb(0%,0%,0%);stroke-opacity:1;stroke-miterlimit:10;" d="M 1425.429688 2608.710938 L 1124.179688 2434.765625 L 1124.179688 2086.953125 L 1425.429688 1913.046875 L 1726.640625 2086.953125 L 1726.640625 2434.765625 Z M 1425.429688 2608.710938 " transform="matrix(0.1,0,0,-0.1,0,400)"/>
<path style="fill:none;stroke-width:10;stroke-linecap:butt;stroke-linejoin:miter;stroke:rgb(0%,0%,0%);stroke-opacity:1;stroke-miterlimit:10;" d="M 2027.851562 2608.710938 L 1726.640625 2434.765625 L 1726.640625 2086.953125 L 2027.851562 1913.046875 L 2329.101562 2086.953125 L 2329.101562 2434.765625 Z M 2027.851562 2608.710938 " transform="matrix(0.1,0,0,-0.1,0,400)"/>
<path style="fill:none;stroke-width:10;stroke-linecap:butt;stroke-linejoin:miter;stroke:rgb(0%,0%,0%);stroke-opacity:1;stroke-miterlimit:10;" d="M 2630.3125 2608.710938 L 2329.101562 2434.765625 L 2329.101562 2086.953125 L 2630.3125 1913.046875 L 2931.5625 2086.953125 L 2931.5625 2434.765625 Z M 2630.3125 2608.710938 " transform="matrix(0.1,0,0,-0.1,0,400)"/>
<path style="fill:none;stroke-width:10;stroke-linecap:butt;stroke-linejoin:miter;stroke:rgb(0%,0%,0%);stroke-opacity:1;stroke-miterlimit:10;" d="M 1726.640625 3130.429688 L 1425.429688 2956.523438 L 1425.429688 2608.710938 L 1726.640625 2434.765625 L 2027.851562 2608.710938 L 2027.851562 2956.523438 Z M 1726.640625 3130.429688 " transform="matrix(0.1,0,0,-0.1,0,400)"/>
<path style="fill:none;stroke-width:10;stroke-linecap:butt;stroke-linejoin:miter;stroke:rgb(0%,0%,0%);stroke-opacity:1;stroke-miterlimit:10;" d="M 2329.101562 3130.429688 L 2027.851562 2956.523438 L 2027.851562 2608.710938 L 2329.101562 2434.765625 L 2630.3125 2608.710938 L 2630.3125 2956.523438 Z M 2329.101562 3130.429688 " transform="matrix(0.1,0,0,-0.1,0,400)"/>
<path style="fill:none;stroke-width:10;stroke-linecap:butt;stroke-linejoin:miter;stroke:rgb(0%,0%,0%);stroke-opacity:1;stroke-miterlimit:10;" d="M 2027.851562 3652.1875 L 1726.640625 3478.242188 L 1726.640625 3130.429688 L 2027.851562 2956.523438 L 2329.101562 3130.429688 L 2329.101562 3478.242188 Z M 2027.851562 3652.1875 " transform="matrix(0.1,0,0,-0.1,0,400)"/>
</g>
</svg>
