<?xml version="1.0" encoding="UTF-8"?>
<svg xmlns="http://www.w3.org/2000/svg" xmlns:xlink="http://www.w3.org/1999/xlink" width="500pt" height="200pt" viewBox="0 0 500 200" version="1.1">
<g id="surface1">
<path style=" stroke:none;fill-rule:nonzero;fill:rgb(39.988708%,100%,10.009766%);fill-opacity:1;" d="M 250 70 L 224.019531 85 L 224.019531 115 L 250 130 L 275.980469 115 L 275.980469 85 "/>
<path style="fill:none;stroke-width:10;stroke-linecap:butt;stroke-linejoin:miter;stroke:rgb(0%,0%,0%);stroke-opacity:1;stroke-miterlimit:10;" d="M 2500 1300 L 2240.195312 1150 L 2240.195312 850 L 2500 700 L 2759.804688 850 L 2759.804688 1150 Z M 2500 1300 " transform="matrix(0.1,0,0,-0.1,0,200)"/>
<path style=" stroke:none;fill-rule:nonzero;fill:rgb(39.988708%,100%,10.009766%);fill-opacity:1;" d="M 198.039062 70 L 172.058594 85 L 172.058594 115 L 198.039062 130 L 224.019531 115 L 224.019531 85 "/>
<path style="fill:none;stroke-width:10;stroke-linecap:butt;stroke-linejoin:miter;stroke:rgb(0%,0%,0%);stroke-opacity:1;stroke-miterlimit:10;" d="M 1980.390625 1300 L 1720.585938 1150 L 1720.585938 850 L 1980.390625 700 L 2240.195312 850 L 2240.195312 1150 Z M 1980.390625 1300 " transform="matrix(0.1,0,0,-0.1,0,200)"/>
<path style=" stroke:none;fill-rule:nonzero;fill:rgb(39.988708%,100%,10.009766%);fill-opacity:1;" d="M 301.960938 70 L 275.980469 85 L 275.980469 115 L 301.960938 130 L 327.941406 115 L 327.941406 85 "/>
<path style="fill:none;stroke-width:10;stroke-linecap:butt;stroke-linejoin:miter;stroke:rgb(0%,0%,0%);stroke-opacity:1;stroke-miterlimit:10;" d="M 3019.609375 1300 L 2759.804688 1150 L 2759.804688 850 L 3019.609375 700 L 3279.414062 850 L 3279.414062 1150 Z M 3019.609375 1300 " transform="matrix(0.1,0,0,-0.1,0,200)"/>
<path style=" stroke:none;fill-rule:nonzero;fill:rgb(100%,30.004883%,0%);fill-opacity:1;" d="M 85 70 L 59.019531 85 L 59.019531 115 L 85 130 L 110.980469 115 L 110.980469 85 "/>
<path style="fill:none;stroke-width:10;stroke-linecap:butt;stroke-linejoin:miter;stroke:rgb(0%,0%,0%);stroke-opacity:1;stroke-miterlimit:10;" d="M 850 1300 L 590.195312 1150 L 590.195312 850 L 850 700 L 1109.804688 850 L 1109.804688 1150 Z M 850 1300 " transform="matrix(0.1,0,0,-0.1,0,200)"/>
<path style=" stroke:none;fill-rule:nonzero;fill:rgb(100%,30.004883%,0%);fill-opacity:1;" d="M 110.980469 25 L 85 40 L 85 70 L 110.980469 85 L 136.960938 70 L 136.960938 40 "/>
<path style="fill:none;stroke-width:10;stroke-linecap:butt;stroke-linejoin:miter;stroke:rgb(0%,0%,0%);stroke-opacity:1;stroke-miterlimit:10;" d="M 1109.804688 1750 L 850 1600 L 850 1300 L 1109.804688 1150 L 1369.609375 1300 L 1369.609375 1600 Z M 1109.804688 1750 " transform="matrix(0.1,0,0,-0.1,0,200)"/>
<path style=" stroke:none;fill-rule:nonzero;fill:rgb(100%,30.004883%,0%);fill-opacity:1;" d="M 59.019531 115 L 33.039062 130 L 33.039062 160 L 59.019531 175 L 85 160 L 85 130 "/>
<path style="fill:none;stroke-width:10;stroke-linecap:butt;stroke-linejoin:miter;stroke:rgb(0%,0%,0%);stroke-opacity:1;stroke-miterlimit:10;" d="M 590.195312 850 L 330.390625 700 L 330.390625 400 L 590.195312 250 L 850 400 L 850 700 Z M 590.195312 850 " transform="matrix(0.1,0,0,-0.1,0,200)"/>
<path style=" stroke:none;fill-rule:nonzero;fill:rgb(0%,50%,100%);fill-opacity:1;" d="M 415 70 L 389.019531 85 L 389.019531 115 L 415 130 L 440.980469 115 L 440.980469 85 "/>
<path style="fill:none;stroke-width:10;stroke-linecap:butt;stroke-linejoin:miter;stroke:rgb(0%,0%,0%);stroke-opacity:1;stroke-miterlimit:10;" d="M 4150 1300 L 3890.195312 1150 L 3890.195312 850 L 4150 700 L 4409.804688 850 L 4409.804688 1150 Z M 4150 1300 " transform="matrix(0.1,0,0,-0.1,0,200)"/>
<path style=" stroke:none;fill-rule:nonzero;fill:rgb(0%,50%,100%);fill-opacity:1;" d="M 440.980469 115 L 415 130 L 415 160 L 440.980469 175 L 466.960938 160 L 466.960938 130 "/>
<path style="fill:none;stroke-width:10;stroke-linecap:butt;stroke-linejoin:miter;stroke:rgb(0%,0%,0%);stroke-opacity:1;stroke-miterlimit:10;" d="M 4409.804688 850 L 4150 700 L 4150 400 L 4409.804688 250 L 4669.609375 400 L 4669.609375 700 Z M 4409.804688 850 " transform="matrix(0.1,0,0,-0.1,0,200)"/>
<path style=" stroke:none;fill-rule:nonzero;fill:rgb(0%,50%,100%);fill-opacity:1;" d="M 389.019531 25 L 363.039062 40 L 363.039062 70 L 389.019531 85 L 415 70 L 415 40 "/>
<path style="fill:none;stroke-width:10;stroke-linecap:butt;stroke-linejoin:miter;stroke:rgb(0%,0%,0%);stroke-opacity:1;stroke-miterlimit:10;" d="M 3890.195312 1750 L 3630.390625 1600 L 3630.390625 1300 L 3890.195312 1150 L 4150 1300 L 4150 1600 Z M 3890.195312 1750 " transform="matrix(0.1,0,0,-0.1,0,200)"/>
</g>
</svg>
