<?xml version="1.0" encoding="UTF-8"?>
<svg xmlns="http://www.w3.org/2000/svg" xmlns:xlink="http://www.w3.org/1999/xlink" width="300pt" height="300pt" viewBox="0 0 300 300" version="1.1">
<g id="surface1">
<path style=" stroke:none;fill-rule:nonzero;fill:rgb(59.959412%,59.959412%,59.959412%);fill-opacity:1;" d="M 13.636719 286.363281 L 286.363281 286.363281 L 81.820312 168.269531 "/>
<path style="fill:none;stroke-width:10;stroke-linecap:butt;stroke-linejoin:miter;stroke:rgb(0%,0%,0%);stroke-opacity:1;stroke-miterlimit:10;" d="M 136.367188 136.367188 L 2863.632812 136.367188 L 818.203125 1317.304688 Z M 136.367188 136.367188 " transform="matrix(0.1,0,0,-0.1,0,300)"/>
<path style=" stroke:none;fill-rule:nonzero;fill:rgb(59.959412%,59.959412%,59.959412%);fill-opacity:1;" d="M 286.363281 286.363281 L 286.363281 13.636719 L 168.269531 218.179688 "/>
<path style="fill:none;stroke-width:10;stroke-linecap:butt;stroke-linejoin:miter;stroke:rgb(0%,0%,0%);stroke-opacity:1;stroke-miterlimit:10;" d="M 2863.632812 136.367188 L 2863.632812 2863.632812 L 1682.695312 818.203125 Z M 2863.632812 136.367188 " transform="matrix(0.1,0,0,-0.1,0,300)"/>
<path style=" stroke:none;fill-rule:nonzero;fill:rgb(59.959412%,59.959412%,59.959412%);fill-opacity:1;" d="M 286.363281 13.636719 L 13.636719 13.636719 L 218.183594 131.730469 "/>
<path style="fill:none;stroke-width:10;stroke-linecap:butt;stroke-linejoin:miter;stroke:rgb(0%,0%,0%);stroke-opacity:1;stroke-miterlimit:10;" d="M 2863.632812 2863.632812 L 136.367188 2863.632812 L 2181.835938 1682.695312 Z M 2863.632812 2863.632812 " transform="matrix(0.1,0,0,-0.1,0,300)"/>
<path style=" stroke:none;fill-rule:nonzero;fill:rgb(59.959412%,59.959412%,59.959412%);fill-opacity:1;" d="M 13.636719 13.636719 L 13.636719 286.363281 L 131.730469 81.816406 "/>
<path style="fill:none;stroke-width:10;stroke-linecap:butt;stroke-linejoin:miter;stroke:rgb(0%,0%,0%);stroke-opacity:1;stroke-miterlimit:10;" d="M 136.367188 2863.632812 L 136.367188 136.367188 L 1317.304688 2181.835938 Z M 136.367188 2863.632812 " transform="matrix(0.1,0,0,-0.1,0,300)"/>
</g>
</svg>
