<?xml version="1.0" encoding="UTF-8"?>
<svg xmlns="http://www.w3.org/2000/svg" xmlns:xlink="http://www.w3.org/1999/xlink" width="400pt" height="400pt" viewBox="0 0 400 400" version="1.1">
<g id="surface1">
<path style="fill:none;stroke-width:10;stroke-linecap:butt;stroke-linejoin:miter;stroke:rgb(0%,0%,0%);stroke-opacity:1;stroke-miterlimit:10;" d="M 399.6875 932.65625 L 133.242188 778.789062 L 133.242188 471.09375 L 399.6875 317.265625 L 666.171875 471.09375 L 666.171875 778.789062 Z M 399.6875 932.65625 " transform="matrix(0.1,0,0,-0.1,0,400)"/>
<path style="fill:none;stroke-width:10;stroke-linecap:butt;stroke-linejoin:miter;stroke:rgb(0%,0%,0%);stroke-opacity:1;stroke-miterlimit:10;" d="M 932.65625 932.65625 L 666.171875 778.789062 L 666.171875 471.09375 L 932.65625 317.265625 L 1199.101562 471.09375 L 1199.101562 778.789062 Z M 932.65625 932.65625 " transform="matrix(0.1,0,0,-0.1,0,400)"/>
<path style="fill:none;stroke-width:10;stroke-linecap:butt;stroke-linejoin:miter;stroke:rgb(0%,0%,0%);stroke-opacity:1;stroke-miterlimit:10;" d="M 1465.585938 932.65625 L 1199.101562 778.789062 L 1199.101562 471.09375 L 1465.585938 317.265625 L 1732.03125 471.09375 L 1732.03125 778.789062 Z M 1465.585938 932.65625 " transform="matrix(0.1,0,0,-0.1,0,400)"/>
<path style="fill:none;stroke-width:10;stroke-linecap:butt;stroke-linejoin:miter;stroke:rgb(0%,0%,0%);stroke-opacity:1;stroke-miterlimit:10;" d="M 1998.515625 932.65625 L 1732.03125 778.789062 L 1732.03125 471.09375 L 1998.515625 317.265625 L 2265 471.09375 L 2265 778.789062 Z M 1998.515625 932.65625 " transform="matrix(0.1,0,0,-0.1,0,400)"/>
<path style="fill:none;stroke-width:10;stroke-linecap:butt;stroke-linejoin:miter;stroke:rgb(0%,0%,0%);stroke-opacity:1;stroke-miterlimit:10;" d="M 2531.445312 932.65625 L 2265 778.789062 L 2265 471.09375 L 2531.445312 317.265625 L 2797.929688 471.09375 L 2797.929688 778.789062 Z M 2531.445312 932.65625 " transform="matrix(0.1,0,0,-0.1,0,400)"/>
<path style="fill:none;stroke-width:10;stroke-linecap:butt;stroke-linejoin:miter;stroke:rgb(0%,0%,0%);stroke-opacity:1;stroke-miterlimit:10;" d="M 3064.414062 932.65625 L 2797.929688 778.789062 L 2797.929688 471.09375 L 3064.414062 317.265625 L 3330.859375 471.09375 L 3330.859375 778.789062 Z M 3064.414062 932.65625 " transform="matrix(0.1,0,0,-0.1,0,400)"/>
<path style="fill:none;stroke-width:10;stroke-linecap:butt;stroke-linejoin:miter;stroke:rgb(0%,0%,0%);stroke-opacity:1;stroke-miterlimit:10;" d="M 3597.34375 932.65625 L 3330.859375 778.789062 L 3330.859375 471.09375 L 3597.34375 317.265625 L 3863.789062 471.09375 L 3863.789062 778.789062 Z M 3597.34375 932.65625 " transform="matrix(0.1,0,0,-0.1,0,400)"/>
<path style="fill:none;stroke-width:10;stroke-linecap:butt;stroke-linejoin:miter;stroke:rgb(0%,0%,0%);stroke-opacity:1;stroke-miterlimit:10;" d="M 666.171875 1394.179688 L 399.6875 1240.351562 L 399.6875 932.65625 L 666.171875 778.789062 L 932.65625 932.65625 L 932.65625 1240.351562 Z M 666.171875 1394.179688 " transform="matrix(0.1,0,0,-0.1,0,400)"/>
<path style="fill:none;stroke-width:10;stroke-linecap:butt;stroke-linejoin:miter;stroke:rgb(0%,0%,0%);stroke-opacity:1;stroke-miterlimit:10;" d="M 1199.101562 1394.179688 L 932.65625 1240.351562 L 932.65625 932.65625 L 1199.101562 778.789062 L 1465.585938 932.65625 L 1465.585938 1240.351562 Z M 1199.101562 1394.179688 " transform="matrix(0.1,0,0,-0.1,0,400)"/>
<path style="fill:none;stroke-width:10;stroke-linecap:butt;stroke-linejoin:miter;stroke:rgb(0%,0%,0%);stroke-opacity:1;stroke-miterlimit:10;" d="M 1732.03125 1394.179688 L 1465.585938 1240.351562 L 1465.585938 932.65625 L 1732.03125 778.789062 L 1998.515625 932.65625 L 1998.515625 1240.351562 Z M 1732.03125 1394.179688 " transform="matrix(0.1,0,0,-0.1,0,400)"/>
<path style="fill:none;stroke-width:10;stroke-linecap:butt;stroke-linejoin:miter;stroke:rgb(0%,0%,0%);stroke-opacity:1;stroke-miterlimit:10;" d="M 2265 1394.179688 L 1998.515625 1240.351562 L 1998.515625 932.65625 L 2265 778.789062 L 2531.445312 932.65625 L 2531.445312 1240.351562 Z M 2265 1394.179688 " transform="matrix(0.1,0,0,-0.1,0,400)"/>
<path style="fill:none;stroke-width:10;stroke-linecap:butt;stroke-linejoin:miter;stroke:rgb(0%,0%,0%);stroke-opacity:1;stroke-miterlimit:10;" d="M 2797.929688 1394.179688 L 2531.445312 1240.351562 L 2531.445312 932.65625 L 2797.929688 778.789062 L 3064.414062 932.65625 L 3064.414062 1240.351562 Z M 2797.929688 1394.179688 " transform="matrix(0.1,0,0,-0.1,0,400)"/>
<path style="fill:none;stroke-width:10;stroke-linecap:butt;stroke-linejoin:miter;stroke:rgb(0%,0%,0%);stroke-opacity:1;stroke-miterlimit:10;" d="M 3330.859375 1394.179688 L 3064.414062 1240.351562 L 3064.414062 932.65625 L 3330.859375 778.789062 L 3597.34375 932.65625 L 3597.34375 1240.351562 Z M 3330.859375 1394.179688 " transform="matrix(0.1,0,0,-0.1,0,400)"/>
<path style="fill:none;stroke-width:10;stroke-linecap:butt;stroke-linejoin:miter;stroke:rgb(0%,0%,0%);stroke-opacity:1;stroke-miterlimit:10;" d="M 932.65625 1855.703125 L 666.171875 1701.875 L 666.171875 1394.179688 L 932.65625 1240.351562 L 1199.101562 1394.179688 L 1199.101562 1701.875 Z M 932.65625 1855.703125 " transform="matrix(0.1,0,0,-0.1,0,400)"/>
<path style="fill:none;stroke-width:10;stroke-linecap:butt;stroke-linejoin:miter;stroke:rgb(0%,0%,0%);stroke-opacity:1;stroke-miterlimit:10;" d="M 1465.585938 1855.703125 L 1199.101562 1701.875 L 1199.101562 1394.179688 L 1465.585938 1240.351562 L 1732.03125 1394.179688 L 1732.03125 1701.875 Z M 1465.585938 1855.703125 " transform="matrix(0.1,0,0,-0.1,0,400)"/>
<path style="fill:none;stroke-width:10;stroke-linecap:butt;stroke-linejoin:miter;stroke:rgb(0%,0%,0%);stroke-opacity:1;stroke-miterlimit:10;" d="M 1998.515625 1855.703125 L 1732.03125 1701.875 L 1732.03125 1394.179688 L 1998.515625 1240.351562 L 2265 1394.179688 L 2265 1701.875 Z M 1998.515625 1855.703125 " transform="matrix(0.1,0,0,-0.1,0,400)"/>
<path style="fill:none;stroke-width:10;stroke-linecap:butt;stroke-linejoin:miter;stroke:rgb(0%,0%,0%);stroke-opacity:1;stroke-miterlimit:10;" d="M 2531.445312 1855.703125 L 2265 1701.875 L 2265 1394.179688 L 2531.445312 1240.351562 L 2797.929688 1394.179688 L 2797.929688 1701.875 Z M 2531.445312 1855.703125 " transform="matrix(0.1,0,0,-0.1,0,400)"/>
<path style="fill:none;stroke-width:10;stroke-linecap:butt;stroke-linejoin:miter;stroke:rgb(0%,0%,0%);stroke-opacity:1;stroke-miterlimit:10;" d="M 3064.414062 1855.703125 L 2797.929688 1701.875 L 2797.929688 1394.179688 L 3064.414062 1240.351562 L 3330.859375 1394.179688 L 3330.859375 1701.875 Z M 3064.414062 1855.703125 " transform="matrix(0.1,0,0,-0.1,0,400)"/>
<path style="fill:none;stroke-width:10;stroke-linecap:butt;stroke-linejoin:miter;stroke:rgb(0%,0%,0%);stroke-opacity:1;stroke-miterlimit:10;" d="M 1199.101562 2317.265625 L 932.65625 2163.398438 L 932.65625 1855.703125 L 1199.101562 1701.875 L 1465.585938 1855.703125 L 1465.585938 2163.398438 Z M 1199.101562 2317.265625 " transform="matrix(0.1,0,0,-0.1,0,400)"/>
<path style="fill:none;stroke-width:10;stroke-linecap:butt;stroke-linejoin:miter;stroke:rgb(0%,0%,0%);stroke-opacity:1;stroke-miterlimit:10;" d="M 1732.03125 2317.265625 L 1465.585938 2163.398438 L 1465.585938 1855.703125 L 1732.03125 1701.875 L 1998.515625 1855.703125 L 1998.515625 2163.398438 Z M 1732.03125 2317.265625 " transform="matrix(0.1,0,0,-0.1,0,400)"/>
<path style="fill:none;stroke-width:10;stroke-linecap:butt;stroke-linejoin:miter;stroke:rgb(0%,0%,0%);stroke-opacity:1;stroke-miterlimit:10;" d="M 2265 2317.265625 L 1998.515625 2163.398438 L 1998.515625 1855.703125 L 2265 1701.875 L 2531.445312 1855.703125 L 2531.445312 2163.398438 Z M 2265 2317.265625 " transform="matrix(0.1,0,0,-0.1,0,400)"/>
<path style="fill:none;stroke-width:10;stroke-linecap:butt;stroke-linejoin:miter;stroke:rgb(0%,0%,0%);stroke-opacity:1;stroke-miterlimit:10;" d="M 2797.929688 2317.265625 L 2531.445312 2163.398438 L 2531.445312 1855.703125 L 2797.929688 1701.875 L 3064.414062 1855.703125 L 3064.414062 2163.398438 Z M 2797.929688 2317.265625 " transform="matrix(0.1,0,0,-0.1,0,400)"/>
<path style="fill:none;stroke-width:10;stroke-linecap:butt;stroke-linejoin:miter;stroke:rgb(0%,0%,0%);stroke-opacity:1;stroke-miterlimit:10;" d="M 1465.585938 2778.789062 L 1199.101562 2624.960938 L 1199.101562 2317.265625 L 1465.585938 2163.398438 L 1732.03125 2317.265625 L 1732.03125 2624.960938 Z M 1465.585938 2778.789062 " transform="matrix(0.1,0,0,-0.1,0,400)"/>
<path style="fill:none;stroke-width:10;stroke-linecap:butt;stroke-linejoin:miter;stroke:rgb(0%,0%,0%);stroke-opacity:1;stroke-miterlimit:10;" d="M 1998.515625 2778.789062 L 1732.03125 2624.960938 L 1732.03125 2317.265625 L 1998.515625 2163.398438 L 2265 2317.265625 L 2265 2624.960938 Z M 1998.515625 2778.789062 " transform="matrix(0.1,0,0,-0.1,0,400)"/>
<path style="fill:none;stroke-width:10;stroke-linecap:butt;stroke-linejoin:miter;stroke:rgb(0%,0%,0%);stroke-opacity:1;stroke-miterlimit:10;" d="M 2531.445312 2778.789062 L 2265 2624.960938 L 2265 2317.265625 L 2531.445312 2163.398438 L 2797.929688 2317.265625 L 2797.929688 2624.960938 Z M 2531.445312 2778.789062 " transform="matrix(0.1,0,0,-0.1,0,400)"/>
<path style="fill:none;stroke-width:10;stroke-linecap:butt;stroke-linejoin:miter;stroke:rgb(0%,0%,0%);stroke-opacity:1;stroke-miterlimit:10;" d="M 1732.03125 3240.351562 L 1465.585938 3086.484375 L 1465.585938 2778.789062 L 1732.03125 2624.960938 L 1998.515625 2778.789062 L 1998.515625 3086.484375 Z M 1732.03125 3240.351562 " transform="matrix(0.1,0,0,-0.1,0,400)"/>
<path style="fill:none;stroke-width:10;stroke-linecap:butt;stroke-linejoin:miter;stroke:rgb(0%,0%,0%);stroke-opacity:1;stroke-miterlimit:10;" d="M 2265 3240.351562 L 1998.515625 3086.484375 L 1998.515625 2778.789062 L 2265 2624.960938 L 2531.445312 2778.789062 L 2531.445312 3086.484375 Z M 2265 3240.351562 " transform="matrix(0.1,0,0,-0.1,0,400)"/>
<path style="fill:none;stroke-width:10;stroke-linecap:butt;stroke-linejoin:miter;stroke:rgb(0%,0%,0%);stroke-opacity:1;stroke-miterlimit:10;" d="M 1998.515625 3701.875 L 1732.03125 3548.046875 L 1732.03125 3240.351562 L 1998.515625 3086.484375 L 2265 3240.351562 L 2265 3548.046875 Z M 1998.515625 3701.875 " transform="matrix(0.1,0,0,-0.1,0,400)"/>
</g>
</svg>
