<?xml version="1.0" encoding="UTF-8"?>
<svg xmlns="http://www.w3.org/2000/svg" xmlns:xlink="http://www.w3.org/1999/xlink" width="400pt" height="150pt" viewBox="0 0 400 150" version="1.1">
<g id="surface1">
<path style="fill-rule:nonzero;fill:rgb(67.771912%,84.764099%,100%);fill-opacity:1;stroke-width:20;stroke-linecap:butt;stroke-linejoin:bevel;stroke:rgb(0%,0%,0%);stroke-opacity:1;stroke-miterlimit:10;" d="M 800 750 L 1319.609375 1050 L 800 1350 L 280.390625 1050 Z M 800 750 " transform="matrix(0.1,0,0,-0.1,0,150)"/>
<path style="fill-rule:nonzero;fill:rgb(31.396484%,18.797302%,47.509766%);fill-opacity:1;stroke-width:20;stroke-linecap:butt;stroke-linejoin:bevel;stroke:rgb(0%,0%,0%);stroke-opacity:1;stroke-miterlimit:10;" d="M 800 750 L 280.390625 1050 L 280.390625 450 L 800 150 Z M 800 750 " transform="matrix(0.1,0,0,-0.1,0,150)"/>
<path style="fill-rule:nonzero;fill:rgb(100%,56.834412%,45.896912%);fill-opacity:1;stroke-width:20;stroke-linecap:butt;stroke-linejoin:bevel;stroke:rgb(0%,0%,0%);stroke-opacity:1;stroke-miterlimit:10;" d="M 800 750 L 1319.609375 1050 L 1319.609375 450 L 800 150 Z M 800 750 " transform="matrix(0.1,0,0,-0.1,0,150)"/>
<path style="fill-rule:nonzero;fill:rgb(67.771912%,84.764099%,100%);fill-opacity:1;stroke-width:20;stroke-linecap:butt;stroke-linejoin:bevel;stroke:rgb(0%,0%,0%);stroke-opacity:1;stroke-miterlimit:10;" d="M 3200 750 L 2680.390625 450 L 3200 150 L 3719.609375 450 Z M 3200 750 " transform="matrix(0.1,0,0,-0.1,0,150)"/>
<path style="fill-rule:nonzero;fill:rgb(31.396484%,18.797302%,47.509766%);fill-opacity:1;stroke-width:20;stroke-linecap:butt;stroke-linejoin:bevel;stroke:rgb(0%,0%,0%);stroke-opacity:1;stroke-miterlimit:10;" d="M 3200 750 L 3719.609375 450 L 3719.609375 1050 L 3200 1350 Z M 3200 750 " transform="matrix(0.1,0,0,-0.1,0,150)"/>
<path style="fill-rule:nonzero;fill:rgb(100%,56.834412%,45.896912%);fill-opacity:1;stroke-width:20;stroke-linecap:butt;stroke-linejoin:bevel;stroke:rgb(0%,0%,0%);stroke-opacity:1;stroke-miterlimit:10;" d="M 3200 750 L 2680.390625 450 L 2680.390625 1050 L 3200 1350 Z M 3200 750 " transform="matrix(0.1,0,0,-0.1,0,150)"/>
<path style="fill-rule:nonzero;fill:rgb(0%,100%,50%);fill-opacity:1;stroke-width:10;stroke-linecap:butt;stroke-linejoin:bevel;stroke:rgb(0%,0%,0%);stroke-opacity:1;stroke-miterlimit:10;" d="M 2000 738.007812 L 2272.96875 738.007812 L 2252.1875 701.992188 L 2360 750 L 2252.1875 798.007812 L 2272.96875 761.992188 L 2000 761.992188 M 2000 761.992188 L 1727.03125 761.992188 L 1747.8125 798.007812 L 1640 750 L 1747.8125 701.992188 L 1727.03125 738.007812 L 2000 738.007812 " transform="matrix(0.1,0,0,-0.1,0,150)"/>
</g>
</svg>
