<?xml version="1.0" encoding="utf-8" standalone="no"?>
<!DOCTYPE svg PUBLIC "-//W3C//DTD SVG 1.1//EN"
  "http://www.w3.org/Graphics/SVG/1.1/DTD/svg11.dtd">
<svg xmlns:xlink="http://www.w3.org/1999/xlink" width="576pt" height="576pt" viewBox="0 0 576 576" xmlns="http://www.w3.org/2000/svg" version="1.1">
 <metadata>
  <rdf:RDF xmlns:dc="http://purl.org/dc/elements/1.1/" xmlns:cc="http://creativecommons.org/ns#" xmlns:rdf="http://www.w3.org/1999/02/22-rdf-syntax-ns#">
   <cc:Work>
    <dc:type rdf:resource="http://purl.org/dc/dcmitype/StillImage"/>
    <dc:date>2023-12-21T13:42:43.985734</dc:date>
    <dc:format>image/svg+xml</dc:format>
    <dc:creator>
     <cc:Agent>
      <dc:title>Matplotlib v3.7.1, https://matplotlib.org/</dc:title>
     </cc:Agent>
    </dc:creator>
   </cc:Work>
  </rdf:RDF>
 </metadata>
 <defs>
  <style type="text/css">*{stroke-linejoin: round; stroke-linecap: butt}</style>
 </defs>
 <g id="figure_1">
  <g id="patch_1">
   <path d="M 0 576 
L 576 576 
L 576 0 
L 0 0 
z
" style="fill: #ffffff"/>
  </g>
  <g id="axes_1">
   <g id="patch_2">
    <path d="M 109.846203 390.857143 
L 74.215443 370.285714 
L 74.215443 411.428571 
L 109.846203 432 
z
" clip-path="url(#p9502f12ab7)" style="fill: #503079; stroke: #000000; stroke-linejoin: miter"/>
   </g>
   <g id="patch_3">
    <path d="M 145.476962 411.428571 
L 109.846203 390.857143 
L 109.846203 432 
L 145.476962 452.571429 
z
" clip-path="url(#p9502f12ab7)" style="fill: #503079; stroke: #000000; stroke-linejoin: miter"/>
   </g>
   <g id="patch_4">
    <path d="M 216.738481 411.428571 
L 181.107722 390.857143 
L 181.107722 432 
L 216.738481 452.571429 
z
" clip-path="url(#p9502f12ab7)" style="fill: #503079; stroke: #000000; stroke-linejoin: miter"/>
   </g>
   <g id="patch_5">
    <path d="M 288 411.428571 
L 252.369241 390.857143 
L 252.369241 432 
L 288 452.571429 
z
" clip-path="url(#p9502f12ab7)" style="fill: #503079; stroke: #000000; stroke-linejoin: miter"/>
   </g>
   <g id="patch_6">
    <path d="M 359.261519 411.428571 
L 323.630759 390.857143 
L 323.630759 432 
L 359.261519 452.571429 
z
" clip-path="url(#p9502f12ab7)" style="fill: #503079; stroke: #000000; stroke-linejoin: miter"/>
   </g>
   <g id="patch_7">
    <path d="M 394.892278 432 
L 359.261519 411.428571 
L 359.261519 452.571429 
L 394.892278 473.142857 
z
" clip-path="url(#p9502f12ab7)" style="fill: #503079; stroke: #000000; stroke-linejoin: miter"/>
   </g>
   <g id="patch_8">
    <path d="M 109.846203 349.714286 
L 74.215443 329.142857 
L 74.215443 370.285714 
L 109.846203 390.857143 
z
" clip-path="url(#p9502f12ab7)" style="fill: #503079; stroke: #000000; stroke-linejoin: miter"/>
   </g>
   <g id="patch_9">
    <path d="M 145.476962 370.285714 
L 109.846203 349.714286 
L 109.846203 390.857143 
L 145.476962 411.428571 
z
" clip-path="url(#p9502f12ab7)" style="fill: #503079; stroke: #000000; stroke-linejoin: miter"/>
   </g>
   <g id="patch_10">
    <path d="M 216.738481 370.285714 
L 181.107722 349.714286 
L 181.107722 390.857143 
L 216.738481 411.428571 
z
" clip-path="url(#p9502f12ab7)" style="fill: #503079; stroke: #000000; stroke-linejoin: miter"/>
   </g>
   <g id="patch_11">
    <path d="M 288 370.285714 
L 252.369241 349.714286 
L 252.369241 390.857143 
L 288 411.428571 
z
" clip-path="url(#p9502f12ab7)" style="fill: #503079; stroke: #000000; stroke-linejoin: miter"/>
   </g>
   <g id="patch_12">
    <path d="M 394.892278 349.714286 
L 359.261519 329.142857 
L 359.261519 370.285714 
L 394.892278 390.857143 
z
" clip-path="url(#p9502f12ab7)" style="fill: #503079; stroke: #000000; stroke-linejoin: miter"/>
   </g>
   <g id="patch_13">
    <path d="M 430.523038 370.285714 
L 394.892278 349.714286 
L 394.892278 390.857143 
L 430.523038 411.428571 
z
" clip-path="url(#p9502f12ab7)" style="fill: #503079; stroke: #000000; stroke-linejoin: miter"/>
   </g>
   <g id="patch_14">
    <path d="M 109.846203 308.571429 
L 74.215443 288 
L 74.215443 329.142857 
L 109.846203 349.714286 
z
" clip-path="url(#p9502f12ab7)" style="fill: #503079; stroke: #000000; stroke-linejoin: miter"/>
   </g>
   <g id="patch_15">
    <path d="M 145.476962 329.142857 
L 109.846203 308.571429 
L 109.846203 349.714286 
L 145.476962 370.285714 
z
" clip-path="url(#p9502f12ab7)" style="fill: #503079; stroke: #000000; stroke-linejoin: miter"/>
   </g>
   <g id="patch_16">
    <path d="M 252.369241 308.571429 
L 216.738481 288 
L 216.738481 329.142857 
L 252.369241 349.714286 
z
" clip-path="url(#p9502f12ab7)" style="fill: #503079; stroke: #000000; stroke-linejoin: miter"/>
   </g>
   <g id="patch_17">
    <path d="M 288 329.142857 
L 252.369241 308.571429 
L 252.369241 349.714286 
L 288 370.285714 
z
" clip-path="url(#p9502f12ab7)" style="fill: #503079; stroke: #000000; stroke-linejoin: miter"/>
   </g>
   <g id="patch_18">
    <path d="M 394.892278 308.571429 
L 359.261519 288 
L 359.261519 329.142857 
L 394.892278 349.714286 
z
" clip-path="url(#p9502f12ab7)" style="fill: #503079; stroke: #000000; stroke-linejoin: miter"/>
   </g>
   <g id="patch_19">
    <path d="M 430.523038 329.142857 
L 394.892278 308.571429 
L 394.892278 349.714286 
L 430.523038 370.285714 
z
" clip-path="url(#p9502f12ab7)" style="fill: #503079; stroke: #000000; stroke-linejoin: miter"/>
   </g>
   <g id="patch_20">
    <path d="M 109.846203 267.428571 
L 74.215443 246.857143 
L 74.215443 288 
L 109.846203 308.571429 
z
" clip-path="url(#p9502f12ab7)" style="fill: #503079; stroke: #000000; stroke-linejoin: miter"/>
   </g>
   <g id="patch_21">
    <path d="M 181.107722 267.428571 
L 145.476962 246.857143 
L 145.476962 288 
L 181.107722 308.571429 
z
" clip-path="url(#p9502f12ab7)" style="fill: #503079; stroke: #000000; stroke-linejoin: miter"/>
   </g>
   <g id="patch_22">
    <path d="M 252.369241 267.428571 
L 216.738481 246.857143 
L 216.738481 288 
L 252.369241 308.571429 
z
" clip-path="url(#p9502f12ab7)" style="fill: #503079; stroke: #000000; stroke-linejoin: miter"/>
   </g>
   <g id="patch_23">
    <path d="M 359.261519 246.857143 
L 323.630759 226.285714 
L 323.630759 267.428571 
L 359.261519 288 
z
" clip-path="url(#p9502f12ab7)" style="fill: #503079; stroke: #000000; stroke-linejoin: miter"/>
   </g>
   <g id="patch_24">
    <path d="M 394.892278 267.428571 
L 359.261519 246.857143 
L 359.261519 288 
L 394.892278 308.571429 
z
" clip-path="url(#p9502f12ab7)" style="fill: #503079; stroke: #000000; stroke-linejoin: miter"/>
   </g>
   <g id="patch_25">
    <path d="M 430.523038 288 
L 394.892278 267.428571 
L 394.892278 308.571429 
L 430.523038 329.142857 
z
" clip-path="url(#p9502f12ab7)" style="fill: #503079; stroke: #000000; stroke-linejoin: miter"/>
   </g>
   <g id="patch_26">
    <path d="M 109.846203 226.285714 
L 74.215443 205.714286 
L 74.215443 246.857143 
L 109.846203 267.428571 
z
" clip-path="url(#p9502f12ab7)" style="fill: #503079; stroke: #000000; stroke-linejoin: miter"/>
   </g>
   <g id="patch_27">
    <path d="M 216.738481 205.714286 
L 181.107722 185.142857 
L 181.107722 226.285714 
L 216.738481 246.857143 
z
" clip-path="url(#p9502f12ab7)" style="fill: #503079; stroke: #000000; stroke-linejoin: miter"/>
   </g>
   <g id="patch_28">
    <path d="M 288 205.714286 
L 252.369241 185.142857 
L 252.369241 226.285714 
L 288 246.857143 
z
" clip-path="url(#p9502f12ab7)" style="fill: #503079; stroke: #000000; stroke-linejoin: miter"/>
   </g>
   <g id="patch_29">
    <path d="M 359.261519 205.714286 
L 323.630759 185.142857 
L 323.630759 226.285714 
L 359.261519 246.857143 
z
" clip-path="url(#p9502f12ab7)" style="fill: #503079; stroke: #000000; stroke-linejoin: miter"/>
   </g>
   <g id="patch_30">
    <path d="M 430.523038 205.714286 
L 394.892278 185.142857 
L 394.892278 226.285714 
L 430.523038 246.857143 
z
" clip-path="url(#p9502f12ab7)" style="fill: #503079; stroke: #000000; stroke-linejoin: miter"/>
   </g>
   <g id="patch_31">
    <path d="M 466.153797 226.285714 
L 430.523038 205.714286 
L 430.523038 246.857143 
L 466.153797 267.428571 
z
" clip-path="url(#p9502f12ab7)" style="fill: #503079; stroke: #000000; stroke-linejoin: miter"/>
   </g>
   <g id="patch_32">
    <path d="M 181.107722 144 
L 145.476962 123.428571 
L 145.476962 164.571429 
L 181.107722 185.142857 
z
" clip-path="url(#p9502f12ab7)" style="fill: #503079; stroke: #000000; stroke-linejoin: miter"/>
   </g>
   <g id="patch_33">
    <path d="M 323.630759 102.857143 
L 288 82.285714 
L 288 123.428571 
L 323.630759 144 
z
" clip-path="url(#p9502f12ab7)" style="fill: #503079; stroke: #000000; stroke-linejoin: miter"/>
   </g>
   <g id="patch_34">
    <path d="M 394.892278 102.857143 
L 359.261519 82.285714 
L 359.261519 123.428571 
L 394.892278 144 
z
" clip-path="url(#p9502f12ab7)" style="fill: #503079; stroke: #000000; stroke-linejoin: miter"/>
   </g>
   <g id="patch_35">
    <path d="M 430.523038 123.428571 
L 394.892278 102.857143 
L 394.892278 144 
L 430.523038 164.571429 
z
" clip-path="url(#p9502f12ab7)" style="fill: #503079; stroke: #000000; stroke-linejoin: miter"/>
   </g>
   <g id="patch_36">
    <path d="M 466.153797 144 
L 430.523038 123.428571 
L 430.523038 164.571429 
L 466.153797 185.142857 
z
" clip-path="url(#p9502f12ab7)" style="fill: #503079; stroke: #000000; stroke-linejoin: miter"/>
   </g>
   <g id="patch_37">
    <path d="M 501.784557 164.571429 
L 466.153797 144 
L 466.153797 185.142857 
L 501.784557 205.714286 
z
" clip-path="url(#p9502f12ab7)" style="fill: #503079; stroke: #000000; stroke-linejoin: miter"/>
   </g>
   <g id="patch_38">
    <path d="M 181.107722 390.857143 
L 145.476962 411.428571 
L 145.476962 452.571429 
L 181.107722 432 
z
" clip-path="url(#p9502f12ab7)" style="fill: #ff9175; stroke: #000000; stroke-linejoin: miter"/>
   </g>
   <g id="patch_39">
    <path d="M 252.369241 390.857143 
L 216.738481 411.428571 
L 216.738481 452.571429 
L 252.369241 432 
z
" clip-path="url(#p9502f12ab7)" style="fill: #ff9175; stroke: #000000; stroke-linejoin: miter"/>
   </g>
   <g id="patch_40">
    <path d="M 323.630759 390.857143 
L 288 411.428571 
L 288 452.571429 
L 323.630759 432 
z
" clip-path="url(#p9502f12ab7)" style="fill: #ff9175; stroke: #000000; stroke-linejoin: miter"/>
   </g>
   <g id="patch_41">
    <path d="M 430.523038 411.428571 
L 394.892278 432 
L 394.892278 473.142857 
L 430.523038 452.571429 
z
" clip-path="url(#p9502f12ab7)" style="fill: #ff9175; stroke: #000000; stroke-linejoin: miter"/>
   </g>
   <g id="patch_42">
    <path d="M 466.153797 390.857143 
L 430.523038 411.428571 
L 430.523038 452.571429 
L 466.153797 432 
z
" clip-path="url(#p9502f12ab7)" style="fill: #ff9175; stroke: #000000; stroke-linejoin: miter"/>
   </g>
   <g id="patch_43">
    <path d="M 501.784557 370.285714 
L 466.153797 390.857143 
L 466.153797 432 
L 501.784557 411.428571 
z
" clip-path="url(#p9502f12ab7)" style="fill: #ff9175; stroke: #000000; stroke-linejoin: miter"/>
   </g>
   <g id="patch_44">
    <path d="M 181.107722 349.714286 
L 145.476962 370.285714 
L 145.476962 411.428571 
L 181.107722 390.857143 
z
" clip-path="url(#p9502f12ab7)" style="fill: #ff9175; stroke: #000000; stroke-linejoin: miter"/>
   </g>
   <g id="patch_45">
    <path d="M 252.369241 349.714286 
L 216.738481 370.285714 
L 216.738481 411.428571 
L 252.369241 390.857143 
z
" clip-path="url(#p9502f12ab7)" style="fill: #ff9175; stroke: #000000; stroke-linejoin: miter"/>
   </g>
   <g id="patch_46">
    <path d="M 323.630759 349.714286 
L 288 370.285714 
L 288 411.428571 
L 323.630759 390.857143 
z
" clip-path="url(#p9502f12ab7)" style="fill: #ff9175; stroke: #000000; stroke-linejoin: miter"/>
   </g>
   <g id="patch_47">
    <path d="M 359.261519 329.142857 
L 323.630759 349.714286 
L 323.630759 390.857143 
L 359.261519 370.285714 
z
" clip-path="url(#p9502f12ab7)" style="fill: #ff9175; stroke: #000000; stroke-linejoin: miter"/>
   </g>
   <g id="patch_48">
    <path d="M 466.153797 349.714286 
L 430.523038 370.285714 
L 430.523038 411.428571 
L 466.153797 390.857143 
z
" clip-path="url(#p9502f12ab7)" style="fill: #ff9175; stroke: #000000; stroke-linejoin: miter"/>
   </g>
   <g id="patch_49">
    <path d="M 501.784557 329.142857 
L 466.153797 349.714286 
L 466.153797 390.857143 
L 501.784557 370.285714 
z
" clip-path="url(#p9502f12ab7)" style="fill: #ff9175; stroke: #000000; stroke-linejoin: miter"/>
   </g>
   <g id="patch_50">
    <path d="M 181.107722 308.571429 
L 145.476962 329.142857 
L 145.476962 370.285714 
L 181.107722 349.714286 
z
" clip-path="url(#p9502f12ab7)" style="fill: #ff9175; stroke: #000000; stroke-linejoin: miter"/>
   </g>
   <g id="patch_51">
    <path d="M 216.738481 288 
L 181.107722 308.571429 
L 181.107722 349.714286 
L 216.738481 329.142857 
z
" clip-path="url(#p9502f12ab7)" style="fill: #ff9175; stroke: #000000; stroke-linejoin: miter"/>
   </g>
   <g id="patch_52">
    <path d="M 323.630759 308.571429 
L 288 329.142857 
L 288 370.285714 
L 323.630759 349.714286 
z
" clip-path="url(#p9502f12ab7)" style="fill: #ff9175; stroke: #000000; stroke-linejoin: miter"/>
   </g>
   <g id="patch_53">
    <path d="M 359.261519 288 
L 323.630759 308.571429 
L 323.630759 349.714286 
L 359.261519 329.142857 
z
" clip-path="url(#p9502f12ab7)" style="fill: #ff9175; stroke: #000000; stroke-linejoin: miter"/>
   </g>
   <g id="patch_54">
    <path d="M 466.153797 308.571429 
L 430.523038 329.142857 
L 430.523038 370.285714 
L 466.153797 349.714286 
z
" clip-path="url(#p9502f12ab7)" style="fill: #ff9175; stroke: #000000; stroke-linejoin: miter"/>
   </g>
   <g id="patch_55">
    <path d="M 501.784557 288 
L 466.153797 308.571429 
L 466.153797 349.714286 
L 501.784557 329.142857 
z
" clip-path="url(#p9502f12ab7)" style="fill: #ff9175; stroke: #000000; stroke-linejoin: miter"/>
   </g>
   <g id="patch_56">
    <path d="M 145.476962 246.857143 
L 109.846203 267.428571 
L 109.846203 308.571429 
L 145.476962 288 
z
" clip-path="url(#p9502f12ab7)" style="fill: #ff9175; stroke: #000000; stroke-linejoin: miter"/>
   </g>
   <g id="patch_57">
    <path d="M 216.738481 246.857143 
L 181.107722 267.428571 
L 181.107722 308.571429 
L 216.738481 288 
z
" clip-path="url(#p9502f12ab7)" style="fill: #ff9175; stroke: #000000; stroke-linejoin: miter"/>
   </g>
   <g id="patch_58">
    <path d="M 288 246.857143 
L 252.369241 267.428571 
L 252.369241 308.571429 
L 288 288 
z
" clip-path="url(#p9502f12ab7)" style="fill: #ff9175; stroke: #000000; stroke-linejoin: miter"/>
   </g>
   <g id="patch_59">
    <path d="M 323.630759 226.285714 
L 288 246.857143 
L 288 288 
L 323.630759 267.428571 
z
" clip-path="url(#p9502f12ab7)" style="fill: #ff9175; stroke: #000000; stroke-linejoin: miter"/>
   </g>
   <g id="patch_60">
    <path d="M 466.153797 267.428571 
L 430.523038 288 
L 430.523038 329.142857 
L 466.153797 308.571429 
z
" clip-path="url(#p9502f12ab7)" style="fill: #ff9175; stroke: #000000; stroke-linejoin: miter"/>
   </g>
   <g id="patch_61">
    <path d="M 501.784557 246.857143 
L 466.153797 267.428571 
L 466.153797 308.571429 
L 501.784557 288 
z
" clip-path="url(#p9502f12ab7)" style="fill: #ff9175; stroke: #000000; stroke-linejoin: miter"/>
   </g>
   <g id="patch_62">
    <path d="M 145.476962 205.714286 
L 109.846203 226.285714 
L 109.846203 267.428571 
L 145.476962 246.857143 
z
" clip-path="url(#p9502f12ab7)" style="fill: #ff9175; stroke: #000000; stroke-linejoin: miter"/>
   </g>
   <g id="patch_63">
    <path d="M 181.107722 185.142857 
L 145.476962 205.714286 
L 145.476962 246.857143 
L 181.107722 226.285714 
z
" clip-path="url(#p9502f12ab7)" style="fill: #ff9175; stroke: #000000; stroke-linejoin: miter"/>
   </g>
   <g id="patch_64">
    <path d="M 252.369241 185.142857 
L 216.738481 205.714286 
L 216.738481 246.857143 
L 252.369241 226.285714 
z
" clip-path="url(#p9502f12ab7)" style="fill: #ff9175; stroke: #000000; stroke-linejoin: miter"/>
   </g>
   <g id="patch_65">
    <path d="M 323.630759 185.142857 
L 288 205.714286 
L 288 246.857143 
L 323.630759 226.285714 
z
" clip-path="url(#p9502f12ab7)" style="fill: #ff9175; stroke: #000000; stroke-linejoin: miter"/>
   </g>
   <g id="patch_66">
    <path d="M 394.892278 185.142857 
L 359.261519 205.714286 
L 359.261519 246.857143 
L 394.892278 226.285714 
z
" clip-path="url(#p9502f12ab7)" style="fill: #ff9175; stroke: #000000; stroke-linejoin: miter"/>
   </g>
   <g id="patch_67">
    <path d="M 501.784557 205.714286 
L 466.153797 226.285714 
L 466.153797 267.428571 
L 501.784557 246.857143 
z
" clip-path="url(#p9502f12ab7)" style="fill: #ff9175; stroke: #000000; stroke-linejoin: miter"/>
   </g>
   <g id="patch_68">
    <path d="M 109.846203 144 
L 74.215443 164.571429 
L 74.215443 205.714286 
L 109.846203 185.142857 
z
" clip-path="url(#p9502f12ab7)" style="fill: #ff9175; stroke: #000000; stroke-linejoin: miter"/>
   </g>
   <g id="patch_69">
    <path d="M 145.476962 123.428571 
L 109.846203 144 
L 109.846203 185.142857 
L 145.476962 164.571429 
z
" clip-path="url(#p9502f12ab7)" style="fill: #ff9175; stroke: #000000; stroke-linejoin: miter"/>
   </g>
   <g id="patch_70">
    <path d="M 216.738481 123.428571 
L 181.107722 144 
L 181.107722 185.142857 
L 216.738481 164.571429 
z
" clip-path="url(#p9502f12ab7)" style="fill: #ff9175; stroke: #000000; stroke-linejoin: miter"/>
   </g>
   <g id="patch_71">
    <path d="M 252.369241 102.857143 
L 216.738481 123.428571 
L 216.738481 164.571429 
L 252.369241 144 
z
" clip-path="url(#p9502f12ab7)" style="fill: #ff9175; stroke: #000000; stroke-linejoin: miter"/>
   </g>
   <g id="patch_72">
    <path d="M 288 82.285714 
L 252.369241 102.857143 
L 252.369241 144 
L 288 123.428571 
z
" clip-path="url(#p9502f12ab7)" style="fill: #ff9175; stroke: #000000; stroke-linejoin: miter"/>
   </g>
   <g id="patch_73">
    <path d="M 359.261519 82.285714 
L 323.630759 102.857143 
L 323.630759 144 
L 359.261519 123.428571 
z
" clip-path="url(#p9502f12ab7)" style="fill: #ff9175; stroke: #000000; stroke-linejoin: miter"/>
   </g>
   <g id="patch_74">
    <path d="M 181.107722 432 
L 145.476962 452.571429 
L 181.107722 473.142857 
L 216.738481 452.571429 
z
" clip-path="url(#p9502f12ab7)" style="fill: #add8ff; stroke: #000000; stroke-linejoin: miter"/>
   </g>
   <g id="patch_75">
    <path d="M 216.738481 452.571429 
L 181.107722 473.142857 
L 216.738481 493.714286 
L 252.369241 473.142857 
z
" clip-path="url(#p9502f12ab7)" style="fill: #add8ff; stroke: #000000; stroke-linejoin: miter"/>
   </g>
   <g id="patch_76">
    <path d="M 252.369241 473.142857 
L 216.738481 493.714286 
L 252.369241 514.285714 
L 288 493.714286 
z
" clip-path="url(#p9502f12ab7)" style="fill: #add8ff; stroke: #000000; stroke-linejoin: miter"/>
   </g>
   <g id="patch_77">
    <path d="M 252.369241 432 
L 216.738481 452.571429 
L 252.369241 473.142857 
L 288 452.571429 
z
" clip-path="url(#p9502f12ab7)" style="fill: #add8ff; stroke: #000000; stroke-linejoin: miter"/>
   </g>
   <g id="patch_78">
    <path d="M 288 493.714286 
L 252.369241 514.285714 
L 288 534.857143 
L 323.630759 514.285714 
z
" clip-path="url(#p9502f12ab7)" style="fill: #add8ff; stroke: #000000; stroke-linejoin: miter"/>
   </g>
   <g id="patch_79">
    <path d="M 288 452.571429 
L 252.369241 473.142857 
L 288 493.714286 
L 323.630759 473.142857 
z
" clip-path="url(#p9502f12ab7)" style="fill: #add8ff; stroke: #000000; stroke-linejoin: miter"/>
   </g>
   <g id="patch_80">
    <path d="M 323.630759 473.142857 
L 288 493.714286 
L 323.630759 514.285714 
L 359.261519 493.714286 
z
" clip-path="url(#p9502f12ab7)" style="fill: #add8ff; stroke: #000000; stroke-linejoin: miter"/>
   </g>
   <g id="patch_81">
    <path d="M 323.630759 432 
L 288 452.571429 
L 323.630759 473.142857 
L 359.261519 452.571429 
z
" clip-path="url(#p9502f12ab7)" style="fill: #add8ff; stroke: #000000; stroke-linejoin: miter"/>
   </g>
   <g id="patch_82">
    <path d="M 359.261519 452.571429 
L 323.630759 473.142857 
L 359.261519 493.714286 
L 394.892278 473.142857 
z
" clip-path="url(#p9502f12ab7)" style="fill: #add8ff; stroke: #000000; stroke-linejoin: miter"/>
   </g>
   <g id="patch_83">
    <path d="M 359.261519 370.285714 
L 323.630759 390.857143 
L 359.261519 411.428571 
L 394.892278 390.857143 
z
" clip-path="url(#p9502f12ab7)" style="fill: #add8ff; stroke: #000000; stroke-linejoin: miter"/>
   </g>
   <g id="patch_84">
    <path d="M 394.892278 390.857143 
L 359.261519 411.428571 
L 394.892278 432 
L 430.523038 411.428571 
z
" clip-path="url(#p9502f12ab7)" style="fill: #add8ff; stroke: #000000; stroke-linejoin: miter"/>
   </g>
   <g id="patch_85">
    <path d="M 216.738481 329.142857 
L 181.107722 349.714286 
L 216.738481 370.285714 
L 252.369241 349.714286 
z
" clip-path="url(#p9502f12ab7)" style="fill: #add8ff; stroke: #000000; stroke-linejoin: miter"/>
   </g>
   <g id="patch_86">
    <path d="M 145.476962 288 
L 109.846203 308.571429 
L 145.476962 329.142857 
L 181.107722 308.571429 
z
" clip-path="url(#p9502f12ab7)" style="fill: #add8ff; stroke: #000000; stroke-linejoin: miter"/>
   </g>
   <g id="patch_87">
    <path d="M 288 288 
L 252.369241 308.571429 
L 288 329.142857 
L 323.630759 308.571429 
z
" clip-path="url(#p9502f12ab7)" style="fill: #add8ff; stroke: #000000; stroke-linejoin: miter"/>
   </g>
   <g id="patch_88">
    <path d="M 323.630759 267.428571 
L 288 288 
L 323.630759 308.571429 
L 359.261519 288 
z
" clip-path="url(#p9502f12ab7)" style="fill: #add8ff; stroke: #000000; stroke-linejoin: miter"/>
   </g>
   <g id="patch_89">
    <path d="M 181.107722 226.285714 
L 145.476962 246.857143 
L 181.107722 267.428571 
L 216.738481 246.857143 
z
" clip-path="url(#p9502f12ab7)" style="fill: #add8ff; stroke: #000000; stroke-linejoin: miter"/>
   </g>
   <g id="patch_90">
    <path d="M 252.369241 226.285714 
L 216.738481 246.857143 
L 252.369241 267.428571 
L 288 246.857143 
z
" clip-path="url(#p9502f12ab7)" style="fill: #add8ff; stroke: #000000; stroke-linejoin: miter"/>
   </g>
   <g id="patch_91">
    <path d="M 394.892278 226.285714 
L 359.261519 246.857143 
L 394.892278 267.428571 
L 430.523038 246.857143 
z
" clip-path="url(#p9502f12ab7)" style="fill: #add8ff; stroke: #000000; stroke-linejoin: miter"/>
   </g>
   <g id="patch_92">
    <path d="M 430.523038 246.857143 
L 394.892278 267.428571 
L 430.523038 288 
L 466.153797 267.428571 
z
" clip-path="url(#p9502f12ab7)" style="fill: #add8ff; stroke: #000000; stroke-linejoin: miter"/>
   </g>
   <g id="patch_93">
    <path d="M 109.846203 185.142857 
L 74.215443 205.714286 
L 109.846203 226.285714 
L 145.476962 205.714286 
z
" clip-path="url(#p9502f12ab7)" style="fill: #add8ff; stroke: #000000; stroke-linejoin: miter"/>
   </g>
   <g id="patch_94">
    <path d="M 145.476962 164.571429 
L 109.846203 185.142857 
L 145.476962 205.714286 
L 181.107722 185.142857 
z
" clip-path="url(#p9502f12ab7)" style="fill: #add8ff; stroke: #000000; stroke-linejoin: miter"/>
   </g>
   <g id="patch_95">
    <path d="M 216.738481 164.571429 
L 181.107722 185.142857 
L 216.738481 205.714286 
L 252.369241 185.142857 
z
" clip-path="url(#p9502f12ab7)" style="fill: #add8ff; stroke: #000000; stroke-linejoin: miter"/>
   </g>
   <g id="patch_96">
    <path d="M 252.369241 144 
L 216.738481 164.571429 
L 252.369241 185.142857 
L 288 164.571429 
z
" clip-path="url(#p9502f12ab7)" style="fill: #add8ff; stroke: #000000; stroke-linejoin: miter"/>
   </g>
   <g id="patch_97">
    <path d="M 288 164.571429 
L 252.369241 185.142857 
L 288 205.714286 
L 323.630759 185.142857 
z
" clip-path="url(#p9502f12ab7)" style="fill: #add8ff; stroke: #000000; stroke-linejoin: miter"/>
   </g>
   <g id="patch_98">
    <path d="M 288 123.428571 
L 252.369241 144 
L 288 164.571429 
L 323.630759 144 
z
" clip-path="url(#p9502f12ab7)" style="fill: #add8ff; stroke: #000000; stroke-linejoin: miter"/>
   </g>
   <g id="patch_99">
    <path d="M 323.630759 144 
L 288 164.571429 
L 323.630759 185.142857 
L 359.261519 164.571429 
z
" clip-path="url(#p9502f12ab7)" style="fill: #add8ff; stroke: #000000; stroke-linejoin: miter"/>
   </g>
   <g id="patch_100">
    <path d="M 359.261519 164.571429 
L 323.630759 185.142857 
L 359.261519 205.714286 
L 394.892278 185.142857 
z
" clip-path="url(#p9502f12ab7)" style="fill: #add8ff; stroke: #000000; stroke-linejoin: miter"/>
   </g>
   <g id="patch_101">
    <path d="M 359.261519 123.428571 
L 323.630759 144 
L 359.261519 164.571429 
L 394.892278 144 
z
" clip-path="url(#p9502f12ab7)" style="fill: #add8ff; stroke: #000000; stroke-linejoin: miter"/>
   </g>
   <g id="patch_102">
    <path d="M 394.892278 144 
L 359.261519 164.571429 
L 394.892278 185.142857 
L 430.523038 164.571429 
z
" clip-path="url(#p9502f12ab7)" style="fill: #add8ff; stroke: #000000; stroke-linejoin: miter"/>
   </g>
   <g id="patch_103">
    <path d="M 430.523038 164.571429 
L 394.892278 185.142857 
L 430.523038 205.714286 
L 466.153797 185.142857 
z
" clip-path="url(#p9502f12ab7)" style="fill: #add8ff; stroke: #000000; stroke-linejoin: miter"/>
   </g>
   <g id="patch_104">
    <path d="M 466.153797 185.142857 
L 430.523038 205.714286 
L 466.153797 226.285714 
L 501.784557 205.714286 
z
" clip-path="url(#p9502f12ab7)" style="fill: #add8ff; stroke: #000000; stroke-linejoin: miter"/>
   </g>
   <g id="patch_105">
    <path d="M 181.107722 102.857143 
L 145.476962 123.428571 
L 181.107722 144 
L 216.738481 123.428571 
z
" clip-path="url(#p9502f12ab7)" style="fill: #add8ff; stroke: #000000; stroke-linejoin: miter"/>
   </g>
   <g id="patch_106">
    <path d="M 216.738481 82.285714 
L 181.107722 102.857143 
L 216.738481 123.428571 
L 252.369241 102.857143 
z
" clip-path="url(#p9502f12ab7)" style="fill: #add8ff; stroke: #000000; stroke-linejoin: miter"/>
   </g>
   <g id="patch_107">
    <path d="M 252.369241 61.714286 
L 216.738481 82.285714 
L 252.369241 102.857143 
L 288 82.285714 
z
" clip-path="url(#p9502f12ab7)" style="fill: #add8ff; stroke: #000000; stroke-linejoin: miter"/>
   </g>
   <g id="patch_108">
    <path d="M 288 41.142857 
L 252.369241 61.714286 
L 288 82.285714 
L 323.630759 61.714286 
z
" clip-path="url(#p9502f12ab7)" style="fill: #add8ff; stroke: #000000; stroke-linejoin: miter"/>
   </g>
   <g id="patch_109">
    <path d="M 323.630759 61.714286 
L 288 82.285714 
L 323.630759 102.857143 
L 359.261519 82.285714 
z
" clip-path="url(#p9502f12ab7)" style="fill: #add8ff; stroke: #000000; stroke-linejoin: miter"/>
   </g>
  </g>
 </g>
 <defs>
  <clipPath id="p9502f12ab7">
   <rect x="33.072586" y="0" width="509.854828" height="576"/>
  </clipPath>
 </defs>
</svg>
