<?xml version="1.0" encoding="utf-8" standalone="no"?>
<!DOCTYPE svg PUBLIC "-//W3C//DTD SVG 1.1//EN"
  "http://www.w3.org/Graphics/SVG/1.1/DTD/svg11.dtd">
<svg xmlns:xlink="http://www.w3.org/1999/xlink" width="360pt" height="360pt" viewBox="0 0 360 360" xmlns="http://www.w3.org/2000/svg" version="1.1">
 <metadata>
  <rdf:RDF xmlns:dc="http://purl.org/dc/elements/1.1/" xmlns:cc="http://creativecommons.org/ns#" xmlns:rdf="http://www.w3.org/1999/02/22-rdf-syntax-ns#">
   <cc:Work>
    <dc:type rdf:resource="http://purl.org/dc/dcmitype/StillImage"/>
    <dc:date>2022-04-03T21:05:47.386516</dc:date>
    <dc:format>image/svg+xml</dc:format>
    <dc:creator>
     <cc:Agent>
      <dc:title>Matplotlib v3.5.1, https://matplotlib.org/</dc:title>
     </cc:Agent>
    </dc:creator>
   </cc:Work>
  </rdf:RDF>
 </metadata>
 <defs>
  <style type="text/css">*{stroke-linejoin: round; stroke-linecap: butt}</style>
 </defs>
 <g id="figure_1">
  <g id="patch_1">
   <path d="M 0 360 
L 360 360 
L 360 0 
L 0 0 
z
" style="fill: #ffffff"/>
  </g>
  <g id="axes_1">
   <g id="patch_2">
    <path d="M 127.741935 301.935484 
C 158.539715 301.935484 188.080243 289.699396 209.857562 267.922078 
C 231.63488 246.144759 243.870968 216.604231 243.870968 185.806452 
C 243.870968 155.008672 231.63488 125.468144 209.857562 103.690825 
C 188.080243 81.913507 158.539715 69.677419 127.741935 69.677419 
C 96.944156 69.677419 67.403628 81.913507 45.626309 103.690825 
C 23.848991 125.468144 11.612903 155.008672 11.612903 185.806452 
C 11.612903 216.604231 23.848991 246.144759 45.626309 267.922078 
C 67.403628 289.699396 96.944156 301.935484 127.741935 301.935484 
L 127.741935 301.935484 
z
" clip-path="url(#p5858835b65)" style="fill: none; stroke: #000000; stroke-width: 2; stroke-linejoin: miter"/>
   </g>
   <g id="patch_3">
    <path d="M 129.893307 298.289374 
C 159.952347 298.289374 188.784293 286.34679 210.039244 265.09184 
C 231.294195 243.836889 243.236778 215.004943 243.236778 184.945903 
C 243.236778 154.886863 231.294195 126.054917 210.039244 104.799966 
C 188.784293 83.545015 159.952347 71.602432 129.893307 71.602432 
C 99.834267 71.602432 71.002321 83.545015 49.747371 104.799966 
C 28.49242 126.054917 16.549837 154.886863 16.549837 184.945903 
C 16.549837 215.004943 28.49242 243.836889 49.747371 265.09184 
C 71.002321 286.34679 99.834267 298.289374 129.893307 298.289374 
z
" clip-path="url(#p5858835b65)" style="fill: #8000ff; stroke: #000000; stroke-linejoin: miter"/>
   </g>
   <g id="patch_4">
    <path d="M 130.71598 296.889493 
C 160.491038 296.889493 189.050594 285.059737 210.104739 264.005592 
C 231.158884 242.951447 242.98864 214.391891 242.98864 184.616834 
C 242.98864 154.841776 231.158884 126.28222 210.104739 105.228075 
C 189.050594 84.17393 160.491038 72.344174 130.71598 72.344174 
C 100.940923 72.344174 72.381367 84.17393 51.327222 105.228075 
C 30.273077 126.28222 18.443321 154.841776 18.443321 184.616834 
C 18.443321 214.391891 30.273077 242.951447 51.327222 264.005592 
C 72.381367 285.059737 100.940923 296.889493 130.71598 296.889493 
z
" clip-path="url(#p5858835b65)" style="fill: #6032fe; stroke: #000000; stroke-linejoin: miter"/>
   </g>
   <g id="patch_5">
    <path d="M 131.838414 294.97427 
C 161.224617 294.97427 189.411194 283.299008 210.190378 262.519824 
C 230.969561 241.74064 242.644824 213.554064 242.644824 184.16786 
C 242.644824 154.781657 230.969561 126.59508 210.190378 105.815896 
C 189.411194 85.036713 161.224617 73.36145 131.838414 73.36145 
C 102.45221 73.36145 74.265634 85.036713 53.48645 105.815896 
C 32.707266 126.59508 21.032004 154.781657 21.032004 184.16786 
C 21.032004 213.554064 32.707266 241.74064 53.48645 262.519824 
C 74.265634 283.299008 102.45221 294.97427 131.838414 294.97427 
z
" clip-path="url(#p5858835b65)" style="fill: #4062fa; stroke: #000000; stroke-linejoin: miter"/>
   </g>
   <g id="patch_6">
    <path d="M 133.356721 292.373496 
C 162.214255 292.373496 189.893744 280.908277 210.299102 260.502919 
C 230.70446 240.097561 242.169679 212.418072 242.169679 183.560538 
C 242.169679 154.703004 230.70446 127.023514 210.299102 106.618156 
C 189.893744 86.212798 162.214255 74.747579 133.356721 74.747579 
C 104.499187 74.747579 76.819697 86.212798 56.414339 106.618156 
C 36.008981 127.023514 24.543762 154.703004 24.543762 183.560538 
C 24.543762 212.418072 36.008981 240.097561 56.414339 260.502919 
C 76.819697 280.908277 104.499187 292.373496 133.356721 292.373496 
z
" clip-path="url(#p5858835b65)" style="fill: #208ef4; stroke: #000000; stroke-linejoin: miter"/>
   </g>
   <g id="patch_7">
    <path d="M 135.386614 288.877272 
C 163.532273 288.877272 190.528947 277.694884 210.430933 257.792898 
C 230.332918 237.890912 241.515307 210.894238 241.515307 182.74858 
C 241.515307 154.602922 230.332918 127.606248 210.430933 107.704262 
C 190.528947 87.802276 163.532273 76.619888 135.386614 76.619888 
C 107.240956 76.619888 80.244282 87.802276 60.342296 107.704262 
C 40.440311 127.606248 29.257922 154.602922 29.257922 182.74858 
C 29.257922 210.894238 40.440311 237.890912 60.342296 257.792898 
C 80.244282 277.694884 107.240956 288.877272 135.386614 288.877272 
z
" clip-path="url(#p5858835b65)" style="fill: #00b5eb; stroke: #000000; stroke-linejoin: miter"/>
   </g>
   <g id="patch_8">
    <path d="M 138.05791 284.240286 
C 165.257199 284.240286 191.346138 273.433894 210.57894 254.201092 
C 229.811742 234.96829 240.618134 208.879351 240.618134 181.680062 
C 240.618134 154.480773 229.811742 128.391834 210.57894 109.159032 
C 191.346138 89.92623 165.257199 79.119838 138.05791 79.119838 
C 110.85862 79.119838 84.769682 89.92623 65.53688 109.159032 
C 46.304078 128.391834 35.497686 154.480773 35.497686 181.680062 
C 35.497686 208.879351 46.304078 234.96829 65.53688 254.201092 
C 84.769682 273.433894 110.85862 284.240286 138.05791 284.240286 
z
" clip-path="url(#p5858835b65)" style="fill: #20d5e1; stroke: #000000; stroke-linejoin: miter"/>
   </g>
   <g id="patch_9">
    <path d="M 141.499856 278.198467 
C 167.461962 278.198467 192.364222 267.883613 210.722204 249.525631 
C 229.080185 231.16765 239.395039 206.26539 239.395039 180.303283 
C 239.395039 154.341177 229.080185 129.438917 210.722204 111.080936 
C 192.364222 92.722954 167.461962 82.4081 141.499856 82.4081 
C 115.53775 82.4081 90.635489 92.722954 72.277508 111.080936 
C 53.919527 129.438917 43.604672 154.341177 43.604672 180.303283 
C 43.604672 206.26539 53.919527 231.16765 72.277508 249.525631 
C 90.635489 267.883613 115.53775 278.198467 141.499856 278.198467 
z
" clip-path="url(#p5858835b65)" style="fill: #40ecd4; stroke: #000000; stroke-linejoin: miter"/>
   </g>
   <g id="patch_10">
    <path d="M 145.813202 270.503945 
C 170.192262 270.503945 193.576101 260.818042 210.8147 243.579443 
C 228.053299 226.340844 237.739202 202.957005 237.739202 178.577945 
C 237.739202 154.198885 228.053299 130.815046 210.8147 113.576447 
C 193.576101 96.337848 170.192262 86.651945 145.813202 86.651945 
C 121.434142 86.651945 98.050302 96.337848 80.811704 113.576447 
C 63.573105 130.815046 53.887201 154.198885 53.887201 178.577945 
C 53.887201 202.957005 63.573105 226.340844 80.811704 243.579443 
C 98.050302 260.818042 121.434142 270.503945 145.813202 270.503945 
z
" clip-path="url(#p5858835b65)" style="fill: #60fac5; stroke: #000000; stroke-linejoin: miter"/>
   </g>
   <g id="patch_11">
    <path d="M 151.027299 260.980874 
C 173.433929 260.980874 194.925859 252.078626 210.769739 236.234746 
C 226.613619 220.390866 235.515868 198.898936 235.515868 176.492306 
C 235.515868 154.085676 226.613619 132.593747 210.769739 116.749867 
C 194.925859 100.905986 173.433929 92.003738 151.027299 92.003738 
C 128.620669 92.003738 107.12874 100.905986 91.28486 116.749867 
C 75.440979 132.593747 66.538731 154.085676 66.538731 176.492306 
C 66.538731 198.898936 75.440979 220.390866 91.28486 236.234746 
C 107.12874 252.078626 128.620669 260.980874 151.027299 260.980874 
z
" clip-path="url(#p5858835b65)" style="fill: #80ffb4; stroke: #000000; stroke-linejoin: miter"/>
   </g>
   <g id="patch_12">
    <path d="M 157.047435 249.594971 
C 177.073111 249.594971 196.281284 241.638685 210.441576 227.478393 
C 224.601868 213.318102 232.558154 194.109929 232.558154 174.084252 
C 232.558154 154.058575 224.601868 134.850402 210.441576 120.69011 
C 196.281284 106.529819 177.073111 98.573533 157.047435 98.573533 
C 137.021758 98.573533 117.813585 106.529819 103.653293 120.69011 
C 89.493001 134.850402 81.536716 154.058575 81.536716 174.084252 
C 81.536716 194.109929 89.493001 213.318102 103.653293 227.478393 
C 117.813585 241.638685 137.021758 249.594971 157.047435 249.594971 
z
" clip-path="url(#p5858835b65)" style="fill: #a0faa1; stroke: #000000; stroke-linejoin: miter"/>
   </g>
   <g id="patch_13">
    <path d="M 163.608544 236.514349 
C 180.86121 236.514349 197.409574 229.659792 209.609051 217.460315 
C 221.808528 205.260838 228.663084 188.712474 228.663084 171.459808 
C 228.663084 154.207142 221.808528 137.658778 209.609051 125.459301 
C 197.409574 113.259824 180.86121 106.405268 163.608544 106.405268 
C 146.355878 106.405268 129.807514 113.259824 117.608037 125.459301 
C 105.40856 137.658778 98.554003 154.207142 98.554003 171.459808 
C 98.554003 188.712474 105.40856 205.260838 117.608037 217.460315 
C 129.807514 229.659792 146.355878 236.514349 163.608544 236.514349 
z
" clip-path="url(#p5858835b65)" style="fill: #c0eb8d; stroke: #000000; stroke-linejoin: miter"/>
   </g>
   <g id="patch_14">
    <path d="M 170.260598 222.127241 
C 184.403417 222.127241 197.968886 216.50824 207.969368 206.507757 
C 217.969851 196.507274 223.588853 182.941805 223.588853 168.798987 
C 223.588853 154.656168 217.969851 141.090699 207.969368 131.090216 
C 197.968886 121.089733 184.403417 115.470732 170.260598 115.470732 
C 156.11778 115.470732 142.552311 121.089733 132.551828 131.090216 
C 122.551345 141.090699 116.932344 154.656168 116.932344 168.798987 
C 116.932344 182.941805 122.551345 196.507274 132.551828 206.507757 
C 142.552311 216.50824 156.11778 222.127241 170.260598 222.127241 
z
" clip-path="url(#p5858835b65)" style="fill: #e0d377; stroke: #000000; stroke-linejoin: miter"/>
   </g>
   <g id="patch_15">
    <path d="M 176.407743 206.989197 
C 187.188002 206.989197 197.528181 202.706155 205.150975 195.083361 
C 212.77377 187.460567 217.056812 177.120388 217.056812 166.340129 
C 217.056812 155.55987 212.77377 145.219691 205.150975 137.596896 
C 197.528181 129.974102 187.188002 125.69106 176.407743 125.69106 
C 165.627484 125.69106 155.287305 129.974102 147.664511 137.596896 
C 140.041717 145.219691 135.758674 155.55987 135.758674 166.340129 
C 135.758674 177.120388 140.041717 187.460567 147.664511 195.083361 
C 155.287305 202.706155 165.627484 206.989197 176.407743 206.989197 
z
" clip-path="url(#p5858835b65)" style="fill: #ffb360; stroke: #000000; stroke-linejoin: miter"/>
   </g>
   <g id="patch_16">
    <path d="M 181.402272 191.705864 
C 188.65917 191.705864 195.61982 188.822668 200.751222 183.691267 
C 205.882623 178.559865 208.765819 171.599215 208.765819 164.342317 
C 208.765819 157.085419 205.882623 150.124769 200.751222 144.993367 
C 195.61982 139.861966 188.65917 136.97877 181.402272 136.97877 
C 174.145374 136.97877 167.184724 139.861966 162.053322 144.993367 
C 156.921921 150.124769 154.038725 157.085419 154.038725 164.342317 
C 154.038725 171.599215 156.921921 178.559865 162.053322 183.691267 
C 167.184724 188.822668 174.145374 191.705864 181.402272 191.705864 
z
" clip-path="url(#p5858835b65)" style="fill: #ff8c49; stroke: #000000; stroke-linejoin: miter"/>
   </g>
   <g id="patch_17">
    <path d="M 184.666917 176.799424 
C 188.316898 176.799424 191.817877 175.349271 194.398803 172.768345 
C 196.979729 170.187418 198.429882 166.68644 198.429882 163.036459 
C 198.429882 159.386478 196.979729 155.885499 194.398803 153.304573 
C 191.817877 150.723647 188.316898 149.273494 184.666917 149.273494 
C 181.016936 149.273494 177.515958 150.723647 174.935031 153.304573 
C 172.354105 155.885499 170.903952 159.386478 170.903952 163.036459 
C 170.903952 166.68644 172.354105 170.187418 174.935031 172.768345 
C 177.515958 175.349271 181.016936 176.799424 184.666917 176.799424 
z
" clip-path="url(#p5858835b65)" style="fill: #ff5f30; stroke: #000000; stroke-linejoin: miter"/>
   </g>
   <g id="patch_18">
    <path d="M 185.806441 162.621875 
C 185.817375 162.621875 185.827861 162.617531 185.835592 162.6098 
C 185.843323 162.602069 185.847667 162.591582 185.847667 162.580649 
C 185.847667 162.569716 185.843323 162.559229 185.835592 162.551498 
C 185.827861 162.543767 185.817375 162.539423 185.806441 162.539423 
C 185.795508 162.539423 185.785021 162.543767 185.77729 162.551498 
C 185.769559 162.559229 185.765216 162.569716 185.765216 162.580649 
C 185.765216 162.591582 185.769559 162.602069 185.77729 162.6098 
C 185.785021 162.617531 185.795508 162.621875 185.806441 162.621875 
z
" clip-path="url(#p5858835b65)" style="fill: #ff2f18; stroke: #000000; stroke-linejoin: miter"/>
   </g>
   <g id="patch_19">
    <path d="M 268.258065 245.032258 
C 290.124488 245.032258 311.098263 236.344636 326.560159 220.88274 
C 342.022055 205.420844 350.709677 184.447069 350.709677 162.580645 
C 350.709677 140.714222 342.022055 119.740447 326.560159 104.278551 
C 311.098263 88.816654 290.124488 80.129032 268.258065 80.129032 
C 246.391641 80.129032 225.417866 88.816654 209.95597 104.278551 
C 194.494074 119.740447 185.806452 140.714222 185.806452 162.580645 
C 185.806452 184.447069 194.494074 205.420844 209.95597 220.88274 
C 225.417866 236.344636 246.391641 245.032258 268.258065 245.032258 
L 268.258065 245.032258 
z
" clip-path="url(#p5858835b65)" style="fill: none; stroke-dasharray: 3.7,1.6; stroke-dashoffset: 0; stroke: #bf00bf; stroke-linejoin: miter"/>
   </g>
   <g id="patch_20">
    <path d="M 256.538753 209.842458 
C 276.842727 209.842458 296.317835 201.775604 310.674913 187.418526 
C 325.03199 173.061449 333.098845 153.58634 333.098845 133.282367 
C 333.098845 112.978393 325.03199 93.503284 310.674913 79.146207 
C 296.317835 64.789129 276.842727 56.722275 256.538753 56.722275 
C 236.23478 56.722275 216.759671 64.789129 202.402593 79.146207 
C 188.045516 93.503284 179.978662 112.978393 179.978662 133.282367 
C 179.978662 153.58634 188.045516 173.061449 202.402593 187.418526 
C 216.759671 201.775604 236.23478 209.842458 256.538753 209.842458 
L 256.538753 209.842458 
z
" clip-path="url(#p5858835b65)" style="fill: none; stroke-dasharray: 3.7,1.6; stroke-dashoffset: 0; stroke: #bf00bf; stroke-linejoin: miter"/>
   </g>
   <g id="patch_21">
    <path d="M 244.700461 186.975343 
C 266.788884 186.975343 287.975596 178.199519 303.59447 162.580645 
C 319.213344 146.961771 327.989167 125.775059 327.989167 103.686636 
C 327.989167 81.598213 319.213344 60.411501 303.59447 44.792627 
C 287.975596 29.173753 266.788884 20.397929 244.700461 20.397929 
C 222.612038 20.397929 201.425325 29.173753 185.806452 44.792627 
C 170.187578 60.411501 161.411754 81.598213 161.411754 103.686636 
C 161.411754 125.775059 170.187578 146.961771 185.806452 162.580645 
C 201.425325 178.199519 222.612038 186.975343 244.700461 186.975343 
L 244.700461 186.975343 
z
" clip-path="url(#p5858835b65)" style="fill: none; stroke-dasharray: 3.7,1.6; stroke-dashoffset: 0; stroke: #bf00bf; stroke-linejoin: miter"/>
   </g>
   <g id="patch_22">
    <path d="M 227.751929 170.924119 
C 256.820526 170.924119 284.702462 159.375043 305.257064 138.820441 
C 325.811666 118.265839 337.360742 90.383903 337.360742 61.315306 
C 337.360742 32.246708 325.811666 4.364772 305.257064 -16.18983 
C 284.702462 -36.744432 256.820526 -48.293508 227.751929 -48.293508 
C 198.683331 -48.293508 170.801395 -36.744432 150.246793 -16.18983 
C 129.692191 4.364772 118.143115 32.246708 118.143115 61.315306 
C 118.143115 90.383903 129.692191 118.265839 150.246793 138.820441 
C 170.801395 159.375043 198.683331 170.924119 227.751929 170.924119 
L 227.751929 170.924119 
z
" clip-path="url(#p5858835b65)" style="fill: none; stroke-dasharray: 3.7,1.6; stroke-dashoffset: 0; stroke: #bf00bf; stroke-linejoin: miter"/>
   </g>
   <g id="patch_23">
    <path d="M 185.806452 162.580645 
C 240.47251 162.580645 292.906948 140.86159 331.561688 102.206849 
C 370.216429 63.552109 391.935484 11.117671 391.935484 -43.548387 
C 391.935484 -98.214445 370.216429 -150.648883 331.561688 -189.303624 
C 292.906948 -227.958364 240.47251 -249.677419 185.806452 -249.677419 
C 131.140393 -249.677419 78.705956 -227.958364 40.051215 -189.303624 
C 1.396475 -150.648883 -20.322581 -98.214445 -20.322581 -43.548387 
C -20.322581 11.117671 1.396475 63.552109 40.051215 102.206849 
C 78.705956 140.86159 131.140393 162.580645 185.806452 162.580645 
L 185.806452 162.580645 
z
" clip-path="url(#p5858835b65)" style="fill: none; stroke-dasharray: 3.7,1.6; stroke-dashoffset: 0; stroke: #bf00bf; stroke-linejoin: miter"/>
   </g>
   <g id="patch_24">
    <path d="M 2588.622537 12242.352845 
C 4253.795944 12242.352845 5850.992334 11580.772438 7028.447741 10403.317031 
C 8205.903149 9225.861623 8867.483555 7628.665233 8867.483555 5963.491827 
C 8867.483555 4298.318421 8205.903149 2701.122031 7028.447741 1523.666623 
C 5850.992334 346.211216 4253.795944 -315.369191 2588.622537 -315.369191 
C 923.449131 -315.369191 -673.747259 346.211216 -1851.202667 1523.666623 
C -3028.658074 2701.122031 -3690.238481 4298.318421 -3690.238481 5963.491827 
C -3690.238481 7628.665233 -3028.658074 9225.861623 -1851.202667 10403.317031 
C -673.747259 11580.772438 923.449131 12242.352845 2588.622537 12242.352845 
" clip-path="url(#p5858835b65)" style="fill: none; stroke-dasharray: 3.7,1.6; stroke-dashoffset: 0; stroke: #bf00bf; stroke-linejoin: miter"/>
   </g>
   <g id="patch_25">
    <path d="M 323.225806 494.340315 
C 374.765461 494.340315 424.201122 473.863394 460.645161 437.419355 
C 497.0892 400.975316 517.566122 351.539654 517.566122 300 
C 517.566122 248.460346 497.0892 199.024684 460.645161 162.580645 
C 424.201122 126.136606 374.765461 105.659685 323.225806 105.659685 
C 271.686152 105.659685 222.250491 126.136606 185.806452 162.580645 
C 149.362413 199.024684 128.885491 248.460346 128.885491 300 
C 128.885491 351.539654 149.362413 400.975316 185.806452 437.419355 
C 222.250491 473.863394 271.686152 494.340315 323.225806 494.340315 
" clip-path="url(#p5858835b65)" style="fill: none; stroke-dasharray: 3.7,1.6; stroke-dashoffset: 0; stroke: #bf00bf; stroke-linejoin: miter"/>
   </g>
   <g id="patch_26">
    <path d="M 284.632021 310.483562 
C 313.000273 310.483562 340.210454 299.212736 360.269837 279.153352 
C 380.32922 259.093969 391.600046 231.883788 391.600046 203.515536 
C 391.600046 175.147284 380.32922 147.937103 360.269837 127.87772 
C 340.210454 107.818337 313.000273 96.547511 284.632021 96.547511 
C 256.263769 96.547511 229.053588 107.818337 208.994205 127.87772 
C 188.934821 147.937103 177.663996 175.147284 177.663996 203.515536 
C 177.663996 231.883788 188.934821 259.093969 208.994205 279.153352 
C 229.053588 299.212736 256.263769 310.483562 284.632021 310.483562 
L 284.632021 310.483562 
z
" clip-path="url(#p5858835b65)" style="fill: none; stroke-dasharray: 3.7,1.6; stroke-dashoffset: 0; stroke: #bf00bf; stroke-linejoin: miter"/>
   </g>
   <g id="patch_27">
    <path d="M 268.258065 245.032258 
C 290.124488 245.032258 311.098263 236.344636 326.560159 220.88274 
C 342.022055 205.420844 350.709677 184.447069 350.709677 162.580645 
C 350.709677 140.714222 342.022055 119.740447 326.560159 104.278551 
C 311.098263 88.816654 290.124488 80.129032 268.258065 80.129032 
C 246.391641 80.129032 225.417866 88.816654 209.95597 104.278551 
C 194.494074 119.740447 185.806452 140.714222 185.806452 162.580645 
C 185.806452 184.447069 194.494074 205.420844 209.95597 220.88274 
C 225.417866 236.344636 246.391641 245.032258 268.258065 245.032258 
L 268.258065 245.032258 
z
" clip-path="url(#p5858835b65)" style="fill: none; stroke-dasharray: 3.7,1.6; stroke-dashoffset: 0; stroke: #bf00bf; stroke-linejoin: miter"/>
   </g>
   <g id="patch_28">
    <path d="M 256.538753 209.842458 
C 276.842727 209.842458 296.317835 201.775604 310.674913 187.418526 
C 325.03199 173.061449 333.098845 153.58634 333.098845 133.282367 
C 333.098845 112.978393 325.03199 93.503284 310.674913 79.146207 
C 296.317835 64.789129 276.842727 56.722275 256.538753 56.722275 
C 236.23478 56.722275 216.759671 64.789129 202.402593 79.146207 
C 188.045516 93.503284 179.978662 112.978393 179.978662 133.282367 
C 179.978662 153.58634 188.045516 173.061449 202.402593 187.418526 
C 216.759671 201.775604 236.23478 209.842458 256.538753 209.842458 
L 256.538753 209.842458 
z
" clip-path="url(#p5858835b65)" style="fill: none; stroke-dasharray: 3.7,1.6; stroke-dashoffset: 0; stroke: #bf00bf; stroke-linejoin: miter"/>
   </g>
   <g id="patch_29">
    <path d="M 244.700461 186.975343 
C 266.788884 186.975343 287.975596 178.199519 303.59447 162.580645 
C 319.213344 146.961771 327.989167 125.775059 327.989167 103.686636 
C 327.989167 81.598213 319.213344 60.411501 303.59447 44.792627 
C 287.975596 29.173753 266.788884 20.397929 244.700461 20.397929 
C 222.612038 20.397929 201.425325 29.173753 185.806452 44.792627 
C 170.187578 60.411501 161.411754 81.598213 161.411754 103.686636 
C 161.411754 125.775059 170.187578 146.961771 185.806452 162.580645 
C 201.425325 178.199519 222.612038 186.975343 244.700461 186.975343 
L 244.700461 186.975343 
z
" clip-path="url(#p5858835b65)" style="fill: none; stroke-dasharray: 3.7,1.6; stroke-dashoffset: 0; stroke: #bf00bf; stroke-linejoin: miter"/>
   </g>
   <g id="patch_30">
    <path d="M 227.751929 170.924119 
C 256.820526 170.924119 284.702462 159.375043 305.257064 138.820441 
C 325.811666 118.265839 337.360742 90.383903 337.360742 61.315306 
C 337.360742 32.246708 325.811666 4.364772 305.257064 -16.18983 
C 284.702462 -36.744432 256.820526 -48.293508 227.751929 -48.293508 
C 198.683331 -48.293508 170.801395 -36.744432 150.246793 -16.18983 
C 129.692191 4.364772 118.143115 32.246708 118.143115 61.315306 
C 118.143115 90.383903 129.692191 118.265839 150.246793 138.820441 
C 170.801395 159.375043 198.683331 170.924119 227.751929 170.924119 
L 227.751929 170.924119 
z
" clip-path="url(#p5858835b65)" style="fill: none; stroke-dasharray: 3.7,1.6; stroke-dashoffset: 0; stroke: #bf00bf; stroke-linejoin: miter"/>
   </g>
   <g id="patch_31">
    <path d="M 185.806452 162.580645 
C 240.47251 162.580645 292.906948 140.86159 331.561688 102.206849 
C 370.216429 63.552109 391.935484 11.117671 391.935484 -43.548387 
C 391.935484 -98.214445 370.216429 -150.648883 331.561688 -189.303624 
C 292.906948 -227.958364 240.47251 -249.677419 185.806452 -249.677419 
C 131.140393 -249.677419 78.705956 -227.958364 40.051215 -189.303624 
C 1.396475 -150.648883 -20.322581 -98.214445 -20.322581 -43.548387 
C -20.322581 11.117671 1.396475 63.552109 40.051215 102.206849 
C 78.705956 140.86159 131.140393 162.580645 185.806452 162.580645 
L 185.806452 162.580645 
z
" clip-path="url(#p5858835b65)" style="fill: none; stroke-dasharray: 3.7,1.6; stroke-dashoffset: 0; stroke: #bf00bf; stroke-linejoin: miter"/>
   </g>
   <g id="patch_32">
    <path d="M 2588.622537 12242.352845 
C 4253.795944 12242.352845 5850.992334 11580.772438 7028.447741 10403.317031 
C 8205.903149 9225.861623 8867.483555 7628.665233 8867.483555 5963.491827 
C 8867.483555 4298.318421 8205.903149 2701.122031 7028.447741 1523.666623 
C 5850.992334 346.211216 4253.795944 -315.369191 2588.622537 -315.369191 
C 923.449131 -315.369191 -673.747259 346.211216 -1851.202667 1523.666623 
C -3028.658074 2701.122031 -3690.238481 4298.318421 -3690.238481 5963.491827 
C -3690.238481 7628.665233 -3028.658074 9225.861623 -1851.202667 10403.317031 
C -673.747259 11580.772438 923.449131 12242.352845 2588.622537 12242.352845 
" clip-path="url(#p5858835b65)" style="fill: none; stroke-dasharray: 3.7,1.6; stroke-dashoffset: 0; stroke: #bf00bf; stroke-linejoin: miter"/>
   </g>
   <g id="patch_33">
    <path d="M 323.225806 494.340315 
C 374.765461 494.340315 424.201122 473.863394 460.645161 437.419355 
C 497.0892 400.975316 517.566122 351.539654 517.566122 300 
C 517.566122 248.460346 497.0892 199.024684 460.645161 162.580645 
C 424.201122 126.136606 374.765461 105.659685 323.225806 105.659685 
C 271.686152 105.659685 222.250491 126.136606 185.806452 162.580645 
C 149.362413 199.024684 128.885491 248.460346 128.885491 300 
C 128.885491 351.539654 149.362413 400.975316 185.806452 437.419355 
C 222.250491 473.863394 271.686152 494.340315 323.225806 494.340315 
" clip-path="url(#p5858835b65)" style="fill: none; stroke-dasharray: 3.7,1.6; stroke-dashoffset: 0; stroke: #bf00bf; stroke-linejoin: miter"/>
   </g>
   <g id="patch_34">
    <path d="M 284.632021 310.483562 
C 313.000273 310.483562 340.210454 299.212736 360.269837 279.153352 
C 380.32922 259.093969 391.600046 231.883788 391.600046 203.515536 
C 391.600046 175.147284 380.32922 147.937103 360.269837 127.87772 
C 340.210454 107.818337 313.000273 96.547511 284.632021 96.547511 
C 256.263769 96.547511 229.053588 107.818337 208.994205 127.87772 
C 188.934821 147.937103 177.663996 175.147284 177.663996 203.515536 
C 177.663996 231.883788 188.934821 259.093969 208.994205 279.153352 
C 229.053588 299.212736 256.263769 310.483562 284.632021 310.483562 
L 284.632021 310.483562 
z
" clip-path="url(#p5858835b65)" style="fill: none; stroke-dasharray: 3.7,1.6; stroke-dashoffset: 0; stroke: #bf00bf; stroke-linejoin: miter"/>
   </g>
   <g id="patch_35">
    <path d="M 268.258065 245.032258 
C 290.124488 245.032258 311.098263 236.344636 326.560159 220.88274 
C 342.022055 205.420844 350.709677 184.447069 350.709677 162.580645 
C 350.709677 140.714222 342.022055 119.740447 326.560159 104.278551 
C 311.098263 88.816654 290.124488 80.129032 268.258065 80.129032 
C 246.391641 80.129032 225.417866 88.816654 209.95597 104.278551 
C 194.494074 119.740447 185.806452 140.714222 185.806452 162.580645 
C 185.806452 184.447069 194.494074 205.420844 209.95597 220.88274 
C 225.417866 236.344636 246.391641 245.032258 268.258065 245.032258 
L 268.258065 245.032258 
z
" clip-path="url(#p5858835b65)" style="fill: none; stroke-dasharray: 3.7,1.6; stroke-dashoffset: 0; stroke: #bf00bf; stroke-linejoin: miter"/>
   </g>
   <g id="patch_36">
    <path d="M 75.338326 152.973337 
Q 68.902522 186.706992 83.977973 216.637252 
L 85.54091 215.850023 
Q 86.392463 219.766585 87.610328 223.758892 
Q 84.673936 220.794793 81.968484 217.649404 
L 83.53142 216.862175 
Q 68.379542 186.780178 74.847184 152.879636 
L 75.338326 152.973337 
z
" clip-path="url(#p5858835b65)" style="stroke: #000000; stroke-linecap: round"/>
   </g>
   <g id="line2d_1">
    <defs>
     <path id="mf3fcf7d6e9" d="M 0 3 
C 0.795609 3 1.55874 2.683901 2.12132 2.12132 
C 2.683901 1.55874 3 0.795609 3 0 
C 3 -0.795609 2.683901 -1.55874 2.12132 -2.12132 
C 1.55874 -2.683901 0.795609 -3 0 -3 
C -0.795609 -3 -1.55874 -2.683901 -2.12132 -2.12132 
C -2.683901 -1.55874 -3 -0.795609 -3 0 
C -3 0.795609 -2.683901 1.55874 -2.12132 2.12132 
C -1.55874 2.683901 -0.795609 3 0 3 
z
" style="stroke: #008000"/>
    </defs>
    <g clip-path="url(#p5858835b65)">
     <use xlink:href="#mf3fcf7d6e9" x="185.806452" y="162.580645" style="fill: #008000; stroke: #008000"/>
    </g>
   </g>
   <g id="line2d_2">
    <defs>
     <path id="m0f2299096b" d="M 0 3 
C 0.795609 3 1.55874 2.683901 2.12132 2.12132 
C 2.683901 1.55874 3 0.795609 3 0 
C 3 -0.795609 2.683901 -1.55874 2.12132 -2.12132 
C 1.55874 -2.683901 0.795609 -3 0 -3 
C -0.795609 -3 -1.55874 -2.683901 -2.12132 -2.12132 
C -2.683901 -1.55874 -3 -0.795609 -3 0 
C -3 0.795609 -2.683901 1.55874 -2.12132 2.12132 
C -1.55874 2.683901 -0.795609 3 0 3 
z
" style="stroke: #0000ff"/>
    </defs>
    <g clip-path="url(#p5858835b65)">
     <use xlink:href="#m0f2299096b" x="327.964405" y="105.717464" style="fill: #0000ff; stroke: #0000ff"/>
    </g>
   </g>
   <g id="text_1">
    <!-- $p_1$ -->
    <g transform="translate(162.580645 180)scale(0.2 -0.2)">
     <defs>
      <path id="CMMI12-70" d="M 275 -789 
C 230 -980 205 -1031 -58 -1031 
C -134 -1031 -198 -1031 -198 -1152 
C -198 -1165 -192 -1216 -122 -1216 
C -38 -1216 51 -1216 134 -1216 
L 410 -1216 
C 544 -1216 870 -1216 1005 -1216 
C 1043 -1216 1120 -1216 1120 -1101 
C 1120 -1031 1075 -1031 966 -1031 
C 672 -1031 653 -987 653 -937 
C 653 -861 941 219 979 364 
C 1050 185 1222 -64 1555 -64 
C 2278 -64 3059 875 3059 1814 
C 3059 2401 2726 2816 2246 2816 
C 1837 2816 1491 2420 1421 2331 
C 1370 2650 1120 2816 864 2816 
C 678 2816 531 2727 410 2484 
C 294 2254 205 1865 205 1839 
C 205 1814 230 1782 275 1782 
C 326 1782 333 1788 371 1935 
C 467 2312 589 2689 845 2689 
C 992 2689 1043 2587 1043 2397 
C 1043 2245 1024 2181 998 2067 
L 275 -789 
z
M 1382 1993 
C 1427 2171 1606 2357 1709 2446 
C 1779 2510 1990 2689 2234 2689 
C 2515 2689 2643 2408 2643 2076 
C 2643 1769 2464 1047 2304 715 
C 2144 370 1850 64 1555 64 
C 1120 64 1050 613 1050 639 
C 1050 658 1062 709 1069 741 
L 1382 1993 
z
" transform="scale(0.015625)"/>
      <path id="CMR17-31" d="M 1702 4058 
C 1702 4192 1696 4192 1606 4192 
C 1357 3916 979 3827 621 3827 
C 602 3827 570 3827 563 3808 
C 557 3795 557 3782 557 3648 
C 755 3648 1088 3686 1344 3839 
L 1344 461 
C 1344 236 1331 160 781 160 
L 589 160 
L 589 0 
C 896 0 1216 0 1523 0 
C 1830 0 2150 0 2458 0 
L 2458 160 
L 2266 160 
C 1715 160 1702 230 1702 458 
L 1702 4058 
z
" transform="scale(0.015625)"/>
     </defs>
     <use xlink:href="#CMMI12-70" transform="scale(0.996264)"/>
     <use xlink:href="#CMR17-31" transform="translate(48.959514 -14.943915)scale(0.697382)"/>
    </g>
   </g>
   <g id="text_2">
    <!-- $p_2$ -->
    <g transform="translate(341.899889 94.104561)scale(0.2 -0.2)">
     <defs>
      <path id="CMR17-32" d="M 2669 989 
L 2554 989 
C 2490 536 2438 459 2413 420 
C 2381 369 1920 369 1830 369 
L 602 369 
C 832 619 1280 1072 1824 1597 
C 2214 1967 2669 2402 2669 3035 
C 2669 3790 2067 4224 1395 4224 
C 691 4224 262 3604 262 3030 
C 262 2780 448 2748 525 2748 
C 589 2748 781 2787 781 3010 
C 781 3207 614 3264 525 3264 
C 486 3264 448 3258 422 3245 
C 544 3790 915 4058 1306 4058 
C 1862 4058 2227 3617 2227 3035 
C 2227 2479 1901 2000 1536 1584 
L 262 146 
L 262 0 
L 2515 0 
L 2669 989 
z
" transform="scale(0.015625)"/>
     </defs>
     <use xlink:href="#CMMI12-70" transform="scale(0.996264)"/>
     <use xlink:href="#CMR17-32" transform="translate(48.959514 -14.943915)scale(0.697382)"/>
    </g>
   </g>
   <g id="text_3">
    <!-- $M$ -->
    <g transform="translate(87.096774 185.806452)scale(0.2 -0.2)">
     <defs>
      <path id="CMMI12-4d" d="M 5811 3886 
C 5869 4103 5882 4167 6336 4167 
C 6458 4167 6515 4167 6515 4288 
C 6515 4352 6470 4352 6349 4352 
L 5581 4352 
C 5421 4352 5414 4346 5344 4243 
L 3008 562 
L 2528 4211 
C 2509 4352 2502 4352 2336 4352 
L 1542 4352 
C 1421 4352 1363 4352 1363 4231 
C 1363 4167 1421 4167 1517 4167 
C 1907 4167 1907 4116 1907 4046 
C 1907 4034 1907 3995 1882 3899 
L 1062 634 
C 986 327 838 186 410 186 
C 390 186 314 186 314 73 
C 314 0 371 0 397 0 
C 525 0 851 0 979 0 
L 1286 0 
C 1376 0 1485 0 1574 0 
C 1619 0 1690 0 1690 122 
C 1690 180 1626 186 1600 186 
C 1389 186 1184 224 1184 454 
C 1184 518 1184 524 1210 613 
L 2093 4129 
L 2099 4129 
L 2630 172 
C 2650 19 2656 0 2714 0 
C 2784 0 2816 51 2848 109 
L 5421 4161 
L 5427 4161 
L 4499 473 
C 4442 250 4429 186 3981 186 
C 3859 186 3795 186 3795 70 
C 3795 0 3853 0 3891 0 
C 4000 0 4128 0 4237 0 
L 4992 0 
C 5101 0 5235 0 5344 0 
C 5395 0 5466 0 5466 122 
C 5466 186 5408 186 5312 186 
C 4922 186 4922 234 4922 294 
C 4922 301 4922 345 4934 396 
L 5811 3886 
z
" transform="scale(0.015625)"/>
     </defs>
     <use xlink:href="#CMMI12-4d" transform="scale(0.996264)"/>
    </g>
   </g>
  </g>
 </g>
 <defs>
  <clipPath id="p5858835b65">
   <rect x="0" y="0" width="360" height="360"/>
  </clipPath>
 </defs>
</svg>
