<?xml version="1.0" encoding="utf-8" standalone="no"?>
<!DOCTYPE svg PUBLIC "-//W3C//DTD SVG 1.1//EN"
  "http://www.w3.org/Graphics/SVG/1.1/DTD/svg11.dtd">
<svg xmlns:xlink="http://www.w3.org/1999/xlink" width="360pt" height="360pt" viewBox="0 0 360 360" xmlns="http://www.w3.org/2000/svg" version="1.1">
 <metadata>
  <rdf:RDF xmlns:dc="http://purl.org/dc/elements/1.1/" xmlns:cc="http://creativecommons.org/ns#" xmlns:rdf="http://www.w3.org/1999/02/22-rdf-syntax-ns#">
   <cc:Work>
    <dc:type rdf:resource="http://purl.org/dc/dcmitype/StillImage"/>
    <dc:date>2022-04-01T21:58:43.354721</dc:date>
    <dc:format>image/svg+xml</dc:format>
    <dc:creator>
     <cc:Agent>
      <dc:title>Matplotlib v3.5.1, https://matplotlib.org/</dc:title>
     </cc:Agent>
    </dc:creator>
   </cc:Work>
  </rdf:RDF>
 </metadata>
 <defs>
  <style type="text/css">*{stroke-linejoin: round; stroke-linecap: butt}</style>
 </defs>
 <g id="figure_1">
  <g id="patch_1">
   <path d="M 0 360 
L 360 360 
L 360 0 
L 0 0 
z
" style="fill: #ffffff"/>
  </g>
  <g id="axes_1">
   <g id="patch_2">
    <path d="M 180 330 
C 219.780465 330 257.936981 314.195054 286.066017 286.066017 
C 314.195054 257.936981 330 219.780465 330 180 
C 330 140.219535 314.195054 102.063019 286.066017 73.933983 
C 257.936981 45.804946 219.780465 30 180 30 
C 140.219535 30 102.063019 45.804946 73.933983 73.933983 
C 45.804946 102.063019 30 140.219535 30 180 
C 30 219.780465 45.804946 257.936981 73.933983 286.066017 
C 102.063019 314.195054 140.219535 330 180 330 
L 180 330 
z
" clip-path="url(#p3fb4505541)" style="fill: none; stroke: #000000; stroke-width: 2; stroke-linejoin: miter"/>
   </g>
   <g id="patch_3">
    <path d="M -129.322158 450.518387 
C -57.579843 450.518387 11.23375 422.014863 61.963228 371.285386 
C 112.692705 320.555908 141.196229 251.742315 141.196229 180 
C 141.196229 108.257685 112.692705 39.444092 61.963228 -11.285386 
C 11.23375 -62.014863 -57.579843 -90.518387 -129.322158 -90.518387 
C -201.064473 -90.518387 -269.878066 -62.014863 -320.607544 -11.285386 
C -371.337021 39.444092 -399.840545 108.257685 -399.840545 180 
C -399.840545 251.742315 -371.337021 320.555908 -320.607544 371.285386 
C -269.878066 422.014863 -201.064473 450.518387 -129.322158 450.518387 
z
" clip-path="url(#p3fb4505541)" style="fill: #10a2f0; opacity: 0.4; stroke: #000000; stroke-width: 1.5; stroke-linejoin: miter"/>
   </g>
   <g id="patch_4">
    <path d="M -678.805265 1025.604212 
C -454.548407 1025.604212 -239.446338 936.506018 -80.872793 777.932472 
C 77.700753 619.358927 166.798947 404.256858 166.798947 180 
C 166.798947 -44.256858 77.700753 -259.358927 -80.872793 -417.932472 
C -239.446338 -576.506018 -454.548407 -665.604212 -678.805265 -665.604212 
C -903.062123 -665.604212 -1118.164192 -576.506018 -1276.737737 -417.932472 
C -1435.311282 -259.358927 -1524.409477 -44.256858 -1524.409477 180 
C -1524.409477 404.256858 -1435.311282 619.358927 -1276.737737 777.932472 
C -1118.164192 936.506018 -903.062123 1025.604212 -678.805265 1025.604212 
z
" clip-path="url(#p3fb4505541)" style="fill: #d0e082; opacity: 0.4; stroke: #000000; stroke-width: 1.5; stroke-linejoin: miter"/>
   </g>
   <g id="patch_5">
    <path d="M 1038.805265 1025.604212 
C 1263.062123 1025.604212 1478.164192 936.506018 1636.737737 777.932472 
C 1795.311282 619.358927 1884.409477 404.256858 1884.409477 180 
C 1884.409477 -44.256858 1795.311282 -259.358927 1636.737737 -417.932472 
C 1478.164192 -576.506018 1263.062123 -665.604212 1038.805265 -665.604212 
C 814.548407 -665.604212 599.446338 -576.506018 440.872793 -417.932472 
C 282.299247 -259.358927 193.201053 -44.256858 193.201053 180 
C 193.201053 404.256858 282.299247 619.358927 440.872793 777.932472 
C 599.446338 936.506018 814.548407 1025.604212 1038.805265 1025.604212 
z
" clip-path="url(#p3fb4505541)" style="fill: #ff5f30; opacity: 0.4; stroke: #000000; stroke-width: 1.5; stroke-linejoin: miter"/>
   </g>
   <g id="patch_6">
    <path d="M 489.322158 450.518387 
C 561.064473 450.518387 629.878066 422.014863 680.607544 371.285386 
C 731.337021 320.555908 759.840545 251.742315 759.840545 180 
C 759.840545 108.257685 731.337021 39.444092 680.607544 -11.285386 
C 629.878066 -62.014863 561.064473 -90.518387 489.322158 -90.518387 
C 417.579843 -90.518387 348.76625 -62.014863 298.036772 -11.285386 
C 247.307295 39.444092 218.803771 108.257685 218.803771 180 
C 218.803771 251.742315 247.307295 320.555908 298.036772 371.285386 
C 348.76625 422.014863 417.579843 450.518387 489.322158 450.518387 
z
" clip-path="url(#p3fb4505541)" style="fill: #ff0000; opacity: 0.4; stroke: #000000; stroke-width: 1.5; stroke-linejoin: miter"/>
   </g>
   <g id="patch_7">
    <path d="M 180 1798.757799 
C 396.492895 1798.757799 604.147946 1712.74426 757.23154 1559.660666 
C 910.315134 1406.577072 996.328673 1198.92202 996.328673 982.429126 
C 996.328673 765.936231 910.315134 558.28118 757.23154 405.197586 
C 604.147946 252.113992 396.492895 166.100453 180 166.100453 
C -36.492895 166.100453 -244.147946 252.113992 -397.23154 405.197586 
C -550.315134 558.28118 -636.328673 765.936231 -636.328673 982.429126 
C -636.328673 1198.92202 -550.315134 1406.577072 -397.23154 1559.660666 
C -244.147946 1712.74426 -36.492895 1798.757799 180 1798.757799 
" clip-path="url(#p3fb4505541)" style="fill: none; stroke-dasharray: 2.775,1.2; stroke-dashoffset: 0; stroke: #bf00bf; stroke-width: 0.75; stroke-linejoin: miter"/>
   </g>
   <g id="patch_8">
    <path d="M 180 982.429126 
C 290.121475 982.429126 395.747484 938.6774 473.615126 860.809759 
C 551.482767 782.942117 595.234493 677.316108 595.234493 567.194633 
C 595.234493 457.073158 551.482767 351.447149 473.615126 273.579508 
C 395.747484 195.711866 290.121475 151.96014 180 151.96014 
C 69.878525 151.96014 -35.747484 195.711866 -113.615126 273.579508 
C -191.482767 351.447149 -235.234493 457.073158 -235.234493 567.194633 
C -235.234493 677.316108 -191.482767 782.942117 -113.615126 860.809759 
C -35.747484 938.6774 69.878525 982.429126 180 982.429126 
" clip-path="url(#p3fb4505541)" style="fill: none; stroke-dasharray: 2.775,1.2; stroke-dashoffset: 0; stroke: #bf00bf; stroke-width: 0.75; stroke-linejoin: miter"/>
   </g>
   <g id="patch_9">
    <path d="M 180 707.195316 
C 255.566175 707.195316 328.047528 677.172556 381.480883 623.739201 
C 434.914238 570.305847 464.936998 497.824493 464.936998 422.258318 
C 464.936998 346.692143 434.914238 274.21079 381.480883 220.777435 
C 328.047528 167.34408 255.566175 137.32132 180 137.32132 
C 104.433825 137.32132 31.952472 167.34408 -21.480883 220.777435 
C -74.914238 274.21079 -104.936998 346.692143 -104.936998 422.258318 
C -104.936998 497.824493 -74.914238 570.305847 -21.480883 623.739201 
C 31.952472 677.172556 104.433825 707.195316 180 707.195316 
" clip-path="url(#p3fb4505541)" style="fill: none; stroke-dasharray: 2.775,1.2; stroke-dashoffset: 0; stroke: #bf00bf; stroke-width: 0.75; stroke-linejoin: miter"/>
   </g>
   <g id="patch_10">
    <path d="M 180 567.194633 
C 239.048126 567.194633 295.685742 543.734564 337.439072 501.981234 
C 379.192402 460.227904 402.652471 403.590287 402.652471 344.542162 
C 402.652471 285.494036 379.192402 228.856419 337.439072 187.103089 
C 295.685742 145.349759 239.048126 121.88969 180 121.88969 
C 120.951874 121.88969 64.314258 145.349759 22.560928 187.103089 
C -19.192402 228.856419 -42.652471 285.494036 -42.652471 344.542162 
C -42.652471 403.590287 -19.192402 460.227904 22.560928 501.981234 
C 64.314258 543.734564 120.951874 567.194633 180 567.194633 
" clip-path="url(#p3fb4505541)" style="fill: none; stroke-dasharray: 2.775,1.2; stroke-dashoffset: 0; stroke: #bf00bf; stroke-width: 0.75; stroke-linejoin: miter"/>
   </g>
   <g id="patch_11">
    <path d="M 180 481.240609 
C 229.849131 481.240609 277.663281 461.435339 312.911939 426.186681 
C 348.160597 390.938023 367.965867 343.123873 367.965867 293.274742 
C 367.965867 243.425611 348.160597 195.611461 312.911939 160.362803 
C 277.663281 125.114144 229.849131 105.308875 180 105.308875 
C 130.150869 105.308875 82.336719 125.114144 47.088061 160.362803 
C 11.839403 195.611461 -7.965867 243.425611 -7.965867 293.274742 
C -7.965867 343.123873 11.839403 390.938023 47.088061 426.186681 
C 82.336719 461.435339 130.150869 481.240609 180 481.240609 
" clip-path="url(#p3fb4505541)" style="fill: none; stroke-dasharray: 2.775,1.2; stroke-dashoffset: 0; stroke: #bf00bf; stroke-width: 0.75; stroke-linejoin: miter"/>
   </g>
   <g id="patch_12">
    <path d="M 180 422.258318 
C 224.439339 422.258318 267.06454 404.602382 298.487898 373.179024 
C 329.911256 341.755666 347.567193 299.130464 347.567193 254.691125 
C 347.567193 210.251786 329.911256 167.626585 298.487898 136.203227 
C 267.06454 104.779869 224.439339 87.123932 180 87.123932 
C 135.560661 87.123932 92.93546 104.779869 61.512102 136.203227 
C 30.088744 167.626585 12.432807 210.251786 12.432807 254.691125 
C 12.432807 299.130464 30.088744 341.755666 61.512102 373.179024 
C 92.93546 404.602382 135.560661 422.258318 180 422.258318 
" clip-path="url(#p3fb4505541)" style="fill: none; stroke-dasharray: 2.775,1.2; stroke-dashoffset: 0; stroke: #bf00bf; stroke-width: 0.75; stroke-linejoin: miter"/>
   </g>
   <g id="patch_13">
    <path d="M 180 378.632101 
C 221.359331 378.632101 261.030259 362.199865 290.275722 332.954402 
C 319.521185 303.708938 335.953422 264.038011 335.953422 222.67868 
C 335.953422 181.319349 319.521185 141.648421 290.275722 112.402958 
C 261.030259 83.157494 221.359331 66.725258 180 66.725258 
C 138.640669 66.725258 98.969741 83.157494 69.724278 112.402958 
C 40.478815 141.648421 24.046578 181.319349 24.046578 222.67868 
C 24.046578 264.038011 40.478815 303.708938 69.724278 332.954402 
C 98.969741 362.199865 138.640669 378.632101 180 378.632101 
" clip-path="url(#p3fb4505541)" style="fill: none; stroke-dasharray: 2.775,1.2; stroke-dashoffset: 0; stroke: #bf00bf; stroke-width: 0.75; stroke-linejoin: miter"/>
   </g>
   <g id="patch_14">
    <path d="M 180 344.542162 
C 219.950888 344.542162 258.27087 328.669506 286.520414 300.419961 
C 314.769959 272.170417 330.642615 233.850435 330.642615 193.899547 
C 330.642615 153.948658 314.769959 115.628677 286.520414 87.379132 
C 258.27087 59.129588 219.950888 43.256932 180 43.256932 
C 140.049112 43.256932 101.72913 59.129588 73.479586 87.379132 
C 45.230041 115.628677 29.357385 153.948658 29.357385 193.899547 
C 29.357385 233.850435 45.230041 272.170417 73.479586 300.419961 
C 101.72913 328.669506 140.049112 344.542162 180 344.542162 
L 180 344.542162 
z
" clip-path="url(#p3fb4505541)" style="fill: none; stroke-dasharray: 2.775,1.2; stroke-dashoffset: 0; stroke: #bf00bf; stroke-width: 0.75; stroke-linejoin: miter"/>
   </g>
   <g id="patch_15">
    <path d="M 180 316.743068 
C 219.950888 316.743068 258.27087 300.870412 286.520414 272.620868 
C 314.769959 244.371323 330.642615 206.051342 330.642615 166.100453 
C 330.642615 126.149565 314.769959 87.829583 286.520414 59.580039 
C 258.27087 31.330494 219.950888 15.457838 180 15.457838 
C 140.049112 15.457838 101.72913 31.330494 73.479586 59.580039 
C 45.230041 87.829583 29.357385 126.149565 29.357385 166.100453 
C 29.357385 206.051342 45.230041 244.371323 73.479586 272.620868 
C 101.72913 300.870412 140.049112 316.743068 180 316.743068 
L 180 316.743068 
z
" clip-path="url(#p3fb4505541)" style="fill: none; stroke-dasharray: 2.775,1.2; stroke-dashoffset: 0; stroke: #bf00bf; stroke-width: 0.75; stroke-linejoin: miter"/>
   </g>
   <g id="patch_16">
    <path d="M 180 293.274742 
C 221.359331 293.274742 261.030259 276.842506 290.275722 247.597042 
C 319.521185 218.351579 335.953422 178.680651 335.953422 137.32132 
C 335.953422 95.961989 319.521185 56.291062 290.275722 27.045598 
C 261.030259 -2.199865 221.359331 -18.632101 180 -18.632101 
C 138.640669 -18.632101 98.969741 -2.199865 69.724278 27.045598 
C 40.478815 56.291062 24.046578 95.961989 24.046578 137.32132 
C 24.046578 178.680651 40.478815 218.351579 69.724278 247.597042 
C 98.969741 276.842506 138.640669 293.274742 180 293.274742 
L 180 293.274742 
z
" clip-path="url(#p3fb4505541)" style="fill: none; stroke-dasharray: 2.775,1.2; stroke-dashoffset: 0; stroke: #bf00bf; stroke-width: 0.75; stroke-linejoin: miter"/>
   </g>
   <g id="patch_17">
    <path d="M 180 272.876068 
C 224.439339 272.876068 267.06454 255.220131 298.487898 223.796773 
C 329.911256 192.373415 347.567193 149.748214 347.567193 105.308875 
C 347.567193 60.869536 329.911256 18.244334 298.487898 -13.179024 
C 267.06454 -44.602382 224.439339 -62.258318 180 -62.258318 
C 135.560661 -62.258318 92.93546 -44.602382 61.512102 -13.179024 
C 30.088744 18.244334 12.432807 60.869536 12.432807 105.308875 
C 12.432807 149.748214 30.088744 192.373415 61.512102 223.796773 
C 92.93546 255.220131 135.560661 272.876068 180 272.876068 
L 180 272.876068 
z
" clip-path="url(#p3fb4505541)" style="fill: none; stroke-dasharray: 2.775,1.2; stroke-dashoffset: 0; stroke: #bf00bf; stroke-width: 0.75; stroke-linejoin: miter"/>
   </g>
   <g id="patch_18">
    <path d="M 180 254.691125 
C 229.849131 254.691125 277.663281 234.885856 312.911939 199.637197 
C 348.160597 164.388539 367.965867 116.574389 367.965867 66.725258 
C 367.965867 16.876127 348.160597 -30.938023 312.911939 -66.186681 
C 277.663281 -101.435339 229.849131 -121.240609 180 -121.240609 
C 130.150869 -121.240609 82.336719 -101.435339 47.088061 -66.186681 
C 11.839403 -30.938023 -7.965867 16.876127 -7.965867 66.725258 
C -7.965867 116.574389 11.839403 164.388539 47.088061 199.637197 
C 82.336719 234.885856 130.150869 254.691125 180 254.691125 
L 180 254.691125 
z
" clip-path="url(#p3fb4505541)" style="fill: none; stroke-dasharray: 2.775,1.2; stroke-dashoffset: 0; stroke: #bf00bf; stroke-width: 0.75; stroke-linejoin: miter"/>
   </g>
   <g id="patch_19">
    <path d="M 180 238.11031 
C 239.048126 238.11031 295.685742 214.650241 337.439072 172.896911 
C 379.192402 131.143581 402.652471 74.505964 402.652471 15.457838 
C 402.652471 -43.590287 379.192402 -100.227904 337.439072 -141.981234 
C 295.685742 -183.734564 239.048126 -207.194633 180 -207.194633 
C 120.951874 -207.194633 64.314258 -183.734564 22.560928 -141.981234 
C -19.192402 -100.227904 -42.652471 -43.590287 -42.652471 15.457838 
C -42.652471 74.505964 -19.192402 131.143581 22.560928 172.896911 
C 64.314258 214.650241 120.951874 238.11031 180 238.11031 
L 180 238.11031 
z
" clip-path="url(#p3fb4505541)" style="fill: none; stroke-dasharray: 2.775,1.2; stroke-dashoffset: 0; stroke: #bf00bf; stroke-width: 0.75; stroke-linejoin: miter"/>
   </g>
   <g id="patch_20">
    <path d="M 180 222.67868 
C 255.566175 222.67868 328.047528 192.65592 381.480883 139.222565 
C 434.914238 85.78921 464.936998 13.307857 464.936998 -62.258318 
C 464.936998 -137.824493 434.914238 -210.305847 381.480883 -263.739201 
C 328.047528 -317.172556 255.566175 -347.195316 180 -347.195316 
C 104.433825 -347.195316 31.952472 -317.172556 -21.480883 -263.739201 
C -74.914238 -210.305847 -104.936998 -137.824493 -104.936998 -62.258318 
C -104.936998 13.307857 -74.914238 85.78921 -21.480883 139.222565 
C 31.952472 192.65592 104.433825 222.67868 180 222.67868 
L 180 222.67868 
z
" clip-path="url(#p3fb4505541)" style="fill: none; stroke-dasharray: 2.775,1.2; stroke-dashoffset: 0; stroke: #bf00bf; stroke-width: 0.75; stroke-linejoin: miter"/>
   </g>
   <g id="patch_21">
    <path d="M 180 208.03986 
C 290.121475 208.03986 395.747484 164.288134 473.615126 86.420492 
C 551.482767 8.552851 595.234493 -97.073158 595.234493 -207.194633 
C 595.234493 -317.316108 551.482767 -422.942117 473.615126 -500.809759 
C 395.747484 -578.6774 290.121475 -622.429126 180 -622.429126 
C 69.878525 -622.429126 -35.747484 -578.6774 -113.615126 -500.809759 
C -191.482767 -422.942117 -235.234493 -317.316108 -235.234493 -207.194633 
C -235.234493 -97.073158 -191.482767 8.552851 -113.615126 86.420492 
C -35.747484 164.288134 69.878525 208.03986 180 208.03986 
L 180 208.03986 
z
" clip-path="url(#p3fb4505541)" style="fill: none; stroke-dasharray: 2.775,1.2; stroke-dashoffset: 0; stroke: #bf00bf; stroke-width: 0.75; stroke-linejoin: miter"/>
   </g>
   <g id="patch_22">
    <path d="M 180 193.899547 
C 396.492895 193.899547 604.147946 107.886008 757.23154 -45.197586 
C 910.315134 -198.28118 996.328673 -405.936231 996.328673 -622.429126 
C 996.328673 -838.92202 910.315134 -1046.577072 757.23154 -1199.660666 
C 604.147946 -1352.74426 396.492895 -1438.757799 180 -1438.757799 
C -36.492895 -1438.757799 -244.147946 -1352.74426 -397.23154 -1199.660666 
C -550.315134 -1046.577072 -636.328673 -838.92202 -636.328673 -622.429126 
C -636.328673 -405.936231 -550.315134 -198.28118 -397.23154 -45.197586 
C -244.147946 107.886008 -36.492895 193.899547 180 193.899547 
L 180 193.899547 
z
" clip-path="url(#p3fb4505541)" style="fill: none; stroke-dasharray: 2.775,1.2; stroke-dashoffset: 0; stroke: #bf00bf; stroke-width: 0.75; stroke-linejoin: miter"/>
   </g>
   <g id="patch_23">
    <path d="M 136.801157 104.095165 
Q 182.51387 88.190935 227.169198 104.388235 
L 227.765914 102.743112 
Q 231.202488 105.054125 234.531974 107.551589 
Q 230.420832 106.896595 226.401991 106.503393 
L 226.998707 104.85827 
Q 182.510384 88.721545 136.965455 104.5674 
L 136.801157 104.095165 
z
" clip-path="url(#p3fb4505541)" style="stroke: #000000; stroke-linecap: round"/>
   </g>
   <g id="patch_24">
    <path d="M 136.965455 255.4326 
Q 182.510384 271.278455 226.998707 255.14173 
L 226.401991 253.496607 
Q 230.420832 253.103405 234.531974 252.448411 
Q 231.202488 254.945875 227.765914 257.256888 
L 227.169198 255.611765 
Q 182.51387 271.809065 136.801157 255.904835 
L 136.965455 255.4326 
z
" clip-path="url(#p3fb4505541)" style="stroke: #000000; stroke-linecap: round"/>
   </g>
   <g id="line2d_1">
    <path d="M 361 180 
L -1 180 
" clip-path="url(#p3fb4505541)" style="fill: none; stroke-dasharray: 2.775,1.2; stroke-dashoffset: 0; stroke: #bf00bf; stroke-width: 0.75"/>
   </g>
   <g id="line2d_2">
    <path d="M -1 180 
L 361 180 
" clip-path="url(#p3fb4505541)" style="fill: none; stroke-dasharray: 2.775,1.2; stroke-dashoffset: 0; stroke: #bf00bf; stroke-width: 0.75"/>
   </g>
   <g id="line2d_3">
    <defs>
     <path id="ma2debc546a" d="M 0 3 
C 0.795609 3 1.55874 2.683901 2.12132 2.12132 
C 2.683901 1.55874 3 0.795609 3 0 
C 3 -0.795609 2.683901 -1.55874 2.12132 -2.12132 
C 1.55874 -2.683901 0.795609 -3 0 -3 
C -0.795609 -3 -1.55874 -2.683901 -2.12132 -2.12132 
C -2.683901 -1.55874 -3 -0.795609 -3 0 
C -3 0.795609 -2.683901 1.55874 -2.12132 2.12132 
C -1.55874 2.683901 -0.795609 3 0 3 
z
" style="stroke: #008000"/>
    </defs>
    <g clip-path="url(#p3fb4505541)">
     <use xlink:href="#ma2debc546a" x="330" y="180" style="fill: #008000; stroke: #008000"/>
    </g>
   </g>
   <g id="line2d_4">
    <defs>
     <path id="m59cffe916c" d="M 0 3 
C 0.795609 3 1.55874 2.683901 2.12132 2.12132 
C 2.683901 1.55874 3 0.795609 3 0 
C 3 -0.795609 2.683901 -1.55874 2.12132 -2.12132 
C 1.55874 -2.683901 0.795609 -3 0 -3 
C -0.795609 -3 -1.55874 -2.683901 -2.12132 -2.12132 
C -2.683901 -1.55874 -3 -0.795609 -3 0 
C -3 0.795609 -2.683901 1.55874 -2.12132 2.12132 
C -1.55874 2.683901 -0.795609 3 0 3 
z
" style="stroke: #0000ff"/>
    </defs>
    <g clip-path="url(#p3fb4505541)">
     <use xlink:href="#m59cffe916c" x="30" y="180" style="fill: #0000ff; stroke: #0000ff"/>
    </g>
   </g>
   <g id="text_1">
    <!-- $p_1$ -->
    <g transform="translate(337.5 180)scale(0.18 -0.18)">
     <defs>
      <path id="CMMI12-70" d="M 275 -789 
C 230 -980 205 -1031 -58 -1031 
C -134 -1031 -198 -1031 -198 -1152 
C -198 -1165 -192 -1216 -122 -1216 
C -38 -1216 51 -1216 134 -1216 
L 410 -1216 
C 544 -1216 870 -1216 1005 -1216 
C 1043 -1216 1120 -1216 1120 -1101 
C 1120 -1031 1075 -1031 966 -1031 
C 672 -1031 653 -987 653 -937 
C 653 -861 941 219 979 364 
C 1050 185 1222 -64 1555 -64 
C 2278 -64 3059 875 3059 1814 
C 3059 2401 2726 2816 2246 2816 
C 1837 2816 1491 2420 1421 2331 
C 1370 2650 1120 2816 864 2816 
C 678 2816 531 2727 410 2484 
C 294 2254 205 1865 205 1839 
C 205 1814 230 1782 275 1782 
C 326 1782 333 1788 371 1935 
C 467 2312 589 2689 845 2689 
C 992 2689 1043 2587 1043 2397 
C 1043 2245 1024 2181 998 2067 
L 275 -789 
z
M 1382 1993 
C 1427 2171 1606 2357 1709 2446 
C 1779 2510 1990 2689 2234 2689 
C 2515 2689 2643 2408 2643 2076 
C 2643 1769 2464 1047 2304 715 
C 2144 370 1850 64 1555 64 
C 1120 64 1050 613 1050 639 
C 1050 658 1062 709 1069 741 
L 1382 1993 
z
" transform="scale(0.015625)"/>
      <path id="CMR17-31" d="M 1702 4058 
C 1702 4192 1696 4192 1606 4192 
C 1357 3916 979 3827 621 3827 
C 602 3827 570 3827 563 3808 
C 557 3795 557 3782 557 3648 
C 755 3648 1088 3686 1344 3839 
L 1344 461 
C 1344 236 1331 160 781 160 
L 589 160 
L 589 0 
C 896 0 1216 0 1523 0 
C 1830 0 2150 0 2458 0 
L 2458 160 
L 2266 160 
C 1715 160 1702 230 1702 458 
L 1702 4058 
z
" transform="scale(0.015625)"/>
     </defs>
     <use xlink:href="#CMMI12-70" transform="scale(0.996264)"/>
     <use xlink:href="#CMR17-31" transform="translate(48.959514 -14.943915)scale(0.697382)"/>
    </g>
   </g>
   <g id="text_2">
    <!-- $p_2$ -->
    <g transform="translate(37.5 180)scale(0.18 -0.18)">
     <defs>
      <path id="CMR17-32" d="M 2669 989 
L 2554 989 
C 2490 536 2438 459 2413 420 
C 2381 369 1920 369 1830 369 
L 602 369 
C 832 619 1280 1072 1824 1597 
C 2214 1967 2669 2402 2669 3035 
C 2669 3790 2067 4224 1395 4224 
C 691 4224 262 3604 262 3030 
C 262 2780 448 2748 525 2748 
C 589 2748 781 2787 781 3010 
C 781 3207 614 3264 525 3264 
C 486 3264 448 3258 422 3245 
C 544 3790 915 4058 1306 4058 
C 1862 4058 2227 3617 2227 3035 
C 2227 2479 1901 2000 1536 1584 
L 262 146 
L 262 0 
L 2515 0 
L 2669 989 
z
" transform="scale(0.015625)"/>
     </defs>
     <use xlink:href="#CMMI12-70" transform="scale(0.996264)"/>
     <use xlink:href="#CMR17-32" transform="translate(48.959514 -14.943915)scale(0.697382)"/>
    </g>
   </g>
   <g id="text_3">
    <!-- $M$ -->
    <g transform="translate(180 90)scale(0.18 -0.18)">
     <defs>
      <path id="CMMI12-4d" d="M 5811 3886 
C 5869 4103 5882 4167 6336 4167 
C 6458 4167 6515 4167 6515 4288 
C 6515 4352 6470 4352 6349 4352 
L 5581 4352 
C 5421 4352 5414 4346 5344 4243 
L 3008 562 
L 2528 4211 
C 2509 4352 2502 4352 2336 4352 
L 1542 4352 
C 1421 4352 1363 4352 1363 4231 
C 1363 4167 1421 4167 1517 4167 
C 1907 4167 1907 4116 1907 4046 
C 1907 4034 1907 3995 1882 3899 
L 1062 634 
C 986 327 838 186 410 186 
C 390 186 314 186 314 73 
C 314 0 371 0 397 0 
C 525 0 851 0 979 0 
L 1286 0 
C 1376 0 1485 0 1574 0 
C 1619 0 1690 0 1690 122 
C 1690 180 1626 186 1600 186 
C 1389 186 1184 224 1184 454 
C 1184 518 1184 524 1210 613 
L 2093 4129 
L 2099 4129 
L 2630 172 
C 2650 19 2656 0 2714 0 
C 2784 0 2816 51 2848 109 
L 5421 4161 
L 5427 4161 
L 4499 473 
C 4442 250 4429 186 3981 186 
C 3859 186 3795 186 3795 70 
C 3795 0 3853 0 3891 0 
C 4000 0 4128 0 4237 0 
L 4992 0 
C 5101 0 5235 0 5344 0 
C 5395 0 5466 0 5466 122 
C 5466 186 5408 186 5312 186 
C 4922 186 4922 234 4922 294 
C 4922 301 4922 345 4934 396 
L 5811 3886 
z
" transform="scale(0.015625)"/>
     </defs>
     <use xlink:href="#CMMI12-4d" transform="scale(0.996264)"/>
    </g>
   </g>
  </g>
 </g>
 <defs>
  <clipPath id="p3fb4505541">
   <rect x="0" y="0" width="360" height="360"/>
  </clipPath>
 </defs>
</svg>
