<?xml version="1.0" encoding="utf-8" standalone="no"?>
<!DOCTYPE svg PUBLIC "-//W3C//DTD SVG 1.1//EN"
  "http://www.w3.org/Graphics/SVG/1.1/DTD/svg11.dtd">
<svg xmlns:xlink="http://www.w3.org/1999/xlink" width="360pt" height="360pt" viewBox="0 0 360 360" xmlns="http://www.w3.org/2000/svg" version="1.1">
 <metadata>
  <rdf:RDF xmlns:dc="http://purl.org/dc/elements/1.1/" xmlns:cc="http://creativecommons.org/ns#" xmlns:rdf="http://www.w3.org/1999/02/22-rdf-syntax-ns#">
   <cc:Work>
    <dc:type rdf:resource="http://purl.org/dc/dcmitype/StillImage"/>
    <dc:date>2022-04-03T21:05:47.614391</dc:date>
    <dc:format>image/svg+xml</dc:format>
    <dc:creator>
     <cc:Agent>
      <dc:title>Matplotlib v3.5.1, https://matplotlib.org/</dc:title>
     </cc:Agent>
    </dc:creator>
   </cc:Work>
  </rdf:RDF>
 </metadata>
 <defs>
  <style type="text/css">*{stroke-linejoin: round; stroke-linecap: butt}</style>
 </defs>
 <g id="figure_1">
  <g id="patch_1">
   <path d="M 0 360 
L 360 360 
L 360 0 
L 0 0 
z
" style="fill: #ffffff"/>
  </g>
  <g id="axes_1">
   <g id="patch_2">
    <path d="M 165 345 
C 204.780465 345 242.936981 329.195054 271.066017 301.066017 
C 299.195054 272.936981 315 234.780465 315 195 
C 315 155.219535 299.195054 117.063019 271.066017 88.933983 
C 242.936981 60.804946 204.780465 45 165 45 
C 125.219535 45 87.063019 60.804946 58.933983 88.933983 
C 30.804946 117.063019 15 155.219535 15 195 
C 15 234.780465 30.804946 272.936981 58.933983 301.066017 
C 87.063019 329.195054 125.219535 345 165 345 
L 165 345 
z
" clip-path="url(#p8e559f3853)" style="fill: none; stroke: #000000; stroke-width: 2; stroke-linejoin: miter"/>
   </g>
   <g id="patch_3">
    <path d="M 168.55694 331.725317 
C 206.450782 331.725317 242.797692 316.669934 269.592684 289.874942 
C 296.387677 263.07995 311.44306 226.73304 311.44306 188.839198 
C 311.44306 150.945357 296.387677 114.598447 269.592684 87.803455 
C 242.797692 61.008462 206.450782 45.953079 168.55694 45.953079 
C 130.663099 45.953079 94.316189 61.008462 67.521197 87.803455 
C 40.726204 114.598447 25.670821 150.945357 25.670821 188.839198 
C 25.670821 226.73304 40.726204 263.07995 67.521197 289.874942 
C 94.316189 316.669934 130.663099 331.725317 168.55694 331.725317 
z
" clip-path="url(#p8e559f3853)" style="fill: #8000ff; stroke: #000000; stroke-linejoin: miter"/>
   </g>
   <g id="patch_4">
    <path d="M 170.185382 325.647893 
C 207.215488 325.647893 242.733922 310.935675 268.918162 284.751436 
C 295.102401 258.567197 309.814618 223.048762 309.814618 186.018656 
C 309.814618 148.988549 295.102401 113.470115 268.918162 87.285875 
C 242.733922 61.101636 207.215488 46.389419 170.185382 46.389419 
C 133.155275 46.389419 97.636841 61.101636 71.452601 87.285875 
C 45.268362 113.470115 30.556145 148.988549 30.556145 186.018656 
C 30.556145 223.048762 45.268362 258.567197 71.452601 284.751436 
C 97.636841 310.935675 133.155275 325.647893 170.185382 325.647893 
z
" clip-path="url(#p8e559f3853)" style="fill: #6032fe; stroke: #000000; stroke-linejoin: miter"/>
   </g>
   <g id="patch_5">
    <path d="M 172.481287 317.079458 
C 208.293631 317.079458 242.644015 302.851063 267.967167 277.527911 
C 293.290318 252.20476 307.518713 217.854376 307.518713 182.042031 
C 307.518713 146.229687 293.290318 111.879303 267.967167 86.556151 
C 242.644015 61.233 208.293631 47.004605 172.481287 47.004605 
C 136.668943 47.004605 102.318558 61.233 76.995407 86.556151 
C 51.672255 111.879303 37.44386 146.229687 37.44386 182.042031 
C 37.44386 217.854376 51.672255 252.20476 76.995407 277.527911 
C 102.318558 302.851063 136.668943 317.079458 172.481287 317.079458 
z
" clip-path="url(#p8e559f3853)" style="fill: #4062fa; stroke: #000000; stroke-linejoin: miter"/>
   </g>
   <g id="patch_6">
    <path d="M 175.63883 305.295346 
C 209.776394 305.295346 242.520367 291.732349 266.65927 267.593446 
C 290.798172 243.454543 304.36117 210.71057 304.36117 176.573006 
C 304.36117 142.435442 290.798172 109.691469 266.65927 85.552566 
C 242.520367 61.413664 209.776394 47.850666 175.63883 47.850666 
C 141.501266 47.850666 108.757293 61.413664 84.61839 85.552566 
C 60.479487 109.691469 46.91649 142.435442 46.91649 176.573006 
C 46.91649 210.71057 60.479487 243.454543 84.61839 267.593446 
C 108.757293 291.732349 141.501266 305.295346 175.63883 305.295346 
z
" clip-path="url(#p8e559f3853)" style="fill: #208ef4; stroke: #000000; stroke-linejoin: miter"/>
   </g>
   <g id="patch_7">
    <path d="M 179.836208 289.630517 
C 211.747456 289.630517 242.355999 276.952043 264.920658 254.387383 
C 287.485318 231.822724 300.163792 201.214181 300.163792 169.302933 
C 300.163792 137.391685 287.485318 106.783143 264.920658 84.218483 
C 242.355999 61.653823 211.747456 48.97535 179.836208 48.97535 
C 147.92496 48.97535 117.316418 61.653823 94.751758 84.218483 
C 72.187098 106.783143 59.508625 137.391685 59.508625 169.302933 
C 59.508625 201.214181 72.187098 231.822724 94.751758 254.387383 
C 117.316418 276.952043 147.92496 289.630517 179.836208 289.630517 
z
" clip-path="url(#p8e559f3853)" style="fill: #00b5eb; stroke: #000000; stroke-linejoin: miter"/>
   </g>
   <g id="patch_8">
    <path d="M 185.170607 269.722271 
C 214.252457 269.722271 242.147105 258.16793 262.711078 237.603956 
C 283.275052 217.039983 294.829393 189.145335 294.829393 160.063485 
C 294.829393 130.981634 283.275052 103.086986 262.711078 82.523013 
C 242.147105 61.959039 214.252457 50.404698 185.170607 50.404698 
C 156.088756 50.404698 128.194108 61.959039 107.630135 82.523013 
C 87.066161 103.086986 75.51182 130.981634 75.51182 160.063485 
C 75.51182 189.145335 87.066161 217.039983 107.630135 237.603956 
C 128.194108 258.16793 156.088756 269.722271 185.170607 269.722271 
z
" clip-path="url(#p8e559f3853)" style="fill: #20d5e1; stroke: #000000; stroke-linejoin: miter"/>
   </g>
   <g id="patch_9">
    <path d="M 191.575777 245.81785 
C 217.260285 245.81785 241.89628 235.613287 260.05797 217.451597 
C 278.21966 199.289907 288.424223 174.653912 288.424223 148.969404 
C 288.424223 123.284896 278.21966 98.648901 260.05797 80.487211 
C 241.89628 62.325521 217.260285 52.120958 191.575777 52.120958 
C 165.891269 52.120958 141.255274 62.325521 123.093584 80.487211 
C 104.931894 98.648901 94.727331 123.284896 94.727331 148.969404 
C 94.727331 174.653912 104.931894 199.289907 123.093584 217.451597 
C 141.255274 235.613287 165.891269 245.81785 191.575777 245.81785 
z
" clip-path="url(#p8e559f3853)" style="fill: #40ecd4; stroke: #000000; stroke-linejoin: miter"/>
   </g>
   <g id="patch_10">
    <path d="M 198.76245 218.99682 
C 220.635102 218.99682 241.614852 210.306724 257.081152 194.840423 
C 272.547453 179.374122 281.23755 158.394373 281.23755 136.521721 
C 281.23755 114.649069 272.547453 93.669319 257.081152 78.203019 
C 241.614852 62.736718 220.635102 54.046621 198.76245 54.046621 
C 176.889798 54.046621 155.910049 62.736718 140.443748 78.203019 
C 124.977447 93.669319 116.287351 114.649069 116.287351 136.521721 
C 116.287351 158.394373 124.977447 179.374122 140.443748 194.840423 
C 155.910049 210.306724 176.889798 218.99682 198.76245 218.99682 
z
" clip-path="url(#p8e559f3853)" style="fill: #60fac5; stroke: #000000; stroke-linejoin: miter"/>
   </g>
   <g id="patch_11">
    <path d="M 206.23755 191.099369 
C 224.145363 191.099369 241.322129 183.984519 253.984865 171.321784 
C 266.647601 158.659048 273.76245 141.482281 273.76245 123.574469 
C 273.76245 105.666656 266.647601 88.48989 253.984865 75.827154 
C 241.322129 63.164418 224.145363 56.049568 206.23755 56.049568 
C 188.329737 56.049568 171.152971 63.164418 158.490235 75.827154 
C 145.827499 88.48989 138.712649 105.666656 138.712649 123.574469 
C 138.712649 141.482281 145.827499 158.659048 158.490235 171.321784 
C 171.152971 183.984519 188.329737 191.099369 206.23755 191.099369 
z
" clip-path="url(#p8e559f3853)" style="fill: #80ffb4; stroke: #000000; stroke-linejoin: miter"/>
   </g>
   <g id="patch_12">
    <path d="M 213.424223 164.27834 
C 227.52018 164.27834 241.040701 158.677957 251.008047 148.71061 
C 260.975394 138.743263 266.575777 125.222742 266.575777 111.126786 
C 266.575777 97.030829 260.975394 83.510308 251.008047 73.542961 
C 241.040701 63.575614 227.52018 57.975231 213.424223 57.975231 
C 199.328266 57.975231 185.807745 63.575614 175.840399 73.542961 
C 165.873052 83.510308 160.272669 97.030829 160.272669 111.126786 
C 160.272669 125.222742 165.873052 138.743263 175.840399 148.71061 
C 185.807745 158.677957 199.328266 164.27834 213.424223 164.27834 
z
" clip-path="url(#p8e559f3853)" style="fill: #a0faa1; stroke: #000000; stroke-linejoin: miter"/>
   </g>
   <g id="patch_13">
    <path d="M 219.829393 140.373918 
C 230.528008 140.373918 240.789876 136.123313 248.354939 128.55825 
C 255.920002 120.993187 260.170607 110.73132 260.170607 100.032705 
C 260.170607 89.33409 255.920002 79.072223 248.354939 71.507159 
C 240.789876 63.942096 230.528008 59.691492 219.829393 59.691492 
C 209.130779 59.691492 198.868911 63.942096 191.303848 71.507159 
C 183.738785 79.072223 179.48818 89.33409 179.48818 100.032705 
C 179.48818 110.73132 183.738785 120.993187 191.303848 128.55825 
C 198.868911 136.123313 209.130779 140.373918 219.829393 140.373918 
z
" clip-path="url(#p8e559f3853)" style="fill: #c0eb8d; stroke: #000000; stroke-linejoin: miter"/>
   </g>
   <g id="patch_14">
    <path d="M 225.163792 120.465673 
C 233.033009 120.465673 240.580982 117.3392 246.145359 111.774823 
C 251.709735 106.210447 254.836208 98.662473 254.836208 90.793256 
C 254.836208 82.924039 251.709735 75.376066 246.145359 69.811689 
C 240.580982 64.247312 233.033009 61.120839 225.163792 61.120839 
C 217.294575 61.120839 209.746601 64.247312 204.182225 69.811689 
C 198.617848 75.376066 195.491375 82.924039 195.491375 90.793256 
C 195.491375 98.662473 198.617848 106.210447 204.182225 111.774823 
C 209.746601 117.3392 217.294575 120.465673 225.163792 120.465673 
z
" clip-path="url(#p8e559f3853)" style="fill: #e0d377; stroke: #000000; stroke-linejoin: miter"/>
   </g>
   <g id="patch_15">
    <path d="M 229.36117 104.800843 
C 235.004071 104.800843 240.416614 102.558895 244.406748 98.568761 
C 248.396881 94.578627 250.63883 89.166085 250.63883 83.523183 
C 250.63883 77.880282 248.396881 72.46774 244.406748 68.477606 
C 240.416614 64.487472 235.004071 62.245524 229.36117 62.245524 
C 223.718269 62.245524 218.305726 64.487472 214.315593 68.477606 
C 210.325459 72.46774 208.08351 77.880282 208.08351 83.523183 
C 208.08351 89.166085 210.325459 94.578627 214.315593 98.568761 
C 218.305726 102.558895 223.718269 104.800843 229.36117 104.800843 
z
" clip-path="url(#p8e559f3853)" style="fill: #ffb360; stroke: #000000; stroke-linejoin: miter"/>
   </g>
   <g id="patch_16">
    <path d="M 232.518713 93.016731 
C 236.486834 93.016731 240.292965 91.44018 243.09885 88.634295 
C 245.904736 85.82841 247.481287 82.022279 247.481287 78.054158 
C 247.481287 74.086037 245.904736 70.279906 243.09885 67.474021 
C 240.292965 64.668136 236.486834 63.091585 232.518713 63.091585 
C 228.550592 63.091585 224.744461 64.668136 221.938576 67.474021 
C 219.132691 70.279906 217.55614 74.086037 217.55614 78.054158 
C 217.55614 82.022279 219.132691 85.82841 221.938576 88.634295 
C 224.744461 91.44018 228.550592 93.016731 232.518713 93.016731 
z
" clip-path="url(#p8e559f3853)" style="fill: #ff8c49; stroke: #000000; stroke-linejoin: miter"/>
   </g>
   <g id="patch_17">
    <path d="M 234.814618 84.448297 
C 237.564977 84.448297 240.203058 83.355568 242.147855 81.410771 
C 244.092653 79.465973 245.185382 76.827892 245.185382 74.077534 
C 245.185382 71.327175 244.092653 68.689094 242.147855 66.744297 
C 240.203058 64.7995 237.564977 63.706771 234.814618 63.706771 
C 232.06426 63.706771 229.426179 64.7995 227.481382 66.744297 
C 225.536584 68.689094 224.443855 71.327175 224.443855 74.077534 
C 224.443855 76.827892 225.536584 79.465973 227.481382 81.410771 
C 229.426179 83.355568 232.06426 84.448297 234.814618 84.448297 
z
" clip-path="url(#p8e559f3853)" style="fill: #ff5f30; stroke: #000000; stroke-linejoin: miter"/>
   </g>
   <g id="patch_18">
    <path d="M 236.44306 78.370872 
C 238.329683 78.370872 240.139289 77.621309 241.473333 76.287265 
C 242.807377 74.95322 243.55694 73.143614 243.55694 71.256991 
C 243.55694 69.370368 242.807377 67.560762 241.473333 66.226718 
C 240.139289 64.892673 238.329683 64.14311 236.44306 64.14311 
C 234.556436 64.14311 232.74683 64.892673 231.412786 66.226718 
C 230.078742 67.560762 229.329179 69.370368 229.329179 71.256991 
C 229.329179 73.143614 230.078742 74.95322 231.412786 76.287265 
C 232.74683 77.621309 234.556436 78.370872 236.44306 78.370872 
z
" clip-path="url(#p8e559f3853)" style="fill: #ff2f18; stroke: #000000; stroke-linejoin: miter"/>
   </g>
   <g id="patch_19">
    <path d="M 223.762024 74.471189 
C 228.734582 74.471189 233.504146 72.495571 237.020276 68.979442 
C 240.536405 65.463312 242.512024 60.693748 242.512024 55.721189 
C 242.512024 50.748631 240.536405 45.979067 237.020276 42.462937 
C 233.504146 38.946808 228.734582 36.971189 223.762024 36.971189 
C 218.789466 36.971189 214.019901 38.946808 210.503772 42.462937 
C 206.987642 45.979067 205.012024 50.748631 205.012024 55.721189 
C 205.012024 60.693748 206.987642 65.463312 210.503772 68.979442 
C 214.019901 72.495571 218.789466 74.471189 223.762024 74.471189 
L 223.762024 74.471189 
z
" clip-path="url(#p8e559f3853)" style="fill: none; stroke-dasharray: 3.7,1.6; stroke-dashoffset: 0; stroke: #bf00bf; stroke-linejoin: miter"/>
   </g>
   <g id="patch_20">
    <path d="M 221.442313 75.810475 
C 227.125236 75.810475 232.576167 73.552626 236.594601 69.534192 
C 240.613035 65.515758 242.870884 60.064827 242.870884 54.381904 
C 242.870884 48.69898 240.613035 43.248049 236.594601 39.229616 
C 232.576167 35.211182 227.125236 32.953332 221.442313 32.953332 
C 215.759389 32.953332 210.308458 35.211182 206.290025 39.229616 
C 202.271591 43.248049 200.013741 48.69898 200.013741 54.381904 
C 200.013741 60.064827 202.271591 65.515758 206.290025 69.534192 
C 210.308458 73.552626 215.759389 75.810475 221.442313 75.810475 
L 221.442313 75.810475 
z
" clip-path="url(#p8e559f3853)" style="fill: none; stroke-dasharray: 3.7,1.6; stroke-dashoffset: 0; stroke: #bf00bf; stroke-linejoin: miter"/>
   </g>
   <g id="patch_21">
    <path d="M 218.349365 77.596189 
C 224.979442 77.596189 231.338862 74.962032 236.027034 70.273859 
C 240.715207 65.585686 243.349365 59.226267 243.349365 52.596189 
C 243.349365 45.966112 240.715207 39.606693 236.027034 34.91852 
C 231.338862 30.230347 224.979442 27.596189 218.349365 27.596189 
C 211.719287 27.596189 205.359868 30.230347 200.671695 34.91852 
C 195.983523 39.606693 193.349365 45.966112 193.349365 52.596189 
C 193.349365 59.226267 195.983523 65.585686 200.671695 70.273859 
C 205.359868 74.962032 211.719287 77.596189 218.349365 77.596189 
L 218.349365 77.596189 
z
" clip-path="url(#p8e559f3853)" style="fill: none; stroke-dasharray: 3.7,1.6; stroke-dashoffset: 0; stroke: #bf00bf; stroke-linejoin: miter"/>
   </g>
   <g id="patch_22">
    <path d="M 214.019238 80.096189 
C 221.975331 80.096189 229.606634 76.9352 235.232441 71.309393 
C 240.858249 65.683586 244.019238 58.052282 244.019238 50.096189 
C 244.019238 42.140096 240.858249 34.508793 235.232441 28.882986 
C 229.606634 23.257179 221.975331 20.096189 214.019238 20.096189 
C 206.063145 20.096189 198.431842 23.257179 192.806034 28.882986 
C 187.180227 34.508793 184.019238 42.140096 184.019238 50.096189 
C 184.019238 58.052282 187.180227 65.683586 192.806034 71.309393 
C 198.431842 76.9352 206.063145 80.096189 214.019238 80.096189 
L 214.019238 80.096189 
z
" clip-path="url(#p8e559f3853)" style="fill: none; stroke-dasharray: 3.7,1.6; stroke-dashoffset: 0; stroke: #bf00bf; stroke-linejoin: miter"/>
   </g>
   <g id="patch_23">
    <path d="M 207.524047 83.846189 
C 217.469164 83.846189 227.008293 79.894953 234.040552 72.862694 
C 241.072811 65.830435 245.024047 56.291306 245.024047 46.346189 
C 245.024047 36.401073 241.072811 26.861944 234.040552 19.829685 
C 227.008293 12.797426 217.469164 8.846189 207.524047 8.846189 
C 197.578931 8.846189 188.039802 12.797426 181.007543 19.829685 
C 173.975284 26.861944 170.024047 36.401073 170.024047 46.346189 
C 170.024047 56.291306 173.975284 65.830435 181.007543 72.862694 
C 188.039802 79.894953 197.578931 83.846189 207.524047 83.846189 
L 207.524047 83.846189 
z
" clip-path="url(#p8e559f3853)" style="fill: none; stroke-dasharray: 3.7,1.6; stroke-dashoffset: 0; stroke: #bf00bf; stroke-linejoin: miter"/>
   </g>
   <g id="patch_24">
    <path d="M 196.69873 90.096189 
C 209.958885 90.096189 222.677723 84.827874 232.054069 75.451528 
C 241.430414 66.075183 246.69873 53.356344 246.69873 40.096189 
C 246.69873 26.836034 241.430414 14.117196 232.054069 4.74085 
C 222.677723 -4.635495 209.958885 -9.903811 196.69873 -9.903811 
C 183.438575 -9.903811 170.719736 -4.635495 161.343391 4.74085 
C 151.967045 14.117196 146.69873 26.836034 146.69873 40.096189 
C 146.69873 53.356344 151.967045 66.075183 161.343391 75.451528 
C 170.719736 84.827874 183.438575 90.096189 196.69873 90.096189 
L 196.69873 90.096189 
z
" clip-path="url(#p8e559f3853)" style="fill: none; stroke-dasharray: 3.7,1.6; stroke-dashoffset: 0; stroke: #bf00bf; stroke-linejoin: miter"/>
   </g>
   <g id="patch_25">
    <path d="M 175.048095 102.596189 
C 194.938327 102.596189 214.016585 94.693716 228.081103 80.629198 
C 242.145622 66.56468 250.048095 47.486422 250.048095 27.596189 
C 250.048095 7.705957 242.145622 -11.372301 228.081103 -25.436819 
C 214.016585 -39.501337 194.938327 -47.403811 175.048095 -47.403811 
C 155.157862 -47.403811 136.079604 -39.501337 122.015086 -25.436819 
C 107.950568 -11.372301 100.048095 7.705957 100.048095 27.596189 
C 100.048095 47.486422 107.950568 66.56468 122.015086 80.629198 
C 136.079604 94.693716 155.157862 102.596189 175.048095 102.596189 
L 175.048095 102.596189 
z
" clip-path="url(#p8e559f3853)" style="fill: none; stroke-dasharray: 3.7,1.6; stroke-dashoffset: 0; stroke: #bf00bf; stroke-linejoin: miter"/>
   </g>
   <g id="patch_26">
    <path d="M 110.096189 140.096189 
C 149.876654 140.096189 188.03317 124.291243 216.162207 96.162207 
C 244.291243 68.03317 260.096189 29.876654 260.096189 -9.903811 
C 260.096189 -49.684276 244.291243 -87.840791 216.162207 -115.969828 
C 188.03317 -144.098864 149.876654 -159.903811 110.096189 -159.903811 
C 70.315724 -159.903811 32.159209 -144.098864 4.030172 -115.969828 
C -24.098864 -87.840791 -39.903811 -49.684276 -39.903811 -9.903811 
C -39.903811 29.876654 -24.098864 68.03317 4.030172 96.162207 
C 32.159209 124.291243 70.315724 140.096189 110.096189 140.096189 
L 110.096189 140.096189 
z
" clip-path="url(#p8e559f3853)" style="fill: none; stroke-dasharray: 3.7,1.6; stroke-dashoffset: 0; stroke: #bf00bf; stroke-linejoin: miter"/>
   </g>
   <g id="patch_27">
    <path d="M 369.903811 290.096189 
C 409.684276 290.096189 447.840791 274.291243 475.969828 246.162207 
C 504.098864 218.03317 519.903811 179.876654 519.903811 140.096189 
C 519.903811 100.315724 504.098864 62.159209 475.969828 34.030172 
C 447.840791 5.901136 409.684276 -9.903811 369.903811 -9.903811 
C 330.123346 -9.903811 291.96683 5.901136 263.837793 34.030172 
C 235.708757 62.159209 219.903811 100.315724 219.903811 140.096189 
C 219.903811 179.876654 235.708757 218.03317 263.837793 246.162207 
C 291.96683 274.291243 330.123346 290.096189 369.903811 290.096189 
" clip-path="url(#p8e559f3853)" style="fill: none; stroke-dasharray: 3.7,1.6; stroke-dashoffset: 0; stroke: #bf00bf; stroke-linejoin: miter"/>
   </g>
   <g id="patch_28">
    <path d="M 304.951905 177.596189 
C 324.842138 177.596189 343.920396 169.693716 357.984914 155.629198 
C 372.049432 141.56468 379.951905 122.486422 379.951905 102.596189 
C 379.951905 82.705957 372.049432 63.627699 357.984914 49.563181 
C 343.920396 35.498663 324.842138 27.596189 304.951905 27.596189 
C 285.061673 27.596189 265.983415 35.498663 251.918897 49.563181 
C 237.854378 63.627699 229.951905 82.705957 229.951905 102.596189 
C 229.951905 122.486422 237.854378 141.56468 251.918897 155.629198 
C 265.983415 169.693716 285.061673 177.596189 304.951905 177.596189 
L 304.951905 177.596189 
z
" clip-path="url(#p8e559f3853)" style="fill: none; stroke-dasharray: 3.7,1.6; stroke-dashoffset: 0; stroke: #bf00bf; stroke-linejoin: miter"/>
   </g>
   <g id="patch_29">
    <path d="M 283.30127 140.096189 
C 296.561425 140.096189 309.280264 134.827874 318.656609 125.451528 
C 328.032955 116.075183 333.30127 103.356344 333.30127 90.096189 
C 333.30127 76.836034 328.032955 64.117196 318.656609 54.74085 
C 309.280264 45.364505 296.561425 40.096189 283.30127 40.096189 
C 270.041115 40.096189 257.322277 45.364505 247.945931 54.74085 
C 238.569586 64.117196 233.30127 76.836034 233.30127 90.096189 
C 233.30127 103.356344 238.569586 116.075183 247.945931 125.451528 
C 257.322277 134.827874 270.041115 140.096189 283.30127 140.096189 
L 283.30127 140.096189 
z
" clip-path="url(#p8e559f3853)" style="fill: none; stroke-dasharray: 3.7,1.6; stroke-dashoffset: 0; stroke: #bf00bf; stroke-linejoin: miter"/>
   </g>
   <g id="patch_30">
    <path d="M 272.475953 121.346189 
C 282.421069 121.346189 291.960198 117.394953 298.992457 110.362694 
C 306.024716 103.330435 309.975953 93.791306 309.975953 83.846189 
C 309.975953 73.901073 306.024716 64.361944 298.992457 57.329685 
C 291.960198 50.297426 282.421069 46.346189 272.475953 46.346189 
C 262.530836 46.346189 252.991707 50.297426 245.959448 57.329685 
C 238.927189 64.361944 234.975953 73.901073 234.975953 83.846189 
C 234.975953 93.791306 238.927189 103.330435 245.959448 110.362694 
C 252.991707 117.394953 262.530836 121.346189 272.475953 121.346189 
L 272.475953 121.346189 
z
" clip-path="url(#p8e559f3853)" style="fill: none; stroke-dasharray: 3.7,1.6; stroke-dashoffset: 0; stroke: #bf00bf; stroke-linejoin: miter"/>
   </g>
   <g id="patch_31">
    <path d="M 265.980762 110.096189 
C 273.936855 110.096189 281.568158 106.9352 287.193966 101.309393 
C 292.819773 95.683586 295.980762 88.052282 295.980762 80.096189 
C 295.980762 72.140096 292.819773 64.508793 287.193966 58.882986 
C 281.568158 53.257179 273.936855 50.096189 265.980762 50.096189 
C 258.024669 50.096189 250.393366 53.257179 244.767559 58.882986 
C 239.141751 64.508793 235.980762 72.140096 235.980762 80.096189 
C 235.980762 88.052282 239.141751 95.683586 244.767559 101.309393 
C 250.393366 106.9352 258.024669 110.096189 265.980762 110.096189 
L 265.980762 110.096189 
z
" clip-path="url(#p8e559f3853)" style="fill: none; stroke-dasharray: 3.7,1.6; stroke-dashoffset: 0; stroke: #bf00bf; stroke-linejoin: miter"/>
   </g>
   <g id="patch_32">
    <path d="M 261.650635 102.596189 
C 268.280713 102.596189 274.640132 99.962032 279.328305 95.273859 
C 284.016477 90.585686 286.650635 84.226267 286.650635 77.596189 
C 286.650635 70.966112 284.016477 64.606693 279.328305 59.91852 
C 274.640132 55.230347 268.280713 52.596189 261.650635 52.596189 
C 255.020558 52.596189 248.661138 55.230347 243.972966 59.91852 
C 239.284793 64.606693 236.650635 70.966112 236.650635 77.596189 
C 236.650635 84.226267 239.284793 90.585686 243.972966 95.273859 
C 248.661138 99.962032 255.020558 102.596189 261.650635 102.596189 
L 261.650635 102.596189 
z
" clip-path="url(#p8e559f3853)" style="fill: none; stroke-dasharray: 3.7,1.6; stroke-dashoffset: 0; stroke: #bf00bf; stroke-linejoin: miter"/>
   </g>
   <g id="patch_33">
    <path d="M 258.557687 97.239047 
C 264.240611 97.239047 269.691542 94.981197 273.709975 90.962763 
C 277.728409 86.94433 279.986259 81.493399 279.986259 75.810475 
C 279.986259 70.127552 277.728409 64.676621 273.709975 60.658187 
C 269.691542 56.639753 264.240611 54.381904 258.557687 54.381904 
C 252.874764 54.381904 247.423833 56.639753 243.405399 60.658187 
C 239.386965 64.676621 237.129116 70.127552 237.129116 75.810475 
C 237.129116 81.493399 239.386965 86.94433 243.405399 90.962763 
C 247.423833 94.981197 252.874764 97.239047 258.557687 97.239047 
L 258.557687 97.239047 
z
" clip-path="url(#p8e559f3853)" style="fill: none; stroke-dasharray: 3.7,1.6; stroke-dashoffset: 0; stroke: #bf00bf; stroke-linejoin: miter"/>
   </g>
   <g id="patch_34">
    <path d="M 83.074651 166.933917 
Q 95.025173 236.277023 160.012414 256.996532 
L 160.543993 255.329222 
Q 163.942946 257.463193 167.617694 259.465695 
Q 163.434789 259.398954 159.328955 259.140217 
L 159.860534 257.472907 
Q 94.584005 236.661165 82.581915 167.018835 
L 83.074651 166.933917 
z
" clip-path="url(#p8e559f3853)" style="stroke: #000000; stroke-linecap: round"/>
   </g>
   <g id="line2d_1">
    <path d="M 278.160653 -1 
L 69.159855 361 
" clip-path="url(#p8e559f3853)" style="fill: none; stroke-dasharray: 5.55,2.4; stroke-dashoffset: 0; stroke: #bf00bf; stroke-width: 1.5"/>
   </g>
   <g id="line2d_2">
    <defs>
     <path id="m5cb07606c3" d="M 0 3 
C 0.795609 3 1.55874 2.683901 2.12132 2.12132 
C 2.683901 1.55874 3 0.795609 3 0 
C 3 -0.795609 2.683901 -1.55874 2.12132 -2.12132 
C 1.55874 -2.683901 0.795609 -3 0 -3 
C -0.795609 -3 -1.55874 -2.683901 -2.12132 -2.12132 
C -2.683901 -1.55874 -3 -0.795609 -3 0 
C -3 0.795609 -2.683901 1.55874 -2.12132 2.12132 
C -1.55874 2.683901 -0.795609 3 0 3 
z
" style="stroke: #008000"/>
    </defs>
    <g clip-path="url(#p8e559f3853)">
     <use xlink:href="#m5cb07606c3" x="240" y="65.096189" style="fill: #008000; stroke: #008000"/>
    </g>
   </g>
   <g id="text_1">
    <!-- $p$ -->
    <g transform="translate(247.5 65.096189)scale(0.2 -0.2)">
     <defs>
      <path id="CMMI12-70" d="M 275 -789 
C 230 -980 205 -1031 -58 -1031 
C -134 -1031 -198 -1031 -198 -1152 
C -198 -1165 -192 -1216 -122 -1216 
C -38 -1216 51 -1216 134 -1216 
L 410 -1216 
C 544 -1216 870 -1216 1005 -1216 
C 1043 -1216 1120 -1216 1120 -1101 
C 1120 -1031 1075 -1031 966 -1031 
C 672 -1031 653 -987 653 -937 
C 653 -861 941 219 979 364 
C 1050 185 1222 -64 1555 -64 
C 2278 -64 3059 875 3059 1814 
C 3059 2401 2726 2816 2246 2816 
C 1837 2816 1491 2420 1421 2331 
C 1370 2650 1120 2816 864 2816 
C 678 2816 531 2727 410 2484 
C 294 2254 205 1865 205 1839 
C 205 1814 230 1782 275 1782 
C 326 1782 333 1788 371 1935 
C 467 2312 589 2689 845 2689 
C 992 2689 1043 2587 1043 2397 
C 1043 2245 1024 2181 998 2067 
L 275 -789 
z
M 1382 1993 
C 1427 2171 1606 2357 1709 2446 
C 1779 2510 1990 2689 2234 2689 
C 2515 2689 2643 2408 2643 2076 
C 2643 1769 2464 1047 2304 715 
C 2144 370 1850 64 1555 64 
C 1120 64 1050 613 1050 639 
C 1050 658 1062 709 1069 741 
L 1382 1993 
z
" transform="scale(0.015625)"/>
     </defs>
     <use xlink:href="#CMMI12-70" transform="scale(0.996264)"/>
    </g>
   </g>
   <g id="text_2">
    <!-- $M$ -->
    <g transform="translate(120 225)scale(0.2 -0.2)">
     <defs>
      <path id="CMMI12-4d" d="M 5811 3886 
C 5869 4103 5882 4167 6336 4167 
C 6458 4167 6515 4167 6515 4288 
C 6515 4352 6470 4352 6349 4352 
L 5581 4352 
C 5421 4352 5414 4346 5344 4243 
L 3008 562 
L 2528 4211 
C 2509 4352 2502 4352 2336 4352 
L 1542 4352 
C 1421 4352 1363 4352 1363 4231 
C 1363 4167 1421 4167 1517 4167 
C 1907 4167 1907 4116 1907 4046 
C 1907 4034 1907 3995 1882 3899 
L 1062 634 
C 986 327 838 186 410 186 
C 390 186 314 186 314 73 
C 314 0 371 0 397 0 
C 525 0 851 0 979 0 
L 1286 0 
C 1376 0 1485 0 1574 0 
C 1619 0 1690 0 1690 122 
C 1690 180 1626 186 1600 186 
C 1389 186 1184 224 1184 454 
C 1184 518 1184 524 1210 613 
L 2093 4129 
L 2099 4129 
L 2630 172 
C 2650 19 2656 0 2714 0 
C 2784 0 2816 51 2848 109 
L 5421 4161 
L 5427 4161 
L 4499 473 
C 4442 250 4429 186 3981 186 
C 3859 186 3795 186 3795 70 
C 3795 0 3853 0 3891 0 
C 4000 0 4128 0 4237 0 
L 4992 0 
C 5101 0 5235 0 5344 0 
C 5395 0 5466 0 5466 122 
C 5466 186 5408 186 5312 186 
C 4922 186 4922 234 4922 294 
C 4922 301 4922 345 4934 396 
L 5811 3886 
z
" transform="scale(0.015625)"/>
     </defs>
     <use xlink:href="#CMMI12-4d" transform="scale(0.996264)"/>
    </g>
   </g>
  </g>
 </g>
 <defs>
  <clipPath id="p8e559f3853">
   <rect x="0" y="0" width="360" height="360"/>
  </clipPath>
 </defs>
</svg>
