<?xml version="1.0" encoding="UTF-8"?>
<svg xmlns="http://www.w3.org/2000/svg" xmlns:xlink="http://www.w3.org/1999/xlink" width="200pt" height="200pt" viewBox="0 0 200 200" version="1.1">
<g id="surface1">
<path style=" stroke:none;fill-rule:nonzero;fill:rgb(80.076599%,80.076599%,80.076599%);fill-opacity:1;" d="M 190 100 C 190 50.296875 149.703125 10 100 10 C 50.292969 10 10 50.296875 10 100 C 10 149.707031 50.292969 190 100 190 C 149.703125 190 190 149.707031 190 100 "/>
<path style="fill-rule:nonzero;fill:rgb(100%,100%,0%);fill-opacity:1;stroke-width:10;stroke-linecap:butt;stroke-linejoin:miter;stroke:rgb(0%,0%,0%);stroke-opacity:1;stroke-miterlimit:10;" d="M 1000 1900 C 1000 1343.085938 702.890625 828.476562 220.585938 550 C 702.890625 828.476562 1297.109375 828.476562 1779.414062 550 C 1297.109375 828.476562 1000 1343.085938 1000 1900 " transform="matrix(0.1,0,0,-0.1,0,200)"/>
<path style="fill-rule:nonzero;fill:rgb(100%,59.959412%,0%);fill-opacity:1;stroke-width:10;stroke-linecap:butt;stroke-linejoin:miter;stroke:rgb(0%,0%,0%);stroke-opacity:1;stroke-miterlimit:10;" d="M 1000 1540 C 916.875 1234.0625 755.742188 954.960938 532.34375 730 C 838.867188 810.976562 1161.132812 810.976562 1467.65625 730 C 1244.257812 954.960938 1083.125 1234.0625 1000 1540 " transform="matrix(0.1,0,0,-0.1,0,200)"/>
<path style="fill-rule:nonzero;fill:rgb(100%,39.988708%,0%);fill-opacity:1;stroke-width:10;stroke-linecap:butt;stroke-linejoin:miter;stroke:rgb(0%,0%,0%);stroke-opacity:1;stroke-miterlimit:10;" d="M 1000 1360 C 919.492188 1167.460938 814.726562 985.976562 688.242188 820 C 895.234375 846.5625 1104.765625 846.5625 1311.757812 820 C 1185.273438 985.976562 1080.507812 1167.460938 1000 1360 " transform="matrix(0.1,0,0,-0.1,0,200)"/>
<path style="fill-rule:nonzero;fill:rgb(100%,19.993591%,0%);fill-opacity:1;stroke-width:10;stroke-linecap:butt;stroke-linejoin:miter;stroke:rgb(0%,0%,0%);stroke-opacity:1;stroke-miterlimit:10;" d="M 1000 1180 C 951.09375 1088.242188 899.101562 998.203125 844.101562 910 C 948.007812 913.515625 1051.992188 913.515625 1155.898438 910 C 1100.898438 998.203125 1048.90625 1088.242188 1000 1180 " transform="matrix(0.1,0,0,-0.1,0,200)"/>
<path style="fill-rule:nonzero;fill:rgb(100%,10.009766%,0%);fill-opacity:1;stroke-width:10;stroke-linecap:butt;stroke-linejoin:miter;stroke:rgb(0%,0%,0%);stroke-opacity:1;stroke-miterlimit:10;" d="M 1000 1090 C 974.414062 1044.765625 948.4375 999.765625 922.070312 955 C 974.023438 955.429688 1025.976562 955.429688 1077.929688 955 C 1051.5625 999.765625 1025.585938 1044.765625 1000 1090 " transform="matrix(0.1,0,0,-0.1,0,200)"/>
<path style="fill:none;stroke-width:10;stroke-linecap:butt;stroke-linejoin:miter;stroke:rgb(0%,0%,0%);stroke-opacity:1;stroke-miterlimit:10;" d="M 1900 1000 C 1900 1497.03125 1497.03125 1900 1000 1900 C 502.929688 1900 100 1497.03125 100 1000 C 100 502.929688 502.929688 100 1000 100 C 1497.03125 100 1900 502.929688 1900 1000 Z M 1900 1000 " transform="matrix(0.1,0,0,-0.1,0,200)"/>
</g>
</svg>
