<?xml version="1.0" encoding="UTF-8"?>
<svg xmlns="http://www.w3.org/2000/svg" xmlns:xlink="http://www.w3.org/1999/xlink" width="200pt" height="200pt" viewBox="0 0 200 200" version="1.1">
<g id="surface1">
<path style="fill:none;stroke-width:10;stroke-linecap:butt;stroke-linejoin:miter;stroke:rgb(0%,0%,0%);stroke-opacity:1;stroke-miterlimit:10;" d="M 1539.101562 1720.664062 C 1188.4375 1251.914062 992.617188 685.507812 978.90625 100.234375 " transform="matrix(0.1,0,0,-0.1,0,200)"/>
<path style=" stroke:none;fill-rule:nonzero;fill:rgb(100%,19.993591%,19.993591%);fill-opacity:1;" d="M 153.910156 27.933594 C 118.84375 74.808594 99.261719 131.449219 97.890625 189.976562 C 48.199219 188.808594 8.859375 147.582031 10.023438 97.890625 C 11.191406 48.199219 52.417969 8.859375 102.109375 10.023438 C 120.820312 10.464844 138.925781 16.722656 153.910156 27.933594 "/>
<path style="fill:none;stroke-width:10;stroke-linecap:butt;stroke-linejoin:miter;stroke:rgb(0%,0%,0%);stroke-opacity:1;stroke-miterlimit:10;" d="M 1539.101562 1720.664062 C 1188.4375 1251.914062 992.617188 685.507812 978.90625 100.234375 C 481.992188 111.914062 88.59375 524.179688 100.234375 1021.09375 C 111.914062 1518.007812 524.179688 1911.40625 1021.09375 1899.765625 C 1208.203125 1895.351562 1389.257812 1832.773438 1539.101562 1720.664062 Z M 1539.101562 1720.664062 " transform="matrix(0.1,0,0,-0.1,0,200)"/>
<path style=" stroke:none;fill-rule:nonzero;fill:rgb(19.993591%,39.988708%,100%);fill-opacity:1;" d="M 153.910156 27.933594 C 118.84375 74.808594 99.261719 131.449219 97.890625 189.976562 C 147.582031 191.140625 188.808594 151.800781 189.976562 102.109375 C 190.65625 73.007812 177.222656 45.371094 153.910156 27.933594 "/>
<path style="fill:none;stroke-width:10;stroke-linecap:butt;stroke-linejoin:miter;stroke:rgb(0%,0%,0%);stroke-opacity:1;stroke-miterlimit:10;" d="M 1539.101562 1720.664062 C 1188.4375 1251.914062 992.617188 685.507812 978.90625 100.234375 C 1475.820312 88.59375 1888.085938 481.992188 1899.765625 978.90625 C 1906.5625 1269.921875 1772.226562 1546.289062 1539.101562 1720.664062 Z M 1539.101562 1720.664062 " transform="matrix(0.1,0,0,-0.1,0,200)"/>
<path style="fill:none;stroke-width:5;stroke-linecap:butt;stroke-linejoin:miter;stroke:rgb(0%,0%,0%);stroke-opacity:1;stroke-miterlimit:10;" d="M 1090 1450 C 903.90625 1227.304688 651.71875 1069.6875 370 1000 C 567.8125 951.25 752.304688 859.023438 910 730 C 974.140625 968.945312 1034.140625 1208.984375 1090 1450 " transform="matrix(0.1,0,0,-0.1,0,200)"/>
<path style="fill:none;stroke-width:5;stroke-linecap:butt;stroke-linejoin:miter;stroke:rgb(0%,0%,0%);stroke-opacity:1;stroke-dasharray:40,20;stroke-miterlimit:10;" d="M 1492.617188 1239.140625 C 1433.789062 1025.625 1493.359375 796.914062 1648.90625 639.21875 C 1502.382812 685.898438 1346.210938 693.398438 1195.898438 661.015625 C 1242.109375 876.523438 1344.492188 1075.976562 1492.617188 1239.140625 " transform="matrix(0.1,0,0,-0.1,0,200)"/>
</g>
</svg>
