<?xml version="1.0" encoding="UTF-8"?>
<svg xmlns="http://www.w3.org/2000/svg" xmlns:xlink="http://www.w3.org/1999/xlink" width="200pt" height="200pt" viewBox="0 0 200 200" version="1.1">
<g id="surface1">
<path style=" stroke:none;fill-rule:nonzero;fill:rgb(80.076599%,80.076599%,80.076599%);fill-opacity:1;" d="M 190 100 C 190 50.296875 149.703125 10 100 10 C 50.292969 10 10 50.296875 10 100 C 10 149.707031 50.292969 190 100 190 C 149.703125 190 190 149.707031 190 100 "/>
<path style="fill:none;stroke-width:10;stroke-linecap:butt;stroke-linejoin:miter;stroke:rgb(0%,50%,100%);stroke-opacity:1;stroke-miterlimit:10;" d="M 1235.664062 131.40625 C 1086.601562 680.78125 1193.789062 1268.085938 1527.265625 1729.375 " transform="matrix(0.1,0,0,-0.1,0,200)"/>
<path style="fill:none;stroke-width:10;stroke-linecap:butt;stroke-linejoin:miter;stroke:rgb(100%,66.601562%,33.325195%);stroke-opacity:1;stroke-miterlimit:10;" d="M 100.9375 1040.898438 C 496.054688 1022.929688 830.976562 1328.671875 848.945312 1723.828125 C 851.40625 1777.890625 847.734375 1832.03125 837.96875 1885.3125 " transform="matrix(0.1,0,0,-0.1,0,200)"/>
<path style="fill:none;stroke-width:10;stroke-linecap:butt;stroke-linejoin:miter;stroke:rgb(100%,63.28125%,36.668396%);stroke-opacity:1;stroke-miterlimit:10;" d="M 101.015625 957.070312 C 514.21875 976.796875 833.203125 1327.773438 813.4375 1740.976562 C 811.25 1786.523438 804.921875 1831.796875 794.53125 1876.210938 " transform="matrix(0.1,0,0,-0.1,0,200)"/>
<path style="fill:none;stroke-width:10;stroke-linecap:butt;stroke-linejoin:miter;stroke:rgb(100%,59.959412%,39.988708%);stroke-opacity:1;stroke-miterlimit:10;" d="M 110.585938 862.460938 C 544.453125 929.53125 841.796875 1335.664062 774.6875 1769.53125 C 769.6875 1801.992188 762.65625 1834.0625 753.671875 1865.625 " transform="matrix(0.1,0,0,-0.1,0,200)"/>
<path style="fill:none;stroke-width:10;stroke-linecap:butt;stroke-linejoin:miter;stroke:rgb(100%,56.639099%,43.334961%);stroke-opacity:1;stroke-miterlimit:10;" d="M 133.632812 756.210938 C 589.804688 884.570312 855.546875 1358.4375 727.1875 1814.609375 C 723.476562 1827.734375 719.492188 1840.78125 715.15625 1853.710938 " transform="matrix(0.1,0,0,-0.1,0,200)"/>
<path style="fill:none;stroke-width:10;stroke-linecap:butt;stroke-linejoin:miter;stroke:rgb(100%,53.318787%,46.655273%);stroke-opacity:1;stroke-miterlimit:10;" d="M 175.898438 638.28125 C 637.34375 840.820312 858.59375 1369.921875 678.671875 1840.703125 " transform="matrix(0.1,0,0,-0.1,0,200)"/>
<path style="fill:none;stroke-width:10;stroke-linecap:butt;stroke-linejoin:miter;stroke:rgb(100%,50%,50%);stroke-opacity:1;stroke-miterlimit:10;" d="M 244.765625 510.507812 C 680.9375 793.203125 849.609375 1349.21875 644.023438 1826.601562 " transform="matrix(0.1,0,0,-0.1,0,200)"/>
<path style="fill:none;stroke-width:10;stroke-linecap:butt;stroke-linejoin:miter;stroke:rgb(100%,46.655273%,53.318787%);stroke-opacity:1;stroke-miterlimit:10;" d="M 349.492188 378.046875 C 737.5 749.0625 843.007812 1327.460938 610.976562 1811.5625 " transform="matrix(0.1,0,0,-0.1,0,200)"/>
<path style="fill:none;stroke-width:10;stroke-linecap:butt;stroke-linejoin:miter;stroke:rgb(100%,43.334961%,56.639099%);stroke-opacity:1;stroke-miterlimit:10;" d="M 499.6875 251.875 C 807.890625 712.734375 838.476562 1305.507812 579.335938 1795.625 " transform="matrix(0.1,0,0,-0.1,0,200)"/>
<path style="fill:none;stroke-width:10;stroke-linecap:butt;stroke-linejoin:miter;stroke:rgb(100%,39.988708%,59.959412%);stroke-opacity:1;stroke-miterlimit:10;" d="M 701.953125 150.78125 C 891.09375 689.765625 835.234375 1284.492188 548.945312 1778.828125 " transform="matrix(0.1,0,0,-0.1,0,200)"/>
<path style="fill:none;stroke-width:10;stroke-linecap:butt;stroke-linejoin:miter;stroke:rgb(100%,36.668396%,63.28125%);stroke-opacity:1;stroke-miterlimit:10;" d="M 953.203125 101.210938 C 983.632812 686.015625 832.1875 1265.898438 519.648438 1761.09375 " transform="matrix(0.1,0,0,-0.1,0,200)"/>
<path style=" stroke:none;fill-rule:nonzero;fill:rgb(0%,100%,50%);fill-opacity:1;" d="M 75.699219 64 C 75.699219 62.507812 74.492188 61.300781 73 61.300781 C 71.507812 61.300781 70.300781 62.507812 70.300781 64 C 70.300781 65.492188 71.507812 66.699219 73 66.699219 C 74.492188 66.699219 75.699219 65.492188 75.699219 64 "/>
<path style="fill:none;stroke-width:10;stroke-linecap:butt;stroke-linejoin:miter;stroke:rgb(0%,0%,0%);stroke-opacity:1;stroke-miterlimit:10;" d="M 756.992188 1360 C 756.992188 1374.921875 744.921875 1386.992188 730 1386.992188 C 715.078125 1386.992188 703.007812 1374.921875 703.007812 1360 C 703.007812 1345.078125 715.078125 1333.007812 730 1333.007812 C 744.921875 1333.007812 756.992188 1345.078125 756.992188 1360 Z M 756.992188 1360 " transform="matrix(0.1,0,0,-0.1,0,200)"/>
<path style="fill:none;stroke-width:10;stroke-linecap:butt;stroke-linejoin:miter;stroke:rgb(0%,0%,0%);stroke-opacity:1;stroke-miterlimit:10;" d="M 1900 1000 C 1900 1497.03125 1497.03125 1900 1000 1900 C 502.929688 1900 100 1497.03125 100 1000 C 100 502.929688 502.929688 100 1000 100 C 1497.03125 100 1900 502.929688 1900 1000 Z M 1900 1000 " transform="matrix(0.1,0,0,-0.1,0,200)"/>
</g>
</svg>
