<?xml version="1.0" encoding="UTF-8"?>
<svg xmlns="http://www.w3.org/2000/svg" xmlns:xlink="http://www.w3.org/1999/xlink" width="100pt" height="100pt" viewBox="0 0 100 100" version="1.1">
<g id="surface1">
<path style="fill:none;stroke-width:10;stroke-linecap:butt;stroke-linejoin:miter;stroke:rgb(0%,0%,0%);stroke-opacity:1;stroke-miterlimit:10;" d="M 500 900 L 153.59375 300 L 846.40625 300 Z M 500 900 " transform="matrix(0.1,0,0,-0.1,0,100)"/>
<path style=" stroke:none;fill-rule:nonzero;fill:rgb(100%,100%,0%);fill-opacity:1;" d="M 53.199219 10 C 53.199219 8.234375 51.765625 6.800781 50 6.800781 C 48.234375 6.800781 46.800781 8.234375 46.800781 10 C 46.800781 11.765625 48.234375 13.199219 50 13.199219 C 51.765625 13.199219 53.199219 11.765625 53.199219 10 "/>
<path style="fill:none;stroke-width:20;stroke-linecap:butt;stroke-linejoin:miter;stroke:rgb(0%,0%,0%);stroke-opacity:1;stroke-miterlimit:10;" d="M 531.992188 900 C 531.992188 917.65625 517.65625 931.992188 500 931.992188 C 482.34375 931.992188 468.007812 917.65625 468.007812 900 C 468.007812 882.34375 482.34375 868.007812 500 868.007812 C 517.65625 868.007812 531.992188 882.34375 531.992188 900 Z M 531.992188 900 " transform="matrix(0.1,0,0,-0.1,0,100)"/>
<path style=" stroke:none;fill-rule:nonzero;fill:rgb(100%,100%,0%);fill-opacity:1;" d="M 18.558594 70 C 18.558594 68.234375 17.125 66.800781 15.359375 66.800781 C 13.59375 66.800781 12.160156 68.234375 12.160156 70 C 12.160156 71.765625 13.59375 73.199219 15.359375 73.199219 C 17.125 73.199219 18.558594 71.765625 18.558594 70 "/>
<path style="fill:none;stroke-width:20;stroke-linecap:butt;stroke-linejoin:miter;stroke:rgb(0%,0%,0%);stroke-opacity:1;stroke-miterlimit:10;" d="M 185.585938 300 C 185.585938 317.65625 171.25 331.992188 153.59375 331.992188 C 135.9375 331.992188 121.601562 317.65625 121.601562 300 C 121.601562 282.34375 135.9375 268.007812 153.59375 268.007812 C 171.25 268.007812 185.585938 282.34375 185.585938 300 Z M 185.585938 300 " transform="matrix(0.1,0,0,-0.1,0,100)"/>
<path style=" stroke:none;fill-rule:nonzero;fill:rgb(100%,100%,0%);fill-opacity:1;" d="M 87.839844 70 C 87.839844 68.234375 86.40625 66.800781 84.640625 66.800781 C 82.875 66.800781 81.441406 68.234375 81.441406 70 C 81.441406 71.765625 82.875 73.199219 84.640625 73.199219 C 86.40625 73.199219 87.839844 71.765625 87.839844 70 "/>
<path style="fill:none;stroke-width:20;stroke-linecap:butt;stroke-linejoin:miter;stroke:rgb(0%,0%,0%);stroke-opacity:1;stroke-miterlimit:10;" d="M 878.398438 300 C 878.398438 317.65625 864.0625 331.992188 846.40625 331.992188 C 828.75 331.992188 814.414062 317.65625 814.414062 300 C 814.414062 282.34375 828.75 268.007812 846.40625 268.007812 C 864.0625 268.007812 878.398438 282.34375 878.398438 300 Z M 878.398438 300 " transform="matrix(0.1,0,0,-0.1,0,100)"/>
</g>
</svg>
