<?xml version="1.0" encoding="UTF-8"?>
<svg xmlns="http://www.w3.org/2000/svg" xmlns:xlink="http://www.w3.org/1999/xlink" width="100pt" height="100pt" viewBox="0 0 100 100" version="1.1">
<g id="surface1">
<path style="fill:none;stroke-width:10;stroke-linecap:butt;stroke-linejoin:miter;stroke:rgb(0%,0%,0%);stroke-opacity:1;stroke-miterlimit:10;" d="M 100 100 L 900 100 L 900 900 L 100 900 Z M 100 100 " transform="matrix(0.1,0,0,-0.1,0,100)"/>
<path style=" stroke:none;fill-rule:nonzero;fill:rgb(100%,100%,0%);fill-opacity:1;" d="M 16.398438 10 C 16.398438 6.464844 13.535156 3.601562 10 3.601562 C 6.464844 3.601562 3.601562 6.464844 3.601562 10 C 3.601562 13.535156 6.464844 16.398438 10 16.398438 C 13.535156 16.398438 16.398438 13.535156 16.398438 10 "/>
<path style="fill:none;stroke-width:20;stroke-linecap:butt;stroke-linejoin:miter;stroke:rgb(0%,0%,0%);stroke-opacity:1;stroke-miterlimit:10;" d="M 163.984375 900 C 163.984375 935.351562 135.351562 963.984375 100 963.984375 C 64.648438 963.984375 36.015625 935.351562 36.015625 900 C 36.015625 864.648438 64.648438 836.015625 100 836.015625 C 135.351562 836.015625 163.984375 864.648438 163.984375 900 Z M 163.984375 900 " transform="matrix(0.1,0,0,-0.1,0,100)"/>
<path style=" stroke:none;fill-rule:nonzero;fill:rgb(100%,100%,0%);fill-opacity:1;" d="M 96.398438 10 C 96.398438 6.464844 93.535156 3.601562 90 3.601562 C 86.464844 3.601562 83.601562 6.464844 83.601562 10 C 83.601562 13.535156 86.464844 16.398438 90 16.398438 C 93.535156 16.398438 96.398438 13.535156 96.398438 10 "/>
<path style="fill:none;stroke-width:20;stroke-linecap:butt;stroke-linejoin:miter;stroke:rgb(0%,0%,0%);stroke-opacity:1;stroke-miterlimit:10;" d="M 963.984375 900 C 963.984375 935.351562 935.351562 963.984375 900 963.984375 C 864.648438 963.984375 836.015625 935.351562 836.015625 900 C 836.015625 864.648438 864.648438 836.015625 900 836.015625 C 935.351562 836.015625 963.984375 864.648438 963.984375 900 Z M 963.984375 900 " transform="matrix(0.1,0,0,-0.1,0,100)"/>
<path style=" stroke:none;fill-rule:nonzero;fill:rgb(100%,100%,0%);fill-opacity:1;" d="M 96.398438 90 C 96.398438 86.464844 93.535156 83.601562 90 83.601562 C 86.464844 83.601562 83.601562 86.464844 83.601562 90 C 83.601562 93.535156 86.464844 96.398438 90 96.398438 C 93.535156 96.398438 96.398438 93.535156 96.398438 90 "/>
<path style="fill:none;stroke-width:20;stroke-linecap:butt;stroke-linejoin:miter;stroke:rgb(0%,0%,0%);stroke-opacity:1;stroke-miterlimit:10;" d="M 963.984375 100 C 963.984375 135.351562 935.351562 163.984375 900 163.984375 C 864.648438 163.984375 836.015625 135.351562 836.015625 100 C 836.015625 64.648438 864.648438 36.015625 900 36.015625 C 935.351562 36.015625 963.984375 64.648438 963.984375 100 Z M 963.984375 100 " transform="matrix(0.1,0,0,-0.1,0,100)"/>
<path style=" stroke:none;fill-rule:nonzero;fill:rgb(100%,100%,0%);fill-opacity:1;" d="M 16.398438 90 C 16.398438 86.464844 13.535156 83.601562 10 83.601562 C 6.464844 83.601562 3.601562 86.464844 3.601562 90 C 3.601562 93.535156 6.464844 96.398438 10 96.398438 C 13.535156 96.398438 16.398438 93.535156 16.398438 90 "/>
<path style="fill:none;stroke-width:20;stroke-linecap:butt;stroke-linejoin:miter;stroke:rgb(0%,0%,0%);stroke-opacity:1;stroke-miterlimit:10;" d="M 163.984375 100 C 163.984375 135.351562 135.351562 163.984375 100 163.984375 C 64.648438 163.984375 36.015625 135.351562 36.015625 100 C 36.015625 64.648438 64.648438 36.015625 100 36.015625 C 135.351562 36.015625 163.984375 64.648438 163.984375 100 Z M 163.984375 100 " transform="matrix(0.1,0,0,-0.1,0,100)"/>
</g>
</svg>
