<?xml version="1.0" encoding="UTF-8"?>
<svg xmlns="http://www.w3.org/2000/svg" xmlns:xlink="http://www.w3.org/1999/xlink" width="300pt" height="300pt" viewBox="0 0 300 300" version="1.1">
<g id="surface1">
<rect x="0" y="0" width="300" height="300" style="fill:rgb(100%,100%,100%);fill-opacity:1;stroke:none;"/>
<path style="fill-rule:nonzero;fill:rgb(67.8%,84.7%,100%);fill-opacity:1;stroke-width:0.12;stroke-linecap:round;stroke-linejoin:round;stroke:rgb(0%,0%,0%);stroke-opacity:1;stroke-miterlimit:10;" d="M 0.000000000000000888 0 L 0.866042 0.5 L 0.000000000000000888 1 L -0.866042 0.5 L 0.000000000000000888 0 " transform="matrix(18.75,0,0,-18.75,131.25,187.5)"/>
<path style="fill-rule:nonzero;fill:rgb(31.4%,18.8%,47.5%);fill-opacity:1;stroke-width:0.12;stroke-linecap:round;stroke-linejoin:round;stroke:rgb(0%,0%,0%);stroke-opacity:1;stroke-miterlimit:10;" d="M 0.000000000000000888 0 L -0.866042 0.5 L -0.866042 -0.5 L 0.000000000000000888 -1 L 0.000000000000000888 0 " transform="matrix(18.75,0,0,-18.75,131.25,187.5)"/>
<path style="fill-rule:nonzero;fill:rgb(100%,56.9%,45.9%);fill-opacity:1;stroke-width:0.12;stroke-linecap:round;stroke-linejoin:round;stroke:rgb(0%,0%,0%);stroke-opacity:1;stroke-miterlimit:10;" d="M 0.000000000000000888 0 L 0.000000000000000888 -1 L 0.866042 -0.5 L 0.866042 0.5 L 0.000000000000000888 0 " transform="matrix(18.75,0,0,-18.75,131.25,187.5)"/>
<path style="fill-rule:nonzero;fill:rgb(67.8%,84.7%,100%);fill-opacity:1;stroke-width:0.12;stroke-linecap:round;stroke-linejoin:round;stroke:rgb(0%,0%,0%);stroke-opacity:1;stroke-miterlimit:10;" d="M 0.000000000000000888 1 L 0.866042 1.5 L 0.000000000000000888 2 L -0.866042 1.5 L 0.000000000000000888 1 " transform="matrix(18.75,0,0,-18.75,131.25,187.5)"/>
<path style="fill-rule:nonzero;fill:rgb(31.4%,18.8%,47.5%);fill-opacity:1;stroke-width:0.12;stroke-linecap:round;stroke-linejoin:round;stroke:rgb(0%,0%,0%);stroke-opacity:1;stroke-miterlimit:10;" d="M 0.000000000000000888 1 L -0.866042 1.5 L -0.866042 0.5 L 0.000000000000000888 0 L 0.000000000000000888 1 " transform="matrix(18.75,0,0,-18.75,131.25,187.5)"/>
<path style="fill-rule:nonzero;fill:rgb(100%,56.9%,45.9%);fill-opacity:1;stroke-width:0.12;stroke-linecap:round;stroke-linejoin:round;stroke:rgb(0%,0%,0%);stroke-opacity:1;stroke-miterlimit:10;" d="M 0.000000000000000888 1 L 0.000000000000000888 0 L 0.866042 0.5 L 0.866042 1.5 L 0.000000000000000888 1 " transform="matrix(18.75,0,0,-18.75,131.25,187.5)"/>
<path style="fill-rule:nonzero;fill:rgb(67.8%,84.7%,100%);fill-opacity:1;stroke-width:0.12;stroke-linecap:round;stroke-linejoin:round;stroke:rgb(0%,0%,0%);stroke-opacity:1;stroke-miterlimit:10;" d="M 0.000000000000000888 2 L 0.866042 2.5 L 0.000000000000000888 3 L -0.866042 2.5 L 0.000000000000000888 2 " transform="matrix(18.75,0,0,-18.75,131.25,187.5)"/>
<path style="fill-rule:nonzero;fill:rgb(31.4%,18.8%,47.5%);fill-opacity:1;stroke-width:0.12;stroke-linecap:round;stroke-linejoin:round;stroke:rgb(0%,0%,0%);stroke-opacity:1;stroke-miterlimit:10;" d="M 0.000000000000000888 2 L -0.866042 2.5 L -0.866042 1.5 L 0.000000000000000888 1 L 0.000000000000000888 2 " transform="matrix(18.75,0,0,-18.75,131.25,187.5)"/>
<path style="fill-rule:nonzero;fill:rgb(100%,56.9%,45.9%);fill-opacity:1;stroke-width:0.12;stroke-linecap:round;stroke-linejoin:round;stroke:rgb(0%,0%,0%);stroke-opacity:1;stroke-miterlimit:10;" d="M 0.000000000000000888 2 L 0.000000000000000888 1 L 0.866042 1.5 L 0.866042 2.5 L 0.000000000000000888 2 " transform="matrix(18.75,0,0,-18.75,131.25,187.5)"/>
<path style="fill-rule:nonzero;fill:rgb(67.8%,84.7%,100%);fill-opacity:1;stroke-width:0.12;stroke-linecap:round;stroke-linejoin:round;stroke:rgb(0%,0%,0%);stroke-opacity:1;stroke-miterlimit:10;" d="M 0.000000000000000888 3 L 0.866042 3.5 L 0.000000000000000888 4 L -0.866042 3.5 L 0.000000000000000888 3 " transform="matrix(18.75,0,0,-18.75,131.25,187.5)"/>
<path style="fill-rule:nonzero;fill:rgb(31.4%,18.8%,47.5%);fill-opacity:1;stroke-width:0.12;stroke-linecap:round;stroke-linejoin:round;stroke:rgb(0%,0%,0%);stroke-opacity:1;stroke-miterlimit:10;" d="M 0.000000000000000888 3 L -0.866042 3.5 L -0.866042 2.5 L 0.000000000000000888 2 L 0.000000000000000888 3 " transform="matrix(18.75,0,0,-18.75,131.25,187.5)"/>
<path style="fill-rule:nonzero;fill:rgb(100%,56.9%,45.9%);fill-opacity:1;stroke-width:0.12;stroke-linecap:round;stroke-linejoin:round;stroke:rgb(0%,0%,0%);stroke-opacity:1;stroke-miterlimit:10;" d="M 0.000000000000000888 3 L 0.000000000000000888 2 L 0.866042 2.5 L 0.866042 3.5 L 0.000000000000000888 3 " transform="matrix(18.75,0,0,-18.75,131.25,187.5)"/>
<path style="fill-rule:nonzero;fill:rgb(67.8%,84.7%,100%);fill-opacity:1;stroke-width:0.12;stroke-linecap:round;stroke-linejoin:round;stroke:rgb(0%,0%,0%);stroke-opacity:1;stroke-miterlimit:10;" d="M 0.000000000000000888 4 L 0.866042 4.5 L 0.000000000000000888 5 L -0.866042 4.5 L 0.000000000000000888 4 " transform="matrix(18.75,0,0,-18.75,131.25,187.5)"/>
<path style="fill-rule:nonzero;fill:rgb(31.4%,18.8%,47.5%);fill-opacity:1;stroke-width:0.12;stroke-linecap:round;stroke-linejoin:round;stroke:rgb(0%,0%,0%);stroke-opacity:1;stroke-miterlimit:10;" d="M 0.000000000000000888 4 L -0.866042 4.5 L -0.866042 3.5 L 0.000000000000000888 3 L 0.000000000000000888 4 " transform="matrix(18.75,0,0,-18.75,131.25,187.5)"/>
<path style="fill-rule:nonzero;fill:rgb(100%,56.9%,45.9%);fill-opacity:1;stroke-width:0.12;stroke-linecap:round;stroke-linejoin:round;stroke:rgb(0%,0%,0%);stroke-opacity:1;stroke-miterlimit:10;" d="M 0.000000000000000888 4 L 0.000000000000000888 3 L 0.866042 3.5 L 0.866042 4.5 L 0.000000000000000888 4 " transform="matrix(18.75,0,0,-18.75,131.25,187.5)"/>
<path style="fill-rule:nonzero;fill:rgb(67.8%,84.7%,100%);fill-opacity:1;stroke-width:0.12;stroke-linecap:round;stroke-linejoin:round;stroke:rgb(0%,0%,0%);stroke-opacity:1;stroke-miterlimit:10;" d="M 0.000000000000000888 5 L 0.866042 5.5 L 0.000000000000000888 6 L -0.866042 5.5 L 0.000000000000000888 5 " transform="matrix(18.75,0,0,-18.75,131.25,187.5)"/>
<path style="fill-rule:nonzero;fill:rgb(31.4%,18.8%,47.5%);fill-opacity:1;stroke-width:0.12;stroke-linecap:round;stroke-linejoin:round;stroke:rgb(0%,0%,0%);stroke-opacity:1;stroke-miterlimit:10;" d="M 0.000000000000000888 5 L -0.866042 5.5 L -0.866042 4.5 L 0.000000000000000888 4 L 0.000000000000000888 5 " transform="matrix(18.75,0,0,-18.75,131.25,187.5)"/>
<path style="fill-rule:nonzero;fill:rgb(100%,56.9%,45.9%);fill-opacity:1;stroke-width:0.12;stroke-linecap:round;stroke-linejoin:round;stroke:rgb(0%,0%,0%);stroke-opacity:1;stroke-miterlimit:10;" d="M 0.000000000000000888 5 L 0.000000000000000888 4 L 0.866042 4.5 L 0.866042 5.5 L 0.000000000000000888 5 " transform="matrix(18.75,0,0,-18.75,131.25,187.5)"/>
<path style="fill-rule:nonzero;fill:rgb(67.8%,84.7%,100%);fill-opacity:1;stroke-width:0.12;stroke-linecap:round;stroke-linejoin:round;stroke:rgb(0%,0%,0%);stroke-opacity:1;stroke-miterlimit:10;" d="M 0.000000000000000888 6 L 0.866042 6.5 L 0.000000000000000888 7 L -0.866042 6.5 L 0.000000000000000888 6 " transform="matrix(18.75,0,0,-18.75,131.25,187.5)"/>
<path style="fill-rule:nonzero;fill:rgb(31.4%,18.8%,47.5%);fill-opacity:1;stroke-width:0.12;stroke-linecap:round;stroke-linejoin:round;stroke:rgb(0%,0%,0%);stroke-opacity:1;stroke-miterlimit:10;" d="M 0.000000000000000888 6 L -0.866042 6.5 L -0.866042 5.5 L 0.000000000000000888 5 L 0.000000000000000888 6 " transform="matrix(18.75,0,0,-18.75,131.25,187.5)"/>
<path style="fill-rule:nonzero;fill:rgb(100%,56.9%,45.9%);fill-opacity:1;stroke-width:0.12;stroke-linecap:round;stroke-linejoin:round;stroke:rgb(0%,0%,0%);stroke-opacity:1;stroke-miterlimit:10;" d="M 0.000000000000000888 6 L 0.000000000000000888 5 L 0.866042 5.5 L 0.866042 6.5 L 0.000000000000000888 6 " transform="matrix(18.75,0,0,-18.75,131.25,187.5)"/>
<path style="fill-rule:nonzero;fill:rgb(67.8%,84.7%,100%);fill-opacity:1;stroke-width:0.12;stroke-linecap:round;stroke-linejoin:round;stroke:rgb(0%,0%,0%);stroke-opacity:1;stroke-miterlimit:10;" d="M 0.000000000000000888 7 L 0.866042 7.5 L 0.000000000000000888 8 L -0.866042 7.5 L 0.000000000000000888 7 " transform="matrix(18.75,0,0,-18.75,131.25,187.5)"/>
<path style="fill-rule:nonzero;fill:rgb(31.4%,18.8%,47.5%);fill-opacity:1;stroke-width:0.12;stroke-linecap:round;stroke-linejoin:round;stroke:rgb(0%,0%,0%);stroke-opacity:1;stroke-miterlimit:10;" d="M 0.000000000000000888 7 L -0.866042 7.5 L -0.866042 6.5 L 0.000000000000000888 6 L 0.000000000000000888 7 " transform="matrix(18.75,0,0,-18.75,131.25,187.5)"/>
<path style="fill-rule:nonzero;fill:rgb(100%,56.9%,45.9%);fill-opacity:1;stroke-width:0.12;stroke-linecap:round;stroke-linejoin:round;stroke:rgb(0%,0%,0%);stroke-opacity:1;stroke-miterlimit:10;" d="M 0.000000000000000888 7 L 0.000000000000000888 6 L 0.866042 6.5 L 0.866042 7.5 L 0.000000000000000888 7 " transform="matrix(18.75,0,0,-18.75,131.25,187.5)"/>
<path style="fill-rule:nonzero;fill:rgb(67.8%,84.7%,100%);fill-opacity:1;stroke-width:0.12;stroke-linecap:round;stroke-linejoin:round;stroke:rgb(0%,0%,0%);stroke-opacity:1;stroke-miterlimit:10;" d="M 0.000000000000000888 8 L 0.866042 8.5 L 0.000000000000000888 9 L -0.866042 8.5 L 0.000000000000000888 8 " transform="matrix(18.75,0,0,-18.75,131.25,187.5)"/>
<path style="fill-rule:nonzero;fill:rgb(31.4%,18.8%,47.5%);fill-opacity:1;stroke-width:0.12;stroke-linecap:round;stroke-linejoin:round;stroke:rgb(0%,0%,0%);stroke-opacity:1;stroke-miterlimit:10;" d="M 0.000000000000000888 8 L -0.866042 8.5 L -0.866042 7.5 L 0.000000000000000888 7 L 0.000000000000000888 8 " transform="matrix(18.75,0,0,-18.75,131.25,187.5)"/>
<path style="fill-rule:nonzero;fill:rgb(100%,56.9%,45.9%);fill-opacity:1;stroke-width:0.12;stroke-linecap:round;stroke-linejoin:round;stroke:rgb(0%,0%,0%);stroke-opacity:1;stroke-miterlimit:10;" d="M 0.000000000000000888 8 L 0.000000000000000888 7 L 0.866042 7.5 L 0.866042 8.5 L 0.000000000000000888 8 " transform="matrix(18.75,0,0,-18.75,131.25,187.5)"/>
<path style="fill-rule:nonzero;fill:rgb(67.8%,84.7%,100%);fill-opacity:1;stroke-width:0.12;stroke-linecap:round;stroke-linejoin:round;stroke:rgb(0%,0%,0%);stroke-opacity:1;stroke-miterlimit:10;" d="M -0.866042 -0.5 L 0.000000000000000888 0 L -0.866042 0.5 L -1.732083 0 L -0.866042 -0.5 " transform="matrix(18.75,0,0,-18.75,131.25,187.5)"/>
<path style="fill-rule:nonzero;fill:rgb(31.4%,18.8%,47.5%);fill-opacity:1;stroke-width:0.12;stroke-linecap:round;stroke-linejoin:round;stroke:rgb(0%,0%,0%);stroke-opacity:1;stroke-miterlimit:10;" d="M -0.866042 -0.5 L -1.732083 0 L -1.732083 -1 L -0.866042 -1.5 L -0.866042 -0.5 " transform="matrix(18.75,0,0,-18.75,131.25,187.5)"/>
<path style="fill-rule:nonzero;fill:rgb(100%,56.9%,45.9%);fill-opacity:1;stroke-width:0.12;stroke-linecap:round;stroke-linejoin:round;stroke:rgb(0%,0%,0%);stroke-opacity:1;stroke-miterlimit:10;" d="M -0.866042 -0.5 L -0.866042 -1.5 L 0.000000000000000888 -1 L 0.000000000000000888 0 L -0.866042 -0.5 " transform="matrix(18.75,0,0,-18.75,131.25,187.5)"/>
<path style="fill-rule:nonzero;fill:rgb(67.8%,84.7%,100%);fill-opacity:1;stroke-width:0.12;stroke-linecap:round;stroke-linejoin:round;stroke:rgb(0%,0%,0%);stroke-opacity:1;stroke-miterlimit:10;" d="M -0.866042 0.5 L 0.000000000000000888 1 L -0.866042 1.5 L -1.732083 1 L -0.866042 0.5 " transform="matrix(18.75,0,0,-18.75,131.25,187.5)"/>
<path style="fill-rule:nonzero;fill:rgb(31.4%,18.8%,47.5%);fill-opacity:1;stroke-width:0.12;stroke-linecap:round;stroke-linejoin:round;stroke:rgb(0%,0%,0%);stroke-opacity:1;stroke-miterlimit:10;" d="M -0.866042 0.5 L -1.732083 1 L -1.732083 0 L -0.866042 -0.5 L -0.866042 0.5 " transform="matrix(18.75,0,0,-18.75,131.25,187.5)"/>
<path style="fill-rule:nonzero;fill:rgb(100%,56.9%,45.9%);fill-opacity:1;stroke-width:0.12;stroke-linecap:round;stroke-linejoin:round;stroke:rgb(0%,0%,0%);stroke-opacity:1;stroke-miterlimit:10;" d="M -0.866042 0.5 L -0.866042 -0.5 L 0.000000000000000888 0 L 0.000000000000000888 1 L -0.866042 0.5 " transform="matrix(18.75,0,0,-18.75,131.25,187.5)"/>
<path style="fill-rule:nonzero;fill:rgb(67.8%,84.7%,100%);fill-opacity:1;stroke-width:0.12;stroke-linecap:round;stroke-linejoin:round;stroke:rgb(0%,0%,0%);stroke-opacity:1;stroke-miterlimit:10;" d="M -0.866042 1.5 L 0.000000000000000888 2 L -0.866042 2.5 L -1.732083 2 L -0.866042 1.5 " transform="matrix(18.75,0,0,-18.75,131.25,187.5)"/>
<path style="fill-rule:nonzero;fill:rgb(31.4%,18.8%,47.5%);fill-opacity:1;stroke-width:0.12;stroke-linecap:round;stroke-linejoin:round;stroke:rgb(0%,0%,0%);stroke-opacity:1;stroke-miterlimit:10;" d="M -0.866042 1.5 L -1.732083 2 L -1.732083 1 L -0.866042 0.5 L -0.866042 1.5 " transform="matrix(18.75,0,0,-18.75,131.25,187.5)"/>
<path style="fill-rule:nonzero;fill:rgb(100%,56.9%,45.9%);fill-opacity:1;stroke-width:0.12;stroke-linecap:round;stroke-linejoin:round;stroke:rgb(0%,0%,0%);stroke-opacity:1;stroke-miterlimit:10;" d="M -0.866042 1.5 L -0.866042 0.5 L 0.000000000000000888 1 L 0.000000000000000888 2 L -0.866042 1.5 " transform="matrix(18.75,0,0,-18.75,131.25,187.5)"/>
<path style="fill-rule:nonzero;fill:rgb(67.8%,84.7%,100%);fill-opacity:1;stroke-width:0.12;stroke-linecap:round;stroke-linejoin:round;stroke:rgb(0%,0%,0%);stroke-opacity:1;stroke-miterlimit:10;" d="M -0.866042 2.5 L 0.000000000000000888 3 L -0.866042 3.5 L -1.732083 3 L -0.866042 2.5 " transform="matrix(18.75,0,0,-18.75,131.25,187.5)"/>
<path style="fill-rule:nonzero;fill:rgb(31.4%,18.8%,47.5%);fill-opacity:1;stroke-width:0.12;stroke-linecap:round;stroke-linejoin:round;stroke:rgb(0%,0%,0%);stroke-opacity:1;stroke-miterlimit:10;" d="M -0.866042 2.5 L -1.732083 3 L -1.732083 2 L -0.866042 1.5 L -0.866042 2.5 " transform="matrix(18.75,0,0,-18.75,131.25,187.5)"/>
<path style="fill-rule:nonzero;fill:rgb(100%,56.9%,45.9%);fill-opacity:1;stroke-width:0.12;stroke-linecap:round;stroke-linejoin:round;stroke:rgb(0%,0%,0%);stroke-opacity:1;stroke-miterlimit:10;" d="M -0.866042 2.5 L -0.866042 1.5 L 0.000000000000000888 2 L 0.000000000000000888 3 L -0.866042 2.5 " transform="matrix(18.75,0,0,-18.75,131.25,187.5)"/>
<path style="fill-rule:nonzero;fill:rgb(67.8%,84.7%,100%);fill-opacity:1;stroke-width:0.12;stroke-linecap:round;stroke-linejoin:round;stroke:rgb(0%,0%,0%);stroke-opacity:1;stroke-miterlimit:10;" d="M -0.866042 3.5 L 0.000000000000000888 4 L -0.866042 4.5 L -1.732083 4 L -0.866042 3.5 " transform="matrix(18.75,0,0,-18.75,131.25,187.5)"/>
<path style="fill-rule:nonzero;fill:rgb(31.4%,18.8%,47.5%);fill-opacity:1;stroke-width:0.12;stroke-linecap:round;stroke-linejoin:round;stroke:rgb(0%,0%,0%);stroke-opacity:1;stroke-miterlimit:10;" d="M -0.866042 3.5 L -1.732083 4 L -1.732083 3 L -0.866042 2.5 L -0.866042 3.5 " transform="matrix(18.75,0,0,-18.75,131.25,187.5)"/>
<path style="fill-rule:nonzero;fill:rgb(100%,56.9%,45.9%);fill-opacity:1;stroke-width:0.12;stroke-linecap:round;stroke-linejoin:round;stroke:rgb(0%,0%,0%);stroke-opacity:1;stroke-miterlimit:10;" d="M -0.866042 3.5 L -0.866042 2.5 L 0.000000000000000888 3 L 0.000000000000000888 4 L -0.866042 3.5 " transform="matrix(18.75,0,0,-18.75,131.25,187.5)"/>
<path style="fill-rule:nonzero;fill:rgb(67.8%,84.7%,100%);fill-opacity:1;stroke-width:0.12;stroke-linecap:round;stroke-linejoin:round;stroke:rgb(0%,0%,0%);stroke-opacity:1;stroke-miterlimit:10;" d="M -1.732083 -1 L -0.866042 -0.5 L -1.732083 0 L -2.598125 -0.5 L -1.732083 -1 " transform="matrix(18.75,0,0,-18.75,131.25,187.5)"/>
<path style="fill-rule:nonzero;fill:rgb(31.4%,18.8%,47.5%);fill-opacity:1;stroke-width:0.12;stroke-linecap:round;stroke-linejoin:round;stroke:rgb(0%,0%,0%);stroke-opacity:1;stroke-miterlimit:10;" d="M -1.732083 -1 L -2.598125 -0.5 L -2.598125 -1.5 L -1.732083 -2 L -1.732083 -1 " transform="matrix(18.75,0,0,-18.75,131.25,187.5)"/>
<path style="fill-rule:nonzero;fill:rgb(100%,56.9%,45.9%);fill-opacity:1;stroke-width:0.12;stroke-linecap:round;stroke-linejoin:round;stroke:rgb(0%,0%,0%);stroke-opacity:1;stroke-miterlimit:10;" d="M -1.732083 -1 L -1.732083 -2 L -0.866042 -1.5 L -0.866042 -0.5 L -1.732083 -1 " transform="matrix(18.75,0,0,-18.75,131.25,187.5)"/>
<path style="fill-rule:nonzero;fill:rgb(67.8%,84.7%,100%);fill-opacity:1;stroke-width:0.12;stroke-linecap:round;stroke-linejoin:round;stroke:rgb(0%,0%,0%);stroke-opacity:1;stroke-miterlimit:10;" d="M 0.866042 -0.5 L 1.732083 0 L 0.866042 0.5 L 0.000000000000000888 0 L 0.866042 -0.5 " transform="matrix(18.75,0,0,-18.75,131.25,187.5)"/>
<path style="fill-rule:nonzero;fill:rgb(31.4%,18.8%,47.5%);fill-opacity:1;stroke-width:0.12;stroke-linecap:round;stroke-linejoin:round;stroke:rgb(0%,0%,0%);stroke-opacity:1;stroke-miterlimit:10;" d="M 0.866042 -0.5 L 0.000000000000000888 0 L 0.000000000000000888 -1 L 0.866042 -1.5 L 0.866042 -0.5 " transform="matrix(18.75,0,0,-18.75,131.25,187.5)"/>
<path style="fill-rule:nonzero;fill:rgb(100%,56.9%,45.9%);fill-opacity:1;stroke-width:0.12;stroke-linecap:round;stroke-linejoin:round;stroke:rgb(0%,0%,0%);stroke-opacity:1;stroke-miterlimit:10;" d="M 0.866042 -0.5 L 0.866042 -1.5 L 1.732083 -1 L 1.732083 0 L 0.866042 -0.5 " transform="matrix(18.75,0,0,-18.75,131.25,187.5)"/>
<path style="fill-rule:nonzero;fill:rgb(67.8%,84.7%,100%);fill-opacity:1;stroke-width:0.12;stroke-linecap:round;stroke-linejoin:round;stroke:rgb(0%,0%,0%);stroke-opacity:1;stroke-miterlimit:10;" d="M 0.866042 0.5 L 1.732083 1 L 0.866042 1.5 L 0.000000000000000888 1 L 0.866042 0.5 " transform="matrix(18.75,0,0,-18.75,131.25,187.5)"/>
<path style="fill-rule:nonzero;fill:rgb(31.4%,18.8%,47.5%);fill-opacity:1;stroke-width:0.12;stroke-linecap:round;stroke-linejoin:round;stroke:rgb(0%,0%,0%);stroke-opacity:1;stroke-miterlimit:10;" d="M 0.866042 0.5 L 0.000000000000000888 1 L 0.000000000000000888 0 L 0.866042 -0.5 L 0.866042 0.5 " transform="matrix(18.75,0,0,-18.75,131.25,187.5)"/>
<path style="fill-rule:nonzero;fill:rgb(100%,56.9%,45.9%);fill-opacity:1;stroke-width:0.12;stroke-linecap:round;stroke-linejoin:round;stroke:rgb(0%,0%,0%);stroke-opacity:1;stroke-miterlimit:10;" d="M 0.866042 0.5 L 0.866042 -0.5 L 1.732083 0 L 1.732083 1 L 0.866042 0.5 " transform="matrix(18.75,0,0,-18.75,131.25,187.5)"/>
<path style="fill-rule:nonzero;fill:rgb(67.8%,84.7%,100%);fill-opacity:1;stroke-width:0.12;stroke-linecap:round;stroke-linejoin:round;stroke:rgb(0%,0%,0%);stroke-opacity:1;stroke-miterlimit:10;" d="M 0.866042 1.5 L 1.732083 2 L 0.866042 2.5 L 0.000000000000000888 2 L 0.866042 1.5 " transform="matrix(18.75,0,0,-18.75,131.25,187.5)"/>
<path style="fill-rule:nonzero;fill:rgb(31.4%,18.8%,47.5%);fill-opacity:1;stroke-width:0.12;stroke-linecap:round;stroke-linejoin:round;stroke:rgb(0%,0%,0%);stroke-opacity:1;stroke-miterlimit:10;" d="M 0.866042 1.5 L 0.000000000000000888 2 L 0.000000000000000888 1 L 0.866042 0.5 L 0.866042 1.5 " transform="matrix(18.75,0,0,-18.75,131.25,187.5)"/>
<path style="fill-rule:nonzero;fill:rgb(100%,56.9%,45.9%);fill-opacity:1;stroke-width:0.12;stroke-linecap:round;stroke-linejoin:round;stroke:rgb(0%,0%,0%);stroke-opacity:1;stroke-miterlimit:10;" d="M 0.866042 1.5 L 0.866042 0.5 L 1.732083 1 L 1.732083 2 L 0.866042 1.5 " transform="matrix(18.75,0,0,-18.75,131.25,187.5)"/>
<path style="fill-rule:nonzero;fill:rgb(67.8%,84.7%,100%);fill-opacity:1;stroke-width:0.12;stroke-linecap:round;stroke-linejoin:round;stroke:rgb(0%,0%,0%);stroke-opacity:1;stroke-miterlimit:10;" d="M 0.866042 2.5 L 1.732083 3 L 0.866042 3.5 L 0.000000000000000888 3 L 0.866042 2.5 " transform="matrix(18.75,0,0,-18.75,131.25,187.5)"/>
<path style="fill-rule:nonzero;fill:rgb(31.4%,18.8%,47.5%);fill-opacity:1;stroke-width:0.12;stroke-linecap:round;stroke-linejoin:round;stroke:rgb(0%,0%,0%);stroke-opacity:1;stroke-miterlimit:10;" d="M 0.866042 2.5 L 0.000000000000000888 3 L 0.000000000000000888 2 L 0.866042 1.5 L 0.866042 2.5 " transform="matrix(18.75,0,0,-18.75,131.25,187.5)"/>
<path style="fill-rule:nonzero;fill:rgb(100%,56.9%,45.9%);fill-opacity:1;stroke-width:0.12;stroke-linecap:round;stroke-linejoin:round;stroke:rgb(0%,0%,0%);stroke-opacity:1;stroke-miterlimit:10;" d="M 0.866042 2.5 L 0.866042 1.5 L 1.732083 2 L 1.732083 3 L 0.866042 2.5 " transform="matrix(18.75,0,0,-18.75,131.25,187.5)"/>
<path style="fill-rule:nonzero;fill:rgb(67.8%,84.7%,100%);fill-opacity:1;stroke-width:0.12;stroke-linecap:round;stroke-linejoin:round;stroke:rgb(0%,0%,0%);stroke-opacity:1;stroke-miterlimit:10;" d="M 0.866042 3.5 L 1.732083 4 L 0.866042 4.5 L 0.000000000000000888 4 L 0.866042 3.5 " transform="matrix(18.75,0,0,-18.75,131.25,187.5)"/>
<path style="fill-rule:nonzero;fill:rgb(31.4%,18.8%,47.5%);fill-opacity:1;stroke-width:0.12;stroke-linecap:round;stroke-linejoin:round;stroke:rgb(0%,0%,0%);stroke-opacity:1;stroke-miterlimit:10;" d="M 0.866042 3.5 L 0.000000000000000888 4 L 0.000000000000000888 3 L 0.866042 2.5 L 0.866042 3.5 " transform="matrix(18.75,0,0,-18.75,131.25,187.5)"/>
<path style="fill-rule:nonzero;fill:rgb(100%,56.9%,45.9%);fill-opacity:1;stroke-width:0.12;stroke-linecap:round;stroke-linejoin:round;stroke:rgb(0%,0%,0%);stroke-opacity:1;stroke-miterlimit:10;" d="M 0.866042 3.5 L 0.866042 2.5 L 1.732083 3 L 1.732083 4 L 0.866042 3.5 " transform="matrix(18.75,0,0,-18.75,131.25,187.5)"/>
<path style="fill-rule:nonzero;fill:rgb(67.8%,84.7%,100%);fill-opacity:1;stroke-width:0.12;stroke-linecap:round;stroke-linejoin:round;stroke:rgb(0%,0%,0%);stroke-opacity:1;stroke-miterlimit:10;" d="M 0.866042 4.5 L 1.732083 5 L 0.866042 5.5 L 0.000000000000000888 5 L 0.866042 4.5 " transform="matrix(18.75,0,0,-18.75,131.25,187.5)"/>
<path style="fill-rule:nonzero;fill:rgb(31.4%,18.8%,47.5%);fill-opacity:1;stroke-width:0.12;stroke-linecap:round;stroke-linejoin:round;stroke:rgb(0%,0%,0%);stroke-opacity:1;stroke-miterlimit:10;" d="M 0.866042 4.5 L 0.000000000000000888 5 L 0.000000000000000888 4 L 0.866042 3.5 L 0.866042 4.5 " transform="matrix(18.75,0,0,-18.75,131.25,187.5)"/>
<path style="fill-rule:nonzero;fill:rgb(100%,56.9%,45.9%);fill-opacity:1;stroke-width:0.12;stroke-linecap:round;stroke-linejoin:round;stroke:rgb(0%,0%,0%);stroke-opacity:1;stroke-miterlimit:10;" d="M 0.866042 4.5 L 0.866042 3.5 L 1.732083 4 L 1.732083 5 L 0.866042 4.5 " transform="matrix(18.75,0,0,-18.75,131.25,187.5)"/>
<path style="fill-rule:nonzero;fill:rgb(67.8%,84.7%,100%);fill-opacity:1;stroke-width:0.12;stroke-linecap:round;stroke-linejoin:round;stroke:rgb(0%,0%,0%);stroke-opacity:1;stroke-miterlimit:10;" d="M 0.866042 5.5 L 1.732083 6 L 0.866042 6.5 L 0.000000000000000888 6 L 0.866042 5.5 " transform="matrix(18.75,0,0,-18.75,131.25,187.5)"/>
<path style="fill-rule:nonzero;fill:rgb(31.4%,18.8%,47.5%);fill-opacity:1;stroke-width:0.12;stroke-linecap:round;stroke-linejoin:round;stroke:rgb(0%,0%,0%);stroke-opacity:1;stroke-miterlimit:10;" d="M 0.866042 5.5 L 0.000000000000000888 6 L 0.000000000000000888 5 L 0.866042 4.5 L 0.866042 5.5 " transform="matrix(18.75,0,0,-18.75,131.25,187.5)"/>
<path style="fill-rule:nonzero;fill:rgb(100%,56.9%,45.9%);fill-opacity:1;stroke-width:0.12;stroke-linecap:round;stroke-linejoin:round;stroke:rgb(0%,0%,0%);stroke-opacity:1;stroke-miterlimit:10;" d="M 0.866042 5.5 L 0.866042 4.5 L 1.732083 5 L 1.732083 6 L 0.866042 5.5 " transform="matrix(18.75,0,0,-18.75,131.25,187.5)"/>
<path style="fill-rule:nonzero;fill:rgb(67.8%,84.7%,100%);fill-opacity:1;stroke-width:0.12;stroke-linecap:round;stroke-linejoin:round;stroke:rgb(0%,0%,0%);stroke-opacity:1;stroke-miterlimit:10;" d="M 0.000000000000000888 -1 L 0.866042 -0.5 L 0.000000000000000888 0 L -0.866042 -0.5 L 0.000000000000000888 -1 " transform="matrix(18.75,0,0,-18.75,131.25,187.5)"/>
<path style="fill-rule:nonzero;fill:rgb(31.4%,18.8%,47.5%);fill-opacity:1;stroke-width:0.12;stroke-linecap:round;stroke-linejoin:round;stroke:rgb(0%,0%,0%);stroke-opacity:1;stroke-miterlimit:10;" d="M 0.000000000000000888 -1 L -0.866042 -0.5 L -0.866042 -1.5 L 0.000000000000000888 -2 L 0.000000000000000888 -1 " transform="matrix(18.75,0,0,-18.75,131.25,187.5)"/>
<path style="fill-rule:nonzero;fill:rgb(100%,56.9%,45.9%);fill-opacity:1;stroke-width:0.12;stroke-linecap:round;stroke-linejoin:round;stroke:rgb(0%,0%,0%);stroke-opacity:1;stroke-miterlimit:10;" d="M 0.000000000000000888 -1 L 0.000000000000000888 -2 L 0.866042 -1.5 L 0.866042 -0.5 L 0.000000000000000888 -1 " transform="matrix(18.75,0,0,-18.75,131.25,187.5)"/>
<path style="fill-rule:nonzero;fill:rgb(67.8%,84.7%,100%);fill-opacity:1;stroke-width:0.12;stroke-linecap:round;stroke-linejoin:round;stroke:rgb(0%,0%,0%);stroke-opacity:1;stroke-miterlimit:10;" d="M 0.000000000000000888 0 L 0.866042 0.5 L 0.000000000000000888 1 L -0.866042 0.5 L 0.000000000000000888 0 " transform="matrix(18.75,0,0,-18.75,131.25,187.5)"/>
<path style="fill-rule:nonzero;fill:rgb(31.4%,18.8%,47.5%);fill-opacity:1;stroke-width:0.12;stroke-linecap:round;stroke-linejoin:round;stroke:rgb(0%,0%,0%);stroke-opacity:1;stroke-miterlimit:10;" d="M 0.000000000000000888 0 L -0.866042 0.5 L -0.866042 -0.5 L 0.000000000000000888 -1 L 0.000000000000000888 0 " transform="matrix(18.75,0,0,-18.75,131.25,187.5)"/>
<path style="fill-rule:nonzero;fill:rgb(100%,56.9%,45.9%);fill-opacity:1;stroke-width:0.12;stroke-linecap:round;stroke-linejoin:round;stroke:rgb(0%,0%,0%);stroke-opacity:1;stroke-miterlimit:10;" d="M 0.000000000000000888 0 L 0.000000000000000888 -1 L 0.866042 -0.5 L 0.866042 0.5 L 0.000000000000000888 0 " transform="matrix(18.75,0,0,-18.75,131.25,187.5)"/>
<path style="fill-rule:nonzero;fill:rgb(67.8%,84.7%,100%);fill-opacity:1;stroke-width:0.12;stroke-linecap:round;stroke-linejoin:round;stroke:rgb(0%,0%,0%);stroke-opacity:1;stroke-miterlimit:10;" d="M 0.000000000000000888 1 L 0.866042 1.5 L 0.000000000000000888 2 L -0.866042 1.5 L 0.000000000000000888 1 " transform="matrix(18.75,0,0,-18.75,131.25,187.5)"/>
<path style="fill-rule:nonzero;fill:rgb(31.4%,18.8%,47.5%);fill-opacity:1;stroke-width:0.12;stroke-linecap:round;stroke-linejoin:round;stroke:rgb(0%,0%,0%);stroke-opacity:1;stroke-miterlimit:10;" d="M 0.000000000000000888 1 L -0.866042 1.5 L -0.866042 0.5 L 0.000000000000000888 0 L 0.000000000000000888 1 " transform="matrix(18.75,0,0,-18.75,131.25,187.5)"/>
<path style="fill-rule:nonzero;fill:rgb(100%,56.9%,45.9%);fill-opacity:1;stroke-width:0.12;stroke-linecap:round;stroke-linejoin:round;stroke:rgb(0%,0%,0%);stroke-opacity:1;stroke-miterlimit:10;" d="M 0.000000000000000888 1 L 0.000000000000000888 0 L 0.866042 0.5 L 0.866042 1.5 L 0.000000000000000888 1 " transform="matrix(18.75,0,0,-18.75,131.25,187.5)"/>
<path style="fill-rule:nonzero;fill:rgb(67.8%,84.7%,100%);fill-opacity:1;stroke-width:0.12;stroke-linecap:round;stroke-linejoin:round;stroke:rgb(0%,0%,0%);stroke-opacity:1;stroke-miterlimit:10;" d="M 0.000000000000000888 2 L 0.866042 2.5 L 0.000000000000000888 3 L -0.866042 2.5 L 0.000000000000000888 2 " transform="matrix(18.75,0,0,-18.75,131.25,187.5)"/>
<path style="fill-rule:nonzero;fill:rgb(31.4%,18.8%,47.5%);fill-opacity:1;stroke-width:0.12;stroke-linecap:round;stroke-linejoin:round;stroke:rgb(0%,0%,0%);stroke-opacity:1;stroke-miterlimit:10;" d="M 0.000000000000000888 2 L -0.866042 2.5 L -0.866042 1.5 L 0.000000000000000888 1 L 0.000000000000000888 2 " transform="matrix(18.75,0,0,-18.75,131.25,187.5)"/>
<path style="fill-rule:nonzero;fill:rgb(100%,56.9%,45.9%);fill-opacity:1;stroke-width:0.12;stroke-linecap:round;stroke-linejoin:round;stroke:rgb(0%,0%,0%);stroke-opacity:1;stroke-miterlimit:10;" d="M 0.000000000000000888 2 L 0.000000000000000888 1 L 0.866042 1.5 L 0.866042 2.5 L 0.000000000000000888 2 " transform="matrix(18.75,0,0,-18.75,131.25,187.5)"/>
<path style="fill-rule:nonzero;fill:rgb(67.8%,84.7%,100%);fill-opacity:1;stroke-width:0.12;stroke-linecap:round;stroke-linejoin:round;stroke:rgb(0%,0%,0%);stroke-opacity:1;stroke-miterlimit:10;" d="M 0.000000000000000888 3 L 0.866042 3.5 L 0.000000000000000888 4 L -0.866042 3.5 L 0.000000000000000888 3 " transform="matrix(18.75,0,0,-18.75,131.25,187.5)"/>
<path style="fill-rule:nonzero;fill:rgb(31.4%,18.8%,47.5%);fill-opacity:1;stroke-width:0.12;stroke-linecap:round;stroke-linejoin:round;stroke:rgb(0%,0%,0%);stroke-opacity:1;stroke-miterlimit:10;" d="M 0.000000000000000888 3 L -0.866042 3.5 L -0.866042 2.5 L 0.000000000000000888 2 L 0.000000000000000888 3 " transform="matrix(18.75,0,0,-18.75,131.25,187.5)"/>
<path style="fill-rule:nonzero;fill:rgb(100%,56.9%,45.9%);fill-opacity:1;stroke-width:0.12;stroke-linecap:round;stroke-linejoin:round;stroke:rgb(0%,0%,0%);stroke-opacity:1;stroke-miterlimit:10;" d="M 0.000000000000000888 3 L 0.000000000000000888 2 L 0.866042 2.5 L 0.866042 3.5 L 0.000000000000000888 3 " transform="matrix(18.75,0,0,-18.75,131.25,187.5)"/>
<path style="fill-rule:nonzero;fill:rgb(67.8%,84.7%,100%);fill-opacity:1;stroke-width:0.12;stroke-linecap:round;stroke-linejoin:round;stroke:rgb(0%,0%,0%);stroke-opacity:1;stroke-miterlimit:10;" d="M 1.732083 -1 L 2.598125 -0.5 L 1.732083 0 L 0.866042 -0.5 L 1.732083 -1 " transform="matrix(18.75,0,0,-18.75,131.25,187.5)"/>
<path style="fill-rule:nonzero;fill:rgb(31.4%,18.8%,47.5%);fill-opacity:1;stroke-width:0.12;stroke-linecap:round;stroke-linejoin:round;stroke:rgb(0%,0%,0%);stroke-opacity:1;stroke-miterlimit:10;" d="M 1.732083 -1 L 0.866042 -0.5 L 0.866042 -1.5 L 1.732083 -2 L 1.732083 -1 " transform="matrix(18.75,0,0,-18.75,131.25,187.5)"/>
<path style="fill-rule:nonzero;fill:rgb(100%,56.9%,45.9%);fill-opacity:1;stroke-width:0.12;stroke-linecap:round;stroke-linejoin:round;stroke:rgb(0%,0%,0%);stroke-opacity:1;stroke-miterlimit:10;" d="M 1.732083 -1 L 1.732083 -2 L 2.598125 -1.5 L 2.598125 -0.5 L 1.732083 -1 " transform="matrix(18.75,0,0,-18.75,131.25,187.5)"/>
<path style="fill-rule:nonzero;fill:rgb(67.8%,84.7%,100%);fill-opacity:1;stroke-width:0.12;stroke-linecap:round;stroke-linejoin:round;stroke:rgb(0%,0%,0%);stroke-opacity:1;stroke-miterlimit:10;" d="M 1.732083 0 L 2.598125 0.5 L 1.732083 1 L 0.866042 0.5 L 1.732083 0 " transform="matrix(18.75,0,0,-18.75,131.25,187.5)"/>
<path style="fill-rule:nonzero;fill:rgb(31.4%,18.8%,47.5%);fill-opacity:1;stroke-width:0.12;stroke-linecap:round;stroke-linejoin:round;stroke:rgb(0%,0%,0%);stroke-opacity:1;stroke-miterlimit:10;" d="M 1.732083 0 L 0.866042 0.5 L 0.866042 -0.5 L 1.732083 -1 L 1.732083 0 " transform="matrix(18.75,0,0,-18.75,131.25,187.5)"/>
<path style="fill-rule:nonzero;fill:rgb(100%,56.9%,45.9%);fill-opacity:1;stroke-width:0.12;stroke-linecap:round;stroke-linejoin:round;stroke:rgb(0%,0%,0%);stroke-opacity:1;stroke-miterlimit:10;" d="M 1.732083 0 L 1.732083 -1 L 2.598125 -0.5 L 2.598125 0.5 L 1.732083 0 " transform="matrix(18.75,0,0,-18.75,131.25,187.5)"/>
<path style="fill-rule:nonzero;fill:rgb(67.8%,84.7%,100%);fill-opacity:1;stroke-width:0.12;stroke-linecap:round;stroke-linejoin:round;stroke:rgb(0%,0%,0%);stroke-opacity:1;stroke-miterlimit:10;" d="M 1.732083 1 L 2.598125 1.5 L 1.732083 2 L 0.866042 1.5 L 1.732083 1 " transform="matrix(18.75,0,0,-18.75,131.25,187.5)"/>
<path style="fill-rule:nonzero;fill:rgb(31.4%,18.8%,47.5%);fill-opacity:1;stroke-width:0.12;stroke-linecap:round;stroke-linejoin:round;stroke:rgb(0%,0%,0%);stroke-opacity:1;stroke-miterlimit:10;" d="M 1.732083 1 L 0.866042 1.5 L 0.866042 0.5 L 1.732083 0 L 1.732083 1 " transform="matrix(18.75,0,0,-18.75,131.25,187.5)"/>
<path style="fill-rule:nonzero;fill:rgb(100%,56.9%,45.9%);fill-opacity:1;stroke-width:0.12;stroke-linecap:round;stroke-linejoin:round;stroke:rgb(0%,0%,0%);stroke-opacity:1;stroke-miterlimit:10;" d="M 1.732083 1 L 1.732083 0 L 2.598125 0.5 L 2.598125 1.5 L 1.732083 1 " transform="matrix(18.75,0,0,-18.75,131.25,187.5)"/>
<path style="fill-rule:nonzero;fill:rgb(67.8%,84.7%,100%);fill-opacity:1;stroke-width:0.12;stroke-linecap:round;stroke-linejoin:round;stroke:rgb(0%,0%,0%);stroke-opacity:1;stroke-miterlimit:10;" d="M 1.732083 2 L 2.598125 2.5 L 1.732083 3 L 0.866042 2.5 L 1.732083 2 " transform="matrix(18.75,0,0,-18.75,131.25,187.5)"/>
<path style="fill-rule:nonzero;fill:rgb(31.4%,18.8%,47.5%);fill-opacity:1;stroke-width:0.12;stroke-linecap:round;stroke-linejoin:round;stroke:rgb(0%,0%,0%);stroke-opacity:1;stroke-miterlimit:10;" d="M 1.732083 2 L 0.866042 2.5 L 0.866042 1.5 L 1.732083 1 L 1.732083 2 " transform="matrix(18.75,0,0,-18.75,131.25,187.5)"/>
<path style="fill-rule:nonzero;fill:rgb(100%,56.9%,45.9%);fill-opacity:1;stroke-width:0.12;stroke-linecap:round;stroke-linejoin:round;stroke:rgb(0%,0%,0%);stroke-opacity:1;stroke-miterlimit:10;" d="M 1.732083 2 L 1.732083 1 L 2.598125 1.5 L 2.598125 2.5 L 1.732083 2 " transform="matrix(18.75,0,0,-18.75,131.25,187.5)"/>
<path style="fill-rule:nonzero;fill:rgb(67.8%,84.7%,100%);fill-opacity:1;stroke-width:0.12;stroke-linecap:round;stroke-linejoin:round;stroke:rgb(0%,0%,0%);stroke-opacity:1;stroke-miterlimit:10;" d="M 1.732083 3 L 2.598125 3.5 L 1.732083 4 L 0.866042 3.5 L 1.732083 3 " transform="matrix(18.75,0,0,-18.75,131.25,187.5)"/>
<path style="fill-rule:nonzero;fill:rgb(31.4%,18.8%,47.5%);fill-opacity:1;stroke-width:0.12;stroke-linecap:round;stroke-linejoin:round;stroke:rgb(0%,0%,0%);stroke-opacity:1;stroke-miterlimit:10;" d="M 1.732083 3 L 0.866042 3.5 L 0.866042 2.5 L 1.732083 2 L 1.732083 3 " transform="matrix(18.75,0,0,-18.75,131.25,187.5)"/>
<path style="fill-rule:nonzero;fill:rgb(100%,56.9%,45.9%);fill-opacity:1;stroke-width:0.12;stroke-linecap:round;stroke-linejoin:round;stroke:rgb(0%,0%,0%);stroke-opacity:1;stroke-miterlimit:10;" d="M 1.732083 3 L 1.732083 2 L 2.598125 2.5 L 2.598125 3.5 L 1.732083 3 " transform="matrix(18.75,0,0,-18.75,131.25,187.5)"/>
<path style="fill-rule:nonzero;fill:rgb(67.8%,84.7%,100%);fill-opacity:1;stroke-width:0.12;stroke-linecap:round;stroke-linejoin:round;stroke:rgb(0%,0%,0%);stroke-opacity:1;stroke-miterlimit:10;" d="M 1.732083 4 L 2.598125 4.5 L 1.732083 5 L 0.866042 4.5 L 1.732083 4 " transform="matrix(18.75,0,0,-18.75,131.25,187.5)"/>
<path style="fill-rule:nonzero;fill:rgb(31.4%,18.8%,47.5%);fill-opacity:1;stroke-width:0.12;stroke-linecap:round;stroke-linejoin:round;stroke:rgb(0%,0%,0%);stroke-opacity:1;stroke-miterlimit:10;" d="M 1.732083 4 L 0.866042 4.5 L 0.866042 3.5 L 1.732083 3 L 1.732083 4 " transform="matrix(18.75,0,0,-18.75,131.25,187.5)"/>
<path style="fill-rule:nonzero;fill:rgb(100%,56.9%,45.9%);fill-opacity:1;stroke-width:0.12;stroke-linecap:round;stroke-linejoin:round;stroke:rgb(0%,0%,0%);stroke-opacity:1;stroke-miterlimit:10;" d="M 1.732083 4 L 1.732083 3 L 2.598125 3.5 L 2.598125 4.5 L 1.732083 4 " transform="matrix(18.75,0,0,-18.75,131.25,187.5)"/>
<path style="fill-rule:nonzero;fill:rgb(67.8%,84.7%,100%);fill-opacity:1;stroke-width:0.12;stroke-linecap:round;stroke-linejoin:round;stroke:rgb(0%,0%,0%);stroke-opacity:1;stroke-miterlimit:10;" d="M 1.732083 5 L 2.598125 5.5 L 1.732083 6 L 0.866042 5.5 L 1.732083 5 " transform="matrix(18.75,0,0,-18.75,131.25,187.5)"/>
<path style="fill-rule:nonzero;fill:rgb(31.4%,18.8%,47.5%);fill-opacity:1;stroke-width:0.12;stroke-linecap:round;stroke-linejoin:round;stroke:rgb(0%,0%,0%);stroke-opacity:1;stroke-miterlimit:10;" d="M 1.732083 5 L 0.866042 5.5 L 0.866042 4.5 L 1.732083 4 L 1.732083 5 " transform="matrix(18.75,0,0,-18.75,131.25,187.5)"/>
<path style="fill-rule:nonzero;fill:rgb(100%,56.9%,45.9%);fill-opacity:1;stroke-width:0.12;stroke-linecap:round;stroke-linejoin:round;stroke:rgb(0%,0%,0%);stroke-opacity:1;stroke-miterlimit:10;" d="M 1.732083 5 L 1.732083 4 L 2.598125 4.5 L 2.598125 5.5 L 1.732083 5 " transform="matrix(18.75,0,0,-18.75,131.25,187.5)"/>
<path style="fill-rule:nonzero;fill:rgb(67.8%,84.7%,100%);fill-opacity:1;stroke-width:0.12;stroke-linecap:round;stroke-linejoin:round;stroke:rgb(0%,0%,0%);stroke-opacity:1;stroke-miterlimit:10;" d="M 0.866042 -1.5 L 1.732083 -1 L 0.866042 -0.5 L 0.000000000000000888 -1 L 0.866042 -1.5 " transform="matrix(18.75,0,0,-18.75,131.25,187.5)"/>
<path style="fill-rule:nonzero;fill:rgb(31.4%,18.8%,47.5%);fill-opacity:1;stroke-width:0.12;stroke-linecap:round;stroke-linejoin:round;stroke:rgb(0%,0%,0%);stroke-opacity:1;stroke-miterlimit:10;" d="M 0.866042 -1.5 L 0.000000000000000888 -1 L 0.000000000000000888 -2 L 0.866042 -2.5 L 0.866042 -1.5 " transform="matrix(18.75,0,0,-18.75,131.25,187.5)"/>
<path style="fill-rule:nonzero;fill:rgb(100%,56.9%,45.9%);fill-opacity:1;stroke-width:0.12;stroke-linecap:round;stroke-linejoin:round;stroke:rgb(0%,0%,0%);stroke-opacity:1;stroke-miterlimit:10;" d="M 0.866042 -1.5 L 0.866042 -2.5 L 1.732083 -2 L 1.732083 -1 L 0.866042 -1.5 " transform="matrix(18.75,0,0,-18.75,131.25,187.5)"/>
<path style="fill-rule:nonzero;fill:rgb(67.8%,84.7%,100%);fill-opacity:1;stroke-width:0.12;stroke-linecap:round;stroke-linejoin:round;stroke:rgb(0%,0%,0%);stroke-opacity:1;stroke-miterlimit:10;" d="M 2.598125 -1.5 L 3.464167 -1 L 2.598125 -0.5 L 1.732083 -1 L 2.598125 -1.5 " transform="matrix(18.75,0,0,-18.75,131.25,187.5)"/>
<path style="fill-rule:nonzero;fill:rgb(31.4%,18.8%,47.5%);fill-opacity:1;stroke-width:0.12;stroke-linecap:round;stroke-linejoin:round;stroke:rgb(0%,0%,0%);stroke-opacity:1;stroke-miterlimit:10;" d="M 2.598125 -1.5 L 1.732083 -1 L 1.732083 -2 L 2.598125 -2.5 L 2.598125 -1.5 " transform="matrix(18.75,0,0,-18.75,131.25,187.5)"/>
<path style="fill-rule:nonzero;fill:rgb(100%,56.9%,45.9%);fill-opacity:1;stroke-width:0.12;stroke-linecap:round;stroke-linejoin:round;stroke:rgb(0%,0%,0%);stroke-opacity:1;stroke-miterlimit:10;" d="M 2.598125 -1.5 L 2.598125 -2.5 L 3.464167 -2 L 3.464167 -1 L 2.598125 -1.5 " transform="matrix(18.75,0,0,-18.75,131.25,187.5)"/>
<path style="fill-rule:nonzero;fill:rgb(67.8%,84.7%,100%);fill-opacity:1;stroke-width:0.12;stroke-linecap:round;stroke-linejoin:round;stroke:rgb(0%,0%,0%);stroke-opacity:1;stroke-miterlimit:10;" d="M 2.598125 -0.5 L 3.464167 0 L 2.598125 0.5 L 1.732083 0 L 2.598125 -0.5 " transform="matrix(18.75,0,0,-18.75,131.25,187.5)"/>
<path style="fill-rule:nonzero;fill:rgb(31.4%,18.8%,47.5%);fill-opacity:1;stroke-width:0.12;stroke-linecap:round;stroke-linejoin:round;stroke:rgb(0%,0%,0%);stroke-opacity:1;stroke-miterlimit:10;" d="M 2.598125 -0.5 L 1.732083 0 L 1.732083 -1 L 2.598125 -1.5 L 2.598125 -0.5 " transform="matrix(18.75,0,0,-18.75,131.25,187.5)"/>
<path style="fill-rule:nonzero;fill:rgb(100%,56.9%,45.9%);fill-opacity:1;stroke-width:0.12;stroke-linecap:round;stroke-linejoin:round;stroke:rgb(0%,0%,0%);stroke-opacity:1;stroke-miterlimit:10;" d="M 2.598125 -0.5 L 2.598125 -1.5 L 3.464167 -1 L 3.464167 0 L 2.598125 -0.5 " transform="matrix(18.75,0,0,-18.75,131.25,187.5)"/>
<path style="fill-rule:nonzero;fill:rgb(67.8%,84.7%,100%);fill-opacity:1;stroke-width:0.12;stroke-linecap:round;stroke-linejoin:round;stroke:rgb(0%,0%,0%);stroke-opacity:1;stroke-miterlimit:10;" d="M 2.598125 0.5 L 3.464167 1 L 2.598125 1.5 L 1.732083 1 L 2.598125 0.5 " transform="matrix(18.75,0,0,-18.75,131.25,187.5)"/>
<path style="fill-rule:nonzero;fill:rgb(31.4%,18.8%,47.5%);fill-opacity:1;stroke-width:0.12;stroke-linecap:round;stroke-linejoin:round;stroke:rgb(0%,0%,0%);stroke-opacity:1;stroke-miterlimit:10;" d="M 2.598125 0.5 L 1.732083 1 L 1.732083 0 L 2.598125 -0.5 L 2.598125 0.5 " transform="matrix(18.75,0,0,-18.75,131.25,187.5)"/>
<path style="fill-rule:nonzero;fill:rgb(100%,56.9%,45.9%);fill-opacity:1;stroke-width:0.12;stroke-linecap:round;stroke-linejoin:round;stroke:rgb(0%,0%,0%);stroke-opacity:1;stroke-miterlimit:10;" d="M 2.598125 0.5 L 2.598125 -0.5 L 3.464167 0 L 3.464167 1 L 2.598125 0.5 " transform="matrix(18.75,0,0,-18.75,131.25,187.5)"/>
<path style="fill-rule:nonzero;fill:rgb(67.8%,84.7%,100%);fill-opacity:1;stroke-width:0.12;stroke-linecap:round;stroke-linejoin:round;stroke:rgb(0%,0%,0%);stroke-opacity:1;stroke-miterlimit:10;" d="M 3.464167 -2 L 4.330208 -1.5 L 3.464167 -1 L 2.598125 -1.5 L 3.464167 -2 " transform="matrix(18.75,0,0,-18.75,131.25,187.5)"/>
<path style="fill-rule:nonzero;fill:rgb(31.4%,18.8%,47.5%);fill-opacity:1;stroke-width:0.12;stroke-linecap:round;stroke-linejoin:round;stroke:rgb(0%,0%,0%);stroke-opacity:1;stroke-miterlimit:10;" d="M 3.464167 -2 L 2.598125 -1.5 L 2.598125 -2.5 L 3.464167 -3 L 3.464167 -2 " transform="matrix(18.75,0,0,-18.75,131.25,187.5)"/>
<path style="fill-rule:nonzero;fill:rgb(100%,56.9%,45.9%);fill-opacity:1;stroke-width:0.12;stroke-linecap:round;stroke-linejoin:round;stroke:rgb(0%,0%,0%);stroke-opacity:1;stroke-miterlimit:10;" d="M 3.464167 -2 L 3.464167 -3 L 4.330208 -2.5 L 4.330208 -1.5 L 3.464167 -2 " transform="matrix(18.75,0,0,-18.75,131.25,187.5)"/>
<path style="fill-rule:nonzero;fill:rgb(67.8%,84.7%,100%);fill-opacity:1;stroke-width:0.12;stroke-linecap:round;stroke-linejoin:round;stroke:rgb(0%,0%,0%);stroke-opacity:1;stroke-miterlimit:10;" d="M 4.330208 -2.5 L 5.19625 -2 L 4.330208 -1.5 L 3.464167 -2 L 4.330208 -2.5 " transform="matrix(18.75,0,0,-18.75,131.25,187.5)"/>
<path style="fill-rule:nonzero;fill:rgb(31.4%,18.8%,47.5%);fill-opacity:1;stroke-width:0.12;stroke-linecap:round;stroke-linejoin:round;stroke:rgb(0%,0%,0%);stroke-opacity:1;stroke-miterlimit:10;" d="M 4.330208 -2.5 L 3.464167 -2 L 3.464167 -3 L 4.330208 -3.5 L 4.330208 -2.5 " transform="matrix(18.75,0,0,-18.75,131.25,187.5)"/>
<path style="fill-rule:nonzero;fill:rgb(100%,56.9%,45.9%);fill-opacity:1;stroke-width:0.12;stroke-linecap:round;stroke-linejoin:round;stroke:rgb(0%,0%,0%);stroke-opacity:1;stroke-miterlimit:10;" d="M 4.330208 -2.5 L 4.330208 -3.5 L 5.19625 -3 L 5.19625 -2 L 4.330208 -2.5 " transform="matrix(18.75,0,0,-18.75,131.25,187.5)"/>
</g>
</svg>
