<?xml version="1.0" encoding="utf-8" standalone="no"?>
<!DOCTYPE svg PUBLIC "-//W3C//DTD SVG 1.1//EN"
  "http://www.w3.org/Graphics/SVG/1.1/DTD/svg11.dtd">
<!-- Created with matplotlib (https://matplotlib.org/) -->
<svg height="288pt" version="1.1" viewBox="0 0 288 288" width="288pt" xmlns="http://www.w3.org/2000/svg" xmlns:xlink="http://www.w3.org/1999/xlink">
 <metadata>
  <rdf:RDF xmlns:cc="http://creativecommons.org/ns#" xmlns:dc="http://purl.org/dc/elements/1.1/" xmlns:rdf="http://www.w3.org/1999/02/22-rdf-syntax-ns#">
   <cc:Work>
    <dc:type rdf:resource="http://purl.org/dc/dcmitype/StillImage"/>
    <dc:date>2021-06-08T14:31:54.884734</dc:date>
    <dc:format>image/svg+xml</dc:format>
    <dc:creator>
     <cc:Agent>
      <dc:title>Matplotlib v3.3.4, https://matplotlib.org/</dc:title>
     </cc:Agent>
    </dc:creator>
   </cc:Work>
  </rdf:RDF>
 </metadata>
 <defs>
  <style type="text/css">*{stroke-linecap:butt;stroke-linejoin:round;}</style>
 </defs>
 <g id="figure_1">
  <g id="patch_1">
   <path d="M 0 288 
L 288 288 
L 288 0 
L 0 0 
z
" style="fill:#ffffff;"/>
  </g>
  <g id="axes_1">
   <g id="patch_2">
    <path clip-path="url(#pe22431c62b)" d="M 144 172.8 
L 163.953225 161.28 
L 144 149.76 
L 124.046775 161.28 
z
" style="fill:#ff0000;stroke:#000000;stroke-linejoin:miter;"/>
   </g>
   <g id="patch_3">
    <path clip-path="url(#pe22431c62b)" d="M 163.953225 184.32 
L 183.906451 172.8 
L 163.953225 161.28 
L 144 172.8 
z
" style="fill:#ff0000;stroke:#000000;stroke-linejoin:miter;"/>
   </g>
   <g id="patch_4">
    <path clip-path="url(#pe22431c62b)" d="M 183.906451 195.84 
L 203.859676 184.32 
L 183.906451 172.8 
L 163.953225 184.32 
z
" style="fill:#ff0000;stroke:#000000;stroke-linejoin:miter;"/>
   </g>
   <g id="patch_5">
    <path clip-path="url(#pe22431c62b)" d="M 203.859676 207.36 
L 223.812901 195.84 
L 203.859676 184.32 
L 183.906451 195.84 
z
" style="fill:#ff0000;stroke:#000000;stroke-linejoin:miter;"/>
   </g>
   <g id="patch_6">
    <path clip-path="url(#pe22431c62b)" d="M 223.812901 218.88 
L 243.766127 207.36 
L 223.812901 195.84 
L 203.859676 207.36 
z
" style="fill:#ff0000;stroke:#000000;stroke-linejoin:miter;"/>
   </g>
   <g id="patch_7">
    <path clip-path="url(#pe22431c62b)" d="M 124.046775 184.32 
L 144 172.8 
L 124.046775 161.28 
L 104.093549 172.8 
z
" style="fill:#ff0000;stroke:#000000;stroke-linejoin:miter;"/>
   </g>
   <g id="patch_8">
    <path clip-path="url(#pe22431c62b)" d="M 144 195.84 
L 163.953225 184.32 
L 144 172.8 
L 124.046775 184.32 
z
" style="fill:#ff0000;stroke:#000000;stroke-linejoin:miter;"/>
   </g>
   <g id="patch_9">
    <path clip-path="url(#pe22431c62b)" d="M 163.953225 207.36 
L 183.906451 195.84 
L 163.953225 184.32 
L 144 195.84 
z
" style="fill:#ff0000;stroke:#000000;stroke-linejoin:miter;"/>
   </g>
   <g id="patch_10">
    <path clip-path="url(#pe22431c62b)" d="M 183.906451 218.88 
L 203.859676 207.36 
L 183.906451 195.84 
L 163.953225 207.36 
z
" style="fill:#ff0000;stroke:#000000;stroke-linejoin:miter;"/>
   </g>
   <g id="patch_11">
    <path clip-path="url(#pe22431c62b)" d="M 203.859676 230.4 
L 223.812901 218.88 
L 203.859676 207.36 
L 183.906451 218.88 
z
" style="fill:#ff0000;stroke:#000000;stroke-linejoin:miter;"/>
   </g>
   <g id="patch_12">
    <path clip-path="url(#pe22431c62b)" d="M 104.093549 195.84 
L 124.046775 184.32 
L 104.093549 172.8 
L 84.140324 184.32 
z
" style="fill:#ff0000;stroke:#000000;stroke-linejoin:miter;"/>
   </g>
   <g id="patch_13">
    <path clip-path="url(#pe22431c62b)" d="M 124.046775 207.36 
L 144 195.84 
L 124.046775 184.32 
L 104.093549 195.84 
z
" style="fill:#ff0000;stroke:#000000;stroke-linejoin:miter;"/>
   </g>
   <g id="patch_14">
    <path clip-path="url(#pe22431c62b)" d="M 144 218.88 
L 163.953225 207.36 
L 144 195.84 
L 124.046775 207.36 
z
" style="fill:#ff0000;stroke:#000000;stroke-linejoin:miter;"/>
   </g>
   <g id="patch_15">
    <path clip-path="url(#pe22431c62b)" d="M 163.953225 230.4 
L 183.906451 218.88 
L 163.953225 207.36 
L 144 218.88 
z
" style="fill:#ff0000;stroke:#000000;stroke-linejoin:miter;"/>
   </g>
   <g id="patch_16">
    <path clip-path="url(#pe22431c62b)" d="M 183.906451 241.92 
L 203.859676 230.4 
L 183.906451 218.88 
L 163.953225 230.4 
z
" style="fill:#ff0000;stroke:#000000;stroke-linejoin:miter;"/>
   </g>
   <g id="patch_17">
    <path clip-path="url(#pe22431c62b)" d="M 84.140324 207.36 
L 104.093549 195.84 
L 84.140324 184.32 
L 64.187099 195.84 
z
" style="fill:#ff0000;stroke:#000000;stroke-linejoin:miter;"/>
   </g>
   <g id="patch_18">
    <path clip-path="url(#pe22431c62b)" d="M 104.093549 218.88 
L 124.046775 207.36 
L 104.093549 195.84 
L 84.140324 207.36 
z
" style="fill:#ff0000;stroke:#000000;stroke-linejoin:miter;"/>
   </g>
   <g id="patch_19">
    <path clip-path="url(#pe22431c62b)" d="M 124.046775 230.4 
L 144 218.88 
L 124.046775 207.36 
L 104.093549 218.88 
z
" style="fill:#ff0000;stroke:#000000;stroke-linejoin:miter;"/>
   </g>
   <g id="patch_20">
    <path clip-path="url(#pe22431c62b)" d="M 144 241.92 
L 163.953225 230.4 
L 144 218.88 
L 124.046775 230.4 
z
" style="fill:#ff0000;stroke:#000000;stroke-linejoin:miter;"/>
   </g>
   <g id="patch_21">
    <path clip-path="url(#pe22431c62b)" d="M 163.953225 253.44 
L 183.906451 241.92 
L 163.953225 230.4 
L 144 241.92 
z
" style="fill:#ff0000;stroke:#000000;stroke-linejoin:miter;"/>
   </g>
   <g id="patch_22">
    <path clip-path="url(#pe22431c62b)" d="M 64.187099 218.88 
L 84.140324 207.36 
L 64.187099 195.84 
L 44.233873 207.36 
z
" style="fill:#ff0000;stroke:#000000;stroke-linejoin:miter;"/>
   </g>
   <g id="patch_23">
    <path clip-path="url(#pe22431c62b)" d="M 84.140324 230.4 
L 104.093549 218.88 
L 84.140324 207.36 
L 64.187099 218.88 
z
" style="fill:#ff0000;stroke:#000000;stroke-linejoin:miter;"/>
   </g>
   <g id="patch_24">
    <path clip-path="url(#pe22431c62b)" d="M 104.093549 241.92 
L 124.046775 230.4 
L 104.093549 218.88 
L 84.140324 230.4 
z
" style="fill:#ff0000;stroke:#000000;stroke-linejoin:miter;"/>
   </g>
   <g id="patch_25">
    <path clip-path="url(#pe22431c62b)" d="M 124.046775 253.44 
L 144 241.92 
L 124.046775 230.4 
L 104.093549 241.92 
z
" style="fill:#ff0000;stroke:#000000;stroke-linejoin:miter;"/>
   </g>
   <g id="patch_26">
    <path clip-path="url(#pe22431c62b)" d="M 144 264.96 
L 163.953225 253.44 
L 144 241.92 
L 124.046775 253.44 
z
" style="fill:#ff0000;stroke:#000000;stroke-linejoin:miter;"/>
   </g>
   <g id="patch_27">
    <path clip-path="url(#pe22431c62b)" d="M 124.046775 138.24 
L 144 126.72 
L 144 149.76 
L 124.046775 161.28 
z
" style="fill:#bf8040;stroke:#000000;stroke-linejoin:miter;"/>
   </g>
   <g id="patch_28">
    <path clip-path="url(#pe22431c62b)" d="M 124.046775 115.2 
L 144 103.68 
L 144 126.72 
L 124.046775 138.24 
z
" style="fill:#bf8040;stroke:#000000;stroke-linejoin:miter;"/>
   </g>
   <g id="patch_29">
    <path clip-path="url(#pe22431c62b)" d="M 124.046775 92.16 
L 144 80.64 
L 144 103.68 
L 124.046775 115.2 
z
" style="fill:#bf8040;stroke:#000000;stroke-linejoin:miter;"/>
   </g>
   <g id="patch_30">
    <path clip-path="url(#pe22431c62b)" d="M 124.046775 69.12 
L 144 57.6 
L 144 80.64 
L 124.046775 92.16 
z
" style="fill:#bf8040;stroke:#000000;stroke-linejoin:miter;"/>
   </g>
   <g id="patch_31">
    <path clip-path="url(#pe22431c62b)" d="M 124.046775 46.08 
L 144 34.56 
L 144 57.6 
L 124.046775 69.12 
z
" style="fill:#bf8040;stroke:#000000;stroke-linejoin:miter;"/>
   </g>
   <g id="patch_32">
    <path clip-path="url(#pe22431c62b)" d="M 124.046775 23.04 
L 144 11.52 
L 144 34.56 
L 124.046775 46.08 
z
" style="fill:#bf8040;stroke:#000000;stroke-linejoin:miter;"/>
   </g>
   <g id="patch_33">
    <path clip-path="url(#pe22431c62b)" d="M 104.093549 149.76 
L 124.046775 138.24 
L 124.046775 161.28 
L 104.093549 172.8 
z
" style="fill:#bf8040;stroke:#000000;stroke-linejoin:miter;"/>
   </g>
   <g id="patch_34">
    <path clip-path="url(#pe22431c62b)" d="M 104.093549 126.72 
L 124.046775 115.2 
L 124.046775 138.24 
L 104.093549 149.76 
z
" style="fill:#bf8040;stroke:#000000;stroke-linejoin:miter;"/>
   </g>
   <g id="patch_35">
    <path clip-path="url(#pe22431c62b)" d="M 104.093549 103.68 
L 124.046775 92.16 
L 124.046775 115.2 
L 104.093549 126.72 
z
" style="fill:#bf8040;stroke:#000000;stroke-linejoin:miter;"/>
   </g>
   <g id="patch_36">
    <path clip-path="url(#pe22431c62b)" d="M 104.093549 80.64 
L 124.046775 69.12 
L 124.046775 92.16 
L 104.093549 103.68 
z
" style="fill:#bf8040;stroke:#000000;stroke-linejoin:miter;"/>
   </g>
   <g id="patch_37">
    <path clip-path="url(#pe22431c62b)" d="M 104.093549 57.6 
L 124.046775 46.08 
L 124.046775 69.12 
L 104.093549 80.64 
z
" style="fill:#bf8040;stroke:#000000;stroke-linejoin:miter;"/>
   </g>
   <g id="patch_38">
    <path clip-path="url(#pe22431c62b)" d="M 104.093549 34.56 
L 124.046775 23.04 
L 124.046775 46.08 
L 104.093549 57.6 
z
" style="fill:#bf8040;stroke:#000000;stroke-linejoin:miter;"/>
   </g>
   <g id="patch_39">
    <path clip-path="url(#pe22431c62b)" d="M 84.140324 161.28 
L 104.093549 149.76 
L 104.093549 172.8 
L 84.140324 184.32 
z
" style="fill:#bf8040;stroke:#000000;stroke-linejoin:miter;"/>
   </g>
   <g id="patch_40">
    <path clip-path="url(#pe22431c62b)" d="M 84.140324 138.24 
L 104.093549 126.72 
L 104.093549 149.76 
L 84.140324 161.28 
z
" style="fill:#bf8040;stroke:#000000;stroke-linejoin:miter;"/>
   </g>
   <g id="patch_41">
    <path clip-path="url(#pe22431c62b)" d="M 84.140324 115.2 
L 104.093549 103.68 
L 104.093549 126.72 
L 84.140324 138.24 
z
" style="fill:#bf8040;stroke:#000000;stroke-linejoin:miter;"/>
   </g>
   <g id="patch_42">
    <path clip-path="url(#pe22431c62b)" d="M 84.140324 92.16 
L 104.093549 80.64 
L 104.093549 103.68 
L 84.140324 115.2 
z
" style="fill:#bf8040;stroke:#000000;stroke-linejoin:miter;"/>
   </g>
   <g id="patch_43">
    <path clip-path="url(#pe22431c62b)" d="M 84.140324 69.12 
L 104.093549 57.6 
L 104.093549 80.64 
L 84.140324 92.16 
z
" style="fill:#bf8040;stroke:#000000;stroke-linejoin:miter;"/>
   </g>
   <g id="patch_44">
    <path clip-path="url(#pe22431c62b)" d="M 84.140324 46.08 
L 104.093549 34.56 
L 104.093549 57.6 
L 84.140324 69.12 
z
" style="fill:#bf8040;stroke:#000000;stroke-linejoin:miter;"/>
   </g>
   <g id="patch_45">
    <path clip-path="url(#pe22431c62b)" d="M 64.187099 172.8 
L 84.140324 161.28 
L 84.140324 184.32 
L 64.187099 195.84 
z
" style="fill:#bf8040;stroke:#000000;stroke-linejoin:miter;"/>
   </g>
   <g id="patch_46">
    <path clip-path="url(#pe22431c62b)" d="M 64.187099 149.76 
L 84.140324 138.24 
L 84.140324 161.28 
L 64.187099 172.8 
z
" style="fill:#bf8040;stroke:#000000;stroke-linejoin:miter;"/>
   </g>
   <g id="patch_47">
    <path clip-path="url(#pe22431c62b)" d="M 64.187099 126.72 
L 84.140324 115.2 
L 84.140324 138.24 
L 64.187099 149.76 
z
" style="fill:#bf8040;stroke:#000000;stroke-linejoin:miter;"/>
   </g>
   <g id="patch_48">
    <path clip-path="url(#pe22431c62b)" d="M 64.187099 103.68 
L 84.140324 92.16 
L 84.140324 115.2 
L 64.187099 126.72 
z
" style="fill:#bf8040;stroke:#000000;stroke-linejoin:miter;"/>
   </g>
   <g id="patch_49">
    <path clip-path="url(#pe22431c62b)" d="M 64.187099 80.64 
L 84.140324 69.12 
L 84.140324 92.16 
L 64.187099 103.68 
z
" style="fill:#bf8040;stroke:#000000;stroke-linejoin:miter;"/>
   </g>
   <g id="patch_50">
    <path clip-path="url(#pe22431c62b)" d="M 64.187099 57.6 
L 84.140324 46.08 
L 84.140324 69.12 
L 64.187099 80.64 
z
" style="fill:#bf8040;stroke:#000000;stroke-linejoin:miter;"/>
   </g>
   <g id="patch_51">
    <path clip-path="url(#pe22431c62b)" d="M 44.233873 184.32 
L 64.187099 172.8 
L 64.187099 195.84 
L 44.233873 207.36 
z
" style="fill:#bf8040;stroke:#000000;stroke-linejoin:miter;"/>
   </g>
   <g id="patch_52">
    <path clip-path="url(#pe22431c62b)" d="M 44.233873 161.28 
L 64.187099 149.76 
L 64.187099 172.8 
L 44.233873 184.32 
z
" style="fill:#bf8040;stroke:#000000;stroke-linejoin:miter;"/>
   </g>
   <g id="patch_53">
    <path clip-path="url(#pe22431c62b)" d="M 44.233873 138.24 
L 64.187099 126.72 
L 64.187099 149.76 
L 44.233873 161.28 
z
" style="fill:#bf8040;stroke:#000000;stroke-linejoin:miter;"/>
   </g>
   <g id="patch_54">
    <path clip-path="url(#pe22431c62b)" d="M 44.233873 115.2 
L 64.187099 103.68 
L 64.187099 126.72 
L 44.233873 138.24 
z
" style="fill:#bf8040;stroke:#000000;stroke-linejoin:miter;"/>
   </g>
   <g id="patch_55">
    <path clip-path="url(#pe22431c62b)" d="M 44.233873 92.16 
L 64.187099 80.64 
L 64.187099 103.68 
L 44.233873 115.2 
z
" style="fill:#bf8040;stroke:#000000;stroke-linejoin:miter;"/>
   </g>
   <g id="patch_56">
    <path clip-path="url(#pe22431c62b)" d="M 44.233873 69.12 
L 64.187099 57.6 
L 64.187099 80.64 
L 44.233873 92.16 
z
" style="fill:#bf8040;stroke:#000000;stroke-linejoin:miter;"/>
   </g>
   <g id="patch_57">
    <path clip-path="url(#pe22431c62b)" d="M 163.953225 138.24 
L 144 126.72 
L 144 149.76 
L 163.953225 161.28 
z
" style="fill:#00ffff;stroke:#000000;stroke-linejoin:miter;"/>
   </g>
   <g id="patch_58">
    <path clip-path="url(#pe22431c62b)" d="M 163.953225 115.2 
L 144 103.68 
L 144 126.72 
L 163.953225 138.24 
z
" style="fill:#00ffff;stroke:#000000;stroke-linejoin:miter;"/>
   </g>
   <g id="patch_59">
    <path clip-path="url(#pe22431c62b)" d="M 163.953225 92.16 
L 144 80.64 
L 144 103.68 
L 163.953225 115.2 
z
" style="fill:#00ffff;stroke:#000000;stroke-linejoin:miter;"/>
   </g>
   <g id="patch_60">
    <path clip-path="url(#pe22431c62b)" d="M 163.953225 69.12 
L 144 57.6 
L 144 80.64 
L 163.953225 92.16 
z
" style="fill:#00ffff;stroke:#000000;stroke-linejoin:miter;"/>
   </g>
   <g id="patch_61">
    <path clip-path="url(#pe22431c62b)" d="M 163.953225 46.08 
L 144 34.56 
L 144 57.6 
L 163.953225 69.12 
z
" style="fill:#00ffff;stroke:#000000;stroke-linejoin:miter;"/>
   </g>
   <g id="patch_62">
    <path clip-path="url(#pe22431c62b)" d="M 163.953225 23.04 
L 144 11.52 
L 144 34.56 
L 163.953225 46.08 
z
" style="fill:#00ffff;stroke:#000000;stroke-linejoin:miter;"/>
   </g>
   <g id="patch_63">
    <path clip-path="url(#pe22431c62b)" d="M 183.906451 149.76 
L 163.953225 138.24 
L 163.953225 161.28 
L 183.906451 172.8 
z
" style="fill:#00ffff;stroke:#000000;stroke-linejoin:miter;"/>
   </g>
   <g id="patch_64">
    <path clip-path="url(#pe22431c62b)" d="M 183.906451 126.72 
L 163.953225 115.2 
L 163.953225 138.24 
L 183.906451 149.76 
z
" style="fill:#00ffff;stroke:#000000;stroke-linejoin:miter;"/>
   </g>
   <g id="patch_65">
    <path clip-path="url(#pe22431c62b)" d="M 183.906451 103.68 
L 163.953225 92.16 
L 163.953225 115.2 
L 183.906451 126.72 
z
" style="fill:#00ffff;stroke:#000000;stroke-linejoin:miter;"/>
   </g>
   <g id="patch_66">
    <path clip-path="url(#pe22431c62b)" d="M 183.906451 80.64 
L 163.953225 69.12 
L 163.953225 92.16 
L 183.906451 103.68 
z
" style="fill:#00ffff;stroke:#000000;stroke-linejoin:miter;"/>
   </g>
   <g id="patch_67">
    <path clip-path="url(#pe22431c62b)" d="M 183.906451 57.6 
L 163.953225 46.08 
L 163.953225 69.12 
L 183.906451 80.64 
z
" style="fill:#00ffff;stroke:#000000;stroke-linejoin:miter;"/>
   </g>
   <g id="patch_68">
    <path clip-path="url(#pe22431c62b)" d="M 183.906451 34.56 
L 163.953225 23.04 
L 163.953225 46.08 
L 183.906451 57.6 
z
" style="fill:#00ffff;stroke:#000000;stroke-linejoin:miter;"/>
   </g>
   <g id="patch_69">
    <path clip-path="url(#pe22431c62b)" d="M 203.859676 161.28 
L 183.906451 149.76 
L 183.906451 172.8 
L 203.859676 184.32 
z
" style="fill:#00ffff;stroke:#000000;stroke-linejoin:miter;"/>
   </g>
   <g id="patch_70">
    <path clip-path="url(#pe22431c62b)" d="M 203.859676 138.24 
L 183.906451 126.72 
L 183.906451 149.76 
L 203.859676 161.28 
z
" style="fill:#00ffff;stroke:#000000;stroke-linejoin:miter;"/>
   </g>
   <g id="patch_71">
    <path clip-path="url(#pe22431c62b)" d="M 203.859676 115.2 
L 183.906451 103.68 
L 183.906451 126.72 
L 203.859676 138.24 
z
" style="fill:#00ffff;stroke:#000000;stroke-linejoin:miter;"/>
   </g>
   <g id="patch_72">
    <path clip-path="url(#pe22431c62b)" d="M 203.859676 92.16 
L 183.906451 80.64 
L 183.906451 103.68 
L 203.859676 115.2 
z
" style="fill:#00ffff;stroke:#000000;stroke-linejoin:miter;"/>
   </g>
   <g id="patch_73">
    <path clip-path="url(#pe22431c62b)" d="M 203.859676 69.12 
L 183.906451 57.6 
L 183.906451 80.64 
L 203.859676 92.16 
z
" style="fill:#00ffff;stroke:#000000;stroke-linejoin:miter;"/>
   </g>
   <g id="patch_74">
    <path clip-path="url(#pe22431c62b)" d="M 203.859676 46.08 
L 183.906451 34.56 
L 183.906451 57.6 
L 203.859676 69.12 
z
" style="fill:#00ffff;stroke:#000000;stroke-linejoin:miter;"/>
   </g>
   <g id="patch_75">
    <path clip-path="url(#pe22431c62b)" d="M 223.812901 172.8 
L 203.859676 161.28 
L 203.859676 184.32 
L 223.812901 195.84 
z
" style="fill:#00ffff;stroke:#000000;stroke-linejoin:miter;"/>
   </g>
   <g id="patch_76">
    <path clip-path="url(#pe22431c62b)" d="M 223.812901 149.76 
L 203.859676 138.24 
L 203.859676 161.28 
L 223.812901 172.8 
z
" style="fill:#00ffff;stroke:#000000;stroke-linejoin:miter;"/>
   </g>
   <g id="patch_77">
    <path clip-path="url(#pe22431c62b)" d="M 223.812901 126.72 
L 203.859676 115.2 
L 203.859676 138.24 
L 223.812901 149.76 
z
" style="fill:#00ffff;stroke:#000000;stroke-linejoin:miter;"/>
   </g>
   <g id="patch_78">
    <path clip-path="url(#pe22431c62b)" d="M 223.812901 103.68 
L 203.859676 92.16 
L 203.859676 115.2 
L 223.812901 126.72 
z
" style="fill:#00ffff;stroke:#000000;stroke-linejoin:miter;"/>
   </g>
   <g id="patch_79">
    <path clip-path="url(#pe22431c62b)" d="M 223.812901 80.64 
L 203.859676 69.12 
L 203.859676 92.16 
L 223.812901 103.68 
z
" style="fill:#00ffff;stroke:#000000;stroke-linejoin:miter;"/>
   </g>
   <g id="patch_80">
    <path clip-path="url(#pe22431c62b)" d="M 223.812901 57.6 
L 203.859676 46.08 
L 203.859676 69.12 
L 223.812901 80.64 
z
" style="fill:#00ffff;stroke:#000000;stroke-linejoin:miter;"/>
   </g>
   <g id="patch_81">
    <path clip-path="url(#pe22431c62b)" d="M 243.766127 184.32 
L 223.812901 172.8 
L 223.812901 195.84 
L 243.766127 207.36 
z
" style="fill:#00ffff;stroke:#000000;stroke-linejoin:miter;"/>
   </g>
   <g id="patch_82">
    <path clip-path="url(#pe22431c62b)" d="M 243.766127 161.28 
L 223.812901 149.76 
L 223.812901 172.8 
L 243.766127 184.32 
z
" style="fill:#00ffff;stroke:#000000;stroke-linejoin:miter;"/>
   </g>
   <g id="patch_83">
    <path clip-path="url(#pe22431c62b)" d="M 243.766127 138.24 
L 223.812901 126.72 
L 223.812901 149.76 
L 243.766127 161.28 
z
" style="fill:#00ffff;stroke:#000000;stroke-linejoin:miter;"/>
   </g>
   <g id="patch_84">
    <path clip-path="url(#pe22431c62b)" d="M 243.766127 115.2 
L 223.812901 103.68 
L 223.812901 126.72 
L 243.766127 138.24 
z
" style="fill:#00ffff;stroke:#000000;stroke-linejoin:miter;"/>
   </g>
   <g id="patch_85">
    <path clip-path="url(#pe22431c62b)" d="M 243.766127 92.16 
L 223.812901 80.64 
L 223.812901 103.68 
L 243.766127 115.2 
z
" style="fill:#00ffff;stroke:#000000;stroke-linejoin:miter;"/>
   </g>
   <g id="patch_86">
    <path clip-path="url(#pe22431c62b)" d="M 243.766127 69.12 
L 223.812901 57.6 
L 223.812901 80.64 
L 243.766127 92.16 
z
" style="fill:#00ffff;stroke:#000000;stroke-linejoin:miter;"/>
   </g>
   <g id="patch_87">
    <path clip-path="url(#pe22431c62b)" d="M 144 149.76 
L 163.953225 138.24 
L 144 126.72 
L 124.046775 138.24 
z
" style="fill:#ff0000;stroke:#000000;stroke-linejoin:miter;"/>
   </g>
   <g id="patch_88">
    <path clip-path="url(#pe22431c62b)" d="M 144 149.76 
L 163.953225 138.24 
L 163.953225 161.28 
L 144 172.8 
z
" style="fill:#bf8040;stroke:#000000;stroke-linejoin:miter;"/>
   </g>
   <g id="patch_89">
    <path clip-path="url(#pe22431c62b)" d="M 144 149.76 
L 124.046775 138.24 
L 124.046775 161.28 
L 144 172.8 
z
" style="fill:#00ffff;stroke:#000000;stroke-linejoin:miter;"/>
   </g>
   <g id="patch_90">
    <path clip-path="url(#pe22431c62b)" d="M 144 126.72 
L 163.953225 115.2 
L 144 103.68 
L 124.046775 115.2 
z
" style="fill:#ff0000;stroke:#000000;stroke-linejoin:miter;"/>
   </g>
   <g id="patch_91">
    <path clip-path="url(#pe22431c62b)" d="M 144 126.72 
L 163.953225 115.2 
L 163.953225 138.24 
L 144 149.76 
z
" style="fill:#bf8040;stroke:#000000;stroke-linejoin:miter;"/>
   </g>
   <g id="patch_92">
    <path clip-path="url(#pe22431c62b)" d="M 144 126.72 
L 124.046775 115.2 
L 124.046775 138.24 
L 144 149.76 
z
" style="fill:#00ffff;stroke:#000000;stroke-linejoin:miter;"/>
   </g>
   <g id="patch_93">
    <path clip-path="url(#pe22431c62b)" d="M 144 103.68 
L 163.953225 92.16 
L 144 80.64 
L 124.046775 92.16 
z
" style="fill:#ff0000;stroke:#000000;stroke-linejoin:miter;"/>
   </g>
   <g id="patch_94">
    <path clip-path="url(#pe22431c62b)" d="M 144 103.68 
L 163.953225 92.16 
L 163.953225 115.2 
L 144 126.72 
z
" style="fill:#bf8040;stroke:#000000;stroke-linejoin:miter;"/>
   </g>
   <g id="patch_95">
    <path clip-path="url(#pe22431c62b)" d="M 144 103.68 
L 124.046775 92.16 
L 124.046775 115.2 
L 144 126.72 
z
" style="fill:#00ffff;stroke:#000000;stroke-linejoin:miter;"/>
   </g>
   <g id="patch_96">
    <path clip-path="url(#pe22431c62b)" d="M 144 80.64 
L 163.953225 69.12 
L 144 57.6 
L 124.046775 69.12 
z
" style="fill:#ff0000;stroke:#000000;stroke-linejoin:miter;"/>
   </g>
   <g id="patch_97">
    <path clip-path="url(#pe22431c62b)" d="M 144 80.64 
L 163.953225 69.12 
L 163.953225 92.16 
L 144 103.68 
z
" style="fill:#bf8040;stroke:#000000;stroke-linejoin:miter;"/>
   </g>
   <g id="patch_98">
    <path clip-path="url(#pe22431c62b)" d="M 144 80.64 
L 124.046775 69.12 
L 124.046775 92.16 
L 144 103.68 
z
" style="fill:#00ffff;stroke:#000000;stroke-linejoin:miter;"/>
   </g>
   <g id="patch_99">
    <path clip-path="url(#pe22431c62b)" d="M 144 57.6 
L 163.953225 46.08 
L 144 34.56 
L 124.046775 46.08 
z
" style="fill:#ff0000;stroke:#000000;stroke-linejoin:miter;"/>
   </g>
   <g id="patch_100">
    <path clip-path="url(#pe22431c62b)" d="M 144 57.6 
L 163.953225 46.08 
L 163.953225 69.12 
L 144 80.64 
z
" style="fill:#bf8040;stroke:#000000;stroke-linejoin:miter;"/>
   </g>
   <g id="patch_101">
    <path clip-path="url(#pe22431c62b)" d="M 144 57.6 
L 124.046775 46.08 
L 124.046775 69.12 
L 144 80.64 
z
" style="fill:#00ffff;stroke:#000000;stroke-linejoin:miter;"/>
   </g>
   <g id="patch_102">
    <path clip-path="url(#pe22431c62b)" d="M 144 34.56 
L 163.953225 23.04 
L 144 11.52 
L 124.046775 23.04 
z
" style="fill:#ff0000;stroke:#000000;stroke-linejoin:miter;"/>
   </g>
   <g id="patch_103">
    <path clip-path="url(#pe22431c62b)" d="M 144 34.56 
L 163.953225 23.04 
L 163.953225 46.08 
L 144 57.6 
z
" style="fill:#bf8040;stroke:#000000;stroke-linejoin:miter;"/>
   </g>
   <g id="patch_104">
    <path clip-path="url(#pe22431c62b)" d="M 144 34.56 
L 124.046775 23.04 
L 124.046775 46.08 
L 144 57.6 
z
" style="fill:#00ffff;stroke:#000000;stroke-linejoin:miter;"/>
   </g>
   <g id="patch_105">
    <path clip-path="url(#pe22431c62b)" d="M 163.953225 161.28 
L 183.906451 149.76 
L 163.953225 138.24 
L 144 149.76 
z
" style="fill:#ff0000;stroke:#000000;stroke-linejoin:miter;"/>
   </g>
   <g id="patch_106">
    <path clip-path="url(#pe22431c62b)" d="M 163.953225 161.28 
L 183.906451 149.76 
L 183.906451 172.8 
L 163.953225 184.32 
z
" style="fill:#bf8040;stroke:#000000;stroke-linejoin:miter;"/>
   </g>
   <g id="patch_107">
    <path clip-path="url(#pe22431c62b)" d="M 163.953225 161.28 
L 144 149.76 
L 144 172.8 
L 163.953225 184.32 
z
" style="fill:#00ffff;stroke:#000000;stroke-linejoin:miter;"/>
   </g>
   <g id="patch_108">
    <path clip-path="url(#pe22431c62b)" d="M 163.953225 138.24 
L 183.906451 126.72 
L 163.953225 115.2 
L 144 126.72 
z
" style="fill:#ff0000;stroke:#000000;stroke-linejoin:miter;"/>
   </g>
   <g id="patch_109">
    <path clip-path="url(#pe22431c62b)" d="M 163.953225 138.24 
L 183.906451 126.72 
L 183.906451 149.76 
L 163.953225 161.28 
z
" style="fill:#bf8040;stroke:#000000;stroke-linejoin:miter;"/>
   </g>
   <g id="patch_110">
    <path clip-path="url(#pe22431c62b)" d="M 163.953225 138.24 
L 144 126.72 
L 144 149.76 
L 163.953225 161.28 
z
" style="fill:#00ffff;stroke:#000000;stroke-linejoin:miter;"/>
   </g>
   <g id="patch_111">
    <path clip-path="url(#pe22431c62b)" d="M 163.953225 115.2 
L 183.906451 103.68 
L 163.953225 92.16 
L 144 103.68 
z
" style="fill:#ff0000;stroke:#000000;stroke-linejoin:miter;"/>
   </g>
   <g id="patch_112">
    <path clip-path="url(#pe22431c62b)" d="M 163.953225 115.2 
L 183.906451 103.68 
L 183.906451 126.72 
L 163.953225 138.24 
z
" style="fill:#bf8040;stroke:#000000;stroke-linejoin:miter;"/>
   </g>
   <g id="patch_113">
    <path clip-path="url(#pe22431c62b)" d="M 163.953225 115.2 
L 144 103.68 
L 144 126.72 
L 163.953225 138.24 
z
" style="fill:#00ffff;stroke:#000000;stroke-linejoin:miter;"/>
   </g>
   <g id="patch_114">
    <path clip-path="url(#pe22431c62b)" d="M 163.953225 92.16 
L 183.906451 80.64 
L 163.953225 69.12 
L 144 80.64 
z
" style="fill:#ff0000;stroke:#000000;stroke-linejoin:miter;"/>
   </g>
   <g id="patch_115">
    <path clip-path="url(#pe22431c62b)" d="M 163.953225 92.16 
L 183.906451 80.64 
L 183.906451 103.68 
L 163.953225 115.2 
z
" style="fill:#bf8040;stroke:#000000;stroke-linejoin:miter;"/>
   </g>
   <g id="patch_116">
    <path clip-path="url(#pe22431c62b)" d="M 163.953225 92.16 
L 144 80.64 
L 144 103.68 
L 163.953225 115.2 
z
" style="fill:#00ffff;stroke:#000000;stroke-linejoin:miter;"/>
   </g>
   <g id="patch_117">
    <path clip-path="url(#pe22431c62b)" d="M 183.906451 172.8 
L 203.859676 161.28 
L 183.906451 149.76 
L 163.953225 161.28 
z
" style="fill:#ff0000;stroke:#000000;stroke-linejoin:miter;"/>
   </g>
   <g id="patch_118">
    <path clip-path="url(#pe22431c62b)" d="M 183.906451 172.8 
L 203.859676 161.28 
L 203.859676 184.32 
L 183.906451 195.84 
z
" style="fill:#bf8040;stroke:#000000;stroke-linejoin:miter;"/>
   </g>
   <g id="patch_119">
    <path clip-path="url(#pe22431c62b)" d="M 183.906451 172.8 
L 163.953225 161.28 
L 163.953225 184.32 
L 183.906451 195.84 
z
" style="fill:#00ffff;stroke:#000000;stroke-linejoin:miter;"/>
   </g>
   <g id="patch_120">
    <path clip-path="url(#pe22431c62b)" d="M 183.906451 149.76 
L 203.859676 138.24 
L 183.906451 126.72 
L 163.953225 138.24 
z
" style="fill:#ff0000;stroke:#000000;stroke-linejoin:miter;"/>
   </g>
   <g id="patch_121">
    <path clip-path="url(#pe22431c62b)" d="M 183.906451 149.76 
L 203.859676 138.24 
L 203.859676 161.28 
L 183.906451 172.8 
z
" style="fill:#bf8040;stroke:#000000;stroke-linejoin:miter;"/>
   </g>
   <g id="patch_122">
    <path clip-path="url(#pe22431c62b)" d="M 183.906451 149.76 
L 163.953225 138.24 
L 163.953225 161.28 
L 183.906451 172.8 
z
" style="fill:#00ffff;stroke:#000000;stroke-linejoin:miter;"/>
   </g>
   <g id="patch_123">
    <path clip-path="url(#pe22431c62b)" d="M 183.906451 126.72 
L 203.859676 115.2 
L 183.906451 103.68 
L 163.953225 115.2 
z
" style="fill:#ff0000;stroke:#000000;stroke-linejoin:miter;"/>
   </g>
   <g id="patch_124">
    <path clip-path="url(#pe22431c62b)" d="M 183.906451 126.72 
L 203.859676 115.2 
L 203.859676 138.24 
L 183.906451 149.76 
z
" style="fill:#bf8040;stroke:#000000;stroke-linejoin:miter;"/>
   </g>
   <g id="patch_125">
    <path clip-path="url(#pe22431c62b)" d="M 183.906451 126.72 
L 163.953225 115.2 
L 163.953225 138.24 
L 183.906451 149.76 
z
" style="fill:#00ffff;stroke:#000000;stroke-linejoin:miter;"/>
   </g>
   <g id="patch_126">
    <path clip-path="url(#pe22431c62b)" d="M 203.859676 184.32 
L 223.812901 172.8 
L 203.859676 161.28 
L 183.906451 172.8 
z
" style="fill:#ff0000;stroke:#000000;stroke-linejoin:miter;"/>
   </g>
   <g id="patch_127">
    <path clip-path="url(#pe22431c62b)" d="M 203.859676 184.32 
L 223.812901 172.8 
L 223.812901 195.84 
L 203.859676 207.36 
z
" style="fill:#bf8040;stroke:#000000;stroke-linejoin:miter;"/>
   </g>
   <g id="patch_128">
    <path clip-path="url(#pe22431c62b)" d="M 203.859676 184.32 
L 183.906451 172.8 
L 183.906451 195.84 
L 203.859676 207.36 
z
" style="fill:#00ffff;stroke:#000000;stroke-linejoin:miter;"/>
   </g>
   <g id="patch_129">
    <path clip-path="url(#pe22431c62b)" d="M 203.859676 161.28 
L 223.812901 149.76 
L 203.859676 138.24 
L 183.906451 149.76 
z
" style="fill:#ff0000;stroke:#000000;stroke-linejoin:miter;"/>
   </g>
   <g id="patch_130">
    <path clip-path="url(#pe22431c62b)" d="M 203.859676 161.28 
L 223.812901 149.76 
L 223.812901 172.8 
L 203.859676 184.32 
z
" style="fill:#bf8040;stroke:#000000;stroke-linejoin:miter;"/>
   </g>
   <g id="patch_131">
    <path clip-path="url(#pe22431c62b)" d="M 203.859676 161.28 
L 183.906451 149.76 
L 183.906451 172.8 
L 203.859676 184.32 
z
" style="fill:#00ffff;stroke:#000000;stroke-linejoin:miter;"/>
   </g>
   <g id="patch_132">
    <path clip-path="url(#pe22431c62b)" d="M 203.859676 138.24 
L 223.812901 126.72 
L 203.859676 115.2 
L 183.906451 126.72 
z
" style="fill:#ff0000;stroke:#000000;stroke-linejoin:miter;"/>
   </g>
   <g id="patch_133">
    <path clip-path="url(#pe22431c62b)" d="M 203.859676 138.24 
L 223.812901 126.72 
L 223.812901 149.76 
L 203.859676 161.28 
z
" style="fill:#bf8040;stroke:#000000;stroke-linejoin:miter;"/>
   </g>
   <g id="patch_134">
    <path clip-path="url(#pe22431c62b)" d="M 203.859676 138.24 
L 183.906451 126.72 
L 183.906451 149.76 
L 203.859676 161.28 
z
" style="fill:#00ffff;stroke:#000000;stroke-linejoin:miter;"/>
   </g>
   <g id="patch_135">
    <path clip-path="url(#pe22431c62b)" d="M 223.812901 195.84 
L 243.766127 184.32 
L 223.812901 172.8 
L 203.859676 184.32 
z
" style="fill:#ff0000;stroke:#000000;stroke-linejoin:miter;"/>
   </g>
   <g id="patch_136">
    <path clip-path="url(#pe22431c62b)" d="M 223.812901 195.84 
L 243.766127 184.32 
L 243.766127 207.36 
L 223.812901 218.88 
z
" style="fill:#bf8040;stroke:#000000;stroke-linejoin:miter;"/>
   </g>
   <g id="patch_137">
    <path clip-path="url(#pe22431c62b)" d="M 223.812901 195.84 
L 203.859676 184.32 
L 203.859676 207.36 
L 223.812901 218.88 
z
" style="fill:#00ffff;stroke:#000000;stroke-linejoin:miter;"/>
   </g>
   <g id="patch_138">
    <path clip-path="url(#pe22431c62b)" d="M 124.046775 161.28 
L 144 149.76 
L 124.046775 138.24 
L 104.093549 149.76 
z
" style="fill:#ff0000;stroke:#000000;stroke-linejoin:miter;"/>
   </g>
   <g id="patch_139">
    <path clip-path="url(#pe22431c62b)" d="M 124.046775 161.28 
L 144 149.76 
L 144 172.8 
L 124.046775 184.32 
z
" style="fill:#bf8040;stroke:#000000;stroke-linejoin:miter;"/>
   </g>
   <g id="patch_140">
    <path clip-path="url(#pe22431c62b)" d="M 124.046775 161.28 
L 104.093549 149.76 
L 104.093549 172.8 
L 124.046775 184.32 
z
" style="fill:#00ffff;stroke:#000000;stroke-linejoin:miter;"/>
   </g>
   <g id="patch_141">
    <path clip-path="url(#pe22431c62b)" d="M 124.046775 138.24 
L 144 126.72 
L 124.046775 115.2 
L 104.093549 126.72 
z
" style="fill:#ff0000;stroke:#000000;stroke-linejoin:miter;"/>
   </g>
   <g id="patch_142">
    <path clip-path="url(#pe22431c62b)" d="M 124.046775 138.24 
L 144 126.72 
L 144 149.76 
L 124.046775 161.28 
z
" style="fill:#bf8040;stroke:#000000;stroke-linejoin:miter;"/>
   </g>
   <g id="patch_143">
    <path clip-path="url(#pe22431c62b)" d="M 124.046775 138.24 
L 104.093549 126.72 
L 104.093549 149.76 
L 124.046775 161.28 
z
" style="fill:#00ffff;stroke:#000000;stroke-linejoin:miter;"/>
   </g>
   <g id="patch_144">
    <path clip-path="url(#pe22431c62b)" d="M 124.046775 115.2 
L 144 103.68 
L 124.046775 92.16 
L 104.093549 103.68 
z
" style="fill:#ff0000;stroke:#000000;stroke-linejoin:miter;"/>
   </g>
   <g id="patch_145">
    <path clip-path="url(#pe22431c62b)" d="M 124.046775 115.2 
L 144 103.68 
L 144 126.72 
L 124.046775 138.24 
z
" style="fill:#bf8040;stroke:#000000;stroke-linejoin:miter;"/>
   </g>
   <g id="patch_146">
    <path clip-path="url(#pe22431c62b)" d="M 124.046775 115.2 
L 104.093549 103.68 
L 104.093549 126.72 
L 124.046775 138.24 
z
" style="fill:#00ffff;stroke:#000000;stroke-linejoin:miter;"/>
   </g>
   <g id="patch_147">
    <path clip-path="url(#pe22431c62b)" d="M 124.046775 92.16 
L 144 80.64 
L 124.046775 69.12 
L 104.093549 80.64 
z
" style="fill:#ff0000;stroke:#000000;stroke-linejoin:miter;"/>
   </g>
   <g id="patch_148">
    <path clip-path="url(#pe22431c62b)" d="M 124.046775 92.16 
L 144 80.64 
L 144 103.68 
L 124.046775 115.2 
z
" style="fill:#bf8040;stroke:#000000;stroke-linejoin:miter;"/>
   </g>
   <g id="patch_149">
    <path clip-path="url(#pe22431c62b)" d="M 124.046775 92.16 
L 104.093549 80.64 
L 104.093549 103.68 
L 124.046775 115.2 
z
" style="fill:#00ffff;stroke:#000000;stroke-linejoin:miter;"/>
   </g>
   <g id="patch_150">
    <path clip-path="url(#pe22431c62b)" d="M 144 172.8 
L 163.953225 161.28 
L 144 149.76 
L 124.046775 161.28 
z
" style="fill:#ff0000;stroke:#000000;stroke-linejoin:miter;"/>
   </g>
   <g id="patch_151">
    <path clip-path="url(#pe22431c62b)" d="M 144 172.8 
L 163.953225 161.28 
L 163.953225 184.32 
L 144 195.84 
z
" style="fill:#bf8040;stroke:#000000;stroke-linejoin:miter;"/>
   </g>
   <g id="patch_152">
    <path clip-path="url(#pe22431c62b)" d="M 144 172.8 
L 124.046775 161.28 
L 124.046775 184.32 
L 144 195.84 
z
" style="fill:#00ffff;stroke:#000000;stroke-linejoin:miter;"/>
   </g>
   <g id="patch_153">
    <path clip-path="url(#pe22431c62b)" d="M 144 149.76 
L 163.953225 138.24 
L 144 126.72 
L 124.046775 138.24 
z
" style="fill:#ff0000;stroke:#000000;stroke-linejoin:miter;"/>
   </g>
   <g id="patch_154">
    <path clip-path="url(#pe22431c62b)" d="M 144 149.76 
L 163.953225 138.24 
L 163.953225 161.28 
L 144 172.8 
z
" style="fill:#bf8040;stroke:#000000;stroke-linejoin:miter;"/>
   </g>
   <g id="patch_155">
    <path clip-path="url(#pe22431c62b)" d="M 144 149.76 
L 124.046775 138.24 
L 124.046775 161.28 
L 144 172.8 
z
" style="fill:#00ffff;stroke:#000000;stroke-linejoin:miter;"/>
   </g>
   <g id="patch_156">
    <path clip-path="url(#pe22431c62b)" d="M 144 126.72 
L 163.953225 115.2 
L 144 103.68 
L 124.046775 115.2 
z
" style="fill:#ff0000;stroke:#000000;stroke-linejoin:miter;"/>
   </g>
   <g id="patch_157">
    <path clip-path="url(#pe22431c62b)" d="M 144 126.72 
L 163.953225 115.2 
L 163.953225 138.24 
L 144 149.76 
z
" style="fill:#bf8040;stroke:#000000;stroke-linejoin:miter;"/>
   </g>
   <g id="patch_158">
    <path clip-path="url(#pe22431c62b)" d="M 144 126.72 
L 124.046775 115.2 
L 124.046775 138.24 
L 144 149.76 
z
" style="fill:#00ffff;stroke:#000000;stroke-linejoin:miter;"/>
   </g>
   <g id="patch_159">
    <path clip-path="url(#pe22431c62b)" d="M 163.953225 184.32 
L 183.906451 172.8 
L 163.953225 161.28 
L 144 172.8 
z
" style="fill:#ff0000;stroke:#000000;stroke-linejoin:miter;"/>
   </g>
   <g id="patch_160">
    <path clip-path="url(#pe22431c62b)" d="M 163.953225 184.32 
L 183.906451 172.8 
L 183.906451 195.84 
L 163.953225 207.36 
z
" style="fill:#bf8040;stroke:#000000;stroke-linejoin:miter;"/>
   </g>
   <g id="patch_161">
    <path clip-path="url(#pe22431c62b)" d="M 163.953225 184.32 
L 144 172.8 
L 144 195.84 
L 163.953225 207.36 
z
" style="fill:#00ffff;stroke:#000000;stroke-linejoin:miter;"/>
   </g>
   <g id="patch_162">
    <path clip-path="url(#pe22431c62b)" d="M 163.953225 161.28 
L 183.906451 149.76 
L 163.953225 138.24 
L 144 149.76 
z
" style="fill:#ff0000;stroke:#000000;stroke-linejoin:miter;"/>
   </g>
   <g id="patch_163">
    <path clip-path="url(#pe22431c62b)" d="M 163.953225 161.28 
L 183.906451 149.76 
L 183.906451 172.8 
L 163.953225 184.32 
z
" style="fill:#bf8040;stroke:#000000;stroke-linejoin:miter;"/>
   </g>
   <g id="patch_164">
    <path clip-path="url(#pe22431c62b)" d="M 163.953225 161.28 
L 144 149.76 
L 144 172.8 
L 163.953225 184.32 
z
" style="fill:#00ffff;stroke:#000000;stroke-linejoin:miter;"/>
   </g>
   <g id="patch_165">
    <path clip-path="url(#pe22431c62b)" d="M 183.906451 195.84 
L 203.859676 184.32 
L 183.906451 172.8 
L 163.953225 184.32 
z
" style="fill:#ff0000;stroke:#000000;stroke-linejoin:miter;"/>
   </g>
   <g id="patch_166">
    <path clip-path="url(#pe22431c62b)" d="M 183.906451 195.84 
L 203.859676 184.32 
L 203.859676 207.36 
L 183.906451 218.88 
z
" style="fill:#bf8040;stroke:#000000;stroke-linejoin:miter;"/>
   </g>
   <g id="patch_167">
    <path clip-path="url(#pe22431c62b)" d="M 183.906451 195.84 
L 163.953225 184.32 
L 163.953225 207.36 
L 183.906451 218.88 
z
" style="fill:#00ffff;stroke:#000000;stroke-linejoin:miter;"/>
   </g>
   <g id="patch_168">
    <path clip-path="url(#pe22431c62b)" d="M 183.906451 172.8 
L 203.859676 161.28 
L 183.906451 149.76 
L 163.953225 161.28 
z
" style="fill:#ff0000;stroke:#000000;stroke-linejoin:miter;"/>
   </g>
   <g id="patch_169">
    <path clip-path="url(#pe22431c62b)" d="M 183.906451 172.8 
L 203.859676 161.28 
L 203.859676 184.32 
L 183.906451 195.84 
z
" style="fill:#bf8040;stroke:#000000;stroke-linejoin:miter;"/>
   </g>
   <g id="patch_170">
    <path clip-path="url(#pe22431c62b)" d="M 183.906451 172.8 
L 163.953225 161.28 
L 163.953225 184.32 
L 183.906451 195.84 
z
" style="fill:#00ffff;stroke:#000000;stroke-linejoin:miter;"/>
   </g>
   <g id="patch_171">
    <path clip-path="url(#pe22431c62b)" d="M 104.093549 172.8 
L 124.046775 161.28 
L 104.093549 149.76 
L 84.140324 161.28 
z
" style="fill:#ff0000;stroke:#000000;stroke-linejoin:miter;"/>
   </g>
   <g id="patch_172">
    <path clip-path="url(#pe22431c62b)" d="M 104.093549 172.8 
L 124.046775 161.28 
L 124.046775 184.32 
L 104.093549 195.84 
z
" style="fill:#bf8040;stroke:#000000;stroke-linejoin:miter;"/>
   </g>
   <g id="patch_173">
    <path clip-path="url(#pe22431c62b)" d="M 104.093549 172.8 
L 84.140324 161.28 
L 84.140324 184.32 
L 104.093549 195.84 
z
" style="fill:#00ffff;stroke:#000000;stroke-linejoin:miter;"/>
   </g>
   <g id="patch_174">
    <path clip-path="url(#pe22431c62b)" d="M 104.093549 149.76 
L 124.046775 138.24 
L 104.093549 126.72 
L 84.140324 138.24 
z
" style="fill:#ff0000;stroke:#000000;stroke-linejoin:miter;"/>
   </g>
   <g id="patch_175">
    <path clip-path="url(#pe22431c62b)" d="M 104.093549 149.76 
L 124.046775 138.24 
L 124.046775 161.28 
L 104.093549 172.8 
z
" style="fill:#bf8040;stroke:#000000;stroke-linejoin:miter;"/>
   </g>
   <g id="patch_176">
    <path clip-path="url(#pe22431c62b)" d="M 104.093549 149.76 
L 84.140324 138.24 
L 84.140324 161.28 
L 104.093549 172.8 
z
" style="fill:#00ffff;stroke:#000000;stroke-linejoin:miter;"/>
   </g>
   <g id="patch_177">
    <path clip-path="url(#pe22431c62b)" d="M 104.093549 126.72 
L 124.046775 115.2 
L 104.093549 103.68 
L 84.140324 115.2 
z
" style="fill:#ff0000;stroke:#000000;stroke-linejoin:miter;"/>
   </g>
   <g id="patch_178">
    <path clip-path="url(#pe22431c62b)" d="M 104.093549 126.72 
L 124.046775 115.2 
L 124.046775 138.24 
L 104.093549 149.76 
z
" style="fill:#bf8040;stroke:#000000;stroke-linejoin:miter;"/>
   </g>
   <g id="patch_179">
    <path clip-path="url(#pe22431c62b)" d="M 104.093549 126.72 
L 84.140324 115.2 
L 84.140324 138.24 
L 104.093549 149.76 
z
" style="fill:#00ffff;stroke:#000000;stroke-linejoin:miter;"/>
   </g>
   <g id="patch_180">
    <path clip-path="url(#pe22431c62b)" d="M 124.046775 184.32 
L 144 172.8 
L 124.046775 161.28 
L 104.093549 172.8 
z
" style="fill:#ff0000;stroke:#000000;stroke-linejoin:miter;"/>
   </g>
   <g id="patch_181">
    <path clip-path="url(#pe22431c62b)" d="M 124.046775 184.32 
L 144 172.8 
L 144 195.84 
L 124.046775 207.36 
z
" style="fill:#bf8040;stroke:#000000;stroke-linejoin:miter;"/>
   </g>
   <g id="patch_182">
    <path clip-path="url(#pe22431c62b)" d="M 124.046775 184.32 
L 104.093549 172.8 
L 104.093549 195.84 
L 124.046775 207.36 
z
" style="fill:#00ffff;stroke:#000000;stroke-linejoin:miter;"/>
   </g>
   <g id="patch_183">
    <path clip-path="url(#pe22431c62b)" d="M 124.046775 161.28 
L 144 149.76 
L 124.046775 138.24 
L 104.093549 149.76 
z
" style="fill:#ff0000;stroke:#000000;stroke-linejoin:miter;"/>
   </g>
   <g id="patch_184">
    <path clip-path="url(#pe22431c62b)" d="M 124.046775 161.28 
L 144 149.76 
L 144 172.8 
L 124.046775 184.32 
z
" style="fill:#bf8040;stroke:#000000;stroke-linejoin:miter;"/>
   </g>
   <g id="patch_185">
    <path clip-path="url(#pe22431c62b)" d="M 124.046775 161.28 
L 104.093549 149.76 
L 104.093549 172.8 
L 124.046775 184.32 
z
" style="fill:#00ffff;stroke:#000000;stroke-linejoin:miter;"/>
   </g>
   <g id="patch_186">
    <path clip-path="url(#pe22431c62b)" d="M 144 195.84 
L 163.953225 184.32 
L 144 172.8 
L 124.046775 184.32 
z
" style="fill:#ff0000;stroke:#000000;stroke-linejoin:miter;"/>
   </g>
   <g id="patch_187">
    <path clip-path="url(#pe22431c62b)" d="M 144 195.84 
L 163.953225 184.32 
L 163.953225 207.36 
L 144 218.88 
z
" style="fill:#bf8040;stroke:#000000;stroke-linejoin:miter;"/>
   </g>
   <g id="patch_188">
    <path clip-path="url(#pe22431c62b)" d="M 144 195.84 
L 124.046775 184.32 
L 124.046775 207.36 
L 144 218.88 
z
" style="fill:#00ffff;stroke:#000000;stroke-linejoin:miter;"/>
   </g>
   <g id="patch_189">
    <path clip-path="url(#pe22431c62b)" d="M 84.140324 184.32 
L 104.093549 172.8 
L 84.140324 161.28 
L 64.187099 172.8 
z
" style="fill:#ff0000;stroke:#000000;stroke-linejoin:miter;"/>
   </g>
   <g id="patch_190">
    <path clip-path="url(#pe22431c62b)" d="M 84.140324 184.32 
L 104.093549 172.8 
L 104.093549 195.84 
L 84.140324 207.36 
z
" style="fill:#bf8040;stroke:#000000;stroke-linejoin:miter;"/>
   </g>
   <g id="patch_191">
    <path clip-path="url(#pe22431c62b)" d="M 84.140324 184.32 
L 64.187099 172.8 
L 64.187099 195.84 
L 84.140324 207.36 
z
" style="fill:#00ffff;stroke:#000000;stroke-linejoin:miter;"/>
   </g>
   <g id="patch_192">
    <path clip-path="url(#pe22431c62b)" d="M 84.140324 161.28 
L 104.093549 149.76 
L 84.140324 138.24 
L 64.187099 149.76 
z
" style="fill:#ff0000;stroke:#000000;stroke-linejoin:miter;"/>
   </g>
   <g id="patch_193">
    <path clip-path="url(#pe22431c62b)" d="M 84.140324 161.28 
L 104.093549 149.76 
L 104.093549 172.8 
L 84.140324 184.32 
z
" style="fill:#bf8040;stroke:#000000;stroke-linejoin:miter;"/>
   </g>
   <g id="patch_194">
    <path clip-path="url(#pe22431c62b)" d="M 84.140324 161.28 
L 64.187099 149.76 
L 64.187099 172.8 
L 84.140324 184.32 
z
" style="fill:#00ffff;stroke:#000000;stroke-linejoin:miter;"/>
   </g>
   <g id="patch_195">
    <path clip-path="url(#pe22431c62b)" d="M 84.140324 138.24 
L 104.093549 126.72 
L 84.140324 115.2 
L 64.187099 126.72 
z
" style="fill:#ff0000;stroke:#000000;stroke-linejoin:miter;"/>
   </g>
   <g id="patch_196">
    <path clip-path="url(#pe22431c62b)" d="M 84.140324 138.24 
L 104.093549 126.72 
L 104.093549 149.76 
L 84.140324 161.28 
z
" style="fill:#bf8040;stroke:#000000;stroke-linejoin:miter;"/>
   </g>
   <g id="patch_197">
    <path clip-path="url(#pe22431c62b)" d="M 84.140324 138.24 
L 64.187099 126.72 
L 64.187099 149.76 
L 84.140324 161.28 
z
" style="fill:#00ffff;stroke:#000000;stroke-linejoin:miter;"/>
   </g>
   <g id="patch_198">
    <path clip-path="url(#pe22431c62b)" d="M 104.093549 195.84 
L 124.046775 184.32 
L 104.093549 172.8 
L 84.140324 184.32 
z
" style="fill:#ff0000;stroke:#000000;stroke-linejoin:miter;"/>
   </g>
   <g id="patch_199">
    <path clip-path="url(#pe22431c62b)" d="M 104.093549 195.84 
L 124.046775 184.32 
L 124.046775 207.36 
L 104.093549 218.88 
z
" style="fill:#bf8040;stroke:#000000;stroke-linejoin:miter;"/>
   </g>
   <g id="patch_200">
    <path clip-path="url(#pe22431c62b)" d="M 104.093549 195.84 
L 84.140324 184.32 
L 84.140324 207.36 
L 104.093549 218.88 
z
" style="fill:#00ffff;stroke:#000000;stroke-linejoin:miter;"/>
   </g>
   <g id="patch_201">
    <path clip-path="url(#pe22431c62b)" d="M 104.093549 172.8 
L 124.046775 161.28 
L 104.093549 149.76 
L 84.140324 161.28 
z
" style="fill:#ff0000;stroke:#000000;stroke-linejoin:miter;"/>
   </g>
   <g id="patch_202">
    <path clip-path="url(#pe22431c62b)" d="M 104.093549 172.8 
L 124.046775 161.28 
L 124.046775 184.32 
L 104.093549 195.84 
z
" style="fill:#bf8040;stroke:#000000;stroke-linejoin:miter;"/>
   </g>
   <g id="patch_203">
    <path clip-path="url(#pe22431c62b)" d="M 104.093549 172.8 
L 84.140324 161.28 
L 84.140324 184.32 
L 104.093549 195.84 
z
" style="fill:#00ffff;stroke:#000000;stroke-linejoin:miter;"/>
   </g>
   <g id="patch_204">
    <path clip-path="url(#pe22431c62b)" d="M 64.187099 195.84 
L 84.140324 184.32 
L 64.187099 172.8 
L 44.233873 184.32 
z
" style="fill:#ff0000;stroke:#000000;stroke-linejoin:miter;"/>
   </g>
   <g id="patch_205">
    <path clip-path="url(#pe22431c62b)" d="M 64.187099 195.84 
L 84.140324 184.32 
L 84.140324 207.36 
L 64.187099 218.88 
z
" style="fill:#bf8040;stroke:#000000;stroke-linejoin:miter;"/>
   </g>
   <g id="patch_206">
    <path clip-path="url(#pe22431c62b)" d="M 64.187099 195.84 
L 44.233873 184.32 
L 44.233873 207.36 
L 64.187099 218.88 
z
" style="fill:#00ffff;stroke:#000000;stroke-linejoin:miter;"/>
   </g>
   <g id="line2d_1">
    <path clip-path="url(#pe22431c62b)" d="M 144 11.52 
L 144 264.96 
" style="fill:none;stroke:#0000ff;stroke-linecap:square;stroke-width:1.5;"/>
   </g>
  </g>
 </g>
 <defs>
  <clipPath id="pe22431c62b">
   <rect height="288" width="207.36" x="40.32" y="0"/>
  </clipPath>
 </defs>
</svg>
