<?xml version="1.0" encoding="UTF-8"?>
<svg xmlns="http://www.w3.org/2000/svg" xmlns:xlink="http://www.w3.org/1999/xlink" width="300pt" height="300pt" viewBox="0 0 300 300" version="1.1">
<g id="surface1">
<path style=" stroke:none;fill-rule:nonzero;fill:rgb(100%,50%,0%);fill-opacity:1;" d="M 284.039062 109.828125 C 284.039062 104.085938 279.382812 99.429688 273.636719 99.429688 C 267.894531 99.429688 263.238281 104.085938 263.238281 109.828125 C 263.238281 115.570312 267.894531 120.226562 273.636719 120.226562 C 279.382812 120.226562 284.039062 115.570312 284.039062 109.828125 "/>
<path style="fill:none;stroke-width:10;stroke-linecap:butt;stroke-linejoin:miter;stroke:rgb(0%,0%,0%);stroke-opacity:1;stroke-miterlimit:10;" d="M 2840.390625 1901.71875 C 2840.390625 1959.140625 2793.828125 2005.703125 2736.367188 2005.703125 C 2678.945312 2005.703125 2632.382812 1959.140625 2632.382812 1901.71875 C 2632.382812 1844.296875 2678.945312 1797.734375 2736.367188 1797.734375 C 2793.828125 1797.734375 2840.390625 1844.296875 2840.390625 1901.71875 Z M 2840.390625 1901.71875 " transform="matrix(0.1,0,0,-0.1,0,300)"/>
<path style=" stroke:none;fill-rule:nonzero;fill:rgb(100%,50%,0%);fill-opacity:1;" d="M 160.398438 20 C 160.398438 14.257812 155.742188 9.601562 150 9.601562 C 144.257812 9.601562 139.601562 14.257812 139.601562 20 C 139.601562 25.742188 144.257812 30.398438 150 30.398438 C 155.742188 30.398438 160.398438 25.742188 160.398438 20 "/>
<path style="fill:none;stroke-width:10;stroke-linecap:butt;stroke-linejoin:miter;stroke:rgb(0%,0%,0%);stroke-opacity:1;stroke-miterlimit:10;" d="M 1603.984375 2800 C 1603.984375 2857.421875 1557.421875 2903.984375 1500 2903.984375 C 1442.578125 2903.984375 1396.015625 2857.421875 1396.015625 2800 C 1396.015625 2742.578125 1442.578125 2696.015625 1500 2696.015625 C 1557.421875 2696.015625 1603.984375 2742.578125 1603.984375 2800 Z M 1603.984375 2800 " transform="matrix(0.1,0,0,-0.1,0,300)"/>
<path style=" stroke:none;fill-rule:nonzero;fill:rgb(100%,50%,0%);fill-opacity:1;" d="M 36.761719 109.828125 C 36.761719 104.085938 32.105469 99.429688 26.363281 99.429688 C 20.617188 99.429688 15.960938 104.085938 15.960938 109.828125 C 15.960938 115.570312 20.617188 120.226562 26.363281 120.226562 C 32.105469 120.226562 36.761719 115.570312 36.761719 109.828125 "/>
<path style="fill:none;stroke-width:10;stroke-linecap:butt;stroke-linejoin:miter;stroke:rgb(0%,0%,0%);stroke-opacity:1;stroke-miterlimit:10;" d="M 367.617188 1901.71875 C 367.617188 1959.140625 321.054688 2005.703125 263.632812 2005.703125 C 206.171875 2005.703125 159.609375 1959.140625 159.609375 1901.71875 C 159.609375 1844.296875 206.171875 1797.734375 263.632812 1797.734375 C 321.054688 1797.734375 367.617188 1844.296875 367.617188 1901.71875 Z M 367.617188 1901.71875 " transform="matrix(0.1,0,0,-0.1,0,300)"/>
<path style=" stroke:none;fill-rule:nonzero;fill:rgb(100%,50%,0%);fill-opacity:1;" d="M 83.988281 255.171875 C 83.988281 249.429688 79.332031 244.773438 73.589844 244.773438 C 67.84375 244.773438 63.1875 249.429688 63.1875 255.171875 C 63.1875 260.914062 67.84375 265.574219 73.589844 265.574219 C 79.332031 265.574219 83.988281 260.914062 83.988281 255.171875 "/>
<path style="fill:none;stroke-width:10;stroke-linecap:butt;stroke-linejoin:miter;stroke:rgb(0%,0%,0%);stroke-opacity:1;stroke-miterlimit:10;" d="M 839.882812 448.28125 C 839.882812 505.703125 793.320312 552.265625 735.898438 552.265625 C 678.4375 552.265625 631.875 505.703125 631.875 448.28125 C 631.875 390.859375 678.4375 344.257812 735.898438 344.257812 C 793.320312 344.257812 839.882812 390.859375 839.882812 448.28125 Z M 839.882812 448.28125 " transform="matrix(0.1,0,0,-0.1,0,300)"/>
<path style=" stroke:none;fill-rule:nonzero;fill:rgb(100%,50%,0%);fill-opacity:1;" d="M 236.8125 255.171875 C 236.8125 249.429688 232.15625 244.773438 226.410156 244.773438 C 220.667969 244.773438 216.011719 249.429688 216.011719 255.171875 C 216.011719 260.914062 220.667969 265.574219 226.410156 265.574219 C 232.15625 265.574219 236.8125 260.914062 236.8125 255.171875 "/>
<path style="fill:none;stroke-width:10;stroke-linecap:butt;stroke-linejoin:miter;stroke:rgb(0%,0%,0%);stroke-opacity:1;stroke-miterlimit:10;" d="M 2368.125 448.28125 C 2368.125 505.703125 2321.5625 552.265625 2264.101562 552.265625 C 2206.679688 552.265625 2160.117188 505.703125 2160.117188 448.28125 C 2160.117188 390.859375 2206.679688 344.257812 2264.101562 344.257812 C 2321.5625 344.257812 2368.125 390.859375 2368.125 448.28125 Z M 2368.125 448.28125 " transform="matrix(0.1,0,0,-0.1,0,300)"/>
<path style=" stroke:none;fill-rule:nonzero;fill:rgb(0%,0%,0%);fill-opacity:1;" d="M 255.855469 95.300781 L 178.691406 39.238281 L 184.175781 36.796875 L 168.546875 33.472656 L 176.535156 47.3125 L 177.164062 41.34375 L 254.328125 97.40625 L 255.855469 95.300781 "/>
<path style="fill:none;stroke-width:10;stroke-linecap:butt;stroke-linejoin:miter;stroke:rgb(0%,0%,0%);stroke-opacity:1;stroke-miterlimit:10;" d="M 2558.554688 2046.992188 L 1786.914062 2607.617188 L 1841.757812 2632.03125 L 1685.46875 2665.273438 L 1765.351562 2526.875 L 1771.640625 2586.5625 L 2543.28125 2025.9375 Z M 2558.554688 2046.992188 " transform="matrix(0.1,0,0,-0.1,0,300)"/>
<path style=" stroke:none;fill-rule:nonzero;fill:rgb(0%,0%,0%);fill-opacity:1;" d="M 130.691406 32.421875 L 53.527344 88.484375 L 52.898438 82.515625 L 44.90625 96.355469 L 60.539062 93.03125 L 55.054688 90.589844 L 132.21875 34.527344 L 130.691406 32.421875 "/>
<path style="fill:none;stroke-width:10;stroke-linecap:butt;stroke-linejoin:miter;stroke:rgb(0%,0%,0%);stroke-opacity:1;stroke-miterlimit:10;" d="M 1306.914062 2675.78125 L 535.273438 2115.15625 L 528.984375 2174.84375 L 449.0625 2036.445312 L 605.390625 2069.6875 L 550.546875 2094.101562 L 1322.1875 2654.726562 Z M 1306.914062 2675.78125 " transform="matrix(0.1,0,0,-0.1,0,300)"/>
<path style=" stroke:none;fill-rule:nonzero;fill:rgb(0%,0%,0%);fill-opacity:1;" d="M 32.210938 132.03125 L 61.683594 222.742188 L 55.8125 221.496094 L 66.503906 233.371094 L 68.175781 217.476562 L 64.15625 221.941406 L 34.683594 131.226562 L 32.210938 132.03125 "/>
<path style="fill:none;stroke-width:10;stroke-linecap:butt;stroke-linejoin:miter;stroke:rgb(0%,0%,0%);stroke-opacity:1;stroke-miterlimit:10;" d="M 322.109375 1679.6875 L 616.835938 772.578125 L 558.125 785.039062 L 665.039062 666.289062 L 681.757812 825.234375 L 641.5625 780.585938 L 346.835938 1687.734375 Z M 322.109375 1679.6875 " transform="matrix(0.1,0,0,-0.1,0,300)"/>
<path style=" stroke:none;fill-rule:nonzero;fill:rgb(0%,0%,0%);fill-opacity:1;" d="M 96.511719 256.472656 L 191.890625 256.472656 L 188.890625 261.671875 L 203.488281 255.171875 L 188.890625 248.671875 L 191.890625 253.871094 L 96.511719 253.871094 L 96.511719 256.472656 "/>
<path style="fill:none;stroke-width:10;stroke-linecap:butt;stroke-linejoin:miter;stroke:rgb(0%,0%,0%);stroke-opacity:1;stroke-miterlimit:10;" d="M 965.117188 435.273438 L 1918.90625 435.273438 L 1888.90625 383.28125 L 2034.882812 448.28125 L 1888.90625 513.28125 L 1918.90625 461.289062 L 965.117188 461.289062 Z M 965.117188 435.273438 " transform="matrix(0.1,0,0,-0.1,0,300)"/>
<path style=" stroke:none;fill-rule:nonzero;fill:rgb(0%,0%,0%);fill-opacity:1;" d="M 234.730469 233.773438 L 264.207031 143.0625 L 268.222656 147.523438 L 266.554688 131.628906 L 255.859375 143.503906 L 261.734375 142.257812 L 232.257812 232.96875 L 234.730469 233.773438 "/>
<path style="fill:none;stroke-width:10;stroke-linecap:butt;stroke-linejoin:miter;stroke:rgb(0%,0%,0%);stroke-opacity:1;stroke-miterlimit:10;" d="M 2347.304688 662.265625 L 2642.070312 1569.375 L 2682.226562 1524.765625 L 2665.546875 1683.710938 L 2558.59375 1564.960938 L 2617.34375 1577.421875 L 2322.578125 670.3125 Z M 2347.304688 662.265625 " transform="matrix(0.1,0,0,-0.1,0,300)"/>
<path style=" stroke:none;fill-rule:nonzero;fill:rgb(0%,100%,0%);fill-opacity:1;" d="M 196.160156 123.351562 C 181.441406 97.855469 148.84375 89.121094 123.351562 103.839844 C 97.855469 118.558594 89.121094 151.15625 103.839844 176.648438 C 118.558594 202.144531 151.15625 210.878906 176.648438 196.160156 C 181.339844 193.453125 185.589844 190.046875 189.253906 186.058594 L 191.050781 191.785156 L 196.140625 176.640625 L 181.476562 182.992188 L 187.335938 184.300781 C 168.394531 204.917969 136.320312 206.28125 115.699219 187.335938 C 95.082031 168.394531 93.71875 136.320312 112.664062 115.699219 C 131.605469 95.078125 163.679688 93.71875 184.300781 112.664062 C 188.09375 116.148438 191.332031 120.1875 193.90625 124.648438 L 196.160156 123.351562 "/>
<path style="fill:none;stroke-width:10;stroke-linecap:butt;stroke-linejoin:miter;stroke:rgb(0%,0%,0%);stroke-opacity:1;stroke-miterlimit:10;" d="M 1961.601562 1766.484375 C 1814.414062 2021.445312 1488.4375 2108.789062 1233.515625 1961.601562 C 978.554688 1814.414062 891.210938 1488.4375 1038.398438 1233.515625 C 1185.585938 978.554688 1511.5625 891.210938 1766.484375 1038.398438 C 1813.398438 1065.46875 1855.898438 1099.53125 1892.539062 1139.414062 L 1910.507812 1082.148438 L 1961.40625 1233.59375 L 1814.765625 1170.078125 L 1873.359375 1156.992188 C 1683.945312 950.820312 1363.203125 937.1875 1156.992188 1126.640625 C 950.820312 1316.054688 937.1875 1636.796875 1126.640625 1843.007812 C 1316.054688 2049.21875 1636.796875 2062.8125 1843.007812 1873.359375 C 1880.9375 1838.515625 1913.320312 1798.125 1939.0625 1753.515625 Z M 1961.601562 1766.484375 " transform="matrix(0.1,0,0,-0.1,0,300)"/>
</g>
</svg>
