<?xml version="1.0" encoding="UTF-8"?>
<svg xmlns="http://www.w3.org/2000/svg" xmlns:xlink="http://www.w3.org/1999/xlink" width="300pt" height="300pt" viewBox="0 0 300 300" version="1.1">
<g id="surface1">
<path style=" stroke:none;fill-rule:nonzero;fill:rgb(100%,0%,0%);fill-opacity:1;" d="M 160.398438 150 C 160.398438 144.257812 155.742188 139.601562 150 139.601562 C 144.257812 139.601562 139.601562 144.257812 139.601562 150 C 139.601562 155.742188 144.257812 160.398438 150 160.398438 C 155.742188 160.398438 160.398438 155.742188 160.398438 150 "/>
<path style="fill:none;stroke-width:10;stroke-linecap:butt;stroke-linejoin:miter;stroke:rgb(0%,0%,0%);stroke-opacity:1;stroke-miterlimit:10;" d="M 1603.984375 1500 C 1603.984375 1557.421875 1557.421875 1603.984375 1500 1603.984375 C 1442.578125 1603.984375 1396.015625 1557.421875 1396.015625 1500 C 1396.015625 1442.578125 1442.578125 1396.015625 1500 1396.015625 C 1557.421875 1396.015625 1603.984375 1442.578125 1603.984375 1500 Z M 1603.984375 1500 " transform="matrix(0.1,0,0,-0.1,0,300)"/>
<path style=" stroke:none;fill-rule:nonzero;fill:rgb(0%,100%,0%);fill-opacity:1;" d="M 290.398438 150 C 290.398438 144.257812 285.742188 139.601562 280 139.601562 C 274.257812 139.601562 269.601562 144.257812 269.601562 150 C 269.601562 155.742188 274.257812 160.398438 280 160.398438 C 285.742188 160.398438 290.398438 155.742188 290.398438 150 "/>
<path style="fill:none;stroke-width:10;stroke-linecap:butt;stroke-linejoin:miter;stroke:rgb(0%,0%,0%);stroke-opacity:1;stroke-miterlimit:10;" d="M 2903.984375 1500 C 2903.984375 1557.421875 2857.421875 1603.984375 2800 1603.984375 C 2742.578125 1603.984375 2696.015625 1557.421875 2696.015625 1500 C 2696.015625 1442.578125 2742.578125 1396.015625 2800 1396.015625 C 2857.421875 1396.015625 2903.984375 1442.578125 2903.984375 1500 Z M 2903.984375 1500 " transform="matrix(0.1,0,0,-0.1,0,300)"/>
<path style=" stroke:none;fill-rule:nonzero;fill:rgb(0%,0%,0%);fill-opacity:1;" d="M 169.5 151.300781 L 248.902344 151.300781 L 245.902344 156.5 L 260.5 150 L 245.902344 143.5 L 248.902344 148.699219 L 169.5 148.699219 L 169.5 151.300781 "/>
<path style="fill:none;stroke-width:10;stroke-linecap:butt;stroke-linejoin:miter;stroke:rgb(0%,0%,0%);stroke-opacity:1;stroke-miterlimit:10;" d="M 1695 1486.992188 L 2489.023438 1486.992188 L 2459.023438 1435 L 2605 1500 L 2459.023438 1565 L 2489.023438 1513.007812 L 1695 1513.007812 Z M 1695 1486.992188 " transform="matrix(0.1,0,0,-0.1,0,300)"/>
<path style=" stroke:none;fill-rule:nonzero;fill:rgb(0%,100%,0%);fill-opacity:1;" d="M 200.570312 26.363281 C 200.570312 20.617188 195.914062 15.960938 190.171875 15.960938 C 184.429688 15.960938 179.773438 20.617188 179.773438 26.363281 C 179.773438 32.105469 184.429688 36.761719 190.171875 36.761719 C 195.914062 36.761719 200.570312 32.105469 200.570312 26.363281 "/>
<path style="fill:none;stroke-width:10;stroke-linecap:butt;stroke-linejoin:miter;stroke:rgb(0%,0%,0%);stroke-opacity:1;stroke-miterlimit:10;" d="M 2005.703125 2736.367188 C 2005.703125 2793.828125 1959.140625 2840.390625 1901.71875 2840.390625 C 1844.296875 2840.390625 1797.734375 2793.828125 1797.734375 2736.367188 C 1797.734375 2678.945312 1844.296875 2632.382812 1901.71875 2632.382812 C 1959.140625 2632.382812 2005.703125 2678.945312 2005.703125 2736.367188 Z M 2005.703125 2736.367188 " transform="matrix(0.1,0,0,-0.1,0,300)"/>
<path style=" stroke:none;fill-rule:nonzero;fill:rgb(0%,0%,0%);fill-opacity:1;" d="M 157.261719 131.855469 L 181.800781 56.339844 L 185.816406 60.800781 L 184.144531 44.90625 L 173.453125 56.785156 L 179.324219 55.535156 L 154.789062 131.054688 L 157.261719 131.855469 "/>
<path style="fill:none;stroke-width:10;stroke-linecap:butt;stroke-linejoin:miter;stroke:rgb(0%,0%,0%);stroke-opacity:1;stroke-miterlimit:10;" d="M 1572.617188 1681.445312 L 1818.007812 2436.601562 L 1858.164062 2391.992188 L 1841.445312 2550.9375 L 1734.53125 2432.148438 L 1793.242188 2444.648438 L 1547.890625 1689.453125 Z M 1572.617188 1681.445312 " transform="matrix(0.1,0,0,-0.1,0,300)"/>
<path style=" stroke:none;fill-rule:nonzero;fill:rgb(0%,100%,0%);fill-opacity:1;" d="M 55.226562 73.589844 C 55.226562 67.84375 50.570312 63.1875 44.828125 63.1875 C 39.085938 63.1875 34.425781 67.84375 34.425781 73.589844 C 34.425781 79.332031 39.085938 83.988281 44.828125 83.988281 C 50.570312 83.988281 55.226562 79.332031 55.226562 73.589844 "/>
<path style="fill:none;stroke-width:10;stroke-linecap:butt;stroke-linejoin:miter;stroke:rgb(0%,0%,0%);stroke-opacity:1;stroke-miterlimit:10;" d="M 552.265625 2264.101562 C 552.265625 2321.5625 505.703125 2368.125 448.28125 2368.125 C 390.859375 2368.125 344.257812 2321.5625 344.257812 2264.101562 C 344.257812 2206.679688 390.859375 2160.117188 448.28125 2160.117188 C 505.703125 2160.117188 552.265625 2206.679688 552.265625 2264.101562 Z M 552.265625 2264.101562 " transform="matrix(0.1,0,0,-0.1,0,300)"/>
<path style=" stroke:none;fill-rule:nonzero;fill:rgb(0%,0%,0%);fill-opacity:1;" d="M 134.988281 137.484375 L 70.75 90.8125 L 76.234375 88.371094 L 60.601562 85.050781 L 68.59375 98.890625 L 69.222656 92.917969 L 133.460938 139.589844 L 134.988281 137.484375 "/>
<path style="fill:none;stroke-width:10;stroke-linecap:butt;stroke-linejoin:miter;stroke:rgb(0%,0%,0%);stroke-opacity:1;stroke-miterlimit:10;" d="M 1349.882812 1625.15625 L 707.5 2091.875 L 762.34375 2116.289062 L 606.015625 2149.492188 L 685.9375 2011.09375 L 692.226562 2070.820312 L 1334.609375 1604.101562 Z M 1349.882812 1625.15625 " transform="matrix(0.1,0,0,-0.1,0,300)"/>
<path style=" stroke:none;fill-rule:nonzero;fill:rgb(0%,100%,0%);fill-opacity:1;" d="M 55.226562 226.410156 C 55.226562 220.667969 50.570312 216.011719 44.828125 216.011719 C 39.085938 216.011719 34.425781 220.667969 34.425781 226.410156 C 34.425781 232.15625 39.085938 236.8125 44.828125 236.8125 C 50.570312 236.8125 55.226562 232.15625 55.226562 226.410156 "/>
<path style="fill:none;stroke-width:10;stroke-linecap:butt;stroke-linejoin:miter;stroke:rgb(0%,0%,0%);stroke-opacity:1;stroke-miterlimit:10;" d="M 552.265625 735.898438 C 552.265625 793.320312 505.703125 839.882812 448.28125 839.882812 C 390.859375 839.882812 344.257812 793.320312 344.257812 735.898438 C 344.257812 678.4375 390.859375 631.875 448.28125 631.875 C 505.703125 631.875 552.265625 678.4375 552.265625 735.898438 Z M 552.265625 735.898438 " transform="matrix(0.1,0,0,-0.1,0,300)"/>
<path style=" stroke:none;fill-rule:nonzero;fill:rgb(0%,0%,0%);fill-opacity:1;" d="M 133.460938 160.410156 L 69.222656 207.082031 L 68.59375 201.109375 L 60.601562 214.949219 L 76.234375 211.628906 L 70.75 209.183594 L 134.988281 162.515625 L 133.460938 160.410156 "/>
<path style="fill:none;stroke-width:10;stroke-linecap:butt;stroke-linejoin:miter;stroke:rgb(0%,0%,0%);stroke-opacity:1;stroke-miterlimit:10;" d="M 1334.609375 1395.898438 L 692.226562 929.179688 L 685.9375 988.90625 L 606.015625 850.507812 L 762.34375 883.710938 L 707.5 908.164062 L 1349.882812 1374.84375 Z M 1334.609375 1395.898438 " transform="matrix(0.1,0,0,-0.1,0,300)"/>
<path style=" stroke:none;fill-rule:nonzero;fill:rgb(0%,100%,0%);fill-opacity:1;" d="M 200.570312 273.636719 C 200.570312 267.894531 195.914062 263.238281 190.171875 263.238281 C 184.429688 263.238281 179.773438 267.894531 179.773438 273.636719 C 179.773438 279.382812 184.429688 284.039062 190.171875 284.039062 C 195.914062 284.039062 200.570312 279.382812 200.570312 273.636719 "/>
<path style="fill:none;stroke-width:10;stroke-linecap:butt;stroke-linejoin:miter;stroke:rgb(0%,0%,0%);stroke-opacity:1;stroke-miterlimit:10;" d="M 2005.703125 263.632812 C 2005.703125 321.054688 1959.140625 367.617188 1901.71875 367.617188 C 1844.296875 367.617188 1797.734375 321.054688 1797.734375 263.632812 C 1797.734375 206.171875 1844.296875 159.609375 1901.71875 159.609375 C 1959.140625 159.609375 2005.703125 206.171875 2005.703125 263.632812 Z M 2005.703125 263.632812 " transform="matrix(0.1,0,0,-0.1,0,300)"/>
<path style=" stroke:none;fill-rule:nonzero;fill:rgb(0%,0%,0%);fill-opacity:1;" d="M 154.789062 168.945312 L 179.324219 244.464844 L 173.453125 243.214844 L 184.144531 255.09375 L 185.816406 239.199219 L 181.800781 243.660156 L 157.261719 168.144531 L 154.789062 168.945312 "/>
<path style="fill:none;stroke-width:10;stroke-linecap:butt;stroke-linejoin:miter;stroke:rgb(0%,0%,0%);stroke-opacity:1;stroke-miterlimit:10;" d="M 1547.890625 1310.546875 L 1793.242188 555.351562 L 1734.53125 567.851562 L 1841.445312 449.0625 L 1858.164062 608.007812 L 1818.007812 563.398438 L 1572.617188 1318.554688 Z M 1547.890625 1310.546875 " transform="matrix(0.1,0,0,-0.1,0,300)"/>
</g>
</svg>
